%TF.GenerationSoftware,KiCad,Pcbnew,(6.0.1)*%
%TF.CreationDate,2022-02-25T19:27:25-05:00*%
%TF.ProjectId,InductorSchem,496e6475-6374-46f7-9253-6368656d2e6b,1*%
%TF.SameCoordinates,Original*%
%TF.FileFunction,Soldermask,Bot*%
%TF.FilePolarity,Negative*%
%FSLAX46Y46*%
G04 Gerber Fmt 4.6, Leading zero omitted, Abs format (unit mm)*
G04 Created by KiCad (PCBNEW (6.0.1)) date 2022-02-25 19:27:25*
%MOMM*%
%LPD*%
G01*
G04 APERTURE LIST*
G04 Aperture macros list*
%AMRoundRect*
0 Rectangle with rounded corners*
0 $1 Rounding radius*
0 $2 $3 $4 $5 $6 $7 $8 $9 X,Y pos of 4 corners*
0 Add a 4 corners polygon primitive as box body*
4,1,4,$2,$3,$4,$5,$6,$7,$8,$9,$2,$3,0*
0 Add four circle primitives for the rounded corners*
1,1,$1+$1,$2,$3*
1,1,$1+$1,$4,$5*
1,1,$1+$1,$6,$7*
1,1,$1+$1,$8,$9*
0 Add four rect primitives between the rounded corners*
20,1,$1+$1,$2,$3,$4,$5,0*
20,1,$1+$1,$4,$5,$6,$7,0*
20,1,$1+$1,$6,$7,$8,$9,0*
20,1,$1+$1,$8,$9,$2,$3,0*%
G04 Aperture macros list end*
%ADD10R,1.498600X1.498600*%
%ADD11C,1.498600*%
%ADD12R,1.600000X1.600000*%
%ADD13O,1.600000X1.600000*%
%ADD14C,0.700000*%
%ADD15O,0.900000X2.400000*%
%ADD16O,0.900000X1.700000*%
%ADD17RoundRect,0.250001X-0.799999X0.799999X-0.799999X-0.799999X0.799999X-0.799999X0.799999X0.799999X0*%
%ADD18C,2.100000*%
%ADD19C,1.600000*%
%ADD20O,1.998980X2.748280*%
%ADD21C,3.200000*%
%ADD22C,1.800000*%
%ADD23C,1.200000*%
%ADD24C,2.200000*%
%ADD25RoundRect,0.250001X0.899999X0.899999X-0.899999X0.899999X-0.899999X-0.899999X0.899999X-0.899999X0*%
%ADD26C,2.300000*%
%ADD27O,2.200000X1.500000*%
G04 APERTURE END LIST*
D10*
%TO.C,U3*%
X156718000Y-96266000D03*
D11*
X154178000Y-96266000D03*
X151638000Y-96266000D03*
X149098000Y-96266000D03*
X146558000Y-96266000D03*
X144018000Y-96266000D03*
X141478000Y-96266000D03*
X138938000Y-96266000D03*
X136398000Y-96266000D03*
X133858000Y-96266000D03*
X131318000Y-96266000D03*
X128778000Y-96266000D03*
X126238000Y-96266000D03*
X123698000Y-96266000D03*
X123698000Y-103886000D03*
X126238000Y-103886000D03*
X128778000Y-103886000D03*
X131318000Y-103886000D03*
X133858000Y-103886000D03*
X136398000Y-103886000D03*
X138938000Y-103886000D03*
X141478000Y-103886000D03*
X144018000Y-103886000D03*
X146558000Y-103886000D03*
X149098000Y-103886000D03*
X151638000Y-103886000D03*
X154178000Y-103886000D03*
X156718000Y-103886000D03*
%TD*%
D12*
%TO.C,D6*%
X155194000Y-133604000D03*
D13*
X147574000Y-133604000D03*
%TD*%
D12*
%TO.C,D5*%
X155194000Y-114300000D03*
D13*
X147574000Y-114300000D03*
%TD*%
D12*
%TO.C,D4*%
X134874000Y-133604000D03*
D13*
X127254000Y-133604000D03*
%TD*%
D12*
%TO.C,D3*%
X134874000Y-114300000D03*
D13*
X127254000Y-114300000D03*
%TD*%
D14*
%TO.C,J1*%
X160455000Y-60921000D03*
X159605000Y-60921000D03*
X158755000Y-60921000D03*
X157905000Y-60921000D03*
X157055000Y-60921000D03*
X156205000Y-60921000D03*
X155355000Y-60921000D03*
X154505000Y-60921000D03*
X154505000Y-59571000D03*
X155355000Y-59571000D03*
X156205000Y-59571000D03*
X157055000Y-59571000D03*
X157905000Y-59571000D03*
X158755000Y-59571000D03*
X159605000Y-59571000D03*
X160455000Y-59571000D03*
D15*
X153155000Y-59941000D03*
D16*
X153155000Y-56561000D03*
X161805000Y-56561000D03*
D15*
X161805000Y-59941000D03*
%TD*%
D13*
%TO.C,D1*%
X152400000Y-63754000D03*
D12*
X152400000Y-71374000D03*
%TD*%
D17*
%TO.C,J3*%
X129540000Y-63500000D03*
D18*
X129540000Y-68100000D03*
%TD*%
D19*
%TO.C,R2*%
X160020000Y-75438000D03*
D13*
X160020000Y-83058000D03*
%TD*%
D20*
%TO.C,U1*%
X124064490Y-91601290D03*
X126604490Y-91601290D03*
X129144490Y-91601290D03*
X131684490Y-91601290D03*
X134224490Y-91601290D03*
X136764490Y-91601290D03*
X139304490Y-91601290D03*
X139304490Y-75436730D03*
X136764490Y-75436730D03*
X134224490Y-75436730D03*
X131684490Y-75436730D03*
X129144490Y-75436730D03*
X126604490Y-75436730D03*
X124064490Y-75436730D03*
%TD*%
D13*
%TO.C,D2*%
X156464000Y-63754000D03*
D12*
X156464000Y-71374000D03*
%TD*%
D21*
%TO.C,SW4*%
X152908000Y-138176000D03*
D22*
X147408000Y-138176000D03*
X158408000Y-138176000D03*
D23*
X158128000Y-133976000D03*
D24*
X152908000Y-144076000D03*
X147908000Y-141976000D03*
%TD*%
D17*
%TO.C,J4*%
X145288000Y-76680000D03*
D18*
X145288000Y-81280000D03*
%TD*%
%TO.C,J2*%
X136144000Y-68100000D03*
D17*
X136144000Y-63500000D03*
%TD*%
D25*
%TO.C,J5*%
X159740000Y-87376000D03*
D26*
X154940000Y-87376000D03*
X150140000Y-87376000D03*
X145340000Y-87376000D03*
%TD*%
D23*
%TO.C,SW3*%
X137808000Y-133976000D03*
D21*
X132588000Y-138176000D03*
D22*
X138088000Y-138176000D03*
X127088000Y-138176000D03*
D24*
X132588000Y-144076000D03*
X127588000Y-141976000D03*
%TD*%
D22*
%TO.C,SW1*%
X127088000Y-118872000D03*
D21*
X132588000Y-118872000D03*
D23*
X137808000Y-114672000D03*
D22*
X138088000Y-118872000D03*
D24*
X132588000Y-124772000D03*
X127588000Y-122672000D03*
%TD*%
D22*
%TO.C,SW2*%
X147408000Y-118872000D03*
D23*
X158128000Y-114672000D03*
D21*
X152908000Y-118872000D03*
D22*
X158408000Y-118872000D03*
D24*
X152908000Y-124772000D03*
X147908000Y-122672000D03*
%TD*%
D27*
%TO.C,U2*%
X148094000Y-71376917D03*
X148094000Y-68836917D03*
X148094000Y-66296917D03*
X148094000Y-63756917D03*
X148094000Y-61216917D03*
X148094000Y-58676917D03*
%TD*%
D19*
%TO.C,R1*%
X160020000Y-64008000D03*
D13*
X160020000Y-71628000D03*
%TD*%
M02*
