M48
INCH,TZ
T1C0.0157
T2C0.0236
T3C0.0315
T4C0.0390
T5C0.0402
T6C0.0433
T7C0.0472
%
G90
G05
T1
X60829Y-23453
X60829Y-23985
X61163Y-23453
X61163Y-23985
X61498Y-23453
X61498Y-23985
X61833Y-23453
X61833Y-23985
X62167Y-23453
X62167Y-23985
X62502Y-23453
X62502Y-23985
X62837Y-23453
X62837Y-23985
X63171Y-23453
X63171Y-23985
T3
X50100Y-45000
X50100Y-52600
X53100Y-45000
X53100Y-52600
X58100Y-45000
X58100Y-52600
X60000Y-25100
X60000Y-28100
X61100Y-45000
X61100Y-52600
X61600Y-25100
X61600Y-28100
X63000Y-25200
X63000Y-28200
X63000Y-29700
X63000Y-32700
T4
X48700Y-37900
X48700Y-40900
X49700Y-37900
X49700Y-40900
X50700Y-37900
X50700Y-40900
X51700Y-37900
X51700Y-40900
X52700Y-37900
X52700Y-40900
X53700Y-37900
X53700Y-40900
X54700Y-37900
X54700Y-40900
X55700Y-37900
X55700Y-40900
X56700Y-37900
X56700Y-40900
X57700Y-37900
X57700Y-40900
X58700Y-37900
X58700Y-40900
X59700Y-37900
X59700Y-40900
X60700Y-37900
X60700Y-40900
X61700Y-37900
X61700Y-40900
T5
X48844Y-29700
X48844Y-36064
X49844Y-29700
X49844Y-36064
X50844Y-29700
X50844Y-36064
X51844Y-29700
X51844Y-36064
X52844Y-29700
X52844Y-36064
X53844Y-29700
X53844Y-36064
X54844Y-29700
X54844Y-36064
X58305Y-23101
X58305Y-24101
X58305Y-25101
X58305Y-26101
X58305Y-27101
X58305Y-28101
T6
X51000Y-25000
X51000Y-26811
X53600Y-25000
X53600Y-26811
X57200Y-30189
X57200Y-32000
X57220Y-34400
X59110Y-34400
X61000Y-34400
X62890Y-34400
T7
X50231Y-48296
X50231Y-55896
X52200Y-49123
X52200Y-56723
X58231Y-48296
X58231Y-55896
X60200Y-49123
X60200Y-56723
T2
G00X60297Y-22426
M15
G01X60297Y-22111
M16
G05
G00X60297Y-23894
M15
G01X60297Y-23304
M16
G05
G00X63703Y-22426
M15
G01X63703Y-22111
M16
G05
G00X63703Y-23894
M15
G01X63703Y-23304
M16
G05
T0
M30
