%TF.GenerationSoftware,KiCad,Pcbnew,(6.0.1)*%
%TF.CreationDate,2022-02-21T12:46:14-05:00*%
%TF.ProjectId,InductorSchem,496e6475-6374-46f7-9253-6368656d2e6b,1*%
%TF.SameCoordinates,Original*%
%TF.FileFunction,Soldermask,Top*%
%TF.FilePolarity,Negative*%
%FSLAX46Y46*%
G04 Gerber Fmt 4.6, Leading zero omitted, Abs format (unit mm)*
G04 Created by KiCad (PCBNEW (6.0.1)) date 2022-02-21 12:46:14*
%MOMM*%
%LPD*%
G01*
G04 APERTURE LIST*
G04 Aperture macros list*
%AMRoundRect*
0 Rectangle with rounded corners*
0 $1 Rounding radius*
0 $2 $3 $4 $5 $6 $7 $8 $9 X,Y pos of 4 corners*
0 Add a 4 corners polygon primitive as box body*
4,1,4,$2,$3,$4,$5,$6,$7,$8,$9,$2,$3,0*
0 Add four circle primitives for the rounded corners*
1,1,$1+$1,$2,$3*
1,1,$1+$1,$4,$5*
1,1,$1+$1,$6,$7*
1,1,$1+$1,$8,$9*
0 Add four rect primitives between the rounded corners*
20,1,$1+$1,$2,$3,$4,$5,0*
20,1,$1+$1,$4,$5,$6,$7,0*
20,1,$1+$1,$6,$7,$8,$9,0*
20,1,$1+$1,$8,$9,$2,$3,0*%
G04 Aperture macros list end*
%ADD10O,2.200000X1.500000*%
%ADD11O,1.998980X2.748280*%
%ADD12O,2.032000X1.016000*%
%ADD13C,1.143000*%
%ADD14R,0.405600X1.715999*%
%ADD15RoundRect,0.250001X0.899999X-0.899999X0.899999X0.899999X-0.899999X0.899999X-0.899999X-0.899999X0*%
%ADD16C,2.300000*%
%ADD17C,0.700000*%
%ADD18O,0.900000X2.400000*%
%ADD19O,0.900000X1.700000*%
%ADD20R,1.600000X1.600000*%
%ADD21O,1.600000X1.600000*%
%ADD22RoundRect,0.250001X0.799999X-0.799999X0.799999X0.799999X-0.799999X0.799999X-0.799999X-0.799999X0*%
%ADD23C,2.100000*%
%ADD24C,1.600000*%
%ADD25C,3.200000*%
%ADD26C,1.800000*%
%ADD27C,1.200000*%
%ADD28RoundRect,0.250001X-0.799999X0.799999X-0.799999X-0.799999X0.799999X-0.799999X0.799999X0.799999X0*%
G04 APERTURE END LIST*
D10*
%TO.C,U2*%
X148094000Y-58676917D03*
X148094000Y-61216917D03*
X148094000Y-63756917D03*
X148094000Y-66296917D03*
X148094000Y-68836917D03*
X148094000Y-71376917D03*
%TD*%
D11*
%TO.C,U1*%
X124064490Y-93125290D03*
X126604490Y-93125290D03*
X129144490Y-93125290D03*
X131684490Y-93125290D03*
X134224490Y-93125290D03*
X136764490Y-93125290D03*
X139304490Y-93125290D03*
X139304490Y-76960730D03*
X136764490Y-76960730D03*
X134224490Y-76960730D03*
X131684490Y-76960730D03*
X129144490Y-76960730D03*
X126604490Y-76960730D03*
X124064490Y-76960730D03*
D12*
X140382310Y-86258410D03*
X140382310Y-83708410D03*
D13*
X123378123Y-86259607D03*
X123378123Y-83719607D03*
X125918123Y-86259607D03*
X125918123Y-83719607D03*
%TD*%
D14*
%TO.C,U3*%
X147637500Y-90170000D03*
X148272500Y-90170000D03*
X148907500Y-90170000D03*
X149542500Y-90170000D03*
X150177500Y-90170000D03*
X150812500Y-90170000D03*
X151447500Y-90170000D03*
X152082500Y-90170000D03*
X152717500Y-90170000D03*
X153352500Y-90170000D03*
X153987500Y-90170000D03*
X154622500Y-90170000D03*
X155257500Y-90170000D03*
X155892500Y-90170000D03*
X156527500Y-90170000D03*
X157162500Y-90170000D03*
X157797500Y-90170000D03*
X158432500Y-90170000D03*
X159067500Y-90170000D03*
X159702500Y-90170000D03*
X160337500Y-90170000D03*
X160972500Y-90170000D03*
X161607500Y-90170000D03*
X162242500Y-90170000D03*
X162242500Y-80518000D03*
X161607500Y-80518000D03*
X160972500Y-80518000D03*
X160337500Y-80518000D03*
X159702500Y-80518000D03*
X159067500Y-80518000D03*
X158432500Y-80518000D03*
X157797500Y-80518000D03*
X157162500Y-80518000D03*
X156527500Y-80518000D03*
X155892500Y-80518000D03*
X155257500Y-80518000D03*
X154622500Y-80518000D03*
X153987500Y-80518000D03*
X153352500Y-80518000D03*
X152717500Y-80518000D03*
X152082500Y-80518000D03*
X151447500Y-80518000D03*
X150812500Y-80518000D03*
X150177500Y-80518000D03*
X149542500Y-80518000D03*
X148907500Y-80518000D03*
X148272500Y-80518000D03*
X147637500Y-80518000D03*
%TD*%
D15*
%TO.C,J5*%
X167640000Y-108660000D03*
D16*
X167640000Y-103860000D03*
X167640000Y-99060000D03*
X167640000Y-94260000D03*
%TD*%
D17*
%TO.C,J1*%
X160455000Y-60921000D03*
X159605000Y-60921000D03*
X158755000Y-60921000D03*
X157905000Y-60921000D03*
X157055000Y-60921000D03*
X156205000Y-60921000D03*
X155355000Y-60921000D03*
X154505000Y-60921000D03*
X154505000Y-59571000D03*
X155355000Y-59571000D03*
X156205000Y-59571000D03*
X157055000Y-59571000D03*
X157905000Y-59571000D03*
X158755000Y-59571000D03*
X159605000Y-59571000D03*
X160455000Y-59571000D03*
D18*
X153155000Y-59941000D03*
D19*
X153155000Y-56561000D03*
X161805000Y-56561000D03*
D18*
X161805000Y-59941000D03*
%TD*%
D20*
%TO.C,D1*%
X153670000Y-70104000D03*
D21*
X161290000Y-70104000D03*
%TD*%
D22*
%TO.C,J3*%
X167640000Y-73928000D03*
D23*
X167640000Y-69328000D03*
%TD*%
D24*
%TO.C,R2*%
X168148000Y-64770000D03*
D21*
X168148000Y-57150000D03*
%TD*%
D20*
%TO.C,D2*%
X153670000Y-65532000D03*
D21*
X161290000Y-65532000D03*
%TD*%
D25*
%TO.C,SW4*%
X151892000Y-127000000D03*
D26*
X146392000Y-127000000D03*
X157392000Y-127000000D03*
D27*
X157112000Y-122800000D03*
%TD*%
D22*
%TO.C,J4*%
X167640000Y-83848000D03*
D23*
X167640000Y-79248000D03*
%TD*%
D28*
%TO.C,J2*%
X136144000Y-63500000D03*
D23*
X136144000Y-68100000D03*
%TD*%
D27*
%TO.C,SW3*%
X157112000Y-103496000D03*
D25*
X151892000Y-107696000D03*
D26*
X157392000Y-107696000D03*
X146392000Y-107696000D03*
%TD*%
%TO.C,SW1*%
X126072000Y-107696000D03*
D25*
X131572000Y-107696000D03*
D27*
X136792000Y-103496000D03*
D26*
X137072000Y-107696000D03*
%TD*%
%TO.C,SW2*%
X126072000Y-127000000D03*
D27*
X136792000Y-122800000D03*
D25*
X131572000Y-127000000D03*
D26*
X137072000Y-127000000D03*
%TD*%
D24*
%TO.C,R1*%
X165100000Y-64770000D03*
D21*
X165100000Y-57150000D03*
%TD*%
M02*
