%TF.GenerationSoftware,KiCad,Pcbnew,(6.0.1)*%
%TF.CreationDate,2022-02-21T12:46:14-05:00*%
%TF.ProjectId,InductorSchem,496e6475-6374-46f7-9253-6368656d2e6b,1*%
%TF.SameCoordinates,Original*%
%TF.FileFunction,Copper,L1,Top*%
%TF.FilePolarity,Positive*%
%FSLAX46Y46*%
G04 Gerber Fmt 4.6, Leading zero omitted, Abs format (unit mm)*
G04 Created by KiCad (PCBNEW (6.0.1)) date 2022-02-21 12:46:14*
%MOMM*%
%LPD*%
G01*
G04 APERTURE LIST*
G04 Aperture macros list*
%AMRoundRect*
0 Rectangle with rounded corners*
0 $1 Rounding radius*
0 $2 $3 $4 $5 $6 $7 $8 $9 X,Y pos of 4 corners*
0 Add a 4 corners polygon primitive as box body*
4,1,4,$2,$3,$4,$5,$6,$7,$8,$9,$2,$3,0*
0 Add four circle primitives for the rounded corners*
1,1,$1+$1,$2,$3*
1,1,$1+$1,$4,$5*
1,1,$1+$1,$6,$7*
1,1,$1+$1,$8,$9*
0 Add four rect primitives between the rounded corners*
20,1,$1+$1,$2,$3,$4,$5,0*
20,1,$1+$1,$4,$5,$6,$7,0*
20,1,$1+$1,$6,$7,$8,$9,0*
20,1,$1+$1,$8,$9,$2,$3,0*%
G04 Aperture macros list end*
%TA.AperFunction,ComponentPad*%
%ADD10O,2.200000X1.500000*%
%TD*%
%TA.AperFunction,ComponentPad*%
%ADD11O,1.998980X2.748280*%
%TD*%
%TA.AperFunction,SMDPad,CuDef*%
%ADD12O,2.032000X1.016000*%
%TD*%
%TA.AperFunction,SMDPad,CuDef*%
%ADD13C,1.143000*%
%TD*%
%TA.AperFunction,SMDPad,CuDef*%
%ADD14R,0.405600X1.715999*%
%TD*%
%TA.AperFunction,ComponentPad*%
%ADD15RoundRect,0.250001X0.899999X-0.899999X0.899999X0.899999X-0.899999X0.899999X-0.899999X-0.899999X0*%
%TD*%
%TA.AperFunction,ComponentPad*%
%ADD16C,2.300000*%
%TD*%
%TA.AperFunction,ComponentPad*%
%ADD17C,0.700000*%
%TD*%
%TA.AperFunction,ComponentPad*%
%ADD18O,0.900000X2.400000*%
%TD*%
%TA.AperFunction,ComponentPad*%
%ADD19O,0.900000X1.700000*%
%TD*%
%TA.AperFunction,ComponentPad*%
%ADD20R,1.600000X1.600000*%
%TD*%
%TA.AperFunction,ComponentPad*%
%ADD21O,1.600000X1.600000*%
%TD*%
%TA.AperFunction,ComponentPad*%
%ADD22RoundRect,0.250001X0.799999X-0.799999X0.799999X0.799999X-0.799999X0.799999X-0.799999X-0.799999X0*%
%TD*%
%TA.AperFunction,ComponentPad*%
%ADD23C,2.100000*%
%TD*%
%TA.AperFunction,ComponentPad*%
%ADD24C,1.600000*%
%TD*%
%TA.AperFunction,ComponentPad*%
%ADD25C,2.200000*%
%TD*%
%TA.AperFunction,ComponentPad*%
%ADD26RoundRect,0.250001X-0.799999X0.799999X-0.799999X-0.799999X0.799999X-0.799999X0.799999X0.799999X0*%
%TD*%
%TA.AperFunction,ViaPad*%
%ADD27C,2.200000*%
%TD*%
%TA.AperFunction,Conductor*%
%ADD28C,0.250000*%
%TD*%
%TA.AperFunction,Conductor*%
%ADD29C,0.500000*%
%TD*%
%TA.AperFunction,Conductor*%
%ADD30C,1.270000*%
%TD*%
G04 APERTURE END LIST*
D10*
%TO.P,U2,1,OUT*%
%TO.N,+5V*%
X148094000Y-58676917D03*
%TO.P,U2,2,OUT_GND*%
%TO.N,GND*%
X148094000Y-61216917D03*
%TO.P,U2,3,BAT*%
%TO.N,Net-(J2-Pad1)*%
X148094000Y-63756917D03*
%TO.P,U2,4,BAT_GND*%
%TO.N,GND*%
X148094000Y-66296917D03*
%TO.P,U2,5,VIN_GND*%
X148094000Y-68836917D03*
%TO.P,U2,6,VIN*%
%TO.N,Net-(D1-Pad1)*%
X148094000Y-71376917D03*
%TD*%
D11*
%TO.P,U1,1,PA02_A0_D0*%
%TO.N,unconnected-(U1-Pad1)*%
X124064490Y-93125290D03*
%TO.P,U1,2,PA4_A1_D1*%
%TO.N,unconnected-(U1-Pad2)*%
X126604490Y-93125290D03*
%TO.P,U1,3,PA10_A2_D2*%
%TO.N,unconnected-(U1-Pad3)*%
X129144490Y-93125290D03*
%TO.P,U1,4,PA11_A3_D3*%
%TO.N,unconnected-(U1-Pad4)*%
X131684490Y-93125290D03*
%TO.P,U1,5,PA8_A4_D4_SDA*%
%TO.N,/I2C_SDA*%
X134224490Y-93125290D03*
%TO.P,U1,6,PA9_A5_D5_SCL*%
%TO.N,/I2C_SCL*%
X136764490Y-93125290D03*
%TO.P,U1,7,PB08_A6_D6_TX*%
%TO.N,unconnected-(U1-Pad7)*%
X139304490Y-93125290D03*
%TO.P,U1,8,PB09_A7_D7_RX*%
%TO.N,unconnected-(U1-Pad8)*%
X139304490Y-76960730D03*
%TO.P,U1,9,PA7_A8_D8_SCK*%
%TO.N,unconnected-(U1-Pad9)*%
X136764490Y-76960730D03*
%TO.P,U1,10,PA5_A9_D9_MISO*%
%TO.N,unconnected-(U1-Pad10)*%
X134224490Y-76960730D03*
%TO.P,U1,11,PA6_A10_D10_MOSI*%
%TO.N,unconnected-(U1-Pad11)*%
X131684490Y-76960730D03*
%TO.P,U1,12,3V3*%
%TO.N,unconnected-(U1-Pad12)*%
X129144490Y-76960730D03*
%TO.P,U1,13,GND*%
%TO.N,GND*%
X126604490Y-76960730D03*
%TO.P,U1,14,5V*%
%TO.N,+5V*%
X124064490Y-76960730D03*
D12*
%TO.P,U1,15,5V*%
%TO.N,unconnected-(U1-Pad15)*%
X140382310Y-86258410D03*
%TO.P,U1,16,GND*%
%TO.N,unconnected-(U1-Pad16)*%
X140382310Y-83708410D03*
D13*
%TO.P,U1,17,PA31_SWDIO*%
%TO.N,unconnected-(U1-Pad17)*%
X123378123Y-86259607D03*
%TO.P,U1,18,PA30_SWCLK*%
%TO.N,unconnected-(U1-Pad18)*%
X123378123Y-83719607D03*
%TO.P,U1,19,RESET*%
%TO.N,unconnected-(U1-Pad19)*%
X125918123Y-86259607D03*
%TO.P,U1,20,GND*%
%TO.N,unconnected-(U1-Pad20)*%
X125918123Y-83719607D03*
%TD*%
D14*
%TO.P,U3,1,GPORT0_BIT0_PWM7*%
%TO.N,/G0B0*%
X147637500Y-90170000D03*
%TO.P,U3,2,GPORT0_BIT1_PWM5*%
%TO.N,/G0B1*%
X148272500Y-90170000D03*
%TO.P,U3,3,GPORT0_BIT2_PWM3*%
%TO.N,/G0B2*%
X148907500Y-90170000D03*
%TO.P,U3,4,GPORT0_BIT3_PWM1*%
%TO.N,/G0B3*%
X149542500Y-90170000D03*
%TO.P,U3,5,GPORT0_BIT4_PWM7*%
%TO.N,/G0B4*%
X150177500Y-90170000D03*
%TO.P,U3,6,GPORT0_BIT5_PWM5*%
%TO.N,/G0B5*%
X150812500Y-90170000D03*
%TO.P,U3,7,GPORT0_BIT6_PWM3*%
%TO.N,/G0B6*%
X151447500Y-90170000D03*
%TO.P,U3,8,GPORT0_BIT7_PWM1*%
%TO.N,/G0B7*%
X152082500Y-90170000D03*
%TO.P,U3,9,GPORT3_BIT0_PWM7*%
%TO.N,unconnected-(U3-Pad9)*%
X152717500Y-90170000D03*
%TO.P,U3,10,GPORT3_BIT1_PWM5*%
%TO.N,unconnected-(U3-Pad10)*%
X153352500Y-90170000D03*
%TO.P,U3,11,GPORT3_BIT2_PWM3*%
%TO.N,unconnected-(U3-Pad11)*%
X153987500Y-90170000D03*
%TO.P,U3,12,GPORT3_BIT3_PWM1*%
%TO.N,unconnected-(U3-Pad12)*%
X154622500Y-90170000D03*
%TO.P,U3,13,VSS*%
%TO.N,GND*%
X155257500Y-90170000D03*
%TO.P,U3,14,GPORT3_BIT4_PWM7*%
%TO.N,unconnected-(U3-Pad14)*%
X155892500Y-90170000D03*
%TO.P,U3,15,GPORT3_BIT5_PWM5*%
%TO.N,unconnected-(U3-Pad15)*%
X156527500Y-90170000D03*
%TO.P,U3,16,GPORT3_BIT6_PWM3*%
%TO.N,unconnected-(U3-Pad16)*%
X157162500Y-90170000D03*
%TO.P,U3,17,GPORT3_BIT7_PWM1*%
%TO.N,unconnected-(U3-Pad17)*%
X157797500Y-90170000D03*
%TO.P,U3,18,GPORT5_BIT2_PWM3*%
%TO.N,unconnected-(U3-Pad18)*%
X158432500Y-90170000D03*
%TO.P,U3,19,GPORT5_BIT3_PWM1*%
%TO.N,unconnected-(U3-Pad19)*%
X159067500Y-90170000D03*
%TO.P,U3,20,I2C_SERIAL_CLOCK_SCL*%
%TO.N,/I2C_SCL*%
X159702500Y-90170000D03*
%TO.P,U3,21,I2C_SERIAL_DATA_SDA*%
%TO.N,/I2C_SDA*%
X160337500Y-90170000D03*
%TO.P,U3,22,GPORT2_BIT3_PWM3/A1*%
%TO.N,unconnected-(U3-Pad22)*%
X160972500Y-90170000D03*
%TO.P,U3,23,A0*%
%TO.N,unconnected-(U3-Pad23)*%
X161607500Y-90170000D03*
%TO.P,U3,24,VSS*%
%TO.N,GND*%
X162242500Y-90170000D03*
%TO.P,U3,25,GPORT2_BIT2_PWM0/WD*%
%TO.N,unconnected-(U3-Pad25)*%
X162242500Y-80518000D03*
%TO.P,U3,26,INT*%
%TO.N,unconnected-(U3-Pad26)*%
X161607500Y-80518000D03*
%TO.P,U3,27,GPORT2_BIT1_PWM4/A2*%
%TO.N,unconnected-(U3-Pad27)*%
X160972500Y-80518000D03*
%TO.P,U3,28,GPORT2_BIT0_PWM6/A3*%
%TO.N,unconnected-(U3-Pad28)*%
X160337500Y-80518000D03*
%TO.P,U3,29,GPORT5_BIT1_PWM0*%
%TO.N,unconnected-(U3-Pad29)*%
X159702500Y-80518000D03*
%TO.P,U3,30,GPORT5_BIT0_PWM2*%
%TO.N,unconnected-(U3-Pad30)*%
X159067500Y-80518000D03*
%TO.P,U3,31,GPORT4_BIT7_PWM0*%
%TO.N,unconnected-(U3-Pad31)*%
X158432500Y-80518000D03*
%TO.P,U3,32,GPORT4_BIT6_PWM2*%
%TO.N,unconnected-(U3-Pad32)*%
X157797500Y-80518000D03*
%TO.P,U3,33,GPORT4_BIT5_PWM4*%
%TO.N,unconnected-(U3-Pad33)*%
X157162500Y-80518000D03*
%TO.P,U3,34,GPORT4_BIT4_PWM6*%
%TO.N,unconnected-(U3-Pad34)*%
X156527500Y-80518000D03*
%TO.P,U3,35,XRES*%
%TO.N,unconnected-(U3-Pad35)*%
X155892500Y-80518000D03*
%TO.P,U3,36,GPORT4_BIT3_PWM0*%
%TO.N,unconnected-(U3-Pad36)*%
X155257500Y-80518000D03*
%TO.P,U3,37,GPORT4_BIT2_PWM2*%
%TO.N,unconnected-(U3-Pad37)*%
X154622500Y-80518000D03*
%TO.P,U3,38,GPORT4_BIT1_PWM4*%
%TO.N,unconnected-(U3-Pad38)*%
X153987500Y-80518000D03*
%TO.P,U3,39,GPORT4_BIT0_PWM6*%
%TO.N,unconnected-(U3-Pad39)*%
X153352500Y-80518000D03*
%TO.P,U3,40,GPORT1_BIT7_PWM0/A4*%
%TO.N,unconnected-(U3-Pad40)*%
X152717500Y-80518000D03*
%TO.P,U3,41,GPORT1_BIT6_PWM2/A5*%
%TO.N,unconnected-(U3-Pad41)*%
X152082500Y-80518000D03*
%TO.P,U3,42,GPORT1_BIT5_PWM4/A6*%
%TO.N,unconnected-(U3-Pad42)*%
X151447500Y-80518000D03*
%TO.P,U3,43,GPORT1_BIT4_PWM6*%
%TO.N,unconnected-(U3-Pad43)*%
X150812500Y-80518000D03*
%TO.P,U3,44,GPORT1_BIT3_PWM0*%
%TO.N,unconnected-(U3-Pad44)*%
X150177500Y-80518000D03*
%TO.P,U3,45,GPORT1_BIT2_PWM2*%
%TO.N,unconnected-(U3-Pad45)*%
X149542500Y-80518000D03*
%TO.P,U3,46,GPORT1_BIT1_PWM4*%
%TO.N,unconnected-(U3-Pad46)*%
X148907500Y-80518000D03*
%TO.P,U3,47,GPORT1_BIT0_PWM6*%
%TO.N,unconnected-(U3-Pad47)*%
X148272500Y-80518000D03*
%TO.P,U3,48,VDD*%
%TO.N,+5V*%
X147637500Y-80518000D03*
%TD*%
D15*
%TO.P,J5,1,Pin_1*%
%TO.N,/G0B4*%
X167640000Y-108660000D03*
D16*
%TO.P,J5,2,Pin_2*%
%TO.N,/G0B5*%
X167640000Y-103860000D03*
%TO.P,J5,3,Pin_3*%
%TO.N,/G0B6*%
X167640000Y-99060000D03*
%TO.P,J5,4,Pin_4*%
%TO.N,/G0B7*%
X167640000Y-94260000D03*
%TD*%
D17*
%TO.P,J1,A1,GND*%
%TO.N,GND*%
X160455000Y-60921000D03*
%TO.P,J1,A4,VBUS*%
%TO.N,Net-(D2-Pad2)*%
X159605000Y-60921000D03*
%TO.P,J1,A5,CC1*%
%TO.N,Net-(J1-PadA5)*%
X158755000Y-60921000D03*
%TO.P,J1,A6,D+*%
%TO.N,unconnected-(J1-PadA6)*%
X157905000Y-60921000D03*
%TO.P,J1,A7,D-*%
%TO.N,unconnected-(J1-PadA7)*%
X157055000Y-60921000D03*
%TO.P,J1,A8,SBU1*%
%TO.N,unconnected-(J1-PadA8)*%
X156205000Y-60921000D03*
%TO.P,J1,A9,VBUS*%
%TO.N,Net-(D2-Pad2)*%
X155355000Y-60921000D03*
%TO.P,J1,A12,GND*%
%TO.N,GND*%
X154505000Y-60921000D03*
%TO.P,J1,B1,GND*%
X154505000Y-59571000D03*
%TO.P,J1,B4,VBUS*%
%TO.N,Net-(D2-Pad2)*%
X155355000Y-59571000D03*
%TO.P,J1,B5,CC2*%
%TO.N,Net-(J1-PadB5)*%
X156205000Y-59571000D03*
%TO.P,J1,B6,D+*%
%TO.N,unconnected-(J1-PadB6)*%
X157055000Y-59571000D03*
%TO.P,J1,B7,D-*%
%TO.N,unconnected-(J1-PadB7)*%
X157905000Y-59571000D03*
%TO.P,J1,B8,SBU2*%
%TO.N,unconnected-(J1-PadB8)*%
X158755000Y-59571000D03*
%TO.P,J1,B9,VBUS*%
%TO.N,Net-(D2-Pad2)*%
X159605000Y-59571000D03*
%TO.P,J1,B12,GND*%
%TO.N,GND*%
X160455000Y-59571000D03*
D18*
%TO.P,J1,S1,SHIELD*%
%TO.N,unconnected-(J1-PadS1)*%
X153155000Y-59941000D03*
D19*
X153155000Y-56561000D03*
X161805000Y-56561000D03*
D18*
X161805000Y-59941000D03*
%TD*%
D20*
%TO.P,D1,1,K*%
%TO.N,Net-(D1-Pad1)*%
X153670000Y-70104000D03*
D21*
%TO.P,D1,2,A*%
%TO.N,Net-(D1-Pad2)*%
X161290000Y-70104000D03*
%TD*%
D22*
%TO.P,J3,1,Pin_1*%
%TO.N,Net-(D1-Pad2)*%
X167640000Y-73928000D03*
D23*
%TO.P,J3,2,Pin_2*%
%TO.N,GND*%
X167640000Y-69328000D03*
%TD*%
D24*
%TO.P,R2,1*%
%TO.N,Net-(J1-PadB5)*%
X168148000Y-64770000D03*
D21*
%TO.P,R2,2*%
%TO.N,GND*%
X168148000Y-57150000D03*
%TD*%
D20*
%TO.P,D2,1,K*%
%TO.N,Net-(D1-Pad1)*%
X153670000Y-65532000D03*
D21*
%TO.P,D2,2,A*%
%TO.N,Net-(D2-Pad2)*%
X161290000Y-65532000D03*
%TD*%
D25*
%TO.P,SW4,1,1*%
%TO.N,+5V*%
X151892000Y-132900000D03*
%TO.P,SW4,2,2*%
%TO.N,/G0B3*%
X146892000Y-130800000D03*
%TD*%
D22*
%TO.P,J4,1,Pin_1*%
%TO.N,+5V*%
X167640000Y-83848000D03*
D23*
%TO.P,J4,2,Pin_2*%
%TO.N,GND*%
X167640000Y-79248000D03*
%TD*%
D26*
%TO.P,J2,1,Pin_1*%
%TO.N,Net-(J2-Pad1)*%
X136144000Y-63500000D03*
D23*
%TO.P,J2,2,Pin_2*%
%TO.N,GND*%
X136144000Y-68100000D03*
%TD*%
D25*
%TO.P,SW3,1,1*%
%TO.N,+5V*%
X151892000Y-113596000D03*
%TO.P,SW3,2,2*%
%TO.N,/G0B2*%
X146892000Y-111496000D03*
%TD*%
%TO.P,SW1,1,1*%
%TO.N,+5V*%
X131572000Y-113596000D03*
%TO.P,SW1,2,2*%
%TO.N,/G0B0*%
X126572000Y-111496000D03*
%TD*%
%TO.P,SW2,1,1*%
%TO.N,+5V*%
X131572000Y-132900000D03*
%TO.P,SW2,2,2*%
%TO.N,/G0B1*%
X126572000Y-130800000D03*
%TD*%
D24*
%TO.P,R1,1*%
%TO.N,Net-(J1-PadA5)*%
X165100000Y-64770000D03*
D21*
%TO.P,R1,2*%
%TO.N,GND*%
X165100000Y-57150000D03*
%TD*%
D27*
%TO.N,GND*%
X164592000Y-91948000D03*
%TD*%
D28*
%TO.N,/G0B1*%
X143256000Y-96261321D02*
X148272500Y-91244821D01*
X143256000Y-111760000D02*
X143256000Y-96261321D01*
X148272500Y-91244821D02*
X148272500Y-90170000D01*
X126572000Y-130800000D02*
X126572000Y-128444000D01*
X126572000Y-128444000D02*
X143256000Y-111760000D01*
%TO.N,GND*%
X155960679Y-91948000D02*
X155257500Y-91244821D01*
X162242500Y-91244821D02*
X162242500Y-90170000D01*
X164592000Y-91948000D02*
X155960679Y-91948000D01*
X164592000Y-91948000D02*
X162945679Y-91948000D01*
X162945679Y-91948000D02*
X162242500Y-91244821D01*
X155257500Y-91244821D02*
X155257500Y-90170000D01*
%TO.N,/I2C_SDA*%
X138957780Y-88392000D02*
X159639718Y-88392000D01*
X159639718Y-88392000D02*
X160337500Y-89089782D01*
X160337500Y-89089782D02*
X160337500Y-90170000D01*
%TO.N,/I2C_SCL*%
X141048260Y-88841520D02*
X159453520Y-88841520D01*
X159453520Y-88841520D02*
X159702500Y-89090500D01*
X159702500Y-89090500D02*
X159702500Y-90170000D01*
%TO.N,+5V*%
X141224000Y-74168000D02*
X126857220Y-74168000D01*
X144780000Y-77724000D02*
X141224000Y-74168000D01*
X144843500Y-77724000D02*
X144780000Y-77724000D01*
X126857220Y-74168000D02*
X124064490Y-76960730D01*
X147637500Y-80518000D02*
X144843500Y-77724000D01*
D29*
%TO.N,unconnected-(J1-PadS1)*%
X161805000Y-56561000D02*
X161805000Y-59941000D01*
X153155000Y-56561000D02*
X161805000Y-56561000D01*
X153155000Y-59941000D02*
X153155000Y-56561000D01*
D28*
%TO.N,/G0B4*%
X166064000Y-108660000D02*
X167640000Y-108660000D01*
X150177500Y-92773500D02*
X166064000Y-108660000D01*
X150177500Y-90170000D02*
X150177500Y-92773500D01*
%TO.N,/G0B5*%
X162788000Y-103860000D02*
X167640000Y-103860000D01*
X150812500Y-91884500D02*
X162788000Y-103860000D01*
X150812500Y-90170000D02*
X150812500Y-91884500D01*
%TO.N,/G0B6*%
X151447500Y-91278716D02*
X159228784Y-99060000D01*
X151447500Y-90170000D02*
X151447500Y-91278716D01*
X159228784Y-99060000D02*
X167640000Y-99060000D01*
%TO.N,/G0B7*%
X155064501Y-94260000D02*
X167640000Y-94260000D01*
X152082500Y-91277999D02*
X155064501Y-94260000D01*
X152082500Y-90170000D02*
X152082500Y-91277999D01*
%TO.N,/I2C_SCL*%
X136764490Y-93125290D02*
X141048260Y-88841520D01*
%TO.N,/I2C_SDA*%
X134224490Y-93125290D02*
X138957780Y-88392000D01*
%TO.N,/G0B0*%
X146050000Y-90170000D02*
X147637500Y-90170000D01*
X126572000Y-109648000D02*
X146050000Y-90170000D01*
X126572000Y-111496000D02*
X126572000Y-109648000D01*
%TO.N,/G0B2*%
X146892000Y-111496000D02*
X148907500Y-109480500D01*
X148907500Y-109480500D02*
X148907500Y-90170000D01*
%TO.N,/G0B3*%
X149542500Y-125651946D02*
X149542500Y-90170000D01*
X146892000Y-130800000D02*
X146892000Y-128302446D01*
X146892000Y-128302446D02*
X149542500Y-125651946D01*
D29*
%TO.N,Net-(D2-Pad2)*%
X155355000Y-61415974D02*
X155355000Y-60921000D01*
X155822026Y-61883000D02*
X155355000Y-61415974D01*
D28*
X159605000Y-62391000D02*
X159512000Y-62484000D01*
D29*
X158911000Y-61883000D02*
X155822026Y-61883000D01*
D30*
X159512000Y-63754000D02*
X161290000Y-65532000D01*
X159512000Y-62484000D02*
X159512000Y-63754000D01*
D29*
X159605000Y-60921000D02*
X159605000Y-62391000D01*
X159512000Y-62484000D02*
X158911000Y-61883000D01*
X155355000Y-59571000D02*
X155355000Y-60921000D01*
X159605000Y-59571000D02*
X159605000Y-60921000D01*
D30*
%TO.N,Net-(D1-Pad2)*%
X165114000Y-73928000D02*
X161290000Y-70104000D01*
X167640000Y-73928000D02*
X165114000Y-73928000D01*
%TO.N,Net-(J2-Pad1)*%
X136400917Y-63756917D02*
X148094000Y-63756917D01*
X136144000Y-63500000D02*
X136400917Y-63756917D01*
%TO.N,Net-(D1-Pad1)*%
X153670000Y-65532000D02*
X153670000Y-70104000D01*
X153670000Y-70104000D02*
X151384000Y-70104000D01*
X151384000Y-70104000D02*
X150111083Y-71376917D01*
X150111083Y-71376917D02*
X148094000Y-71376917D01*
%TD*%
%TA.AperFunction,Conductor*%
%TO.N,GND*%
G36*
X152363415Y-55392002D02*
G01*
X152409908Y-55445658D01*
X152420012Y-55515932D01*
X152398507Y-55570270D01*
X152313989Y-55690975D01*
X152311452Y-55696838D01*
X152274384Y-55782498D01*
X152236655Y-55869684D01*
X152235350Y-55875931D01*
X152235349Y-55875934D01*
X152206074Y-56016069D01*
X152196835Y-56060293D01*
X152196500Y-56066685D01*
X152196500Y-57009663D01*
X152211235Y-57154727D01*
X152213144Y-57160818D01*
X152267556Y-57334451D01*
X152267558Y-57334456D01*
X152269465Y-57340541D01*
X152314340Y-57421497D01*
X152355081Y-57494994D01*
X152363870Y-57510850D01*
X152368021Y-57515693D01*
X152371666Y-57520937D01*
X152370017Y-57522083D01*
X152395312Y-57578268D01*
X152396500Y-57595529D01*
X152396500Y-58563409D01*
X152373713Y-58635679D01*
X152317651Y-58715744D01*
X152317648Y-58715750D01*
X152313989Y-58720975D01*
X152276723Y-58807093D01*
X152250815Y-58866963D01*
X152236655Y-58899684D01*
X152235350Y-58905931D01*
X152235349Y-58905934D01*
X152197923Y-59085087D01*
X152196835Y-59090293D01*
X152196500Y-59096685D01*
X152196500Y-60739663D01*
X152211235Y-60884727D01*
X152228889Y-60941061D01*
X152267556Y-61064451D01*
X152267558Y-61064456D01*
X152269465Y-61070541D01*
X152272558Y-61076120D01*
X152357531Y-61229414D01*
X152363870Y-61240850D01*
X152368019Y-61245691D01*
X152368022Y-61245695D01*
X152486440Y-61383855D01*
X152490591Y-61388698D01*
X152644453Y-61508046D01*
X152650176Y-61510862D01*
X152650179Y-61510864D01*
X152761440Y-61565611D01*
X152819171Y-61594018D01*
X152825349Y-61595627D01*
X152825351Y-61595628D01*
X153001425Y-61641492D01*
X153001428Y-61641492D01*
X153007607Y-61643102D01*
X153091597Y-61647504D01*
X153195683Y-61652959D01*
X153195687Y-61652959D01*
X153202064Y-61653293D01*
X153357413Y-61629799D01*
X153388285Y-61625130D01*
X153388286Y-61625130D01*
X153394599Y-61624175D01*
X153400585Y-61621972D01*
X153400591Y-61621971D01*
X153571360Y-61559140D01*
X153571365Y-61559138D01*
X153577346Y-61556937D01*
X153687670Y-61488533D01*
X153737418Y-61457688D01*
X153737419Y-61457687D01*
X153742840Y-61454326D01*
X153817362Y-61383855D01*
X153879685Y-61324919D01*
X153884322Y-61320534D01*
X153996011Y-61161025D01*
X154055310Y-61023992D01*
X154081851Y-60984939D01*
X154280809Y-60785981D01*
X154343121Y-60751955D01*
X154413936Y-60757020D01*
X154470772Y-60799567D01*
X154495583Y-60866087D01*
X154495214Y-60888242D01*
X154491771Y-60921000D01*
X154510635Y-61100475D01*
X154528404Y-61155162D01*
X154529471Y-61158446D01*
X154531498Y-61229414D01*
X154498733Y-61286477D01*
X154116500Y-61668710D01*
X154109740Y-61681090D01*
X154113251Y-61685780D01*
X154232372Y-61738816D01*
X154244860Y-61742873D01*
X154408364Y-61777628D01*
X154421424Y-61779000D01*
X154588580Y-61779000D01*
X154602628Y-61777524D01*
X154672466Y-61790298D01*
X154723513Y-61837468D01*
X154752405Y-61885081D01*
X154756121Y-61889289D01*
X154756122Y-61889290D01*
X154759803Y-61893458D01*
X154759776Y-61893482D01*
X154762429Y-61896474D01*
X154765132Y-61899707D01*
X154769144Y-61905826D01*
X154774456Y-61910858D01*
X154825383Y-61959102D01*
X154827825Y-61961480D01*
X155238256Y-62371911D01*
X155250642Y-62386323D01*
X155259175Y-62397918D01*
X155259180Y-62397923D01*
X155263518Y-62403818D01*
X155269096Y-62408557D01*
X155269099Y-62408560D01*
X155303794Y-62438035D01*
X155311310Y-62444965D01*
X155317006Y-62450661D01*
X155319867Y-62452924D01*
X155319872Y-62452929D01*
X155339292Y-62468293D01*
X155342693Y-62471082D01*
X155392387Y-62513300D01*
X155398311Y-62518333D01*
X155404831Y-62521662D01*
X155409878Y-62525028D01*
X155415002Y-62528193D01*
X155420743Y-62532735D01*
X155427374Y-62535834D01*
X155427377Y-62535836D01*
X155486856Y-62563634D01*
X155490808Y-62565565D01*
X155545349Y-62593415D01*
X155555834Y-62598769D01*
X155562940Y-62600508D01*
X155568590Y-62602609D01*
X155574347Y-62604524D01*
X155580976Y-62607622D01*
X155652461Y-62622491D01*
X155656727Y-62623457D01*
X155727636Y-62640808D01*
X155733238Y-62641156D01*
X155733241Y-62641156D01*
X155738790Y-62641500D01*
X155738788Y-62641535D01*
X155742760Y-62641775D01*
X155746981Y-62642152D01*
X155754141Y-62643641D01*
X155831568Y-62641546D01*
X155834976Y-62641500D01*
X158242500Y-62641500D01*
X158310621Y-62661502D01*
X158357114Y-62715158D01*
X158368500Y-62767500D01*
X158368500Y-63711195D01*
X158368230Y-63719436D01*
X158363994Y-63784061D01*
X158374399Y-63871973D01*
X158374736Y-63875186D01*
X158382831Y-63963279D01*
X158384399Y-63968839D01*
X158385061Y-63972412D01*
X158387250Y-63983415D01*
X158388018Y-63987028D01*
X158388697Y-63992765D01*
X158414938Y-64077276D01*
X158415854Y-64080373D01*
X158439877Y-64165549D01*
X158442435Y-64170737D01*
X158443760Y-64174188D01*
X158447901Y-64184566D01*
X158449304Y-64187953D01*
X158451018Y-64193473D01*
X158453709Y-64198587D01*
X158453709Y-64198588D01*
X158492198Y-64271745D01*
X158493695Y-64274681D01*
X158532829Y-64354037D01*
X158536287Y-64358668D01*
X158538250Y-64361871D01*
X158544173Y-64371258D01*
X158546182Y-64374351D01*
X158548871Y-64379463D01*
X158603656Y-64448956D01*
X158605627Y-64451526D01*
X158655116Y-64517801D01*
X158655123Y-64517808D01*
X158658573Y-64522429D01*
X158662807Y-64526343D01*
X158662809Y-64526345D01*
X158718973Y-64578262D01*
X158722539Y-64581692D01*
X160007547Y-65866700D01*
X160040159Y-65923184D01*
X160055716Y-65981243D01*
X160082561Y-66038812D01*
X160150151Y-66183762D01*
X160150154Y-66183767D01*
X160152477Y-66188749D01*
X160283802Y-66376300D01*
X160445700Y-66538198D01*
X160450208Y-66541355D01*
X160450211Y-66541357D01*
X160489735Y-66569032D01*
X160633251Y-66669523D01*
X160638233Y-66671846D01*
X160638238Y-66671849D01*
X160835775Y-66763961D01*
X160840757Y-66766284D01*
X160846065Y-66767706D01*
X160846067Y-66767707D01*
X161056598Y-66824119D01*
X161056600Y-66824119D01*
X161061913Y-66825543D01*
X161290000Y-66845498D01*
X161518087Y-66825543D01*
X161523400Y-66824119D01*
X161523402Y-66824119D01*
X161733933Y-66767707D01*
X161733935Y-66767706D01*
X161739243Y-66766284D01*
X161744225Y-66763961D01*
X161941762Y-66671849D01*
X161941767Y-66671846D01*
X161946749Y-66669523D01*
X162090265Y-66569032D01*
X162129789Y-66541357D01*
X162129792Y-66541355D01*
X162134300Y-66538198D01*
X162296198Y-66376300D01*
X162427523Y-66188749D01*
X162429846Y-66183767D01*
X162429849Y-66183762D01*
X162521961Y-65986225D01*
X162521961Y-65986224D01*
X162524284Y-65981243D01*
X162544038Y-65907523D01*
X162582119Y-65765402D01*
X162582119Y-65765400D01*
X162583543Y-65760087D01*
X162603498Y-65532000D01*
X162583543Y-65303913D01*
X162559433Y-65213933D01*
X162525707Y-65088067D01*
X162525706Y-65088065D01*
X162524284Y-65082757D01*
X162507856Y-65047526D01*
X162429849Y-64880238D01*
X162429846Y-64880233D01*
X162427523Y-64875251D01*
X162353826Y-64770000D01*
X163786502Y-64770000D01*
X163806457Y-64998087D01*
X163807881Y-65003400D01*
X163807881Y-65003402D01*
X163853723Y-65174483D01*
X163865716Y-65219243D01*
X163868039Y-65224224D01*
X163868039Y-65224225D01*
X163960151Y-65421762D01*
X163960154Y-65421767D01*
X163962477Y-65426749D01*
X164093802Y-65614300D01*
X164255700Y-65776198D01*
X164260208Y-65779355D01*
X164260211Y-65779357D01*
X164310669Y-65814688D01*
X164443251Y-65907523D01*
X164448233Y-65909846D01*
X164448238Y-65909849D01*
X164645775Y-66001961D01*
X164650757Y-66004284D01*
X164656065Y-66005706D01*
X164656067Y-66005707D01*
X164866598Y-66062119D01*
X164866600Y-66062119D01*
X164871913Y-66063543D01*
X165100000Y-66083498D01*
X165328087Y-66063543D01*
X165333400Y-66062119D01*
X165333402Y-66062119D01*
X165543933Y-66005707D01*
X165543935Y-66005706D01*
X165549243Y-66004284D01*
X165554225Y-66001961D01*
X165751762Y-65909849D01*
X165751767Y-65909846D01*
X165756749Y-65907523D01*
X165889331Y-65814688D01*
X165939789Y-65779357D01*
X165939792Y-65779355D01*
X165944300Y-65776198D01*
X166106198Y-65614300D01*
X166237523Y-65426749D01*
X166239846Y-65421767D01*
X166239849Y-65421762D01*
X166331961Y-65224225D01*
X166331961Y-65224224D01*
X166334284Y-65219243D01*
X166346278Y-65174483D01*
X166392119Y-65003402D01*
X166392119Y-65003400D01*
X166393543Y-64998087D01*
X166413498Y-64770000D01*
X166834502Y-64770000D01*
X166854457Y-64998087D01*
X166855881Y-65003400D01*
X166855881Y-65003402D01*
X166901723Y-65174483D01*
X166913716Y-65219243D01*
X166916039Y-65224224D01*
X166916039Y-65224225D01*
X167008151Y-65421762D01*
X167008154Y-65421767D01*
X167010477Y-65426749D01*
X167141802Y-65614300D01*
X167303700Y-65776198D01*
X167308208Y-65779355D01*
X167308211Y-65779357D01*
X167358669Y-65814688D01*
X167491251Y-65907523D01*
X167496233Y-65909846D01*
X167496238Y-65909849D01*
X167693775Y-66001961D01*
X167698757Y-66004284D01*
X167704065Y-66005706D01*
X167704067Y-66005707D01*
X167914598Y-66062119D01*
X167914600Y-66062119D01*
X167919913Y-66063543D01*
X168148000Y-66083498D01*
X168376087Y-66063543D01*
X168381400Y-66062119D01*
X168381402Y-66062119D01*
X168591933Y-66005707D01*
X168591935Y-66005706D01*
X168597243Y-66004284D01*
X168602225Y-66001961D01*
X168799762Y-65909849D01*
X168799767Y-65909846D01*
X168804749Y-65907523D01*
X168937331Y-65814688D01*
X168987789Y-65779357D01*
X168987792Y-65779355D01*
X168992300Y-65776198D01*
X169154198Y-65614300D01*
X169285523Y-65426749D01*
X169287846Y-65421767D01*
X169287849Y-65421762D01*
X169379961Y-65224225D01*
X169379961Y-65224224D01*
X169382284Y-65219243D01*
X169394278Y-65174483D01*
X169440119Y-65003402D01*
X169440119Y-65003400D01*
X169441543Y-64998087D01*
X169461498Y-64770000D01*
X169441543Y-64541913D01*
X169402883Y-64397634D01*
X169383707Y-64326067D01*
X169383706Y-64326065D01*
X169382284Y-64320757D01*
X169360117Y-64273220D01*
X169287849Y-64118238D01*
X169287846Y-64118233D01*
X169285523Y-64113251D01*
X169154198Y-63925700D01*
X168992300Y-63763802D01*
X168987792Y-63760645D01*
X168987789Y-63760643D01*
X168909611Y-63705902D01*
X168804749Y-63632477D01*
X168799767Y-63630154D01*
X168799762Y-63630151D01*
X168602225Y-63538039D01*
X168602224Y-63538039D01*
X168597243Y-63535716D01*
X168591935Y-63534294D01*
X168591933Y-63534293D01*
X168381402Y-63477881D01*
X168381400Y-63477881D01*
X168376087Y-63476457D01*
X168148000Y-63456502D01*
X167919913Y-63476457D01*
X167914600Y-63477881D01*
X167914598Y-63477881D01*
X167704067Y-63534293D01*
X167704065Y-63534294D01*
X167698757Y-63535716D01*
X167693776Y-63538039D01*
X167693775Y-63538039D01*
X167496238Y-63630151D01*
X167496233Y-63630154D01*
X167491251Y-63632477D01*
X167386389Y-63705902D01*
X167308211Y-63760643D01*
X167308208Y-63760645D01*
X167303700Y-63763802D01*
X167141802Y-63925700D01*
X167010477Y-64113251D01*
X167008154Y-64118233D01*
X167008151Y-64118238D01*
X166935883Y-64273220D01*
X166913716Y-64320757D01*
X166912294Y-64326065D01*
X166912293Y-64326067D01*
X166893117Y-64397634D01*
X166854457Y-64541913D01*
X166834502Y-64770000D01*
X166413498Y-64770000D01*
X166393543Y-64541913D01*
X166354883Y-64397634D01*
X166335707Y-64326067D01*
X166335706Y-64326065D01*
X166334284Y-64320757D01*
X166312117Y-64273220D01*
X166239849Y-64118238D01*
X166239846Y-64118233D01*
X166237523Y-64113251D01*
X166106198Y-63925700D01*
X165944300Y-63763802D01*
X165939792Y-63760645D01*
X165939789Y-63760643D01*
X165861611Y-63705902D01*
X165756749Y-63632477D01*
X165751767Y-63630154D01*
X165751762Y-63630151D01*
X165554225Y-63538039D01*
X165554224Y-63538039D01*
X165549243Y-63535716D01*
X165543935Y-63534294D01*
X165543933Y-63534293D01*
X165333402Y-63477881D01*
X165333400Y-63477881D01*
X165328087Y-63476457D01*
X165100000Y-63456502D01*
X164871913Y-63476457D01*
X164866600Y-63477881D01*
X164866598Y-63477881D01*
X164656067Y-63534293D01*
X164656065Y-63534294D01*
X164650757Y-63535716D01*
X164645776Y-63538039D01*
X164645775Y-63538039D01*
X164448238Y-63630151D01*
X164448233Y-63630154D01*
X164443251Y-63632477D01*
X164338389Y-63705902D01*
X164260211Y-63760643D01*
X164260208Y-63760645D01*
X164255700Y-63763802D01*
X164093802Y-63925700D01*
X163962477Y-64113251D01*
X163960154Y-64118233D01*
X163960151Y-64118238D01*
X163887883Y-64273220D01*
X163865716Y-64320757D01*
X163864294Y-64326065D01*
X163864293Y-64326067D01*
X163845117Y-64397634D01*
X163806457Y-64541913D01*
X163786502Y-64770000D01*
X162353826Y-64770000D01*
X162349992Y-64764525D01*
X162299357Y-64692211D01*
X162299355Y-64692208D01*
X162296198Y-64687700D01*
X162134300Y-64525802D01*
X162129792Y-64522645D01*
X162129789Y-64522643D01*
X162051611Y-64467902D01*
X161946749Y-64394477D01*
X161941767Y-64392154D01*
X161941762Y-64392151D01*
X161800042Y-64326067D01*
X161739243Y-64297716D01*
X161681184Y-64282159D01*
X161624700Y-64249547D01*
X160692405Y-63317252D01*
X160658379Y-63254940D01*
X160655500Y-63228157D01*
X160655500Y-62430684D01*
X160641169Y-62274721D01*
X160584123Y-62072451D01*
X160551418Y-62006132D01*
X160521095Y-61944642D01*
X160508905Y-61874700D01*
X160536465Y-61809270D01*
X160595023Y-61769127D01*
X160607904Y-61765667D01*
X160715140Y-61742873D01*
X160727628Y-61738816D01*
X160839763Y-61688890D01*
X160850507Y-61679758D01*
X160848910Y-61674120D01*
X160461267Y-61286477D01*
X160427241Y-61224165D01*
X160430529Y-61158446D01*
X160431596Y-61155162D01*
X160449365Y-61100475D01*
X160468229Y-60921000D01*
X160464786Y-60888247D01*
X160477557Y-60818410D01*
X160526058Y-60766563D01*
X160594891Y-60749167D01*
X160662201Y-60771747D01*
X160679191Y-60785981D01*
X160877367Y-60984157D01*
X160908506Y-61035573D01*
X160917555Y-61064449D01*
X160917558Y-61064457D01*
X160919465Y-61070541D01*
X160922555Y-61076115D01*
X160922556Y-61076118D01*
X161007531Y-61229414D01*
X161013870Y-61240850D01*
X161018019Y-61245691D01*
X161018022Y-61245695D01*
X161136440Y-61383855D01*
X161140591Y-61388698D01*
X161294453Y-61508046D01*
X161300176Y-61510862D01*
X161300179Y-61510864D01*
X161411440Y-61565611D01*
X161469171Y-61594018D01*
X161475349Y-61595627D01*
X161475351Y-61595628D01*
X161651425Y-61641492D01*
X161651428Y-61641492D01*
X161657607Y-61643102D01*
X161741597Y-61647504D01*
X161845683Y-61652959D01*
X161845687Y-61652959D01*
X161852064Y-61653293D01*
X162007413Y-61629799D01*
X162038285Y-61625130D01*
X162038286Y-61625130D01*
X162044599Y-61624175D01*
X162050585Y-61621972D01*
X162050591Y-61621971D01*
X162221360Y-61559140D01*
X162221365Y-61559138D01*
X162227346Y-61556937D01*
X162337670Y-61488533D01*
X162387418Y-61457688D01*
X162387419Y-61457687D01*
X162392840Y-61454326D01*
X162467362Y-61383855D01*
X162529685Y-61324919D01*
X162534322Y-61320534D01*
X162646011Y-61161025D01*
X162682753Y-61076120D01*
X162720810Y-60988175D01*
X162720811Y-60988171D01*
X162723345Y-60982316D01*
X162728135Y-60959387D01*
X162762176Y-60796443D01*
X162762177Y-60796438D01*
X162763165Y-60791707D01*
X162763500Y-60785315D01*
X162763500Y-59142337D01*
X162748765Y-58997273D01*
X162727525Y-58929496D01*
X162692444Y-58817549D01*
X162692442Y-58817544D01*
X162690535Y-58811459D01*
X162635958Y-58713000D01*
X162599223Y-58646729D01*
X162599221Y-58646726D01*
X162596130Y-58641150D01*
X162591979Y-58636307D01*
X162588334Y-58631063D01*
X162589983Y-58629917D01*
X162564688Y-58573732D01*
X162563500Y-58556471D01*
X162563500Y-57588591D01*
X162586287Y-57516321D01*
X162642349Y-57436256D01*
X162642352Y-57436250D01*
X162646011Y-57431025D01*
X162652287Y-57416522D01*
X163817273Y-57416522D01*
X163864764Y-57593761D01*
X163868510Y-57604053D01*
X163960586Y-57801511D01*
X163966069Y-57811007D01*
X164091028Y-57989467D01*
X164098084Y-57997875D01*
X164252125Y-58151916D01*
X164260533Y-58158972D01*
X164438993Y-58283931D01*
X164448489Y-58289414D01*
X164645947Y-58381490D01*
X164656239Y-58385236D01*
X164828503Y-58431394D01*
X164842599Y-58431058D01*
X164846000Y-58423116D01*
X164846000Y-58417967D01*
X165354000Y-58417967D01*
X165357973Y-58431498D01*
X165366522Y-58432727D01*
X165543761Y-58385236D01*
X165554053Y-58381490D01*
X165751511Y-58289414D01*
X165761007Y-58283931D01*
X165939467Y-58158972D01*
X165947875Y-58151916D01*
X166101916Y-57997875D01*
X166108972Y-57989467D01*
X166233931Y-57811007D01*
X166239414Y-57801511D01*
X166331490Y-57604053D01*
X166335236Y-57593761D01*
X166381394Y-57421497D01*
X166381275Y-57416522D01*
X166865273Y-57416522D01*
X166912764Y-57593761D01*
X166916510Y-57604053D01*
X167008586Y-57801511D01*
X167014069Y-57811007D01*
X167139028Y-57989467D01*
X167146084Y-57997875D01*
X167300125Y-58151916D01*
X167308533Y-58158972D01*
X167486993Y-58283931D01*
X167496489Y-58289414D01*
X167693947Y-58381490D01*
X167704239Y-58385236D01*
X167876503Y-58431394D01*
X167890599Y-58431058D01*
X167894000Y-58423116D01*
X167894000Y-58417967D01*
X168402000Y-58417967D01*
X168405973Y-58431498D01*
X168414522Y-58432727D01*
X168591761Y-58385236D01*
X168602053Y-58381490D01*
X168799511Y-58289414D01*
X168809007Y-58283931D01*
X168987467Y-58158972D01*
X168995875Y-58151916D01*
X169149916Y-57997875D01*
X169156972Y-57989467D01*
X169281931Y-57811007D01*
X169287414Y-57801511D01*
X169379490Y-57604053D01*
X169383236Y-57593761D01*
X169429394Y-57421497D01*
X169429058Y-57407401D01*
X169421116Y-57404000D01*
X168420115Y-57404000D01*
X168404876Y-57408475D01*
X168403671Y-57409865D01*
X168402000Y-57417548D01*
X168402000Y-58417967D01*
X167894000Y-58417967D01*
X167894000Y-57422115D01*
X167889525Y-57406876D01*
X167888135Y-57405671D01*
X167880452Y-57404000D01*
X166880033Y-57404000D01*
X166866502Y-57407973D01*
X166865273Y-57416522D01*
X166381275Y-57416522D01*
X166381058Y-57407401D01*
X166373116Y-57404000D01*
X165372115Y-57404000D01*
X165356876Y-57408475D01*
X165355671Y-57409865D01*
X165354000Y-57417548D01*
X165354000Y-58417967D01*
X164846000Y-58417967D01*
X164846000Y-57422115D01*
X164841525Y-57406876D01*
X164840135Y-57405671D01*
X164832452Y-57404000D01*
X163832033Y-57404000D01*
X163818502Y-57407973D01*
X163817273Y-57416522D01*
X162652287Y-57416522D01*
X162723345Y-57252316D01*
X162742460Y-57160818D01*
X162762176Y-57066443D01*
X162762177Y-57066438D01*
X162763165Y-57061707D01*
X162763500Y-57055315D01*
X162763500Y-56878503D01*
X163818606Y-56878503D01*
X163818942Y-56892599D01*
X163826884Y-56896000D01*
X164827885Y-56896000D01*
X164843124Y-56891525D01*
X164844329Y-56890135D01*
X164846000Y-56882452D01*
X164846000Y-56877885D01*
X165354000Y-56877885D01*
X165358475Y-56893124D01*
X165359865Y-56894329D01*
X165367548Y-56896000D01*
X166367967Y-56896000D01*
X166381498Y-56892027D01*
X166382727Y-56883478D01*
X166381394Y-56878503D01*
X166866606Y-56878503D01*
X166866942Y-56892599D01*
X166874884Y-56896000D01*
X167875885Y-56896000D01*
X167891124Y-56891525D01*
X167892329Y-56890135D01*
X167894000Y-56882452D01*
X167894000Y-56877885D01*
X168402000Y-56877885D01*
X168406475Y-56893124D01*
X168407865Y-56894329D01*
X168415548Y-56896000D01*
X169415967Y-56896000D01*
X169429498Y-56892027D01*
X169430727Y-56883478D01*
X169383236Y-56706239D01*
X169379490Y-56695947D01*
X169287414Y-56498489D01*
X169281931Y-56488993D01*
X169156972Y-56310533D01*
X169149916Y-56302125D01*
X168995875Y-56148084D01*
X168987467Y-56141028D01*
X168809007Y-56016069D01*
X168799511Y-56010586D01*
X168602053Y-55918510D01*
X168591761Y-55914764D01*
X168419497Y-55868606D01*
X168405401Y-55868942D01*
X168402000Y-55876884D01*
X168402000Y-56877885D01*
X167894000Y-56877885D01*
X167894000Y-55882033D01*
X167890027Y-55868502D01*
X167881478Y-55867273D01*
X167704239Y-55914764D01*
X167693947Y-55918510D01*
X167496489Y-56010586D01*
X167486993Y-56016069D01*
X167308533Y-56141028D01*
X167300125Y-56148084D01*
X167146084Y-56302125D01*
X167139028Y-56310533D01*
X167014069Y-56488993D01*
X167008586Y-56498489D01*
X166916510Y-56695947D01*
X166912764Y-56706239D01*
X166866606Y-56878503D01*
X166381394Y-56878503D01*
X166335236Y-56706239D01*
X166331490Y-56695947D01*
X166239414Y-56498489D01*
X166233931Y-56488993D01*
X166108972Y-56310533D01*
X166101916Y-56302125D01*
X165947875Y-56148084D01*
X165939467Y-56141028D01*
X165761007Y-56016069D01*
X165751511Y-56010586D01*
X165554053Y-55918510D01*
X165543761Y-55914764D01*
X165371497Y-55868606D01*
X165357401Y-55868942D01*
X165354000Y-55876884D01*
X165354000Y-56877885D01*
X164846000Y-56877885D01*
X164846000Y-55882033D01*
X164842027Y-55868502D01*
X164833478Y-55867273D01*
X164656239Y-55914764D01*
X164645947Y-55918510D01*
X164448489Y-56010586D01*
X164438993Y-56016069D01*
X164260533Y-56141028D01*
X164252125Y-56148084D01*
X164098084Y-56302125D01*
X164091028Y-56310533D01*
X163966069Y-56488993D01*
X163960586Y-56498489D01*
X163868510Y-56695947D01*
X163864764Y-56706239D01*
X163818606Y-56878503D01*
X162763500Y-56878503D01*
X162763500Y-56112337D01*
X162756462Y-56043049D01*
X162749410Y-55973622D01*
X162749410Y-55973621D01*
X162748765Y-55967273D01*
X162720439Y-55876884D01*
X162692444Y-55787549D01*
X162692442Y-55787544D01*
X162690535Y-55781459D01*
X162596130Y-55611150D01*
X162569429Y-55579997D01*
X162540285Y-55515257D01*
X162550769Y-55445039D01*
X162597551Y-55391635D01*
X162665098Y-55372000D01*
X170054000Y-55372000D01*
X170122121Y-55392002D01*
X170168614Y-55445658D01*
X170180000Y-55498000D01*
X170180000Y-136018000D01*
X170159998Y-136086121D01*
X170106342Y-136132614D01*
X170054000Y-136144000D01*
X121538000Y-136144000D01*
X121469879Y-136123998D01*
X121423386Y-136070342D01*
X121412000Y-136018000D01*
X121412000Y-132900000D01*
X129958526Y-132900000D01*
X129978391Y-133152403D01*
X130037495Y-133398591D01*
X130134384Y-133632502D01*
X130266672Y-133848376D01*
X130431102Y-134040898D01*
X130623624Y-134205328D01*
X130839498Y-134337616D01*
X130844068Y-134339509D01*
X130844072Y-134339511D01*
X131068836Y-134432611D01*
X131073409Y-134434505D01*
X131158032Y-134454821D01*
X131314784Y-134492454D01*
X131314790Y-134492455D01*
X131319597Y-134493609D01*
X131572000Y-134513474D01*
X131824403Y-134493609D01*
X131829210Y-134492455D01*
X131829216Y-134492454D01*
X131985968Y-134454821D01*
X132070591Y-134434505D01*
X132075164Y-134432611D01*
X132299928Y-134339511D01*
X132299932Y-134339509D01*
X132304502Y-134337616D01*
X132520376Y-134205328D01*
X132712898Y-134040898D01*
X132877328Y-133848376D01*
X133009616Y-133632502D01*
X133106505Y-133398591D01*
X133165609Y-133152403D01*
X133185474Y-132900000D01*
X150278526Y-132900000D01*
X150298391Y-133152403D01*
X150357495Y-133398591D01*
X150454384Y-133632502D01*
X150586672Y-133848376D01*
X150751102Y-134040898D01*
X150943624Y-134205328D01*
X151159498Y-134337616D01*
X151164068Y-134339509D01*
X151164072Y-134339511D01*
X151388836Y-134432611D01*
X151393409Y-134434505D01*
X151478032Y-134454821D01*
X151634784Y-134492454D01*
X151634790Y-134492455D01*
X151639597Y-134493609D01*
X151892000Y-134513474D01*
X152144403Y-134493609D01*
X152149210Y-134492455D01*
X152149216Y-134492454D01*
X152305968Y-134454821D01*
X152390591Y-134434505D01*
X152395164Y-134432611D01*
X152619928Y-134339511D01*
X152619932Y-134339509D01*
X152624502Y-134337616D01*
X152840376Y-134205328D01*
X153032898Y-134040898D01*
X153197328Y-133848376D01*
X153329616Y-133632502D01*
X153426505Y-133398591D01*
X153485609Y-133152403D01*
X153505474Y-132900000D01*
X153485609Y-132647597D01*
X153426505Y-132401409D01*
X153399271Y-132335660D01*
X153331511Y-132172072D01*
X153331509Y-132172068D01*
X153329616Y-132167498D01*
X153197328Y-131951624D01*
X153032898Y-131759102D01*
X152840376Y-131594672D01*
X152624502Y-131462384D01*
X152619932Y-131460491D01*
X152619928Y-131460489D01*
X152395164Y-131367389D01*
X152395162Y-131367388D01*
X152390591Y-131365495D01*
X152305968Y-131345179D01*
X152149216Y-131307546D01*
X152149210Y-131307545D01*
X152144403Y-131306391D01*
X151892000Y-131286526D01*
X151639597Y-131306391D01*
X151634790Y-131307545D01*
X151634784Y-131307546D01*
X151478032Y-131345179D01*
X151393409Y-131365495D01*
X151388838Y-131367388D01*
X151388836Y-131367389D01*
X151164072Y-131460489D01*
X151164068Y-131460491D01*
X151159498Y-131462384D01*
X150943624Y-131594672D01*
X150751102Y-131759102D01*
X150586672Y-131951624D01*
X150454384Y-132167498D01*
X150452491Y-132172068D01*
X150452489Y-132172072D01*
X150384729Y-132335660D01*
X150357495Y-132401409D01*
X150298391Y-132647597D01*
X150278526Y-132900000D01*
X133185474Y-132900000D01*
X133165609Y-132647597D01*
X133106505Y-132401409D01*
X133079271Y-132335660D01*
X133011511Y-132172072D01*
X133011509Y-132172068D01*
X133009616Y-132167498D01*
X132877328Y-131951624D01*
X132712898Y-131759102D01*
X132520376Y-131594672D01*
X132304502Y-131462384D01*
X132299932Y-131460491D01*
X132299928Y-131460489D01*
X132075164Y-131367389D01*
X132075162Y-131367388D01*
X132070591Y-131365495D01*
X131985968Y-131345179D01*
X131829216Y-131307546D01*
X131829210Y-131307545D01*
X131824403Y-131306391D01*
X131572000Y-131286526D01*
X131319597Y-131306391D01*
X131314790Y-131307545D01*
X131314784Y-131307546D01*
X131158032Y-131345179D01*
X131073409Y-131365495D01*
X131068838Y-131367388D01*
X131068836Y-131367389D01*
X130844072Y-131460489D01*
X130844068Y-131460491D01*
X130839498Y-131462384D01*
X130623624Y-131594672D01*
X130431102Y-131759102D01*
X130266672Y-131951624D01*
X130134384Y-132167498D01*
X130132491Y-132172068D01*
X130132489Y-132172072D01*
X130064729Y-132335660D01*
X130037495Y-132401409D01*
X129978391Y-132647597D01*
X129958526Y-132900000D01*
X121412000Y-132900000D01*
X121412000Y-113596000D01*
X129958526Y-113596000D01*
X129978391Y-113848403D01*
X130037495Y-114094591D01*
X130039388Y-114099162D01*
X130039389Y-114099164D01*
X130118382Y-114289869D01*
X130134384Y-114328502D01*
X130266672Y-114544376D01*
X130431102Y-114736898D01*
X130623624Y-114901328D01*
X130839498Y-115033616D01*
X130844068Y-115035509D01*
X130844072Y-115035511D01*
X131068836Y-115128611D01*
X131073409Y-115130505D01*
X131158032Y-115150821D01*
X131314784Y-115188454D01*
X131314790Y-115188455D01*
X131319597Y-115189609D01*
X131572000Y-115209474D01*
X131824403Y-115189609D01*
X131829210Y-115188455D01*
X131829216Y-115188454D01*
X131985968Y-115150821D01*
X132070591Y-115130505D01*
X132075164Y-115128611D01*
X132299928Y-115035511D01*
X132299932Y-115035509D01*
X132304502Y-115033616D01*
X132520376Y-114901328D01*
X132712898Y-114736898D01*
X132877328Y-114544376D01*
X133009616Y-114328502D01*
X133025619Y-114289869D01*
X133104611Y-114099164D01*
X133104612Y-114099162D01*
X133106505Y-114094591D01*
X133165609Y-113848403D01*
X133185474Y-113596000D01*
X133165609Y-113343597D01*
X133106505Y-113097409D01*
X133079271Y-113031660D01*
X133011511Y-112868072D01*
X133011509Y-112868068D01*
X133009616Y-112863498D01*
X132877328Y-112647624D01*
X132712898Y-112455102D01*
X132520376Y-112290672D01*
X132304502Y-112158384D01*
X132299932Y-112156491D01*
X132299928Y-112156489D01*
X132075164Y-112063389D01*
X132075162Y-112063388D01*
X132070591Y-112061495D01*
X131976938Y-112039011D01*
X131829216Y-112003546D01*
X131829210Y-112003545D01*
X131824403Y-112002391D01*
X131572000Y-111982526D01*
X131319597Y-112002391D01*
X131314790Y-112003545D01*
X131314784Y-112003546D01*
X131167062Y-112039011D01*
X131073409Y-112061495D01*
X131068838Y-112063388D01*
X131068836Y-112063389D01*
X130844072Y-112156489D01*
X130844068Y-112156491D01*
X130839498Y-112158384D01*
X130623624Y-112290672D01*
X130431102Y-112455102D01*
X130266672Y-112647624D01*
X130134384Y-112863498D01*
X130132491Y-112868068D01*
X130132489Y-112868072D01*
X130064729Y-113031660D01*
X130037495Y-113097409D01*
X129978391Y-113343597D01*
X129958526Y-113596000D01*
X121412000Y-113596000D01*
X121412000Y-93560917D01*
X122556500Y-93560917D01*
X122556702Y-93563425D01*
X122556702Y-93563430D01*
X122565108Y-93667904D01*
X122571055Y-93741824D01*
X122572260Y-93746732D01*
X122572261Y-93746735D01*
X122604057Y-93876182D01*
X122628939Y-93977484D01*
X122630914Y-93982136D01*
X122630915Y-93982140D01*
X122640485Y-94004685D01*
X122723756Y-94200859D01*
X122726454Y-94205143D01*
X122795653Y-94315028D01*
X122853067Y-94406200D01*
X122856412Y-94409994D01*
X123010196Y-94584429D01*
X123010199Y-94584432D01*
X123013544Y-94588226D01*
X123201060Y-94742253D01*
X123410789Y-94864319D01*
X123415515Y-94866133D01*
X123415519Y-94866135D01*
X123632608Y-94949467D01*
X123632611Y-94949468D01*
X123637337Y-94951282D01*
X123874874Y-95000906D01*
X123879923Y-95001135D01*
X123879929Y-95001136D01*
X123990548Y-95006159D01*
X124117289Y-95011914D01*
X124122309Y-95011333D01*
X124122313Y-95011333D01*
X124230168Y-94998854D01*
X124358346Y-94984023D01*
X124363220Y-94982644D01*
X124363224Y-94982643D01*
X124586974Y-94919328D01*
X124586976Y-94919327D01*
X124591843Y-94917950D01*
X124596418Y-94915816D01*
X124596425Y-94915814D01*
X124807191Y-94817532D01*
X124807195Y-94817530D01*
X124811773Y-94815395D01*
X124872553Y-94774089D01*
X125008289Y-94681843D01*
X125008293Y-94681840D01*
X125012476Y-94678997D01*
X125188791Y-94512265D01*
X125233929Y-94453227D01*
X125291191Y-94411261D01*
X125362055Y-94406916D01*
X125428537Y-94446433D01*
X125550196Y-94584429D01*
X125550199Y-94584432D01*
X125553544Y-94588226D01*
X125741060Y-94742253D01*
X125950789Y-94864319D01*
X125955515Y-94866133D01*
X125955519Y-94866135D01*
X126172608Y-94949467D01*
X126172611Y-94949468D01*
X126177337Y-94951282D01*
X126414874Y-95000906D01*
X126419923Y-95001135D01*
X126419929Y-95001136D01*
X126530548Y-95006159D01*
X126657289Y-95011914D01*
X126662309Y-95011333D01*
X126662313Y-95011333D01*
X126770168Y-94998854D01*
X126898346Y-94984023D01*
X126903220Y-94982644D01*
X126903224Y-94982643D01*
X127126974Y-94919328D01*
X127126976Y-94919327D01*
X127131843Y-94917950D01*
X127136418Y-94915816D01*
X127136425Y-94915814D01*
X127347191Y-94817532D01*
X127347195Y-94817530D01*
X127351773Y-94815395D01*
X127412553Y-94774089D01*
X127548289Y-94681843D01*
X127548293Y-94681840D01*
X127552476Y-94678997D01*
X127728791Y-94512265D01*
X127773929Y-94453227D01*
X127831191Y-94411261D01*
X127902055Y-94406916D01*
X127968537Y-94446433D01*
X128090196Y-94584429D01*
X128090199Y-94584432D01*
X128093544Y-94588226D01*
X128281060Y-94742253D01*
X128490789Y-94864319D01*
X128495515Y-94866133D01*
X128495519Y-94866135D01*
X128712608Y-94949467D01*
X128712611Y-94949468D01*
X128717337Y-94951282D01*
X128954874Y-95000906D01*
X128959923Y-95001135D01*
X128959929Y-95001136D01*
X129070548Y-95006159D01*
X129197289Y-95011914D01*
X129202309Y-95011333D01*
X129202313Y-95011333D01*
X129310168Y-94998854D01*
X129438346Y-94984023D01*
X129443220Y-94982644D01*
X129443224Y-94982643D01*
X129666974Y-94919328D01*
X129666976Y-94919327D01*
X129671843Y-94917950D01*
X129676418Y-94915816D01*
X129676425Y-94915814D01*
X129887191Y-94817532D01*
X129887195Y-94817530D01*
X129891773Y-94815395D01*
X129952553Y-94774089D01*
X130088289Y-94681843D01*
X130088293Y-94681840D01*
X130092476Y-94678997D01*
X130268791Y-94512265D01*
X130313929Y-94453227D01*
X130371191Y-94411261D01*
X130442055Y-94406916D01*
X130508537Y-94446433D01*
X130630196Y-94584429D01*
X130630199Y-94584432D01*
X130633544Y-94588226D01*
X130821060Y-94742253D01*
X131030789Y-94864319D01*
X131035515Y-94866133D01*
X131035519Y-94866135D01*
X131252608Y-94949467D01*
X131252611Y-94949468D01*
X131257337Y-94951282D01*
X131494874Y-95000906D01*
X131499923Y-95001135D01*
X131499929Y-95001136D01*
X131610548Y-95006159D01*
X131737289Y-95011914D01*
X131742309Y-95011333D01*
X131742313Y-95011333D01*
X131850168Y-94998854D01*
X131978346Y-94984023D01*
X131983220Y-94982644D01*
X131983224Y-94982643D01*
X132206974Y-94919328D01*
X132206976Y-94919327D01*
X132211843Y-94917950D01*
X132216418Y-94915816D01*
X132216425Y-94915814D01*
X132427191Y-94817532D01*
X132427195Y-94817530D01*
X132431773Y-94815395D01*
X132492553Y-94774089D01*
X132628289Y-94681843D01*
X132628293Y-94681840D01*
X132632476Y-94678997D01*
X132808791Y-94512265D01*
X132853929Y-94453227D01*
X132911191Y-94411261D01*
X132982055Y-94406916D01*
X133048537Y-94446433D01*
X133170196Y-94584429D01*
X133170199Y-94584432D01*
X133173544Y-94588226D01*
X133361060Y-94742253D01*
X133570789Y-94864319D01*
X133575515Y-94866133D01*
X133575519Y-94866135D01*
X133792608Y-94949467D01*
X133792611Y-94949468D01*
X133797337Y-94951282D01*
X134034874Y-95000906D01*
X134039923Y-95001135D01*
X134039929Y-95001136D01*
X134150548Y-95006159D01*
X134277289Y-95011914D01*
X134282309Y-95011333D01*
X134282313Y-95011333D01*
X134390168Y-94998854D01*
X134518346Y-94984023D01*
X134523220Y-94982644D01*
X134523224Y-94982643D01*
X134746974Y-94919328D01*
X134746976Y-94919327D01*
X134751843Y-94917950D01*
X134756418Y-94915816D01*
X134756425Y-94915814D01*
X134967191Y-94817532D01*
X134967195Y-94817530D01*
X134971773Y-94815395D01*
X135032553Y-94774089D01*
X135168289Y-94681843D01*
X135168293Y-94681840D01*
X135172476Y-94678997D01*
X135348791Y-94512265D01*
X135393929Y-94453227D01*
X135451191Y-94411261D01*
X135522055Y-94406916D01*
X135588537Y-94446433D01*
X135710196Y-94584429D01*
X135710199Y-94584432D01*
X135713544Y-94588226D01*
X135901060Y-94742253D01*
X136110789Y-94864319D01*
X136115515Y-94866133D01*
X136115519Y-94866135D01*
X136332608Y-94949467D01*
X136332611Y-94949468D01*
X136337337Y-94951282D01*
X136574874Y-95000906D01*
X136579923Y-95001135D01*
X136579929Y-95001136D01*
X136690548Y-95006159D01*
X136817289Y-95011914D01*
X136822309Y-95011333D01*
X136822313Y-95011333D01*
X136930168Y-94998854D01*
X137058346Y-94984023D01*
X137063220Y-94982644D01*
X137063224Y-94982643D01*
X137286974Y-94919328D01*
X137286976Y-94919327D01*
X137291843Y-94917950D01*
X137296418Y-94915816D01*
X137296425Y-94915814D01*
X137507191Y-94817532D01*
X137507195Y-94817530D01*
X137511773Y-94815395D01*
X137572553Y-94774089D01*
X137708289Y-94681843D01*
X137708293Y-94681840D01*
X137712476Y-94678997D01*
X137888791Y-94512265D01*
X137933929Y-94453227D01*
X137991191Y-94411261D01*
X138062055Y-94406916D01*
X138128537Y-94446433D01*
X138250196Y-94584429D01*
X138250199Y-94584432D01*
X138253544Y-94588226D01*
X138441060Y-94742253D01*
X138650789Y-94864319D01*
X138655515Y-94866133D01*
X138655519Y-94866135D01*
X138872608Y-94949467D01*
X138872611Y-94949468D01*
X138877337Y-94951282D01*
X139114874Y-95000906D01*
X139119923Y-95001135D01*
X139119929Y-95001136D01*
X139230548Y-95006159D01*
X139357289Y-95011914D01*
X139362309Y-95011333D01*
X139362313Y-95011333D01*
X139470168Y-94998854D01*
X139598346Y-94984023D01*
X139603220Y-94982644D01*
X139603224Y-94982643D01*
X139826974Y-94919328D01*
X139826976Y-94919327D01*
X139831843Y-94917950D01*
X139836418Y-94915816D01*
X139836425Y-94915814D01*
X140047191Y-94817532D01*
X140047195Y-94817530D01*
X140051773Y-94815395D01*
X140112553Y-94774089D01*
X140248289Y-94681843D01*
X140248293Y-94681840D01*
X140252476Y-94678997D01*
X140428791Y-94512265D01*
X140431870Y-94508238D01*
X140573107Y-94323508D01*
X140573110Y-94323504D01*
X140576180Y-94319488D01*
X140690852Y-94105626D01*
X140769856Y-93876182D01*
X140811160Y-93637058D01*
X140811340Y-93633097D01*
X140812416Y-93609407D01*
X140812416Y-93609386D01*
X140812480Y-93607987D01*
X140812480Y-92689663D01*
X140811525Y-92677796D01*
X140798331Y-92513797D01*
X140798330Y-92513792D01*
X140797925Y-92508756D01*
X140766150Y-92379390D01*
X140741248Y-92278010D01*
X140740041Y-92273096D01*
X140645224Y-92049721D01*
X140597173Y-91973418D01*
X140518608Y-91848659D01*
X140518606Y-91848656D01*
X140515913Y-91844380D01*
X140477409Y-91800705D01*
X140358784Y-91666151D01*
X140358781Y-91666148D01*
X140355436Y-91662354D01*
X140167920Y-91508327D01*
X139958191Y-91386261D01*
X139953465Y-91384447D01*
X139953461Y-91384445D01*
X139818476Y-91332630D01*
X139735551Y-91300798D01*
X139679124Y-91257714D01*
X139654947Y-91190960D01*
X139670698Y-91121733D01*
X139691611Y-91094073D01*
X141273759Y-89511925D01*
X141336071Y-89477899D01*
X141362854Y-89475020D01*
X145540996Y-89475020D01*
X145609117Y-89495022D01*
X145655610Y-89548678D01*
X145665714Y-89618952D01*
X145636220Y-89683532D01*
X145624735Y-89694073D01*
X145625083Y-89694444D01*
X145619307Y-89699868D01*
X145612893Y-89704528D01*
X145607842Y-89710634D01*
X145584702Y-89738605D01*
X145576712Y-89747384D01*
X127691000Y-107633095D01*
X127628688Y-107667121D01*
X127557873Y-107662056D01*
X127501037Y-107619509D01*
X127475994Y-107548729D01*
X127475255Y-107529057D01*
X127475055Y-107523726D01*
X127425970Y-107289789D01*
X127338171Y-107067467D01*
X127214168Y-106863117D01*
X127124103Y-106759326D01*
X127061007Y-106686614D01*
X127061005Y-106686612D01*
X127057507Y-106682581D01*
X127053381Y-106679198D01*
X127053377Y-106679194D01*
X126876795Y-106534407D01*
X126872667Y-106531022D01*
X126868031Y-106528383D01*
X126868028Y-106528381D01*
X126669577Y-106415416D01*
X126664934Y-106412773D01*
X126440247Y-106331216D01*
X126434998Y-106330267D01*
X126434995Y-106330266D01*
X126209115Y-106289420D01*
X126209107Y-106289419D01*
X126205031Y-106288682D01*
X126186641Y-106287815D01*
X126181456Y-106287570D01*
X126181449Y-106287570D01*
X126179968Y-106287500D01*
X126011988Y-106287500D01*
X125833825Y-106302617D01*
X125828661Y-106303957D01*
X125828657Y-106303958D01*
X125607625Y-106361327D01*
X125607620Y-106361329D01*
X125602460Y-106362668D01*
X125597594Y-106364860D01*
X125389381Y-106458653D01*
X125389378Y-106458654D01*
X125384520Y-106460843D01*
X125186238Y-106594334D01*
X125013282Y-106759326D01*
X124870598Y-106951100D01*
X124868182Y-106955851D01*
X124868180Y-106955855D01*
X124810934Y-107068450D01*
X124762267Y-107164172D01*
X124728126Y-107274124D01*
X124692968Y-107387349D01*
X124692967Y-107387355D01*
X124691384Y-107392452D01*
X124659977Y-107629411D01*
X124668945Y-107868274D01*
X124718030Y-108102211D01*
X124805829Y-108324533D01*
X124929832Y-108528883D01*
X124933329Y-108532913D01*
X125039684Y-108655476D01*
X125086493Y-108709419D01*
X125090619Y-108712802D01*
X125090623Y-108712806D01*
X125189629Y-108793985D01*
X125271333Y-108860978D01*
X125275969Y-108863617D01*
X125275972Y-108863619D01*
X125389386Y-108928178D01*
X125479066Y-108979227D01*
X125703753Y-109060784D01*
X125709002Y-109061733D01*
X125709005Y-109061734D01*
X125934885Y-109102580D01*
X125934893Y-109102581D01*
X125938969Y-109103318D01*
X125943112Y-109103513D01*
X125947242Y-109103982D01*
X125947082Y-109105396D01*
X126008503Y-109126611D01*
X126052424Y-109182391D01*
X126059217Y-109253062D01*
X126045920Y-109289947D01*
X126045680Y-109290384D01*
X126034801Y-109306953D01*
X126022386Y-109322959D01*
X126019241Y-109330228D01*
X126019238Y-109330232D01*
X126004826Y-109363537D01*
X125999609Y-109374187D01*
X125978305Y-109412940D01*
X125976334Y-109420615D01*
X125976334Y-109420616D01*
X125973267Y-109432562D01*
X125966863Y-109451266D01*
X125958819Y-109469855D01*
X125957580Y-109477678D01*
X125957577Y-109477688D01*
X125951901Y-109513524D01*
X125949495Y-109525144D01*
X125938500Y-109567970D01*
X125938500Y-109588224D01*
X125936949Y-109607934D01*
X125933780Y-109627943D01*
X125934526Y-109635835D01*
X125937941Y-109671961D01*
X125938500Y-109683819D01*
X125938500Y-109933185D01*
X125918498Y-110001306D01*
X125860720Y-110049593D01*
X125849495Y-110054243D01*
X125839498Y-110058384D01*
X125623624Y-110190672D01*
X125431102Y-110355102D01*
X125266672Y-110547624D01*
X125134384Y-110763498D01*
X125037495Y-110997409D01*
X124978391Y-111243597D01*
X124958526Y-111496000D01*
X124978391Y-111748403D01*
X124979545Y-111753210D01*
X124979546Y-111753216D01*
X125010670Y-111882856D01*
X125037495Y-111994591D01*
X125039388Y-111999162D01*
X125039389Y-111999164D01*
X125122960Y-112200921D01*
X125134384Y-112228502D01*
X125266672Y-112444376D01*
X125431102Y-112636898D01*
X125623624Y-112801328D01*
X125839498Y-112933616D01*
X125844068Y-112935509D01*
X125844072Y-112935511D01*
X126068836Y-113028611D01*
X126073409Y-113030505D01*
X126158032Y-113050821D01*
X126314784Y-113088454D01*
X126314790Y-113088455D01*
X126319597Y-113089609D01*
X126572000Y-113109474D01*
X126824403Y-113089609D01*
X126829210Y-113088455D01*
X126829216Y-113088454D01*
X126985968Y-113050821D01*
X127070591Y-113030505D01*
X127075164Y-113028611D01*
X127299928Y-112935511D01*
X127299932Y-112935509D01*
X127304502Y-112933616D01*
X127520376Y-112801328D01*
X127712898Y-112636898D01*
X127877328Y-112444376D01*
X128009616Y-112228502D01*
X128021041Y-112200921D01*
X128104611Y-111999164D01*
X128104612Y-111999162D01*
X128106505Y-111994591D01*
X128133330Y-111882856D01*
X128164454Y-111753216D01*
X128164455Y-111753210D01*
X128165609Y-111748403D01*
X128185474Y-111496000D01*
X128165609Y-111243597D01*
X128106505Y-110997409D01*
X128009616Y-110763498D01*
X127877328Y-110547624D01*
X127712898Y-110355102D01*
X127520376Y-110190672D01*
X127304502Y-110058384D01*
X127299925Y-110056488D01*
X127295519Y-110054243D01*
X127296579Y-110052163D01*
X127248802Y-110013668D01*
X127226376Y-109946307D01*
X127243928Y-109877514D01*
X127263200Y-109852704D01*
X129261654Y-107854250D01*
X129323966Y-107820224D01*
X129394781Y-107825289D01*
X129451617Y-107867836D01*
X129475671Y-107926898D01*
X129500268Y-108113734D01*
X129576129Y-108391036D01*
X129688923Y-108655476D01*
X129763473Y-108780040D01*
X129809888Y-108857593D01*
X129836561Y-108902161D01*
X130016313Y-109126528D01*
X130107185Y-109212762D01*
X130216712Y-109316699D01*
X130224851Y-109324423D01*
X130458317Y-109492186D01*
X130462112Y-109494195D01*
X130462113Y-109494196D01*
X130483869Y-109505715D01*
X130712392Y-109626712D01*
X130736699Y-109635607D01*
X130974700Y-109722703D01*
X130982373Y-109725511D01*
X131263264Y-109786755D01*
X131291841Y-109789004D01*
X131486282Y-109804307D01*
X131486291Y-109804307D01*
X131488739Y-109804500D01*
X131644271Y-109804500D01*
X131646407Y-109804354D01*
X131646418Y-109804354D01*
X131854548Y-109790165D01*
X131854554Y-109790164D01*
X131858825Y-109789873D01*
X131863020Y-109789004D01*
X131863022Y-109789004D01*
X131999583Y-109760724D01*
X132140342Y-109731574D01*
X132411343Y-109635607D01*
X132666812Y-109503750D01*
X132670313Y-109501289D01*
X132670317Y-109501287D01*
X132822205Y-109394538D01*
X132902023Y-109338441D01*
X133021760Y-109227174D01*
X133109479Y-109145661D01*
X133109481Y-109145658D01*
X133112622Y-109142740D01*
X133294713Y-108920268D01*
X133444927Y-108675142D01*
X133560483Y-108411898D01*
X133639244Y-108135406D01*
X133679751Y-107850784D01*
X133679912Y-107820224D01*
X133680911Y-107629411D01*
X135659977Y-107629411D01*
X135668945Y-107868274D01*
X135718030Y-108102211D01*
X135805829Y-108324533D01*
X135929832Y-108528883D01*
X135933329Y-108532913D01*
X136039684Y-108655476D01*
X136086493Y-108709419D01*
X136090619Y-108712802D01*
X136090623Y-108712806D01*
X136189629Y-108793985D01*
X136271333Y-108860978D01*
X136275969Y-108863617D01*
X136275972Y-108863619D01*
X136389386Y-108928178D01*
X136479066Y-108979227D01*
X136703753Y-109060784D01*
X136709002Y-109061733D01*
X136709005Y-109061734D01*
X136934885Y-109102580D01*
X136934893Y-109102581D01*
X136938969Y-109103318D01*
X136957359Y-109104185D01*
X136962544Y-109104430D01*
X136962551Y-109104430D01*
X136964032Y-109104500D01*
X137132012Y-109104500D01*
X137310175Y-109089383D01*
X137315339Y-109088043D01*
X137315343Y-109088042D01*
X137536375Y-109030673D01*
X137536380Y-109030671D01*
X137541540Y-109029332D01*
X137658636Y-108976584D01*
X137754619Y-108933347D01*
X137754622Y-108933346D01*
X137759480Y-108931157D01*
X137957762Y-108797666D01*
X138130718Y-108632674D01*
X138273402Y-108440900D01*
X138286149Y-108415830D01*
X138379314Y-108232586D01*
X138379314Y-108232585D01*
X138381733Y-108227828D01*
X138422361Y-108096984D01*
X138451032Y-108004651D01*
X138451033Y-108004645D01*
X138452616Y-107999548D01*
X138472184Y-107851911D01*
X138483323Y-107767873D01*
X138483323Y-107767869D01*
X138484023Y-107762589D01*
X138475055Y-107523726D01*
X138425970Y-107289789D01*
X138338171Y-107067467D01*
X138214168Y-106863117D01*
X138124103Y-106759326D01*
X138061007Y-106686614D01*
X138061005Y-106686612D01*
X138057507Y-106682581D01*
X138053381Y-106679198D01*
X138053377Y-106679194D01*
X137876795Y-106534407D01*
X137872667Y-106531022D01*
X137868031Y-106528383D01*
X137868028Y-106528381D01*
X137669577Y-106415416D01*
X137664934Y-106412773D01*
X137440247Y-106331216D01*
X137434998Y-106330267D01*
X137434995Y-106330266D01*
X137209115Y-106289420D01*
X137209107Y-106289419D01*
X137205031Y-106288682D01*
X137186641Y-106287815D01*
X137181456Y-106287570D01*
X137181449Y-106287570D01*
X137179968Y-106287500D01*
X137011988Y-106287500D01*
X136833825Y-106302617D01*
X136828661Y-106303957D01*
X136828657Y-106303958D01*
X136607625Y-106361327D01*
X136607620Y-106361329D01*
X136602460Y-106362668D01*
X136597594Y-106364860D01*
X136389381Y-106458653D01*
X136389378Y-106458654D01*
X136384520Y-106460843D01*
X136186238Y-106594334D01*
X136013282Y-106759326D01*
X135870598Y-106951100D01*
X135868182Y-106955851D01*
X135868180Y-106955855D01*
X135810934Y-107068450D01*
X135762267Y-107164172D01*
X135728126Y-107274124D01*
X135692968Y-107387349D01*
X135692967Y-107387355D01*
X135691384Y-107392452D01*
X135659977Y-107629411D01*
X133680911Y-107629411D01*
X133681235Y-107567583D01*
X133681235Y-107567576D01*
X133681257Y-107563297D01*
X133676048Y-107523726D01*
X133663685Y-107429824D01*
X133643732Y-107278266D01*
X133567871Y-107000964D01*
X133455077Y-106736524D01*
X133368195Y-106591354D01*
X133309643Y-106493521D01*
X133309640Y-106493517D01*
X133307439Y-106489839D01*
X133127687Y-106265472D01*
X132919149Y-106067577D01*
X132685683Y-105899814D01*
X132663843Y-105888250D01*
X132640654Y-105875972D01*
X132431608Y-105765288D01*
X132161627Y-105666489D01*
X131880736Y-105605245D01*
X131869381Y-105604351D01*
X131810132Y-105599688D01*
X131743790Y-105574402D01*
X131701651Y-105517264D01*
X131697092Y-105446414D01*
X131730923Y-105384981D01*
X133674300Y-103441604D01*
X135679787Y-103441604D01*
X135689567Y-103652899D01*
X135739125Y-103858534D01*
X135741607Y-103863992D01*
X135741608Y-103863996D01*
X135785053Y-103959546D01*
X135826674Y-104051087D01*
X135949054Y-104223611D01*
X136101850Y-104369881D01*
X136279548Y-104484620D01*
X136339646Y-104508840D01*
X136470168Y-104561442D01*
X136470171Y-104561443D01*
X136475737Y-104563686D01*
X136683337Y-104604228D01*
X136688899Y-104604500D01*
X136844846Y-104604500D01*
X137002566Y-104589452D01*
X137205534Y-104529908D01*
X137227428Y-104518632D01*
X137388249Y-104435804D01*
X137388252Y-104435802D01*
X137393580Y-104433058D01*
X137559920Y-104302396D01*
X137563852Y-104297865D01*
X137563855Y-104297862D01*
X137694621Y-104147167D01*
X137698552Y-104142637D01*
X137701552Y-104137451D01*
X137701555Y-104137447D01*
X137801467Y-103964742D01*
X137804473Y-103959546D01*
X137873861Y-103759729D01*
X137890219Y-103646909D01*
X137903352Y-103556336D01*
X137903352Y-103556333D01*
X137904213Y-103550396D01*
X137894433Y-103339101D01*
X137844875Y-103133466D01*
X137833890Y-103109304D01*
X137759806Y-102946368D01*
X137757326Y-102940913D01*
X137634946Y-102768389D01*
X137482150Y-102622119D01*
X137304452Y-102507380D01*
X137244354Y-102483160D01*
X137113832Y-102430558D01*
X137113829Y-102430557D01*
X137108263Y-102428314D01*
X136900663Y-102387772D01*
X136895101Y-102387500D01*
X136739154Y-102387500D01*
X136581434Y-102402548D01*
X136378466Y-102462092D01*
X136373139Y-102464836D01*
X136373138Y-102464836D01*
X136195751Y-102556196D01*
X136195748Y-102556198D01*
X136190420Y-102558942D01*
X136024080Y-102689604D01*
X136020148Y-102694135D01*
X136020145Y-102694138D01*
X135951474Y-102773275D01*
X135885448Y-102849363D01*
X135882448Y-102854549D01*
X135882445Y-102854553D01*
X135864044Y-102886361D01*
X135779527Y-103032454D01*
X135710139Y-103232271D01*
X135679787Y-103441604D01*
X133674300Y-103441604D01*
X146275500Y-90840405D01*
X146337812Y-90806379D01*
X146364595Y-90803500D01*
X146800200Y-90803500D01*
X146868321Y-90823502D01*
X146914814Y-90877158D01*
X146926200Y-90929500D01*
X146926200Y-91076133D01*
X146932955Y-91138315D01*
X146984085Y-91274704D01*
X147026526Y-91331333D01*
X147071439Y-91391260D01*
X147069290Y-91392871D01*
X147096628Y-91442936D01*
X147091563Y-91513751D01*
X147062602Y-91558814D01*
X142863747Y-95757669D01*
X142855461Y-95765209D01*
X142848982Y-95769321D01*
X142843557Y-95775098D01*
X142802357Y-95818972D01*
X142799602Y-95821814D01*
X142779865Y-95841551D01*
X142777385Y-95844748D01*
X142769682Y-95853768D01*
X142739414Y-95886000D01*
X142735595Y-95892946D01*
X142735593Y-95892949D01*
X142729652Y-95903755D01*
X142718801Y-95920274D01*
X142706386Y-95936280D01*
X142703241Y-95943549D01*
X142703238Y-95943553D01*
X142688826Y-95976858D01*
X142683609Y-95987508D01*
X142662305Y-96026261D01*
X142660334Y-96033936D01*
X142660334Y-96033937D01*
X142657267Y-96045883D01*
X142650863Y-96064587D01*
X142642819Y-96083176D01*
X142641580Y-96090999D01*
X142641577Y-96091009D01*
X142635901Y-96126845D01*
X142633495Y-96138465D01*
X142622500Y-96181291D01*
X142622500Y-96201545D01*
X142620949Y-96221255D01*
X142617780Y-96241264D01*
X142618526Y-96249156D01*
X142621941Y-96285282D01*
X142622500Y-96297140D01*
X142622500Y-111445406D01*
X142602498Y-111513527D01*
X142585595Y-111534501D01*
X127590140Y-126529955D01*
X127527828Y-126563981D01*
X127457013Y-126558916D01*
X127400177Y-126516369D01*
X127383853Y-126487142D01*
X127378377Y-126473275D01*
X127338171Y-126371467D01*
X127214168Y-126167117D01*
X127124103Y-126063326D01*
X127061007Y-125990614D01*
X127061005Y-125990612D01*
X127057507Y-125986581D01*
X127053381Y-125983198D01*
X127053377Y-125983194D01*
X126876795Y-125838407D01*
X126872667Y-125835022D01*
X126868031Y-125832383D01*
X126868028Y-125832381D01*
X126669577Y-125719416D01*
X126664934Y-125716773D01*
X126440247Y-125635216D01*
X126434998Y-125634267D01*
X126434995Y-125634266D01*
X126209115Y-125593420D01*
X126209107Y-125593419D01*
X126205031Y-125592682D01*
X126186641Y-125591815D01*
X126181456Y-125591570D01*
X126181449Y-125591570D01*
X126179968Y-125591500D01*
X126011988Y-125591500D01*
X125833825Y-125606617D01*
X125828661Y-125607957D01*
X125828657Y-125607958D01*
X125607625Y-125665327D01*
X125607620Y-125665329D01*
X125602460Y-125666668D01*
X125597594Y-125668860D01*
X125389381Y-125762653D01*
X125389378Y-125762654D01*
X125384520Y-125764843D01*
X125186238Y-125898334D01*
X125013282Y-126063326D01*
X124870598Y-126255100D01*
X124868182Y-126259851D01*
X124868180Y-126259855D01*
X124824368Y-126346027D01*
X124762267Y-126468172D01*
X124732437Y-126564241D01*
X124692968Y-126691349D01*
X124692967Y-126691355D01*
X124691384Y-126696452D01*
X124674676Y-126822508D01*
X124671667Y-126845216D01*
X124659977Y-126933411D01*
X124668945Y-127172274D01*
X124718030Y-127406211D01*
X124805829Y-127628533D01*
X124929832Y-127832883D01*
X124933329Y-127836913D01*
X125039684Y-127959476D01*
X125086493Y-128013419D01*
X125090619Y-128016802D01*
X125090623Y-128016806D01*
X125189629Y-128097985D01*
X125271333Y-128164978D01*
X125275969Y-128167617D01*
X125275972Y-128167619D01*
X125369071Y-128220614D01*
X125479066Y-128283227D01*
X125703753Y-128364784D01*
X125709002Y-128365733D01*
X125709005Y-128365734D01*
X125774702Y-128377614D01*
X125834922Y-128388503D01*
X125898395Y-128420307D01*
X125934598Y-128481380D01*
X125938500Y-128512492D01*
X125938500Y-129237185D01*
X125918498Y-129305306D01*
X125860720Y-129353593D01*
X125844075Y-129360488D01*
X125839498Y-129362384D01*
X125623624Y-129494672D01*
X125431102Y-129659102D01*
X125266672Y-129851624D01*
X125134384Y-130067498D01*
X125037495Y-130301409D01*
X124978391Y-130547597D01*
X124958526Y-130800000D01*
X124978391Y-131052403D01*
X125037495Y-131298591D01*
X125039388Y-131303162D01*
X125039389Y-131303164D01*
X125065208Y-131365495D01*
X125134384Y-131532502D01*
X125266672Y-131748376D01*
X125431102Y-131940898D01*
X125623624Y-132105328D01*
X125839498Y-132237616D01*
X125844068Y-132239509D01*
X125844072Y-132239511D01*
X126068836Y-132332611D01*
X126073409Y-132334505D01*
X126158032Y-132354821D01*
X126314784Y-132392454D01*
X126314790Y-132392455D01*
X126319597Y-132393609D01*
X126572000Y-132413474D01*
X126824403Y-132393609D01*
X126829210Y-132392455D01*
X126829216Y-132392454D01*
X126985968Y-132354821D01*
X127070591Y-132334505D01*
X127075164Y-132332611D01*
X127299928Y-132239511D01*
X127299932Y-132239509D01*
X127304502Y-132237616D01*
X127520376Y-132105328D01*
X127712898Y-131940898D01*
X127877328Y-131748376D01*
X128009616Y-131532502D01*
X128078793Y-131365495D01*
X128104611Y-131303164D01*
X128104612Y-131303162D01*
X128106505Y-131298591D01*
X128165609Y-131052403D01*
X128185474Y-130800000D01*
X128165609Y-130547597D01*
X128106505Y-130301409D01*
X128009616Y-130067498D01*
X127877328Y-129851624D01*
X127712898Y-129659102D01*
X127520376Y-129494672D01*
X127304502Y-129362384D01*
X127299925Y-129360488D01*
X127283280Y-129353593D01*
X127228000Y-129309044D01*
X127205500Y-129237185D01*
X127205500Y-128758594D01*
X127225502Y-128690473D01*
X127242405Y-128669499D01*
X129263167Y-126648737D01*
X129325479Y-126614711D01*
X129396294Y-126619776D01*
X129453130Y-126662323D01*
X129477941Y-126728843D01*
X129477005Y-126755585D01*
X129464249Y-126845216D01*
X129464227Y-126849505D01*
X129464226Y-126849512D01*
X129462765Y-127128417D01*
X129462743Y-127132703D01*
X129463302Y-127136947D01*
X129463302Y-127136951D01*
X129479810Y-127262340D01*
X129500268Y-127417734D01*
X129576129Y-127695036D01*
X129688923Y-127959476D01*
X129763473Y-128084040D01*
X129809888Y-128161593D01*
X129836561Y-128206161D01*
X130016313Y-128430528D01*
X130224851Y-128628423D01*
X130458317Y-128796186D01*
X130462112Y-128798195D01*
X130462113Y-128798196D01*
X130483869Y-128809715D01*
X130712392Y-128930712D01*
X130982373Y-129029511D01*
X131263264Y-129090755D01*
X131291841Y-129093004D01*
X131486282Y-129108307D01*
X131486291Y-129108307D01*
X131488739Y-129108500D01*
X131644271Y-129108500D01*
X131646407Y-129108354D01*
X131646418Y-129108354D01*
X131854548Y-129094165D01*
X131854554Y-129094164D01*
X131858825Y-129093873D01*
X131863020Y-129093004D01*
X131863022Y-129093004D01*
X131999584Y-129064723D01*
X132140342Y-129035574D01*
X132411343Y-128939607D01*
X132666812Y-128807750D01*
X132670313Y-128805289D01*
X132670317Y-128805287D01*
X132863523Y-128669499D01*
X132902023Y-128642441D01*
X132985521Y-128564850D01*
X133109479Y-128449661D01*
X133109481Y-128449658D01*
X133112622Y-128446740D01*
X133294713Y-128224268D01*
X133444927Y-127979142D01*
X133560483Y-127715898D01*
X133639244Y-127439406D01*
X133679751Y-127154784D01*
X133679845Y-127136951D01*
X133680911Y-126933411D01*
X135659977Y-126933411D01*
X135668945Y-127172274D01*
X135718030Y-127406211D01*
X135805829Y-127628533D01*
X135929832Y-127832883D01*
X135933329Y-127836913D01*
X136039684Y-127959476D01*
X136086493Y-128013419D01*
X136090619Y-128016802D01*
X136090623Y-128016806D01*
X136189629Y-128097985D01*
X136271333Y-128164978D01*
X136275969Y-128167617D01*
X136275972Y-128167619D01*
X136369071Y-128220614D01*
X136479066Y-128283227D01*
X136703753Y-128364784D01*
X136709002Y-128365733D01*
X136709005Y-128365734D01*
X136934885Y-128406580D01*
X136934893Y-128406581D01*
X136938969Y-128407318D01*
X136957359Y-128408185D01*
X136962544Y-128408430D01*
X136962551Y-128408430D01*
X136964032Y-128408500D01*
X137132012Y-128408500D01*
X137310175Y-128393383D01*
X137315339Y-128392043D01*
X137315343Y-128392042D01*
X137536375Y-128334673D01*
X137536380Y-128334671D01*
X137541540Y-128333332D01*
X137658636Y-128280584D01*
X137754619Y-128237347D01*
X137754622Y-128237346D01*
X137759480Y-128235157D01*
X137957762Y-128101666D01*
X138130718Y-127936674D01*
X138273402Y-127744900D01*
X138286149Y-127719830D01*
X138379314Y-127536586D01*
X138379314Y-127536585D01*
X138381733Y-127531828D01*
X138422361Y-127400984D01*
X138451032Y-127308651D01*
X138451033Y-127308645D01*
X138452616Y-127303548D01*
X138471770Y-127159036D01*
X138483323Y-127071873D01*
X138483323Y-127071869D01*
X138484023Y-127066589D01*
X138475055Y-126827726D01*
X138425970Y-126593789D01*
X138338171Y-126371467D01*
X138214168Y-126167117D01*
X138124103Y-126063326D01*
X138061007Y-125990614D01*
X138061005Y-125990612D01*
X138057507Y-125986581D01*
X138053381Y-125983198D01*
X138053377Y-125983194D01*
X137876795Y-125838407D01*
X137872667Y-125835022D01*
X137868031Y-125832383D01*
X137868028Y-125832381D01*
X137669577Y-125719416D01*
X137664934Y-125716773D01*
X137440247Y-125635216D01*
X137434998Y-125634267D01*
X137434995Y-125634266D01*
X137209115Y-125593420D01*
X137209107Y-125593419D01*
X137205031Y-125592682D01*
X137186641Y-125591815D01*
X137181456Y-125591570D01*
X137181449Y-125591570D01*
X137179968Y-125591500D01*
X137011988Y-125591500D01*
X136833825Y-125606617D01*
X136828661Y-125607957D01*
X136828657Y-125607958D01*
X136607625Y-125665327D01*
X136607620Y-125665329D01*
X136602460Y-125666668D01*
X136597594Y-125668860D01*
X136389381Y-125762653D01*
X136389378Y-125762654D01*
X136384520Y-125764843D01*
X136186238Y-125898334D01*
X136013282Y-126063326D01*
X135870598Y-126255100D01*
X135868182Y-126259851D01*
X135868180Y-126259855D01*
X135824368Y-126346027D01*
X135762267Y-126468172D01*
X135732437Y-126564241D01*
X135692968Y-126691349D01*
X135692967Y-126691355D01*
X135691384Y-126696452D01*
X135674676Y-126822508D01*
X135671667Y-126845216D01*
X135659977Y-126933411D01*
X133680911Y-126933411D01*
X133681235Y-126871583D01*
X133681235Y-126871576D01*
X133681257Y-126867297D01*
X133676048Y-126827726D01*
X133663029Y-126728843D01*
X133643732Y-126582266D01*
X133567871Y-126304964D01*
X133499191Y-126143946D01*
X133456763Y-126044476D01*
X133456761Y-126044472D01*
X133455077Y-126040524D01*
X133368195Y-125895354D01*
X133309643Y-125797521D01*
X133309640Y-125797517D01*
X133307439Y-125793839D01*
X133127687Y-125569472D01*
X132919149Y-125371577D01*
X132685683Y-125203814D01*
X132663843Y-125192250D01*
X132640654Y-125179972D01*
X132431608Y-125069288D01*
X132161627Y-124970489D01*
X131880736Y-124909245D01*
X131849685Y-124906801D01*
X131657718Y-124891693D01*
X131657709Y-124891693D01*
X131655261Y-124891500D01*
X131499729Y-124891500D01*
X131497593Y-124891646D01*
X131497582Y-124891646D01*
X131415439Y-124897246D01*
X131320663Y-124903708D01*
X131251341Y-124888386D01*
X131201306Y-124838017D01*
X131186446Y-124768593D01*
X131211478Y-124702156D01*
X131222999Y-124688905D01*
X133166300Y-122745604D01*
X135679787Y-122745604D01*
X135689567Y-122956899D01*
X135739125Y-123162534D01*
X135741607Y-123167992D01*
X135741608Y-123167996D01*
X135785053Y-123263546D01*
X135826674Y-123355087D01*
X135949054Y-123527611D01*
X136101850Y-123673881D01*
X136279548Y-123788620D01*
X136285114Y-123790863D01*
X136470168Y-123865442D01*
X136470171Y-123865443D01*
X136475737Y-123867686D01*
X136683337Y-123908228D01*
X136688899Y-123908500D01*
X136844846Y-123908500D01*
X137002566Y-123893452D01*
X137205534Y-123833908D01*
X137289111Y-123790863D01*
X137388249Y-123739804D01*
X137388252Y-123739802D01*
X137393580Y-123737058D01*
X137559920Y-123606396D01*
X137563852Y-123601865D01*
X137563855Y-123601862D01*
X137694621Y-123451167D01*
X137698552Y-123446637D01*
X137701552Y-123441451D01*
X137701555Y-123441447D01*
X137801467Y-123268742D01*
X137804473Y-123263546D01*
X137873861Y-123063729D01*
X137904213Y-122854396D01*
X137894433Y-122643101D01*
X137844875Y-122437466D01*
X137801525Y-122342122D01*
X137759806Y-122250368D01*
X137757326Y-122244913D01*
X137634946Y-122072389D01*
X137482150Y-121926119D01*
X137304452Y-121811380D01*
X137244354Y-121787160D01*
X137113832Y-121734558D01*
X137113829Y-121734557D01*
X137108263Y-121732314D01*
X136900663Y-121691772D01*
X136895101Y-121691500D01*
X136739154Y-121691500D01*
X136581434Y-121706548D01*
X136378466Y-121766092D01*
X136373139Y-121768836D01*
X136373138Y-121768836D01*
X136195751Y-121860196D01*
X136195748Y-121860198D01*
X136190420Y-121862942D01*
X136024080Y-121993604D01*
X136020148Y-121998135D01*
X136020145Y-121998138D01*
X135951474Y-122077275D01*
X135885448Y-122153363D01*
X135882448Y-122158549D01*
X135882445Y-122158553D01*
X135835312Y-122240026D01*
X135779527Y-122336454D01*
X135710139Y-122536271D01*
X135679787Y-122745604D01*
X133166300Y-122745604D01*
X143648253Y-112263652D01*
X143656539Y-112256112D01*
X143663018Y-112252000D01*
X143709644Y-112202348D01*
X143712398Y-112199507D01*
X143732135Y-112179770D01*
X143734615Y-112176573D01*
X143742320Y-112167551D01*
X143748500Y-112160970D01*
X143772586Y-112135321D01*
X143776405Y-112128375D01*
X143776407Y-112128372D01*
X143782348Y-112117566D01*
X143793199Y-112101047D01*
X143800758Y-112091301D01*
X143805614Y-112085041D01*
X143808759Y-112077772D01*
X143808762Y-112077768D01*
X143823174Y-112044463D01*
X143828391Y-112033813D01*
X143849695Y-111995060D01*
X143854733Y-111975437D01*
X143861137Y-111956734D01*
X143866033Y-111945420D01*
X143866033Y-111945419D01*
X143869181Y-111938145D01*
X143870420Y-111930322D01*
X143870423Y-111930312D01*
X143876099Y-111894476D01*
X143878505Y-111882856D01*
X143887528Y-111847711D01*
X143887528Y-111847710D01*
X143889500Y-111840030D01*
X143889500Y-111819776D01*
X143891051Y-111800065D01*
X143892980Y-111787886D01*
X143894220Y-111780057D01*
X143890059Y-111736038D01*
X143889500Y-111724181D01*
X143889500Y-107629411D01*
X144979977Y-107629411D01*
X144988945Y-107868274D01*
X145038030Y-108102211D01*
X145125829Y-108324533D01*
X145249832Y-108528883D01*
X145253329Y-108532913D01*
X145359684Y-108655476D01*
X145406493Y-108709419D01*
X145410619Y-108712802D01*
X145410623Y-108712806D01*
X145509629Y-108793985D01*
X145591333Y-108860978D01*
X145595969Y-108863617D01*
X145595972Y-108863619D01*
X145709386Y-108928178D01*
X145799066Y-108979227D01*
X146023753Y-109060784D01*
X146029002Y-109061733D01*
X146029005Y-109061734D01*
X146254885Y-109102580D01*
X146254893Y-109102581D01*
X146258969Y-109103318D01*
X146277359Y-109104185D01*
X146282544Y-109104430D01*
X146282551Y-109104430D01*
X146284032Y-109104500D01*
X146452012Y-109104500D01*
X146630175Y-109089383D01*
X146635339Y-109088043D01*
X146635343Y-109088042D01*
X146856375Y-109030673D01*
X146856380Y-109030671D01*
X146861540Y-109029332D01*
X146978636Y-108976584D01*
X147074619Y-108933347D01*
X147074622Y-108933346D01*
X147079480Y-108931157D01*
X147277762Y-108797666D01*
X147450718Y-108632674D01*
X147593402Y-108440900D01*
X147606149Y-108415830D01*
X147699314Y-108232586D01*
X147699314Y-108232585D01*
X147701733Y-108227828D01*
X147742361Y-108096984D01*
X147771032Y-108004651D01*
X147771033Y-108004645D01*
X147772616Y-107999548D01*
X147792184Y-107851911D01*
X147803323Y-107767873D01*
X147803323Y-107767869D01*
X147804023Y-107762589D01*
X147795055Y-107523726D01*
X147745970Y-107289789D01*
X147658171Y-107067467D01*
X147534168Y-106863117D01*
X147444103Y-106759326D01*
X147381007Y-106686614D01*
X147381005Y-106686612D01*
X147377507Y-106682581D01*
X147373381Y-106679198D01*
X147373377Y-106679194D01*
X147196795Y-106534407D01*
X147192667Y-106531022D01*
X147188031Y-106528383D01*
X147188028Y-106528381D01*
X146989577Y-106415416D01*
X146984934Y-106412773D01*
X146760247Y-106331216D01*
X146754998Y-106330267D01*
X146754995Y-106330266D01*
X146529115Y-106289420D01*
X146529107Y-106289419D01*
X146525031Y-106288682D01*
X146506641Y-106287815D01*
X146501456Y-106287570D01*
X146501449Y-106287570D01*
X146499968Y-106287500D01*
X146331988Y-106287500D01*
X146153825Y-106302617D01*
X146148661Y-106303957D01*
X146148657Y-106303958D01*
X145927625Y-106361327D01*
X145927620Y-106361329D01*
X145922460Y-106362668D01*
X145917594Y-106364860D01*
X145709381Y-106458653D01*
X145709378Y-106458654D01*
X145704520Y-106460843D01*
X145506238Y-106594334D01*
X145333282Y-106759326D01*
X145190598Y-106951100D01*
X145188182Y-106955851D01*
X145188180Y-106955855D01*
X145130934Y-107068450D01*
X145082267Y-107164172D01*
X145048126Y-107274124D01*
X145012968Y-107387349D01*
X145012967Y-107387355D01*
X145011384Y-107392452D01*
X144979977Y-107629411D01*
X143889500Y-107629411D01*
X143889500Y-96575915D01*
X143909502Y-96507794D01*
X143926405Y-96486820D01*
X148058905Y-92354320D01*
X148121217Y-92320294D01*
X148192032Y-92325359D01*
X148248868Y-92367906D01*
X148273679Y-92434426D01*
X148274000Y-92443415D01*
X148274000Y-109165905D01*
X148253998Y-109234026D01*
X148237095Y-109255000D01*
X147549125Y-109942970D01*
X147486813Y-109976996D01*
X147411815Y-109970285D01*
X147395163Y-109963388D01*
X147395154Y-109963385D01*
X147390591Y-109961495D01*
X147327328Y-109946307D01*
X147149216Y-109903546D01*
X147149210Y-109903545D01*
X147144403Y-109902391D01*
X146892000Y-109882526D01*
X146639597Y-109902391D01*
X146634790Y-109903545D01*
X146634784Y-109903546D01*
X146478032Y-109941179D01*
X146393409Y-109961495D01*
X146388838Y-109963388D01*
X146388836Y-109963389D01*
X146164072Y-110056489D01*
X146164068Y-110056491D01*
X146159498Y-110058384D01*
X145943624Y-110190672D01*
X145751102Y-110355102D01*
X145586672Y-110547624D01*
X145454384Y-110763498D01*
X145357495Y-110997409D01*
X145298391Y-111243597D01*
X145278526Y-111496000D01*
X145298391Y-111748403D01*
X145299545Y-111753210D01*
X145299546Y-111753216D01*
X145330670Y-111882856D01*
X145357495Y-111994591D01*
X145359388Y-111999162D01*
X145359389Y-111999164D01*
X145442960Y-112200921D01*
X145454384Y-112228502D01*
X145586672Y-112444376D01*
X145751102Y-112636898D01*
X145943624Y-112801328D01*
X146159498Y-112933616D01*
X146164068Y-112935509D01*
X146164072Y-112935511D01*
X146388836Y-113028611D01*
X146393409Y-113030505D01*
X146478032Y-113050821D01*
X146634784Y-113088454D01*
X146634790Y-113088455D01*
X146639597Y-113089609D01*
X146892000Y-113109474D01*
X147144403Y-113089609D01*
X147149210Y-113088455D01*
X147149216Y-113088454D01*
X147305968Y-113050821D01*
X147390591Y-113030505D01*
X147395164Y-113028611D01*
X147619928Y-112935511D01*
X147619932Y-112935509D01*
X147624502Y-112933616D01*
X147840376Y-112801328D01*
X148032898Y-112636898D01*
X148197328Y-112444376D01*
X148329616Y-112228502D01*
X148341041Y-112200921D01*
X148424611Y-111999164D01*
X148424612Y-111999162D01*
X148426505Y-111994591D01*
X148453330Y-111882856D01*
X148484454Y-111753216D01*
X148484455Y-111753210D01*
X148485609Y-111748403D01*
X148505474Y-111496000D01*
X148485609Y-111243597D01*
X148426505Y-110997409D01*
X148417715Y-110976188D01*
X148410126Y-110905598D01*
X148445029Y-110838875D01*
X148693905Y-110589999D01*
X148756217Y-110555973D01*
X148827032Y-110561038D01*
X148883868Y-110603585D01*
X148908679Y-110670105D01*
X148909000Y-110679094D01*
X148909000Y-125337352D01*
X148888998Y-125405473D01*
X148872095Y-125426447D01*
X147870064Y-126428478D01*
X147807752Y-126462504D01*
X147736937Y-126457439D01*
X147680101Y-126414892D01*
X147663779Y-126385667D01*
X147658171Y-126371467D01*
X147534168Y-126167117D01*
X147444103Y-126063326D01*
X147381007Y-125990614D01*
X147381005Y-125990612D01*
X147377507Y-125986581D01*
X147373381Y-125983198D01*
X147373377Y-125983194D01*
X147196795Y-125838407D01*
X147192667Y-125835022D01*
X147188031Y-125832383D01*
X147188028Y-125832381D01*
X146989577Y-125719416D01*
X146984934Y-125716773D01*
X146760247Y-125635216D01*
X146754998Y-125634267D01*
X146754995Y-125634266D01*
X146529115Y-125593420D01*
X146529107Y-125593419D01*
X146525031Y-125592682D01*
X146506641Y-125591815D01*
X146501456Y-125591570D01*
X146501449Y-125591570D01*
X146499968Y-125591500D01*
X146331988Y-125591500D01*
X146153825Y-125606617D01*
X146148661Y-125607957D01*
X146148657Y-125607958D01*
X145927625Y-125665327D01*
X145927620Y-125665329D01*
X145922460Y-125666668D01*
X145917594Y-125668860D01*
X145709381Y-125762653D01*
X145709378Y-125762654D01*
X145704520Y-125764843D01*
X145506238Y-125898334D01*
X145333282Y-126063326D01*
X145190598Y-126255100D01*
X145188182Y-126259851D01*
X145188180Y-126259855D01*
X145144368Y-126346027D01*
X145082267Y-126468172D01*
X145052437Y-126564241D01*
X145012968Y-126691349D01*
X145012967Y-126691355D01*
X145011384Y-126696452D01*
X144994676Y-126822508D01*
X144991667Y-126845216D01*
X144979977Y-126933411D01*
X144988945Y-127172274D01*
X145038030Y-127406211D01*
X145125829Y-127628533D01*
X145249832Y-127832883D01*
X145253329Y-127836913D01*
X145359684Y-127959476D01*
X145406493Y-128013419D01*
X145410619Y-128016802D01*
X145410623Y-128016806D01*
X145509629Y-128097985D01*
X145591333Y-128164978D01*
X145595969Y-128167617D01*
X145595972Y-128167619D01*
X145689071Y-128220614D01*
X145799066Y-128283227D01*
X146023753Y-128364784D01*
X146029002Y-128365733D01*
X146029005Y-128365734D01*
X146154921Y-128388503D01*
X146218395Y-128420307D01*
X146254598Y-128481380D01*
X146258500Y-128512492D01*
X146258500Y-129237185D01*
X146238498Y-129305306D01*
X146180720Y-129353593D01*
X146164075Y-129360488D01*
X146159498Y-129362384D01*
X145943624Y-129494672D01*
X145751102Y-129659102D01*
X145586672Y-129851624D01*
X145454384Y-130067498D01*
X145357495Y-130301409D01*
X145298391Y-130547597D01*
X145278526Y-130800000D01*
X145298391Y-131052403D01*
X145357495Y-131298591D01*
X145359388Y-131303162D01*
X145359389Y-131303164D01*
X145385208Y-131365495D01*
X145454384Y-131532502D01*
X145586672Y-131748376D01*
X145751102Y-131940898D01*
X145943624Y-132105328D01*
X146159498Y-132237616D01*
X146164068Y-132239509D01*
X146164072Y-132239511D01*
X146388836Y-132332611D01*
X146393409Y-132334505D01*
X146478032Y-132354821D01*
X146634784Y-132392454D01*
X146634790Y-132392455D01*
X146639597Y-132393609D01*
X146892000Y-132413474D01*
X147144403Y-132393609D01*
X147149210Y-132392455D01*
X147149216Y-132392454D01*
X147305968Y-132354821D01*
X147390591Y-132334505D01*
X147395164Y-132332611D01*
X147619928Y-132239511D01*
X147619932Y-132239509D01*
X147624502Y-132237616D01*
X147840376Y-132105328D01*
X148032898Y-131940898D01*
X148197328Y-131748376D01*
X148329616Y-131532502D01*
X148398793Y-131365495D01*
X148424611Y-131303164D01*
X148424612Y-131303162D01*
X148426505Y-131298591D01*
X148485609Y-131052403D01*
X148505474Y-130800000D01*
X148485609Y-130547597D01*
X148426505Y-130301409D01*
X148329616Y-130067498D01*
X148197328Y-129851624D01*
X148032898Y-129659102D01*
X147840376Y-129494672D01*
X147624502Y-129362384D01*
X147619925Y-129360488D01*
X147603280Y-129353593D01*
X147548000Y-129309044D01*
X147525500Y-129237185D01*
X147525500Y-128617040D01*
X147545502Y-128548919D01*
X147562405Y-128527945D01*
X149606656Y-126483695D01*
X149668968Y-126449669D01*
X149739784Y-126454734D01*
X149796619Y-126497281D01*
X149821430Y-126563801D01*
X149820494Y-126590540D01*
X149784249Y-126845216D01*
X149784227Y-126849505D01*
X149784226Y-126849512D01*
X149782765Y-127128417D01*
X149782743Y-127132703D01*
X149783302Y-127136947D01*
X149783302Y-127136951D01*
X149799810Y-127262340D01*
X149820268Y-127417734D01*
X149896129Y-127695036D01*
X150008923Y-127959476D01*
X150083473Y-128084040D01*
X150129888Y-128161593D01*
X150156561Y-128206161D01*
X150336313Y-128430528D01*
X150544851Y-128628423D01*
X150778317Y-128796186D01*
X150782112Y-128798195D01*
X150782113Y-128798196D01*
X150803869Y-128809715D01*
X151032392Y-128930712D01*
X151302373Y-129029511D01*
X151583264Y-129090755D01*
X151611841Y-129093004D01*
X151806282Y-129108307D01*
X151806291Y-129108307D01*
X151808739Y-129108500D01*
X151964271Y-129108500D01*
X151966407Y-129108354D01*
X151966418Y-129108354D01*
X152174548Y-129094165D01*
X152174554Y-129094164D01*
X152178825Y-129093873D01*
X152183020Y-129093004D01*
X152183022Y-129093004D01*
X152319584Y-129064723D01*
X152460342Y-129035574D01*
X152731343Y-128939607D01*
X152986812Y-128807750D01*
X152990313Y-128805289D01*
X152990317Y-128805287D01*
X153183523Y-128669499D01*
X153222023Y-128642441D01*
X153305521Y-128564850D01*
X153429479Y-128449661D01*
X153429481Y-128449658D01*
X153432622Y-128446740D01*
X153614713Y-128224268D01*
X153764927Y-127979142D01*
X153880483Y-127715898D01*
X153959244Y-127439406D01*
X153999751Y-127154784D01*
X153999845Y-127136951D01*
X154000911Y-126933411D01*
X155979977Y-126933411D01*
X155988945Y-127172274D01*
X156038030Y-127406211D01*
X156125829Y-127628533D01*
X156249832Y-127832883D01*
X156253329Y-127836913D01*
X156359684Y-127959476D01*
X156406493Y-128013419D01*
X156410619Y-128016802D01*
X156410623Y-128016806D01*
X156509629Y-128097985D01*
X156591333Y-128164978D01*
X156595969Y-128167617D01*
X156595972Y-128167619D01*
X156689071Y-128220614D01*
X156799066Y-128283227D01*
X157023753Y-128364784D01*
X157029002Y-128365733D01*
X157029005Y-128365734D01*
X157254885Y-128406580D01*
X157254893Y-128406581D01*
X157258969Y-128407318D01*
X157277359Y-128408185D01*
X157282544Y-128408430D01*
X157282551Y-128408430D01*
X157284032Y-128408500D01*
X157452012Y-128408500D01*
X157630175Y-128393383D01*
X157635339Y-128392043D01*
X157635343Y-128392042D01*
X157856375Y-128334673D01*
X157856380Y-128334671D01*
X157861540Y-128333332D01*
X157978636Y-128280584D01*
X158074619Y-128237347D01*
X158074622Y-128237346D01*
X158079480Y-128235157D01*
X158277762Y-128101666D01*
X158450718Y-127936674D01*
X158593402Y-127744900D01*
X158606149Y-127719830D01*
X158699314Y-127536586D01*
X158699314Y-127536585D01*
X158701733Y-127531828D01*
X158742361Y-127400984D01*
X158771032Y-127308651D01*
X158771033Y-127308645D01*
X158772616Y-127303548D01*
X158791770Y-127159036D01*
X158803323Y-127071873D01*
X158803323Y-127071869D01*
X158804023Y-127066589D01*
X158795055Y-126827726D01*
X158745970Y-126593789D01*
X158658171Y-126371467D01*
X158534168Y-126167117D01*
X158444103Y-126063326D01*
X158381007Y-125990614D01*
X158381005Y-125990612D01*
X158377507Y-125986581D01*
X158373381Y-125983198D01*
X158373377Y-125983194D01*
X158196795Y-125838407D01*
X158192667Y-125835022D01*
X158188031Y-125832383D01*
X158188028Y-125832381D01*
X157989577Y-125719416D01*
X157984934Y-125716773D01*
X157760247Y-125635216D01*
X157754998Y-125634267D01*
X157754995Y-125634266D01*
X157529115Y-125593420D01*
X157529107Y-125593419D01*
X157525031Y-125592682D01*
X157506641Y-125591815D01*
X157501456Y-125591570D01*
X157501449Y-125591570D01*
X157499968Y-125591500D01*
X157331988Y-125591500D01*
X157153825Y-125606617D01*
X157148661Y-125607957D01*
X157148657Y-125607958D01*
X156927625Y-125665327D01*
X156927620Y-125665329D01*
X156922460Y-125666668D01*
X156917594Y-125668860D01*
X156709381Y-125762653D01*
X156709378Y-125762654D01*
X156704520Y-125764843D01*
X156506238Y-125898334D01*
X156333282Y-126063326D01*
X156190598Y-126255100D01*
X156188182Y-126259851D01*
X156188180Y-126259855D01*
X156144368Y-126346027D01*
X156082267Y-126468172D01*
X156052437Y-126564241D01*
X156012968Y-126691349D01*
X156012967Y-126691355D01*
X156011384Y-126696452D01*
X155994676Y-126822508D01*
X155991667Y-126845216D01*
X155979977Y-126933411D01*
X154000911Y-126933411D01*
X154001235Y-126871583D01*
X154001235Y-126871576D01*
X154001257Y-126867297D01*
X153996048Y-126827726D01*
X153983029Y-126728843D01*
X153963732Y-126582266D01*
X153887871Y-126304964D01*
X153819191Y-126143946D01*
X153776763Y-126044476D01*
X153776761Y-126044472D01*
X153775077Y-126040524D01*
X153688195Y-125895354D01*
X153629643Y-125797521D01*
X153629640Y-125797517D01*
X153627439Y-125793839D01*
X153447687Y-125569472D01*
X153239149Y-125371577D01*
X153005683Y-125203814D01*
X152983843Y-125192250D01*
X152960654Y-125179972D01*
X152751608Y-125069288D01*
X152481627Y-124970489D01*
X152200736Y-124909245D01*
X152169685Y-124906801D01*
X151977718Y-124891693D01*
X151977709Y-124891693D01*
X151975261Y-124891500D01*
X151819729Y-124891500D01*
X151817593Y-124891646D01*
X151817582Y-124891646D01*
X151609452Y-124905835D01*
X151609446Y-124905836D01*
X151605175Y-124906127D01*
X151600980Y-124906996D01*
X151600978Y-124906996D01*
X151464417Y-124935276D01*
X151323658Y-124964426D01*
X151052657Y-125060393D01*
X150797188Y-125192250D01*
X150793687Y-125194711D01*
X150793683Y-125194713D01*
X150783594Y-125201804D01*
X150561977Y-125357559D01*
X150546892Y-125371577D01*
X150387771Y-125519441D01*
X150324254Y-125551160D01*
X150253671Y-125543504D01*
X150198433Y-125498903D01*
X150176000Y-125427141D01*
X150176000Y-122745604D01*
X155999787Y-122745604D01*
X156009567Y-122956899D01*
X156059125Y-123162534D01*
X156061607Y-123167992D01*
X156061608Y-123167996D01*
X156105053Y-123263546D01*
X156146674Y-123355087D01*
X156269054Y-123527611D01*
X156421850Y-123673881D01*
X156599548Y-123788620D01*
X156605114Y-123790863D01*
X156790168Y-123865442D01*
X156790171Y-123865443D01*
X156795737Y-123867686D01*
X157003337Y-123908228D01*
X157008899Y-123908500D01*
X157164846Y-123908500D01*
X157322566Y-123893452D01*
X157525534Y-123833908D01*
X157609111Y-123790863D01*
X157708249Y-123739804D01*
X157708252Y-123739802D01*
X157713580Y-123737058D01*
X157879920Y-123606396D01*
X157883852Y-123601865D01*
X157883855Y-123601862D01*
X158014621Y-123451167D01*
X158018552Y-123446637D01*
X158021552Y-123441451D01*
X158021555Y-123441447D01*
X158121467Y-123268742D01*
X158124473Y-123263546D01*
X158193861Y-123063729D01*
X158224213Y-122854396D01*
X158214433Y-122643101D01*
X158164875Y-122437466D01*
X158121525Y-122342122D01*
X158079806Y-122250368D01*
X158077326Y-122244913D01*
X157954946Y-122072389D01*
X157802150Y-121926119D01*
X157624452Y-121811380D01*
X157564354Y-121787160D01*
X157433832Y-121734558D01*
X157433829Y-121734557D01*
X157428263Y-121732314D01*
X157220663Y-121691772D01*
X157215101Y-121691500D01*
X157059154Y-121691500D01*
X156901434Y-121706548D01*
X156698466Y-121766092D01*
X156693139Y-121768836D01*
X156693138Y-121768836D01*
X156515751Y-121860196D01*
X156515748Y-121860198D01*
X156510420Y-121862942D01*
X156344080Y-121993604D01*
X156340148Y-121998135D01*
X156340145Y-121998138D01*
X156271474Y-122077275D01*
X156205448Y-122153363D01*
X156202448Y-122158549D01*
X156202445Y-122158553D01*
X156155312Y-122240026D01*
X156099527Y-122336454D01*
X156030139Y-122536271D01*
X155999787Y-122745604D01*
X150176000Y-122745604D01*
X150176000Y-114289869D01*
X150196002Y-114221748D01*
X150249658Y-114175255D01*
X150319932Y-114165151D01*
X150384512Y-114194645D01*
X150418409Y-114241651D01*
X150438382Y-114289869D01*
X150454384Y-114328502D01*
X150586672Y-114544376D01*
X150751102Y-114736898D01*
X150943624Y-114901328D01*
X151159498Y-115033616D01*
X151164068Y-115035509D01*
X151164072Y-115035511D01*
X151388836Y-115128611D01*
X151393409Y-115130505D01*
X151478032Y-115150821D01*
X151634784Y-115188454D01*
X151634790Y-115188455D01*
X151639597Y-115189609D01*
X151892000Y-115209474D01*
X152144403Y-115189609D01*
X152149210Y-115188455D01*
X152149216Y-115188454D01*
X152305968Y-115150821D01*
X152390591Y-115130505D01*
X152395164Y-115128611D01*
X152619928Y-115035511D01*
X152619932Y-115035509D01*
X152624502Y-115033616D01*
X152840376Y-114901328D01*
X153032898Y-114736898D01*
X153197328Y-114544376D01*
X153329616Y-114328502D01*
X153345619Y-114289869D01*
X153424611Y-114099164D01*
X153424612Y-114099162D01*
X153426505Y-114094591D01*
X153485609Y-113848403D01*
X153505474Y-113596000D01*
X153485609Y-113343597D01*
X153426505Y-113097409D01*
X153399271Y-113031660D01*
X153331511Y-112868072D01*
X153331509Y-112868068D01*
X153329616Y-112863498D01*
X153197328Y-112647624D01*
X153032898Y-112455102D01*
X152840376Y-112290672D01*
X152624502Y-112158384D01*
X152619932Y-112156491D01*
X152619928Y-112156489D01*
X152395164Y-112063389D01*
X152395162Y-112063388D01*
X152390591Y-112061495D01*
X152296938Y-112039011D01*
X152149216Y-112003546D01*
X152149210Y-112003545D01*
X152144403Y-112002391D01*
X151892000Y-111982526D01*
X151639597Y-112002391D01*
X151634790Y-112003545D01*
X151634784Y-112003546D01*
X151487062Y-112039011D01*
X151393409Y-112061495D01*
X151388838Y-112063388D01*
X151388836Y-112063389D01*
X151164072Y-112156489D01*
X151164068Y-112156491D01*
X151159498Y-112158384D01*
X150943624Y-112290672D01*
X150751102Y-112455102D01*
X150586672Y-112647624D01*
X150454384Y-112863498D01*
X150452491Y-112868068D01*
X150452489Y-112868072D01*
X150418409Y-112950349D01*
X150373861Y-113005630D01*
X150306497Y-113028051D01*
X150237706Y-113010493D01*
X150189328Y-112958531D01*
X150176000Y-112902131D01*
X150176000Y-109267670D01*
X150196002Y-109199549D01*
X150249658Y-109153056D01*
X150319932Y-109142952D01*
X150388733Y-109176273D01*
X150536712Y-109316699D01*
X150544851Y-109324423D01*
X150778317Y-109492186D01*
X150782112Y-109494195D01*
X150782113Y-109494196D01*
X150803869Y-109505715D01*
X151032392Y-109626712D01*
X151056699Y-109635607D01*
X151294700Y-109722703D01*
X151302373Y-109725511D01*
X151583264Y-109786755D01*
X151611841Y-109789004D01*
X151806282Y-109804307D01*
X151806291Y-109804307D01*
X151808739Y-109804500D01*
X151964271Y-109804500D01*
X151966407Y-109804354D01*
X151966418Y-109804354D01*
X152174548Y-109790165D01*
X152174554Y-109790164D01*
X152178825Y-109789873D01*
X152183020Y-109789004D01*
X152183022Y-109789004D01*
X152319583Y-109760724D01*
X152460342Y-109731574D01*
X152731343Y-109635607D01*
X152986812Y-109503750D01*
X152990313Y-109501289D01*
X152990317Y-109501287D01*
X153142205Y-109394538D01*
X153222023Y-109338441D01*
X153341760Y-109227174D01*
X153429479Y-109145661D01*
X153429481Y-109145658D01*
X153432622Y-109142740D01*
X153614713Y-108920268D01*
X153764927Y-108675142D01*
X153880483Y-108411898D01*
X153959244Y-108135406D01*
X153999751Y-107850784D01*
X153999912Y-107820224D01*
X154000911Y-107629411D01*
X155979977Y-107629411D01*
X155988945Y-107868274D01*
X156038030Y-108102211D01*
X156125829Y-108324533D01*
X156249832Y-108528883D01*
X156253329Y-108532913D01*
X156359684Y-108655476D01*
X156406493Y-108709419D01*
X156410619Y-108712802D01*
X156410623Y-108712806D01*
X156509629Y-108793985D01*
X156591333Y-108860978D01*
X156595969Y-108863617D01*
X156595972Y-108863619D01*
X156709386Y-108928178D01*
X156799066Y-108979227D01*
X157023753Y-109060784D01*
X157029002Y-109061733D01*
X157029005Y-109061734D01*
X157254885Y-109102580D01*
X157254893Y-109102581D01*
X157258969Y-109103318D01*
X157277359Y-109104185D01*
X157282544Y-109104430D01*
X157282551Y-109104430D01*
X157284032Y-109104500D01*
X157452012Y-109104500D01*
X157630175Y-109089383D01*
X157635339Y-109088043D01*
X157635343Y-109088042D01*
X157856375Y-109030673D01*
X157856380Y-109030671D01*
X157861540Y-109029332D01*
X157978636Y-108976584D01*
X158074619Y-108933347D01*
X158074622Y-108933346D01*
X158079480Y-108931157D01*
X158277762Y-108797666D01*
X158450718Y-108632674D01*
X158593402Y-108440900D01*
X158606149Y-108415830D01*
X158699314Y-108232586D01*
X158699314Y-108232585D01*
X158701733Y-108227828D01*
X158742361Y-108096984D01*
X158771032Y-108004651D01*
X158771033Y-108004645D01*
X158772616Y-107999548D01*
X158792184Y-107851911D01*
X158803323Y-107767873D01*
X158803323Y-107767869D01*
X158804023Y-107762589D01*
X158795055Y-107523726D01*
X158745970Y-107289789D01*
X158658171Y-107067467D01*
X158534168Y-106863117D01*
X158444103Y-106759326D01*
X158381007Y-106686614D01*
X158381005Y-106686612D01*
X158377507Y-106682581D01*
X158373381Y-106679198D01*
X158373377Y-106679194D01*
X158196795Y-106534407D01*
X158192667Y-106531022D01*
X158188031Y-106528383D01*
X158188028Y-106528381D01*
X157989577Y-106415416D01*
X157984934Y-106412773D01*
X157760247Y-106331216D01*
X157754998Y-106330267D01*
X157754995Y-106330266D01*
X157529115Y-106289420D01*
X157529107Y-106289419D01*
X157525031Y-106288682D01*
X157506641Y-106287815D01*
X157501456Y-106287570D01*
X157501449Y-106287570D01*
X157499968Y-106287500D01*
X157331988Y-106287500D01*
X157153825Y-106302617D01*
X157148661Y-106303957D01*
X157148657Y-106303958D01*
X156927625Y-106361327D01*
X156927620Y-106361329D01*
X156922460Y-106362668D01*
X156917594Y-106364860D01*
X156709381Y-106458653D01*
X156709378Y-106458654D01*
X156704520Y-106460843D01*
X156506238Y-106594334D01*
X156333282Y-106759326D01*
X156190598Y-106951100D01*
X156188182Y-106955851D01*
X156188180Y-106955855D01*
X156130934Y-107068450D01*
X156082267Y-107164172D01*
X156048126Y-107274124D01*
X156012968Y-107387349D01*
X156012967Y-107387355D01*
X156011384Y-107392452D01*
X155979977Y-107629411D01*
X154000911Y-107629411D01*
X154001235Y-107567583D01*
X154001235Y-107567576D01*
X154001257Y-107563297D01*
X153996048Y-107523726D01*
X153983685Y-107429824D01*
X153963732Y-107278266D01*
X153887871Y-107000964D01*
X153775077Y-106736524D01*
X153688195Y-106591354D01*
X153629643Y-106493521D01*
X153629640Y-106493517D01*
X153627439Y-106489839D01*
X153447687Y-106265472D01*
X153239149Y-106067577D01*
X153005683Y-105899814D01*
X152983843Y-105888250D01*
X152960654Y-105875972D01*
X152751608Y-105765288D01*
X152481627Y-105666489D01*
X152200736Y-105605245D01*
X152169685Y-105602801D01*
X151977718Y-105587693D01*
X151977709Y-105587693D01*
X151975261Y-105587500D01*
X151819729Y-105587500D01*
X151817593Y-105587646D01*
X151817582Y-105587646D01*
X151609452Y-105601835D01*
X151609446Y-105601836D01*
X151605175Y-105602127D01*
X151600980Y-105602996D01*
X151600978Y-105602996D01*
X151464417Y-105631276D01*
X151323658Y-105660426D01*
X151052657Y-105756393D01*
X150797188Y-105888250D01*
X150793687Y-105890711D01*
X150793683Y-105890713D01*
X150783594Y-105897804D01*
X150561977Y-106053559D01*
X150546892Y-106067577D01*
X150387771Y-106215441D01*
X150324254Y-106247160D01*
X150253671Y-106239504D01*
X150198433Y-106194903D01*
X150176000Y-106123141D01*
X150176000Y-103441604D01*
X155999787Y-103441604D01*
X156009567Y-103652899D01*
X156059125Y-103858534D01*
X156061607Y-103863992D01*
X156061608Y-103863996D01*
X156105053Y-103959546D01*
X156146674Y-104051087D01*
X156269054Y-104223611D01*
X156421850Y-104369881D01*
X156599548Y-104484620D01*
X156659646Y-104508840D01*
X156790168Y-104561442D01*
X156790171Y-104561443D01*
X156795737Y-104563686D01*
X157003337Y-104604228D01*
X157008899Y-104604500D01*
X157164846Y-104604500D01*
X157322566Y-104589452D01*
X157525534Y-104529908D01*
X157547428Y-104518632D01*
X157708249Y-104435804D01*
X157708252Y-104435802D01*
X157713580Y-104433058D01*
X157879920Y-104302396D01*
X157883852Y-104297865D01*
X157883855Y-104297862D01*
X158014621Y-104147167D01*
X158018552Y-104142637D01*
X158021552Y-104137451D01*
X158021555Y-104137447D01*
X158121467Y-103964742D01*
X158124473Y-103959546D01*
X158193861Y-103759729D01*
X158210219Y-103646909D01*
X158223352Y-103556336D01*
X158223352Y-103556333D01*
X158224213Y-103550396D01*
X158214433Y-103339101D01*
X158164875Y-103133466D01*
X158153890Y-103109304D01*
X158079806Y-102946368D01*
X158077326Y-102940913D01*
X157954946Y-102768389D01*
X157802150Y-102622119D01*
X157624452Y-102507380D01*
X157564354Y-102483160D01*
X157433832Y-102430558D01*
X157433829Y-102430557D01*
X157428263Y-102428314D01*
X157220663Y-102387772D01*
X157215101Y-102387500D01*
X157059154Y-102387500D01*
X156901434Y-102402548D01*
X156698466Y-102462092D01*
X156693139Y-102464836D01*
X156693138Y-102464836D01*
X156515751Y-102556196D01*
X156515748Y-102556198D01*
X156510420Y-102558942D01*
X156344080Y-102689604D01*
X156340148Y-102694135D01*
X156340145Y-102694138D01*
X156271474Y-102773275D01*
X156205448Y-102849363D01*
X156202448Y-102854549D01*
X156202445Y-102854553D01*
X156184044Y-102886361D01*
X156099527Y-103032454D01*
X156030139Y-103232271D01*
X155999787Y-103441604D01*
X150176000Y-103441604D01*
X150176000Y-93972094D01*
X150196002Y-93903973D01*
X150249658Y-93857480D01*
X150319932Y-93847376D01*
X150384512Y-93876870D01*
X150391095Y-93882999D01*
X165560348Y-109052253D01*
X165567888Y-109060539D01*
X165572000Y-109067018D01*
X165577777Y-109072443D01*
X165621651Y-109113643D01*
X165624493Y-109116398D01*
X165644230Y-109136135D01*
X165647427Y-109138615D01*
X165656447Y-109146318D01*
X165688679Y-109176586D01*
X165695625Y-109180405D01*
X165695628Y-109180407D01*
X165706434Y-109186348D01*
X165722953Y-109197199D01*
X165738959Y-109209614D01*
X165746228Y-109212759D01*
X165746232Y-109212762D01*
X165779537Y-109227174D01*
X165790187Y-109232391D01*
X165828940Y-109253695D01*
X165836615Y-109255666D01*
X165836616Y-109255666D01*
X165848562Y-109258733D01*
X165867267Y-109265137D01*
X165885855Y-109273181D01*
X165891488Y-109274073D01*
X165950492Y-109311758D01*
X165980167Y-109376256D01*
X165981500Y-109394538D01*
X165981500Y-109610400D01*
X165981837Y-109613646D01*
X165981837Y-109613650D01*
X165989118Y-109683819D01*
X165992474Y-109716165D01*
X165994655Y-109722701D01*
X165994655Y-109722703D01*
X166021896Y-109804354D01*
X166048450Y-109883945D01*
X166141522Y-110034348D01*
X166266697Y-110159305D01*
X166272927Y-110163145D01*
X166272928Y-110163146D01*
X166410090Y-110247694D01*
X166417262Y-110252115D01*
X166497005Y-110278564D01*
X166578611Y-110305632D01*
X166578613Y-110305632D01*
X166585139Y-110307797D01*
X166591975Y-110308497D01*
X166591978Y-110308498D01*
X166635031Y-110312909D01*
X166689600Y-110318500D01*
X168590400Y-110318500D01*
X168593646Y-110318163D01*
X168593650Y-110318163D01*
X168689307Y-110308238D01*
X168689311Y-110308237D01*
X168696165Y-110307526D01*
X168702701Y-110305345D01*
X168702703Y-110305345D01*
X168834805Y-110261272D01*
X168863945Y-110251550D01*
X169014348Y-110158478D01*
X169139305Y-110033303D01*
X169151408Y-110013668D01*
X169228275Y-109888968D01*
X169228276Y-109888966D01*
X169232115Y-109882738D01*
X169264254Y-109785842D01*
X169285632Y-109721389D01*
X169285632Y-109721387D01*
X169287797Y-109714861D01*
X169298500Y-109610400D01*
X169298500Y-107709600D01*
X169298163Y-107706350D01*
X169288238Y-107610693D01*
X169288237Y-107610689D01*
X169287526Y-107603835D01*
X169275432Y-107567583D01*
X169233868Y-107443003D01*
X169231550Y-107436055D01*
X169138478Y-107285652D01*
X169013303Y-107160695D01*
X168870121Y-107072436D01*
X168868968Y-107071725D01*
X168868966Y-107071724D01*
X168862738Y-107067885D01*
X168702254Y-107014655D01*
X168701389Y-107014368D01*
X168701387Y-107014368D01*
X168694861Y-107012203D01*
X168688025Y-107011503D01*
X168688022Y-107011502D01*
X168644969Y-107007091D01*
X168590400Y-107001500D01*
X166689600Y-107001500D01*
X166686354Y-107001837D01*
X166686350Y-107001837D01*
X166590693Y-107011762D01*
X166590689Y-107011763D01*
X166583835Y-107012474D01*
X166577299Y-107014655D01*
X166577297Y-107014655D01*
X166445195Y-107058728D01*
X166416055Y-107068450D01*
X166265652Y-107161522D01*
X166260479Y-107166704D01*
X166198839Y-107228451D01*
X166140695Y-107286697D01*
X166047885Y-107437262D01*
X166034783Y-107476764D01*
X165994352Y-107535123D01*
X165928788Y-107562360D01*
X165858906Y-107549826D01*
X165826095Y-107526191D01*
X163008500Y-104708595D01*
X162974474Y-104646283D01*
X162979539Y-104575467D01*
X163022086Y-104518632D01*
X163088606Y-104493821D01*
X163097595Y-104493500D01*
X166023067Y-104493500D01*
X166091188Y-104513502D01*
X166139476Y-104571282D01*
X166152762Y-104603357D01*
X166157697Y-104615271D01*
X166294097Y-104837856D01*
X166463637Y-105036363D01*
X166662144Y-105205903D01*
X166884729Y-105342303D01*
X166889299Y-105344196D01*
X166889303Y-105344198D01*
X167121338Y-105440310D01*
X167125911Y-105442204D01*
X167214931Y-105463576D01*
X167374938Y-105501991D01*
X167374944Y-105501992D01*
X167379751Y-105503146D01*
X167640000Y-105523628D01*
X167900249Y-105503146D01*
X167905056Y-105501992D01*
X167905062Y-105501991D01*
X168065069Y-105463576D01*
X168154089Y-105442204D01*
X168158662Y-105440310D01*
X168390697Y-105344198D01*
X168390701Y-105344196D01*
X168395271Y-105342303D01*
X168617856Y-105205903D01*
X168816363Y-105036363D01*
X168985903Y-104837856D01*
X169122303Y-104615271D01*
X169126878Y-104604228D01*
X169220310Y-104378662D01*
X169220311Y-104378660D01*
X169222204Y-104374089D01*
X169243576Y-104285069D01*
X169281991Y-104125062D01*
X169281992Y-104125056D01*
X169283146Y-104120249D01*
X169303628Y-103860000D01*
X169283146Y-103599751D01*
X169281992Y-103594944D01*
X169281991Y-103594938D01*
X169223359Y-103350723D01*
X169222204Y-103345911D01*
X169172787Y-103226607D01*
X169124198Y-103109303D01*
X169124196Y-103109299D01*
X169122303Y-103104729D01*
X168985903Y-102882144D01*
X168816363Y-102683637D01*
X168617856Y-102514097D01*
X168395271Y-102377697D01*
X168390701Y-102375804D01*
X168390697Y-102375802D01*
X168158662Y-102279690D01*
X168158660Y-102279689D01*
X168154089Y-102277796D01*
X168065069Y-102256424D01*
X167905062Y-102218009D01*
X167905056Y-102218008D01*
X167900249Y-102216854D01*
X167640000Y-102196372D01*
X167379751Y-102216854D01*
X167374944Y-102218008D01*
X167374938Y-102218009D01*
X167214931Y-102256424D01*
X167125911Y-102277796D01*
X167121340Y-102279689D01*
X167121338Y-102279690D01*
X166889303Y-102375802D01*
X166889299Y-102375804D01*
X166884729Y-102377697D01*
X166662144Y-102514097D01*
X166463637Y-102683637D01*
X166294097Y-102882144D01*
X166157697Y-103104729D01*
X166155802Y-103109304D01*
X166139476Y-103148718D01*
X166094927Y-103203999D01*
X166023067Y-103226500D01*
X163102594Y-103226500D01*
X163034473Y-103206498D01*
X163013499Y-103189595D01*
X159732499Y-99908595D01*
X159698473Y-99846283D01*
X159703538Y-99775468D01*
X159746085Y-99718632D01*
X159812605Y-99693821D01*
X159821594Y-99693500D01*
X166023067Y-99693500D01*
X166091188Y-99713502D01*
X166139476Y-99771282D01*
X166157697Y-99815271D01*
X166294097Y-100037856D01*
X166463637Y-100236363D01*
X166662144Y-100405903D01*
X166884729Y-100542303D01*
X166889299Y-100544196D01*
X166889303Y-100544198D01*
X167121338Y-100640310D01*
X167125911Y-100642204D01*
X167214931Y-100663576D01*
X167374938Y-100701991D01*
X167374944Y-100701992D01*
X167379751Y-100703146D01*
X167640000Y-100723628D01*
X167900249Y-100703146D01*
X167905056Y-100701992D01*
X167905062Y-100701991D01*
X168065069Y-100663576D01*
X168154089Y-100642204D01*
X168158662Y-100640310D01*
X168390697Y-100544198D01*
X168390701Y-100544196D01*
X168395271Y-100542303D01*
X168617856Y-100405903D01*
X168816363Y-100236363D01*
X168985903Y-100037856D01*
X169122303Y-99815271D01*
X169162333Y-99718632D01*
X169220310Y-99578662D01*
X169220311Y-99578660D01*
X169222204Y-99574089D01*
X169243576Y-99485069D01*
X169281991Y-99325062D01*
X169281992Y-99325056D01*
X169283146Y-99320249D01*
X169303628Y-99060000D01*
X169283146Y-98799751D01*
X169281992Y-98794944D01*
X169281991Y-98794938D01*
X169223359Y-98550723D01*
X169222204Y-98545911D01*
X169220310Y-98541338D01*
X169124198Y-98309303D01*
X169124196Y-98309299D01*
X169122303Y-98304729D01*
X168985903Y-98082144D01*
X168816363Y-97883637D01*
X168617856Y-97714097D01*
X168395271Y-97577697D01*
X168390701Y-97575804D01*
X168390697Y-97575802D01*
X168158662Y-97479690D01*
X168158660Y-97479689D01*
X168154089Y-97477796D01*
X168065069Y-97456424D01*
X167905062Y-97418009D01*
X167905056Y-97418008D01*
X167900249Y-97416854D01*
X167640000Y-97396372D01*
X167379751Y-97416854D01*
X167374944Y-97418008D01*
X167374938Y-97418009D01*
X167214931Y-97456424D01*
X167125911Y-97477796D01*
X167121340Y-97479689D01*
X167121338Y-97479690D01*
X166889303Y-97575802D01*
X166889299Y-97575804D01*
X166884729Y-97577697D01*
X166662144Y-97714097D01*
X166463637Y-97883637D01*
X166294097Y-98082144D01*
X166157697Y-98304729D01*
X166155802Y-98309304D01*
X166139476Y-98348718D01*
X166094927Y-98403999D01*
X166023067Y-98426500D01*
X159543379Y-98426500D01*
X159475258Y-98406498D01*
X159454284Y-98389595D01*
X156173284Y-95108595D01*
X156139258Y-95046283D01*
X156144323Y-94975468D01*
X156186870Y-94918632D01*
X156253390Y-94893821D01*
X156262379Y-94893500D01*
X166023067Y-94893500D01*
X166091188Y-94913502D01*
X166139476Y-94971282D01*
X166157697Y-95015271D01*
X166294097Y-95237856D01*
X166463637Y-95436363D01*
X166662144Y-95605903D01*
X166884729Y-95742303D01*
X166889299Y-95744196D01*
X166889303Y-95744198D01*
X167076685Y-95821814D01*
X167125911Y-95842204D01*
X167174087Y-95853770D01*
X167374938Y-95901991D01*
X167374944Y-95901992D01*
X167379751Y-95903146D01*
X167640000Y-95923628D01*
X167900249Y-95903146D01*
X167905056Y-95901992D01*
X167905062Y-95901991D01*
X168105913Y-95853770D01*
X168154089Y-95842204D01*
X168203315Y-95821814D01*
X168390697Y-95744198D01*
X168390701Y-95744196D01*
X168395271Y-95742303D01*
X168617856Y-95605903D01*
X168816363Y-95436363D01*
X168985903Y-95237856D01*
X169122303Y-95015271D01*
X169128254Y-95000906D01*
X169220310Y-94778662D01*
X169220311Y-94778660D01*
X169222204Y-94774089D01*
X169267738Y-94584429D01*
X169281991Y-94525062D01*
X169281992Y-94525056D01*
X169283146Y-94520249D01*
X169303628Y-94260000D01*
X169283146Y-93999751D01*
X169281992Y-93994944D01*
X169281991Y-93994938D01*
X169223359Y-93750723D01*
X169222204Y-93745911D01*
X169218423Y-93736783D01*
X169124198Y-93509303D01*
X169124196Y-93509299D01*
X169122303Y-93504729D01*
X168985903Y-93282144D01*
X168816363Y-93083637D01*
X168617856Y-92914097D01*
X168395271Y-92777697D01*
X168390701Y-92775804D01*
X168390697Y-92775802D01*
X168158662Y-92679690D01*
X168158660Y-92679689D01*
X168154089Y-92677796D01*
X168013349Y-92644007D01*
X167905062Y-92618009D01*
X167905056Y-92618008D01*
X167900249Y-92616854D01*
X167640000Y-92596372D01*
X167379751Y-92616854D01*
X167374944Y-92618008D01*
X167374938Y-92618009D01*
X167266651Y-92644007D01*
X167125911Y-92677796D01*
X167121340Y-92679689D01*
X167121338Y-92679690D01*
X166889303Y-92775802D01*
X166889299Y-92775804D01*
X166884729Y-92777697D01*
X166662144Y-92914097D01*
X166463637Y-93083637D01*
X166294097Y-93282144D01*
X166157697Y-93504729D01*
X166155802Y-93509304D01*
X166139476Y-93548718D01*
X166094927Y-93603999D01*
X166023067Y-93626500D01*
X155379096Y-93626500D01*
X155310975Y-93606498D01*
X155290001Y-93589595D01*
X153452000Y-91751594D01*
X153417974Y-91689282D01*
X153423039Y-91618467D01*
X153465586Y-91561631D01*
X153532106Y-91536820D01*
X153541095Y-91536499D01*
X153603434Y-91536499D01*
X153611434Y-91535630D01*
X153634520Y-91533122D01*
X153656392Y-91530746D01*
X153683608Y-91530746D01*
X153705480Y-91533122D01*
X153728567Y-91535630D01*
X153736566Y-91536499D01*
X154238434Y-91536499D01*
X154246434Y-91535630D01*
X154269520Y-91533122D01*
X154291392Y-91530746D01*
X154318608Y-91530746D01*
X154340480Y-91533122D01*
X154363567Y-91535630D01*
X154371566Y-91536499D01*
X154873434Y-91536499D01*
X154876829Y-91536130D01*
X154876833Y-91536130D01*
X154928717Y-91530494D01*
X154955931Y-91530494D01*
X155003212Y-91535630D01*
X155010028Y-91535999D01*
X155036585Y-91535999D01*
X155051824Y-91531524D01*
X155054204Y-91528778D01*
X155086768Y-91469140D01*
X155100298Y-91457410D01*
X155181935Y-91396226D01*
X155248441Y-91371378D01*
X155317823Y-91386431D01*
X155333065Y-91396226D01*
X155416872Y-91459036D01*
X155459387Y-91515895D01*
X155462203Y-91524364D01*
X155464775Y-91533122D01*
X155466165Y-91534327D01*
X155473848Y-91535998D01*
X155504969Y-91535998D01*
X155511788Y-91535629D01*
X155559068Y-91530493D01*
X155586279Y-91530493D01*
X155641566Y-91536499D01*
X156143434Y-91536499D01*
X156151434Y-91535630D01*
X156174520Y-91533122D01*
X156196392Y-91530746D01*
X156223608Y-91530746D01*
X156245480Y-91533122D01*
X156268567Y-91535630D01*
X156276566Y-91536499D01*
X156778434Y-91536499D01*
X156786434Y-91535630D01*
X156809520Y-91533122D01*
X156831392Y-91530746D01*
X156858608Y-91530746D01*
X156880480Y-91533122D01*
X156903567Y-91535630D01*
X156911566Y-91536499D01*
X157413434Y-91536499D01*
X157421434Y-91535630D01*
X157444520Y-91533122D01*
X157466392Y-91530746D01*
X157493608Y-91530746D01*
X157515480Y-91533122D01*
X157538567Y-91535630D01*
X157546566Y-91536499D01*
X158048434Y-91536499D01*
X158056434Y-91535630D01*
X158079520Y-91533122D01*
X158101392Y-91530746D01*
X158128608Y-91530746D01*
X158150480Y-91533122D01*
X158173567Y-91535630D01*
X158181566Y-91536499D01*
X158683434Y-91536499D01*
X158691434Y-91535630D01*
X158714520Y-91533122D01*
X158736392Y-91530746D01*
X158763608Y-91530746D01*
X158785480Y-91533122D01*
X158808567Y-91535630D01*
X158816566Y-91536499D01*
X159318434Y-91536499D01*
X159326434Y-91535630D01*
X159349520Y-91533122D01*
X159371392Y-91530746D01*
X159398608Y-91530746D01*
X159420480Y-91533122D01*
X159443567Y-91535630D01*
X159451566Y-91536499D01*
X159953434Y-91536499D01*
X159961434Y-91535630D01*
X159984520Y-91533122D01*
X160006392Y-91530746D01*
X160033608Y-91530746D01*
X160055480Y-91533122D01*
X160078567Y-91535630D01*
X160086566Y-91536499D01*
X160588434Y-91536499D01*
X160596434Y-91535630D01*
X160619520Y-91533122D01*
X160641392Y-91530746D01*
X160668608Y-91530746D01*
X160690480Y-91533122D01*
X160713567Y-91535630D01*
X160721566Y-91536499D01*
X161223434Y-91536499D01*
X161231434Y-91535630D01*
X161254520Y-91533122D01*
X161276392Y-91530746D01*
X161303608Y-91530746D01*
X161325480Y-91533122D01*
X161348567Y-91535630D01*
X161356566Y-91536499D01*
X161858434Y-91536499D01*
X161861829Y-91536130D01*
X161861833Y-91536130D01*
X161913717Y-91530494D01*
X161940931Y-91530494D01*
X161988212Y-91535630D01*
X161995028Y-91535999D01*
X162021585Y-91535999D01*
X162036824Y-91531524D01*
X162039204Y-91528778D01*
X162071768Y-91469140D01*
X162085298Y-91457410D01*
X162166380Y-91396642D01*
X162166381Y-91396641D01*
X162173561Y-91391260D01*
X162218474Y-91331333D01*
X162275333Y-91288818D01*
X162346152Y-91283792D01*
X162408445Y-91317852D01*
X162442435Y-91380183D01*
X162445300Y-91406898D01*
X162445300Y-91517883D01*
X162449775Y-91533122D01*
X162451165Y-91534327D01*
X162458848Y-91535998D01*
X162489969Y-91535998D01*
X162496790Y-91535628D01*
X162547652Y-91530104D01*
X162562904Y-91526478D01*
X162683354Y-91481323D01*
X162698949Y-91472785D01*
X162801024Y-91396284D01*
X162813585Y-91383723D01*
X162890086Y-91281648D01*
X162898624Y-91266053D01*
X162943778Y-91145605D01*
X162947405Y-91130350D01*
X162952931Y-91079485D01*
X162953300Y-91072671D01*
X162953300Y-90390915D01*
X162948825Y-90375676D01*
X162947435Y-90374471D01*
X162939752Y-90372800D01*
X162445300Y-90372800D01*
X162445300Y-90367843D01*
X162409343Y-90367855D01*
X162349604Y-90329492D01*
X162320089Y-90264922D01*
X162318800Y-90246947D01*
X162318800Y-90093091D01*
X162338802Y-90024970D01*
X162392458Y-89978477D01*
X162445300Y-89970879D01*
X162445300Y-89967200D01*
X162935184Y-89967200D01*
X162950423Y-89962725D01*
X162951628Y-89961335D01*
X162953299Y-89953652D01*
X162953299Y-89267332D01*
X162952929Y-89260511D01*
X162947405Y-89209649D01*
X162943779Y-89194397D01*
X162898624Y-89073947D01*
X162890086Y-89058352D01*
X162813585Y-88956277D01*
X162801024Y-88943716D01*
X162698949Y-88867215D01*
X162683354Y-88858677D01*
X162562906Y-88813523D01*
X162547651Y-88809896D01*
X162496786Y-88804370D01*
X162489972Y-88804001D01*
X162463415Y-88804001D01*
X162448176Y-88808476D01*
X162446971Y-88809866D01*
X162445300Y-88817549D01*
X162445300Y-88933102D01*
X162425298Y-89001223D01*
X162371642Y-89047716D01*
X162301368Y-89057820D01*
X162236788Y-89028326D01*
X162218474Y-89008667D01*
X162178943Y-88955921D01*
X162178942Y-88955920D01*
X162173561Y-88948740D01*
X162083128Y-88880964D01*
X162040613Y-88824105D01*
X162037797Y-88815636D01*
X162035225Y-88806878D01*
X162033835Y-88805673D01*
X162026152Y-88804002D01*
X161995031Y-88804002D01*
X161988212Y-88804371D01*
X161940932Y-88809507D01*
X161913721Y-88809507D01*
X161858434Y-88803501D01*
X161356566Y-88803501D01*
X161353169Y-88803870D01*
X161348557Y-88804371D01*
X161310770Y-88808476D01*
X161303608Y-88809254D01*
X161276392Y-88809254D01*
X161269231Y-88808476D01*
X161231443Y-88804371D01*
X161226831Y-88803870D01*
X161223434Y-88803501D01*
X160976754Y-88803501D01*
X160908633Y-88783499D01*
X160874815Y-88751558D01*
X160871062Y-88746392D01*
X160864548Y-88736475D01*
X160846080Y-88705247D01*
X160846078Y-88705244D01*
X160842042Y-88698420D01*
X160827721Y-88684099D01*
X160814880Y-88669065D01*
X160807632Y-88659089D01*
X160802972Y-88652675D01*
X160768907Y-88624494D01*
X160760126Y-88616504D01*
X160143365Y-87999742D01*
X160135831Y-87991463D01*
X160131718Y-87984982D01*
X160082066Y-87938356D01*
X160079225Y-87935602D01*
X160059488Y-87915865D01*
X160056291Y-87913385D01*
X160047269Y-87905680D01*
X160033840Y-87893069D01*
X160015039Y-87875414D01*
X160008093Y-87871595D01*
X160008090Y-87871593D01*
X159997284Y-87865652D01*
X159980765Y-87854801D01*
X159980301Y-87854441D01*
X159964759Y-87842386D01*
X159957490Y-87839241D01*
X159957486Y-87839238D01*
X159924181Y-87824826D01*
X159913531Y-87819609D01*
X159874778Y-87798305D01*
X159855155Y-87793267D01*
X159836452Y-87786863D01*
X159825138Y-87781967D01*
X159825137Y-87781967D01*
X159817863Y-87778819D01*
X159810040Y-87777580D01*
X159810030Y-87777577D01*
X159774194Y-87771901D01*
X159762574Y-87769495D01*
X159727429Y-87760472D01*
X159727428Y-87760472D01*
X159719748Y-87758500D01*
X159699494Y-87758500D01*
X159679783Y-87756949D01*
X159667604Y-87755020D01*
X159659775Y-87753780D01*
X159630504Y-87756547D01*
X159615757Y-87757941D01*
X159603899Y-87758500D01*
X139036547Y-87758500D01*
X139025364Y-87757973D01*
X139017871Y-87756298D01*
X139009945Y-87756547D01*
X139009944Y-87756547D01*
X138949781Y-87758438D01*
X138945823Y-87758500D01*
X138917924Y-87758500D01*
X138913934Y-87759004D01*
X138902100Y-87759936D01*
X138857891Y-87761326D01*
X138850277Y-87763538D01*
X138850272Y-87763539D01*
X138838439Y-87766977D01*
X138819076Y-87770988D01*
X138798983Y-87773526D01*
X138791616Y-87776443D01*
X138791611Y-87776444D01*
X138757872Y-87789802D01*
X138746645Y-87793646D01*
X138704187Y-87805982D01*
X138697361Y-87810019D01*
X138686752Y-87816293D01*
X138669004Y-87824988D01*
X138650163Y-87832448D01*
X138643747Y-87837110D01*
X138643746Y-87837110D01*
X138614393Y-87858436D01*
X138604473Y-87864952D01*
X138573245Y-87883420D01*
X138573242Y-87883422D01*
X138566418Y-87887458D01*
X138552097Y-87901779D01*
X138537064Y-87914619D01*
X138520673Y-87926528D01*
X138511997Y-87937016D01*
X138492482Y-87960605D01*
X138484492Y-87969384D01*
X135066539Y-91387336D01*
X135004227Y-91421362D01*
X134933411Y-91416297D01*
X134914071Y-91407144D01*
X134878191Y-91386261D01*
X134873465Y-91384447D01*
X134873461Y-91384445D01*
X134656372Y-91301113D01*
X134656369Y-91301112D01*
X134651643Y-91299298D01*
X134414106Y-91249674D01*
X134409057Y-91249445D01*
X134409051Y-91249444D01*
X134298432Y-91244421D01*
X134171691Y-91238666D01*
X134166671Y-91239247D01*
X134166667Y-91239247D01*
X134067605Y-91250709D01*
X133930634Y-91266557D01*
X133925760Y-91267936D01*
X133925756Y-91267937D01*
X133702006Y-91331252D01*
X133702004Y-91331253D01*
X133697137Y-91332630D01*
X133692562Y-91334764D01*
X133692555Y-91334766D01*
X133481789Y-91433048D01*
X133481785Y-91433050D01*
X133477207Y-91435185D01*
X133473026Y-91438027D01*
X133473025Y-91438027D01*
X133280691Y-91568737D01*
X133280687Y-91568740D01*
X133276504Y-91571583D01*
X133100189Y-91738315D01*
X133055051Y-91797353D01*
X132997789Y-91839319D01*
X132926925Y-91843664D01*
X132860443Y-91804147D01*
X132738784Y-91666151D01*
X132738781Y-91666148D01*
X132735436Y-91662354D01*
X132547920Y-91508327D01*
X132338191Y-91386261D01*
X132333465Y-91384447D01*
X132333461Y-91384445D01*
X132116372Y-91301113D01*
X132116369Y-91301112D01*
X132111643Y-91299298D01*
X131874106Y-91249674D01*
X131869057Y-91249445D01*
X131869051Y-91249444D01*
X131758432Y-91244421D01*
X131631691Y-91238666D01*
X131626671Y-91239247D01*
X131626667Y-91239247D01*
X131527605Y-91250709D01*
X131390634Y-91266557D01*
X131385760Y-91267936D01*
X131385756Y-91267937D01*
X131162006Y-91331252D01*
X131162004Y-91331253D01*
X131157137Y-91332630D01*
X131152562Y-91334764D01*
X131152555Y-91334766D01*
X130941789Y-91433048D01*
X130941785Y-91433050D01*
X130937207Y-91435185D01*
X130933026Y-91438027D01*
X130933025Y-91438027D01*
X130740691Y-91568737D01*
X130740687Y-91568740D01*
X130736504Y-91571583D01*
X130560189Y-91738315D01*
X130515051Y-91797353D01*
X130457789Y-91839319D01*
X130386925Y-91843664D01*
X130320443Y-91804147D01*
X130198784Y-91666151D01*
X130198781Y-91666148D01*
X130195436Y-91662354D01*
X130007920Y-91508327D01*
X129798191Y-91386261D01*
X129793465Y-91384447D01*
X129793461Y-91384445D01*
X129576372Y-91301113D01*
X129576369Y-91301112D01*
X129571643Y-91299298D01*
X129334106Y-91249674D01*
X129329057Y-91249445D01*
X129329051Y-91249444D01*
X129218432Y-91244421D01*
X129091691Y-91238666D01*
X129086671Y-91239247D01*
X129086667Y-91239247D01*
X128987605Y-91250709D01*
X128850634Y-91266557D01*
X128845760Y-91267936D01*
X128845756Y-91267937D01*
X128622006Y-91331252D01*
X128622004Y-91331253D01*
X128617137Y-91332630D01*
X128612562Y-91334764D01*
X128612555Y-91334766D01*
X128401789Y-91433048D01*
X128401785Y-91433050D01*
X128397207Y-91435185D01*
X128393026Y-91438027D01*
X128393025Y-91438027D01*
X128200691Y-91568737D01*
X128200687Y-91568740D01*
X128196504Y-91571583D01*
X128020189Y-91738315D01*
X127975051Y-91797353D01*
X127917789Y-91839319D01*
X127846925Y-91843664D01*
X127780443Y-91804147D01*
X127658784Y-91666151D01*
X127658781Y-91666148D01*
X127655436Y-91662354D01*
X127467920Y-91508327D01*
X127258191Y-91386261D01*
X127253465Y-91384447D01*
X127253461Y-91384445D01*
X127036372Y-91301113D01*
X127036369Y-91301112D01*
X127031643Y-91299298D01*
X126794106Y-91249674D01*
X126789057Y-91249445D01*
X126789051Y-91249444D01*
X126678432Y-91244421D01*
X126551691Y-91238666D01*
X126546671Y-91239247D01*
X126546667Y-91239247D01*
X126447605Y-91250709D01*
X126310634Y-91266557D01*
X126305760Y-91267936D01*
X126305756Y-91267937D01*
X126082006Y-91331252D01*
X126082004Y-91331253D01*
X126077137Y-91332630D01*
X126072562Y-91334764D01*
X126072555Y-91334766D01*
X125861789Y-91433048D01*
X125861785Y-91433050D01*
X125857207Y-91435185D01*
X125853026Y-91438027D01*
X125853025Y-91438027D01*
X125660691Y-91568737D01*
X125660687Y-91568740D01*
X125656504Y-91571583D01*
X125480189Y-91738315D01*
X125435051Y-91797353D01*
X125377789Y-91839319D01*
X125306925Y-91843664D01*
X125240443Y-91804147D01*
X125118784Y-91666151D01*
X125118781Y-91666148D01*
X125115436Y-91662354D01*
X124927920Y-91508327D01*
X124718191Y-91386261D01*
X124713465Y-91384447D01*
X124713461Y-91384445D01*
X124496372Y-91301113D01*
X124496369Y-91301112D01*
X124491643Y-91299298D01*
X124254106Y-91249674D01*
X124249057Y-91249445D01*
X124249051Y-91249444D01*
X124138432Y-91244421D01*
X124011691Y-91238666D01*
X124006671Y-91239247D01*
X124006667Y-91239247D01*
X123907605Y-91250709D01*
X123770634Y-91266557D01*
X123765760Y-91267936D01*
X123765756Y-91267937D01*
X123542006Y-91331252D01*
X123542004Y-91331253D01*
X123537137Y-91332630D01*
X123532562Y-91334764D01*
X123532555Y-91334766D01*
X123321789Y-91433048D01*
X123321785Y-91433050D01*
X123317207Y-91435185D01*
X123313026Y-91438027D01*
X123313025Y-91438027D01*
X123120691Y-91568737D01*
X123120687Y-91568740D01*
X123116504Y-91571583D01*
X122940189Y-91738315D01*
X122937111Y-91742341D01*
X122937110Y-91742342D01*
X122795873Y-91927072D01*
X122795870Y-91927076D01*
X122792800Y-91931092D01*
X122678128Y-92144954D01*
X122599124Y-92374398D01*
X122557820Y-92613522D01*
X122556500Y-92642593D01*
X122556500Y-93560917D01*
X121412000Y-93560917D01*
X121412000Y-86231215D01*
X122293868Y-86231215D01*
X122306850Y-86429280D01*
X122355709Y-86621663D01*
X122438808Y-86801920D01*
X122553366Y-86964016D01*
X122695545Y-87102520D01*
X122860584Y-87212796D01*
X122865887Y-87215074D01*
X122865890Y-87215076D01*
X123005158Y-87274910D01*
X123042955Y-87291149D01*
X123114028Y-87307231D01*
X123230914Y-87333680D01*
X123230919Y-87333681D01*
X123236551Y-87334955D01*
X123242322Y-87335182D01*
X123242324Y-87335182D01*
X123301385Y-87337502D01*
X123434888Y-87342748D01*
X123533106Y-87328507D01*
X123625610Y-87315095D01*
X123625615Y-87315094D01*
X123631324Y-87314266D01*
X123819281Y-87250463D01*
X123992462Y-87153477D01*
X124145070Y-87026554D01*
X124271993Y-86873946D01*
X124368979Y-86700765D01*
X124432782Y-86512808D01*
X124433610Y-86507099D01*
X124433611Y-86507094D01*
X124460731Y-86320045D01*
X124461264Y-86316372D01*
X124462750Y-86259607D01*
X124460141Y-86231215D01*
X124833868Y-86231215D01*
X124846850Y-86429280D01*
X124895709Y-86621663D01*
X124978808Y-86801920D01*
X125093366Y-86964016D01*
X125235545Y-87102520D01*
X125400584Y-87212796D01*
X125405887Y-87215074D01*
X125405890Y-87215076D01*
X125545158Y-87274910D01*
X125582955Y-87291149D01*
X125654028Y-87307231D01*
X125770914Y-87333680D01*
X125770919Y-87333681D01*
X125776551Y-87334955D01*
X125782322Y-87335182D01*
X125782324Y-87335182D01*
X125841385Y-87337502D01*
X125974888Y-87342748D01*
X126073106Y-87328507D01*
X126165610Y-87315095D01*
X126165615Y-87315094D01*
X126171324Y-87314266D01*
X126359281Y-87250463D01*
X126532462Y-87153477D01*
X126685070Y-87026554D01*
X126811993Y-86873946D01*
X126908979Y-86700765D01*
X126972782Y-86512808D01*
X126973610Y-86507099D01*
X126973611Y-86507094D01*
X127000731Y-86320045D01*
X127001264Y-86316372D01*
X127002750Y-86259607D01*
X127001985Y-86251279D01*
X138852917Y-86251279D01*
X138870984Y-86449805D01*
X138872725Y-86455719D01*
X138872725Y-86455721D01*
X138887845Y-86507094D01*
X138927268Y-86641040D01*
X139019624Y-86817701D01*
X139144535Y-86973059D01*
X139297243Y-87101196D01*
X139471931Y-87197231D01*
X139477798Y-87199092D01*
X139477800Y-87199093D01*
X139656068Y-87255644D01*
X139656071Y-87255645D01*
X139661945Y-87257508D01*
X139817094Y-87274910D01*
X140940467Y-87274910D01*
X140943523Y-87274610D01*
X140943530Y-87274610D01*
X141002551Y-87268823D01*
X141088704Y-87260375D01*
X141094603Y-87258594D01*
X141094608Y-87258593D01*
X141273643Y-87204539D01*
X141279542Y-87202758D01*
X141379168Y-87149786D01*
X141450112Y-87112065D01*
X141450115Y-87112063D01*
X141455554Y-87109171D01*
X141460324Y-87105281D01*
X141460328Y-87105278D01*
X141605261Y-86987073D01*
X141605264Y-86987070D01*
X141610036Y-86983178D01*
X141737104Y-86829580D01*
X141831918Y-86654225D01*
X141890866Y-86463795D01*
X141891715Y-86455721D01*
X141911059Y-86271670D01*
X141911059Y-86271668D01*
X141911703Y-86265541D01*
X141893636Y-86067015D01*
X141891322Y-86059151D01*
X141839094Y-85881699D01*
X141837352Y-85875780D01*
X141744996Y-85699119D01*
X141620085Y-85543761D01*
X141467377Y-85415624D01*
X141292689Y-85319589D01*
X141286822Y-85317728D01*
X141286820Y-85317727D01*
X141108552Y-85261176D01*
X141108549Y-85261175D01*
X141102675Y-85259312D01*
X140947526Y-85241910D01*
X139824153Y-85241910D01*
X139821097Y-85242210D01*
X139821090Y-85242210D01*
X139769131Y-85247305D01*
X139675916Y-85256445D01*
X139670017Y-85258226D01*
X139670012Y-85258227D01*
X139543988Y-85296276D01*
X139485078Y-85314062D01*
X139431746Y-85342419D01*
X139314508Y-85404755D01*
X139314505Y-85404757D01*
X139309066Y-85407649D01*
X139304296Y-85411539D01*
X139304292Y-85411542D01*
X139159359Y-85529747D01*
X139159356Y-85529750D01*
X139154584Y-85533642D01*
X139150656Y-85538390D01*
X139150655Y-85538391D01*
X139149488Y-85539802D01*
X139027516Y-85687240D01*
X138932702Y-85862595D01*
X138873754Y-86053025D01*
X138873110Y-86059150D01*
X138873110Y-86059151D01*
X138855629Y-86225480D01*
X138852917Y-86251279D01*
X127001985Y-86251279D01*
X126984588Y-86061949D01*
X126980412Y-86047140D01*
X126968082Y-86003422D01*
X126930710Y-85870911D01*
X126842920Y-85692891D01*
X126724158Y-85533850D01*
X126719922Y-85529934D01*
X126582643Y-85403035D01*
X126582641Y-85403033D01*
X126578402Y-85399115D01*
X126488545Y-85342419D01*
X126415413Y-85296276D01*
X126415412Y-85296276D01*
X126410533Y-85293197D01*
X126405173Y-85291059D01*
X126405170Y-85291057D01*
X126293431Y-85246478D01*
X126226174Y-85219645D01*
X126220517Y-85218520D01*
X126220511Y-85218518D01*
X126037164Y-85182049D01*
X126037162Y-85182049D01*
X126031497Y-85180922D01*
X126025722Y-85180846D01*
X126025718Y-85180846D01*
X125926761Y-85179551D01*
X125833024Y-85178324D01*
X125827327Y-85179303D01*
X125827326Y-85179303D01*
X125643098Y-85210959D01*
X125637401Y-85211938D01*
X125451179Y-85280639D01*
X125280595Y-85382125D01*
X125131362Y-85512999D01*
X125127787Y-85517534D01*
X125127786Y-85517535D01*
X125115088Y-85533642D01*
X125008478Y-85668877D01*
X125005789Y-85673988D01*
X125005787Y-85673991D01*
X124992567Y-85699119D01*
X124916058Y-85844538D01*
X124857198Y-86034100D01*
X124833868Y-86231215D01*
X124460141Y-86231215D01*
X124444588Y-86061949D01*
X124440412Y-86047140D01*
X124428082Y-86003422D01*
X124390710Y-85870911D01*
X124302920Y-85692891D01*
X124184158Y-85533850D01*
X124179922Y-85529934D01*
X124042643Y-85403035D01*
X124042641Y-85403033D01*
X124038402Y-85399115D01*
X123948545Y-85342419D01*
X123875413Y-85296276D01*
X123875412Y-85296276D01*
X123870533Y-85293197D01*
X123865173Y-85291059D01*
X123865170Y-85291057D01*
X123753431Y-85246478D01*
X123686174Y-85219645D01*
X123680517Y-85218520D01*
X123680511Y-85218518D01*
X123497164Y-85182049D01*
X123497162Y-85182049D01*
X123491497Y-85180922D01*
X123485722Y-85180846D01*
X123485718Y-85180846D01*
X123386761Y-85179551D01*
X123293024Y-85178324D01*
X123287327Y-85179303D01*
X123287326Y-85179303D01*
X123103098Y-85210959D01*
X123097401Y-85211938D01*
X122911179Y-85280639D01*
X122740595Y-85382125D01*
X122591362Y-85512999D01*
X122587787Y-85517534D01*
X122587786Y-85517535D01*
X122575088Y-85533642D01*
X122468478Y-85668877D01*
X122465789Y-85673988D01*
X122465787Y-85673991D01*
X122452567Y-85699119D01*
X122376058Y-85844538D01*
X122317198Y-86034100D01*
X122293868Y-86231215D01*
X121412000Y-86231215D01*
X121412000Y-83691215D01*
X122293868Y-83691215D01*
X122306850Y-83889280D01*
X122355709Y-84081663D01*
X122438808Y-84261920D01*
X122553366Y-84424016D01*
X122695545Y-84562520D01*
X122860584Y-84672796D01*
X122865887Y-84675074D01*
X122865890Y-84675076D01*
X122981184Y-84724610D01*
X123042955Y-84751149D01*
X123114028Y-84767231D01*
X123230914Y-84793680D01*
X123230919Y-84793681D01*
X123236551Y-84794955D01*
X123242322Y-84795182D01*
X123242324Y-84795182D01*
X123296411Y-84797307D01*
X123434888Y-84802748D01*
X123533106Y-84788507D01*
X123625610Y-84775095D01*
X123625615Y-84775094D01*
X123631324Y-84774266D01*
X123819281Y-84710463D01*
X123992462Y-84613477D01*
X124145070Y-84486554D01*
X124271993Y-84333946D01*
X124368979Y-84160765D01*
X124432782Y-83972808D01*
X124433610Y-83967099D01*
X124433611Y-83967094D01*
X124460731Y-83780045D01*
X124461264Y-83776372D01*
X124462750Y-83719607D01*
X124460141Y-83691215D01*
X124833868Y-83691215D01*
X124846850Y-83889280D01*
X124895709Y-84081663D01*
X124978808Y-84261920D01*
X125093366Y-84424016D01*
X125235545Y-84562520D01*
X125400584Y-84672796D01*
X125405887Y-84675074D01*
X125405890Y-84675076D01*
X125521184Y-84724610D01*
X125582955Y-84751149D01*
X125654028Y-84767231D01*
X125770914Y-84793680D01*
X125770919Y-84793681D01*
X125776551Y-84794955D01*
X125782322Y-84795182D01*
X125782324Y-84795182D01*
X125836411Y-84797307D01*
X125974888Y-84802748D01*
X126073106Y-84788507D01*
X126165610Y-84775095D01*
X126165615Y-84775094D01*
X126171324Y-84774266D01*
X126359281Y-84710463D01*
X126532462Y-84613477D01*
X126685070Y-84486554D01*
X126811993Y-84333946D01*
X126908979Y-84160765D01*
X126972782Y-83972808D01*
X126973610Y-83967099D01*
X126973611Y-83967094D01*
X127000731Y-83780045D01*
X127001264Y-83776372D01*
X127002750Y-83719607D01*
X127001066Y-83701279D01*
X138852917Y-83701279D01*
X138870984Y-83899805D01*
X138872725Y-83905719D01*
X138872725Y-83905721D01*
X138890788Y-83967094D01*
X138927268Y-84091040D01*
X139019624Y-84267701D01*
X139144535Y-84423059D01*
X139297243Y-84551196D01*
X139471931Y-84647231D01*
X139477798Y-84649092D01*
X139477800Y-84649093D01*
X139656068Y-84705644D01*
X139656071Y-84705645D01*
X139661945Y-84707508D01*
X139817094Y-84724910D01*
X140940467Y-84724910D01*
X140943523Y-84724610D01*
X140943530Y-84724610D01*
X141002551Y-84718823D01*
X141088704Y-84710375D01*
X141094603Y-84708594D01*
X141094608Y-84708593D01*
X141128369Y-84698400D01*
X166081500Y-84698400D01*
X166081837Y-84701646D01*
X166081837Y-84701650D01*
X166089458Y-84775095D01*
X166092474Y-84804165D01*
X166148450Y-84971945D01*
X166241522Y-85122348D01*
X166366697Y-85247305D01*
X166372927Y-85251145D01*
X166372928Y-85251146D01*
X166510090Y-85335694D01*
X166517262Y-85340115D01*
X166597005Y-85366564D01*
X166678611Y-85393632D01*
X166678613Y-85393632D01*
X166685139Y-85395797D01*
X166691975Y-85396497D01*
X166691978Y-85396498D01*
X166735031Y-85400909D01*
X166789600Y-85406500D01*
X168490400Y-85406500D01*
X168493646Y-85406163D01*
X168493650Y-85406163D01*
X168589307Y-85396238D01*
X168589311Y-85396237D01*
X168596165Y-85395526D01*
X168602701Y-85393345D01*
X168602703Y-85393345D01*
X168734805Y-85349272D01*
X168763945Y-85339550D01*
X168914348Y-85246478D01*
X169039305Y-85121303D01*
X169132115Y-84970738D01*
X169187797Y-84802861D01*
X169198500Y-84698400D01*
X169198500Y-82997600D01*
X169197691Y-82989802D01*
X169188238Y-82898693D01*
X169188237Y-82898689D01*
X169187526Y-82891835D01*
X169178782Y-82865624D01*
X169133868Y-82731003D01*
X169131550Y-82724055D01*
X169038478Y-82573652D01*
X168913303Y-82448695D01*
X168907072Y-82444854D01*
X168768968Y-82359725D01*
X168768966Y-82359724D01*
X168762738Y-82355885D01*
X168602254Y-82302655D01*
X168601389Y-82302368D01*
X168601387Y-82302368D01*
X168594861Y-82300203D01*
X168588025Y-82299503D01*
X168588022Y-82299502D01*
X168544969Y-82295091D01*
X168490400Y-82289500D01*
X166789600Y-82289500D01*
X166786354Y-82289837D01*
X166786350Y-82289837D01*
X166690693Y-82299762D01*
X166690689Y-82299763D01*
X166683835Y-82300474D01*
X166677299Y-82302655D01*
X166677297Y-82302655D01*
X166545195Y-82346728D01*
X166516055Y-82356450D01*
X166365652Y-82449522D01*
X166240695Y-82574697D01*
X166236855Y-82580927D01*
X166236854Y-82580928D01*
X166158386Y-82708227D01*
X166147885Y-82725262D01*
X166092203Y-82893139D01*
X166081500Y-82997600D01*
X166081500Y-84698400D01*
X141128369Y-84698400D01*
X141273643Y-84654539D01*
X141279542Y-84652758D01*
X141367548Y-84605965D01*
X141450112Y-84562065D01*
X141450115Y-84562063D01*
X141455554Y-84559171D01*
X141460324Y-84555281D01*
X141460328Y-84555278D01*
X141605261Y-84437073D01*
X141605264Y-84437070D01*
X141610036Y-84433178D01*
X141614278Y-84428051D01*
X141733175Y-84284329D01*
X141737104Y-84279580D01*
X141831918Y-84104225D01*
X141890866Y-83913795D01*
X141891715Y-83905721D01*
X141911059Y-83721670D01*
X141911059Y-83721668D01*
X141911703Y-83715541D01*
X141893636Y-83517015D01*
X141891322Y-83509151D01*
X141839094Y-83331699D01*
X141837352Y-83325780D01*
X141744996Y-83149119D01*
X141620085Y-82993761D01*
X141467377Y-82865624D01*
X141292689Y-82769589D01*
X141286822Y-82767728D01*
X141286820Y-82767727D01*
X141108552Y-82711176D01*
X141108549Y-82711175D01*
X141102675Y-82709312D01*
X140947526Y-82691910D01*
X139824153Y-82691910D01*
X139821097Y-82692210D01*
X139821090Y-82692210D01*
X139762069Y-82697997D01*
X139675916Y-82706445D01*
X139670017Y-82708226D01*
X139670012Y-82708227D01*
X139491353Y-82762168D01*
X139485078Y-82764062D01*
X139397072Y-82810856D01*
X139314508Y-82854755D01*
X139314505Y-82854757D01*
X139309066Y-82857649D01*
X139304296Y-82861539D01*
X139304292Y-82861542D01*
X139159359Y-82979747D01*
X139159356Y-82979750D01*
X139154584Y-82983642D01*
X139150656Y-82988390D01*
X139150655Y-82988391D01*
X139140335Y-83000866D01*
X139027516Y-83137240D01*
X138932702Y-83312595D01*
X138873754Y-83503025D01*
X138873110Y-83509150D01*
X138873110Y-83509151D01*
X138854578Y-83685480D01*
X138852917Y-83701279D01*
X127001066Y-83701279D01*
X126984588Y-83521949D01*
X126930710Y-83330911D01*
X126842920Y-83152891D01*
X126724158Y-82993850D01*
X126719779Y-82989802D01*
X126582643Y-82863035D01*
X126582641Y-82863033D01*
X126578402Y-82859115D01*
X126546791Y-82839170D01*
X126415413Y-82756276D01*
X126415412Y-82756276D01*
X126410533Y-82753197D01*
X126405173Y-82751059D01*
X126405170Y-82751057D01*
X126297815Y-82708227D01*
X126226174Y-82679645D01*
X126220517Y-82678520D01*
X126220511Y-82678518D01*
X126037164Y-82642049D01*
X126037162Y-82642049D01*
X126031497Y-82640922D01*
X126025722Y-82640846D01*
X126025718Y-82640846D01*
X125926761Y-82639551D01*
X125833024Y-82638324D01*
X125827327Y-82639303D01*
X125827326Y-82639303D01*
X125643098Y-82670959D01*
X125637401Y-82671938D01*
X125451179Y-82740639D01*
X125280595Y-82842125D01*
X125131362Y-82972999D01*
X125127787Y-82977534D01*
X125127786Y-82977535D01*
X125114995Y-82993761D01*
X125008478Y-83128877D01*
X125005789Y-83133988D01*
X125005787Y-83133991D01*
X124959112Y-83222705D01*
X124916058Y-83304538D01*
X124857198Y-83494100D01*
X124833868Y-83691215D01*
X124460141Y-83691215D01*
X124444588Y-83521949D01*
X124390710Y-83330911D01*
X124302920Y-83152891D01*
X124184158Y-82993850D01*
X124179779Y-82989802D01*
X124042643Y-82863035D01*
X124042641Y-82863033D01*
X124038402Y-82859115D01*
X124006791Y-82839170D01*
X123875413Y-82756276D01*
X123875412Y-82756276D01*
X123870533Y-82753197D01*
X123865173Y-82751059D01*
X123865170Y-82751057D01*
X123757815Y-82708227D01*
X123686174Y-82679645D01*
X123680517Y-82678520D01*
X123680511Y-82678518D01*
X123497164Y-82642049D01*
X123497162Y-82642049D01*
X123491497Y-82640922D01*
X123485722Y-82640846D01*
X123485718Y-82640846D01*
X123386761Y-82639551D01*
X123293024Y-82638324D01*
X123287327Y-82639303D01*
X123287326Y-82639303D01*
X123103098Y-82670959D01*
X123097401Y-82671938D01*
X122911179Y-82740639D01*
X122740595Y-82842125D01*
X122591362Y-82972999D01*
X122587787Y-82977534D01*
X122587786Y-82977535D01*
X122574995Y-82993761D01*
X122468478Y-83128877D01*
X122465789Y-83133988D01*
X122465787Y-83133991D01*
X122419112Y-83222705D01*
X122376058Y-83304538D01*
X122317198Y-83494100D01*
X122293868Y-83691215D01*
X121412000Y-83691215D01*
X121412000Y-77396357D01*
X122556500Y-77396357D01*
X122571055Y-77577264D01*
X122572260Y-77582172D01*
X122572261Y-77582175D01*
X122616815Y-77763566D01*
X122628939Y-77812924D01*
X122630914Y-77817576D01*
X122630915Y-77817580D01*
X122648118Y-77858107D01*
X122723756Y-78036299D01*
X122726454Y-78040583D01*
X122825165Y-78197332D01*
X122853067Y-78241640D01*
X122856412Y-78245434D01*
X123010196Y-78419869D01*
X123010199Y-78419872D01*
X123013544Y-78423666D01*
X123201060Y-78577693D01*
X123410789Y-78699759D01*
X123415515Y-78701573D01*
X123415519Y-78701575D01*
X123632608Y-78784907D01*
X123632611Y-78784908D01*
X123637337Y-78786722D01*
X123874874Y-78836346D01*
X123879923Y-78836575D01*
X123879929Y-78836576D01*
X123990548Y-78841599D01*
X124117289Y-78847354D01*
X124122309Y-78846773D01*
X124122313Y-78846773D01*
X124230168Y-78834294D01*
X124358346Y-78819463D01*
X124363220Y-78818084D01*
X124363224Y-78818083D01*
X124586974Y-78754768D01*
X124586976Y-78754767D01*
X124591843Y-78753390D01*
X124596418Y-78751256D01*
X124596425Y-78751254D01*
X124807191Y-78652972D01*
X124807195Y-78652970D01*
X124811773Y-78650835D01*
X124815955Y-78647993D01*
X125008289Y-78517283D01*
X125008293Y-78517280D01*
X125012476Y-78514437D01*
X125188791Y-78347705D01*
X125234237Y-78288264D01*
X125291501Y-78246296D01*
X125362365Y-78241951D01*
X125428847Y-78281468D01*
X125550549Y-78419512D01*
X125557801Y-78426515D01*
X125737436Y-78574069D01*
X125745714Y-78579823D01*
X125946635Y-78696762D01*
X125955730Y-78701119D01*
X126172758Y-78784429D01*
X126182430Y-78787276D01*
X126332754Y-78818680D01*
X126346815Y-78817557D01*
X126350490Y-78807449D01*
X126350490Y-76832730D01*
X126370492Y-76764609D01*
X126424148Y-76718116D01*
X126476490Y-76706730D01*
X126732490Y-76706730D01*
X126800611Y-76726732D01*
X126847104Y-76780388D01*
X126858490Y-76832730D01*
X126858490Y-78805456D01*
X126862626Y-78819542D01*
X126875604Y-78821591D01*
X126893217Y-78819553D01*
X126903125Y-78817591D01*
X127126799Y-78754298D01*
X127136250Y-78750784D01*
X127346943Y-78652536D01*
X127355707Y-78647557D01*
X127547971Y-78516894D01*
X127555846Y-78510562D01*
X127724736Y-78350851D01*
X127731492Y-78343348D01*
X127773590Y-78288286D01*
X127830855Y-78246319D01*
X127901719Y-78241974D01*
X127968200Y-78281491D01*
X128090196Y-78419869D01*
X128090199Y-78419872D01*
X128093544Y-78423666D01*
X128281060Y-78577693D01*
X128490789Y-78699759D01*
X128495515Y-78701573D01*
X128495519Y-78701575D01*
X128712608Y-78784907D01*
X128712611Y-78784908D01*
X128717337Y-78786722D01*
X128954874Y-78836346D01*
X128959923Y-78836575D01*
X128959929Y-78836576D01*
X129070548Y-78841599D01*
X129197289Y-78847354D01*
X129202309Y-78846773D01*
X129202313Y-78846773D01*
X129310168Y-78834294D01*
X129438346Y-78819463D01*
X129443220Y-78818084D01*
X129443224Y-78818083D01*
X129666974Y-78754768D01*
X129666976Y-78754767D01*
X129671843Y-78753390D01*
X129676418Y-78751256D01*
X129676425Y-78751254D01*
X129887191Y-78652972D01*
X129887195Y-78652970D01*
X129891773Y-78650835D01*
X129895955Y-78647993D01*
X130088289Y-78517283D01*
X130088293Y-78517280D01*
X130092476Y-78514437D01*
X130268791Y-78347705D01*
X130313929Y-78288667D01*
X130371191Y-78246701D01*
X130442055Y-78242356D01*
X130508537Y-78281873D01*
X130630196Y-78419869D01*
X130630199Y-78419872D01*
X130633544Y-78423666D01*
X130821060Y-78577693D01*
X131030789Y-78699759D01*
X131035515Y-78701573D01*
X131035519Y-78701575D01*
X131252608Y-78784907D01*
X131252611Y-78784908D01*
X131257337Y-78786722D01*
X131494874Y-78836346D01*
X131499923Y-78836575D01*
X131499929Y-78836576D01*
X131610548Y-78841599D01*
X131737289Y-78847354D01*
X131742309Y-78846773D01*
X131742313Y-78846773D01*
X131850168Y-78834294D01*
X131978346Y-78819463D01*
X131983220Y-78818084D01*
X131983224Y-78818083D01*
X132206974Y-78754768D01*
X132206976Y-78754767D01*
X132211843Y-78753390D01*
X132216418Y-78751256D01*
X132216425Y-78751254D01*
X132427191Y-78652972D01*
X132427195Y-78652970D01*
X132431773Y-78650835D01*
X132435955Y-78647993D01*
X132628289Y-78517283D01*
X132628293Y-78517280D01*
X132632476Y-78514437D01*
X132808791Y-78347705D01*
X132853929Y-78288667D01*
X132911191Y-78246701D01*
X132982055Y-78242356D01*
X133048537Y-78281873D01*
X133170196Y-78419869D01*
X133170199Y-78419872D01*
X133173544Y-78423666D01*
X133361060Y-78577693D01*
X133570789Y-78699759D01*
X133575515Y-78701573D01*
X133575519Y-78701575D01*
X133792608Y-78784907D01*
X133792611Y-78784908D01*
X133797337Y-78786722D01*
X134034874Y-78836346D01*
X134039923Y-78836575D01*
X134039929Y-78836576D01*
X134150548Y-78841599D01*
X134277289Y-78847354D01*
X134282309Y-78846773D01*
X134282313Y-78846773D01*
X134390168Y-78834294D01*
X134518346Y-78819463D01*
X134523220Y-78818084D01*
X134523224Y-78818083D01*
X134746974Y-78754768D01*
X134746976Y-78754767D01*
X134751843Y-78753390D01*
X134756418Y-78751256D01*
X134756425Y-78751254D01*
X134967191Y-78652972D01*
X134967195Y-78652970D01*
X134971773Y-78650835D01*
X134975955Y-78647993D01*
X135168289Y-78517283D01*
X135168293Y-78517280D01*
X135172476Y-78514437D01*
X135348791Y-78347705D01*
X135393929Y-78288667D01*
X135451191Y-78246701D01*
X135522055Y-78242356D01*
X135588537Y-78281873D01*
X135710196Y-78419869D01*
X135710199Y-78419872D01*
X135713544Y-78423666D01*
X135901060Y-78577693D01*
X136110789Y-78699759D01*
X136115515Y-78701573D01*
X136115519Y-78701575D01*
X136332608Y-78784907D01*
X136332611Y-78784908D01*
X136337337Y-78786722D01*
X136574874Y-78836346D01*
X136579923Y-78836575D01*
X136579929Y-78836576D01*
X136690548Y-78841599D01*
X136817289Y-78847354D01*
X136822309Y-78846773D01*
X136822313Y-78846773D01*
X136930168Y-78834294D01*
X137058346Y-78819463D01*
X137063220Y-78818084D01*
X137063224Y-78818083D01*
X137286974Y-78754768D01*
X137286976Y-78754767D01*
X137291843Y-78753390D01*
X137296418Y-78751256D01*
X137296425Y-78751254D01*
X137507191Y-78652972D01*
X137507195Y-78652970D01*
X137511773Y-78650835D01*
X137515955Y-78647993D01*
X137708289Y-78517283D01*
X137708293Y-78517280D01*
X137712476Y-78514437D01*
X137888791Y-78347705D01*
X137933929Y-78288667D01*
X137991191Y-78246701D01*
X138062055Y-78242356D01*
X138128537Y-78281873D01*
X138250196Y-78419869D01*
X138250199Y-78419872D01*
X138253544Y-78423666D01*
X138441060Y-78577693D01*
X138650789Y-78699759D01*
X138655515Y-78701573D01*
X138655519Y-78701575D01*
X138872608Y-78784907D01*
X138872611Y-78784908D01*
X138877337Y-78786722D01*
X139114874Y-78836346D01*
X139119923Y-78836575D01*
X139119929Y-78836576D01*
X139230548Y-78841599D01*
X139357289Y-78847354D01*
X139362309Y-78846773D01*
X139362313Y-78846773D01*
X139470168Y-78834294D01*
X139598346Y-78819463D01*
X139603220Y-78818084D01*
X139603224Y-78818083D01*
X139826974Y-78754768D01*
X139826976Y-78754767D01*
X139831843Y-78753390D01*
X139836418Y-78751256D01*
X139836425Y-78751254D01*
X140047191Y-78652972D01*
X140047195Y-78652970D01*
X140051773Y-78650835D01*
X140055955Y-78647993D01*
X140248289Y-78517283D01*
X140248293Y-78517280D01*
X140252476Y-78514437D01*
X140428791Y-78347705D01*
X140432122Y-78343348D01*
X140573107Y-78158948D01*
X140573110Y-78158944D01*
X140576180Y-78154928D01*
X140690852Y-77941066D01*
X140769856Y-77711622D01*
X140811160Y-77472498D01*
X140812480Y-77443427D01*
X140812480Y-76525103D01*
X140797925Y-76344196D01*
X140766150Y-76214830D01*
X140741248Y-76113450D01*
X140740041Y-76108536D01*
X140645224Y-75885161D01*
X140597173Y-75808857D01*
X140518608Y-75684099D01*
X140518606Y-75684096D01*
X140515913Y-75679820D01*
X140474809Y-75633196D01*
X140358784Y-75501591D01*
X140358781Y-75501588D01*
X140355436Y-75497794D01*
X140341687Y-75486500D01*
X140256193Y-75416275D01*
X140167920Y-75343767D01*
X139958191Y-75221701D01*
X139953465Y-75219887D01*
X139953461Y-75219885D01*
X139736372Y-75136553D01*
X139736369Y-75136552D01*
X139731643Y-75134738D01*
X139494106Y-75085114D01*
X139489057Y-75084885D01*
X139489051Y-75084884D01*
X139378432Y-75079861D01*
X139251691Y-75074106D01*
X139246671Y-75074687D01*
X139246667Y-75074687D01*
X139147605Y-75086149D01*
X139010634Y-75101997D01*
X139005760Y-75103376D01*
X139005756Y-75103377D01*
X138782006Y-75166692D01*
X138782004Y-75166693D01*
X138777137Y-75168070D01*
X138772562Y-75170204D01*
X138772555Y-75170206D01*
X138561789Y-75268488D01*
X138561785Y-75268490D01*
X138557207Y-75270625D01*
X138553026Y-75273467D01*
X138553025Y-75273467D01*
X138360691Y-75404177D01*
X138360687Y-75404180D01*
X138356504Y-75407023D01*
X138180189Y-75573755D01*
X138135051Y-75632793D01*
X138077789Y-75674759D01*
X138006925Y-75679104D01*
X137940443Y-75639587D01*
X137818784Y-75501591D01*
X137818781Y-75501588D01*
X137815436Y-75497794D01*
X137801687Y-75486500D01*
X137716193Y-75416275D01*
X137627920Y-75343767D01*
X137418191Y-75221701D01*
X137413465Y-75219887D01*
X137413461Y-75219885D01*
X137196372Y-75136553D01*
X137196369Y-75136552D01*
X137191643Y-75134738D01*
X136954106Y-75085114D01*
X136949057Y-75084885D01*
X136949051Y-75084884D01*
X136838432Y-75079861D01*
X136711691Y-75074106D01*
X136706671Y-75074687D01*
X136706667Y-75074687D01*
X136607605Y-75086149D01*
X136470634Y-75101997D01*
X136465760Y-75103376D01*
X136465756Y-75103377D01*
X136242006Y-75166692D01*
X136242004Y-75166693D01*
X136237137Y-75168070D01*
X136232562Y-75170204D01*
X136232555Y-75170206D01*
X136021789Y-75268488D01*
X136021785Y-75268490D01*
X136017207Y-75270625D01*
X136013026Y-75273467D01*
X136013025Y-75273467D01*
X135820691Y-75404177D01*
X135820687Y-75404180D01*
X135816504Y-75407023D01*
X135640189Y-75573755D01*
X135595051Y-75632793D01*
X135537789Y-75674759D01*
X135466925Y-75679104D01*
X135400443Y-75639587D01*
X135278784Y-75501591D01*
X135278781Y-75501588D01*
X135275436Y-75497794D01*
X135261687Y-75486500D01*
X135176193Y-75416275D01*
X135087920Y-75343767D01*
X134878191Y-75221701D01*
X134873465Y-75219887D01*
X134873461Y-75219885D01*
X134656372Y-75136553D01*
X134656369Y-75136552D01*
X134651643Y-75134738D01*
X134414106Y-75085114D01*
X134409057Y-75084885D01*
X134409051Y-75084884D01*
X134298432Y-75079861D01*
X134171691Y-75074106D01*
X134166671Y-75074687D01*
X134166667Y-75074687D01*
X134067605Y-75086149D01*
X133930634Y-75101997D01*
X133925760Y-75103376D01*
X133925756Y-75103377D01*
X133702006Y-75166692D01*
X133702004Y-75166693D01*
X133697137Y-75168070D01*
X133692562Y-75170204D01*
X133692555Y-75170206D01*
X133481789Y-75268488D01*
X133481785Y-75268490D01*
X133477207Y-75270625D01*
X133473026Y-75273467D01*
X133473025Y-75273467D01*
X133280691Y-75404177D01*
X133280687Y-75404180D01*
X133276504Y-75407023D01*
X133100189Y-75573755D01*
X133055051Y-75632793D01*
X132997789Y-75674759D01*
X132926925Y-75679104D01*
X132860443Y-75639587D01*
X132738784Y-75501591D01*
X132738781Y-75501588D01*
X132735436Y-75497794D01*
X132721687Y-75486500D01*
X132636193Y-75416275D01*
X132547920Y-75343767D01*
X132338191Y-75221701D01*
X132333465Y-75219887D01*
X132333461Y-75219885D01*
X132116372Y-75136553D01*
X132116369Y-75136552D01*
X132111643Y-75134738D01*
X131874106Y-75085114D01*
X131869057Y-75084885D01*
X131869051Y-75084884D01*
X131758432Y-75079861D01*
X131631691Y-75074106D01*
X131626671Y-75074687D01*
X131626667Y-75074687D01*
X131527605Y-75086149D01*
X131390634Y-75101997D01*
X131385760Y-75103376D01*
X131385756Y-75103377D01*
X131162006Y-75166692D01*
X131162004Y-75166693D01*
X131157137Y-75168070D01*
X131152562Y-75170204D01*
X131152555Y-75170206D01*
X130941789Y-75268488D01*
X130941785Y-75268490D01*
X130937207Y-75270625D01*
X130933026Y-75273467D01*
X130933025Y-75273467D01*
X130740691Y-75404177D01*
X130740687Y-75404180D01*
X130736504Y-75407023D01*
X130560189Y-75573755D01*
X130515051Y-75632793D01*
X130457789Y-75674759D01*
X130386925Y-75679104D01*
X130320443Y-75639587D01*
X130198784Y-75501591D01*
X130198781Y-75501588D01*
X130195436Y-75497794D01*
X130181687Y-75486500D01*
X130096193Y-75416275D01*
X130007920Y-75343767D01*
X129798191Y-75221701D01*
X129793465Y-75219887D01*
X129793461Y-75219885D01*
X129576372Y-75136553D01*
X129576369Y-75136552D01*
X129571643Y-75134738D01*
X129334106Y-75085114D01*
X129329057Y-75084885D01*
X129329051Y-75084884D01*
X129218432Y-75079861D01*
X129091691Y-75074106D01*
X129086671Y-75074687D01*
X129086667Y-75074687D01*
X128987605Y-75086149D01*
X128850634Y-75101997D01*
X128845760Y-75103376D01*
X128845756Y-75103377D01*
X128622006Y-75166692D01*
X128622004Y-75166693D01*
X128617137Y-75168070D01*
X128612562Y-75170204D01*
X128612555Y-75170206D01*
X128401789Y-75268488D01*
X128401785Y-75268490D01*
X128397207Y-75270625D01*
X128393026Y-75273467D01*
X128393025Y-75273467D01*
X128200691Y-75404177D01*
X128200687Y-75404180D01*
X128196504Y-75407023D01*
X128020189Y-75573755D01*
X128017111Y-75577781D01*
X128017110Y-75577782D01*
X127974743Y-75633196D01*
X127917479Y-75675164D01*
X127846615Y-75679509D01*
X127780133Y-75639992D01*
X127658431Y-75501948D01*
X127651179Y-75494945D01*
X127471544Y-75347391D01*
X127463266Y-75341637D01*
X127262345Y-75224698D01*
X127253250Y-75220341D01*
X127035165Y-75136625D01*
X126978737Y-75093539D01*
X126954561Y-75026786D01*
X126970312Y-74957558D01*
X126991225Y-74929899D01*
X127082719Y-74838405D01*
X127145031Y-74804379D01*
X127171814Y-74801500D01*
X140909406Y-74801500D01*
X140977527Y-74821502D01*
X140998501Y-74838405D01*
X144276343Y-78116247D01*
X144283887Y-78124537D01*
X144288000Y-78131018D01*
X144293777Y-78136443D01*
X144337667Y-78177658D01*
X144340509Y-78180413D01*
X144360230Y-78200134D01*
X144363425Y-78202612D01*
X144372447Y-78210318D01*
X144404679Y-78240586D01*
X144411628Y-78244406D01*
X144422432Y-78250346D01*
X144438956Y-78261199D01*
X144454959Y-78273613D01*
X144495543Y-78291176D01*
X144506173Y-78296383D01*
X144521129Y-78304605D01*
X144549518Y-78325922D01*
X146889295Y-80665699D01*
X146923321Y-80728011D01*
X146926200Y-80754794D01*
X146926200Y-81424133D01*
X146932955Y-81486315D01*
X146984085Y-81622704D01*
X147071439Y-81739260D01*
X147187995Y-81826614D01*
X147324384Y-81877744D01*
X147386566Y-81884499D01*
X147888434Y-81884499D01*
X147941392Y-81878746D01*
X147968608Y-81878746D01*
X148021566Y-81884499D01*
X148523434Y-81884499D01*
X148576392Y-81878746D01*
X148603608Y-81878746D01*
X148656566Y-81884499D01*
X149158434Y-81884499D01*
X149211392Y-81878746D01*
X149238608Y-81878746D01*
X149291566Y-81884499D01*
X149793434Y-81884499D01*
X149846392Y-81878746D01*
X149873608Y-81878746D01*
X149926566Y-81884499D01*
X150428434Y-81884499D01*
X150481392Y-81878746D01*
X150508608Y-81878746D01*
X150561566Y-81884499D01*
X151063434Y-81884499D01*
X151116392Y-81878746D01*
X151143608Y-81878746D01*
X151196566Y-81884499D01*
X151698434Y-81884499D01*
X151751392Y-81878746D01*
X151778608Y-81878746D01*
X151831566Y-81884499D01*
X152333434Y-81884499D01*
X152386392Y-81878746D01*
X152413608Y-81878746D01*
X152466566Y-81884499D01*
X152968434Y-81884499D01*
X153021392Y-81878746D01*
X153048608Y-81878746D01*
X153101566Y-81884499D01*
X153603434Y-81884499D01*
X153656392Y-81878746D01*
X153683608Y-81878746D01*
X153736566Y-81884499D01*
X154238434Y-81884499D01*
X154291392Y-81878746D01*
X154318608Y-81878746D01*
X154371566Y-81884499D01*
X154873434Y-81884499D01*
X154926392Y-81878746D01*
X154953608Y-81878746D01*
X155006566Y-81884499D01*
X155508434Y-81884499D01*
X155561392Y-81878746D01*
X155588608Y-81878746D01*
X155641566Y-81884499D01*
X156143434Y-81884499D01*
X156196392Y-81878746D01*
X156223608Y-81878746D01*
X156276566Y-81884499D01*
X156778434Y-81884499D01*
X156831392Y-81878746D01*
X156858608Y-81878746D01*
X156911566Y-81884499D01*
X157413434Y-81884499D01*
X157466392Y-81878746D01*
X157493608Y-81878746D01*
X157546566Y-81884499D01*
X158048434Y-81884499D01*
X158101392Y-81878746D01*
X158128608Y-81878746D01*
X158181566Y-81884499D01*
X158683434Y-81884499D01*
X158736392Y-81878746D01*
X158763608Y-81878746D01*
X158816566Y-81884499D01*
X159318434Y-81884499D01*
X159371392Y-81878746D01*
X159398608Y-81878746D01*
X159451566Y-81884499D01*
X159953434Y-81884499D01*
X160006392Y-81878746D01*
X160033608Y-81878746D01*
X160086566Y-81884499D01*
X160588434Y-81884499D01*
X160641392Y-81878746D01*
X160668608Y-81878746D01*
X160721566Y-81884499D01*
X161223434Y-81884499D01*
X161276392Y-81878746D01*
X161303608Y-81878746D01*
X161356566Y-81884499D01*
X161858434Y-81884499D01*
X161911392Y-81878746D01*
X161938608Y-81878746D01*
X161991566Y-81884499D01*
X162493434Y-81884499D01*
X162555616Y-81877744D01*
X162692005Y-81826614D01*
X162808561Y-81739260D01*
X162895915Y-81622704D01*
X162947045Y-81486315D01*
X162953800Y-81424133D01*
X162953800Y-80517030D01*
X166735800Y-80517030D01*
X166741527Y-80524680D01*
X166926272Y-80637893D01*
X166935067Y-80642375D01*
X167152490Y-80732434D01*
X167161875Y-80735483D01*
X167390708Y-80790422D01*
X167400455Y-80791965D01*
X167635070Y-80810430D01*
X167644930Y-80810430D01*
X167879545Y-80791965D01*
X167889292Y-80790422D01*
X168118125Y-80735483D01*
X168127510Y-80732434D01*
X168344933Y-80642375D01*
X168353728Y-80637893D01*
X168534805Y-80526928D01*
X168544267Y-80516470D01*
X168540484Y-80507694D01*
X167652812Y-79620022D01*
X167638868Y-79612408D01*
X167637035Y-79612539D01*
X167630420Y-79616790D01*
X166742560Y-80504650D01*
X166735800Y-80517030D01*
X162953800Y-80517030D01*
X162953800Y-79611867D01*
X162947045Y-79549685D01*
X162895915Y-79413296D01*
X162808561Y-79296740D01*
X162750106Y-79252930D01*
X166077570Y-79252930D01*
X166096035Y-79487545D01*
X166097578Y-79497292D01*
X166152517Y-79726125D01*
X166155566Y-79735510D01*
X166245625Y-79952933D01*
X166250107Y-79961728D01*
X166361072Y-80142805D01*
X166371530Y-80152267D01*
X166380306Y-80148484D01*
X167267978Y-79260812D01*
X167274356Y-79249132D01*
X168004408Y-79249132D01*
X168004539Y-79250965D01*
X168008790Y-79257580D01*
X168896650Y-80145440D01*
X168909030Y-80152200D01*
X168916680Y-80146473D01*
X169029893Y-79961728D01*
X169034375Y-79952933D01*
X169124434Y-79735510D01*
X169127483Y-79726125D01*
X169182422Y-79497292D01*
X169183965Y-79487545D01*
X169202430Y-79252930D01*
X169202430Y-79243070D01*
X169183965Y-79008455D01*
X169182422Y-78998708D01*
X169127483Y-78769875D01*
X169124434Y-78760490D01*
X169034375Y-78543067D01*
X169029893Y-78534272D01*
X168918928Y-78353195D01*
X168908470Y-78343733D01*
X168899694Y-78347516D01*
X168012022Y-79235188D01*
X168004408Y-79249132D01*
X167274356Y-79249132D01*
X167275592Y-79246868D01*
X167275461Y-79245035D01*
X167271210Y-79238420D01*
X166383350Y-78350560D01*
X166370970Y-78343800D01*
X166363320Y-78349527D01*
X166250107Y-78534272D01*
X166245625Y-78543067D01*
X166155566Y-78760490D01*
X166152517Y-78769875D01*
X166097578Y-78998708D01*
X166096035Y-79008455D01*
X166077570Y-79243070D01*
X166077570Y-79252930D01*
X162750106Y-79252930D01*
X162692005Y-79209386D01*
X162555616Y-79158256D01*
X162493434Y-79151501D01*
X161991566Y-79151501D01*
X161988169Y-79151870D01*
X161938608Y-79157254D01*
X161911392Y-79157254D01*
X161861831Y-79151870D01*
X161858434Y-79151501D01*
X161356566Y-79151501D01*
X161353169Y-79151870D01*
X161303608Y-79157254D01*
X161276392Y-79157254D01*
X161226831Y-79151870D01*
X161223434Y-79151501D01*
X160721566Y-79151501D01*
X160718169Y-79151870D01*
X160668608Y-79157254D01*
X160641392Y-79157254D01*
X160591831Y-79151870D01*
X160588434Y-79151501D01*
X160086566Y-79151501D01*
X160083169Y-79151870D01*
X160033608Y-79157254D01*
X160006392Y-79157254D01*
X159956831Y-79151870D01*
X159953434Y-79151501D01*
X159451566Y-79151501D01*
X159448169Y-79151870D01*
X159398608Y-79157254D01*
X159371392Y-79157254D01*
X159321831Y-79151870D01*
X159318434Y-79151501D01*
X158816566Y-79151501D01*
X158813169Y-79151870D01*
X158763608Y-79157254D01*
X158736392Y-79157254D01*
X158686831Y-79151870D01*
X158683434Y-79151501D01*
X158181566Y-79151501D01*
X158178169Y-79151870D01*
X158128608Y-79157254D01*
X158101392Y-79157254D01*
X158051831Y-79151870D01*
X158048434Y-79151501D01*
X157546566Y-79151501D01*
X157543169Y-79151870D01*
X157493608Y-79157254D01*
X157466392Y-79157254D01*
X157416831Y-79151870D01*
X157413434Y-79151501D01*
X156911566Y-79151501D01*
X156908169Y-79151870D01*
X156858608Y-79157254D01*
X156831392Y-79157254D01*
X156781831Y-79151870D01*
X156778434Y-79151501D01*
X156276566Y-79151501D01*
X156273169Y-79151870D01*
X156223608Y-79157254D01*
X156196392Y-79157254D01*
X156146831Y-79151870D01*
X156143434Y-79151501D01*
X155641566Y-79151501D01*
X155638169Y-79151870D01*
X155588608Y-79157254D01*
X155561392Y-79157254D01*
X155511831Y-79151870D01*
X155508434Y-79151501D01*
X155006566Y-79151501D01*
X155003169Y-79151870D01*
X154953608Y-79157254D01*
X154926392Y-79157254D01*
X154876831Y-79151870D01*
X154873434Y-79151501D01*
X154371566Y-79151501D01*
X154368169Y-79151870D01*
X154318608Y-79157254D01*
X154291392Y-79157254D01*
X154241831Y-79151870D01*
X154238434Y-79151501D01*
X153736566Y-79151501D01*
X153733169Y-79151870D01*
X153683608Y-79157254D01*
X153656392Y-79157254D01*
X153606831Y-79151870D01*
X153603434Y-79151501D01*
X153101566Y-79151501D01*
X153098169Y-79151870D01*
X153048608Y-79157254D01*
X153021392Y-79157254D01*
X152971831Y-79151870D01*
X152968434Y-79151501D01*
X152466566Y-79151501D01*
X152463169Y-79151870D01*
X152413608Y-79157254D01*
X152386392Y-79157254D01*
X152336831Y-79151870D01*
X152333434Y-79151501D01*
X151831566Y-79151501D01*
X151828169Y-79151870D01*
X151778608Y-79157254D01*
X151751392Y-79157254D01*
X151701831Y-79151870D01*
X151698434Y-79151501D01*
X151196566Y-79151501D01*
X151193169Y-79151870D01*
X151143608Y-79157254D01*
X151116392Y-79157254D01*
X151066831Y-79151870D01*
X151063434Y-79151501D01*
X150561566Y-79151501D01*
X150558169Y-79151870D01*
X150508608Y-79157254D01*
X150481392Y-79157254D01*
X150431831Y-79151870D01*
X150428434Y-79151501D01*
X149926566Y-79151501D01*
X149923169Y-79151870D01*
X149873608Y-79157254D01*
X149846392Y-79157254D01*
X149796831Y-79151870D01*
X149793434Y-79151501D01*
X149291566Y-79151501D01*
X149288169Y-79151870D01*
X149238608Y-79157254D01*
X149211392Y-79157254D01*
X149161831Y-79151870D01*
X149158434Y-79151501D01*
X148656566Y-79151501D01*
X148653169Y-79151870D01*
X148603608Y-79157254D01*
X148576392Y-79157254D01*
X148526831Y-79151870D01*
X148523434Y-79151501D01*
X148021566Y-79151501D01*
X148018169Y-79151870D01*
X147968608Y-79157254D01*
X147941392Y-79157254D01*
X147891831Y-79151870D01*
X147888434Y-79151501D01*
X147386566Y-79151501D01*
X147383169Y-79151870D01*
X147332234Y-79157403D01*
X147332232Y-79157403D01*
X147324384Y-79158256D01*
X147290717Y-79170877D01*
X147219912Y-79176060D01*
X147157394Y-79141990D01*
X146276604Y-78261199D01*
X145994935Y-77979530D01*
X166735733Y-77979530D01*
X166739516Y-77988306D01*
X167627188Y-78875978D01*
X167641132Y-78883592D01*
X167642965Y-78883461D01*
X167649580Y-78879210D01*
X168537440Y-77991350D01*
X168544200Y-77978970D01*
X168538473Y-77971320D01*
X168353728Y-77858107D01*
X168344933Y-77853625D01*
X168127510Y-77763566D01*
X168118125Y-77760517D01*
X167889292Y-77705578D01*
X167879545Y-77704035D01*
X167644930Y-77685570D01*
X167635070Y-77685570D01*
X167400455Y-77704035D01*
X167390708Y-77705578D01*
X167161875Y-77760517D01*
X167152490Y-77763566D01*
X166935067Y-77853625D01*
X166926272Y-77858107D01*
X166745195Y-77969072D01*
X166735733Y-77979530D01*
X145994935Y-77979530D01*
X145347152Y-77331747D01*
X145339612Y-77323461D01*
X145335500Y-77316982D01*
X145285848Y-77270356D01*
X145283007Y-77267602D01*
X145263270Y-77247865D01*
X145260073Y-77245385D01*
X145251051Y-77237680D01*
X145224600Y-77212841D01*
X145218821Y-77207414D01*
X145211875Y-77203595D01*
X145211872Y-77203593D01*
X145201066Y-77197652D01*
X145184547Y-77186801D01*
X145184083Y-77186441D01*
X145168541Y-77174386D01*
X145127951Y-77156821D01*
X145117312Y-77151609D01*
X145102376Y-77143398D01*
X145073985Y-77122080D01*
X141727652Y-73775747D01*
X141720112Y-73767461D01*
X141716000Y-73760982D01*
X141666348Y-73714356D01*
X141663507Y-73711602D01*
X141643770Y-73691865D01*
X141640573Y-73689385D01*
X141631551Y-73681680D01*
X141627397Y-73677779D01*
X141599321Y-73651414D01*
X141592375Y-73647595D01*
X141592372Y-73647593D01*
X141581566Y-73641652D01*
X141565047Y-73630801D01*
X141564583Y-73630441D01*
X141549041Y-73618386D01*
X141541772Y-73615241D01*
X141541768Y-73615238D01*
X141508463Y-73600826D01*
X141497813Y-73595609D01*
X141459060Y-73574305D01*
X141439437Y-73569267D01*
X141420734Y-73562863D01*
X141409420Y-73557967D01*
X141409419Y-73557967D01*
X141402145Y-73554819D01*
X141394322Y-73553580D01*
X141394312Y-73553577D01*
X141358476Y-73547901D01*
X141346856Y-73545495D01*
X141311711Y-73536472D01*
X141311710Y-73536472D01*
X141304030Y-73534500D01*
X141283776Y-73534500D01*
X141264065Y-73532949D01*
X141251886Y-73531020D01*
X141244057Y-73529780D01*
X141214786Y-73532547D01*
X141200039Y-73533941D01*
X141188181Y-73534500D01*
X126935988Y-73534500D01*
X126924805Y-73533973D01*
X126917312Y-73532298D01*
X126909386Y-73532547D01*
X126909385Y-73532547D01*
X126849222Y-73534438D01*
X126845264Y-73534500D01*
X126817364Y-73534500D01*
X126813374Y-73535004D01*
X126801540Y-73535936D01*
X126757331Y-73537326D01*
X126749715Y-73539539D01*
X126749713Y-73539539D01*
X126737872Y-73542979D01*
X126718513Y-73546988D01*
X126717203Y-73547154D01*
X126698423Y-73549526D01*
X126691057Y-73552442D01*
X126691051Y-73552444D01*
X126657318Y-73565800D01*
X126646088Y-73569645D01*
X126630048Y-73574305D01*
X126603627Y-73581981D01*
X126596804Y-73586016D01*
X126586186Y-73592295D01*
X126568433Y-73600992D01*
X126560788Y-73604019D01*
X126549603Y-73608448D01*
X126535925Y-73618386D01*
X126513832Y-73634437D01*
X126503915Y-73640951D01*
X126465858Y-73663458D01*
X126451537Y-73677779D01*
X126436504Y-73690619D01*
X126420113Y-73702528D01*
X126411437Y-73713016D01*
X126391922Y-73736605D01*
X126383932Y-73745384D01*
X124906539Y-75222776D01*
X124844227Y-75256802D01*
X124773411Y-75251737D01*
X124754071Y-75242584D01*
X124718191Y-75221701D01*
X124713465Y-75219887D01*
X124713461Y-75219885D01*
X124496372Y-75136553D01*
X124496369Y-75136552D01*
X124491643Y-75134738D01*
X124254106Y-75085114D01*
X124249057Y-75084885D01*
X124249051Y-75084884D01*
X124138432Y-75079861D01*
X124011691Y-75074106D01*
X124006671Y-75074687D01*
X124006667Y-75074687D01*
X123907605Y-75086149D01*
X123770634Y-75101997D01*
X123765760Y-75103376D01*
X123765756Y-75103377D01*
X123542006Y-75166692D01*
X123542004Y-75166693D01*
X123537137Y-75168070D01*
X123532562Y-75170204D01*
X123532555Y-75170206D01*
X123321789Y-75268488D01*
X123321785Y-75268490D01*
X123317207Y-75270625D01*
X123313026Y-75273467D01*
X123313025Y-75273467D01*
X123120691Y-75404177D01*
X123120687Y-75404180D01*
X123116504Y-75407023D01*
X122940189Y-75573755D01*
X122937111Y-75577781D01*
X122937110Y-75577782D01*
X122795873Y-75762512D01*
X122795870Y-75762516D01*
X122792800Y-75766532D01*
X122678128Y-75980394D01*
X122599124Y-76209838D01*
X122557820Y-76448962D01*
X122556500Y-76478033D01*
X122556500Y-77396357D01*
X121412000Y-77396357D01*
X121412000Y-71416607D01*
X146481037Y-71416607D01*
X146508025Y-71639632D01*
X146574082Y-71854352D01*
X146677118Y-72053981D01*
X146813877Y-72232209D01*
X146980036Y-72383402D01*
X146984783Y-72386380D01*
X146984786Y-72386382D01*
X147084673Y-72449040D01*
X147170344Y-72502781D01*
X147378783Y-72586573D01*
X147598767Y-72632130D01*
X147603378Y-72632396D01*
X147603379Y-72632396D01*
X147653952Y-72635312D01*
X147653956Y-72635312D01*
X147655775Y-72635417D01*
X148500999Y-72635417D01*
X148503786Y-72635168D01*
X148503792Y-72635168D01*
X148573929Y-72628908D01*
X148667762Y-72620534D01*
X148673176Y-72619053D01*
X148673181Y-72619052D01*
X148879034Y-72562736D01*
X148879035Y-72562736D01*
X148884451Y-72561254D01*
X148944334Y-72532691D01*
X148998579Y-72520417D01*
X150068278Y-72520417D01*
X150076519Y-72520687D01*
X150141144Y-72524923D01*
X150229056Y-72514518D01*
X150232269Y-72514181D01*
X150320362Y-72506086D01*
X150325922Y-72504518D01*
X150329495Y-72503856D01*
X150340498Y-72501667D01*
X150344111Y-72500899D01*
X150349848Y-72500220D01*
X150434359Y-72473979D01*
X150437456Y-72473063D01*
X150522632Y-72449040D01*
X150527820Y-72446482D01*
X150531271Y-72445157D01*
X150541649Y-72441016D01*
X150545036Y-72439613D01*
X150550556Y-72437899D01*
X150628829Y-72396718D01*
X150631765Y-72395222D01*
X150711120Y-72356088D01*
X150715751Y-72352630D01*
X150718954Y-72350667D01*
X150728341Y-72344744D01*
X150731434Y-72342735D01*
X150736546Y-72340046D01*
X150806039Y-72285261D01*
X150808609Y-72283290D01*
X150874884Y-72233801D01*
X150874891Y-72233794D01*
X150879512Y-72230344D01*
X150935346Y-72169943D01*
X150938775Y-72166378D01*
X151820748Y-71284405D01*
X151883060Y-71250379D01*
X151909843Y-71247500D01*
X152438397Y-71247500D01*
X152506518Y-71267502D01*
X152513956Y-71272670D01*
X152623295Y-71354615D01*
X152759684Y-71405745D01*
X152821866Y-71412500D01*
X154518134Y-71412500D01*
X154580316Y-71405745D01*
X154716705Y-71354615D01*
X154833261Y-71267261D01*
X154920615Y-71150705D01*
X154971745Y-71014316D01*
X154978500Y-70952134D01*
X154978500Y-70104000D01*
X159976502Y-70104000D01*
X159996457Y-70332087D01*
X159997881Y-70337400D01*
X159997881Y-70337402D01*
X160019240Y-70417112D01*
X160055716Y-70553243D01*
X160058039Y-70558224D01*
X160058039Y-70558225D01*
X160150151Y-70755762D01*
X160150154Y-70755767D01*
X160152477Y-70760749D01*
X160190802Y-70815483D01*
X160230352Y-70871965D01*
X160283802Y-70948300D01*
X160445700Y-71110198D01*
X160450208Y-71113355D01*
X160450211Y-71113357D01*
X160491542Y-71142297D01*
X160633251Y-71241523D01*
X160638233Y-71243846D01*
X160638238Y-71243849D01*
X160725212Y-71284405D01*
X160840757Y-71338284D01*
X160846070Y-71339708D01*
X160846071Y-71339708D01*
X160898816Y-71353841D01*
X160955300Y-71386453D01*
X164275151Y-74706304D01*
X164280788Y-74712322D01*
X164323494Y-74761019D01*
X164328029Y-74764594D01*
X164328030Y-74764595D01*
X164392982Y-74815798D01*
X164395547Y-74817876D01*
X164459100Y-74870734D01*
X164459105Y-74870738D01*
X164463540Y-74874426D01*
X164468574Y-74877245D01*
X164471584Y-74879314D01*
X164480854Y-74885508D01*
X164483999Y-74887551D01*
X164488537Y-74891128D01*
X164493645Y-74893816D01*
X164493649Y-74893818D01*
X164546824Y-74921794D01*
X164562230Y-74929899D01*
X164566816Y-74932312D01*
X164569706Y-74933882D01*
X164646904Y-74977115D01*
X164652376Y-74978972D01*
X164655776Y-74980486D01*
X164665987Y-74984873D01*
X164669421Y-74986295D01*
X164674527Y-74988982D01*
X164680041Y-74990694D01*
X164680043Y-74990695D01*
X164758999Y-75015212D01*
X164762135Y-75016231D01*
X164793230Y-75026786D01*
X164845912Y-75044669D01*
X164851625Y-75045498D01*
X164855138Y-75046341D01*
X164866151Y-75048833D01*
X164869718Y-75049591D01*
X164875234Y-75051304D01*
X164880962Y-75051982D01*
X164880967Y-75051983D01*
X164933182Y-75058163D01*
X164963099Y-75061704D01*
X164966322Y-75062128D01*
X165002419Y-75067362D01*
X165048184Y-75073998D01*
X165048189Y-75073998D01*
X165053898Y-75074826D01*
X165136069Y-75071597D01*
X165141017Y-75071500D01*
X166090349Y-75071500D01*
X166158470Y-75091502D01*
X166197492Y-75131196D01*
X166241522Y-75202348D01*
X166366697Y-75327305D01*
X166372927Y-75331145D01*
X166372928Y-75331146D01*
X166510090Y-75415694D01*
X166517262Y-75420115D01*
X166597005Y-75446564D01*
X166678611Y-75473632D01*
X166678613Y-75473632D01*
X166685139Y-75475797D01*
X166691975Y-75476497D01*
X166691978Y-75476498D01*
X166735031Y-75480909D01*
X166789600Y-75486500D01*
X168490400Y-75486500D01*
X168493646Y-75486163D01*
X168493650Y-75486163D01*
X168589307Y-75476238D01*
X168589311Y-75476237D01*
X168596165Y-75475526D01*
X168602701Y-75473345D01*
X168602703Y-75473345D01*
X168734805Y-75429272D01*
X168763945Y-75419550D01*
X168914348Y-75326478D01*
X169039305Y-75201303D01*
X169079218Y-75136553D01*
X169128275Y-75056968D01*
X169128276Y-75056966D01*
X169132115Y-75050738D01*
X169187797Y-74882861D01*
X169188662Y-74874426D01*
X169198172Y-74781598D01*
X169198500Y-74778400D01*
X169198500Y-73077600D01*
X169187526Y-72971835D01*
X169131550Y-72804055D01*
X169038478Y-72653652D01*
X168913303Y-72528695D01*
X168907072Y-72524854D01*
X168768968Y-72439725D01*
X168768966Y-72439724D01*
X168762738Y-72435885D01*
X168682995Y-72409436D01*
X168601389Y-72382368D01*
X168601387Y-72382368D01*
X168594861Y-72380203D01*
X168588025Y-72379503D01*
X168588022Y-72379502D01*
X168544969Y-72375091D01*
X168490400Y-72369500D01*
X166789600Y-72369500D01*
X166786354Y-72369837D01*
X166786350Y-72369837D01*
X166690693Y-72379762D01*
X166690689Y-72379763D01*
X166683835Y-72380474D01*
X166677299Y-72382655D01*
X166677297Y-72382655D01*
X166545195Y-72426728D01*
X166516055Y-72436450D01*
X166365652Y-72529522D01*
X166240695Y-72654697D01*
X166236855Y-72660927D01*
X166236854Y-72660928D01*
X166197596Y-72724616D01*
X166144823Y-72772110D01*
X166090336Y-72784500D01*
X165639843Y-72784500D01*
X165571722Y-72764498D01*
X165550748Y-72747595D01*
X163400183Y-70597030D01*
X166735800Y-70597030D01*
X166741527Y-70604680D01*
X166926272Y-70717893D01*
X166935067Y-70722375D01*
X167152490Y-70812434D01*
X167161875Y-70815483D01*
X167390708Y-70870422D01*
X167400455Y-70871965D01*
X167635070Y-70890430D01*
X167644930Y-70890430D01*
X167879545Y-70871965D01*
X167889292Y-70870422D01*
X168118125Y-70815483D01*
X168127510Y-70812434D01*
X168344933Y-70722375D01*
X168353728Y-70717893D01*
X168534805Y-70606928D01*
X168544267Y-70596470D01*
X168540484Y-70587694D01*
X167652812Y-69700022D01*
X167638868Y-69692408D01*
X167637035Y-69692539D01*
X167630420Y-69696790D01*
X166742560Y-70584650D01*
X166735800Y-70597030D01*
X163400183Y-70597030D01*
X162572453Y-69769300D01*
X162539841Y-69712816D01*
X162525708Y-69660071D01*
X162525707Y-69660067D01*
X162524284Y-69654757D01*
X162460589Y-69518162D01*
X162429849Y-69452238D01*
X162429846Y-69452233D01*
X162427523Y-69447251D01*
X162347475Y-69332930D01*
X166077570Y-69332930D01*
X166096035Y-69567545D01*
X166097578Y-69577292D01*
X166152517Y-69806125D01*
X166155566Y-69815510D01*
X166245625Y-70032933D01*
X166250107Y-70041728D01*
X166361072Y-70222805D01*
X166371530Y-70232267D01*
X166380306Y-70228484D01*
X167267978Y-69340812D01*
X167274356Y-69329132D01*
X168004408Y-69329132D01*
X168004539Y-69330965D01*
X168008790Y-69337580D01*
X168896650Y-70225440D01*
X168909030Y-70232200D01*
X168916680Y-70226473D01*
X169029893Y-70041728D01*
X169034375Y-70032933D01*
X169124434Y-69815510D01*
X169127483Y-69806125D01*
X169182422Y-69577292D01*
X169183965Y-69567545D01*
X169202430Y-69332930D01*
X169202430Y-69323070D01*
X169183965Y-69088455D01*
X169182422Y-69078708D01*
X169127483Y-68849875D01*
X169124434Y-68840490D01*
X169034375Y-68623067D01*
X169029893Y-68614272D01*
X168918928Y-68433195D01*
X168908470Y-68423733D01*
X168899694Y-68427516D01*
X168012022Y-69315188D01*
X168004408Y-69329132D01*
X167274356Y-69329132D01*
X167275592Y-69326868D01*
X167275461Y-69325035D01*
X167271210Y-69318420D01*
X166383350Y-68430560D01*
X166370970Y-68423800D01*
X166363320Y-68429527D01*
X166250107Y-68614272D01*
X166245625Y-68623067D01*
X166155566Y-68840490D01*
X166152517Y-68849875D01*
X166097578Y-69078708D01*
X166096035Y-69088455D01*
X166077570Y-69323070D01*
X166077570Y-69332930D01*
X162347475Y-69332930D01*
X162334579Y-69314513D01*
X162299357Y-69264211D01*
X162299355Y-69264208D01*
X162296198Y-69259700D01*
X162134300Y-69097802D01*
X162129792Y-69094645D01*
X162129789Y-69094643D01*
X162004523Y-69006931D01*
X161946749Y-68966477D01*
X161941767Y-68964154D01*
X161941762Y-68964151D01*
X161744225Y-68872039D01*
X161744224Y-68872039D01*
X161739243Y-68869716D01*
X161733935Y-68868294D01*
X161733933Y-68868293D01*
X161523402Y-68811881D01*
X161523400Y-68811881D01*
X161518087Y-68810457D01*
X161290000Y-68790502D01*
X161061913Y-68810457D01*
X161056600Y-68811881D01*
X161056598Y-68811881D01*
X160846067Y-68868293D01*
X160846065Y-68868294D01*
X160840757Y-68869716D01*
X160835776Y-68872039D01*
X160835775Y-68872039D01*
X160638238Y-68964151D01*
X160638233Y-68964154D01*
X160633251Y-68966477D01*
X160575477Y-69006931D01*
X160450211Y-69094643D01*
X160450208Y-69094645D01*
X160445700Y-69097802D01*
X160283802Y-69259700D01*
X160280645Y-69264208D01*
X160280643Y-69264211D01*
X160245421Y-69314513D01*
X160152477Y-69447251D01*
X160150154Y-69452233D01*
X160150151Y-69452238D01*
X160058039Y-69649775D01*
X160055716Y-69654757D01*
X160054294Y-69660065D01*
X160054293Y-69660067D01*
X159997881Y-69870598D01*
X159996457Y-69875913D01*
X159976502Y-70104000D01*
X154978500Y-70104000D01*
X154978500Y-69255866D01*
X154971745Y-69193684D01*
X154920615Y-69057295D01*
X154838674Y-68947961D01*
X154813826Y-68881456D01*
X154813500Y-68872397D01*
X154813500Y-68059530D01*
X166735733Y-68059530D01*
X166739516Y-68068306D01*
X167627188Y-68955978D01*
X167641132Y-68963592D01*
X167642965Y-68963461D01*
X167649580Y-68959210D01*
X168537440Y-68071350D01*
X168544200Y-68058970D01*
X168538473Y-68051320D01*
X168353728Y-67938107D01*
X168344933Y-67933625D01*
X168127510Y-67843566D01*
X168118125Y-67840517D01*
X167889292Y-67785578D01*
X167879545Y-67784035D01*
X167644930Y-67765570D01*
X167635070Y-67765570D01*
X167400455Y-67784035D01*
X167390708Y-67785578D01*
X167161875Y-67840517D01*
X167152490Y-67843566D01*
X166935067Y-67933625D01*
X166926272Y-67938107D01*
X166745195Y-68049072D01*
X166735733Y-68059530D01*
X154813500Y-68059530D01*
X154813500Y-66763603D01*
X154833502Y-66695482D01*
X154838674Y-66688038D01*
X154850807Y-66671849D01*
X154920615Y-66578705D01*
X154971745Y-66442316D01*
X154978500Y-66380134D01*
X154978500Y-64683866D01*
X154971745Y-64621684D01*
X154920615Y-64485295D01*
X154833261Y-64368739D01*
X154716705Y-64281385D01*
X154580316Y-64230255D01*
X154518134Y-64223500D01*
X152821866Y-64223500D01*
X152759684Y-64230255D01*
X152623295Y-64281385D01*
X152506739Y-64368739D01*
X152419385Y-64485295D01*
X152368255Y-64621684D01*
X152361500Y-64683866D01*
X152361500Y-66380134D01*
X152368255Y-66442316D01*
X152419385Y-66578705D01*
X152489193Y-66671849D01*
X152501326Y-66688038D01*
X152526174Y-66754544D01*
X152526500Y-66763603D01*
X152526500Y-68834500D01*
X152506498Y-68902621D01*
X152452842Y-68949114D01*
X152400500Y-68960500D01*
X151426794Y-68960500D01*
X151418553Y-68960230D01*
X151402632Y-68959187D01*
X151353938Y-68955995D01*
X151266074Y-68966395D01*
X151262807Y-68966737D01*
X151236998Y-68969109D01*
X151180476Y-68974302D01*
X151180474Y-68974302D01*
X151174721Y-68974831D01*
X151169159Y-68976400D01*
X151165601Y-68977059D01*
X151154551Y-68979257D01*
X151150970Y-68980018D01*
X151145234Y-68980697D01*
X151060731Y-69006935D01*
X151057599Y-69007863D01*
X150972451Y-69031877D01*
X150967269Y-69034433D01*
X150963824Y-69035755D01*
X150953421Y-69039906D01*
X150950042Y-69041305D01*
X150944526Y-69043018D01*
X150939420Y-69045704D01*
X150939416Y-69045706D01*
X150866217Y-69084218D01*
X150863292Y-69085708D01*
X150852730Y-69090917D01*
X150789141Y-69122275D01*
X150789137Y-69122278D01*
X150783963Y-69124829D01*
X150779338Y-69128283D01*
X150776172Y-69130223D01*
X150766759Y-69136162D01*
X150763649Y-69138181D01*
X150758537Y-69140871D01*
X150700930Y-69186285D01*
X150689058Y-69195644D01*
X150686457Y-69197640D01*
X150615571Y-69250573D01*
X150611657Y-69254807D01*
X150611655Y-69254809D01*
X150559762Y-69310947D01*
X150556333Y-69314513D01*
X150101547Y-69769300D01*
X149674335Y-70196512D01*
X149612022Y-70230537D01*
X149585239Y-70233417D01*
X148998162Y-70233417D01*
X148951135Y-70224312D01*
X148949589Y-70223690D01*
X148893859Y-70179708D01*
X148870754Y-70112576D01*
X148887610Y-70043609D01*
X148942377Y-69993071D01*
X149081899Y-69926523D01*
X149091516Y-69920835D01*
X149264767Y-69796342D01*
X149273233Y-69789034D01*
X149421692Y-69635835D01*
X149428735Y-69627138D01*
X149547719Y-69450073D01*
X149553105Y-69440275D01*
X149638857Y-69244927D01*
X149642422Y-69234335D01*
X149672624Y-69108533D01*
X149671919Y-69094447D01*
X149663040Y-69090917D01*
X146525589Y-69090917D01*
X146511607Y-69095022D01*
X146510114Y-69104645D01*
X146510166Y-69104890D01*
X146572898Y-69308800D01*
X146577119Y-69319146D01*
X146674971Y-69508731D01*
X146680957Y-69518162D01*
X146810832Y-69687418D01*
X146818393Y-69695641D01*
X146976194Y-69839229D01*
X146985094Y-69845984D01*
X147165815Y-69959351D01*
X147175781Y-69964428D01*
X147238358Y-69989584D01*
X147294103Y-70033550D01*
X147317228Y-70100675D01*
X147300391Y-70169646D01*
X147245607Y-70220217D01*
X147100782Y-70289295D01*
X146918346Y-70420388D01*
X146762008Y-70581716D01*
X146636710Y-70768179D01*
X146546412Y-70973884D01*
X146545103Y-70979335D01*
X146545102Y-70979339D01*
X146495278Y-71186871D01*
X146493968Y-71192328D01*
X146493645Y-71197933D01*
X146482776Y-71386453D01*
X146481037Y-71416607D01*
X121412000Y-71416607D01*
X121412000Y-69369030D01*
X135239800Y-69369030D01*
X135245527Y-69376680D01*
X135430272Y-69489893D01*
X135439067Y-69494375D01*
X135656490Y-69584434D01*
X135665875Y-69587483D01*
X135894708Y-69642422D01*
X135904455Y-69643965D01*
X136139070Y-69662430D01*
X136148930Y-69662430D01*
X136383545Y-69643965D01*
X136393292Y-69642422D01*
X136622125Y-69587483D01*
X136631510Y-69584434D01*
X136848933Y-69494375D01*
X136857728Y-69489893D01*
X137038805Y-69378928D01*
X137048267Y-69368470D01*
X137044484Y-69359694D01*
X136156812Y-68472022D01*
X136142868Y-68464408D01*
X136141035Y-68464539D01*
X136134420Y-68468790D01*
X135246560Y-69356650D01*
X135239800Y-69369030D01*
X121412000Y-69369030D01*
X121412000Y-68104930D01*
X134581570Y-68104930D01*
X134600035Y-68339545D01*
X134601578Y-68349292D01*
X134656517Y-68578125D01*
X134659566Y-68587510D01*
X134749625Y-68804933D01*
X134754107Y-68813728D01*
X134865072Y-68994805D01*
X134875530Y-69004267D01*
X134884306Y-69000484D01*
X135771978Y-68112812D01*
X135778356Y-68101132D01*
X136508408Y-68101132D01*
X136508539Y-68102965D01*
X136512790Y-68109580D01*
X137400650Y-68997440D01*
X137413030Y-69004200D01*
X137420680Y-68998473D01*
X137533893Y-68813728D01*
X137538375Y-68804933D01*
X137628434Y-68587510D01*
X137631483Y-68578125D01*
X137686422Y-68349292D01*
X137687965Y-68339545D01*
X137706430Y-68104930D01*
X137706430Y-68095070D01*
X137687965Y-67860455D01*
X137686422Y-67850708D01*
X137631483Y-67621875D01*
X137628434Y-67612490D01*
X137538375Y-67395067D01*
X137533893Y-67386272D01*
X137422928Y-67205195D01*
X137412470Y-67195733D01*
X137403694Y-67199516D01*
X136516022Y-68087188D01*
X136508408Y-68101132D01*
X135778356Y-68101132D01*
X135779592Y-68098868D01*
X135779461Y-68097035D01*
X135775210Y-68090420D01*
X134887350Y-67202560D01*
X134874970Y-67195800D01*
X134867320Y-67201527D01*
X134754107Y-67386272D01*
X134749625Y-67395067D01*
X134659566Y-67612490D01*
X134656517Y-67621875D01*
X134601578Y-67850708D01*
X134600035Y-67860455D01*
X134581570Y-68095070D01*
X134581570Y-68104930D01*
X121412000Y-68104930D01*
X121412000Y-66831530D01*
X135239733Y-66831530D01*
X135243516Y-66840306D01*
X136131188Y-67727978D01*
X136145132Y-67735592D01*
X136146965Y-67735461D01*
X136153580Y-67731210D01*
X137041440Y-66843350D01*
X137048200Y-66830970D01*
X137042473Y-66823320D01*
X136857728Y-66710107D01*
X136848933Y-66705625D01*
X136631510Y-66615566D01*
X136622125Y-66612517D01*
X136422728Y-66564645D01*
X146510114Y-66564645D01*
X146510166Y-66564890D01*
X146572898Y-66768800D01*
X146577119Y-66779146D01*
X146674971Y-66968731D01*
X146680957Y-66978162D01*
X146810832Y-67147418D01*
X146818393Y-67155641D01*
X146976194Y-67299229D01*
X146985094Y-67305984D01*
X147165815Y-67419351D01*
X147175781Y-67424428D01*
X147238987Y-67449837D01*
X147294732Y-67493803D01*
X147317857Y-67560928D01*
X147301020Y-67629900D01*
X147246236Y-67680470D01*
X147106097Y-67747314D01*
X147096484Y-67752999D01*
X146923233Y-67877492D01*
X146914767Y-67884800D01*
X146766308Y-68037999D01*
X146759265Y-68046696D01*
X146640281Y-68223761D01*
X146634895Y-68233559D01*
X146549143Y-68428907D01*
X146545578Y-68439499D01*
X146515376Y-68565301D01*
X146516081Y-68579387D01*
X146524960Y-68582917D01*
X147821885Y-68582917D01*
X147837124Y-68578442D01*
X147838329Y-68577052D01*
X147840000Y-68569369D01*
X147840000Y-67578917D01*
X147841202Y-67578917D01*
X147840345Y-67554917D01*
X148346798Y-67554917D01*
X148347655Y-67578917D01*
X148348000Y-67578917D01*
X148348000Y-67588583D01*
X148348119Y-67591915D01*
X148348000Y-67592462D01*
X148348000Y-68564802D01*
X148352475Y-68580041D01*
X148353865Y-68581246D01*
X148361548Y-68582917D01*
X149662411Y-68582917D01*
X149676393Y-68578812D01*
X149677886Y-68569189D01*
X149677834Y-68568944D01*
X149615102Y-68365034D01*
X149610881Y-68354688D01*
X149513029Y-68165103D01*
X149507043Y-68155672D01*
X149377168Y-67986416D01*
X149369607Y-67978193D01*
X149211806Y-67834605D01*
X149202906Y-67827850D01*
X149022185Y-67714483D01*
X149012219Y-67709406D01*
X148949013Y-67683997D01*
X148893268Y-67640031D01*
X148870143Y-67572906D01*
X148886980Y-67503934D01*
X148941764Y-67453364D01*
X149081903Y-67386520D01*
X149091516Y-67380835D01*
X149264767Y-67256342D01*
X149273233Y-67249034D01*
X149421692Y-67095835D01*
X149428735Y-67087138D01*
X149547719Y-66910073D01*
X149553105Y-66900275D01*
X149638857Y-66704927D01*
X149642422Y-66694335D01*
X149672624Y-66568533D01*
X149671919Y-66554447D01*
X149663040Y-66550917D01*
X148366115Y-66550917D01*
X148350876Y-66555392D01*
X148349671Y-66556782D01*
X148348000Y-66564465D01*
X148348000Y-67554917D01*
X148346798Y-67554917D01*
X147840345Y-67554917D01*
X147840000Y-67554917D01*
X147840000Y-67545251D01*
X147839881Y-67541919D01*
X147840000Y-67541372D01*
X147840000Y-66569032D01*
X147835525Y-66553793D01*
X147834135Y-66552588D01*
X147826452Y-66550917D01*
X146525589Y-66550917D01*
X146511607Y-66555022D01*
X146510114Y-66564645D01*
X136422728Y-66564645D01*
X136393292Y-66557578D01*
X136383545Y-66556035D01*
X136148930Y-66537570D01*
X136139070Y-66537570D01*
X135904455Y-66556035D01*
X135894708Y-66557578D01*
X135665875Y-66612517D01*
X135656490Y-66615566D01*
X135439067Y-66705625D01*
X135430272Y-66710107D01*
X135249195Y-66821072D01*
X135239733Y-66831530D01*
X121412000Y-66831530D01*
X121412000Y-64350400D01*
X134585500Y-64350400D01*
X134585837Y-64353646D01*
X134585837Y-64353650D01*
X134595721Y-64448907D01*
X134596474Y-64456165D01*
X134598655Y-64462701D01*
X134598655Y-64462703D01*
X134629830Y-64556146D01*
X134652450Y-64623945D01*
X134745522Y-64774348D01*
X134870697Y-64899305D01*
X134876927Y-64903145D01*
X134876928Y-64903146D01*
X134959633Y-64954126D01*
X135021262Y-64992115D01*
X135081606Y-65012130D01*
X135182611Y-65045632D01*
X135182613Y-65045632D01*
X135189139Y-65047797D01*
X135195975Y-65048497D01*
X135195978Y-65048498D01*
X135239031Y-65052909D01*
X135293600Y-65058500D01*
X136994400Y-65058500D01*
X136997646Y-65058163D01*
X136997650Y-65058163D01*
X137093307Y-65048238D01*
X137093311Y-65048237D01*
X137100165Y-65047526D01*
X137106701Y-65045345D01*
X137106703Y-65045345D01*
X137169371Y-65024437D01*
X137267945Y-64991550D01*
X137384745Y-64919272D01*
X137451049Y-64900417D01*
X147189838Y-64900417D01*
X147236865Y-64909522D01*
X147238411Y-64910144D01*
X147294141Y-64954126D01*
X147317246Y-65021258D01*
X147300390Y-65090225D01*
X147245623Y-65140763D01*
X147106101Y-65207311D01*
X147096484Y-65212999D01*
X146923233Y-65337492D01*
X146914767Y-65344800D01*
X146766308Y-65497999D01*
X146759265Y-65506696D01*
X146640281Y-65683761D01*
X146634895Y-65693559D01*
X146549143Y-65888907D01*
X146545578Y-65899499D01*
X146515376Y-66025301D01*
X146516081Y-66039387D01*
X146524960Y-66042917D01*
X149662411Y-66042917D01*
X149676393Y-66038812D01*
X149677886Y-66029189D01*
X149677834Y-66028944D01*
X149615102Y-65825034D01*
X149610881Y-65814688D01*
X149513029Y-65625103D01*
X149507043Y-65615672D01*
X149377168Y-65446416D01*
X149369607Y-65438193D01*
X149211806Y-65294605D01*
X149202906Y-65287850D01*
X149022185Y-65174483D01*
X149012219Y-65169406D01*
X148949642Y-65144250D01*
X148893897Y-65100284D01*
X148870772Y-65033159D01*
X148887609Y-64964188D01*
X148942393Y-64913617D01*
X148970067Y-64900417D01*
X149087218Y-64844539D01*
X149269654Y-64713446D01*
X149425992Y-64552118D01*
X149551290Y-64365655D01*
X149641588Y-64159950D01*
X149651603Y-64118238D01*
X149692722Y-63946963D01*
X149692722Y-63946962D01*
X149694032Y-63941506D01*
X149706963Y-63717227D01*
X149679975Y-63494202D01*
X149613918Y-63279482D01*
X149587428Y-63228157D01*
X149513454Y-63084836D01*
X149513454Y-63084835D01*
X149510882Y-63079853D01*
X149374123Y-62901625D01*
X149207964Y-62750432D01*
X149203217Y-62747454D01*
X149203214Y-62747452D01*
X149022405Y-62634032D01*
X149017656Y-62631053D01*
X148949622Y-62603703D01*
X148893880Y-62559739D01*
X148870755Y-62492614D01*
X148887592Y-62423643D01*
X148942376Y-62373072D01*
X149081903Y-62306520D01*
X149091516Y-62300835D01*
X149264767Y-62176342D01*
X149273233Y-62169034D01*
X149421692Y-62015835D01*
X149428735Y-62007138D01*
X149547719Y-61830073D01*
X149553105Y-61820275D01*
X149638857Y-61624927D01*
X149642422Y-61614335D01*
X149672624Y-61488533D01*
X149671919Y-61474447D01*
X149663040Y-61470917D01*
X146525589Y-61470917D01*
X146511607Y-61475022D01*
X146510114Y-61484645D01*
X146510166Y-61484890D01*
X146572898Y-61688800D01*
X146577119Y-61699146D01*
X146674971Y-61888731D01*
X146680957Y-61898162D01*
X146810832Y-62067418D01*
X146818393Y-62075641D01*
X146976194Y-62219229D01*
X146985094Y-62225984D01*
X147165815Y-62339351D01*
X147175781Y-62344428D01*
X147238358Y-62369584D01*
X147294103Y-62413550D01*
X147317228Y-62480675D01*
X147300391Y-62549646D01*
X147245615Y-62600212D01*
X147243674Y-62601138D01*
X147189421Y-62613417D01*
X137805531Y-62613417D01*
X137737410Y-62593415D01*
X137690917Y-62539759D01*
X137686007Y-62527293D01*
X137646395Y-62408560D01*
X137635550Y-62376055D01*
X137542478Y-62225652D01*
X137417303Y-62100695D01*
X137411072Y-62096854D01*
X137272968Y-62011725D01*
X137272966Y-62011724D01*
X137266738Y-62007885D01*
X137186995Y-61981436D01*
X137105389Y-61954368D01*
X137105387Y-61954368D01*
X137098861Y-61952203D01*
X137092025Y-61951503D01*
X137092022Y-61951502D01*
X137048969Y-61947091D01*
X136994400Y-61941500D01*
X135293600Y-61941500D01*
X135290354Y-61941837D01*
X135290350Y-61941837D01*
X135194693Y-61951762D01*
X135194689Y-61951763D01*
X135187835Y-61952474D01*
X135181299Y-61954655D01*
X135181297Y-61954655D01*
X135049195Y-61998728D01*
X135020055Y-62008450D01*
X134869652Y-62101522D01*
X134744695Y-62226697D01*
X134651885Y-62377262D01*
X134649581Y-62384209D01*
X134599289Y-62535836D01*
X134596203Y-62545139D01*
X134585500Y-62649600D01*
X134585500Y-64350400D01*
X121412000Y-64350400D01*
X121412000Y-58716607D01*
X146481037Y-58716607D01*
X146508025Y-58939632D01*
X146574082Y-59154352D01*
X146576652Y-59159332D01*
X146576654Y-59159336D01*
X146641852Y-59285655D01*
X146677118Y-59353981D01*
X146813877Y-59532209D01*
X146980036Y-59683402D01*
X146984783Y-59686380D01*
X146984786Y-59686382D01*
X147165595Y-59799802D01*
X147170344Y-59802781D01*
X147238378Y-59830131D01*
X147294120Y-59874095D01*
X147317245Y-59941220D01*
X147300408Y-60010191D01*
X147245624Y-60060762D01*
X147106097Y-60127314D01*
X147096484Y-60132999D01*
X146923233Y-60257492D01*
X146914767Y-60264800D01*
X146766308Y-60417999D01*
X146759265Y-60426696D01*
X146640281Y-60603761D01*
X146634895Y-60613559D01*
X146549143Y-60808907D01*
X146545578Y-60819499D01*
X146515376Y-60945301D01*
X146516081Y-60959387D01*
X146524960Y-60962917D01*
X149662411Y-60962917D01*
X149676393Y-60958812D01*
X149677886Y-60949189D01*
X149677834Y-60948944D01*
X149615102Y-60745034D01*
X149610881Y-60734688D01*
X149513029Y-60545103D01*
X149507043Y-60535672D01*
X149377168Y-60366416D01*
X149369607Y-60358193D01*
X149211806Y-60214605D01*
X149202906Y-60207850D01*
X149022185Y-60094483D01*
X149012219Y-60089406D01*
X148949642Y-60064250D01*
X148893897Y-60020284D01*
X148870772Y-59953159D01*
X148887609Y-59884188D01*
X148942393Y-59833617D01*
X149002664Y-59804869D01*
X149087218Y-59764539D01*
X149269654Y-59633446D01*
X149425992Y-59472118D01*
X149551290Y-59285655D01*
X149641588Y-59079950D01*
X149662900Y-58991182D01*
X149692722Y-58866963D01*
X149692722Y-58866962D01*
X149694032Y-58861506D01*
X149702065Y-58722185D01*
X149706640Y-58642834D01*
X149706640Y-58642831D01*
X149706963Y-58637227D01*
X149679975Y-58414202D01*
X149613918Y-58199482D01*
X149593010Y-58158972D01*
X149513454Y-58004836D01*
X149513454Y-58004835D01*
X149510882Y-57999853D01*
X149374123Y-57821625D01*
X149207964Y-57670432D01*
X149203217Y-57667454D01*
X149203214Y-57667452D01*
X149022405Y-57554032D01*
X149017656Y-57551053D01*
X148809217Y-57467261D01*
X148589233Y-57421704D01*
X148584622Y-57421438D01*
X148584621Y-57421438D01*
X148534048Y-57418522D01*
X148534044Y-57418522D01*
X148532225Y-57418417D01*
X147687001Y-57418417D01*
X147684214Y-57418666D01*
X147684208Y-57418666D01*
X147614071Y-57424926D01*
X147520238Y-57433300D01*
X147514824Y-57434781D01*
X147514819Y-57434782D01*
X147400262Y-57466122D01*
X147303549Y-57492580D01*
X147298491Y-57494992D01*
X147298487Y-57494994D01*
X147202166Y-57540937D01*
X147100782Y-57589295D01*
X146918346Y-57720388D01*
X146762008Y-57881716D01*
X146636710Y-58068179D01*
X146546412Y-58273884D01*
X146545103Y-58279335D01*
X146545102Y-58279339D01*
X146511387Y-58419774D01*
X146493968Y-58492328D01*
X146493645Y-58497933D01*
X146485388Y-58641150D01*
X146481037Y-58716607D01*
X121412000Y-58716607D01*
X121412000Y-55498000D01*
X121432002Y-55429879D01*
X121485658Y-55383386D01*
X121538000Y-55372000D01*
X152295294Y-55372000D01*
X152363415Y-55392002D01*
G37*
%TD.AperFunction*%
%TD*%
M02*
