  0
SECTION
  2
HEADER
  9
$ACADVER
  1
AC1009
  9
$EXTMIN
 10
0.0
 20
0.0
 30
0.0
  9
$EXTMAX
 10
1000.0
 20
1000.0
 30
0.0
  9
$FILLMODE
 70
 0
  9
$SPLFRAME
 70
 1
  0
ENDSEC
  0
SECTION
  2
TABLES
  0
TABLE
  2
LAYER
 70
1
  0
LAYER
  2
0
 70
     0
 62
     7
  6
CONTINUOUS
  0
ENDTAB
  0
ENDSEC
  0
SECTION
  2
ENTITIES
  0
LINE
  8
0
 62
     0
 10
0.0950846
 20
111.383
 30
0.0
 11
495.395
 21
111.383
 31
0.0
  0
LINE
  8
0
 62
     0
 10
495.395
 20
111.383
 30
0.0
 11
495.395
 21
0.130914
 31
0.0
  0
LINE
  8
0
 62
     0
 10
495.395
 20
0.130914
 30
0.0
 11
0.0950846
 21
0.130914
 31
0.0
  0
LINE
  8
0
 62
     0
 10
0.0950846
 20
0.130914
 30
0.0
 11
0.0950846
 21
111.383
 31
0.0
  0
LINE
  8
0
 62
     0
 10
431.246
 20
16.6563
 30
0.0
 11
431.246
 21
11.9558
 31
0.0
  0
LINE
  8
0
 62
     0
 10
431.246
 20
11.9558
 30
0.0
 11
429.719
 21
11.9558
 31
0.0
  0
LINE
  8
0
 62
     0
 10
429.719
 20
11.9558
 30
0.0
 11
429.719
 21
15.186
 31
0.0
  0
LINE
  8
0
 62
     0
 10
429.719
 20
15.186
 30
0.0
 11
427.994
 21
15.186
 31
0.0
  0
LINE
  8
0
 62
     0
 10
427.994
 20
15.186
 30
0.0
 11
427.994
 21
16.1065
 31
0.0
  0
LINE
  8
0
 62
     0
 10
427.994
 20
16.1065
 30
0.0
 11
424.695
 21
16.1065
 31
0.0
  0
LINE
  8
0
 62
     0
 10
424.695
 20
16.1065
 30
0.0
 11
424.695
 21
15.186
 31
0.0
  0
LINE
  8
0
 62
     0
 10
424.695
 20
15.186
 30
0.0
 11
422.97
 21
15.186
 31
0.0
  0
LINE
  8
0
 62
     0
 10
422.97
 20
15.186
 30
0.0
 11
422.97
 21
11.9558
 31
0.0
  0
LINE
  8
0
 62
     0
 10
422.97
 20
11.9558
 30
0.0
 11
422.144
 21
11.9558
 31
0.0
  0
LINE
  8
0
 62
     0
 10
422.144
 20
11.9558
 30
0.0
 11
422.144
 21
9.15568
 31
0.0
  0
LINE
  8
0
 62
     0
 10
422.144
 20
9.15568
 30
0.0
 11
422.97
 21
9.15568
 31
0.0
  0
LINE
  8
0
 62
     0
 10
422.97
 20
9.15568
 30
0.0
 11
422.97
 21
2.88561
 31
0.0
  0
LINE
  8
0
 62
     0
 10
422.97
 20
2.88561
 30
0.0
 11
424.695
 21
2.88561
 31
0.0
  0
LINE
  8
0
 62
     0
 10
424.695
 20
2.88561
 30
0.0
 11
424.695
 21
1.90583
 31
0.0
  0
LINE
  8
0
 62
     0
 10
424.695
 20
1.90583
 30
0.0
 11
427.994
 21
1.90583
 31
0.0
  0
LINE
  8
0
 62
     0
 10
427.994
 20
1.90583
 30
0.0
 11
427.994
 21
2.88561
 31
0.0
  0
LINE
  8
0
 62
     0
 10
427.994
 20
2.88561
 30
0.0
 11
429.719
 21
2.88561
 31
0.0
  0
LINE
  8
0
 62
     0
 10
429.719
 20
2.88561
 30
0.0
 11
429.719
 21
7.35598
 31
0.0
  0
LINE
  8
0
 62
     0
 10
429.719
 20
7.35598
 30
0.0
 11
431.246
 21
7.35598
 31
0.0
  0
LINE
  8
0
 62
     0
 10
431.246
 20
7.35598
 30
0.0
 11
431.246
 21
2.65686
 31
0.0
  0
LINE
  8
0
 62
     0
 10
431.246
 20
2.65686
 30
0.0
 11
445.244
 21
2.65686
 31
0.0
  0
LINE
  8
0
 62
     0
 10
445.244
 20
2.65686
 30
0.0
 11
445.244
 21
7.35598
 31
0.0
  0
LINE
  8
0
 62
     0
 10
445.244
 20
7.35598
 30
0.0
 11
446.768
 21
7.35598
 31
0.0
  0
LINE
  8
0
 62
     0
 10
446.768
 20
7.35598
 30
0.0
 11
446.768
 21
2.88561
 31
0.0
  0
LINE
  8
0
 62
     0
 10
446.768
 20
2.88561
 30
0.0
 11
448.493
 21
2.88561
 31
0.0
  0
LINE
  8
0
 62
     0
 10
448.493
 20
2.88561
 30
0.0
 11
448.493
 21
1.90583
 31
0.0
  0
LINE
  8
0
 62
     0
 10
448.493
 20
1.90583
 30
0.0
 11
451.795
 21
1.90583
 31
0.0
  0
LINE
  8
0
 62
     0
 10
451.795
 20
1.90583
 30
0.0
 11
451.795
 21
2.88561
 31
0.0
  0
LINE
  8
0
 62
     0
 10
451.795
 20
2.88561
 30
0.0
 11
453.521
 21
2.88561
 31
0.0
  0
LINE
  8
0
 62
     0
 10
453.521
 20
2.88561
 30
0.0
 11
453.521
 21
9.15568
 31
0.0
  0
LINE
  8
0
 62
     0
 10
453.521
 20
9.15568
 30
0.0
 11
454.346
 21
9.15568
 31
0.0
  0
LINE
  8
0
 62
     0
 10
454.346
 20
9.15568
 30
0.0
 11
454.346
 21
11.9558
 31
0.0
  0
LINE
  8
0
 62
     0
 10
454.346
 20
11.9558
 30
0.0
 11
453.521
 21
11.9558
 31
0.0
  0
LINE
  8
0
 62
     0
 10
453.521
 20
11.9558
 30
0.0
 11
453.521
 21
15.186
 31
0.0
  0
LINE
  8
0
 62
     0
 10
453.521
 20
15.186
 30
0.0
 11
451.795
 21
15.186
 31
0.0
  0
LINE
  8
0
 62
     0
 10
451.795
 20
15.186
 30
0.0
 11
451.795
 21
16.1065
 31
0.0
  0
LINE
  8
0
 62
     0
 10
451.795
 20
16.1065
 30
0.0
 11
448.493
 21
16.1065
 31
0.0
  0
LINE
  8
0
 62
     0
 10
448.493
 20
16.1065
 30
0.0
 11
448.493
 21
15.186
 31
0.0
  0
LINE
  8
0
 62
     0
 10
448.493
 20
15.186
 30
0.0
 11
446.768
 21
15.186
 31
0.0
  0
LINE
  8
0
 62
     0
 10
446.768
 20
15.186
 30
0.0
 11
446.768
 21
11.9558
 31
0.0
  0
LINE
  8
0
 62
     0
 10
446.768
 20
11.9558
 30
0.0
 11
445.244
 21
11.9558
 31
0.0
  0
LINE
  8
0
 62
     0
 10
445.244
 20
11.9558
 30
0.0
 11
445.244
 21
16.6563
 31
0.0
  0
LINE
  8
0
 62
     0
 10
445.244
 20
16.6563
 30
0.0
 11
431.246
 21
16.6563
 31
0.0
  0
LINE
  8
0
 62
     0
 10
459.821
 20
16.6563
 30
0.0
 11
473.819
 21
16.6563
 31
0.0
  0
LINE
  8
0
 62
     0
 10
473.819
 20
16.6563
 30
0.0
 11
473.819
 21
2.65686
 31
0.0
  0
LINE
  8
0
 62
     0
 10
473.819
 20
2.65686
 30
0.0
 11
459.821
 21
2.65686
 31
0.0
  0
LINE
  8
0
 62
     0
 10
459.821
 20
2.65686
 30
0.0
 11
459.821
 21
16.6563
 31
0.0
  0
LINE
  8
0
 62
     0
 10
393.146
 20
16.6563
 30
0.0
 11
407.144
 21
16.6563
 31
0.0
  0
LINE
  8
0
 62
     0
 10
407.144
 20
16.6563
 30
0.0
 11
407.144
 21
2.65686
 31
0.0
  0
LINE
  8
0
 62
     0
 10
407.144
 20
2.65686
 30
0.0
 11
393.146
 21
2.65686
 31
0.0
  0
LINE
  8
0
 62
     0
 10
393.146
 20
2.65686
 30
0.0
 11
393.146
 21
16.6563
 31
0.0
  0
LINE
  8
0
 62
     0
 10
374.096
 20
16.6563
 30
0.0
 11
388.094
 21
16.6563
 31
0.0
  0
LINE
  8
0
 62
     0
 10
388.094
 20
16.6563
 30
0.0
 11
388.094
 21
2.65686
 31
0.0
  0
LINE
  8
0
 62
     0
 10
388.094
 20
2.65686
 30
0.0
 11
374.096
 21
2.65686
 31
0.0
  0
LINE
  8
0
 62
     0
 10
374.096
 20
2.65686
 30
0.0
 11
374.096
 21
16.6563
 31
0.0
  0
LINE
  8
0
 62
     0
 10
355.046
 20
16.6563
 30
0.0
 11
369.044
 21
16.6563
 31
0.0
  0
LINE
  8
0
 62
     0
 10
369.044
 20
16.6563
 30
0.0
 11
369.044
 21
2.65686
 31
0.0
  0
LINE
  8
0
 62
     0
 10
369.044
 20
2.65686
 30
0.0
 11
355.046
 21
2.65686
 31
0.0
  0
LINE
  8
0
 62
     0
 10
355.046
 20
2.65686
 30
0.0
 11
355.046
 21
16.6563
 31
0.0
  0
LINE
  8
0
 62
     0
 10
126.445
 20
16.6563
 30
0.0
 11
140.444
 21
16.6563
 31
0.0
  0
LINE
  8
0
 62
     0
 10
140.444
 20
16.6563
 30
0.0
 11
140.444
 21
2.65686
 31
0.0
  0
LINE
  8
0
 62
     0
 10
140.444
 20
2.65686
 30
0.0
 11
126.445
 21
2.65686
 31
0.0
  0
LINE
  8
0
 62
     0
 10
126.445
 20
2.65686
 30
0.0
 11
126.445
 21
16.6563
 31
0.0
  0
LINE
  8
0
 62
     0
 10
107.395
 20
16.6563
 30
0.0
 11
121.394
 21
16.6563
 31
0.0
  0
LINE
  8
0
 62
     0
 10
121.394
 20
16.6563
 30
0.0
 11
121.394
 21
2.65686
 31
0.0
  0
LINE
  8
0
 62
     0
 10
121.394
 20
2.65686
 30
0.0
 11
107.395
 21
2.65686
 31
0.0
  0
LINE
  8
0
 62
     0
 10
107.395
 20
2.65686
 30
0.0
 11
107.395
 21
16.6563
 31
0.0
  0
LINE
  8
0
 62
     0
 10
88.3447
 20
16.6563
 30
0.0
 11
102.344
 21
16.6563
 31
0.0
  0
LINE
  8
0
 62
     0
 10
102.344
 20
16.6563
 30
0.0
 11
102.344
 21
2.65686
 31
0.0
  0
LINE
  8
0
 62
     0
 10
102.344
 20
2.65686
 30
0.0
 11
88.3447
 21
2.65686
 31
0.0
  0
LINE
  8
0
 62
     0
 10
88.3447
 20
2.65686
 30
0.0
 11
88.3447
 21
16.6563
 31
0.0
  0
LINE
  8
0
 62
     0
 10
59.7697
 20
16.6563
 30
0.0
 11
73.769
 21
16.6563
 31
0.0
  0
LINE
  8
0
 62
     0
 10
73.769
 20
16.6563
 30
0.0
 11
73.769
 21
2.65686
 31
0.0
  0
LINE
  8
0
 62
     0
 10
73.769
 20
2.65686
 30
0.0
 11
59.7697
 21
2.65686
 31
0.0
  0
LINE
  8
0
 62
     0
 10
59.7697
 20
2.65686
 30
0.0
 11
59.7697
 21
16.6563
 31
0.0
  0
LINE
  8
0
 62
     0
 10
40.7197
 20
16.6563
 30
0.0
 11
54.719
 21
16.6563
 31
0.0
  0
LINE
  8
0
 62
     0
 10
54.719
 20
16.6563
 30
0.0
 11
54.719
 21
2.65686
 31
0.0
  0
LINE
  8
0
 62
     0
 10
54.719
 20
2.65686
 30
0.0
 11
40.7197
 21
2.65686
 31
0.0
  0
LINE
  8
0
 62
     0
 10
40.7197
 20
2.65686
 30
0.0
 11
40.7197
 21
16.6563
 31
0.0
  0
LINE
  8
0
 62
     0
 10
21.6697
 20
16.6563
 30
0.0
 11
35.669
 21
16.6563
 31
0.0
  0
LINE
  8
0
 62
     0
 10
35.669
 20
16.6563
 30
0.0
 11
35.669
 21
2.65686
 31
0.0
  0
LINE
  8
0
 62
     0
 10
35.669
 20
2.65686
 30
0.0
 11
21.6697
 21
2.65686
 31
0.0
  0
LINE
  8
0
 62
     0
 10
21.6697
 20
2.65686
 30
0.0
 11
21.6697
 21
16.6563
 31
0.0
  0
LINE
  8
0
 62
     0
 10
2.61965
 20
16.6563
 30
0.0
 11
16.6192
 21
16.6563
 31
0.0
  0
LINE
  8
0
 62
     0
 10
16.6192
 20
16.6563
 30
0.0
 11
16.6192
 21
2.65686
 31
0.0
  0
LINE
  8
0
 62
     0
 10
16.6192
 20
2.65686
 30
0.0
 11
2.61965
 21
2.65686
 31
0.0
  0
LINE
  8
0
 62
     0
 10
2.61965
 20
2.65686
 30
0.0
 11
2.61965
 21
16.6563
 31
0.0
  0
LINE
  8
0
 62
     0
 10
485.369
 20
35.282
 30
0.0
 11
485.369
 21
34.4565
 31
0.0
  0
LINE
  8
0
 62
     0
 10
485.369
 20
34.4565
 30
0.0
 11
479.1
 21
34.4565
 31
0.0
  0
LINE
  8
0
 62
     0
 10
479.1
 20
34.4565
 30
0.0
 11
479.1
 21
32.7312
 31
0.0
  0
LINE
  8
0
 62
     0
 10
479.1
 20
32.7312
 30
0.0
 11
478.12
 21
32.7312
 31
0.0
  0
LINE
  8
0
 62
     0
 10
478.12
 20
32.7312
 30
0.0
 11
478.12
 21
29.4308
 31
0.0
  0
LINE
  8
0
 62
     0
 10
478.12
 20
29.4308
 30
0.0
 11
479.1
 21
29.4308
 31
0.0
  0
LINE
  8
0
 62
     0
 10
479.1
 20
29.4308
 30
0.0
 11
479.1
 21
27.7068
 31
0.0
  0
LINE
  8
0
 62
     0
 10
479.1
 20
27.7068
 30
0.0
 11
483.57
 21
27.7068
 31
0.0
  0
LINE
  8
0
 62
     0
 10
483.57
 20
27.7068
 30
0.0
 11
483.57
 21
26.1813
 31
0.0
  0
LINE
  8
0
 62
     0
 10
483.57
 20
26.1813
 30
0.0
 11
478.871
 21
26.1813
 31
0.0
  0
LINE
  8
0
 62
     0
 10
478.871
 20
26.1813
 30
0.0
 11
478.871
 21
12.1819
 31
0.0
  0
LINE
  8
0
 62
     0
 10
478.871
 20
12.1819
 30
0.0
 11
483.57
 21
12.1819
 31
0.0
  0
LINE
  8
0
 62
     0
 10
483.57
 20
12.1819
 30
0.0
 11
483.57
 21
10.6564
 31
0.0
  0
LINE
  8
0
 62
     0
 10
483.57
 20
10.6564
 30
0.0
 11
479.1
 21
10.6564
 31
0.0
  0
LINE
  8
0
 62
     0
 10
479.1
 20
10.6564
 30
0.0
 11
479.1
 21
8.93106
 31
0.0
  0
LINE
  8
0
 62
     0
 10
479.1
 20
8.93106
 30
0.0
 11
478.12
 21
8.93106
 31
0.0
  0
LINE
  8
0
 62
     0
 10
478.12
 20
8.93106
 30
0.0
 11
478.12
 21
5.63065
 31
0.0
  0
LINE
  8
0
 62
     0
 10
478.12
 20
5.63065
 30
0.0
 11
479.1
 21
5.63065
 31
0.0
  0
LINE
  8
0
 62
     0
 10
479.1
 20
5.63065
 30
0.0
 11
479.1
 21
3.90673
 31
0.0
  0
LINE
  8
0
 62
     0
 10
479.1
 20
3.90673
 30
0.0
 11
485.369
 21
3.90673
 31
0.0
  0
LINE
  8
0
 62
     0
 10
485.369
 20
3.90673
 30
0.0
 11
485.369
 21
3.0813
 31
0.0
  0
LINE
  8
0
 62
     0
 10
485.369
 20
3.0813
 30
0.0
 11
488.17
 21
3.0813
 31
0.0
  0
LINE
  8
0
 62
     0
 10
488.17
 20
3.0813
 30
0.0
 11
488.17
 21
3.90673
 31
0.0
  0
LINE
  8
0
 62
     0
 10
488.17
 20
3.90673
 30
0.0
 11
491.402
 21
3.90673
 31
0.0
  0
LINE
  8
0
 62
     0
 10
491.402
 20
3.90673
 30
0.0
 11
491.402
 21
5.63065
 31
0.0
  0
LINE
  8
0
 62
     0
 10
491.402
 20
5.63065
 30
0.0
 11
492.319
 21
5.63065
 31
0.0
  0
LINE
  8
0
 62
     0
 10
492.319
 20
5.63065
 30
0.0
 11
492.319
 21
8.93106
 31
0.0
  0
LINE
  8
0
 62
     0
 10
492.319
 20
8.93106
 30
0.0
 11
491.402
 21
8.93106
 31
0.0
  0
LINE
  8
0
 62
     0
 10
491.402
 20
8.93106
 30
0.0
 11
491.402
 21
10.6564
 31
0.0
  0
LINE
  8
0
 62
     0
 10
491.402
 20
10.6564
 30
0.0
 11
488.17
 21
10.6564
 31
0.0
  0
LINE
  8
0
 62
     0
 10
488.17
 20
10.6564
 30
0.0
 11
488.17
 21
12.1819
 31
0.0
  0
LINE
  8
0
 62
     0
 10
488.17
 20
12.1819
 30
0.0
 11
492.869
 21
12.1819
 31
0.0
  0
LINE
  8
0
 62
     0
 10
492.869
 20
12.1819
 30
0.0
 11
492.869
 21
26.1813
 31
0.0
  0
LINE
  8
0
 62
     0
 10
492.869
 20
26.1813
 30
0.0
 11
488.17
 21
26.1813
 31
0.0
  0
LINE
  8
0
 62
     0
 10
488.17
 20
26.1813
 30
0.0
 11
488.17
 21
27.7068
 31
0.0
  0
LINE
  8
0
 62
     0
 10
488.17
 20
27.7068
 30
0.0
 11
491.402
 21
27.7068
 31
0.0
  0
LINE
  8
0
 62
     0
 10
491.402
 20
27.7068
 30
0.0
 11
491.402
 21
29.4308
 31
0.0
  0
LINE
  8
0
 62
     0
 10
491.402
 20
29.4308
 30
0.0
 11
492.319
 21
29.4308
 31
0.0
  0
LINE
  8
0
 62
     0
 10
492.319
 20
29.4308
 30
0.0
 11
492.319
 21
32.7312
 31
0.0
  0
LINE
  8
0
 62
     0
 10
492.319
 20
32.7312
 30
0.0
 11
491.402
 21
32.7312
 31
0.0
  0
LINE
  8
0
 62
     0
 10
491.402
 20
32.7312
 30
0.0
 11
491.402
 21
34.4565
 31
0.0
  0
LINE
  8
0
 62
     0
 10
491.402
 20
34.4565
 30
0.0
 11
488.17
 21
34.4565
 31
0.0
  0
LINE
  8
0
 62
     0
 10
488.17
 20
34.4565
 30
0.0
 11
488.17
 21
35.282
 31
0.0
  0
LINE
  8
0
 62
     0
 10
488.17
 20
35.282
 30
0.0
 11
485.369
 21
35.282
 31
0.0
  0
LINE
  8
0
 62
     0
 10
278.845
 20
23.1331
 30
0.0
 11
292.844
 21
23.1331
 31
0.0
  0
LINE
  8
0
 62
     0
 10
292.844
 20
23.1331
 30
0.0
 11
292.844
 21
9.13363
 31
0.0
  0
LINE
  8
0
 62
     0
 10
292.844
 20
9.13363
 30
0.0
 11
278.845
 21
9.13363
 31
0.0
  0
LINE
  8
0
 62
     0
 10
278.845
 20
9.13363
 30
0.0
 11
278.845
 21
23.1331
 31
0.0
  0
LINE
  8
0
 62
     0
 10
202.645
 20
23.1331
 30
0.0
 11
216.644
 21
23.1331
 31
0.0
  0
LINE
  8
0
 62
     0
 10
216.644
 20
23.1331
 30
0.0
 11
216.644
 21
9.13363
 31
0.0
  0
LINE
  8
0
 62
     0
 10
216.644
 20
9.13363
 30
0.0
 11
202.645
 21
9.13363
 31
0.0
  0
LINE
  8
0
 62
     0
 10
202.645
 20
9.13363
 30
0.0
 11
202.645
 21
23.1331
 31
0.0
  0
LINE
  8
0
 62
     0
 10
116.918
 20
35.7064
 30
0.0
 11
116.918
 21
31.0059
 31
0.0
  0
LINE
  8
0
 62
     0
 10
116.918
 20
31.0059
 30
0.0
 11
115.394
 21
31.0059
 31
0.0
  0
LINE
  8
0
 62
     0
 10
115.394
 20
31.0059
 30
0.0
 11
115.394
 21
34.236
 31
0.0
  0
LINE
  8
0
 62
     0
 10
115.394
 20
34.236
 30
0.0
 11
113.669
 21
34.236
 31
0.0
  0
LINE
  8
0
 62
     0
 10
113.669
 20
34.236
 30
0.0
 11
113.669
 21
35.1565
 31
0.0
  0
LINE
  8
0
 62
     0
 10
113.669
 20
35.1565
 30
0.0
 11
110.368
 21
35.1565
 31
0.0
  0
LINE
  8
0
 62
     0
 10
110.368
 20
35.1565
 30
0.0
 11
110.368
 21
34.236
 31
0.0
  0
LINE
  8
0
 62
     0
 10
110.368
 20
34.236
 30
0.0
 11
108.643
 21
34.236
 31
0.0
  0
LINE
  8
0
 62
     0
 10
108.643
 20
34.236
 30
0.0
 11
108.643
 21
31.0059
 31
0.0
  0
LINE
  8
0
 62
     0
 10
108.643
 20
31.0059
 30
0.0
 11
107.819
 21
31.0059
 31
0.0
  0
LINE
  8
0
 62
     0
 10
107.819
 20
31.0059
 30
0.0
 11
107.819
 21
28.2057
 31
0.0
  0
LINE
  8
0
 62
     0
 10
107.819
 20
28.2057
 30
0.0
 11
108.643
 21
28.2057
 31
0.0
  0
LINE
  8
0
 62
     0
 10
108.643
 20
28.2057
 30
0.0
 11
108.643
 21
21.9356
 31
0.0
  0
LINE
  8
0
 62
     0
 10
108.643
 20
21.9356
 30
0.0
 11
110.368
 21
21.9356
 31
0.0
  0
LINE
  8
0
 62
     0
 10
110.368
 20
21.9356
 30
0.0
 11
110.368
 21
20.9558
 31
0.0
  0
LINE
  8
0
 62
     0
 10
110.368
 20
20.9558
 30
0.0
 11
113.669
 21
20.9558
 31
0.0
  0
LINE
  8
0
 62
     0
 10
113.669
 20
20.9558
 30
0.0
 11
113.669
 21
21.9356
 31
0.0
  0
LINE
  8
0
 62
     0
 10
113.669
 20
21.9356
 30
0.0
 11
115.394
 21
21.9356
 31
0.0
  0
LINE
  8
0
 62
     0
 10
115.394
 20
21.9356
 30
0.0
 11
115.394
 21
26.406
 31
0.0
  0
LINE
  8
0
 62
     0
 10
115.394
 20
26.406
 30
0.0
 11
116.918
 21
26.406
 31
0.0
  0
LINE
  8
0
 62
     0
 10
116.918
 20
26.406
 30
0.0
 11
116.918
 21
21.7069
 31
0.0
  0
LINE
  8
0
 62
     0
 10
116.918
 20
21.7069
 30
0.0
 11
130.919
 21
21.7069
 31
0.0
  0
LINE
  8
0
 62
     0
 10
130.919
 20
21.7069
 30
0.0
 11
130.919
 21
26.406
 31
0.0
  0
LINE
  8
0
 62
     0
 10
130.919
 20
26.406
 30
0.0
 11
132.445
 21
26.406
 31
0.0
  0
LINE
  8
0
 62
     0
 10
132.445
 20
26.406
 30
0.0
 11
132.445
 21
21.9356
 31
0.0
  0
LINE
  8
0
 62
     0
 10
132.445
 20
21.9356
 30
0.0
 11
134.17
 21
21.9356
 31
0.0
  0
LINE
  8
0
 62
     0
 10
134.17
 20
21.9356
 30
0.0
 11
134.17
 21
20.9558
 31
0.0
  0
LINE
  8
0
 62
     0
 10
134.17
 20
20.9558
 30
0.0
 11
137.469
 21
20.9558
 31
0.0
  0
LINE
  8
0
 62
     0
 10
137.469
 20
20.9558
 30
0.0
 11
137.469
 21
21.9356
 31
0.0
  0
LINE
  8
0
 62
     0
 10
137.469
 20
21.9356
 30
0.0
 11
139.194
 21
21.9356
 31
0.0
  0
LINE
  8
0
 62
     0
 10
139.194
 20
21.9356
 30
0.0
 11
139.194
 21
28.2057
 31
0.0
  0
LINE
  8
0
 62
     0
 10
139.194
 20
28.2057
 30
0.0
 11
140.018
 21
28.2057
 31
0.0
  0
LINE
  8
0
 62
     0
 10
140.018
 20
28.2057
 30
0.0
 11
140.018
 21
31.0059
 31
0.0
  0
LINE
  8
0
 62
     0
 10
140.018
 20
31.0059
 30
0.0
 11
139.194
 21
31.0059
 31
0.0
  0
LINE
  8
0
 62
     0
 10
139.194
 20
31.0059
 30
0.0
 11
139.194
 21
34.236
 31
0.0
  0
LINE
  8
0
 62
     0
 10
139.194
 20
34.236
 30
0.0
 11
137.469
 21
34.236
 31
0.0
  0
LINE
  8
0
 62
     0
 10
137.469
 20
34.236
 30
0.0
 11
137.469
 21
35.1565
 31
0.0
  0
LINE
  8
0
 62
     0
 10
137.469
 20
35.1565
 30
0.0
 11
134.17
 21
35.1565
 31
0.0
  0
LINE
  8
0
 62
     0
 10
134.17
 20
35.1565
 30
0.0
 11
134.17
 21
34.236
 31
0.0
  0
LINE
  8
0
 62
     0
 10
134.17
 20
34.236
 30
0.0
 11
132.445
 21
34.236
 31
0.0
  0
LINE
  8
0
 62
     0
 10
132.445
 20
34.236
 30
0.0
 11
132.445
 21
31.0059
 31
0.0
  0
LINE
  8
0
 62
     0
 10
132.445
 20
31.0059
 30
0.0
 11
130.919
 21
31.0059
 31
0.0
  0
LINE
  8
0
 62
     0
 10
130.919
 20
31.0059
 30
0.0
 11
130.919
 21
35.7064
 31
0.0
  0
LINE
  8
0
 62
     0
 10
130.919
 20
35.7064
 30
0.0
 11
116.918
 21
35.7064
 31
0.0
  0
LINE
  8
0
 62
     0
 10
459.821
 20
35.7064
 30
0.0
 11
473.819
 21
35.7064
 31
0.0
  0
LINE
  8
0
 62
     0
 10
473.819
 20
35.7064
 30
0.0
 11
473.819
 21
21.7069
 31
0.0
  0
LINE
  8
0
 62
     0
 10
473.819
 20
21.7069
 30
0.0
 11
459.821
 21
21.7069
 31
0.0
  0
LINE
  8
0
 62
     0
 10
459.821
 20
21.7069
 30
0.0
 11
459.821
 21
35.7064
 31
0.0
  0
LINE
  8
0
 62
     0
 10
440.771
 20
35.7064
 30
0.0
 11
454.769
 21
35.7064
 31
0.0
  0
LINE
  8
0
 62
     0
 10
454.769
 20
35.7064
 30
0.0
 11
454.769
 21
21.7069
 31
0.0
  0
LINE
  8
0
 62
     0
 10
454.769
 20
21.7069
 30
0.0
 11
440.771
 21
21.7069
 31
0.0
  0
LINE
  8
0
 62
     0
 10
440.771
 20
21.7069
 30
0.0
 11
440.771
 21
35.7064
 31
0.0
  0
LINE
  8
0
 62
     0
 10
421.721
 20
35.7064
 30
0.0
 11
435.719
 21
35.7064
 31
0.0
  0
LINE
  8
0
 62
     0
 10
435.719
 20
35.7064
 30
0.0
 11
435.719
 21
21.7069
 31
0.0
  0
LINE
  8
0
 62
     0
 10
435.719
 20
21.7069
 30
0.0
 11
421.721
 21
21.7069
 31
0.0
  0
LINE
  8
0
 62
     0
 10
421.721
 20
21.7069
 30
0.0
 11
421.721
 21
35.7064
 31
0.0
  0
LINE
  8
0
 62
     0
 10
393.146
 20
35.7064
 30
0.0
 11
407.144
 21
35.7064
 31
0.0
  0
LINE
  8
0
 62
     0
 10
407.144
 20
35.7064
 30
0.0
 11
407.144
 21
21.7069
 31
0.0
  0
LINE
  8
0
 62
     0
 10
407.144
 20
21.7069
 30
0.0
 11
393.146
 21
21.7069
 31
0.0
  0
LINE
  8
0
 62
     0
 10
393.146
 20
21.7069
 30
0.0
 11
393.146
 21
35.7064
 31
0.0
  0
LINE
  8
0
 62
     0
 10
374.096
 20
35.7064
 30
0.0
 11
388.094
 21
35.7064
 31
0.0
  0
LINE
  8
0
 62
     0
 10
388.094
 20
35.7064
 30
0.0
 11
388.094
 21
21.7069
 31
0.0
  0
LINE
  8
0
 62
     0
 10
388.094
 20
21.7069
 30
0.0
 11
374.096
 21
21.7069
 31
0.0
  0
LINE
  8
0
 62
     0
 10
374.096
 20
21.7069
 30
0.0
 11
374.096
 21
35.7064
 31
0.0
  0
LINE
  8
0
 62
     0
 10
355.046
 20
35.7064
 30
0.0
 11
369.044
 21
35.7064
 31
0.0
  0
LINE
  8
0
 62
     0
 10
369.044
 20
35.7064
 30
0.0
 11
369.044
 21
21.7069
 31
0.0
  0
LINE
  8
0
 62
     0
 10
369.044
 20
21.7069
 30
0.0
 11
355.046
 21
21.7069
 31
0.0
  0
LINE
  8
0
 62
     0
 10
355.046
 20
21.7069
 30
0.0
 11
355.046
 21
35.7064
 31
0.0
  0
LINE
  8
0
 62
     0
 10
88.3447
 20
35.7064
 30
0.0
 11
102.344
 21
35.7064
 31
0.0
  0
LINE
  8
0
 62
     0
 10
102.344
 20
35.7064
 30
0.0
 11
102.344
 21
21.7069
 31
0.0
  0
LINE
  8
0
 62
     0
 10
102.344
 20
21.7069
 30
0.0
 11
88.3447
 21
21.7069
 31
0.0
  0
LINE
  8
0
 62
     0
 10
88.3447
 20
21.7069
 30
0.0
 11
88.3447
 21
35.7064
 31
0.0
  0
LINE
  8
0
 62
     0
 10
59.7697
 20
35.7064
 30
0.0
 11
73.769
 21
35.7064
 31
0.0
  0
LINE
  8
0
 62
     0
 10
73.769
 20
35.7064
 30
0.0
 11
73.769
 21
21.7069
 31
0.0
  0
LINE
  8
0
 62
     0
 10
73.769
 20
21.7069
 30
0.0
 11
59.7697
 21
21.7069
 31
0.0
  0
LINE
  8
0
 62
     0
 10
59.7697
 20
21.7069
 30
0.0
 11
59.7697
 21
35.7064
 31
0.0
  0
LINE
  8
0
 62
     0
 10
40.7197
 20
35.7064
 30
0.0
 11
54.719
 21
35.7064
 31
0.0
  0
LINE
  8
0
 62
     0
 10
54.719
 20
35.7064
 30
0.0
 11
54.719
 21
21.7069
 31
0.0
  0
LINE
  8
0
 62
     0
 10
54.719
 20
21.7069
 30
0.0
 11
40.7197
 21
21.7069
 31
0.0
  0
LINE
  8
0
 62
     0
 10
40.7197
 20
21.7069
 30
0.0
 11
40.7197
 21
35.7064
 31
0.0
  0
LINE
  8
0
 62
     0
 10
21.6697
 20
35.7064
 30
0.0
 11
35.669
 21
35.7064
 31
0.0
  0
LINE
  8
0
 62
     0
 10
35.669
 20
35.7064
 30
0.0
 11
35.669
 21
21.7069
 31
0.0
  0
LINE
  8
0
 62
     0
 10
35.669
 20
21.7069
 30
0.0
 11
21.6697
 21
21.7069
 31
0.0
  0
LINE
  8
0
 62
     0
 10
21.6697
 20
21.7069
 30
0.0
 11
21.6697
 21
35.7064
 31
0.0
  0
LINE
  8
0
 62
     0
 10
2.61965
 20
35.7064
 30
0.0
 11
16.6192
 21
35.7064
 31
0.0
  0
LINE
  8
0
 62
     0
 10
16.6192
 20
35.7064
 30
0.0
 11
16.6192
 21
21.7069
 31
0.0
  0
LINE
  8
0
 62
     0
 10
16.6192
 20
21.7069
 30
0.0
 11
2.61965
 21
21.7069
 31
0.0
  0
LINE
  8
0
 62
     0
 10
2.61965
 20
21.7069
 30
0.0
 11
2.61965
 21
35.7064
 31
0.0
  0
LINE
  8
0
 62
     0
 10
278.845
 20
42.183
 30
0.0
 11
292.844
 21
42.183
 31
0.0
  0
LINE
  8
0
 62
     0
 10
292.844
 20
42.183
 30
0.0
 11
292.844
 21
28.1836
 31
0.0
  0
LINE
  8
0
 62
     0
 10
292.844
 20
28.1836
 30
0.0
 11
278.845
 21
28.1836
 31
0.0
  0
LINE
  8
0
 62
     0
 10
278.845
 20
28.1836
 30
0.0
 11
278.845
 21
42.183
 31
0.0
  0
LINE
  8
0
 62
     0
 10
202.645
 20
42.183
 30
0.0
 11
216.644
 21
42.183
 31
0.0
  0
LINE
  8
0
 62
     0
 10
216.644
 20
42.183
 30
0.0
 11
216.644
 21
28.1836
 31
0.0
  0
LINE
  8
0
 62
     0
 10
216.644
 20
28.1836
 30
0.0
 11
202.645
 21
28.1836
 31
0.0
  0
LINE
  8
0
 62
     0
 10
202.645
 20
28.1836
 30
0.0
 11
202.645
 21
42.183
 31
0.0
  0
LINE
  8
0
 62
     0
 10
297.895
 20
44.5657
 30
0.0
 11
311.894
 21
44.5657
 31
0.0
  0
LINE
  8
0
 62
     0
 10
311.894
 20
44.5657
 30
0.0
 11
311.894
 21
30.5649
 31
0.0
  0
LINE
  8
0
 62
     0
 10
311.894
 20
30.5649
 30
0.0
 11
297.895
 21
30.5649
 31
0.0
  0
LINE
  8
0
 62
     0
 10
297.895
 20
30.5649
 30
0.0
 11
297.895
 21
44.5657
 31
0.0
  0
LINE
  8
0
 62
     0
 10
183.595
 20
44.5657
 30
0.0
 11
197.594
 21
44.5657
 31
0.0
  0
LINE
  8
0
 62
     0
 10
197.594
 20
44.5657
 30
0.0
 11
197.594
 21
30.5649
 31
0.0
  0
LINE
  8
0
 62
     0
 10
197.594
 20
30.5649
 30
0.0
 11
183.595
 21
30.5649
 31
0.0
  0
LINE
  8
0
 62
     0
 10
183.595
 20
30.5649
 30
0.0
 11
183.595
 21
44.5657
 31
0.0
  0
LINE
  8
0
 62
     0
 10
335.995
 20
46.9456
 30
0.0
 11
349.994
 21
46.9456
 31
0.0
  0
LINE
  8
0
 62
     0
 10
349.994
 20
46.9456
 30
0.0
 11
349.994
 21
32.9461
 31
0.0
  0
LINE
  8
0
 62
     0
 10
349.994
 20
32.9461
 30
0.0
 11
335.995
 21
32.9461
 31
0.0
  0
LINE
  8
0
 62
     0
 10
335.995
 20
32.9461
 30
0.0
 11
335.995
 21
46.9456
 31
0.0
  0
LINE
  8
0
 62
     0
 10
145.495
 20
46.9456
 30
0.0
 11
159.494
 21
46.9456
 31
0.0
  0
LINE
  8
0
 62
     0
 10
159.494
 20
46.9456
 30
0.0
 11
159.494
 21
32.9461
 31
0.0
  0
LINE
  8
0
 62
     0
 10
159.494
 20
32.9461
 30
0.0
 11
145.495
 21
32.9461
 31
0.0
  0
LINE
  8
0
 62
     0
 10
145.495
 20
32.9461
 30
0.0
 11
145.495
 21
46.9456
 31
0.0
  0
LINE
  8
0
 62
     0
 10
316.945
 20
51.7081
 30
0.0
 11
330.944
 21
51.7081
 31
0.0
  0
LINE
  8
0
 62
     0
 10
330.944
 20
51.7081
 30
0.0
 11
330.944
 21
37.7088
 31
0.0
  0
LINE
  8
0
 62
     0
 10
330.944
 20
37.7088
 30
0.0
 11
316.945
 21
37.7088
 31
0.0
  0
LINE
  8
0
 62
     0
 10
316.945
 20
37.7088
 30
0.0
 11
316.945
 21
51.7081
 31
0.0
  0
LINE
  8
0
 62
     0
 10
164.545
 20
51.7081
 30
0.0
 11
178.544
 21
51.7081
 31
0.0
  0
LINE
  8
0
 62
     0
 10
178.544
 20
51.7081
 30
0.0
 11
178.544
 21
37.7088
 31
0.0
  0
LINE
  8
0
 62
     0
 10
178.544
 20
37.7088
 30
0.0
 11
164.545
 21
37.7088
 31
0.0
  0
LINE
  8
0
 62
     0
 10
164.545
 20
37.7088
 30
0.0
 11
164.545
 21
51.7081
 31
0.0
  0
LINE
  8
0
 62
     0
 10
459.821
 20
54.7564
 30
0.0
 11
473.819
 21
54.7564
 31
0.0
  0
LINE
  8
0
 62
     0
 10
473.819
 20
54.7564
 30
0.0
 11
473.819
 21
40.7568
 31
0.0
  0
LINE
  8
0
 62
     0
 10
473.819
 20
40.7568
 30
0.0
 11
459.821
 21
40.7568
 31
0.0
  0
LINE
  8
0
 62
     0
 10
459.821
 20
40.7568
 30
0.0
 11
459.821
 21
54.7564
 31
0.0
  0
LINE
  8
0
 62
     0
 10
440.771
 20
54.7564
 30
0.0
 11
454.769
 21
54.7564
 31
0.0
  0
LINE
  8
0
 62
     0
 10
454.769
 20
54.7564
 30
0.0
 11
454.769
 21
40.7568
 31
0.0
  0
LINE
  8
0
 62
     0
 10
454.769
 20
40.7568
 30
0.0
 11
440.771
 21
40.7568
 31
0.0
  0
LINE
  8
0
 62
     0
 10
440.771
 20
40.7568
 30
0.0
 11
440.771
 21
54.7564
 31
0.0
  0
LINE
  8
0
 62
     0
 10
421.721
 20
54.7564
 30
0.0
 11
435.719
 21
54.7564
 31
0.0
  0
LINE
  8
0
 62
     0
 10
435.719
 20
54.7564
 30
0.0
 11
435.719
 21
40.7568
 31
0.0
  0
LINE
  8
0
 62
     0
 10
435.719
 20
40.7568
 30
0.0
 11
421.721
 21
40.7568
 31
0.0
  0
LINE
  8
0
 62
     0
 10
421.721
 20
40.7568
 30
0.0
 11
421.721
 21
54.7564
 31
0.0
  0
LINE
  8
0
 62
     0
 10
393.146
 20
54.7564
 30
0.0
 11
407.144
 21
54.7564
 31
0.0
  0
LINE
  8
0
 62
     0
 10
407.144
 20
54.7564
 30
0.0
 11
407.144
 21
40.7568
 31
0.0
  0
LINE
  8
0
 62
     0
 10
407.144
 20
40.7568
 30
0.0
 11
393.146
 21
40.7568
 31
0.0
  0
LINE
  8
0
 62
     0
 10
393.146
 20
40.7568
 30
0.0
 11
393.146
 21
54.7564
 31
0.0
  0
LINE
  8
0
 62
     0
 10
374.096
 20
54.7564
 30
0.0
 11
388.094
 21
54.7564
 31
0.0
  0
LINE
  8
0
 62
     0
 10
388.094
 20
54.7564
 30
0.0
 11
388.094
 21
40.7568
 31
0.0
  0
LINE
  8
0
 62
     0
 10
388.094
 20
40.7568
 30
0.0
 11
374.096
 21
40.7568
 31
0.0
  0
LINE
  8
0
 62
     0
 10
374.096
 20
40.7568
 30
0.0
 11
374.096
 21
54.7564
 31
0.0
  0
LINE
  8
0
 62
     0
 10
355.046
 20
54.7564
 30
0.0
 11
369.044
 21
54.7564
 31
0.0
  0
LINE
  8
0
 62
     0
 10
369.044
 20
54.7564
 30
0.0
 11
369.044
 21
40.7568
 31
0.0
  0
LINE
  8
0
 62
     0
 10
369.044
 20
40.7568
 30
0.0
 11
355.046
 21
40.7568
 31
0.0
  0
LINE
  8
0
 62
     0
 10
355.046
 20
40.7568
 30
0.0
 11
355.046
 21
54.7564
 31
0.0
  0
LINE
  8
0
 62
     0
 10
126.445
 20
54.7564
 30
0.0
 11
140.444
 21
54.7564
 31
0.0
  0
LINE
  8
0
 62
     0
 10
140.444
 20
54.7564
 30
0.0
 11
140.444
 21
40.7568
 31
0.0
  0
LINE
  8
0
 62
     0
 10
140.444
 20
40.7568
 30
0.0
 11
126.445
 21
40.7568
 31
0.0
  0
LINE
  8
0
 62
     0
 10
126.445
 20
40.7568
 30
0.0
 11
126.445
 21
54.7564
 31
0.0
  0
LINE
  8
0
 62
     0
 10
107.395
 20
54.7564
 30
0.0
 11
121.394
 21
54.7564
 31
0.0
  0
LINE
  8
0
 62
     0
 10
121.394
 20
54.7564
 30
0.0
 11
121.394
 21
40.7568
 31
0.0
  0
LINE
  8
0
 62
     0
 10
121.394
 20
40.7568
 30
0.0
 11
107.395
 21
40.7568
 31
0.0
  0
LINE
  8
0
 62
     0
 10
107.395
 20
40.7568
 30
0.0
 11
107.395
 21
54.7564
 31
0.0
  0
LINE
  8
0
 62
     0
 10
88.3447
 20
54.7564
 30
0.0
 11
102.344
 21
54.7564
 31
0.0
  0
LINE
  8
0
 62
     0
 10
102.344
 20
54.7564
 30
0.0
 11
102.344
 21
40.7568
 31
0.0
  0
LINE
  8
0
 62
     0
 10
102.344
 20
40.7568
 30
0.0
 11
88.3447
 21
40.7568
 31
0.0
  0
LINE
  8
0
 62
     0
 10
88.3447
 20
40.7568
 30
0.0
 11
88.3447
 21
54.7564
 31
0.0
  0
LINE
  8
0
 62
     0
 10
59.7697
 20
54.7564
 30
0.0
 11
73.769
 21
54.7564
 31
0.0
  0
LINE
  8
0
 62
     0
 10
73.769
 20
54.7564
 30
0.0
 11
73.769
 21
40.7568
 31
0.0
  0
LINE
  8
0
 62
     0
 10
73.769
 20
40.7568
 30
0.0
 11
59.7697
 21
40.7568
 31
0.0
  0
LINE
  8
0
 62
     0
 10
59.7697
 20
40.7568
 30
0.0
 11
59.7697
 21
54.7564
 31
0.0
  0
LINE
  8
0
 62
     0
 10
40.7197
 20
54.7564
 30
0.0
 11
54.719
 21
54.7564
 31
0.0
  0
LINE
  8
0
 62
     0
 10
54.719
 20
54.7564
 30
0.0
 11
54.719
 21
40.7568
 31
0.0
  0
LINE
  8
0
 62
     0
 10
54.719
 20
40.7568
 30
0.0
 11
40.7197
 21
40.7568
 31
0.0
  0
LINE
  8
0
 62
     0
 10
40.7197
 20
40.7568
 30
0.0
 11
40.7197
 21
54.7564
 31
0.0
  0
LINE
  8
0
 62
     0
 10
21.6697
 20
54.7564
 30
0.0
 11
35.669
 21
54.7564
 31
0.0
  0
LINE
  8
0
 62
     0
 10
35.669
 20
54.7564
 30
0.0
 11
35.669
 21
40.7568
 31
0.0
  0
LINE
  8
0
 62
     0
 10
35.669
 20
40.7568
 30
0.0
 11
21.6697
 21
40.7568
 31
0.0
  0
LINE
  8
0
 62
     0
 10
21.6697
 20
40.7568
 30
0.0
 11
21.6697
 21
54.7564
 31
0.0
  0
LINE
  8
0
 62
     0
 10
2.61965
 20
54.7564
 30
0.0
 11
16.6192
 21
54.7564
 31
0.0
  0
LINE
  8
0
 62
     0
 10
16.6192
 20
54.7564
 30
0.0
 11
16.6192
 21
40.7568
 31
0.0
  0
LINE
  8
0
 62
     0
 10
16.6192
 20
40.7568
 30
0.0
 11
2.61965
 21
40.7568
 31
0.0
  0
LINE
  8
0
 62
     0
 10
2.61965
 20
40.7568
 30
0.0
 11
2.61965
 21
54.7564
 31
0.0
  0
LINE
  8
0
 62
     0
 10
485.369
 20
73.382
 30
0.0
 11
485.369
 21
72.5565
 31
0.0
  0
LINE
  8
0
 62
     0
 10
485.369
 20
72.5565
 30
0.0
 11
479.1
 21
72.5565
 31
0.0
  0
LINE
  8
0
 62
     0
 10
479.1
 20
72.5565
 30
0.0
 11
479.1
 21
70.8311
 31
0.0
  0
LINE
  8
0
 62
     0
 10
479.1
 20
70.8311
 30
0.0
 11
478.12
 21
70.8311
 31
0.0
  0
LINE
  8
0
 62
     0
 10
478.12
 20
70.8311
 30
0.0
 11
478.12
 21
67.5308
 31
0.0
  0
LINE
  8
0
 62
     0
 10
478.12
 20
67.5308
 30
0.0
 11
479.1
 21
67.5308
 31
0.0
  0
LINE
  8
0
 62
     0
 10
479.1
 20
67.5308
 30
0.0
 11
479.1
 21
65.8068
 31
0.0
  0
LINE
  8
0
 62
     0
 10
479.1
 20
65.8068
 30
0.0
 11
483.57
 21
65.8068
 31
0.0
  0
LINE
  8
0
 62
     0
 10
483.57
 20
65.8068
 30
0.0
 11
483.57
 21
64.2814
 31
0.0
  0
LINE
  8
0
 62
     0
 10
483.57
 20
64.2814
 30
0.0
 11
478.871
 21
64.2814
 31
0.0
  0
LINE
  8
0
 62
     0
 10
478.871
 20
64.2814
 30
0.0
 11
478.871
 21
50.2818
 31
0.0
  0
LINE
  8
0
 62
     0
 10
478.871
 20
50.2818
 30
0.0
 11
483.57
 21
50.2818
 31
0.0
  0
LINE
  8
0
 62
     0
 10
483.57
 20
50.2818
 30
0.0
 11
483.57
 21
48.7564
 31
0.0
  0
LINE
  8
0
 62
     0
 10
483.57
 20
48.7564
 30
0.0
 11
479.1
 21
48.7564
 31
0.0
  0
LINE
  8
0
 62
     0
 10
479.1
 20
48.7564
 30
0.0
 11
479.1
 21
47.0309
 31
0.0
  0
LINE
  8
0
 62
     0
 10
479.1
 20
47.0309
 30
0.0
 11
478.12
 21
47.0309
 31
0.0
  0
LINE
  8
0
 62
     0
 10
478.12
 20
47.0309
 30
0.0
 11
478.12
 21
43.7307
 31
0.0
  0
LINE
  8
0
 62
     0
 10
478.12
 20
43.7307
 30
0.0
 11
479.1
 21
43.7307
 31
0.0
  0
LINE
  8
0
 62
     0
 10
479.1
 20
43.7307
 30
0.0
 11
479.1
 21
42.0067
 31
0.0
  0
LINE
  8
0
 62
     0
 10
479.1
 20
42.0067
 30
0.0
 11
485.369
 21
42.0067
 31
0.0
  0
LINE
  8
0
 62
     0
 10
485.369
 20
42.0067
 30
0.0
 11
485.369
 21
41.1812
 31
0.0
  0
LINE
  8
0
 62
     0
 10
485.369
 20
41.1812
 30
0.0
 11
488.17
 21
41.1812
 31
0.0
  0
LINE
  8
0
 62
     0
 10
488.17
 20
41.1812
 30
0.0
 11
488.17
 21
42.0067
 31
0.0
  0
LINE
  8
0
 62
     0
 10
488.17
 20
42.0067
 30
0.0
 11
491.402
 21
42.0067
 31
0.0
  0
LINE
  8
0
 62
     0
 10
491.402
 20
42.0067
 30
0.0
 11
491.402
 21
43.7307
 31
0.0
  0
LINE
  8
0
 62
     0
 10
491.402
 20
43.7307
 30
0.0
 11
492.319
 21
43.7307
 31
0.0
  0
LINE
  8
0
 62
     0
 10
492.319
 20
43.7307
 30
0.0
 11
492.319
 21
47.0309
 31
0.0
  0
LINE
  8
0
 62
     0
 10
492.319
 20
47.0309
 30
0.0
 11
491.402
 21
47.0309
 31
0.0
  0
LINE
  8
0
 62
     0
 10
491.402
 20
47.0309
 30
0.0
 11
491.402
 21
48.7564
 31
0.0
  0
LINE
  8
0
 62
     0
 10
491.402
 20
48.7564
 30
0.0
 11
488.17
 21
48.7564
 31
0.0
  0
LINE
  8
0
 62
     0
 10
488.17
 20
48.7564
 30
0.0
 11
488.17
 21
50.2818
 31
0.0
  0
LINE
  8
0
 62
     0
 10
488.17
 20
50.2818
 30
0.0
 11
492.869
 21
50.2818
 31
0.0
  0
LINE
  8
0
 62
     0
 10
492.869
 20
50.2818
 30
0.0
 11
492.869
 21
64.2814
 31
0.0
  0
LINE
  8
0
 62
     0
 10
492.869
 20
64.2814
 30
0.0
 11
488.17
 21
64.2814
 31
0.0
  0
LINE
  8
0
 62
     0
 10
488.17
 20
64.2814
 30
0.0
 11
488.17
 21
65.8068
 31
0.0
  0
LINE
  8
0
 62
     0
 10
488.17
 20
65.8068
 30
0.0
 11
491.402
 21
65.8068
 31
0.0
  0
LINE
  8
0
 62
     0
 10
491.402
 20
65.8068
 30
0.0
 11
491.402
 21
67.5308
 31
0.0
  0
LINE
  8
0
 62
     0
 10
491.402
 20
67.5308
 30
0.0
 11
492.319
 21
67.5308
 31
0.0
  0
LINE
  8
0
 62
     0
 10
492.319
 20
67.5308
 30
0.0
 11
492.319
 21
70.8311
 31
0.0
  0
LINE
  8
0
 62
     0
 10
492.319
 20
70.8311
 30
0.0
 11
491.402
 21
70.8311
 31
0.0
  0
LINE
  8
0
 62
     0
 10
491.402
 20
70.8311
 30
0.0
 11
491.402
 21
72.5565
 31
0.0
  0
LINE
  8
0
 62
     0
 10
491.402
 20
72.5565
 30
0.0
 11
488.17
 21
72.5565
 31
0.0
  0
LINE
  8
0
 62
     0
 10
488.17
 20
72.5565
 30
0.0
 11
488.17
 21
73.382
 31
0.0
  0
LINE
  8
0
 62
     0
 10
488.17
 20
73.382
 30
0.0
 11
485.369
 21
73.382
 31
0.0
  0
LINE
  8
0
 62
     0
 10
278.845
 20
61.2331
 30
0.0
 11
292.844
 21
61.2331
 31
0.0
  0
LINE
  8
0
 62
     0
 10
292.844
 20
61.2331
 30
0.0
 11
292.844
 21
47.2338
 31
0.0
  0
LINE
  8
0
 62
     0
 10
292.844
 20
47.2338
 30
0.0
 11
278.845
 21
47.2338
 31
0.0
  0
LINE
  8
0
 62
     0
 10
278.845
 20
47.2338
 30
0.0
 11
278.845
 21
61.2331
 31
0.0
  0
LINE
  8
0
 62
     0
 10
202.645
 20
61.2331
 30
0.0
 11
216.644
 21
61.2331
 31
0.0
  0
LINE
  8
0
 62
     0
 10
216.644
 20
61.2331
 30
0.0
 11
216.644
 21
47.2338
 31
0.0
  0
LINE
  8
0
 62
     0
 10
216.644
 20
47.2338
 30
0.0
 11
202.645
 21
47.2338
 31
0.0
  0
LINE
  8
0
 62
     0
 10
202.645
 20
47.2338
 30
0.0
 11
202.645
 21
61.2331
 31
0.0
  0
LINE
  8
0
 62
     0
 10
297.895
 20
63.6157
 30
0.0
 11
311.894
 21
63.6157
 31
0.0
  0
LINE
  8
0
 62
     0
 10
311.894
 20
63.6157
 30
0.0
 11
311.894
 21
49.615
 31
0.0
  0
LINE
  8
0
 62
     0
 10
311.894
 20
49.615
 30
0.0
 11
297.895
 21
49.615
 31
0.0
  0
LINE
  8
0
 62
     0
 10
297.895
 20
49.615
 30
0.0
 11
297.895
 21
63.6157
 31
0.0
  0
LINE
  8
0
 62
     0
 10
183.595
 20
63.6157
 30
0.0
 11
197.594
 21
63.6157
 31
0.0
  0
LINE
  8
0
 62
     0
 10
197.594
 20
63.6157
 30
0.0
 11
197.594
 21
49.615
 31
0.0
  0
LINE
  8
0
 62
     0
 10
197.594
 20
49.615
 30
0.0
 11
183.595
 21
49.615
 31
0.0
  0
LINE
  8
0
 62
     0
 10
183.595
 20
49.615
 30
0.0
 11
183.595
 21
63.6157
 31
0.0
  0
LINE
  8
0
 62
     0
 10
335.995
 20
65.9956
 30
0.0
 11
349.994
 21
65.9956
 31
0.0
  0
LINE
  8
0
 62
     0
 10
349.994
 20
65.9956
 30
0.0
 11
349.994
 21
51.9963
 31
0.0
  0
LINE
  8
0
 62
     0
 10
349.994
 20
51.9963
 30
0.0
 11
335.995
 21
51.9963
 31
0.0
  0
LINE
  8
0
 62
     0
 10
335.995
 20
51.9963
 30
0.0
 11
335.995
 21
65.9956
 31
0.0
  0
LINE
  8
0
 62
     0
 10
145.495
 20
65.9956
 30
0.0
 11
159.494
 21
65.9956
 31
0.0
  0
LINE
  8
0
 62
     0
 10
159.494
 20
65.9956
 30
0.0
 11
159.494
 21
51.9963
 31
0.0
  0
LINE
  8
0
 62
     0
 10
159.494
 20
51.9963
 30
0.0
 11
145.495
 21
51.9963
 31
0.0
  0
LINE
  8
0
 62
     0
 10
145.495
 20
51.9963
 30
0.0
 11
145.495
 21
65.9956
 31
0.0
  0
LINE
  8
0
 62
     0
 10
316.945
 20
70.7581
 30
0.0
 11
330.944
 21
70.7581
 31
0.0
  0
LINE
  8
0
 62
     0
 10
330.944
 20
70.7581
 30
0.0
 11
330.944
 21
56.7588
 31
0.0
  0
LINE
  8
0
 62
     0
 10
330.944
 20
56.7588
 30
0.0
 11
316.945
 21
56.7588
 31
0.0
  0
LINE
  8
0
 62
     0
 10
316.945
 20
56.7588
 30
0.0
 11
316.945
 21
70.7581
 31
0.0
  0
LINE
  8
0
 62
     0
 10
164.545
 20
70.7581
 30
0.0
 11
178.544
 21
70.7581
 31
0.0
  0
LINE
  8
0
 62
     0
 10
178.544
 20
70.7581
 30
0.0
 11
178.544
 21
56.7588
 31
0.0
  0
LINE
  8
0
 62
     0
 10
178.544
 20
56.7588
 30
0.0
 11
164.545
 21
56.7588
 31
0.0
  0
LINE
  8
0
 62
     0
 10
164.545
 20
56.7588
 30
0.0
 11
164.545
 21
70.7581
 31
0.0
  0
LINE
  8
0
 62
     0
 10
459.821
 20
73.8064
 30
0.0
 11
473.819
 21
73.8064
 31
0.0
  0
LINE
  8
0
 62
     0
 10
473.819
 20
73.8064
 30
0.0
 11
473.819
 21
59.8068
 31
0.0
  0
LINE
  8
0
 62
     0
 10
473.819
 20
59.8068
 30
0.0
 11
459.821
 21
59.8068
 31
0.0
  0
LINE
  8
0
 62
     0
 10
459.821
 20
59.8068
 30
0.0
 11
459.821
 21
73.8064
 31
0.0
  0
LINE
  8
0
 62
     0
 10
440.771
 20
73.8064
 30
0.0
 11
454.769
 21
73.8064
 31
0.0
  0
LINE
  8
0
 62
     0
 10
454.769
 20
73.8064
 30
0.0
 11
454.769
 21
59.8068
 31
0.0
  0
LINE
  8
0
 62
     0
 10
454.769
 20
59.8068
 30
0.0
 11
440.771
 21
59.8068
 31
0.0
  0
LINE
  8
0
 62
     0
 10
440.771
 20
59.8068
 30
0.0
 11
440.771
 21
73.8064
 31
0.0
  0
LINE
  8
0
 62
     0
 10
421.721
 20
73.8064
 30
0.0
 11
435.719
 21
73.8064
 31
0.0
  0
LINE
  8
0
 62
     0
 10
435.719
 20
73.8064
 30
0.0
 11
435.719
 21
59.8068
 31
0.0
  0
LINE
  8
0
 62
     0
 10
435.719
 20
59.8068
 30
0.0
 11
421.721
 21
59.8068
 31
0.0
  0
LINE
  8
0
 62
     0
 10
421.721
 20
59.8068
 30
0.0
 11
421.721
 21
73.8064
 31
0.0
  0
LINE
  8
0
 62
     0
 10
393.146
 20
73.8064
 30
0.0
 11
407.144
 21
73.8064
 31
0.0
  0
LINE
  8
0
 62
     0
 10
407.144
 20
73.8064
 30
0.0
 11
407.144
 21
59.8068
 31
0.0
  0
LINE
  8
0
 62
     0
 10
407.144
 20
59.8068
 30
0.0
 11
393.146
 21
59.8068
 31
0.0
  0
LINE
  8
0
 62
     0
 10
393.146
 20
59.8068
 30
0.0
 11
393.146
 21
73.8064
 31
0.0
  0
LINE
  8
0
 62
     0
 10
374.096
 20
73.8064
 30
0.0
 11
388.094
 21
73.8064
 31
0.0
  0
LINE
  8
0
 62
     0
 10
388.094
 20
73.8064
 30
0.0
 11
388.094
 21
59.8068
 31
0.0
  0
LINE
  8
0
 62
     0
 10
388.094
 20
59.8068
 30
0.0
 11
374.096
 21
59.8068
 31
0.0
  0
LINE
  8
0
 62
     0
 10
374.096
 20
59.8068
 30
0.0
 11
374.096
 21
73.8064
 31
0.0
  0
LINE
  8
0
 62
     0
 10
355.046
 20
73.8064
 30
0.0
 11
369.044
 21
73.8064
 31
0.0
  0
LINE
  8
0
 62
     0
 10
369.044
 20
73.8064
 30
0.0
 11
369.044
 21
59.8068
 31
0.0
  0
LINE
  8
0
 62
     0
 10
369.044
 20
59.8068
 30
0.0
 11
355.046
 21
59.8068
 31
0.0
  0
LINE
  8
0
 62
     0
 10
355.046
 20
59.8068
 30
0.0
 11
355.046
 21
73.8064
 31
0.0
  0
LINE
  8
0
 62
     0
 10
126.445
 20
73.8064
 30
0.0
 11
140.444
 21
73.8064
 31
0.0
  0
LINE
  8
0
 62
     0
 10
140.444
 20
73.8064
 30
0.0
 11
140.444
 21
59.8068
 31
0.0
  0
LINE
  8
0
 62
     0
 10
140.444
 20
59.8068
 30
0.0
 11
126.445
 21
59.8068
 31
0.0
  0
LINE
  8
0
 62
     0
 10
126.445
 20
59.8068
 30
0.0
 11
126.445
 21
73.8064
 31
0.0
  0
LINE
  8
0
 62
     0
 10
107.395
 20
73.8064
 30
0.0
 11
121.394
 21
73.8064
 31
0.0
  0
LINE
  8
0
 62
     0
 10
121.394
 20
73.8064
 30
0.0
 11
121.394
 21
59.8068
 31
0.0
  0
LINE
  8
0
 62
     0
 10
121.394
 20
59.8068
 30
0.0
 11
107.395
 21
59.8068
 31
0.0
  0
LINE
  8
0
 62
     0
 10
107.395
 20
59.8068
 30
0.0
 11
107.395
 21
73.8064
 31
0.0
  0
LINE
  8
0
 62
     0
 10
88.3447
 20
73.8064
 30
0.0
 11
102.344
 21
73.8064
 31
0.0
  0
LINE
  8
0
 62
     0
 10
102.344
 20
73.8064
 30
0.0
 11
102.344
 21
59.8068
 31
0.0
  0
LINE
  8
0
 62
     0
 10
102.344
 20
59.8068
 30
0.0
 11
88.3447
 21
59.8068
 31
0.0
  0
LINE
  8
0
 62
     0
 10
88.3447
 20
59.8068
 30
0.0
 11
88.3447
 21
73.8064
 31
0.0
  0
LINE
  8
0
 62
     0
 10
59.7697
 20
73.8064
 30
0.0
 11
73.769
 21
73.8064
 31
0.0
  0
LINE
  8
0
 62
     0
 10
73.769
 20
73.8064
 30
0.0
 11
73.769
 21
59.8068
 31
0.0
  0
LINE
  8
0
 62
     0
 10
73.769
 20
59.8068
 30
0.0
 11
59.7697
 21
59.8068
 31
0.0
  0
LINE
  8
0
 62
     0
 10
59.7697
 20
59.8068
 30
0.0
 11
59.7697
 21
73.8064
 31
0.0
  0
LINE
  8
0
 62
     0
 10
40.7197
 20
73.8064
 30
0.0
 11
54.719
 21
73.8064
 31
0.0
  0
LINE
  8
0
 62
     0
 10
54.719
 20
73.8064
 30
0.0
 11
54.719
 21
59.8068
 31
0.0
  0
LINE
  8
0
 62
     0
 10
54.719
 20
59.8068
 30
0.0
 11
40.7197
 21
59.8068
 31
0.0
  0
LINE
  8
0
 62
     0
 10
40.7197
 20
59.8068
 30
0.0
 11
40.7197
 21
73.8064
 31
0.0
  0
LINE
  8
0
 62
     0
 10
21.6697
 20
73.8064
 30
0.0
 11
35.669
 21
73.8064
 31
0.0
  0
LINE
  8
0
 62
     0
 10
35.669
 20
73.8064
 30
0.0
 11
35.669
 21
59.8068
 31
0.0
  0
LINE
  8
0
 62
     0
 10
35.669
 20
59.8068
 30
0.0
 11
21.6697
 21
59.8068
 31
0.0
  0
LINE
  8
0
 62
     0
 10
21.6697
 20
59.8068
 30
0.0
 11
21.6697
 21
73.8064
 31
0.0
  0
LINE
  8
0
 62
     0
 10
2.61965
 20
73.8064
 30
0.0
 11
16.6192
 21
73.8064
 31
0.0
  0
LINE
  8
0
 62
     0
 10
16.6192
 20
73.8064
 30
0.0
 11
16.6192
 21
59.8068
 31
0.0
  0
LINE
  8
0
 62
     0
 10
16.6192
 20
59.8068
 30
0.0
 11
2.61965
 21
59.8068
 31
0.0
  0
LINE
  8
0
 62
     0
 10
2.61965
 20
59.8068
 30
0.0
 11
2.61965
 21
73.8064
 31
0.0
  0
LINE
  8
0
 62
     0
 10
278.845
 20
80.2831
 30
0.0
 11
292.844
 21
80.2831
 31
0.0
  0
LINE
  8
0
 62
     0
 10
292.844
 20
80.2831
 30
0.0
 11
292.844
 21
66.2838
 31
0.0
  0
LINE
  8
0
 62
     0
 10
292.844
 20
66.2838
 30
0.0
 11
278.845
 21
66.2838
 31
0.0
  0
LINE
  8
0
 62
     0
 10
278.845
 20
66.2838
 30
0.0
 11
278.845
 21
80.2831
 31
0.0
  0
LINE
  8
0
 62
     0
 10
202.645
 20
80.2831
 30
0.0
 11
216.644
 21
80.2831
 31
0.0
  0
LINE
  8
0
 62
     0
 10
216.644
 20
80.2831
 30
0.0
 11
216.644
 21
66.2838
 31
0.0
  0
LINE
  8
0
 62
     0
 10
216.644
 20
66.2838
 30
0.0
 11
202.645
 21
66.2838
 31
0.0
  0
LINE
  8
0
 62
     0
 10
202.645
 20
66.2838
 30
0.0
 11
202.645
 21
80.2831
 31
0.0
  0
LINE
  8
0
 62
     0
 10
297.895
 20
82.6657
 30
0.0
 11
311.894
 21
82.6657
 31
0.0
  0
LINE
  8
0
 62
     0
 10
311.894
 20
82.6657
 30
0.0
 11
311.894
 21
68.665
 31
0.0
  0
LINE
  8
0
 62
     0
 10
311.894
 20
68.665
 30
0.0
 11
297.895
 21
68.665
 31
0.0
  0
LINE
  8
0
 62
     0
 10
297.895
 20
68.665
 30
0.0
 11
297.895
 21
82.6657
 31
0.0
  0
LINE
  8
0
 62
     0
 10
183.595
 20
82.6657
 30
0.0
 11
197.594
 21
82.6657
 31
0.0
  0
LINE
  8
0
 62
     0
 10
197.594
 20
82.6657
 30
0.0
 11
197.594
 21
68.665
 31
0.0
  0
LINE
  8
0
 62
     0
 10
197.594
 20
68.665
 30
0.0
 11
183.595
 21
68.665
 31
0.0
  0
LINE
  8
0
 62
     0
 10
183.595
 20
68.665
 30
0.0
 11
183.595
 21
82.6657
 31
0.0
  0
LINE
  8
0
 62
     0
 10
335.995
 20
85.0456
 30
0.0
 11
349.994
 21
85.0456
 31
0.0
  0
LINE
  8
0
 62
     0
 10
349.994
 20
85.0456
 30
0.0
 11
349.994
 21
71.0463
 31
0.0
  0
LINE
  8
0
 62
     0
 10
349.994
 20
71.0463
 30
0.0
 11
335.995
 21
71.0463
 31
0.0
  0
LINE
  8
0
 62
     0
 10
335.995
 20
71.0463
 30
0.0
 11
335.995
 21
85.0456
 31
0.0
  0
LINE
  8
0
 62
     0
 10
145.495
 20
85.0456
 30
0.0
 11
159.494
 21
85.0456
 31
0.0
  0
LINE
  8
0
 62
     0
 10
159.494
 20
85.0456
 30
0.0
 11
159.494
 21
71.0463
 31
0.0
  0
LINE
  8
0
 62
     0
 10
159.494
 20
71.0463
 30
0.0
 11
145.495
 21
71.0463
 31
0.0
  0
LINE
  8
0
 62
     0
 10
145.495
 20
71.0463
 30
0.0
 11
145.495
 21
85.0456
 31
0.0
  0
LINE
  8
0
 62
     0
 10
316.945
 20
89.8081
 30
0.0
 11
330.944
 21
89.8081
 31
0.0
  0
LINE
  8
0
 62
     0
 10
330.944
 20
89.8081
 30
0.0
 11
330.944
 21
75.8088
 31
0.0
  0
LINE
  8
0
 62
     0
 10
330.944
 20
75.8088
 30
0.0
 11
316.945
 21
75.8088
 31
0.0
  0
LINE
  8
0
 62
     0
 10
316.945
 20
75.8088
 30
0.0
 11
316.945
 21
89.8081
 31
0.0
  0
LINE
  8
0
 62
     0
 10
164.545
 20
89.8081
 30
0.0
 11
178.544
 21
89.8081
 31
0.0
  0
LINE
  8
0
 62
     0
 10
178.544
 20
89.8081
 30
0.0
 11
178.544
 21
75.8088
 31
0.0
  0
LINE
  8
0
 62
     0
 10
178.544
 20
75.8088
 30
0.0
 11
164.545
 21
75.8088
 31
0.0
  0
LINE
  8
0
 62
     0
 10
164.545
 20
75.8088
 30
0.0
 11
164.545
 21
89.8081
 31
0.0
  0
LINE
  8
0
 62
     0
 10
383.621
 20
92.8564
 30
0.0
 11
383.621
 21
88.156
 31
0.0
  0
LINE
  8
0
 62
     0
 10
383.621
 20
88.156
 30
0.0
 11
382.094
 21
88.156
 31
0.0
  0
LINE
  8
0
 62
     0
 10
382.094
 20
88.156
 30
0.0
 11
382.094
 21
91.386
 31
0.0
  0
LINE
  8
0
 62
     0
 10
382.094
 20
91.386
 30
0.0
 11
380.369
 21
91.386
 31
0.0
  0
LINE
  8
0
 62
     0
 10
380.369
 20
91.386
 30
0.0
 11
380.369
 21
92.3064
 31
0.0
  0
LINE
  8
0
 62
     0
 10
380.369
 20
92.3064
 30
0.0
 11
377.07
 21
92.3064
 31
0.0
  0
LINE
  8
0
 62
     0
 10
377.07
 20
92.3064
 30
0.0
 11
377.07
 21
91.386
 31
0.0
  0
LINE
  8
0
 62
     0
 10
377.07
 20
91.386
 30
0.0
 11
375.345
 21
91.386
 31
0.0
  0
LINE
  8
0
 62
     0
 10
375.345
 20
91.386
 30
0.0
 11
375.345
 21
88.156
 31
0.0
  0
LINE
  8
0
 62
     0
 10
375.345
 20
88.156
 30
0.0
 11
374.519
 21
88.156
 31
0.0
  0
LINE
  8
0
 62
     0
 10
374.519
 20
88.156
 30
0.0
 11
374.519
 21
85.3556
 31
0.0
  0
LINE
  8
0
 62
     0
 10
374.519
 20
85.3556
 30
0.0
 11
375.345
 21
85.3556
 31
0.0
  0
LINE
  8
0
 62
     0
 10
375.345
 20
85.3556
 30
0.0
 11
375.345
 21
79.0857
 31
0.0
  0
LINE
  8
0
 62
     0
 10
375.345
 20
79.0857
 30
0.0
 11
377.07
 21
79.0857
 31
0.0
  0
LINE
  8
0
 62
     0
 10
377.07
 20
79.0857
 30
0.0
 11
377.07
 21
78.1057
 31
0.0
  0
LINE
  8
0
 62
     0
 10
377.07
 20
78.1057
 30
0.0
 11
380.369
 21
78.1057
 31
0.0
  0
LINE
  8
0
 62
     0
 10
380.369
 20
78.1057
 30
0.0
 11
380.369
 21
79.0857
 31
0.0
  0
LINE
  8
0
 62
     0
 10
380.369
 20
79.0857
 30
0.0
 11
382.094
 21
79.0857
 31
0.0
  0
LINE
  8
0
 62
     0
 10
382.094
 20
79.0857
 30
0.0
 11
382.094
 21
83.5561
 31
0.0
  0
LINE
  8
0
 62
     0
 10
382.094
 20
83.5561
 30
0.0
 11
383.621
 21
83.5561
 31
0.0
  0
LINE
  8
0
 62
     0
 10
383.621
 20
83.5561
 30
0.0
 11
383.621
 21
78.8568
 31
0.0
  0
LINE
  8
0
 62
     0
 10
383.621
 20
78.8568
 30
0.0
 11
397.619
 21
78.8568
 31
0.0
  0
LINE
  8
0
 62
     0
 10
397.619
 20
78.8568
 30
0.0
 11
397.619
 21
83.5561
 31
0.0
  0
LINE
  8
0
 62
     0
 10
397.619
 20
83.5561
 30
0.0
 11
399.143
 21
83.5561
 31
0.0
  0
LINE
  8
0
 62
     0
 10
399.143
 20
83.5561
 30
0.0
 11
399.143
 21
79.0857
 31
0.0
  0
LINE
  8
0
 62
     0
 10
399.143
 20
79.0857
 30
0.0
 11
400.868
 21
79.0857
 31
0.0
  0
LINE
  8
0
 62
     0
 10
400.868
 20
79.0857
 30
0.0
 11
400.868
 21
78.1057
 31
0.0
  0
LINE
  8
0
 62
     0
 10
400.868
 20
78.1057
 30
0.0
 11
404.17
 21
78.1057
 31
0.0
  0
LINE
  8
0
 62
     0
 10
404.17
 20
78.1057
 30
0.0
 11
404.17
 21
79.0857
 31
0.0
  0
LINE
  8
0
 62
     0
 10
404.17
 20
79.0857
 30
0.0
 11
405.896
 21
79.0857
 31
0.0
  0
LINE
  8
0
 62
     0
 10
405.896
 20
79.0857
 30
0.0
 11
405.896
 21
85.3556
 31
0.0
  0
LINE
  8
0
 62
     0
 10
405.896
 20
85.3556
 30
0.0
 11
406.721
 21
85.3556
 31
0.0
  0
LINE
  8
0
 62
     0
 10
406.721
 20
85.3556
 30
0.0
 11
406.721
 21
88.156
 31
0.0
  0
LINE
  8
0
 62
     0
 10
406.721
 20
88.156
 30
0.0
 11
405.896
 21
88.156
 31
0.0
  0
LINE
  8
0
 62
     0
 10
405.896
 20
88.156
 30
0.0
 11
405.896
 21
91.386
 31
0.0
  0
LINE
  8
0
 62
     0
 10
405.896
 20
91.386
 30
0.0
 11
404.17
 21
91.386
 31
0.0
  0
LINE
  8
0
 62
     0
 10
404.17
 20
91.386
 30
0.0
 11
404.17
 21
92.3064
 31
0.0
  0
LINE
  8
0
 62
     0
 10
404.17
 20
92.3064
 30
0.0
 11
400.868
 21
92.3064
 31
0.0
  0
LINE
  8
0
 62
     0
 10
400.868
 20
92.3064
 30
0.0
 11
400.868
 21
91.386
 31
0.0
  0
LINE
  8
0
 62
     0
 10
400.868
 20
91.386
 30
0.0
 11
399.143
 21
91.386
 31
0.0
  0
LINE
  8
0
 62
     0
 10
399.143
 20
91.386
 30
0.0
 11
399.143
 21
88.156
 31
0.0
  0
LINE
  8
0
 62
     0
 10
399.143
 20
88.156
 30
0.0
 11
397.619
 21
88.156
 31
0.0
  0
LINE
  8
0
 62
     0
 10
397.619
 20
88.156
 30
0.0
 11
397.619
 21
92.8564
 31
0.0
  0
LINE
  8
0
 62
     0
 10
397.619
 20
92.8564
 30
0.0
 11
383.621
 21
92.8564
 31
0.0
  0
LINE
  8
0
 62
     0
 10
478.871
 20
92.8564
 30
0.0
 11
492.869
 21
92.8564
 31
0.0
  0
LINE
  8
0
 62
     0
 10
492.869
 20
92.8564
 30
0.0
 11
492.869
 21
78.8568
 31
0.0
  0
LINE
  8
0
 62
     0
 10
492.869
 20
78.8568
 30
0.0
 11
478.871
 21
78.8568
 31
0.0
  0
LINE
  8
0
 62
     0
 10
478.871
 20
78.8568
 30
0.0
 11
478.871
 21
92.8564
 31
0.0
  0
LINE
  8
0
 62
     0
 10
459.821
 20
92.8564
 30
0.0
 11
473.819
 21
92.8564
 31
0.0
  0
LINE
  8
0
 62
     0
 10
473.819
 20
92.8564
 30
0.0
 11
473.819
 21
78.8568
 31
0.0
  0
LINE
  8
0
 62
     0
 10
473.819
 20
78.8568
 30
0.0
 11
459.821
 21
78.8568
 31
0.0
  0
LINE
  8
0
 62
     0
 10
459.821
 20
78.8568
 30
0.0
 11
459.821
 21
92.8564
 31
0.0
  0
LINE
  8
0
 62
     0
 10
440.771
 20
92.8564
 30
0.0
 11
454.769
 21
92.8564
 31
0.0
  0
LINE
  8
0
 62
     0
 10
454.769
 20
92.8564
 30
0.0
 11
454.769
 21
78.8568
 31
0.0
  0
LINE
  8
0
 62
     0
 10
454.769
 20
78.8568
 30
0.0
 11
440.771
 21
78.8568
 31
0.0
  0
LINE
  8
0
 62
     0
 10
440.771
 20
78.8568
 30
0.0
 11
440.771
 21
92.8564
 31
0.0
  0
LINE
  8
0
 62
     0
 10
421.721
 20
92.8564
 30
0.0
 11
435.719
 21
92.8564
 31
0.0
  0
LINE
  8
0
 62
     0
 10
435.719
 20
92.8564
 30
0.0
 11
435.719
 21
78.8568
 31
0.0
  0
LINE
  8
0
 62
     0
 10
435.719
 20
78.8568
 30
0.0
 11
421.721
 21
78.8568
 31
0.0
  0
LINE
  8
0
 62
     0
 10
421.721
 20
78.8568
 30
0.0
 11
421.721
 21
92.8564
 31
0.0
  0
LINE
  8
0
 62
     0
 10
355.046
 20
92.8564
 30
0.0
 11
369.044
 21
92.8564
 31
0.0
  0
LINE
  8
0
 62
     0
 10
369.044
 20
92.8564
 30
0.0
 11
369.044
 21
78.8568
 31
0.0
  0
LINE
  8
0
 62
     0
 10
369.044
 20
78.8568
 30
0.0
 11
355.046
 21
78.8568
 31
0.0
  0
LINE
  8
0
 62
     0
 10
355.046
 20
78.8568
 30
0.0
 11
355.046
 21
92.8564
 31
0.0
  0
LINE
  8
0
 62
     0
 10
126.445
 20
92.8564
 30
0.0
 11
140.444
 21
92.8564
 31
0.0
  0
LINE
  8
0
 62
     0
 10
140.444
 20
92.8564
 30
0.0
 11
140.444
 21
78.8568
 31
0.0
  0
LINE
  8
0
 62
     0
 10
140.444
 20
78.8568
 30
0.0
 11
126.445
 21
78.8568
 31
0.0
  0
LINE
  8
0
 62
     0
 10
126.445
 20
78.8568
 30
0.0
 11
126.445
 21
92.8564
 31
0.0
  0
LINE
  8
0
 62
     0
 10
107.395
 20
92.8564
 30
0.0
 11
121.394
 21
92.8564
 31
0.0
  0
LINE
  8
0
 62
     0
 10
121.394
 20
92.8564
 30
0.0
 11
121.394
 21
78.8568
 31
0.0
  0
LINE
  8
0
 62
     0
 10
121.394
 20
78.8568
 30
0.0
 11
107.395
 21
78.8568
 31
0.0
  0
LINE
  8
0
 62
     0
 10
107.395
 20
78.8568
 30
0.0
 11
107.395
 21
92.8564
 31
0.0
  0
LINE
  8
0
 62
     0
 10
88.3447
 20
92.8564
 30
0.0
 11
102.344
 21
92.8564
 31
0.0
  0
LINE
  8
0
 62
     0
 10
102.344
 20
92.8564
 30
0.0
 11
102.344
 21
78.8568
 31
0.0
  0
LINE
  8
0
 62
     0
 10
102.344
 20
78.8568
 30
0.0
 11
88.3447
 21
78.8568
 31
0.0
  0
LINE
  8
0
 62
     0
 10
88.3447
 20
78.8568
 30
0.0
 11
88.3447
 21
92.8564
 31
0.0
  0
LINE
  8
0
 62
     0
 10
59.7697
 20
92.8564
 30
0.0
 11
73.769
 21
92.8564
 31
0.0
  0
LINE
  8
0
 62
     0
 10
73.769
 20
92.8564
 30
0.0
 11
73.769
 21
78.8568
 31
0.0
  0
LINE
  8
0
 62
     0
 10
73.769
 20
78.8568
 30
0.0
 11
59.7697
 21
78.8568
 31
0.0
  0
LINE
  8
0
 62
     0
 10
59.7697
 20
78.8568
 30
0.0
 11
59.7697
 21
92.8564
 31
0.0
  0
LINE
  8
0
 62
     0
 10
40.7197
 20
92.8564
 30
0.0
 11
54.719
 21
92.8564
 31
0.0
  0
LINE
  8
0
 62
     0
 10
54.719
 20
92.8564
 30
0.0
 11
54.719
 21
78.8568
 31
0.0
  0
LINE
  8
0
 62
     0
 10
54.719
 20
78.8568
 30
0.0
 11
40.7197
 21
78.8568
 31
0.0
  0
LINE
  8
0
 62
     0
 10
40.7197
 20
78.8568
 30
0.0
 11
40.7197
 21
92.8564
 31
0.0
  0
LINE
  8
0
 62
     0
 10
21.6697
 20
92.8564
 30
0.0
 11
35.669
 21
92.8564
 31
0.0
  0
LINE
  8
0
 62
     0
 10
35.669
 20
92.8564
 30
0.0
 11
35.669
 21
78.8568
 31
0.0
  0
LINE
  8
0
 62
     0
 10
35.669
 20
78.8568
 30
0.0
 11
21.6697
 21
78.8568
 31
0.0
  0
LINE
  8
0
 62
     0
 10
21.6697
 20
78.8568
 30
0.0
 11
21.6697
 21
92.8564
 31
0.0
  0
LINE
  8
0
 62
     0
 10
2.61965
 20
92.8564
 30
0.0
 11
16.6192
 21
92.8564
 31
0.0
  0
LINE
  8
0
 62
     0
 10
16.6192
 20
92.8564
 30
0.0
 11
16.6192
 21
78.8568
 31
0.0
  0
LINE
  8
0
 62
     0
 10
16.6192
 20
78.8568
 30
0.0
 11
2.61965
 21
78.8568
 31
0.0
  0
LINE
  8
0
 62
     0
 10
2.61965
 20
78.8568
 30
0.0
 11
2.61965
 21
92.8564
 31
0.0
  0
LINE
  8
0
 62
     0
 10
278.845
 20
99.3331
 30
0.0
 11
292.844
 21
99.3331
 31
0.0
  0
LINE
  8
0
 62
     0
 10
292.844
 20
99.3331
 30
0.0
 11
292.844
 21
85.3338
 31
0.0
  0
LINE
  8
0
 62
     0
 10
292.844
 20
85.3338
 30
0.0
 11
278.845
 21
85.3338
 31
0.0
  0
LINE
  8
0
 62
     0
 10
278.845
 20
85.3338
 30
0.0
 11
278.845
 21
99.3331
 31
0.0
  0
LINE
  8
0
 62
     0
 10
202.645
 20
99.3331
 30
0.0
 11
216.644
 21
99.3331
 31
0.0
  0
LINE
  8
0
 62
     0
 10
216.644
 20
99.3331
 30
0.0
 11
216.644
 21
85.3338
 31
0.0
  0
LINE
  8
0
 62
     0
 10
216.644
 20
85.3338
 30
0.0
 11
202.645
 21
85.3338
 31
0.0
  0
LINE
  8
0
 62
     0
 10
202.645
 20
85.3338
 30
0.0
 11
202.645
 21
99.3331
 31
0.0
  0
LINE
  8
0
 62
     0
 10
297.895
 20
101.716
 30
0.0
 11
311.894
 21
101.716
 31
0.0
  0
LINE
  8
0
 62
     0
 10
311.894
 20
101.716
 30
0.0
 11
311.894
 21
87.715
 31
0.0
  0
LINE
  8
0
 62
     0
 10
311.894
 20
87.715
 30
0.0
 11
297.895
 21
87.715
 31
0.0
  0
LINE
  8
0
 62
     0
 10
297.895
 20
87.715
 30
0.0
 11
297.895
 21
101.716
 31
0.0
  0
LINE
  8
0
 62
     0
 10
183.595
 20
101.716
 30
0.0
 11
197.594
 21
101.716
 31
0.0
  0
LINE
  8
0
 62
     0
 10
197.594
 20
101.716
 30
0.0
 11
197.594
 21
87.715
 31
0.0
  0
LINE
  8
0
 62
     0
 10
197.594
 20
87.715
 30
0.0
 11
183.595
 21
87.715
 31
0.0
  0
LINE
  8
0
 62
     0
 10
183.595
 20
87.715
 30
0.0
 11
183.595
 21
101.716
 31
0.0
  0
LINE
  8
0
 62
     0
 10
335.995
 20
104.096
 30
0.0
 11
349.994
 21
104.096
 31
0.0
  0
LINE
  8
0
 62
     0
 10
349.994
 20
104.096
 30
0.0
 11
349.994
 21
90.0963
 31
0.0
  0
LINE
  8
0
 62
     0
 10
349.994
 20
90.0963
 30
0.0
 11
335.995
 21
90.0963
 31
0.0
  0
LINE
  8
0
 62
     0
 10
335.995
 20
90.0963
 30
0.0
 11
335.995
 21
104.096
 31
0.0
  0
LINE
  8
0
 62
     0
 10
145.495
 20
104.096
 30
0.0
 11
159.494
 21
104.096
 31
0.0
  0
LINE
  8
0
 62
     0
 10
159.494
 20
104.096
 30
0.0
 11
159.494
 21
90.0963
 31
0.0
  0
LINE
  8
0
 62
     0
 10
159.494
 20
90.0963
 30
0.0
 11
145.495
 21
90.0963
 31
0.0
  0
LINE
  8
0
 62
     0
 10
145.495
 20
90.0963
 30
0.0
 11
145.495
 21
104.096
 31
0.0
  0
LINE
  8
0
 62
     0
 10
316.945
 20
108.858
 30
0.0
 11
330.944
 21
108.858
 31
0.0
  0
LINE
  8
0
 62
     0
 10
330.944
 20
108.858
 30
0.0
 11
330.944
 21
94.8588
 31
0.0
  0
LINE
  8
0
 62
     0
 10
330.944
 20
94.8588
 30
0.0
 11
316.945
 21
94.8588
 31
0.0
  0
LINE
  8
0
 62
     0
 10
316.945
 20
94.8588
 30
0.0
 11
316.945
 21
108.858
 31
0.0
  0
LINE
  8
0
 62
     0
 10
164.545
 20
108.858
 30
0.0
 11
178.544
 21
108.858
 31
0.0
  0
LINE
  8
0
 62
     0
 10
178.544
 20
108.858
 30
0.0
 11
178.544
 21
94.8588
 31
0.0
  0
LINE
  8
0
 62
     0
 10
178.544
 20
94.8588
 30
0.0
 11
164.545
 21
94.8588
 31
0.0
  0
LINE
  8
0
 62
     0
 10
164.545
 20
94.8588
 30
0.0
 11
164.545
 21
108.858
 31
0.0
  0
ENDSEC
  0
EOF
