  0
SECTION
  2
HEADER
  9
$ACADVER
  1
AC1015
  9
$ACADMAINTVER
 70
     6
  9
$DWGCODEPAGE
  3
ANSI_1252
  9
$INSBASE
 10
0.0
 20
0.0
 30
0.0
  9
$EXTMIN
 10
0.0
 20
0.0
 30
0.0
  9
$EXTMAX
 10
594.0
 20
420.0
 30
0.0
  9
$LIMMIN
 10
0.0
 20
0.0
  9
$LIMMAX
 10
594.0
 20
420.0
  9
$ORTHOMODE
 70
     0
  9
$REGENMODE
 70
     1
  9
$FILLMODE
 70
     1
  9
$QTEXTMODE
 70
     0
  9
$MIRRTEXT
 70
     1
  9
$LTSCALE
 40
1.0
  9
$ATTMODE
 70
     1
  9
$TEXTSIZE
 40
3.5
  9
$TRACEWID
 40
1.0
  9
$TEXTSTYLE
  7
Standard
  9
$CLAYER
  8
0
  9
$CELTYPE
  6
ByLayer
  9
$CECOLOR
 62
   256
  9
$CELTSCALE
 40
1.0
  9
$DISPSILH
 70
     0
  9
$DIMSCALE
 40
1.0
  9
$DIMASZ
 40
3.302
  9
$DIMEXO
 40
1.0
  9
$DIMDLI
 40
3.75
  9
$DIMRND
 40
0.0
  9
$DIMDLE
 40
0.0
  9
$DIMEXE
 40
1.0
  9
$DIMTP
 40
0.0
  9
$DIMTM
 40
0.0
  9
$DIMTXT
 40
3.5
  9
$DIMCEN
 40
2.5
  9
$DIMTSZ
 40
0.0
  9
$DIMTOL
 70
     0
  9
$DIMLIM
 70
     0
  9
$DIMTIH
 70
     1
  9
$DIMTOH
 70
     1
  9
$DIMSE1
 70
     0
  9
$DIMSE2
 70
     0
  9
$DIMTAD
 70
     1
  9
$DIMZIN
 70
     1
  9
$DIMBLK
  1

  9
$DIMASO
 70
     1
  9
$DIMSHO
 70
     1
  9
$DIMPOST
  1

  9
$DIMAPOST
  1

  9
$DIMALT
 70
     0
  9
$DIMALTD
 70
     3
  9
$DIMALTF
 40
0.0393700787
  9
$DIMLFAC
 40
1.0
  9
$DIMTOFL
 70
     1
  9
$DIMTVP
 40
0.0
  9
$DIMTIX
 70
     0
  9
$DIMSOXD
 70
     0
  9
$DIMSAH
 70
     0
  9
$DIMBLK1
  1

  9
$DIMBLK2
  1

  9
$DIMSTYLE
  2
ISO-25
  9
$DIMCLRD
 70
     0
  9
$DIMCLRE
 70
     0
  9
$DIMCLRT
 70
     0
  9
$DIMTFAC
 40
1.0
  9
$DIMGAP
 40
1.524
  9
$DIMJUST
 70
     0
  9
$DIMSD1
 70
     0
  9
$DIMSD2
 70
     0
  9
$DIMTOLJ
 70
     0
  9
$DIMTZIN
 70
     1
  9
$DIMALTZ
 70
     0
  9
$DIMALTTZ
 70
     0
  9
$DIMUPT
 70
     0
  9
$DIMDEC
 70
     2
  9
$DIMTDEC
 70
     2
  9
$DIMALTU
 70
     2
  9
$DIMALTTD
 70
     3
  9
$DIMTXSTY
  7
Standard
  9
$DIMAUNIT
 70
     0
  9
$DIMADEC
 70
     2
  9
$DIMALTRND
 40
0.0
  9
$DIMAZIN
 70
     0
  9
$DIMDSEP
 70
    44
  9
$DIMATFIT
 70
     3
  9
$DIMFRAC
 70
     0
  9
$DIMLDRBLK
  1

  9
$DIMLUNIT
 70
     2
  9
$DIMLWD
 70
    -2
  9
$DIMLWE
 70
    -2
  9
$DIMTMOVE
 70
     0
  9
$LUNITS
 70
     2
  9
$LUPREC
 70
     2
  9
$SKETCHINC
 40
1.0
  9
$FILLETRAD
 40
10.0
  9
$AUNITS
 70
     0
  9
$AUPREC
 70
     2
  9
$MENU
  1
.
  9
$ELEVATION
 40
0.0
  9
$PELEVATION
 40
0.0
  9
$THICKNESS
 40
0.0
  9
$LIMCHECK
 70
     0
  9
$CHAMFERA
 40
0.0
  9
$CHAMFERB
 40
0.0
  9
$CHAMFERC
 40
0.0
  9
$CHAMFERD
 40
0.0
  9
$SKPOLY
 70
     0
  9
$TDCREATE
 40
2459680.578047951
  9
$TDUCREATE
 40
2459680.744714618
  9
$TDUPDATE
 40
2459680.578050845
  9
$TDUUPDATE
 40
2459680.744717511
  9
$TDINDWG
 40
0.0000000116
  9
$TDUSRTIMER
 40
0.0000000116
  9
$USRTIMER
 70
     1
  9
$ANGBASE
 50
0.0
  9
$ANGDIR
 70
     0
  9
$PDMODE
 70
     0
  9
$PDSIZE
 40
-1.0
  9
$PLINEWID
 40
0.0
  9
$SPLFRAME
 70
     0
  9
$SPLINETYPE
 70
     6
  9
$SPLINESEGS
 70
     8
  9
$HANDSEED
  5
231
  9
$SURFTAB1
 70
     6
  9
$SURFTAB2
 70
     6
  9
$SURFTYPE
 70
     6
  9
$SURFU
 70
     6
  9
$SURFV
 70
     6
  9
$UCSBASE
  2

  9
$UCSNAME
  2

  9
$UCSORG
 10
0.0
 20
0.0
 30
0.0
  9
$UCSXDIR
 10
1.0
 20
0.0
 30
0.0
  9
$UCSYDIR
 10
0.0
 20
1.0
 30
0.0
  9
$UCSORTHOREF
  2

  9
$UCSORTHOVIEW
 70
     0
  9
$UCSORGTOP
 10
0.0
 20
0.0
 30
0.0
  9
$UCSORGBOTTOM
 10
0.0
 20
0.0
 30
0.0
  9
$UCSORGLEFT
 10
0.0
 20
0.0
 30
0.0
  9
$UCSORGRIGHT
 10
0.0
 20
0.0
 30
0.0
  9
$UCSORGFRONT
 10
0.0
 20
0.0
 30
0.0
  9
$UCSORGBACK
 10
0.0
 20
0.0
 30
0.0
  9
$PUCSBASE
  2

  9
$PUCSNAME
  2

  9
$PUCSORG
 10
0.0
 20
0.0
 30
0.0
  9
$PUCSXDIR
 10
1.0
 20
0.0
 30
0.0
  9
$PUCSYDIR
 10
0.0
 20
1.0
 30
0.0
  9
$PUCSORTHOREF
  2

  9
$PUCSORTHOVIEW
 70
     0
  9
$PUCSORGTOP
 10
0.0
 20
0.0
 30
0.0
  9
$PUCSORGBOTTOM
 10
0.0
 20
0.0
 30
0.0
  9
$PUCSORGLEFT
 10
0.0
 20
0.0
 30
0.0
  9
$PUCSORGRIGHT
 10
0.0
 20
0.0
 30
0.0
  9
$PUCSORGFRONT
 10
0.0
 20
0.0
 30
0.0
  9
$PUCSORGBACK
 10
0.0
 20
0.0
 30
0.0
  9
$USERI1
 70
     0
  9
$USERI2
 70
     0
  9
$USERI3
 70
     0
  9
$USERI4
 70
     0
  9
$USERI5
 70
     0
  9
$USERR1
 40
0.0
  9
$USERR2
 40
0.0
  9
$USERR3
 40
0.0
  9
$USERR4
 40
0.0
  9
$USERR5
 40
0.0
  9
$WORLDVIEW
 70
     1
  9
$SHADEDGE
 70
     3
  9
$SHADEDIF
 70
    70
  9
$TILEMODE
 70
     1
  9
$MAXACTVP
 70
    64
  9
$PINSBASE
 10
0.0
 20
0.0
 30
0.0
  9
$PLIMCHECK
 70
     0
  9
$PEXTMIN
 10
1.0000000000E+20
 20
1.0000000000E+20
 30
1.0000000000E+20
  9
$PEXTMAX
 10
-1.0000000000E+20
 20
-1.0000000000E+20
 30
-1.0000000000E+20
  9
$PLIMMIN
 10
0.0
 20
0.0
  9
$PLIMMAX
 10
420.0
 20
297.0
  9
$UNITMODE
 70
     0
  9
$VISRETAIN
 70
     1
  9
$PLINEGEN
 70
     0
  9
$PSLTSCALE
 70
     1
  9
$TREEDEPTH
 70
  3020
  9
$CMLSTYLE
  2
Standard
  9
$CMLJUST
 70
     0
  9
$CMLSCALE
 40
20.0
  9
$PROXYGRAPHICS
 70
     1
  9
$MEASUREMENT
 70
     1
  9
$CELWEIGHT
370
    -1
  9
$ENDCAPS
280
     0
  9
$JOINSTYLE
280
     0
  9
$LWDISPLAY
290
     1
  9
$INSUNITS
 70
     4
  9
$HYPERLINKBASE
  1

  9
$STYLESHEET
  1

  9
$XEDIT
290
     1
  9
$CEPSNTYPE
380
     0
  9
$PSTYLEMODE
290
     1
  9
$FINGERPRINTGUID
  2
{8348bcc2-a1ee-4adc-8313-49cba075f9d7}
  9
$VERSIONGUID
  2
{FAEB1C32-E019-11D5-929B-00C0DF256EC4}
  9
$EXTNAMES
290
     1
  9
$PSVPSCALE
 40
0.0
  9
$OLESTARTUP
290
     0
  0
ENDSEC
  0
SECTION
  2
CLASSES
  0
CLASS
  1
ACDBDICTIONARYWDFLT
  2
AcDbDictionaryWithDefault
  3
ObjectDBX Classes
 90
        0
280
     0
281
     0
  0
CLASS
  1
VISUALSTYLE
  2
AcDbVisualStyle
  3
ObjectDBX Classes
 90
     4095
280
     0
281
     0
  0
CLASS
  1
MATERIAL
  2
AcDbMaterial
  3
ObjectDBX Classes
 90
     1153
280
     0
281
     0
  0
CLASS
  1
SCALE
  2
AcDbScale
  3
ObjectDBX Classes
 90
     1153
280
     0
281
     0
  0
CLASS
  1
TABLESTYLE
  2
AcDbTableStyle
  3
ObjectDBX Classes
 90
     4095
280
     0
281
     0
  0
CLASS
  1
MLEADERSTYLE
  2
AcDbMLeaderStyle
  3
ACDB_MLEADERSTYLE_CLASS
 90
     4095
280
     0
281
     0
  0
CLASS
  1
SUN
  2
AcDbSun
  3
SCENEOE
 90
     1153
280
     0
281
     0
  0
CLASS
  1
ACDBPLACEHOLDER
  2
AcDbPlaceHolder
  3
ObjectDBX Classes
 90
        0
280
     0
281
     0
  0
CLASS
  1
LAYOUT
  2
AcDbLayout
  3
ObjectDBX Classes
 90
        0
280
     0
281
     0
  0
ENDSEC
  0
SECTION
  2
TABLES
  0
TABLE
  2
VPORT
  5
8
330
0
100
AcDbSymbolTable
 70
     1
  0
VPORT
  5
29
330
8
100
AcDbSymbolTableRecord
100
AcDbViewportTableRecord
  2
*Active
 70
     0
 10
0.0
 20
0.0
 11
1.0
 21
1.0
 12
297.0
 22
210.0
 13
0.0
 23
0.0
 14
10.0
 24
10.0
 15
10.0
 25
10.0
 16
0.0
 26
0.0
 36
1.0
 17
0.0
 27
0.0
 37
0.0
 40
420.0
 41
1.4142857143
 42
50.0
 43
0.0
 44
0.0
 50
0.0
 51
0.0
 71
     0
 72
  2000
 73
     1
 74
     3
 75
     0
 76
     0
 77
     0
 78
     0
281
     0
 65
     1
110
0.0
120
0.0
130
0.0
111
1.0
121
0.0
131
0.0
112
0.0
122
1.0
132
0.0
 79
     0
146
0.0
  0
ENDTAB
  0
TABLE
  2
LTYPE
  5
5
330
0
100
AcDbSymbolTable
 70
     6
  0
LTYPE
  5
14
330
5
100
AcDbSymbolTableRecord
100
AcDbLinetypeTableRecord
  2
ByBlock
 70
     0
  3

 72
    65
 73
     0
 40
0.0
  0
LTYPE
  5
15
330
5
100
AcDbSymbolTableRecord
100
AcDbLinetypeTableRecord
  2
ByLayer
 70
     0
  3

 72
    65
 73
     0
 40
0.0
  0
LTYPE
  5
16
330
5
100
AcDbSymbolTableRecord
100
AcDbLinetypeTableRecord
  2
Continuous
 70
     0
  3
Solid line
 72
    65
 73
     0
 40
0.0
  0
LTYPE
  5
6E
330
5
100
AcDbSymbolTableRecord
100
AcDbLinetypeTableRecord
  2
HIDDEN
 70
     0
  3
Hidden __ __ __ __ __ __ __ __ __ __ __ __ __ __
 72
    65
 73
     2
 40
1.905
 49
1.27
 74
     0
 49
-0.635
 74
     0
  0
LTYPE
  5
6F
330
5
100
AcDbSymbolTableRecord
100
AcDbLinetypeTableRecord
  2
PHANTOM
 70
     0
  3
Phantom ______  __  __  ______  __  __  ______
 72
    65
 73
     6
 40
12.7
 49
6.35
 74
     0
 49
-1.27
 74
     0
 49
1.27
 74
     0
 49
-1.27
 74
     0
 49
1.27
 74
     0
 49
-1.27
 74
     0
  0
LTYPE
  5
70
330
5
100
AcDbSymbolTableRecord
100
AcDbLinetypeTableRecord
  2
CENTER
 70
     0
  3
Center ____ _ ____ _ ____ _ ____ _ ____ _ ____
 72
    65
 73
     4
 40
10.16
 49
6.35
 74
     0
 49
-1.27
 74
     0
 49
1.27
 74
     0
 49
-1.27
 74
     0
  0
LTYPE
  5
71
330
5
100
AcDbSymbolTableRecord
100
AcDbLinetypeTableRecord
  2
CENTERX2
 70
     0
  3
Center (2x) ________  __  ________  __  _____
 72
    65
 73
     4
 40
20.32
 49
12.7
 74
     0
 49
-2.54
 74
     0
 49
2.54
 74
     0
 49
-2.54
 74
     0
  0
LTYPE
  5
72
330
5
100
AcDbSymbolTableRecord
100
AcDbLinetypeTableRecord
  2
DOT2
 70
     0
  3
Dot (.5x) ........................................
 72
    65
 73
     2
 40
0.635
 49
0.0
 74
     0
 49
-0.635
 74
     0
  0
ENDTAB
  0
TABLE
  2
LAYER
  5
2
330
0
100
AcDbSymbolTable
 70
     2
  0
LAYER
  5
10
330
2
100
AcDbSymbolTableRecord
100
AcDbLayerTableRecord
  2
0
 70
     0
 62
     7
  6
Continuous
370
    -3
390
F
  0
LAYER
  5
73
330
2
100
AcDbSymbolTableRecord
100
AcDbLayerTableRecord
  2
SLD-0
 70
     0
 62
   179
  6
Continuous
370
    -3
390
F
  0
ENDTAB
  0
TABLE
  2
STYLE
  5
3
330
0
100
AcDbSymbolTable
 70
     5
  0
STYLE
  5
11
330
3
100
AcDbSymbolTableRecord
100
AcDbTextStyleTableRecord
  2
Standard
 70
     0
 40
0.0
 41
1.0
 50
0.0
 71
     0
 42
3.5
  3
txt
  4

  0
STYLE
  5
1DE
330
3
100
AcDbSymbolTableRecord
100
AcDbTextStyleTableRecord
  2
SLDTEXTSTYLE0
 70
     0
 40
0.0
 41
0.75
 50
0.0
 71
     0
 42
3.5
  3
TXT
  4

  0
STYLE
  5
207
330
3
100
AcDbSymbolTableRecord
100
AcDbTextStyleTableRecord
  2
SLDTEXTSTYLE1
 70
     0
 40
0.0
 41
0.6864493306
 50
0.0
 71
     0
 42
3.5
  3
TXT
  4

  0
STYLE
  5
228
330
3
100
AcDbSymbolTableRecord
100
AcDbTextStyleTableRecord
  2
SLDTEXTSTYLE2
 70
     0
 40
0.0
 41
0.6875
 50
0.0
 71
     0
 42
3.5
  3
TXT
  4

  0
STYLE
  5
22D
330
3
100
AcDbSymbolTableRecord
100
AcDbTextStyleTableRecord
  2
SLDTEXTSTYLE3
 70
     0
 40
0.0
 41
0.7
 50
0.0
 71
     0
 42
3.5
  3
TXT
  4

  0
ENDTAB
  0
TABLE
  2
VIEW
  5
6
330
0
100
AcDbSymbolTable
 70
     0
  0
ENDTAB
  0
TABLE
  2
UCS
  5
7
330
0
100
AcDbSymbolTable
 70
     0
  0
ENDTAB
  0
TABLE
  2
APPID
  5
9
330
0
100
AcDbSymbolTable
 70
     1
  0
APPID
  5
12
330
9
100
AcDbSymbolTableRecord
100
AcDbRegAppTableRecord
  2
ACAD
 70
     0
  0
ENDTAB
  0
TABLE
  2
DIMSTYLE
  5
A
330
0
100
AcDbSymbolTable
 70
     1
100
AcDbDimStyleTable
  0
DIMSTYLE
105
27
330
A
100
AcDbSymbolTableRecord
100
AcDbDimStyleTableRecord
  2
ISO-25
 70
     0
 41
2.5
 42
0.625
 43
3.75
 44
1.25
 73
     0
 74
     0
 77
     1
 78
     8
140
2.5
141
2.5
143
0.0393700787
147
0.625
171
     3
172
     1
178
     0
271
     2
272
     2
274
     3
278
    44
283
     0
284
     8
340
11
  0
ENDTAB
  0
TABLE
  2
BLOCK_RECORD
  5
1
330
0
100
AcDbSymbolTable
 70
     3
  0
BLOCK_RECORD
  5
1F
330
1
100
AcDbSymbolTableRecord
100
AcDbBlockTableRecord
  2
*Model_Space
340
22
  0
BLOCK_RECORD
  5
1B
330
1
100
AcDbSymbolTableRecord
100
AcDbBlockTableRecord
  2
*Paper_Space
340
1E
  0
BLOCK_RECORD
  5
23
330
1
100
AcDbSymbolTableRecord
100
AcDbBlockTableRecord
  2
*Paper_Space0
340
26
  0
BLOCK_RECORD
  5
20D
330
1
100
AcDbSymbolTableRecord
100
AcDbBlockTableRecord
  2
SW_NOTE_0
340
0
102
{BLKREFS
331
216
102
}
  0
BLOCK_RECORD
  5
218
330
1
100
AcDbSymbolTableRecord
100
AcDbBlockTableRecord
  2
SW_NOTE_0_1
340
0
102
{BLKREFS
331
21E
102
}
  0
ENDTAB
  0
ENDSEC
  0
SECTION
  2
BLOCKS
  0
BLOCK
  5
20
330
1F
100
AcDbEntity
  8
0
100
AcDbBlockBegin
  2
*Model_Space
 70
     0
 10
0.0
 20
0.0
 30
0.0
  3
*Model_Space
  1

  0
ENDBLK
  5
21
330
1F
100
AcDbEntity
  8
0
100
AcDbBlockEnd
  0
BLOCK
  5
1C
330
1B
100
AcDbEntity
 67
     1
  8
0
100
AcDbBlockBegin
  2
*Paper_Space
 70
     0
 10
0.0
 20
0.0
 30
0.0
  3
*Paper_Space
  1

  0
ENDBLK
  5
1D
330
1B
100
AcDbEntity
 67
     1
  8
0
100
AcDbBlockEnd
  0
BLOCK
  5
24
330
23
100
AcDbEntity
  8
0
100
AcDbBlockBegin
  2
*Paper_Space0
 70
     0
 10
0.0
 20
0.0
 30
0.0
  3
*Paper_Space0
  1

  0
ENDBLK
  5
25
330
23
100
AcDbEntity
  8
0
100
AcDbBlockEnd
  0
BLOCK
  5
20E
330
20D
100
AcDbEntity
  8
0
100
AcDbBlockBegin
  2
SW_NOTE_0
 70
     0
 10
0.0
 20
0.0
 30
0.0
  3
SW_NOTE_0
  1

  0
MTEXT
  5
210
330
20D
100
AcDbEntity
  8
0
  6
Continuous
 62
     0
370
     0
100
AcDbMText
 10
0.0
 20
1.9336016097
 30
0.0
 40
1.5
 41
0.0
 71
     1
 72
     1
  1
UNLESS OTHERWISE SPECIFIED:
  7
SLDTEXTSTYLE0
 73
     1
 44
1.0
  0
MTEXT
  5
211
330
20D
100
AcDbEntity
  8
0
  6
Continuous
 62
     0
370
     0
100
AcDbMText
 10
0.0
 20
-0.5663983345
 30
0.0
 40
1.5
 41
0.0
 71
     1
 72
     1
  1
DIMENSIONS ARE IN MILLIMETERS
  7
SLDTEXTSTYLE0
 73
     1
 44
1.0
  0
MTEXT
  5
212
330
20D
100
AcDbEntity
  8
0
  6
Continuous
 62
     0
370
     0
100
AcDbMText
 10
0.0
 20
-3.0663982786
 30
0.0
 40
1.5
 41
0.0
 71
     1
 72
     1
  1
SURFACE FINISH:
  7
SLDTEXTSTYLE0
 73
     1
 44
1.0
  0
MTEXT
  5
213
330
20D
100
AcDbEntity
  8
0
  6
Continuous
 62
     0
370
     0
100
AcDbMText
 10
0.0
 20
-5.5663982227
 30
0.0
 40
1.5
 41
0.0
 71
     1
 72
     1
  1
TOLERANCES:
  7
SLDTEXTSTYLE0
 73
     1
 44
1.0
  0
MTEXT
  5
214
330
20D
100
AcDbEntity
  8
0
  6
Continuous
 62
     0
370
     0
100
AcDbMText
 10
1.6875
 20
-8.0663981668
 30
0.0
 40
1.5
 41
0.0
 71
     1
 72
     1
  1
LINEAR:
  7
SLDTEXTSTYLE0
 73
     1
 44
1.0
  0
MTEXT
  5
215
330
20D
100
AcDbEntity
  8
0
  6
Continuous
 62
     0
370
     0
100
AcDbMText
 10
1.6875
 20
-10.5663981109
 30
0.0
 40
1.5
 41
0.0
 71
     1
 72
     1
  1
ANGULAR:
  7
SLDTEXTSTYLE0
 73
     1
 44
1.0
  0
ENDBLK
  5
20F
330
20D
100
AcDbEntity
  8
0
100
AcDbBlockEnd
  0
BLOCK
  5
219
330
218
100
AcDbEntity
  8
0
100
AcDbBlockBegin
  2
SW_NOTE_0_1
 70
     0
 10
0.0
 20
0.0
 30
0.0
  3
SW_NOTE_0_1
  1

  0
MTEXT
  5
21B
330
218
100
AcDbEntity
  8
0
  6
Continuous
 62
     0
370
     0
100
AcDbMText
 10
0.0
 20
1.9336016097
 30
0.0
 40
1.5
 41
0.0
 71
     1
 72
     1
  1
DEBURR AND
  7
SLDTEXTSTYLE0
 73
     1
 44
1.0
  0
MTEXT
  5
21C
330
218
100
AcDbEntity
  8
0
  6
Continuous
 62
     0
370
     0
100
AcDbMText
 10
0.0
 20
-0.5663983345
 30
0.0
 40
1.5
 41
0.0
 71
     1
 72
     1
  1
BREAK SHARP
  7
SLDTEXTSTYLE0
 73
     1
 44
1.0
  0
MTEXT
  5
21D
330
218
100
AcDbEntity
  8
0
  6
Continuous
 62
     0
370
     0
100
AcDbMText
 10
0.0
 20
-3.0663982786
 30
0.0
 40
1.5
 41
0.0
 71
     1
 72
     1
  1
EDGES
  7
SLDTEXTSTYLE0
 73
     1
 44
1.0
  0
ENDBLK
  5
21A
330
218
100
AcDbEntity
  8
0
100
AcDbBlockEnd
  0
ENDSEC
  0
SECTION
  2
ENTITIES
  0
LINE
  5
74
330
1F
100
AcDbEntity
  8
SLD-0
  6
Continuous
100
AcDbLine
 10
37.8193949337
 20
253.5676841039
 30
0.0
 11
550.8250824951
 21
253.5676841039
 31
0.0
  0
LINE
  5
75
330
1F
100
AcDbEntity
  8
SLD-0
  6
Continuous
100
AcDbLine
 10
550.8250824951
 20
253.5676841039
 30
0.0
 11
550.8250824951
 21
138.3386055264
 31
0.0
  0
LINE
  5
76
330
1F
100
AcDbEntity
  8
SLD-0
  6
Continuous
100
AcDbLine
 10
550.8250824951
 20
138.3386055264
 30
0.0
 11
37.8193949337
 21
138.3386055264
 31
0.0
  0
LINE
  5
77
330
1F
100
AcDbEntity
  8
SLD-0
  6
Continuous
100
AcDbLine
 10
37.8193949337
 20
138.3386055264
 30
0.0
 11
37.8193949337
 21
253.5676841039
 31
0.0
  0
LINE
  5
78
330
1F
100
AcDbEntity
  8
SLD-0
  6
Continuous
100
AcDbLine
 10
484.3829111396
 20
160.3787201729
 30
0.0
 11
484.3829111396
 21
155.5101886844
 31
0.0
  0
LINE
  5
79
330
1F
100
AcDbEntity
  8
SLD-0
  6
Continuous
100
AcDbLine
 10
484.3829111396
 20
155.5101886844
 30
0.0
 11
482.8013245886
 21
155.5101886844
 31
0.0
  0
LINE
  5
7A
330
1F
100
AcDbEntity
  8
SLD-0
  6
Continuous
100
AcDbLine
 10
482.8013245886
 20
155.5101886844
 30
0.0
 11
482.8013245886
 21
158.8558605096
 31
0.0
  0
LINE
  5
7B
330
1F
100
AcDbEntity
  8
SLD-0
  6
Continuous
100
AcDbLine
 10
482.8013245886
 20
158.8558605096
 30
0.0
 11
481.0146600172
 21
158.8558605096
 31
0.0
  0
LINE
  5
7C
330
1F
100
AcDbEntity
  8
SLD-0
  6
Continuous
100
AcDbLine
 10
481.0146600172
 20
158.8558605096
 30
0.0
 11
481.0146600172
 21
159.8092661548
 31
0.0
  0
LINE
  5
7D
330
1F
100
AcDbEntity
  8
SLD-0
  6
Continuous
100
AcDbLine
 10
481.0146600172
 20
159.8092661548
 30
0.0
 11
477.5977287587
 21
159.8092661548
 31
0.0
  0
LINE
  5
7E
330
1F
100
AcDbEntity
  8
SLD-0
  6
Continuous
100
AcDbLine
 10
477.5977287587
 20
159.8092661548
 30
0.0
 11
477.5977287587
 21
158.8558605096
 31
0.0
  0
LINE
  5
7F
330
1F
100
AcDbEntity
  8
SLD-0
  6
Continuous
100
AcDbLine
 10
477.5977287587
 20
158.8558605096
 30
0.0
 11
475.8110641874
 21
158.8558605096
 31
0.0
  0
LINE
  5
80
330
1F
100
AcDbEntity
  8
SLD-0
  6
Continuous
100
AcDbLine
 10
475.8110641874
 20
158.8558605096
 30
0.0
 11
475.8110641874
 21
155.5101886844
 31
0.0
  0
LINE
  5
81
330
1F
100
AcDbEntity
  8
SLD-0
  6
Continuous
100
AcDbLine
 10
475.8110641874
 20
155.5101886844
 30
0.0
 11
474.9555366883
 21
155.5101886844
 31
0.0
  0
LINE
  5
82
330
1F
100
AcDbEntity
  8
SLD-0
  6
Continuous
100
AcDbLine
 10
474.9555366883
 20
155.5101886844
 30
0.0
 11
474.9555366883
 21
152.6099711774
 31
0.0
  0
LINE
  5
83
330
1F
100
AcDbEntity
  8
SLD-0
  6
Continuous
100
AcDbLine
 10
474.9555366883
 20
152.6099711774
 30
0.0
 11
475.8110641874
 21
152.6099711774
 31
0.0
  0
LINE
  5
84
330
1F
100
AcDbEntity
  8
SLD-0
  6
Continuous
100
AcDbLine
 10
475.8110641874
 20
152.6099711774
 30
0.0
 11
475.8110641874
 21
146.1157613635
 31
0.0
  0
LINE
  5
85
330
1F
100
AcDbEntity
  8
SLD-0
  6
Continuous
100
AcDbLine
 10
475.8110641874
 20
146.1157613635
 30
0.0
 11
477.5977287587
 21
146.1157613635
 31
0.0
  0
LINE
  5
86
330
1F
100
AcDbEntity
  8
SLD-0
  6
Continuous
100
AcDbLine
 10
477.5977287587
 20
146.1157613635
 30
0.0
 11
477.5977287587
 21
145.1009566019
 31
0.0
  0
LINE
  5
87
330
1F
100
AcDbEntity
  8
SLD-0
  6
Continuous
100
AcDbLine
 10
477.5977287587
 20
145.1009566019
 30
0.0
 11
481.0146600172
 21
145.1009566019
 31
0.0
  0
LINE
  5
88
330
1F
100
AcDbEntity
  8
SLD-0
  6
Continuous
100
AcDbLine
 10
481.0146600172
 20
145.1009566019
 30
0.0
 11
481.0146600172
 21
146.1157613635
 31
0.0
  0
LINE
  5
89
330
1F
100
AcDbEntity
  8
SLD-0
  6
Continuous
100
AcDbLine
 10
481.0146600172
 20
146.1157613635
 30
0.0
 11
482.8013245886
 21
146.1157613635
 31
0.0
  0
LINE
  5
8A
330
1F
100
AcDbEntity
  8
SLD-0
  6
Continuous
100
AcDbLine
 10
482.8013245886
 20
146.1157613635
 30
0.0
 11
482.8013245886
 21
150.745936262
 31
0.0
  0
LINE
  5
8B
330
1F
100
AcDbEntity
  8
SLD-0
  6
Continuous
100
AcDbLine
 10
482.8013245886
 20
150.745936262
 30
0.0
 11
484.3829111396
 21
150.745936262
 31
0.0
  0
LINE
  5
8C
330
1F
100
AcDbEntity
  8
SLD-0
  6
Continuous
100
AcDbLine
 10
484.3829111396
 20
150.745936262
 30
0.0
 11
484.3829111396
 21
145.8788341052
 31
0.0
  0
LINE
  5
8D
330
1F
100
AcDbEntity
  8
SLD-0
  6
Continuous
100
AcDbLine
 10
484.3829111396
 20
145.8788341052
 30
0.0
 11
498.8813057308
 21
145.8788341052
 31
0.0
  0
LINE
  5
8E
330
1F
100
AcDbEntity
  8
SLD-0
  6
Continuous
100
AcDbLine
 10
498.8813057308
 20
145.8788341052
 30
0.0
 11
498.8813057308
 21
150.745936262
 31
0.0
  0
LINE
  5
8F
330
1F
100
AcDbEntity
  8
SLD-0
  6
Continuous
100
AcDbLine
 10
498.8813057308
 20
150.745936262
 30
0.0
 11
500.4597850391
 21
150.745936262
 31
0.0
  0
LINE
  5
90
330
1F
100
AcDbEntity
  8
SLD-0
  6
Continuous
100
AcDbLine
 10
500.4597850391
 20
150.745936262
 30
0.0
 11
500.4597850391
 21
146.1157613635
 31
0.0
  0
LINE
  5
91
330
1F
100
AcDbEntity
  8
SLD-0
  6
Continuous
100
AcDbLine
 10
500.4597850391
 20
146.1157613635
 30
0.0
 11
502.2464496105
 21
146.1157613635
 31
0.0
  0
LINE
  5
92
330
1F
100
AcDbEntity
  8
SLD-0
  6
Continuous
100
AcDbLine
 10
502.2464496105
 20
146.1157613635
 30
0.0
 11
502.2464496105
 21
145.1009566019
 31
0.0
  0
LINE
  5
93
330
1F
100
AcDbEntity
  8
SLD-0
  6
Continuous
100
AcDbLine
 10
502.2464496105
 20
145.1009566019
 30
0.0
 11
505.6664881117
 21
145.1009566019
 31
0.0
  0
LINE
  5
94
330
1F
100
AcDbEntity
  8
SLD-0
  6
Continuous
100
AcDbLine
 10
505.6664881117
 20
145.1009566019
 30
0.0
 11
505.6664881117
 21
146.1157613635
 31
0.0
  0
LINE
  5
95
330
1F
100
AcDbEntity
  8
SLD-0
  6
Continuous
100
AcDbLine
 10
505.6664881117
 20
146.1157613635
 30
0.0
 11
507.4541884306
 21
146.1157613635
 31
0.0
  0
LINE
  5
96
330
1F
100
AcDbEntity
  8
SLD-0
  6
Continuous
100
AcDbLine
 10
507.4541884306
 20
146.1157613635
 30
0.0
 11
507.4541884306
 21
152.6099711774
 31
0.0
  0
LINE
  5
97
330
1F
100
AcDbEntity
  8
SLD-0
  6
Continuous
100
AcDbLine
 10
507.4541884306
 20
152.6099711774
 30
0.0
 11
508.3086801822
 21
152.6099711774
 31
0.0
  0
LINE
  5
98
330
1F
100
AcDbEntity
  8
SLD-0
  6
Continuous
100
AcDbLine
 10
508.3086801822
 20
152.6099711774
 30
0.0
 11
508.3086801822
 21
155.5101886844
 31
0.0
  0
LINE
  5
99
330
1F
100
AcDbEntity
  8
SLD-0
  6
Continuous
100
AcDbLine
 10
508.3086801822
 20
155.5101886844
 30
0.0
 11
507.4541884306
 21
155.5101886844
 31
0.0
  0
LINE
  5
9A
330
1F
100
AcDbEntity
  8
SLD-0
  6
Continuous
100
AcDbLine
 10
507.4541884306
 20
155.5101886844
 30
0.0
 11
507.4541884306
 21
158.8558605096
 31
0.0
  0
LINE
  5
9B
330
1F
100
AcDbEntity
  8
SLD-0
  6
Continuous
100
AcDbLine
 10
507.4541884306
 20
158.8558605096
 30
0.0
 11
505.6664881117
 21
158.8558605096
 31
0.0
  0
LINE
  5
9C
330
1F
100
AcDbEntity
  8
SLD-0
  6
Continuous
100
AcDbLine
 10
505.6664881117
 20
158.8558605096
 30
0.0
 11
505.6664881117
 21
159.8092661548
 31
0.0
  0
LINE
  5
9D
330
1F
100
AcDbEntity
  8
SLD-0
  6
Continuous
100
AcDbLine
 10
505.6664881117
 20
159.8092661548
 30
0.0
 11
502.2464496105
 21
159.8092661548
 31
0.0
  0
LINE
  5
9E
330
1F
100
AcDbEntity
  8
SLD-0
  6
Continuous
100
AcDbLine
 10
502.2464496105
 20
159.8092661548
 30
0.0
 11
502.2464496105
 21
158.8558605096
 31
0.0
  0
LINE
  5
9F
330
1F
100
AcDbEntity
  8
SLD-0
  6
Continuous
100
AcDbLine
 10
502.2464496105
 20
158.8558605096
 30
0.0
 11
500.4597850391
 21
158.8558605096
 31
0.0
  0
LINE
  5
A0
330
1F
100
AcDbEntity
  8
SLD-0
  6
Continuous
100
AcDbLine
 10
500.4597850391
 20
158.8558605096
 30
0.0
 11
500.4597850391
 21
155.5101886844
 31
0.0
  0
LINE
  5
A1
330
1F
100
AcDbEntity
  8
SLD-0
  6
Continuous
100
AcDbLine
 10
500.4597850391
 20
155.5101886844
 30
0.0
 11
498.8813057308
 21
155.5101886844
 31
0.0
  0
LINE
  5
A2
330
1F
100
AcDbEntity
  8
SLD-0
  6
Continuous
100
AcDbLine
 10
498.8813057308
 20
155.5101886844
 30
0.0
 11
498.8813057308
 21
160.3787201729
 31
0.0
  0
LINE
  5
A3
330
1F
100
AcDbEntity
  8
SLD-0
  6
Continuous
100
AcDbLine
 10
498.8813057308
 20
160.3787201729
 30
0.0
 11
484.3829111396
 21
160.3787201729
 31
0.0
  0
LINE
  5
A4
330
1F
100
AcDbEntity
  8
SLD-0
100
AcDbLine
 10
533.7103895228
 20
204.7823160028
 30
0.0
 11
548.2087841141
 21
190.2822642154
 31
0.0
  0
LINE
  5
A5
330
1F
100
AcDbEntity
  8
SLD-0
100
AcDbLine
 10
533.7103895228
 20
165.3202297215
 30
0.0
 11
548.2087841141
 21
150.8203850836
 31
0.0
  0
LINE
  5
A6
330
1F
100
AcDbEntity
  8
SLD-0
100
AcDbLine
 10
484.3829111396
 20
160.3787201729
 30
0.0
 11
498.8813057308
 21
145.8788341052
 31
0.0
  0
LINE
  5
A7
330
1F
100
AcDbEntity
  8
SLD-0
  6
Continuous
100
AcDbLine
 10
540.4406772821
 20
174.7462577009
 30
0.0
 11
540.4406772821
 21
173.8912480756
 31
0.0
  0
LINE
  5
A8
330
1F
100
AcDbEntity
  8
SLD-0
  6
Continuous
100
AcDbLine
 10
540.4406772821
 20
173.8912480756
 30
0.0
 11
533.9475757181
 21
173.8912480756
 31
0.0
  0
LINE
  5
A9
330
1F
100
AcDbEntity
  8
SLD-0
  6
Continuous
100
AcDbLine
 10
533.9475757181
 20
173.8912480756
 30
0.0
 11
533.9475757181
 21
172.10427278
 31
0.0
  0
LINE
  5
AA
330
1F
100
AcDbEntity
  8
SLD-0
  6
Continuous
100
AcDbLine
 10
533.9475757181
 20
172.10427278
 30
0.0
 11
532.932543092
 21
172.10427278
 31
0.0
  0
LINE
  5
AB
330
1F
100
AcDbEntity
  8
SLD-0
  6
Continuous
100
AcDbLine
 10
532.932543092
 20
172.10427278
 30
0.0
 11
532.932543092
 21
168.6858914749
 31
0.0
  0
LINE
  5
AC
330
1F
100
AcDbEntity
  8
SLD-0
  6
Continuous
100
AcDbLine
 10
532.932543092
 20
168.6858914749
 30
0.0
 11
533.9475757181
 21
168.6858914749
 31
0.0
  0
LINE
  5
AD
330
1F
100
AcDbEntity
  8
SLD-0
  6
Continuous
100
AcDbLine
 10
533.9475757181
 20
168.6858914749
 30
0.0
 11
533.9475757181
 21
166.9002626511
 31
0.0
  0
LINE
  5
AE
330
1F
100
AcDbEntity
  8
SLD-0
  6
Continuous
100
AcDbLine
 10
533.9475757181
 20
166.9002626511
 30
0.0
 11
538.57736739
 21
166.9002626511
 31
0.0
  0
LINE
  5
AF
330
1F
100
AcDbEntity
  8
SLD-0
  6
Continuous
100
AcDbLine
 10
538.57736739
 20
166.9002626511
 30
0.0
 11
538.57736739
 21
165.3202297215
 31
0.0
  0
LINE
  5
B0
330
1F
100
AcDbEntity
  8
SLD-0
  6
Continuous
100
AcDbLine
 10
538.57736739
 20
165.3202297215
 30
0.0
 11
533.7103895228
 21
165.3202297215
 31
0.0
  0
LINE
  5
B1
330
1F
100
AcDbEntity
  8
SLD-0
  6
Continuous
100
AcDbLine
 10
533.7103895228
 20
165.3202297215
 30
0.0
 11
533.7103895228
 21
150.8203850836
 31
0.0
  0
LINE
  5
B2
330
1F
100
AcDbEntity
  8
SLD-0
  6
Continuous
100
AcDbLine
 10
533.7103895228
 20
150.8203850836
 30
0.0
 11
538.57736739
 21
150.8203850836
 31
0.0
  0
LINE
  5
B3
330
1F
100
AcDbEntity
  8
SLD-0
  6
Continuous
100
AcDbLine
 10
538.57736739
 20
150.8203850836
 30
0.0
 11
538.57736739
 21
149.240352154
 31
0.0
  0
LINE
  5
B4
330
1F
100
AcDbEntity
  8
SLD-0
  6
Continuous
100
AcDbLine
 10
538.57736739
 20
149.240352154
 30
0.0
 11
533.9475757181
 21
149.240352154
 31
0.0
  0
LINE
  5
B5
330
1F
100
AcDbEntity
  8
SLD-0
  6
Continuous
100
AcDbLine
 10
533.9475757181
 20
149.240352154
 30
0.0
 11
533.9475757181
 21
147.4533354284
 31
0.0
  0
LINE
  5
B6
330
1F
100
AcDbEntity
  8
SLD-0
  6
Continuous
100
AcDbLine
 10
533.9475757181
 20
147.4533354284
 30
0.0
 11
532.932543092
 21
147.4533354284
 31
0.0
  0
LINE
  5
B7
330
1F
100
AcDbEntity
  8
SLD-0
  6
Continuous
100
AcDbLine
 10
532.932543092
 20
147.4533354284
 30
0.0
 11
532.932543092
 21
144.0349437658
 31
0.0
  0
LINE
  5
B8
330
1F
100
AcDbEntity
  8
SLD-0
  6
Continuous
100
AcDbLine
 10
532.932543092
 20
144.0349437658
 30
0.0
 11
533.9475757181
 21
144.0349437658
 31
0.0
  0
LINE
  5
B9
330
1F
100
AcDbEntity
  8
SLD-0
  6
Continuous
100
AcDbLine
 10
533.9475757181
 20
144.0349437658
 30
0.0
 11
533.9475757181
 21
142.2493978019
 31
0.0
  0
LINE
  5
BA
330
1F
100
AcDbEntity
  8
SLD-0
  6
Continuous
100
AcDbLine
 10
533.9475757181
 20
142.2493978019
 30
0.0
 11
540.4406772821
 21
142.2493978019
 31
0.0
  0
LINE
  5
BB
330
1F
100
AcDbEntity
  8
SLD-0
  6
Continuous
100
AcDbLine
 10
540.4406772821
 20
142.2493978019
 30
0.0
 11
540.4406772821
 21
141.3944606789
 31
0.0
  0
LINE
  5
BC
330
1F
100
AcDbEntity
  8
SLD-0
  6
Continuous
100
AcDbLine
 10
540.4406772821
 20
141.3944606789
 30
0.0
 11
543.3418062469
 21
141.3944606789
 31
0.0
  0
LINE
  5
BD
330
1F
100
AcDbEntity
  8
SLD-0
  6
Continuous
100
AcDbLine
 10
543.3418062469
 20
141.3944606789
 30
0.0
 11
543.3418062469
 21
142.2493978019
 31
0.0
  0
LINE
  5
BE
330
1F
100
AcDbEntity
  8
SLD-0
  6
Continuous
100
AcDbLine
 10
543.3418062469
 20
142.2493978019
 30
0.0
 11
546.6893424177
 21
142.2493978019
 31
0.0
  0
LINE
  5
BF
330
1F
100
AcDbEntity
  8
SLD-0
  6
Continuous
100
AcDbLine
 10
546.6893424177
 20
142.2493978019
 30
0.0
 11
546.6893424177
 21
144.0349437658
 31
0.0
  0
LINE
  5
C0
330
1F
100
AcDbEntity
  8
SLD-0
  6
Continuous
100
AcDbLine
 10
546.6893424177
 20
144.0349437658
 30
0.0
 11
547.6391229464
 21
144.0349437658
 31
0.0
  0
LINE
  5
C1
330
1F
100
AcDbEntity
  8
SLD-0
  6
Continuous
100
AcDbLine
 10
547.6391229464
 20
144.0349437658
 30
0.0
 11
547.6391229464
 21
147.4533354284
 31
0.0
  0
LINE
  5
C2
330
1F
100
AcDbEntity
  8
SLD-0
  6
Continuous
100
AcDbLine
 10
547.6391229464
 20
147.4533354284
 30
0.0
 11
546.6893424177
 21
147.4533354284
 31
0.0
  0
LINE
  5
C3
330
1F
100
AcDbEntity
  8
SLD-0
  6
Continuous
100
AcDbLine
 10
546.6893424177
 20
147.4533354284
 30
0.0
 11
546.6893424177
 21
149.240352154
 31
0.0
  0
LINE
  5
C4
330
1F
100
AcDbEntity
  8
SLD-0
  6
Continuous
100
AcDbLine
 10
546.6893424177
 20
149.240352154
 30
0.0
 11
543.3418062469
 21
149.240352154
 31
0.0
  0
LINE
  5
C5
330
1F
100
AcDbEntity
  8
SLD-0
  6
Continuous
100
AcDbLine
 10
543.3418062469
 20
149.240352154
 30
0.0
 11
543.3418062469
 21
150.8203850836
 31
0.0
  0
LINE
  5
C6
330
1F
100
AcDbEntity
  8
SLD-0
  6
Continuous
100
AcDbLine
 10
543.3418062469
 20
150.8203850836
 30
0.0
 11
548.2087841141
 21
150.8203850836
 31
0.0
  0
LINE
  5
C7
330
1F
100
AcDbEntity
  8
SLD-0
  6
Continuous
100
AcDbLine
 10
548.2087841141
 20
150.8203850836
 30
0.0
 11
548.2087841141
 21
165.3202297215
 31
0.0
  0
LINE
  5
C8
330
1F
100
AcDbEntity
  8
SLD-0
  6
Continuous
100
AcDbLine
 10
548.2087841141
 20
165.3202297215
 30
0.0
 11
543.3418062469
 21
165.3202297215
 31
0.0
  0
LINE
  5
C9
330
1F
100
AcDbEntity
  8
SLD-0
  6
Continuous
100
AcDbLine
 10
543.3418062469
 20
165.3202297215
 30
0.0
 11
543.3418062469
 21
166.9002626511
 31
0.0
  0
LINE
  5
CA
330
1F
100
AcDbEntity
  8
SLD-0
  6
Continuous
100
AcDbLine
 10
543.3418062469
 20
166.9002626511
 30
0.0
 11
546.6893424177
 21
166.9002626511
 31
0.0
  0
LINE
  5
CB
330
1F
100
AcDbEntity
  8
SLD-0
  6
Continuous
100
AcDbLine
 10
546.6893424177
 20
166.9002626511
 30
0.0
 11
546.6893424177
 21
168.6858914749
 31
0.0
  0
LINE
  5
CC
330
1F
100
AcDbEntity
  8
SLD-0
  6
Continuous
100
AcDbLine
 10
546.6893424177
 20
168.6858914749
 30
0.0
 11
547.6391229464
 21
168.6858914749
 31
0.0
  0
LINE
  5
CD
330
1F
100
AcDbEntity
  8
SLD-0
  6
Continuous
100
AcDbLine
 10
547.6391229464
 20
168.6858914749
 30
0.0
 11
547.6391229464
 21
172.10427278
 31
0.0
  0
LINE
  5
CE
330
1F
100
AcDbEntity
  8
SLD-0
  6
Continuous
100
AcDbLine
 10
547.6391229464
 20
172.10427278
 30
0.0
 11
546.6893424177
 21
172.10427278
 31
0.0
  0
LINE
  5
CF
330
1F
100
AcDbEntity
  8
SLD-0
  6
Continuous
100
AcDbLine
 10
546.6893424177
 20
172.10427278
 30
0.0
 11
546.6893424177
 21
173.8912480756
 31
0.0
  0
LINE
  5
D0
330
1F
100
AcDbEntity
  8
SLD-0
  6
Continuous
100
AcDbLine
 10
546.6893424177
 20
173.8912480756
 30
0.0
 11
543.3418062469
 21
173.8912480756
 31
0.0
  0
LINE
  5
D1
330
1F
100
AcDbEntity
  8
SLD-0
  6
Continuous
100
AcDbLine
 10
543.3418062469
 20
173.8912480756
 30
0.0
 11
543.3418062469
 21
174.7462577009
 31
0.0
  0
LINE
  5
D2
330
1F
100
AcDbEntity
  8
SLD-0
  6
Continuous
100
AcDbLine
 10
543.3418062469
 20
174.7462577009
 30
0.0
 11
540.4406772821
 21
174.7462577009
 31
0.0
  0
LINE
  5
D3
330
1F
100
AcDbEntity
  8
SLD-0
  6
Continuous
100
AcDbLine
 10
155.824618915
 20
178.8787512454
 30
0.0
 11
155.824618915
 21
174.0102197569
 31
0.0
  0
LINE
  5
D4
330
1F
100
AcDbEntity
  8
SLD-0
  6
Continuous
100
AcDbLine
 10
155.824618915
 20
174.0102197569
 30
0.0
 11
154.2461396067
 21
174.0102197569
 31
0.0
  0
LINE
  5
D5
330
1F
100
AcDbEntity
  8
SLD-0
  6
Continuous
100
AcDbLine
 10
154.2461396067
 20
174.0102197569
 30
0.0
 11
154.2461396067
 21
177.3557880073
 31
0.0
  0
LINE
  5
D6
330
1F
100
AcDbEntity
  8
SLD-0
  6
Continuous
100
AcDbLine
 10
154.2461396067
 20
177.3557880073
 30
0.0
 11
152.4594750354
 21
177.3557880073
 31
0.0
  0
LINE
  5
D7
330
1F
100
AcDbEntity
  8
SLD-0
  6
Continuous
100
AcDbLine
 10
152.4594750354
 20
177.3557880073
 30
0.0
 11
152.4594750354
 21
178.3091936524
 31
0.0
  0
LINE
  5
D8
330
1F
100
AcDbEntity
  8
SLD-0
  6
Continuous
100
AcDbLine
 10
152.4594750354
 20
178.3091936524
 30
0.0
 11
149.0404722817
 21
178.3091936524
 31
0.0
  0
LINE
  5
D9
330
1F
100
AcDbEntity
  8
SLD-0
  6
Continuous
100
AcDbLine
 10
149.0404722817
 20
178.3091936524
 30
0.0
 11
149.0404722817
 21
177.3557880073
 31
0.0
  0
LINE
  5
DA
330
1F
100
AcDbEntity
  8
SLD-0
  6
Continuous
100
AcDbLine
 10
149.0404722817
 20
177.3557880073
 30
0.0
 11
147.2538077104
 21
177.3557880073
 31
0.0
  0
LINE
  5
DB
330
1F
100
AcDbEntity
  8
SLD-0
  6
Continuous
100
AcDbLine
 10
147.2538077104
 20
177.3557880073
 30
0.0
 11
147.2538077104
 21
174.0102197569
 31
0.0
  0
LINE
  5
DC
330
1F
100
AcDbEntity
  8
SLD-0
  6
Continuous
100
AcDbLine
 10
147.2538077104
 20
174.0102197569
 30
0.0
 11
146.4003517064
 21
174.0102197569
 31
0.0
  0
LINE
  5
DD
330
1F
100
AcDbEntity
  8
SLD-0
  6
Continuous
100
AcDbLine
 10
146.4003517064
 20
174.0102197569
 30
0.0
 11
146.4003517064
 21
171.1099193901
 31
0.0
  0
LINE
  5
DE
330
1F
100
AcDbEntity
  8
SLD-0
  6
Continuous
100
AcDbLine
 10
146.4003517064
 20
171.1099193901
 30
0.0
 11
147.2538077104
 21
171.1099193901
 31
0.0
  0
LINE
  5
DF
330
1F
100
AcDbEntity
  8
SLD-0
  6
Continuous
100
AcDbLine
 10
147.2538077104
 20
171.1099193901
 30
0.0
 11
147.2538077104
 21
164.6156785037
 31
0.0
  0
LINE
  5
E0
330
1F
100
AcDbEntity
  8
SLD-0
  6
Continuous
100
AcDbLine
 10
147.2538077104
 20
164.6156785037
 30
0.0
 11
149.0404722817
 21
164.6156785037
 31
0.0
  0
LINE
  5
E1
330
1F
100
AcDbEntity
  8
SLD-0
  6
Continuous
100
AcDbLine
 10
149.0404722817
 20
164.6156785037
 30
0.0
 11
149.0404722817
 21
163.6008530272
 31
0.0
  0
LINE
  5
E2
330
1F
100
AcDbEntity
  8
SLD-0
  6
Continuous
100
AcDbLine
 10
149.0404722817
 20
163.6008530272
 30
0.0
 11
152.4594750354
 21
163.6008530272
 31
0.0
  0
LINE
  5
E3
330
1F
100
AcDbEntity
  8
SLD-0
  6
Continuous
100
AcDbLine
 10
152.4594750354
 20
163.6008530272
 30
0.0
 11
152.4594750354
 21
164.6156785037
 31
0.0
  0
LINE
  5
E4
330
1F
100
AcDbEntity
  8
SLD-0
  6
Continuous
100
AcDbLine
 10
152.4594750354
 20
164.6156785037
 30
0.0
 11
154.2461396067
 21
164.6156785037
 31
0.0
  0
LINE
  5
E5
330
1F
100
AcDbEntity
  8
SLD-0
  6
Continuous
100
AcDbLine
 10
154.2461396067
 20
164.6156785037
 30
0.0
 11
154.2461396067
 21
169.2458844747
 31
0.0
  0
LINE
  5
E6
330
1F
100
AcDbEntity
  8
SLD-0
  6
Continuous
100
AcDbLine
 10
154.2461396067
 20
169.2458844747
 30
0.0
 11
155.824618915
 21
169.2458844747
 31
0.0
  0
LINE
  5
E7
330
1F
100
AcDbEntity
  8
SLD-0
  6
Continuous
100
AcDbLine
 10
155.824618915
 20
169.2458844747
 30
0.0
 11
155.824618915
 21
164.3788030327
 31
0.0
  0
LINE
  5
E8
330
1F
100
AcDbEntity
  8
SLD-0
  6
Continuous
100
AcDbLine
 10
155.824618915
 20
164.3788030327
 30
0.0
 11
170.326120749
 21
164.3788030327
 31
0.0
  0
LINE
  5
E9
330
1F
100
AcDbEntity
  8
SLD-0
  6
Continuous
100
AcDbLine
 10
170.326120749
 20
164.3788030327
 30
0.0
 11
170.326120749
 21
169.2458844747
 31
0.0
  0
LINE
  5
EA
330
1F
100
AcDbEntity
  8
SLD-0
  6
Continuous
100
AcDbLine
 10
170.326120749
 20
169.2458844747
 30
0.0
 11
171.9066715524
 21
169.2458844747
 31
0.0
  0
LINE
  5
EB
330
1F
100
AcDbEntity
  8
SLD-0
  6
Continuous
100
AcDbLine
 10
171.9066715524
 20
169.2458844747
 30
0.0
 11
171.9066715524
 21
164.6156785037
 31
0.0
  0
LINE
  5
EC
330
1F
100
AcDbEntity
  8
SLD-0
  6
Continuous
100
AcDbLine
 10
171.9066715524
 20
164.6156785037
 30
0.0
 11
173.6933361238
 21
164.6156785037
 31
0.0
  0
LINE
  5
ED
330
1F
100
AcDbEntity
  8
SLD-0
  6
Continuous
100
AcDbLine
 10
173.6933361238
 20
164.6156785037
 30
0.0
 11
173.6933361238
 21
163.6008530272
 31
0.0
  0
LINE
  5
EE
330
1F
100
AcDbEntity
  8
SLD-0
  6
Continuous
100
AcDbLine
 10
173.6933361238
 20
163.6008530272
 30
0.0
 11
177.1102673823
 21
163.6008530272
 31
0.0
  0
LINE
  5
EF
330
1F
100
AcDbEntity
  8
SLD-0
  6
Continuous
100
AcDbLine
 10
177.1102673823
 20
163.6008530272
 30
0.0
 11
177.1102673823
 21
164.6156785037
 31
0.0
  0
LINE
  5
F0
330
1F
100
AcDbEntity
  8
SLD-0
  6
Continuous
100
AcDbLine
 10
177.1102673823
 20
164.6156785037
 30
0.0
 11
178.8969319536
 21
164.6156785037
 31
0.0
  0
LINE
  5
F1
330
1F
100
AcDbEntity
  8
SLD-0
  6
Continuous
100
AcDbLine
 10
178.8969319536
 20
164.6156785037
 30
0.0
 11
178.8969319536
 21
171.1099193901
 31
0.0
  0
LINE
  5
F2
330
1F
100
AcDbEntity
  8
SLD-0
  6
Continuous
100
AcDbLine
 10
178.8969319536
 20
171.1099193901
 30
0.0
 11
179.7503879576
 21
171.1099193901
 31
0.0
  0
LINE
  5
F3
330
1F
100
AcDbEntity
  8
SLD-0
  6
Continuous
100
AcDbLine
 10
179.7503879576
 20
171.1099193901
 30
0.0
 11
179.7503879576
 21
174.0102197569
 31
0.0
  0
LINE
  5
F4
330
1F
100
AcDbEntity
  8
SLD-0
  6
Continuous
100
AcDbLine
 10
179.7503879576
 20
174.0102197569
 30
0.0
 11
178.8969319536
 21
174.0102197569
 31
0.0
  0
LINE
  5
F5
330
1F
100
AcDbEntity
  8
SLD-0
  6
Continuous
100
AcDbLine
 10
178.8969319536
 20
174.0102197569
 30
0.0
 11
178.8969319536
 21
177.3557880073
 31
0.0
  0
LINE
  5
F6
330
1F
100
AcDbEntity
  8
SLD-0
  6
Continuous
100
AcDbLine
 10
178.8969319536
 20
177.3557880073
 30
0.0
 11
177.1102673823
 21
177.3557880073
 31
0.0
  0
LINE
  5
F7
330
1F
100
AcDbEntity
  8
SLD-0
  6
Continuous
100
AcDbLine
 10
177.1102673823
 20
177.3557880073
 30
0.0
 11
177.1102673823
 21
178.3091936524
 31
0.0
  0
LINE
  5
F8
330
1F
100
AcDbEntity
  8
SLD-0
  6
Continuous
100
AcDbLine
 10
177.1102673823
 20
178.3091936524
 30
0.0
 11
173.6933361238
 21
178.3091936524
 31
0.0
  0
LINE
  5
F9
330
1F
100
AcDbEntity
  8
SLD-0
  6
Continuous
100
AcDbLine
 10
173.6933361238
 20
178.3091936524
 30
0.0
 11
173.6933361238
 21
177.3557880073
 31
0.0
  0
LINE
  5
FA
330
1F
100
AcDbEntity
  8
SLD-0
  6
Continuous
100
AcDbLine
 10
173.6933361238
 20
177.3557880073
 30
0.0
 11
171.9066715524
 21
177.3557880073
 31
0.0
  0
LINE
  5
FB
330
1F
100
AcDbEntity
  8
SLD-0
  6
Continuous
100
AcDbLine
 10
171.9066715524
 20
177.3557880073
 30
0.0
 11
171.9066715524
 21
174.0102197569
 31
0.0
  0
LINE
  5
FC
330
1F
100
AcDbEntity
  8
SLD-0
  6
Continuous
100
AcDbLine
 10
171.9066715524
 20
174.0102197569
 30
0.0
 11
170.326120749
 21
174.0102197569
 31
0.0
  0
LINE
  5
FD
330
1F
100
AcDbEntity
  8
SLD-0
  6
Continuous
100
AcDbLine
 10
170.326120749
 20
174.0102197569
 30
0.0
 11
170.326120749
 21
178.8787512454
 31
0.0
  0
LINE
  5
FE
330
1F
100
AcDbEntity
  8
SLD-0
  6
Continuous
100
AcDbLine
 10
170.326120749
 20
178.8787512454
 30
0.0
 11
155.824618915
 21
178.8787512454
 31
0.0
  0
LINE
  5
FF
330
1F
100
AcDbEntity
  8
SLD-0
  6
Continuous
100
AcDbLine
 10
540.4406772821
 20
214.2082404075
 30
0.0
 11
540.4406772821
 21
213.3532307822
 31
0.0
  0
LINE
  5
100
330
1F
100
AcDbEntity
  8
SLD-0
  6
Continuous
100
AcDbLine
 10
540.4406772821
 20
213.3532307822
 30
0.0
 11
533.9475757181
 21
213.3532307822
 31
0.0
  0
LINE
  5
101
330
1F
100
AcDbEntity
  8
SLD-0
  6
Continuous
100
AcDbLine
 10
533.9475757181
 20
213.3532307822
 30
0.0
 11
533.9475757181
 21
211.5661519118
 31
0.0
  0
LINE
  5
102
330
1F
100
AcDbEntity
  8
SLD-0
  6
Continuous
100
AcDbLine
 10
533.9475757181
 20
211.5661519118
 30
0.0
 11
532.932543092
 21
211.5661519118
 31
0.0
  0
LINE
  5
103
330
1F
100
AcDbEntity
  8
SLD-0
  6
Continuous
100
AcDbLine
 10
532.932543092
 20
211.5661519118
 30
0.0
 11
532.932543092
 21
208.1478741815
 31
0.0
  0
LINE
  5
104
330
1F
100
AcDbEntity
  8
SLD-0
  6
Continuous
100
AcDbLine
 10
532.932543092
 20
208.1478741815
 30
0.0
 11
533.9475757181
 21
208.1478741815
 31
0.0
  0
LINE
  5
105
330
1F
100
AcDbEntity
  8
SLD-0
  6
Continuous
100
AcDbLine
 10
533.9475757181
 20
208.1478741815
 30
0.0
 11
533.9475757181
 21
206.3622453577
 31
0.0
  0
LINE
  5
106
330
1F
100
AcDbEntity
  8
SLD-0
  6
Continuous
100
AcDbLine
 10
533.9475757181
 20
206.3622453577
 30
0.0
 11
538.57736739
 21
206.3622453577
 31
0.0
  0
LINE
  5
107
330
1F
100
AcDbEntity
  8
SLD-0
  6
Continuous
100
AcDbLine
 10
538.57736739
 20
206.3622453577
 30
0.0
 11
538.57736739
 21
204.7823160028
 31
0.0
  0
LINE
  5
108
330
1F
100
AcDbEntity
  8
SLD-0
  6
Continuous
100
AcDbLine
 10
538.57736739
 20
204.7823160028
 30
0.0
 11
533.7103895228
 21
204.7823160028
 31
0.0
  0
LINE
  5
109
330
1F
100
AcDbEntity
  8
SLD-0
  6
Continuous
100
AcDbLine
 10
533.7103895228
 20
204.7823160028
 30
0.0
 11
533.7103895228
 21
190.2822642154
 31
0.0
  0
LINE
  5
10A
330
1F
100
AcDbEntity
  8
SLD-0
  6
Continuous
100
AcDbLine
 10
533.7103895228
 20
190.2822642154
 30
0.0
 11
538.57736739
 21
190.2822642154
 31
0.0
  0
LINE
  5
10B
330
1F
100
AcDbEntity
  8
SLD-0
  6
Continuous
100
AcDbLine
 10
538.57736739
 20
190.2822642154
 30
0.0
 11
538.57736739
 21
188.7023348606
 31
0.0
  0
LINE
  5
10C
330
1F
100
AcDbEntity
  8
SLD-0
  6
Continuous
100
AcDbLine
 10
538.57736739
 20
188.7023348606
 30
0.0
 11
533.9475757181
 21
188.7023348606
 31
0.0
  0
LINE
  5
10D
330
1F
100
AcDbEntity
  8
SLD-0
  6
Continuous
100
AcDbLine
 10
533.9475757181
 20
188.7023348606
 30
0.0
 11
533.9475757181
 21
186.9151524154
 31
0.0
  0
LINE
  5
10E
330
1F
100
AcDbEntity
  8
SLD-0
  6
Continuous
100
AcDbLine
 10
533.9475757181
 20
186.9151524154
 30
0.0
 11
532.932543092
 21
186.9151524154
 31
0.0
  0
LINE
  5
10F
330
1F
100
AcDbEntity
  8
SLD-0
  6
Continuous
100
AcDbLine
 10
532.932543092
 20
186.9151524154
 30
0.0
 11
532.932543092
 21
183.4969782598
 31
0.0
  0
LINE
  5
110
330
1F
100
AcDbEntity
  8
SLD-0
  6
Continuous
100
AcDbLine
 10
532.932543092
 20
183.4969782598
 30
0.0
 11
533.9475757181
 21
183.4969782598
 31
0.0
  0
LINE
  5
111
330
1F
100
AcDbEntity
  8
SLD-0
  6
Continuous
100
AcDbLine
 10
533.9475757181
 20
183.4969782598
 30
0.0
 11
533.9475757181
 21
181.711349436
 31
0.0
  0
LINE
  5
112
330
1F
100
AcDbEntity
  8
SLD-0
  6
Continuous
100
AcDbLine
 10
533.9475757181
 20
181.711349436
 30
0.0
 11
540.4406772821
 21
181.711349436
 31
0.0
  0
LINE
  5
113
330
1F
100
AcDbEntity
  8
SLD-0
  6
Continuous
100
AcDbLine
 10
540.4406772821
 20
181.711349436
 30
0.0
 11
540.4406772821
 21
180.8563398107
 31
0.0
  0
LINE
  5
114
330
1F
100
AcDbEntity
  8
SLD-0
  6
Continuous
100
AcDbLine
 10
540.4406772821
 20
180.8563398107
 30
0.0
 11
543.3418062469
 21
180.8563398107
 31
0.0
  0
LINE
  5
115
330
1F
100
AcDbEntity
  8
SLD-0
  6
Continuous
100
AcDbLine
 10
543.3418062469
 20
180.8563398107
 30
0.0
 11
543.3418062469
 21
181.711349436
 31
0.0
  0
LINE
  5
116
330
1F
100
AcDbEntity
  8
SLD-0
  6
Continuous
100
AcDbLine
 10
543.3418062469
 20
181.711349436
 30
0.0
 11
546.6893424177
 21
181.711349436
 31
0.0
  0
LINE
  5
117
330
1F
100
AcDbEntity
  8
SLD-0
  6
Continuous
100
AcDbLine
 10
546.6893424177
 20
181.711349436
 30
0.0
 11
546.6893424177
 21
183.4969782598
 31
0.0
  0
LINE
  5
118
330
1F
100
AcDbEntity
  8
SLD-0
  6
Continuous
100
AcDbLine
 10
546.6893424177
 20
183.4969782598
 30
0.0
 11
547.6391229464
 21
183.4969782598
 31
0.0
  0
LINE
  5
119
330
1F
100
AcDbEntity
  8
SLD-0
  6
Continuous
100
AcDbLine
 10
547.6391229464
 20
183.4969782598
 30
0.0
 11
547.6391229464
 21
186.9151524154
 31
0.0
  0
LINE
  5
11A
330
1F
100
AcDbEntity
  8
SLD-0
  6
Continuous
100
AcDbLine
 10
547.6391229464
 20
186.9151524154
 30
0.0
 11
546.6893424177
 21
186.9151524154
 31
0.0
  0
LINE
  5
11B
330
1F
100
AcDbEntity
  8
SLD-0
  6
Continuous
100
AcDbLine
 10
546.6893424177
 20
186.9151524154
 30
0.0
 11
546.6893424177
 21
188.7023348606
 31
0.0
  0
LINE
  5
11C
330
1F
100
AcDbEntity
  8
SLD-0
  6
Continuous
100
AcDbLine
 10
546.6893424177
 20
188.7023348606
 30
0.0
 11
543.3418062469
 21
188.7023348606
 31
0.0
  0
LINE
  5
11D
330
1F
100
AcDbEntity
  8
SLD-0
  6
Continuous
100
AcDbLine
 10
543.3418062469
 20
188.7023348606
 30
0.0
 11
543.3418062469
 21
190.2822642154
 31
0.0
  0
LINE
  5
11E
330
1F
100
AcDbEntity
  8
SLD-0
  6
Continuous
100
AcDbLine
 10
543.3418062469
 20
190.2822642154
 30
0.0
 11
548.2087841141
 21
190.2822642154
 31
0.0
  0
LINE
  5
11F
330
1F
100
AcDbEntity
  8
SLD-0
  6
Continuous
100
AcDbLine
 10
548.2087841141
 20
190.2822642154
 30
0.0
 11
548.2087841141
 21
204.7823160028
 31
0.0
  0
LINE
  5
120
330
1F
100
AcDbEntity
  8
SLD-0
  6
Continuous
100
AcDbLine
 10
548.2087841141
 20
204.7823160028
 30
0.0
 11
543.3418062469
 21
204.7823160028
 31
0.0
  0
LINE
  5
121
330
1F
100
AcDbEntity
  8
SLD-0
  6
Continuous
100
AcDbLine
 10
543.3418062469
 20
204.7823160028
 30
0.0
 11
543.3418062469
 21
206.3622453577
 31
0.0
  0
LINE
  5
122
330
1F
100
AcDbEntity
  8
SLD-0
  6
Continuous
100
AcDbLine
 10
543.3418062469
 20
206.3622453577
 30
0.0
 11
546.6893424177
 21
206.3622453577
 31
0.0
  0
LINE
  5
123
330
1F
100
AcDbEntity
  8
SLD-0
  6
Continuous
100
AcDbLine
 10
546.6893424177
 20
206.3622453577
 30
0.0
 11
546.6893424177
 21
208.1478741815
 31
0.0
  0
LINE
  5
124
330
1F
100
AcDbEntity
  8
SLD-0
  6
Continuous
100
AcDbLine
 10
546.6893424177
 20
208.1478741815
 30
0.0
 11
547.6391229464
 21
208.1478741815
 31
0.0
  0
LINE
  5
125
330
1F
100
AcDbEntity
  8
SLD-0
  6
Continuous
100
AcDbLine
 10
547.6391229464
 20
208.1478741815
 30
0.0
 11
547.6391229464
 21
211.5661519118
 31
0.0
  0
LINE
  5
126
330
1F
100
AcDbEntity
  8
SLD-0
  6
Continuous
100
AcDbLine
 10
547.6391229464
 20
211.5661519118
 30
0.0
 11
546.6893424177
 21
211.5661519118
 31
0.0
  0
LINE
  5
127
330
1F
100
AcDbEntity
  8
SLD-0
  6
Continuous
100
AcDbLine
 10
546.6893424177
 20
211.5661519118
 30
0.0
 11
546.6893424177
 21
213.3532307822
 31
0.0
  0
LINE
  5
128
330
1F
100
AcDbEntity
  8
SLD-0
  6
Continuous
100
AcDbLine
 10
546.6893424177
 20
213.3532307822
 30
0.0
 11
543.3418062469
 21
213.3532307822
 31
0.0
  0
LINE
  5
129
330
1F
100
AcDbEntity
  8
SLD-0
  6
Continuous
100
AcDbLine
 10
543.3418062469
 20
213.3532307822
 30
0.0
 11
543.3418062469
 21
214.2082404075
 31
0.0
  0
LINE
  5
12A
330
1F
100
AcDbEntity
  8
SLD-0
  6
Continuous
100
AcDbLine
 10
543.3418062469
 20
214.2082404075
 30
0.0
 11
540.4406772821
 21
214.2082404075
 31
0.0
  0
LINE
  5
12B
330
1F
100
AcDbEntity
  8
SLD-0
  6
Continuous
100
AcDbLine
 10
435.0554327563
 20
234.3788030327
 30
0.0
 11
435.0554327563
 21
229.510375119
 31
0.0
  0
LINE
  5
12C
330
1F
100
AcDbEntity
  8
SLD-0
  6
Continuous
100
AcDbLine
 10
435.0554327563
 20
229.510375119
 30
0.0
 11
433.4738462053
 21
229.510375119
 31
0.0
  0
LINE
  5
12D
330
1F
100
AcDbEntity
  8
SLD-0
  6
Continuous
100
AcDbLine
 10
433.4738462053
 20
229.510375119
 30
0.0
 11
433.4738462053
 21
232.8558397946
 31
0.0
  0
LINE
  5
12E
330
1F
100
AcDbEntity
  8
SLD-0
  6
Continuous
100
AcDbLine
 10
433.4738462053
 20
232.8558397946
 30
0.0
 11
431.687181634
 21
232.8558397946
 31
0.0
  0
LINE
  5
12F
330
1F
100
AcDbEntity
  8
SLD-0
  6
Continuous
100
AcDbLine
 10
431.687181634
 20
232.8558397946
 30
0.0
 11
431.687181634
 21
233.8091418651
 31
0.0
  0
LINE
  5
130
330
1F
100
AcDbEntity
  8
SLD-0
  6
Continuous
100
AcDbLine
 10
431.687181634
 20
233.8091418651
 30
0.0
 11
428.2702503755
 21
233.8091418651
 31
0.0
  0
LINE
  5
131
330
1F
100
AcDbEntity
  8
SLD-0
  6
Continuous
100
AcDbLine
 10
428.2702503755
 20
233.8091418651
 30
0.0
 11
428.2702503755
 21
232.8558397946
 31
0.0
  0
LINE
  5
132
330
1F
100
AcDbEntity
  8
SLD-0
  6
Continuous
100
AcDbLine
 10
428.2702503755
 20
232.8558397946
 30
0.0
 11
426.4835858041
 21
232.8558397946
 31
0.0
  0
LINE
  5
133
330
1F
100
AcDbEntity
  8
SLD-0
  6
Continuous
100
AcDbLine
 10
426.4835858041
 20
232.8558397946
 30
0.0
 11
426.4835858041
 21
229.510375119
 31
0.0
  0
LINE
  5
134
330
1F
100
AcDbEntity
  8
SLD-0
  6
Continuous
100
AcDbLine
 10
426.4835858041
 20
229.510375119
 30
0.0
 11
425.628058305
 21
229.510375119
 31
0.0
  0
LINE
  5
135
330
1F
100
AcDbEntity
  8
SLD-0
  6
Continuous
100
AcDbLine
 10
425.628058305
 20
229.510375119
 30
0.0
 11
425.628058305
 21
226.6098676027
 31
0.0
  0
LINE
  5
136
330
1F
100
AcDbEntity
  8
SLD-0
  6
Continuous
100
AcDbLine
 10
425.628058305
 20
226.6098676027
 30
0.0
 11
426.4835858041
 21
226.6098676027
 31
0.0
  0
LINE
  5
137
330
1F
100
AcDbEntity
  8
SLD-0
  6
Continuous
100
AcDbLine
 10
426.4835858041
 20
226.6098676027
 30
0.0
 11
426.4835858041
 21
220.1158338659
 31
0.0
  0
LINE
  5
138
330
1F
100
AcDbEntity
  8
SLD-0
  6
Continuous
100
AcDbLine
 10
426.4835858041
 20
220.1158338659
 30
0.0
 11
428.2702503755
 21
220.1158338659
 31
0.0
  0
LINE
  5
139
330
1F
100
AcDbEntity
  8
SLD-0
  6
Continuous
100
AcDbLine
 10
428.2702503755
 20
220.1158338659
 30
0.0
 11
428.2702503755
 21
219.1008012398
 31
0.0
  0
LINE
  5
13A
330
1F
100
AcDbEntity
  8
SLD-0
  6
Continuous
100
AcDbLine
 10
428.2702503755
 20
219.1008012398
 30
0.0
 11
431.687181634
 21
219.1008012398
 31
0.0
  0
LINE
  5
13B
330
1F
100
AcDbEntity
  8
SLD-0
  6
Continuous
100
AcDbLine
 10
431.687181634
 20
219.1008012398
 30
0.0
 11
431.687181634
 21
220.1158338659
 31
0.0
  0
LINE
  5
13C
330
1F
100
AcDbEntity
  8
SLD-0
  6
Continuous
100
AcDbLine
 10
431.687181634
 20
220.1158338659
 30
0.0
 11
433.4738462053
 21
220.1158338659
 31
0.0
  0
LINE
  5
13D
330
1F
100
AcDbEntity
  8
SLD-0
  6
Continuous
100
AcDbLine
 10
433.4738462053
 20
220.1158338659
 30
0.0
 11
433.4738462053
 21
224.7460398368
 31
0.0
  0
LINE
  5
13E
330
1F
100
AcDbEntity
  8
SLD-0
  6
Continuous
100
AcDbLine
 10
433.4738462053
 20
224.7460398368
 30
0.0
 11
435.0554327563
 21
224.7460398368
 31
0.0
  0
LINE
  5
13F
330
1F
100
AcDbEntity
  8
SLD-0
  6
Continuous
100
AcDbLine
 10
435.0554327563
 20
224.7460398368
 30
0.0
 11
435.0554327563
 21
219.8787512454
 31
0.0
  0
LINE
  5
140
330
1F
100
AcDbEntity
  8
SLD-0
  6
Continuous
100
AcDbLine
 10
435.0554327563
 20
219.8787512454
 30
0.0
 11
449.5538273476
 21
219.8787512454
 31
0.0
  0
LINE
  5
141
330
1F
100
AcDbEntity
  8
SLD-0
  6
Continuous
100
AcDbLine
 10
449.5538273476
 20
219.8787512454
 30
0.0
 11
449.5538273476
 21
224.7460398368
 31
0.0
  0
LINE
  5
142
330
1F
100
AcDbEntity
  8
SLD-0
  6
Continuous
100
AcDbLine
 10
449.5538273476
 20
224.7460398368
 30
0.0
 11
451.1323066559
 21
224.7460398368
 31
0.0
  0
LINE
  5
143
330
1F
100
AcDbEntity
  8
SLD-0
  6
Continuous
100
AcDbLine
 10
451.1323066559
 20
224.7460398368
 30
0.0
 11
451.1323066559
 21
220.1158338659
 31
0.0
  0
LINE
  5
144
330
1F
100
AcDbEntity
  8
SLD-0
  6
Continuous
100
AcDbLine
 10
451.1323066559
 20
220.1158338659
 30
0.0
 11
452.9189712272
 21
220.1158338659
 31
0.0
  0
LINE
  5
145
330
1F
100
AcDbEntity
  8
SLD-0
  6
Continuous
100
AcDbLine
 10
452.9189712272
 20
220.1158338659
 30
0.0
 11
452.9189712272
 21
219.1008012398
 31
0.0
  0
LINE
  5
146
330
1F
100
AcDbEntity
  8
SLD-0
  6
Continuous
100
AcDbLine
 10
452.9189712272
 20
219.1008012398
 30
0.0
 11
456.3390097285
 21
219.1008012398
 31
0.0
  0
LINE
  5
147
330
1F
100
AcDbEntity
  8
SLD-0
  6
Continuous
100
AcDbLine
 10
456.3390097285
 20
219.1008012398
 30
0.0
 11
456.3390097285
 21
220.1158338659
 31
0.0
  0
LINE
  5
148
330
1F
100
AcDbEntity
  8
SLD-0
  6
Continuous
100
AcDbLine
 10
456.3390097285
 20
220.1158338659
 30
0.0
 11
458.1267100474
 21
220.1158338659
 31
0.0
  0
LINE
  5
149
330
1F
100
AcDbEntity
  8
SLD-0
  6
Continuous
100
AcDbLine
 10
458.1267100474
 20
220.1158338659
 30
0.0
 11
458.1267100474
 21
226.6098676027
 31
0.0
  0
LINE
  5
14A
330
1F
100
AcDbEntity
  8
SLD-0
  6
Continuous
100
AcDbLine
 10
458.1267100474
 20
226.6098676027
 30
0.0
 11
458.9812017989
 21
226.6098676027
 31
0.0
  0
LINE
  5
14B
330
1F
100
AcDbEntity
  8
SLD-0
  6
Continuous
100
AcDbLine
 10
458.9812017989
 20
226.6098676027
 30
0.0
 11
458.9812017989
 21
229.510375119
 31
0.0
  0
LINE
  5
14C
330
1F
100
AcDbEntity
  8
SLD-0
  6
Continuous
100
AcDbLine
 10
458.9812017989
 20
229.510375119
 30
0.0
 11
458.1267100474
 21
229.510375119
 31
0.0
  0
LINE
  5
14D
330
1F
100
AcDbEntity
  8
SLD-0
  6
Continuous
100
AcDbLine
 10
458.1267100474
 20
229.510375119
 30
0.0
 11
458.1267100474
 21
232.8558397946
 31
0.0
  0
LINE
  5
14E
330
1F
100
AcDbEntity
  8
SLD-0
  6
Continuous
100
AcDbLine
 10
458.1267100474
 20
232.8558397946
 30
0.0
 11
456.3390097285
 21
232.8558397946
 31
0.0
  0
LINE
  5
14F
330
1F
100
AcDbEntity
  8
SLD-0
  6
Continuous
100
AcDbLine
 10
456.3390097285
 20
232.8558397946
 30
0.0
 11
456.3390097285
 21
233.8091418651
 31
0.0
  0
LINE
  5
150
330
1F
100
AcDbEntity
  8
SLD-0
  6
Continuous
100
AcDbLine
 10
456.3390097285
 20
233.8091418651
 30
0.0
 11
452.9189712272
 21
233.8091418651
 31
0.0
  0
LINE
  5
151
330
1F
100
AcDbEntity
  8
SLD-0
  6
Continuous
100
AcDbLine
 10
452.9189712272
 20
233.8091418651
 30
0.0
 11
452.9189712272
 21
232.8558397946
 31
0.0
  0
LINE
  5
152
330
1F
100
AcDbEntity
  8
SLD-0
  6
Continuous
100
AcDbLine
 10
452.9189712272
 20
232.8558397946
 30
0.0
 11
451.1323066559
 21
232.8558397946
 31
0.0
  0
LINE
  5
153
330
1F
100
AcDbEntity
  8
SLD-0
  6
Continuous
100
AcDbLine
 10
451.1323066559
 20
232.8558397946
 30
0.0
 11
451.1323066559
 21
229.510375119
 31
0.0
  0
LINE
  5
154
330
1F
100
AcDbEntity
  8
SLD-0
  6
Continuous
100
AcDbLine
 10
451.1323066559
 20
229.510375119
 30
0.0
 11
449.5538273476
 21
229.510375119
 31
0.0
  0
LINE
  5
155
330
1F
100
AcDbEntity
  8
SLD-0
  6
Continuous
100
AcDbLine
 10
449.5538273476
 20
229.510375119
 30
0.0
 11
449.5538273476
 21
234.3788030327
 31
0.0
  0
LINE
  5
156
330
1F
100
AcDbEntity
  8
SLD-0
  6
Continuous
100
AcDbLine
 10
449.5538273476
 20
234.3788030327
 30
0.0
 11
435.0554327563
 21
234.3788030327
 31
0.0
  0
LINE
  5
157
330
1F
100
AcDbEntity
  8
SLD-0
100
AcDbLine
 10
294.3222387144
 20
138.3386055264
 30
0.0
 11
294.3222387144
 21
253.5676841039
 31
0.0
  0
LINE
  5
158
330
1F
100
AcDbEntity
  8
SLD-0
100
AcDbLine
 10
40.4342074312
 20
215.8788030327
 30
0.0
 11
54.9342074312
 21
201.3787512453
 31
0.0
  0
LINE
  5
159
330
1F
100
AcDbEntity
  8
SLD-0
100
AcDbLine
 10
435.0554327563
 20
234.3788030327
 30
0.0
 11
449.5538273476
 21
219.8787512454
 31
0.0
  0
LINE
  5
15A
330
1F
100
AcDbEntity
  8
0
  6
Continuous
 62
     7
370
    50
100
AcDbLine
 10
404.0
 20
14.25
 30
0.0
 11
584.0
 21
14.25
 31
0.0
  0
LINE
  5
15B
330
1F
100
AcDbEntity
  8
0
  6
Continuous
 62
     7
370
    50
100
AcDbLine
 10
584.0
 20
48.25
 30
0.0
 11
404.0
 21
48.25
 31
0.0
  0
LINE
  5
15C
330
1F
100
AcDbEntity
  8
0
  6
Continuous
 62
     7
370
    50
100
AcDbLine
 10
404.0
 20
65.25
 30
0.0
 11
584.0
 21
65.25
 31
0.0
  0
LINE
  5
15D
330
1F
100
AcDbEntity
  8
0
  6
Continuous
 62
     7
370
    50
100
AcDbLine
 10
430.9909524338
 20
48.25
 30
0.0
 11
430.9909524338
 21
10.0
 31
0.0
  0
LINE
  5
15E
330
1F
100
AcDbEntity
  8
0
  6
Continuous
 62
     7
370
    50
100
AcDbLine
 10
502.8
 20
31.25
 30
0.0
 11
404.0
 21
31.25
 31
0.0
  0
LINE
  5
15F
330
1F
100
AcDbEntity
  8
0
  6
Continuous
 62
     7
370
    50
100
AcDbLine
 10
502.8
 20
35.5
 30
0.0
 11
404.0
 21
35.5
 31
0.0
  0
LINE
  5
160
330
1F
100
AcDbEntity
  8
0
  6
Continuous
 62
     7
370
    50
100
AcDbLine
 10
502.8
 20
39.75
 30
0.0
 11
404.0
 21
39.75
 31
0.0
  0
LINE
  5
161
330
1F
100
AcDbEntity
  8
0
  6
Continuous
 62
     7
370
    50
100
AcDbLine
 10
502.8
 20
44.0
 30
0.0
 11
404.0
 21
44.0
 31
0.0
  0
LINE
  5
162
330
1F
100
AcDbEntity
  8
0
  6
Continuous
 62
     7
370
    50
100
AcDbLine
 10
458.6
 20
10.0
 30
0.0
 11
458.6
 21
48.25
 31
0.0
  0
LINE
  5
163
330
1F
100
AcDbEntity
  8
0
  6
Continuous
 62
     7
370
    50
100
AcDbLine
 10
404.0
 20
65.25
 30
0.0
 11
404.0
 21
10.0
 31
0.0
  0
LINE
  5
164
330
1F
100
AcDbEntity
  8
0
  6
Continuous
 62
     7
370
    50
100
AcDbLine
 10
411.8
 20
48.25
 30
0.0
 11
411.8
 21
10.0
 31
0.0
  0
LINE
  5
165
330
1F
100
AcDbEntity
  8
0
  6
Continuous
 62
     7
370
    50
100
AcDbLine
 10
437.8
 20
48.25
 30
0.0
 11
437.8
 21
65.25
 31
0.0
  0
LINE
  5
166
330
1F
100
AcDbEntity
  8
0
  6
Continuous
 62
     7
370
    50
100
AcDbLine
 10
448.3989261635
 20
48.25
 30
0.0
 11
448.3989261635
 21
10.0
 31
0.0
  0
LINE
  5
167
330
1F
100
AcDbEntity
  8
0
  6
Continuous
 62
     7
370
    50
100
AcDbLine
 10
469.0
 20
31.25
 30
0.0
 11
469.0
 21
48.25
 31
0.0
  0
LINE
  5
168
330
1F
100
AcDbEntity
  8
0
  6
Continuous
 62
     7
370
    50
100
AcDbLine
 10
458.6
 20
18.5
 30
0.0
 11
404.0
 21
18.5
 31
0.0
  0
LINE
  5
169
330
1F
100
AcDbEntity
  8
0
  6
Continuous
 62
     7
370
    50
100
AcDbLine
 10
484.6
 20
65.25
 30
0.0
 11
484.6
 21
27.0
 31
0.0
  0
LINE
  5
16A
330
1F
100
AcDbEntity
  8
0
  6
Continuous
 62
     7
370
    50
100
AcDbLine
 10
458.6
 20
22.749928
 30
0.0
 11
404.0
 21
22.749928
 31
0.0
  0
LINE
  5
16B
330
1F
100
AcDbEntity
  8
0
  6
Continuous
 62
     7
370
    50
100
AcDbLine
 10
458.6
 20
27.0
 30
0.0
 11
404.0
 21
27.0
 31
0.0
  0
LINE
  5
16C
330
1F
100
AcDbEntity
  8
0
  6
Continuous
 62
     7
370
    50
100
AcDbLine
 10
458.6
 20
27.0
 30
0.0
 11
584.0
 21
27.0
 31
0.0
  0
LINE
  5
16D
330
1F
100
AcDbEntity
  8
0
  6
Continuous
 62
     7
370
    50
100
AcDbLine
 10
502.8
 20
65.25
 30
0.0
 11
502.8
 21
10.0
 31
0.0
  0
LINE
  5
16E
330
1F
100
AcDbEntity
  8
0
  6
Continuous
 62
     7
370
    50
100
AcDbLine
 10
547.0
 20
10.0
 30
0.0
 11
547.0
 21
14.25
 31
0.0
  0
LINE
  5
16F
330
1F
100
AcDbEntity
  8
0
  6
Continuous
 62
     7
370
    50
100
AcDbLine
 10
554.8
 20
58.875
 30
0.0
 11
554.8
 21
65.25
 31
0.0
  0
LINE
  5
170
330
1F
100
AcDbEntity
  8
0
  6
Continuous
 62
     7
370
    50
100
AcDbLine
 10
571.0
 20
14.25
 30
0.0
 11
571.0
 21
27.0
 31
0.0
  0
LINE
  5
171
330
1F
100
AcDbEntity
  8
0
  6
Continuous
 62
     7
370
    50
100
AcDbLine
 10
584.0
 20
58.875
 30
0.0
 11
502.8
 21
58.875
 31
0.0
  0
LINE
  5
172
330
1F
100
AcDbEntity
  8
0
  6
Continuous
 62
     7
370
    50
100
AcDbLine
 10
584.0
 20
18.5
 30
0.0
 11
571.0
 21
18.5
 31
0.0
  0
LINE
  5
173
330
1F
100
AcDbEntity
  8
0
  6
Continuous
 62
     7
370
    70
100
AcDbLine
 10
10.0
 20
10.0
 30
0.0
 11
10.0
 21
410.0
 31
0.0
  0
LINE
  5
174
330
1F
100
AcDbEntity
  8
0
  6
Continuous
 62
     7
370
    70
100
AcDbLine
 10
10.0
 20
410.0
 30
0.0
 11
584.0
 21
410.0
 31
0.0
  0
LINE
  5
175
330
1F
100
AcDbEntity
  8
0
  6
Continuous
 62
     7
370
    70
100
AcDbLine
 10
584.0
 20
410.0
 30
0.0
 11
584.0
 21
10.0
 31
0.0
  0
LINE
  5
176
330
1F
100
AcDbEntity
  8
0
  6
Continuous
 62
     7
370
    70
100
AcDbLine
 10
584.0
 20
10.0
 30
0.0
 11
10.0
 21
10.0
 31
0.0
  0
LINE
  5
177
330
1F
100
AcDbEntity
  8
0
  6
Continuous
 62
     7
370
    35
100
AcDbLine
 10
2.5
 20
210.0
 30
0.0
 11
10.0
 21
210.0
 31
0.0
  0
LINE
  5
178
330
1F
100
AcDbEntity
  8
0
  6
Continuous
 62
     7
370
    35
100
AcDbLine
 10
297.0
 20
417.5
 30
0.0
 11
297.0
 21
410.0
 31
0.0
  0
LINE
  5
179
330
1F
100
AcDbEntity
  8
0
  6
Continuous
 62
     7
370
    35
100
AcDbLine
 10
591.5
 20
210.0
 30
0.0
 11
584.0
 21
210.0
 31
0.0
  0
LINE
  5
17A
330
1F
100
AcDbEntity
  8
0
  6
Continuous
 62
     7
370
    35
100
AcDbLine
 10
297.0
 20
2.5
 30
0.0
 11
297.0
 21
10.0
 31
0.0
  0
LINE
  5
17B
330
1F
100
AcDbEntity
  8
0
  6
Continuous
 62
     7
370
    35
100
AcDbLine
 10
10.0
 20
60.0
 30
0.0
 11
2.5
 21
60.0
 31
0.0
  0
LINE
  5
17C
330
1F
100
AcDbEntity
  8
0
  6
Continuous
 62
     7
370
    35
100
AcDbLine
 10
584.0
 20
60.0
 30
0.0
 11
591.5
 21
60.0
 31
0.0
  0
LINE
  5
17D
330
1F
100
AcDbEntity
  8
0
  6
Continuous
 62
     7
370
    35
100
AcDbLine
 10
10.0
 20
110.0
 30
0.0
 11
2.5
 21
110.0
 31
0.0
  0
LINE
  5
17E
330
1F
100
AcDbEntity
  8
0
  6
Continuous
 62
     7
370
    35
100
AcDbLine
 10
584.0
 20
110.0
 30
0.0
 11
591.5
 21
110.0
 31
0.0
  0
LINE
  5
17F
330
1F
100
AcDbEntity
  8
0
  6
Continuous
 62
     7
370
    35
100
AcDbLine
 10
10.0
 20
160.0
 30
0.0
 11
2.5
 21
160.0
 31
0.0
  0
LINE
  5
180
330
1F
100
AcDbEntity
  8
0
  6
Continuous
 62
     7
370
    35
100
AcDbLine
 10
584.0
 20
160.0
 30
0.0
 11
591.5
 21
160.0
 31
0.0
  0
LINE
  5
181
330
1F
100
AcDbEntity
  8
0
  6
Continuous
 62
     7
370
    35
100
AcDbLine
 10
10.0
 20
210.0
 30
0.0
 11
2.5
 21
210.0
 31
0.0
  0
LINE
  5
182
330
1F
100
AcDbEntity
  8
0
  6
Continuous
 62
     7
370
    35
100
AcDbLine
 10
584.0
 20
210.0
 30
0.0
 11
591.5
 21
210.0
 31
0.0
  0
LINE
  5
183
330
1F
100
AcDbEntity
  8
0
  6
Continuous
 62
     7
370
    35
100
AcDbLine
 10
10.0
 20
260.0
 30
0.0
 11
2.5
 21
260.0
 31
0.0
  0
LINE
  5
184
330
1F
100
AcDbEntity
  8
0
  6
Continuous
 62
     7
370
    35
100
AcDbLine
 10
584.0
 20
260.0
 30
0.0
 11
591.5
 21
260.0
 31
0.0
  0
LINE
  5
185
330
1F
100
AcDbEntity
  8
0
  6
Continuous
 62
     7
370
    35
100
AcDbLine
 10
10.0
 20
310.0
 30
0.0
 11
2.5
 21
310.0
 31
0.0
  0
LINE
  5
186
330
1F
100
AcDbEntity
  8
0
  6
Continuous
 62
     7
370
    35
100
AcDbLine
 10
584.0
 20
310.0
 30
0.0
 11
591.5
 21
310.0
 31
0.0
  0
LINE
  5
187
330
1F
100
AcDbEntity
  8
0
  6
Continuous
 62
     7
370
    35
100
AcDbLine
 10
10.0
 20
360.0
 30
0.0
 11
2.5
 21
360.0
 31
0.0
  0
LINE
  5
188
330
1F
100
AcDbEntity
  8
0
  6
Continuous
 62
     7
370
    35
100
AcDbLine
 10
584.0
 20
360.0
 30
0.0
 11
591.5
 21
360.0
 31
0.0
  0
LINE
  5
189
330
1F
100
AcDbEntity
  8
0
  6
Continuous
 62
     7
370
    35
100
AcDbLine
 10
47.0
 20
410.0
 30
0.0
 11
47.0
 21
417.5
 31
0.0
  0
LINE
  5
18A
330
1F
100
AcDbEntity
  8
0
  6
Continuous
 62
     7
370
    35
100
AcDbLine
 10
47.0
 20
10.0
 30
0.0
 11
47.0
 21
2.5
 31
0.0
  0
LINE
  5
18B
330
1F
100
AcDbEntity
  8
0
  6
Continuous
 62
     7
370
    35
100
AcDbLine
 10
97.0
 20
410.0
 30
0.0
 11
97.0
 21
417.5
 31
0.0
  0
LINE
  5
18C
330
1F
100
AcDbEntity
  8
0
  6
Continuous
 62
     7
370
    35
100
AcDbLine
 10
97.0
 20
10.0
 30
0.0
 11
97.0
 21
2.5
 31
0.0
  0
LINE
  5
18D
330
1F
100
AcDbEntity
  8
0
  6
Continuous
 62
     7
370
    35
100
AcDbLine
 10
147.0
 20
410.0
 30
0.0
 11
147.0
 21
417.5
 31
0.0
  0
LINE
  5
18E
330
1F
100
AcDbEntity
  8
0
  6
Continuous
 62
     7
370
    35
100
AcDbLine
 10
147.0
 20
10.0
 30
0.0
 11
147.0
 21
2.5
 31
0.0
  0
LINE
  5
18F
330
1F
100
AcDbEntity
  8
0
  6
Continuous
 62
     7
370
    35
100
AcDbLine
 10
197.0
 20
410.0
 30
0.0
 11
197.0
 21
417.5
 31
0.0
  0
LINE
  5
190
330
1F
100
AcDbEntity
  8
0
  6
Continuous
 62
     7
370
    35
100
AcDbLine
 10
197.0
 20
10.0
 30
0.0
 11
197.0
 21
2.5
 31
0.0
  0
LINE
  5
191
330
1F
100
AcDbEntity
  8
0
  6
Continuous
 62
     7
370
    35
100
AcDbLine
 10
247.0
 20
410.0
 30
0.0
 11
247.0
 21
417.5
 31
0.0
  0
LINE
  5
192
330
1F
100
AcDbEntity
  8
0
  6
Continuous
 62
     7
370
    35
100
AcDbLine
 10
247.0
 20
10.0
 30
0.0
 11
247.0
 21
2.5
 31
0.0
  0
LINE
  5
193
330
1F
100
AcDbEntity
  8
0
  6
Continuous
 62
     7
370
    35
100
AcDbLine
 10
297.0
 20
410.0
 30
0.0
 11
297.0
 21
417.5
 31
0.0
  0
LINE
  5
194
330
1F
100
AcDbEntity
  8
0
  6
Continuous
 62
     7
370
    35
100
AcDbLine
 10
297.0
 20
10.0
 30
0.0
 11
297.0
 21
2.5
 31
0.0
  0
LINE
  5
195
330
1F
100
AcDbEntity
  8
0
  6
Continuous
 62
     7
370
    35
100
AcDbLine
 10
347.0
 20
410.0
 30
0.0
 11
347.0
 21
417.5
 31
0.0
  0
LINE
  5
196
330
1F
100
AcDbEntity
  8
0
  6
Continuous
 62
     7
370
    35
100
AcDbLine
 10
347.0
 20
10.0
 30
0.0
 11
347.0
 21
2.5
 31
0.0
  0
LINE
  5
197
330
1F
100
AcDbEntity
  8
0
  6
Continuous
 62
     7
370
    35
100
AcDbLine
 10
397.0
 20
410.0
 30
0.0
 11
397.0
 21
417.5
 31
0.0
  0
LINE
  5
198
330
1F
100
AcDbEntity
  8
0
  6
Continuous
 62
     7
370
    35
100
AcDbLine
 10
397.0
 20
10.0
 30
0.0
 11
397.0
 21
2.5
 31
0.0
  0
LINE
  5
199
330
1F
100
AcDbEntity
  8
0
  6
Continuous
 62
     7
370
    35
100
AcDbLine
 10
447.0
 20
410.0
 30
0.0
 11
447.0
 21
417.5
 31
0.0
  0
LINE
  5
19A
330
1F
100
AcDbEntity
  8
0
  6
Continuous
 62
     7
370
    35
100
AcDbLine
 10
447.0
 20
10.0
 30
0.0
 11
447.0
 21
2.5
 31
0.0
  0
LINE
  5
19B
330
1F
100
AcDbEntity
  8
0
  6
Continuous
 62
     7
370
    35
100
AcDbLine
 10
497.0
 20
410.0
 30
0.0
 11
497.0
 21
417.5
 31
0.0
  0
LINE
  5
19C
330
1F
100
AcDbEntity
  8
0
  6
Continuous
 62
     7
370
    35
100
AcDbLine
 10
497.0
 20
10.0
 30
0.0
 11
497.0
 21
2.5
 31
0.0
  0
LINE
  5
19D
330
1F
100
AcDbEntity
  8
0
  6
Continuous
 62
     7
370
    35
100
AcDbLine
 10
547.0
 20
410.0
 30
0.0
 11
547.0
 21
417.5
 31
0.0
  0
LINE
  5
19E
330
1F
100
AcDbEntity
  8
0
  6
Continuous
 62
     7
370
    35
100
AcDbLine
 10
547.0
 20
10.0
 30
0.0
 11
547.0
 21
2.5
 31
0.0
  0
CIRCLE
  5
19F
330
1F
100
AcDbEntity
  8
SLD-0
100
AcDbCircle
 10
47.6842074312
 20
227.128777139
 30
0.0
 40
2.499999999999996
  0
CIRCLE
  5
1A0
330
1F
100
AcDbEntity
  8
SLD-0
100
AcDbCircle
 10
47.6842074312
 20
208.628777139
 30
0.0
 40
2.500000000000004
  0
CIRCLE
  5
1A1
330
1F
100
AcDbEntity
  8
SLD-0
100
AcDbCircle
 10
67.1842074312
 20
227.128777139
 30
0.0
 40
2.49999999999999
  0
CIRCLE
  5
1A2
330
1F
100
AcDbEntity
  8
SLD-0
100
AcDbCircle
 10
47.6842074312
 20
190.128777139
 30
0.0
 40
2.500000000000012
  0
CIRCLE
  5
1A3
330
1F
100
AcDbEntity
  8
SLD-0
100
AcDbCircle
 10
47.6842074312
 20
171.628777139
 30
0.0
 40
2.500000000000004
  0
CIRCLE
  5
1A4
330
1F
100
AcDbEntity
  8
SLD-0
100
AcDbCircle
 10
47.6842074312
 20
153.128777139
 30
0.0
 40
2.500000000000005
  0
CIRCLE
  5
1A5
330
1F
100
AcDbEntity
  8
SLD-0
100
AcDbCircle
 10
67.1842074312
 20
208.628777139
 30
0.0
 40
2.49999999999999
  0
CIRCLE
  5
1A6
330
1F
100
AcDbEntity
  8
SLD-0
100
AcDbCircle
 10
67.1842074312
 20
190.128777139
 30
0.0
 40
2.499999999999998
  0
CIRCLE
  5
1A7
330
1F
100
AcDbEntity
  8
SLD-0
100
AcDbCircle
 10
67.1842074312
 20
171.628777139
 30
0.0
 40
2.49999999999999
  0
CIRCLE
  5
1A8
330
1F
100
AcDbEntity
  8
SLD-0
100
AcDbCircle
 10
67.1842074312
 20
153.128777139
 30
0.0
 40
2.49999999999999
  0
CIRCLE
  5
1A9
330
1F
100
AcDbEntity
  8
SLD-0
100
AcDbCircle
 10
86.6842074312
 20
227.128777139
 30
0.0
 40
2.500000000000004
  0
CIRCLE
  5
1AA
330
1F
100
AcDbEntity
  8
SLD-0
100
AcDbCircle
 10
86.6842074312
 20
208.628777139
 30
0.0
 40
2.500000000000004
  0
CIRCLE
  5
1AB
330
1F
100
AcDbEntity
  8
SLD-0
100
AcDbCircle
 10
86.6842074312
 20
190.128777139
 30
0.0
 40
2.500000000000012
  0
CIRCLE
  5
1AC
330
1F
100
AcDbEntity
  8
SLD-0
100
AcDbCircle
 10
86.6842074312
 20
171.628777139
 30
0.0
 40
2.500000000000004
  0
CIRCLE
  5
1AD
330
1F
100
AcDbEntity
  8
SLD-0
100
AcDbCircle
 10
86.6842074312
 20
153.128777139
 30
0.0
 40
2.500000000000004
  0
CIRCLE
  5
1AE
330
1F
100
AcDbEntity
  8
SLD-0
100
AcDbCircle
 10
106.1842074312
 20
153.128777139
 30
0.0
 40
2.49999999999999
  0
CIRCLE
  5
1AF
330
1F
100
AcDbEntity
  8
SLD-0
100
AcDbCircle
 10
106.1842074312
 20
171.628777139
 30
0.0
 40
2.49999999999999
  0
CIRCLE
  5
1B0
330
1F
100
AcDbEntity
  8
SLD-0
100
AcDbCircle
 10
106.1842074312
 20
190.128777139
 30
0.0
 40
2.499999999999998
  0
CIRCLE
  5
1B1
330
1F
100
AcDbEntity
  8
SLD-0
100
AcDbCircle
 10
106.1842074312
 20
208.628777139
 30
0.0
 40
2.49999999999999
  0
CIRCLE
  5
1B2
330
1F
100
AcDbEntity
  8
SLD-0
100
AcDbCircle
 10
106.1842074312
 20
227.128777139
 30
0.0
 40
2.49999999999999
  0
CIRCLE
  5
1B3
330
1F
100
AcDbEntity
  8
SLD-0
100
AcDbCircle
 10
133.825369832
 20
227.128777139
 30
0.0
 40
2.500000000000004
  0
CIRCLE
  5
1B4
330
1F
100
AcDbEntity
  8
SLD-0
100
AcDbCircle
 10
153.325369832
 20
227.128777139
 30
0.0
 40
2.500000000000004
  0
CIRCLE
  5
1B5
330
1F
100
AcDbEntity
  8
SLD-0
100
AcDbCircle
 10
172.825369832
 20
227.128777139
 30
0.0
 40
2.499999999999976
  0
CIRCLE
  5
1B6
330
1F
100
AcDbEntity
  8
SLD-0
100
AcDbCircle
 10
172.825369832
 20
208.628777139
 30
0.0
 40
2.499999999999976
  0
CIRCLE
  5
1B7
330
1F
100
AcDbEntity
  8
SLD-0
100
AcDbCircle
 10
153.325369832
 20
208.628777139
 30
0.0
 40
2.500000000000004
  0
CIRCLE
  5
1B8
330
1F
100
AcDbEntity
  8
SLD-0
100
AcDbCircle
 10
133.825369832
 20
208.628777139
 30
0.0
 40
2.500000000000004
  0
CIRCLE
  5
1B9
330
1F
100
AcDbEntity
  8
SLD-0
100
AcDbCircle
 10
133.825369832
 20
190.128777139
 30
0.0
 40
2.500000000000012
  0
CIRCLE
  5
1BA
330
1F
100
AcDbEntity
  8
SLD-0
100
AcDbCircle
 10
153.325369832
 20
190.128777139
 30
0.0
 40
2.500000000000012
  0
CIRCLE
  5
1BB
330
1F
100
AcDbEntity
  8
SLD-0
100
AcDbCircle
 10
172.825369832
 20
190.128777139
 30
0.0
 40
2.499999999999984
  0
CIRCLE
  5
1BC
330
1F
100
AcDbEntity
  8
SLD-0
100
AcDbCircle
 10
163.075369832
 20
171.628777139
 30
0.0
 40
2.500000000000004
  0
CIRCLE
  5
1BD
330
1F
100
AcDbEntity
  8
SLD-0
100
AcDbCircle
 10
133.825369832
 20
171.628777139
 30
0.0
 40
2.500000000000004
  0
CIRCLE
  5
1BE
330
1F
100
AcDbEntity
  8
SLD-0
100
AcDbCircle
 10
133.825369832
 20
153.128777139
 30
0.0
 40
2.500000000000004
  0
CIRCLE
  5
1BF
330
1F
100
AcDbEntity
  8
SLD-0
100
AcDbCircle
 10
153.325369832
 20
153.128777139
 30
0.0
 40
2.500000000000004
  0
CIRCLE
  5
1C0
330
1F
100
AcDbEntity
  8
SLD-0
100
AcDbCircle
 10
172.825369832
 20
153.128777139
 30
0.0
 40
2.499999999999976
  0
CIRCLE
  5
1C1
330
1F
100
AcDbEntity
  8
SLD-0
100
AcDbCircle
 10
143.575369832
 20
227.128777139
 30
0.0
 40
2.499999999999976
  0
CIRCLE
  5
1C2
330
1F
100
AcDbEntity
  8
SLD-0
100
AcDbCircle
 10
153.325369832
 20
171.628777139
 30
0.0
 40
2.500000000000004
  0
CIRCLE
  5
1C3
330
1F
100
AcDbEntity
  8
SLD-0
100
AcDbCircle
 10
172.825369832
 20
171.628777139
 30
0.0
 40
2.499999999999976
  0
CIRCLE
  5
1C4
330
1F
100
AcDbEntity
  8
SLD-0
100
AcDbCircle
 10
47.6842074312
 20
162.378777139
 30
0.0
 40
2.500000000000012
  0
CIRCLE
  5
1C5
330
1F
100
AcDbEntity
  8
SLD-0
100
AcDbCircle
 10
47.6842074312
 20
199.378777139
 30
0.0
 40
2.500000000000004
  0
CIRCLE
  5
1C6
330
1F
100
AcDbEntity
  8
SLD-0
100
AcDbCircle
 10
163.075369832
 20
153.128777139
 30
0.0
 40
2.500000000000004
  0
CIRCLE
  5
1C7
330
1F
100
AcDbEntity
  8
SLD-0
100
AcDbCircle
 10
491.6321084352
 20
153.128777139
 30
0.0
 40
2.500000000000058
  0
CIRCLE
  5
1C8
330
1F
100
AcDbEntity
  8
SLD-0
100
AcDbCircle
 10
540.9595868184
 20
158.0703074025
 30
0.0
 40
2.499999999999895
  0
CIRCLE
  5
1C9
330
1F
100
AcDbEntity
  8
SLD-0
100
AcDbCircle
 10
540.9595868184
 20
197.5322901091
 30
0.0
 40
2.499999999999886
  0
CIRCLE
  5
1CA
330
1F
100
AcDbEntity
  8
SLD-0
100
AcDbCircle
 10
442.3046300519
 20
227.128777139
 30
0.0
 40
2.500000000000058
  0
CIRCLE
  5
1CB
330
1F
100
AcDbEntity
  8
SLD-0
100
AcDbCircle
 10
192.325369832
 20
238.7701656122
 30
0.0
 40
2.499999999999995
  0
CIRCLE
  5
1CC
330
1F
100
AcDbEntity
  8
SLD-0
100
AcDbCircle
 10
192.325369832
 20
220.2701656122
 30
0.0
 40
2.499999999999997
  0
CIRCLE
  5
1CD
330
1F
100
AcDbEntity
  8
SLD-0
100
AcDbCircle
 10
192.325369832
 20
201.7701656122
 30
0.0
 40
2.500000000000006
  0
CIRCLE
  5
1CE
330
1F
100
AcDbEntity
  8
SLD-0
100
AcDbCircle
 10
192.325369832
 20
183.2701656122
 30
0.0
 40
2.500000000000031
  0
CIRCLE
  5
1CF
330
1F
100
AcDbEntity
  8
SLD-0
100
AcDbCircle
 10
211.825369832
 20
188.2023955768
 30
0.0
 40
2.499999999999976
  0
CIRCLE
  5
1D0
330
1F
100
AcDbEntity
  8
SLD-0
100
AcDbCircle
 10
211.825369832
 20
206.7023955768
 30
0.0
 40
2.499999999999976
  0
CIRCLE
  5
1D1
330
1F
100
AcDbEntity
  8
SLD-0
100
AcDbCircle
 10
211.825369832
 20
225.2023955768
 30
0.0
 40
2.499999999999976
  0
CIRCLE
  5
1D2
330
1F
100
AcDbEntity
  8
SLD-0
100
AcDbCircle
 10
211.825369832
 20
243.7023955768
 30
0.0
 40
2.499999999999922
  0
CIRCLE
  5
1D3
330
1F
100
AcDbEntity
  8
SLD-0
100
AcDbCircle
 10
231.325369832
 20
236.3247180514
 30
0.0
 40
2.499999999999824
  0
CIRCLE
  5
1D4
330
1F
100
AcDbEntity
  8
SLD-0
100
AcDbCircle
 10
231.325369832
 20
217.8247180514
 30
0.0
 40
2.499999999999949
  0
CIRCLE
  5
1D5
330
1F
100
AcDbEntity
  8
SLD-0
100
AcDbCircle
 10
231.325369832
 20
199.3247180514
 30
0.0
 40
2.49999999999993
  0
CIRCLE
  5
1D6
330
1F
100
AcDbEntity
  8
SLD-0
100
AcDbCircle
 10
231.325369832
 20
180.8247180514
 30
0.0
 40
2.499999999999949
  0
CIRCLE
  5
1D7
330
1F
100
AcDbEntity
  8
SLD-0
100
AcDbCircle
 10
250.825369832
 20
178.3373575333
 30
0.0
 40
2.500000000000031
  0
CIRCLE
  5
1D8
330
1F
100
AcDbEntity
  8
SLD-0
100
AcDbCircle
 10
250.825369832
 20
159.8373575333
 30
0.0
 40
2.500000000000031
  0
CIRCLE
  5
1D9
330
1F
100
AcDbEntity
  8
SLD-0
100
AcDbCircle
 10
250.825369832
 20
196.8373575333
 30
0.0
 40
2.500000000000039
  0
CIRCLE
  5
1DA
330
1F
100
AcDbEntity
  8
SLD-0
100
AcDbCircle
 10
250.825369832
 20
215.3373575333
 30
0.0
 40
2.500000000000031
  0
CIRCLE
  5
1DB
330
1F
100
AcDbEntity
  8
SLD-0
100
AcDbCircle
 10
250.825369832
 20
233.8373575333
 30
0.0
 40
2.500000000000039
  0
POINT
  5
1DC
330
1F
100
AcDbEntity
  8
SLD-0
100
AcDbPoint
 10
47.6842074312
 20
227.128777139
 30
0.0
  0
POINT
  5
1DD
330
1F
100
AcDbEntity
  8
SLD-0
100
AcDbPoint
 10
47.6842074312
 20
208.628777139
 30
0.0
  0
MTEXT
  5
1DF
330
1F
100
AcDbEntity
  8
0
  6
Continuous
 62
     7
370
     0
100
AcDbMText
 10
4.7565833417
 20
29.9756904019
 30
0.0
 40
6.096
 41
0.0
 71
     2
 72
     1
  1
A
  7
SLDTEXTSTYLE0
 73
     1
 44
1.0
  0
MTEXT
  5
1E0
330
1F
100
AcDbEntity
  8
0
  6
Continuous
 62
     7
370
     0
100
AcDbMText
 10
588.7565833417
 20
29.9756904019
 30
0.0
 40
6.096
 41
0.0
 71
     2
 72
     1
  1
A
  7
SLDTEXTSTYLE0
 73
     1
 44
1.0
  0
MTEXT
  5
1E1
330
1F
100
AcDbEntity
  8
0
  6
Continuous
 62
     7
370
     0
100
AcDbMText
 10
4.9534332283
 20
84.9756904019
 30
0.0
 40
6.096
 41
0.0
 71
     2
 72
     1
  1
B
  7
SLDTEXTSTYLE0
 73
     1
 44
1.0
  0
MTEXT
  5
1E2
330
1F
100
AcDbEntity
  8
0
  6
Continuous
 62
     7
370
     0
100
AcDbMText
 10
588.9534332283
 20
84.9756904019
 30
0.0
 40
6.096
 41
0.0
 71
     2
 72
     1
  1
B
  7
SLDTEXTSTYLE0
 73
     1
 44
1.0
  0
MTEXT
  5
1E3
330
1F
100
AcDbEntity
  8
0
  6
Continuous
 62
     7
370
     0
100
AcDbMText
 10
4.9365000027
 20
134.9756904019
 30
0.0
 40
6.096
 41
0.0
 71
     2
 72
     1
  1
C
  7
SLDTEXTSTYLE0
 73
     1
 44
1.0
  0
MTEXT
  5
1E4
330
1F
100
AcDbEntity
  8
0
  6
Continuous
 62
     7
370
     0
100
AcDbMText
 10
588.9365000027
 20
134.9756904019
 30
0.0
 40
6.096
 41
0.0
 71
     2
 72
     1
  1
C
  7
SLDTEXTSTYLE0
 73
     1
 44
1.0
  0
MTEXT
  5
1E5
330
1F
100
AcDbEntity
  8
0
  6
Continuous
 62
     7
370
     0
100
AcDbMText
 10
4.9301500347
 20
184.9756904019
 30
0.0
 40
6.096
 41
0.0
 71
     2
 72
     1
  1
D
  7
SLDTEXTSTYLE0
 73
     1
 44
1.0
  0
MTEXT
  5
1E6
330
1F
100
AcDbEntity
  8
0
  6
Continuous
 62
     7
370
     0
100
AcDbMText
 10
588.9301500347
 20
184.9756904019
 30
0.0
 40
6.096
 41
0.0
 71
     2
 72
     1
  1
D
  7
SLDTEXTSTYLE0
 73
     1
 44
1.0
  0
MTEXT
  5
1E7
330
1F
100
AcDbEntity
  8
0
  6
Continuous
 62
     7
370
     0
100
AcDbMText
 10
5.0105832246
 20
234.9756904019
 30
0.0
 40
6.096
 41
0.0
 71
     2
 72
     1
  1
E
  7
SLDTEXTSTYLE0
 73
     1
 44
1.0
  0
MTEXT
  5
1E8
330
1F
100
AcDbEntity
  8
0
  6
Continuous
 62
     7
370
     0
100
AcDbMText
 10
589.0105832246
 20
234.9756904019
 30
0.0
 40
6.096
 41
0.0
 71
     2
 72
     1
  1
E
  7
SLDTEXTSTYLE0
 73
     1
 44
1.0
  0
MTEXT
  5
1E9
330
1F
100
AcDbEntity
  8
0
  6
Continuous
 62
     7
370
     0
100
AcDbMText
 10
4.9365000284
 20
284.9756904019
 30
0.0
 40
6.096
 41
0.0
 71
     2
 72
     1
  1
F
  7
SLDTEXTSTYLE0
 73
     1
 44
1.0
  0
MTEXT
  5
1EA
330
1F
100
AcDbEntity
  8
0
  6
Continuous
 62
     7
370
     0
100
AcDbMText
 10
588.9365000284
 20
284.9756904019
 30
0.0
 40
6.096
 41
0.0
 71
     2
 72
     1
  1
F
  7
SLDTEXTSTYLE0
 73
     1
 44
1.0
  0
MTEXT
  5
1EB
330
1F
100
AcDbEntity
  8
0
  6
Continuous
 62
     7
370
     0
100
AcDbMText
 10
4.9809499115
 20
334.9756904019
 30
0.0
 40
6.096
 41
0.0
 71
     2
 72
     1
  1
G
  7
SLDTEXTSTYLE0
 73
     1
 44
1.0
  0
MTEXT
  5
1EC
330
1F
100
AcDbEntity
  8
0
  6
Continuous
 62
     7
370
     0
100
AcDbMText
 10
588.9809499115
 20
334.9756904019
 30
0.0
 40
6.096
 41
0.0
 71
     2
 72
     1
  1
G
  7
SLDTEXTSTYLE0
 73
     1
 44
1.0
  0
MTEXT
  5
1ED
330
1F
100
AcDbEntity
  8
0
  6
Continuous
 62
     7
370
     0
100
AcDbMText
 10
4.9851832197
 20
389.9756904019
 30
0.0
 40
6.096
 41
0.0
 71
     2
 72
     1
  1
H
  7
SLDTEXTSTYLE0
 73
     1
 44
1.0
  0
MTEXT
  5
1EE
330
1F
100
AcDbEntity
  8
0
  6
Continuous
 62
     7
370
     0
100
AcDbMText
 10
588.9851832197
 20
389.9756904019
 30
0.0
 40
6.096
 41
0.0
 71
     2
 72
     1
  1
H
  7
SLDTEXTSTYLE0
 73
     1
 44
1.0
  0
MTEXT
  5
1EF
330
1F
100
AcDbEntity
  8
0
  6
Continuous
 62
     7
370
     0
100
AcDbMText
 10
23.3772333393
 20
8.1136904019
 30
0.0
 40
6.096
 41
0.0
 71
     2
 72
     1
  1
12
  7
SLDTEXTSTYLE0
 73
     1
 44
1.0
  0
MTEXT
  5
1F0
330
1F
100
AcDbEntity
  8
0
  6
Continuous
 62
     7
370
     0
100
AcDbMText
 10
23.3772333393
 20
418.1136904019
 30
0.0
 40
6.096
 41
0.0
 71
     2
 72
     1
  1
12
  7
SLDTEXTSTYLE0
 73
     1
 44
1.0
  0
MTEXT
  5
1F1
330
1F
100
AcDbEntity
  8
0
  6
Continuous
 62
     7
370
     0
100
AcDbMText
 10
71.8772333393
 20
8.1136904019
 30
0.0
 40
6.096
 41
0.0
 71
     2
 72
     1
  1
11
  7
SLDTEXTSTYLE0
 73
     1
 44
1.0
  0
MTEXT
  5
1F2
330
1F
100
AcDbEntity
  8
0
  6
Continuous
 62
     7
370
     0
100
AcDbMText
 10
71.8772333393
 20
418.1136904019
 30
0.0
 40
6.096
 41
0.0
 71
     2
 72
     1
  1
11
  7
SLDTEXTSTYLE0
 73
     1
 44
1.0
  0
MTEXT
  5
1F3
330
1F
100
AcDbEntity
  8
0
  6
Continuous
 62
     7
370
     0
100
AcDbMText
 10
121.8772333393
 20
8.1136904019
 30
0.0
 40
6.096
 41
0.0
 71
     2
 72
     1
  1
10
  7
SLDTEXTSTYLE0
 73
     1
 44
1.0
  0
MTEXT
  5
1F4
330
1F
100
AcDbEntity
  8
0
  6
Continuous
 62
     7
370
     0
100
AcDbMText
 10
121.8772333393
 20
418.1136904019
 30
0.0
 40
6.096
 41
0.0
 71
     2
 72
     1
  1
10
  7
SLDTEXTSTYLE0
 73
     1
 44
1.0
  0
MTEXT
  5
1F5
330
1F
100
AcDbEntity
  8
0
  6
Continuous
 62
     7
370
     0
100
AcDbMText
 10
171.9386166697
 20
8.1136904019
 30
0.0
 40
6.096
 41
0.0
 71
     2
 72
     1
  1
9
  7
SLDTEXTSTYLE0
 73
     1
 44
1.0
  0
MTEXT
  5
1F6
330
1F
100
AcDbEntity
  8
0
  6
Continuous
 62
     7
370
     0
100
AcDbMText
 10
171.9386166697
 20
418.1136904019
 30
0.0
 40
6.096
 41
0.0
 71
     2
 72
     1
  1
9
  7
SLDTEXTSTYLE0
 73
     1
 44
1.0
  0
MTEXT
  5
1F7
330
1F
100
AcDbEntity
  8
0
  6
Continuous
 62
     7
370
     0
100
AcDbMText
 10
221.9386166697
 20
8.1136904019
 30
0.0
 40
6.096
 41
0.0
 71
     2
 72
     1
  1
8
  7
SLDTEXTSTYLE0
 73
     1
 44
1.0
  0
MTEXT
  5
1F8
330
1F
100
AcDbEntity
  8
0
  6
Continuous
 62
     7
370
     0
100
AcDbMText
 10
221.9386166697
 20
418.1136904019
 30
0.0
 40
6.096
 41
0.0
 71
     2
 72
     1
  1
8
  7
SLDTEXTSTYLE0
 73
     1
 44
1.0
  0
MTEXT
  5
1F9
330
1F
100
AcDbEntity
  8
0
  6
Continuous
 62
     7
370
     0
100
AcDbMText
 10
271.9386166697
 20
8.1136904019
 30
0.0
 40
6.096
 41
0.0
 71
     2
 72
     1
  1
7
  7
SLDTEXTSTYLE0
 73
     1
 44
1.0
  0
MTEXT
  5
1FA
330
1F
100
AcDbEntity
  8
0
  6
Continuous
 62
     7
370
     0
100
AcDbMText
 10
271.9386166697
 20
418.1136904019
 30
0.0
 40
6.096
 41
0.0
 71
     2
 72
     1
  1
7
  7
SLDTEXTSTYLE0
 73
     1
 44
1.0
  0
MTEXT
  5
1FB
330
1F
100
AcDbEntity
  8
0
  6
Continuous
 62
     7
370
     0
100
AcDbMText
 10
321.9386166697
 20
8.1136904019
 30
0.0
 40
6.096
 41
0.0
 71
     2
 72
     1
  1
6
  7
SLDTEXTSTYLE0
 73
     1
 44
1.0
  0
MTEXT
  5
1FC
330
1F
100
AcDbEntity
  8
0
  6
Continuous
 62
     7
370
     0
100
AcDbMText
 10
321.9386166697
 20
418.1136904019
 30
0.0
 40
6.096
 41
0.0
 71
     2
 72
     1
  1
6
  7
SLDTEXTSTYLE0
 73
     1
 44
1.0
  0
MTEXT
  5
1FD
330
1F
100
AcDbEntity
  8
0
  6
Continuous
 62
     7
370
     0
100
AcDbMText
 10
371.9386166697
 20
8.1136904019
 30
0.0
 40
6.096
 41
0.0
 71
     2
 72
     1
  1
5
  7
SLDTEXTSTYLE0
 73
     1
 44
1.0
  0
MTEXT
  5
1FE
330
1F
100
AcDbEntity
  8
0
  6
Continuous
 62
     7
370
     0
100
AcDbMText
 10
371.9386166697
 20
418.1136904019
 30
0.0
 40
6.096
 41
0.0
 71
     2
 72
     1
  1
5
  7
SLDTEXTSTYLE0
 73
     1
 44
1.0
  0
MTEXT
  5
1FF
330
1F
100
AcDbEntity
  8
0
  6
Continuous
 62
     7
370
     0
100
AcDbMText
 10
421.9386166697
 20
8.1136904019
 30
0.0
 40
6.096
 41
0.0
 71
     2
 72
     1
  1
4
  7
SLDTEXTSTYLE0
 73
     1
 44
1.0
  0
MTEXT
  5
200
330
1F
100
AcDbEntity
  8
0
  6
Continuous
 62
     7
370
     0
100
AcDbMText
 10
421.9386166697
 20
418.1136904019
 30
0.0
 40
6.096
 41
0.0
 71
     2
 72
     1
  1
4
  7
SLDTEXTSTYLE0
 73
     1
 44
1.0
  0
MTEXT
  5
201
330
1F
100
AcDbEntity
  8
0
  6
Continuous
 62
     7
370
     0
100
AcDbMText
 10
471.9386166697
 20
8.1136904019
 30
0.0
 40
6.096
 41
0.0
 71
     2
 72
     1
  1
3
  7
SLDTEXTSTYLE0
 73
     1
 44
1.0
  0
MTEXT
  5
202
330
1F
100
AcDbEntity
  8
0
  6
Continuous
 62
     7
370
     0
100
AcDbMText
 10
471.9386166697
 20
418.1136904019
 30
0.0
 40
6.096
 41
0.0
 71
     2
 72
     1
  1
3
  7
SLDTEXTSTYLE0
 73
     1
 44
1.0
  0
MTEXT
  5
203
330
1F
100
AcDbEntity
  8
0
  6
Continuous
 62
     7
370
     0
100
AcDbMText
 10
521.9386166697
 20
8.1136904019
 30
0.0
 40
6.096
 41
0.0
 71
     2
 72
     1
  1
2
  7
SLDTEXTSTYLE0
 73
     1
 44
1.0
  0
MTEXT
  5
204
330
1F
100
AcDbEntity
  8
0
  6
Continuous
 62
     7
370
     0
100
AcDbMText
 10
521.9386166697
 20
418.1136904019
 30
0.0
 40
6.096
 41
0.0
 71
     2
 72
     1
  1
2
  7
SLDTEXTSTYLE0
 73
     1
 44
1.0
  0
MTEXT
  5
205
330
1F
100
AcDbEntity
  8
0
  6
Continuous
 62
     7
370
     0
100
AcDbMText
 10
570.4386166697
 20
8.1136904019
 30
0.0
 40
6.096
 41
0.0
 71
     2
 72
     1
  1
1
  7
SLDTEXTSTYLE0
 73
     1
 44
1.0
  0
MTEXT
  5
206
330
1F
100
AcDbEntity
  8
0
  6
Continuous
 62
     7
370
     0
100
AcDbMText
 10
570.4386166697
 20
418.1136904019
 30
0.0
 40
6.096
 41
0.0
 71
     2
 72
     1
  1
1
  7
SLDTEXTSTYLE0
 73
     1
 44
1.0
  0
MTEXT
  5
208
330
1F
100
AcDbEntity
  8
0
  6
Continuous
 62
     7
370
     0
100
AcDbMText
 10
404.6433628979
 20
42.3847813173
 30
0.0
 40
1.5
 41
0.0
 71
     1
 72
     1
  1
DRAWN
  7
SLDTEXTSTYLE1
 73
     1
 44
1.0
  0
MTEXT
  5
209
330
1F
100
AcDbEntity
  8
0
  6
Continuous
 62
     7
370
     0
100
AcDbMText
 10
404.9392221937
 20
38.1618530186
 30
0.0
 40
1.5
 41
0.0
 71
     1
 72
     1
  1
CHK'D
  7
SLDTEXTSTYLE0
 73
     1
 44
1.0
  0
MTEXT
  5
20A
330
1F
100
AcDbEntity
  8
0
  6
Continuous
 62
     7
370
     0
100
AcDbMText
 10
404.4017224083
 20
34.0658666243
 30
0.0
 40
1.5
 41
0.0
 71
     1
 72
     1
  1
APPV'D
  7
SLDTEXTSTYLE0
 73
     1
 44
1.0
  0
MTEXT
  5
20B
330
1F
100
AcDbEntity
  8
0
  6
Continuous
 62
     7
370
     0
100
AcDbMText
 10
405.1240107386
 20
29.7157844608
 30
0.0
 40
1.5
 41
0.0
 71
     1
 72
     1
  1
MFG
  7
SLDTEXTSTYLE0
 73
     1
 44
1.0
  0
MTEXT
  5
20C
330
1F
100
AcDbEntity
  8
0
  6
Continuous
 62
     7
370
     0
100
AcDbMText
 10
405.509036604
 20
25.504662132
 30
0.0
 40
1.5
 41
0.0
 71
     1
 72
     1
  1
Q.A
  7
SLDTEXTSTYLE0
 73
     1
 44
1.0
  0
INSERT
  5
216
330
1F
100
AcDbEntity
  8
0
  6
Continuous
 62
     7
370
     0
100
AcDbBlockReference
  2
SW_NOTE_0
 10
404.5936687456
 20
61.9873698743
 30
0.0
  0
MTEXT
  5
217
330
1F
100
AcDbEntity
  8
0
  6
Continuous
 62
     7
370
     0
100
AcDbMText
 10
438.3712921668
 20
63.9192719951
 30
0.0
 40
1.5
 41
0.0
 71
     1
 72
     1
  1
FINISH:
  7
SLDTEXTSTYLE0
 73
     1
 44
1.0
  0
INSERT
  5
21E
330
1F
100
AcDbEntity
  8
0
  6
Continuous
 62
     7
370
     0
100
AcDbBlockReference
  2
SW_NOTE_0_1
 10
485.3092156863
 20
62.069489643
 30
0.0
  0
MTEXT
  5
21F
330
1F
100
AcDbEntity
  8
0
  6
Continuous
 62
     7
370
     0
100
AcDbMText
 10
418.3222392177
 20
46.5014826335
 30
0.0
 40
1.5
 41
0.0
 71
     1
 72
     1
  1
NAME
  7
SLDTEXTSTYLE0
 73
     1
 44
1.0
  0
MTEXT
  5
220
330
1F
100
AcDbEntity
  8
0
  6
Continuous
 62
     7
370
     0
100
AcDbMText
 10
434.0335875632
 20
46.5617563795
 30
0.0
 40
1.5
 41
0.0
 71
     1
 72
     1
  1
SIGNATURE
  7
SLDTEXTSTYLE0
 73
     1
 44
1.0
  0
MTEXT
  5
221
330
1F
100
AcDbEntity
  8
0
  6
Continuous
 62
     7
370
     0
100
AcDbMText
 10
451.2147019657
 20
46.5761792212
 30
0.0
 40
1.5
 41
0.0
 71
     1
 72
     1
  1
DATE
  7
SLDTEXTSTYLE0
 73
     1
 44
1.0
  0
MTEXT
  5
222
330
1F
100
AcDbEntity
  8
0
  6
Continuous
 62
     7
370
     0
100
AcDbMText
 10
459.6458623088
 20
25.9860562892
 30
0.0
 40
1.5
 41
0.0
 71
     1
 72
     1
  1
MATERIAL:
  7
SLDTEXTSTYLE0
 73
     1
 44
1.0
  0
MTEXT
  5
223
330
1F
100
AcDbEntity
  8
0
  6
Continuous
 62
     7
370
     0
100
AcDbMText
 10
516.6146405229
 20
62.5329935751
 30
0.0
 40
1.5
 41
0.0
 71
     1
 72
     1
  1
DO NOT SCALE DRAWING
  7
SLDTEXTSTYLE0
 73
     1
 44
1.0
  0
MTEXT
  5
224
330
1F
100
AcDbEntity
  8
0
  6
Continuous
 62
     7
370
     0
100
AcDbMText
 10
557.3275816993
 20
62.3349086805
 30
0.0
 40
1.5
 41
0.0
 71
     1
 72
     1
  1
REVISION
  7
SLDTEXTSTYLE0
 73
     1
 44
1.0
  0
MTEXT
  5
225
330
1F
100
AcDbEntity
  8
0
  6
Continuous
 62
     7
370
     0
100
AcDbMText
 10
504.090160639
 20
46.5761792212
 30
0.0
 40
1.5
 41
0.0
 71
     1
 72
     1
  1
TITLE:
  7
SLDTEXTSTYLE0
 73
     1
 44
1.0
  0
MTEXT
  5
226
330
1F
100
AcDbEntity
  8
0
  6
Continuous
 62
     7
370
     0
100
AcDbMText
 10
503.9530022162
 20
25.9860562892
 30
0.0
 40
1.5
 41
0.0
 71
     1
 72
     1
  1
DWG NO.
  7
SLDTEXTSTYLE0
 73
     1
 44
1.0
  0
MTEXT
  5
227
330
1F
100
AcDbEntity
  8
0
  6
Continuous
 62
     7
370
     0
100
AcDbMText
 10
504.0739661175
 20
12.9000872745
 30
0.0
 40
1.5
 41
0.0
 71
     1
 72
     1
  1
SCALE:1:1
  7
SLDTEXTSTYLE0
 73
     1
 44
1.0
  0
MTEXT
  5
229
330
1F
100
AcDbEntity
  8
0
  6
Continuous
 62
     7
370
     0
100
AcDbMText
 10
548.4782944278
 20
12.9000872745
 30
0.0
 40
1.5
 41
0.0
 71
     1
 72
     1
  1
SHEET 1 OF 1
  7
SLDTEXTSTYLE2
 73
     1
 44
1.0
  0
MTEXT
  5
22A
330
1F
100
AcDbEntity
  8
0
  6
Continuous
 62
     7
370
     0
100
AcDbMText
 10
574.8711564346
 20
24.406388569
 30
0.0
 40
2.9104166667
 41
0.0
 71
     1
 72
     1
  1
A2
  7
SLDTEXTSTYLE0
 73
     1
 44
1.0
  0
MTEXT
  5
22B
330
1F
100
AcDbEntity
  8
0
  6
Continuous
 62
     7
370
     0
100
AcDbMText
 10
459.6178111281
 20
12.9493119036
 30
0.0
 40
1.4986
 41
0.0
 71
     1
 72
     1
  1
WEIGHT:
  7
SLDTEXTSTYLE0
 73
     1
 44
1.0
  0
MTEXT
  5
22C
330
1F
100
AcDbEntity
  8
0
  6
Continuous
 62
     7
370
     0
100
AcDbMText
 10
538.912749581
 20
23.6069109673
 30
0.0
 40
6.35
 41
0.0
 71
     2
 72
     1
  1
LayoutDWG
  7
SLDTEXTSTYLE0
 73
     1
 44
1.0
  0
MTEXT
  5
22E
330
1F
100
AcDbEntity
  8
0
  6
Continuous
 62
     7
100
AcDbMText
 10
0.0
 20
20.2653661972
 30
0.0
 40
7.266
 41
0.0
 71
     1
 72
     1
  1
SOLIDWORKS Educational Product.
  7
SLDTEXTSTYLE3
 73
     1
 44
1.0
  0
MTEXT
  5
22F
330
1F
100
AcDbEntity
  8
0
  6
Continuous
 62
     7
100
AcDbMText
 10
0.0
 20
9.3663661972
 30
0.0
 40
7.266
 41
0.0
 71
     1
 72
     1
  1
For Instructional Use Only.
  7
SLDTEXTSTYLE3
 73
     1
 44
1.0
  0
ENDSEC
  0
SECTION
  2
OBJECTS
  0
DICTIONARY
  5
C
330
0
100
AcDbDictionary
281
     1
  3
ACAD_GROUP
350
D
  3
ACAD_LAYOUT
350
1A
  3
ACAD_MLINESTYLE
350
17
  3
ACAD_PLOTSETTINGS
350
19
  3
ACAD_PLOTSTYLENAME
350
E
  3
ACAD_SCALELIST
350
47
  3
DWGPROPS
350
230
  0
DICTIONARY
  5
D
102
{ACAD_REACTORS
330
C
102
}
330
C
100
AcDbDictionary
281
     1
  0
DICTIONARY
  5
1A
102
{ACAD_REACTORS
330
C
102
}
330
C
100
AcDbDictionary
281
     1
  3
Layout1
350
1E
  3
Layout2
350
26
  3
Model
350
22
  0
DICTIONARY
  5
17
102
{ACAD_REACTORS
330
C
102
}
330
C
100
AcDbDictionary
281
     1
  3
Standard
350
18
  0
DICTIONARY
  5
19
102
{ACAD_REACTORS
330
C
102
}
330
C
100
AcDbDictionary
281
     1
  0
ACDBDICTIONARYWDFLT
  5
E
102
{ACAD_REACTORS
330
C
102
}
330
C
100
AcDbDictionary
281
     1
  3
Normal
350
F
100
AcDbDictionaryWithDefault
340
F
  0
DICTIONARY
  5
47
102
{ACAD_REACTORS
330
C
102
}
330
C
100
AcDbDictionary
281
     1
  3
A0
350
48
  3
A1
350
49
  3
A2
350
4A
  3
A3
350
4B
  3
A4
350
4C
  3
A5
350
4D
  3
A6
350
4E
  3
A7
350
4F
  3
A8
350
50
  3
A9
350
51
  3
B0
350
52
  3
B1
350
53
  3
B2
350
54
  3
B3
350
55
  3
B4
350
56
  3
B5
350
57
  3
B6
350
58
  3
B7
350
59
  3
B8
350
5A
  3
B9
350
5B
  3
C0
350
5C
  3
C1
350
5D
  3
C2
350
5E
  3
C3
350
5F
  3
C4
350
60
  3
C5
350
61
  3
C6
350
62
  3
C7
350
63
  3
C8
350
64
  3
C9
350
65
  3
D0
350
66
  3
D1
350
67
  3
D2
350
68
  0
XRECORD
  5
230
102
{ACAD_REACTORS
330
C
102
}
330
C
100
AcDbXrecord
280
     1
  1
DWGPROPS COOKIE
  2

  3

  4

  6

  7

  8
Alex
  9

300
=
301
=
302
=
303
=
304
=
305
=
306
=
307
=
308
=
309
=
 40
0.0
 41
2459680.744714618
 42
2459680.744717511
  1

 90
        0
  0
LAYOUT
  5
1E
102
{ACAD_REACTORS
330
1A
102
}
330
1A
100
AcDbPlotSettings
  1

  2
none_device
  4

  6

 40
0.0
 41
0.0
 42
0.0
 43
0.0
 44
0.0
 45
0.0
 46
0.0
 47
0.0
 48
0.0
 49
0.0
140
0.0
141
0.0
142
1.0
143
1.0
 70
   688
 72
     1
 73
     0
 74
     5
  7

 75
    16
147
1.0
148
0.0
149
0.0
100
AcDbLayout
  1
Layout1
 70
     1
 71
     1
 10
0.0
 20
0.0
 11
420.0
 21
297.0
 12
0.0
 22
0.0
 32
0.0
 14
1.0000000000E+20
 24
1.0000000000E+20
 34
1.0000000000E+20
 15
-1.0000000000E+20
 25
-1.0000000000E+20
 35
-1.0000000000E+20
146
0.0
 13
0.0
 23
0.0
 33
0.0
 16
1.0
 26
0.0
 36
0.0
 17
0.0
 27
1.0
 37
0.0
 76
     0
330
1B
  0
LAYOUT
  5
26
102
{ACAD_REACTORS
330
1A
102
}
330
1A
100
AcDbPlotSettings
  1

  2
none_device
  4

  6

 40
0.0
 41
0.0
 42
0.0
 43
0.0
 44
0.0
 45
0.0
 46
0.0
 47
0.0
 48
0.0
 49
0.0
140
0.0
141
0.0
142
1.0
143
1.0
 70
   688
 72
     1
 73
     0
 74
     5
  7

 75
    16
147
1.0
148
0.0
149
0.0
100
AcDbLayout
  1
Layout2
 70
     1
 71
     2
 10
0.0
 20
0.0
 11
0.0
 21
0.0
 12
0.0
 22
0.0
 32
0.0
 14
0.0
 24
0.0
 34
0.0
 15
0.0
 25
0.0
 35
0.0
146
0.0
 13
0.0
 23
0.0
 33
0.0
 16
1.0
 26
0.0
 36
0.0
 17
0.0
 27
1.0
 37
0.0
 76
     0
330
23
  0
LAYOUT
  5
22
102
{ACAD_REACTORS
330
1A
102
}
330
1A
100
AcDbPlotSettings
  1

  2
none_device
  4
Letter_(8.50_x_11.00_Inches)
  6

 40
6.35
 41
6.35
 42
6.35000508
 43
6.35000508
 44
215.9
 45
279.4
 46
0.0
 47
0.0
 48
0.0
 49
0.0
140
0.0
141
0.0
142
1.0
143
1.0
 70
  1712
 72
     1
 73
     0
 74
     0
  7

 75
     0
147
1.0
148
0.0
149
0.0
100
AcDbLayout
  1
Model
 70
     1
 71
     0
 10
0.0
 20
0.0
 11
594.0
 21
420.0
 12
0.0
 22
0.0
 32
0.0
 14
0.0
 24
0.0
 34
0.0
 15
594.0
 25
420.0
 35
0.0
146
0.0
 13
0.0
 23
0.0
 33
0.0
 16
1.0
 26
0.0
 36
0.0
 17
0.0
 27
1.0
 37
0.0
 76
     0
330
1F
331
29
  0
MLINESTYLE
  5
18
102
{ACAD_REACTORS
330
17
102
}
330
17
100
AcDbMlineStyle
  2
Standard
 70
     0
  3

 62
   256
 51
90.0
 52
90.0
 71
     2
 49
0.5
 62
   256
  6
BYLAYER
 49
-0.5
 62
   256
  6
BYLAYER
  0
ACDBPLACEHOLDER
  5
F
102
{ACAD_REACTORS
330
E
102
}
330
E
  0
SCALE
  5
48
102
{ACAD_REACTORS
330
47
102
}
330
47
100
AcDbScale
 70
     0
300
1:1
140
1.0
141
1.0
290
     1
  0
SCALE
  5
49
102
{ACAD_REACTORS
330
47
102
}
330
47
100
AcDbScale
 70
     0
300
1:2
140
1.0
141
2.0
290
     0
  0
SCALE
  5
4A
102
{ACAD_REACTORS
330
47
102
}
330
47
100
AcDbScale
 70
     0
300
1:4
140
1.0
141
4.0
290
     0
  0
SCALE
  5
4B
102
{ACAD_REACTORS
330
47
102
}
330
47
100
AcDbScale
 70
     0
300
1:5
140
1.0
141
5.0
290
     0
  0
SCALE
  5
4C
102
{ACAD_REACTORS
330
47
102
}
330
47
100
AcDbScale
 70
     0
300
1:8
140
1.0
141
8.0
290
     0
  0
SCALE
  5
4D
102
{ACAD_REACTORS
330
47
102
}
330
47
100
AcDbScale
 70
     0
300
1:10
140
1.0
141
10.0
290
     0
  0
SCALE
  5
4E
102
{ACAD_REACTORS
330
47
102
}
330
47
100
AcDbScale
 70
     0
300
1:16
140
1.0
141
16.0
290
     0
  0
SCALE
  5
4F
102
{ACAD_REACTORS
330
47
102
}
330
47
100
AcDbScale
 70
     0
300
1:20
140
1.0
141
20.0
290
     0
  0
SCALE
  5
50
102
{ACAD_REACTORS
330
47
102
}
330
47
100
AcDbScale
 70
     0
300
1:30
140
1.0
141
30.0
290
     0
  0
SCALE
  5
51
102
{ACAD_REACTORS
330
47
102
}
330
47
100
AcDbScale
 70
     0
300
1:40
140
1.0
141
40.0
290
     0
  0
SCALE
  5
52
102
{ACAD_REACTORS
330
47
102
}
330
47
100
AcDbScale
 70
     0
300
1:50
140
1.0
141
50.0
290
     0
  0
SCALE
  5
53
102
{ACAD_REACTORS
330
47
102
}
330
47
100
AcDbScale
 70
     0
300
1:100
140
1.0
141
100.0
290
     0
  0
SCALE
  5
54
102
{ACAD_REACTORS
330
47
102
}
330
47
100
AcDbScale
 70
     0
300
2:1
140
2.0
141
1.0
290
     0
  0
SCALE
  5
55
102
{ACAD_REACTORS
330
47
102
}
330
47
100
AcDbScale
 70
     0
300
4:1
140
4.0
141
1.0
290
     0
  0
SCALE
  5
56
102
{ACAD_REACTORS
330
47
102
}
330
47
100
AcDbScale
 70
     0
300
8:1
140
8.0
141
1.0
290
     0
  0
SCALE
  5
57
102
{ACAD_REACTORS
330
47
102
}
330
47
100
AcDbScale
 70
     0
300
10:1
140
10.0
141
1.0
290
     0
  0
SCALE
  5
58
102
{ACAD_REACTORS
330
47
102
}
330
47
100
AcDbScale
 70
     0
300
100:1
140
100.0
141
1.0
290
     0
  0
SCALE
  5
59
102
{ACAD_REACTORS
330
47
102
}
330
47
100
AcDbScale
 70
     0
300
1/128" = 1'-0"
140
0.0078125
141
12.0
290
     0
  0
SCALE
  5
5A
102
{ACAD_REACTORS
330
47
102
}
330
47
100
AcDbScale
 70
     0
300
1/64" = 1'-0"
140
0.015625
141
12.0
290
     0
  0
SCALE
  5
5B
102
{ACAD_REACTORS
330
47
102
}
330
47
100
AcDbScale
 70
     0
300
1/32" = 1'-0"
140
0.03125
141
12.0
290
     0
  0
SCALE
  5
5C
102
{ACAD_REACTORS
330
47
102
}
330
47
100
AcDbScale
 70
     0
300
1/16" = 1'-0"
140
0.0625
141
12.0
290
     0
  0
SCALE
  5
5D
102
{ACAD_REACTORS
330
47
102
}
330
47
100
AcDbScale
 70
     0
300
3/32" = 1'-0"
140
0.09375
141
12.0
290
     0
  0
SCALE
  5
5E
102
{ACAD_REACTORS
330
47
102
}
330
47
100
AcDbScale
 70
     0
300
1/8" = 1'-0"
140
0.125
141
12.0
290
     0
  0
SCALE
  5
5F
102
{ACAD_REACTORS
330
47
102
}
330
47
100
AcDbScale
 70
     0
300
3/16" = 1'-0"
140
0.1875
141
12.0
290
     0
  0
SCALE
  5
60
102
{ACAD_REACTORS
330
47
102
}
330
47
100
AcDbScale
 70
     0
300
1/4" = 1'-0"
140
0.25
141
12.0
290
     0
  0
SCALE
  5
61
102
{ACAD_REACTORS
330
47
102
}
330
47
100
AcDbScale
 70
     0
300
3/8" = 1'-0"
140
0.375
141
12.0
290
     0
  0
SCALE
  5
62
102
{ACAD_REACTORS
330
47
102
}
330
47
100
AcDbScale
 70
     0
300
1/2" = 1'-0"
140
0.5
141
12.0
290
     0
  0
SCALE
  5
63
102
{ACAD_REACTORS
330
47
102
}
330
47
100
AcDbScale
 70
     0
300
3/4" = 1'-0"
140
0.75
141
12.0
290
     0
  0
SCALE
  5
64
102
{ACAD_REACTORS
330
47
102
}
330
47
100
AcDbScale
 70
     0
300
1" = 1'-0"
140
1.0
141
12.0
290
     0
  0
SCALE
  5
65
102
{ACAD_REACTORS
330
47
102
}
330
47
100
AcDbScale
 70
     0
300
1-1/2" = 1'-0"
140
1.5
141
12.0
290
     0
  0
SCALE
  5
66
102
{ACAD_REACTORS
330
47
102
}
330
47
100
AcDbScale
 70
     0
300
3" = 1'-0"
140
3.0
141
12.0
290
     0
  0
SCALE
  5
67
102
{ACAD_REACTORS
330
47
102
}
330
47
100
AcDbScale
 70
     0
300
6" = 1'-0"
140
6.0
141
12.0
290
     0
  0
SCALE
  5
68
102
{ACAD_REACTORS
330
47
102
}
330
47
100
AcDbScale
 70
     0
300
1'-0" = 1'-0"
140
12.0
141
12.0
290
     0
  0
ENDSEC
  0
EOF
