%TF.GenerationSoftware,KiCad,Pcbnew,(6.0.1)*%
%TF.CreationDate,2022-02-21T12:46:14-05:00*%
%TF.ProjectId,InductorSchem,496e6475-6374-46f7-9253-6368656d2e6b,1*%
%TF.SameCoordinates,Original*%
%TF.FileFunction,Copper,L2,Inr*%
%TF.FilePolarity,Positive*%
%FSLAX46Y46*%
G04 Gerber Fmt 4.6, Leading zero omitted, Abs format (unit mm)*
G04 Created by KiCad (PCBNEW (6.0.1)) date 2022-02-21 12:46:14*
%MOMM*%
%LPD*%
G01*
G04 APERTURE LIST*
G04 Aperture macros list*
%AMRoundRect*
0 Rectangle with rounded corners*
0 $1 Rounding radius*
0 $2 $3 $4 $5 $6 $7 $8 $9 X,Y pos of 4 corners*
0 Add a 4 corners polygon primitive as box body*
4,1,4,$2,$3,$4,$5,$6,$7,$8,$9,$2,$3,0*
0 Add four circle primitives for the rounded corners*
1,1,$1+$1,$2,$3*
1,1,$1+$1,$4,$5*
1,1,$1+$1,$6,$7*
1,1,$1+$1,$8,$9*
0 Add four rect primitives between the rounded corners*
20,1,$1+$1,$2,$3,$4,$5,0*
20,1,$1+$1,$4,$5,$6,$7,0*
20,1,$1+$1,$6,$7,$8,$9,0*
20,1,$1+$1,$8,$9,$2,$3,0*%
G04 Aperture macros list end*
%TA.AperFunction,ComponentPad*%
%ADD10O,2.200000X1.500000*%
%TD*%
%TA.AperFunction,ComponentPad*%
%ADD11O,1.998980X2.748280*%
%TD*%
%TA.AperFunction,ComponentPad*%
%ADD12RoundRect,0.250001X0.899999X-0.899999X0.899999X0.899999X-0.899999X0.899999X-0.899999X-0.899999X0*%
%TD*%
%TA.AperFunction,ComponentPad*%
%ADD13C,2.300000*%
%TD*%
%TA.AperFunction,ComponentPad*%
%ADD14C,0.700000*%
%TD*%
%TA.AperFunction,ComponentPad*%
%ADD15O,0.900000X2.400000*%
%TD*%
%TA.AperFunction,ComponentPad*%
%ADD16O,0.900000X1.700000*%
%TD*%
%TA.AperFunction,ComponentPad*%
%ADD17R,1.600000X1.600000*%
%TD*%
%TA.AperFunction,ComponentPad*%
%ADD18O,1.600000X1.600000*%
%TD*%
%TA.AperFunction,ComponentPad*%
%ADD19RoundRect,0.250001X0.799999X-0.799999X0.799999X0.799999X-0.799999X0.799999X-0.799999X-0.799999X0*%
%TD*%
%TA.AperFunction,ComponentPad*%
%ADD20C,2.100000*%
%TD*%
%TA.AperFunction,ComponentPad*%
%ADD21C,1.600000*%
%TD*%
%TA.AperFunction,ComponentPad*%
%ADD22C,2.200000*%
%TD*%
%TA.AperFunction,ComponentPad*%
%ADD23RoundRect,0.250001X-0.799999X0.799999X-0.799999X-0.799999X0.799999X-0.799999X0.799999X0.799999X0*%
%TD*%
%TA.AperFunction,ViaPad*%
%ADD24C,2.200000*%
%TD*%
%TA.AperFunction,Conductor*%
%ADD25C,0.500000*%
%TD*%
G04 APERTURE END LIST*
D10*
%TO.N,+5V*%
%TO.C,U2*%
X148094000Y-58676917D03*
%TO.N,GND*%
X148094000Y-61216917D03*
%TO.N,Net-(J2-Pad1)*%
X148094000Y-63756917D03*
%TO.N,GND*%
X148094000Y-66296917D03*
X148094000Y-68836917D03*
%TO.N,Net-(D1-Pad1)*%
X148094000Y-71376917D03*
%TD*%
D11*
%TO.N,unconnected-(U1-Pad1)*%
%TO.C,U1*%
X124064490Y-93125290D03*
%TO.N,unconnected-(U1-Pad2)*%
X126604490Y-93125290D03*
%TO.N,unconnected-(U1-Pad3)*%
X129144490Y-93125290D03*
%TO.N,unconnected-(U1-Pad4)*%
X131684490Y-93125290D03*
%TO.N,/I2C_SDA*%
X134224490Y-93125290D03*
%TO.N,/I2C_SCL*%
X136764490Y-93125290D03*
%TO.N,unconnected-(U1-Pad7)*%
X139304490Y-93125290D03*
%TO.N,unconnected-(U1-Pad8)*%
X139304490Y-76960730D03*
%TO.N,unconnected-(U1-Pad9)*%
X136764490Y-76960730D03*
%TO.N,unconnected-(U1-Pad10)*%
X134224490Y-76960730D03*
%TO.N,unconnected-(U1-Pad11)*%
X131684490Y-76960730D03*
%TO.N,unconnected-(U1-Pad12)*%
X129144490Y-76960730D03*
%TO.N,GND*%
X126604490Y-76960730D03*
%TO.N,+5V*%
X124064490Y-76960730D03*
%TD*%
D12*
%TO.N,/G0B4*%
%TO.C,J5*%
X167640000Y-108660000D03*
D13*
%TO.N,/G0B5*%
X167640000Y-103860000D03*
%TO.N,/G0B6*%
X167640000Y-99060000D03*
%TO.N,/G0B7*%
X167640000Y-94260000D03*
%TD*%
D14*
%TO.N,GND*%
%TO.C,J1*%
X160455000Y-60921000D03*
%TO.N,Net-(D2-Pad2)*%
X159605000Y-60921000D03*
%TO.N,Net-(J1-PadA5)*%
X158755000Y-60921000D03*
%TO.N,unconnected-(J1-PadA6)*%
X157905000Y-60921000D03*
%TO.N,unconnected-(J1-PadA7)*%
X157055000Y-60921000D03*
%TO.N,unconnected-(J1-PadA8)*%
X156205000Y-60921000D03*
%TO.N,Net-(D2-Pad2)*%
X155355000Y-60921000D03*
%TO.N,GND*%
X154505000Y-60921000D03*
X154505000Y-59571000D03*
%TO.N,Net-(D2-Pad2)*%
X155355000Y-59571000D03*
%TO.N,Net-(J1-PadB5)*%
X156205000Y-59571000D03*
%TO.N,unconnected-(J1-PadB6)*%
X157055000Y-59571000D03*
%TO.N,unconnected-(J1-PadB7)*%
X157905000Y-59571000D03*
%TO.N,unconnected-(J1-PadB8)*%
X158755000Y-59571000D03*
%TO.N,Net-(D2-Pad2)*%
X159605000Y-59571000D03*
%TO.N,GND*%
X160455000Y-59571000D03*
D15*
%TO.N,unconnected-(J1-PadS1)*%
X153155000Y-59941000D03*
D16*
X153155000Y-56561000D03*
X161805000Y-56561000D03*
D15*
X161805000Y-59941000D03*
%TD*%
D17*
%TO.N,Net-(D1-Pad1)*%
%TO.C,D1*%
X153670000Y-70104000D03*
D18*
%TO.N,Net-(D1-Pad2)*%
X161290000Y-70104000D03*
%TD*%
D19*
%TO.N,Net-(D1-Pad2)*%
%TO.C,J3*%
X167640000Y-73928000D03*
D20*
%TO.N,GND*%
X167640000Y-69328000D03*
%TD*%
D21*
%TO.N,Net-(J1-PadB5)*%
%TO.C,R2*%
X168148000Y-64770000D03*
D18*
%TO.N,GND*%
X168148000Y-57150000D03*
%TD*%
D17*
%TO.N,Net-(D1-Pad1)*%
%TO.C,D2*%
X153670000Y-65532000D03*
D18*
%TO.N,Net-(D2-Pad2)*%
X161290000Y-65532000D03*
%TD*%
D22*
%TO.N,+5V*%
%TO.C,SW4*%
X151892000Y-132900000D03*
%TO.N,/G0B3*%
X146892000Y-130800000D03*
%TD*%
D19*
%TO.N,+5V*%
%TO.C,J4*%
X167640000Y-83848000D03*
D20*
%TO.N,GND*%
X167640000Y-79248000D03*
%TD*%
D23*
%TO.N,Net-(J2-Pad1)*%
%TO.C,J2*%
X136144000Y-63500000D03*
D20*
%TO.N,GND*%
X136144000Y-68100000D03*
%TD*%
D22*
%TO.N,+5V*%
%TO.C,SW3*%
X151892000Y-113596000D03*
%TO.N,/G0B2*%
X146892000Y-111496000D03*
%TD*%
%TO.N,+5V*%
%TO.C,SW1*%
X131572000Y-113596000D03*
%TO.N,/G0B0*%
X126572000Y-111496000D03*
%TD*%
%TO.N,+5V*%
%TO.C,SW2*%
X131572000Y-132900000D03*
%TO.N,/G0B1*%
X126572000Y-130800000D03*
%TD*%
D21*
%TO.N,Net-(J1-PadA5)*%
%TO.C,R1*%
X165100000Y-64770000D03*
D18*
%TO.N,GND*%
X165100000Y-57150000D03*
%TD*%
D24*
%TO.N,GND*%
X164592000Y-91948000D03*
%TD*%
D25*
%TO.N,GND*%
X160455000Y-60921000D02*
X160455000Y-59571000D01*
X154505000Y-60921000D02*
X154505000Y-59571000D01*
%TD*%
%TA.AperFunction,Conductor*%
%TO.N,GND*%
G36*
X152363415Y-55392002D02*
G01*
X152409908Y-55445658D01*
X152420012Y-55515932D01*
X152398507Y-55570270D01*
X152313989Y-55690975D01*
X152236655Y-55869684D01*
X152235350Y-55875931D01*
X152235349Y-55875934D01*
X152206074Y-56016069D01*
X152196835Y-56060293D01*
X152196500Y-56066685D01*
X152196500Y-57009663D01*
X152211235Y-57154727D01*
X152213144Y-57160818D01*
X152267556Y-57334451D01*
X152267558Y-57334456D01*
X152269465Y-57340541D01*
X152314340Y-57421497D01*
X152355081Y-57494994D01*
X152363870Y-57510850D01*
X152368019Y-57515691D01*
X152368022Y-57515695D01*
X152486440Y-57653855D01*
X152490591Y-57658698D01*
X152495633Y-57662609D01*
X152495634Y-57662610D01*
X152505718Y-57670432D01*
X152644453Y-57778046D01*
X152650176Y-57780862D01*
X152650179Y-57780864D01*
X152813444Y-57861200D01*
X152819171Y-57864018D01*
X152825349Y-57865627D01*
X152825351Y-57865628D01*
X153001425Y-57911492D01*
X153001428Y-57911492D01*
X153007607Y-57913102D01*
X153091597Y-57917504D01*
X153195683Y-57922959D01*
X153195687Y-57922959D01*
X153202064Y-57923293D01*
X153357413Y-57899799D01*
X153388285Y-57895130D01*
X153388286Y-57895130D01*
X153394599Y-57894175D01*
X153400585Y-57891972D01*
X153400591Y-57891971D01*
X153571360Y-57829140D01*
X153571365Y-57829138D01*
X153577346Y-57826937D01*
X153742840Y-57724326D01*
X153817362Y-57653855D01*
X153879685Y-57594919D01*
X153884322Y-57590534D01*
X153996011Y-57431025D01*
X154073345Y-57252316D01*
X154092460Y-57160818D01*
X154112176Y-57066443D01*
X154112177Y-57066438D01*
X154113165Y-57061707D01*
X154113500Y-57055315D01*
X154113500Y-56112337D01*
X154106462Y-56043049D01*
X154099410Y-55973622D01*
X154099410Y-55973621D01*
X154098765Y-55967273D01*
X154070439Y-55876884D01*
X154042444Y-55787549D01*
X154042442Y-55787544D01*
X154040535Y-55781459D01*
X153946130Y-55611150D01*
X153919429Y-55579997D01*
X153890285Y-55515257D01*
X153900769Y-55445039D01*
X153947551Y-55391635D01*
X154015098Y-55372000D01*
X160945294Y-55372000D01*
X161013415Y-55392002D01*
X161059908Y-55445658D01*
X161070012Y-55515932D01*
X161048507Y-55570270D01*
X160963989Y-55690975D01*
X160886655Y-55869684D01*
X160885350Y-55875931D01*
X160885349Y-55875934D01*
X160856074Y-56016069D01*
X160846835Y-56060293D01*
X160846500Y-56066685D01*
X160846500Y-57009663D01*
X160861235Y-57154727D01*
X160863144Y-57160818D01*
X160917556Y-57334451D01*
X160917558Y-57334456D01*
X160919465Y-57340541D01*
X160964340Y-57421497D01*
X161005081Y-57494994D01*
X161013870Y-57510850D01*
X161018019Y-57515691D01*
X161018022Y-57515695D01*
X161136440Y-57653855D01*
X161140591Y-57658698D01*
X161145633Y-57662609D01*
X161145634Y-57662610D01*
X161155718Y-57670432D01*
X161294453Y-57778046D01*
X161300176Y-57780862D01*
X161300179Y-57780864D01*
X161463444Y-57861200D01*
X161469171Y-57864018D01*
X161475349Y-57865627D01*
X161475351Y-57865628D01*
X161651425Y-57911492D01*
X161651428Y-57911492D01*
X161657607Y-57913102D01*
X161741597Y-57917504D01*
X161845683Y-57922959D01*
X161845687Y-57922959D01*
X161852064Y-57923293D01*
X162007413Y-57899799D01*
X162038285Y-57895130D01*
X162038286Y-57895130D01*
X162044599Y-57894175D01*
X162050585Y-57891972D01*
X162050591Y-57891971D01*
X162221360Y-57829140D01*
X162221365Y-57829138D01*
X162227346Y-57826937D01*
X162392840Y-57724326D01*
X162467362Y-57653855D01*
X162529685Y-57594919D01*
X162534322Y-57590534D01*
X162646011Y-57431025D01*
X162652287Y-57416522D01*
X163817273Y-57416522D01*
X163864764Y-57593761D01*
X163868510Y-57604053D01*
X163960586Y-57801511D01*
X163966069Y-57811007D01*
X164091028Y-57989467D01*
X164098084Y-57997875D01*
X164252125Y-58151916D01*
X164260533Y-58158972D01*
X164438993Y-58283931D01*
X164448489Y-58289414D01*
X164645947Y-58381490D01*
X164656239Y-58385236D01*
X164828503Y-58431394D01*
X164842599Y-58431058D01*
X164846000Y-58423116D01*
X164846000Y-58417967D01*
X165354000Y-58417967D01*
X165357973Y-58431498D01*
X165366522Y-58432727D01*
X165543761Y-58385236D01*
X165554053Y-58381490D01*
X165751511Y-58289414D01*
X165761007Y-58283931D01*
X165939467Y-58158972D01*
X165947875Y-58151916D01*
X166101916Y-57997875D01*
X166108972Y-57989467D01*
X166233931Y-57811007D01*
X166239414Y-57801511D01*
X166331490Y-57604053D01*
X166335236Y-57593761D01*
X166381394Y-57421497D01*
X166381275Y-57416522D01*
X166865273Y-57416522D01*
X166912764Y-57593761D01*
X166916510Y-57604053D01*
X167008586Y-57801511D01*
X167014069Y-57811007D01*
X167139028Y-57989467D01*
X167146084Y-57997875D01*
X167300125Y-58151916D01*
X167308533Y-58158972D01*
X167486993Y-58283931D01*
X167496489Y-58289414D01*
X167693947Y-58381490D01*
X167704239Y-58385236D01*
X167876503Y-58431394D01*
X167890599Y-58431058D01*
X167894000Y-58423116D01*
X167894000Y-58417967D01*
X168402000Y-58417967D01*
X168405973Y-58431498D01*
X168414522Y-58432727D01*
X168591761Y-58385236D01*
X168602053Y-58381490D01*
X168799511Y-58289414D01*
X168809007Y-58283931D01*
X168987467Y-58158972D01*
X168995875Y-58151916D01*
X169149916Y-57997875D01*
X169156972Y-57989467D01*
X169281931Y-57811007D01*
X169287414Y-57801511D01*
X169379490Y-57604053D01*
X169383236Y-57593761D01*
X169429394Y-57421497D01*
X169429058Y-57407401D01*
X169421116Y-57404000D01*
X168420115Y-57404000D01*
X168404876Y-57408475D01*
X168403671Y-57409865D01*
X168402000Y-57417548D01*
X168402000Y-58417967D01*
X167894000Y-58417967D01*
X167894000Y-57422115D01*
X167889525Y-57406876D01*
X167888135Y-57405671D01*
X167880452Y-57404000D01*
X166880033Y-57404000D01*
X166866502Y-57407973D01*
X166865273Y-57416522D01*
X166381275Y-57416522D01*
X166381058Y-57407401D01*
X166373116Y-57404000D01*
X165372115Y-57404000D01*
X165356876Y-57408475D01*
X165355671Y-57409865D01*
X165354000Y-57417548D01*
X165354000Y-58417967D01*
X164846000Y-58417967D01*
X164846000Y-57422115D01*
X164841525Y-57406876D01*
X164840135Y-57405671D01*
X164832452Y-57404000D01*
X163832033Y-57404000D01*
X163818502Y-57407973D01*
X163817273Y-57416522D01*
X162652287Y-57416522D01*
X162723345Y-57252316D01*
X162742460Y-57160818D01*
X162762176Y-57066443D01*
X162762177Y-57066438D01*
X162763165Y-57061707D01*
X162763500Y-57055315D01*
X162763500Y-56878503D01*
X163818606Y-56878503D01*
X163818942Y-56892599D01*
X163826884Y-56896000D01*
X164827885Y-56896000D01*
X164843124Y-56891525D01*
X164844329Y-56890135D01*
X164846000Y-56882452D01*
X164846000Y-56877885D01*
X165354000Y-56877885D01*
X165358475Y-56893124D01*
X165359865Y-56894329D01*
X165367548Y-56896000D01*
X166367967Y-56896000D01*
X166381498Y-56892027D01*
X166382727Y-56883478D01*
X166381394Y-56878503D01*
X166866606Y-56878503D01*
X166866942Y-56892599D01*
X166874884Y-56896000D01*
X167875885Y-56896000D01*
X167891124Y-56891525D01*
X167892329Y-56890135D01*
X167894000Y-56882452D01*
X167894000Y-56877885D01*
X168402000Y-56877885D01*
X168406475Y-56893124D01*
X168407865Y-56894329D01*
X168415548Y-56896000D01*
X169415967Y-56896000D01*
X169429498Y-56892027D01*
X169430727Y-56883478D01*
X169383236Y-56706239D01*
X169379490Y-56695947D01*
X169287414Y-56498489D01*
X169281931Y-56488993D01*
X169156972Y-56310533D01*
X169149916Y-56302125D01*
X168995875Y-56148084D01*
X168987467Y-56141028D01*
X168809007Y-56016069D01*
X168799511Y-56010586D01*
X168602053Y-55918510D01*
X168591761Y-55914764D01*
X168419497Y-55868606D01*
X168405401Y-55868942D01*
X168402000Y-55876884D01*
X168402000Y-56877885D01*
X167894000Y-56877885D01*
X167894000Y-55882033D01*
X167890027Y-55868502D01*
X167881478Y-55867273D01*
X167704239Y-55914764D01*
X167693947Y-55918510D01*
X167496489Y-56010586D01*
X167486993Y-56016069D01*
X167308533Y-56141028D01*
X167300125Y-56148084D01*
X167146084Y-56302125D01*
X167139028Y-56310533D01*
X167014069Y-56488993D01*
X167008586Y-56498489D01*
X166916510Y-56695947D01*
X166912764Y-56706239D01*
X166866606Y-56878503D01*
X166381394Y-56878503D01*
X166335236Y-56706239D01*
X166331490Y-56695947D01*
X166239414Y-56498489D01*
X166233931Y-56488993D01*
X166108972Y-56310533D01*
X166101916Y-56302125D01*
X165947875Y-56148084D01*
X165939467Y-56141028D01*
X165761007Y-56016069D01*
X165751511Y-56010586D01*
X165554053Y-55918510D01*
X165543761Y-55914764D01*
X165371497Y-55868606D01*
X165357401Y-55868942D01*
X165354000Y-55876884D01*
X165354000Y-56877885D01*
X164846000Y-56877885D01*
X164846000Y-55882033D01*
X164842027Y-55868502D01*
X164833478Y-55867273D01*
X164656239Y-55914764D01*
X164645947Y-55918510D01*
X164448489Y-56010586D01*
X164438993Y-56016069D01*
X164260533Y-56141028D01*
X164252125Y-56148084D01*
X164098084Y-56302125D01*
X164091028Y-56310533D01*
X163966069Y-56488993D01*
X163960586Y-56498489D01*
X163868510Y-56695947D01*
X163864764Y-56706239D01*
X163818606Y-56878503D01*
X162763500Y-56878503D01*
X162763500Y-56112337D01*
X162756462Y-56043049D01*
X162749410Y-55973622D01*
X162749410Y-55973621D01*
X162748765Y-55967273D01*
X162720439Y-55876884D01*
X162692444Y-55787549D01*
X162692442Y-55787544D01*
X162690535Y-55781459D01*
X162596130Y-55611150D01*
X162569429Y-55579997D01*
X162540285Y-55515257D01*
X162550769Y-55445039D01*
X162597551Y-55391635D01*
X162665098Y-55372000D01*
X170054000Y-55372000D01*
X170122121Y-55392002D01*
X170168614Y-55445658D01*
X170180000Y-55498000D01*
X170180000Y-136018000D01*
X170159998Y-136086121D01*
X170106342Y-136132614D01*
X170054000Y-136144000D01*
X121538000Y-136144000D01*
X121469879Y-136123998D01*
X121423386Y-136070342D01*
X121412000Y-136018000D01*
X121412000Y-132900000D01*
X129958526Y-132900000D01*
X129978391Y-133152403D01*
X130037495Y-133398591D01*
X130134384Y-133632502D01*
X130266672Y-133848376D01*
X130431102Y-134040898D01*
X130623624Y-134205328D01*
X130839498Y-134337616D01*
X130844068Y-134339509D01*
X130844072Y-134339511D01*
X131068836Y-134432611D01*
X131073409Y-134434505D01*
X131158032Y-134454821D01*
X131314784Y-134492454D01*
X131314790Y-134492455D01*
X131319597Y-134493609D01*
X131572000Y-134513474D01*
X131824403Y-134493609D01*
X131829210Y-134492455D01*
X131829216Y-134492454D01*
X131985968Y-134454821D01*
X132070591Y-134434505D01*
X132075164Y-134432611D01*
X132299928Y-134339511D01*
X132299932Y-134339509D01*
X132304502Y-134337616D01*
X132520376Y-134205328D01*
X132712898Y-134040898D01*
X132877328Y-133848376D01*
X133009616Y-133632502D01*
X133106505Y-133398591D01*
X133165609Y-133152403D01*
X133185474Y-132900000D01*
X150278526Y-132900000D01*
X150298391Y-133152403D01*
X150357495Y-133398591D01*
X150454384Y-133632502D01*
X150586672Y-133848376D01*
X150751102Y-134040898D01*
X150943624Y-134205328D01*
X151159498Y-134337616D01*
X151164068Y-134339509D01*
X151164072Y-134339511D01*
X151388836Y-134432611D01*
X151393409Y-134434505D01*
X151478032Y-134454821D01*
X151634784Y-134492454D01*
X151634790Y-134492455D01*
X151639597Y-134493609D01*
X151892000Y-134513474D01*
X152144403Y-134493609D01*
X152149210Y-134492455D01*
X152149216Y-134492454D01*
X152305968Y-134454821D01*
X152390591Y-134434505D01*
X152395164Y-134432611D01*
X152619928Y-134339511D01*
X152619932Y-134339509D01*
X152624502Y-134337616D01*
X152840376Y-134205328D01*
X153032898Y-134040898D01*
X153197328Y-133848376D01*
X153329616Y-133632502D01*
X153426505Y-133398591D01*
X153485609Y-133152403D01*
X153505474Y-132900000D01*
X153485609Y-132647597D01*
X153426505Y-132401409D01*
X153399271Y-132335660D01*
X153331511Y-132172072D01*
X153331509Y-132172068D01*
X153329616Y-132167498D01*
X153197328Y-131951624D01*
X153032898Y-131759102D01*
X152840376Y-131594672D01*
X152624502Y-131462384D01*
X152619932Y-131460491D01*
X152619928Y-131460489D01*
X152395164Y-131367389D01*
X152395162Y-131367388D01*
X152390591Y-131365495D01*
X152305968Y-131345179D01*
X152149216Y-131307546D01*
X152149210Y-131307545D01*
X152144403Y-131306391D01*
X151892000Y-131286526D01*
X151639597Y-131306391D01*
X151634790Y-131307545D01*
X151634784Y-131307546D01*
X151478032Y-131345179D01*
X151393409Y-131365495D01*
X151388838Y-131367388D01*
X151388836Y-131367389D01*
X151164072Y-131460489D01*
X151164068Y-131460491D01*
X151159498Y-131462384D01*
X150943624Y-131594672D01*
X150751102Y-131759102D01*
X150586672Y-131951624D01*
X150454384Y-132167498D01*
X150452491Y-132172068D01*
X150452489Y-132172072D01*
X150384729Y-132335660D01*
X150357495Y-132401409D01*
X150298391Y-132647597D01*
X150278526Y-132900000D01*
X133185474Y-132900000D01*
X133165609Y-132647597D01*
X133106505Y-132401409D01*
X133079271Y-132335660D01*
X133011511Y-132172072D01*
X133011509Y-132172068D01*
X133009616Y-132167498D01*
X132877328Y-131951624D01*
X132712898Y-131759102D01*
X132520376Y-131594672D01*
X132304502Y-131462384D01*
X132299932Y-131460491D01*
X132299928Y-131460489D01*
X132075164Y-131367389D01*
X132075162Y-131367388D01*
X132070591Y-131365495D01*
X131985968Y-131345179D01*
X131829216Y-131307546D01*
X131829210Y-131307545D01*
X131824403Y-131306391D01*
X131572000Y-131286526D01*
X131319597Y-131306391D01*
X131314790Y-131307545D01*
X131314784Y-131307546D01*
X131158032Y-131345179D01*
X131073409Y-131365495D01*
X131068838Y-131367388D01*
X131068836Y-131367389D01*
X130844072Y-131460489D01*
X130844068Y-131460491D01*
X130839498Y-131462384D01*
X130623624Y-131594672D01*
X130431102Y-131759102D01*
X130266672Y-131951624D01*
X130134384Y-132167498D01*
X130132491Y-132172068D01*
X130132489Y-132172072D01*
X130064729Y-132335660D01*
X130037495Y-132401409D01*
X129978391Y-132647597D01*
X129958526Y-132900000D01*
X121412000Y-132900000D01*
X121412000Y-130800000D01*
X124958526Y-130800000D01*
X124978391Y-131052403D01*
X125037495Y-131298591D01*
X125039388Y-131303162D01*
X125039389Y-131303164D01*
X125065208Y-131365495D01*
X125134384Y-131532502D01*
X125266672Y-131748376D01*
X125431102Y-131940898D01*
X125623624Y-132105328D01*
X125839498Y-132237616D01*
X125844068Y-132239509D01*
X125844072Y-132239511D01*
X126068836Y-132332611D01*
X126073409Y-132334505D01*
X126158032Y-132354821D01*
X126314784Y-132392454D01*
X126314790Y-132392455D01*
X126319597Y-132393609D01*
X126572000Y-132413474D01*
X126824403Y-132393609D01*
X126829210Y-132392455D01*
X126829216Y-132392454D01*
X126985968Y-132354821D01*
X127070591Y-132334505D01*
X127075164Y-132332611D01*
X127299928Y-132239511D01*
X127299932Y-132239509D01*
X127304502Y-132237616D01*
X127520376Y-132105328D01*
X127712898Y-131940898D01*
X127877328Y-131748376D01*
X128009616Y-131532502D01*
X128078793Y-131365495D01*
X128104611Y-131303164D01*
X128104612Y-131303162D01*
X128106505Y-131298591D01*
X128165609Y-131052403D01*
X128185474Y-130800000D01*
X145278526Y-130800000D01*
X145298391Y-131052403D01*
X145357495Y-131298591D01*
X145359388Y-131303162D01*
X145359389Y-131303164D01*
X145385208Y-131365495D01*
X145454384Y-131532502D01*
X145586672Y-131748376D01*
X145751102Y-131940898D01*
X145943624Y-132105328D01*
X146159498Y-132237616D01*
X146164068Y-132239509D01*
X146164072Y-132239511D01*
X146388836Y-132332611D01*
X146393409Y-132334505D01*
X146478032Y-132354821D01*
X146634784Y-132392454D01*
X146634790Y-132392455D01*
X146639597Y-132393609D01*
X146892000Y-132413474D01*
X147144403Y-132393609D01*
X147149210Y-132392455D01*
X147149216Y-132392454D01*
X147305968Y-132354821D01*
X147390591Y-132334505D01*
X147395164Y-132332611D01*
X147619928Y-132239511D01*
X147619932Y-132239509D01*
X147624502Y-132237616D01*
X147840376Y-132105328D01*
X148032898Y-131940898D01*
X148197328Y-131748376D01*
X148329616Y-131532502D01*
X148398793Y-131365495D01*
X148424611Y-131303164D01*
X148424612Y-131303162D01*
X148426505Y-131298591D01*
X148485609Y-131052403D01*
X148505474Y-130800000D01*
X148485609Y-130547597D01*
X148426505Y-130301409D01*
X148329616Y-130067498D01*
X148197328Y-129851624D01*
X148032898Y-129659102D01*
X147840376Y-129494672D01*
X147624502Y-129362384D01*
X147619932Y-129360491D01*
X147619928Y-129360489D01*
X147395164Y-129267389D01*
X147395162Y-129267388D01*
X147390591Y-129265495D01*
X147305968Y-129245179D01*
X147149216Y-129207546D01*
X147149210Y-129207545D01*
X147144403Y-129206391D01*
X146892000Y-129186526D01*
X146639597Y-129206391D01*
X146634790Y-129207545D01*
X146634784Y-129207546D01*
X146478032Y-129245179D01*
X146393409Y-129265495D01*
X146388838Y-129267388D01*
X146388836Y-129267389D01*
X146164072Y-129360489D01*
X146164068Y-129360491D01*
X146159498Y-129362384D01*
X145943624Y-129494672D01*
X145751102Y-129659102D01*
X145586672Y-129851624D01*
X145454384Y-130067498D01*
X145357495Y-130301409D01*
X145298391Y-130547597D01*
X145278526Y-130800000D01*
X128185474Y-130800000D01*
X128165609Y-130547597D01*
X128106505Y-130301409D01*
X128009616Y-130067498D01*
X127877328Y-129851624D01*
X127712898Y-129659102D01*
X127520376Y-129494672D01*
X127304502Y-129362384D01*
X127299932Y-129360491D01*
X127299928Y-129360489D01*
X127075164Y-129267389D01*
X127075162Y-129267388D01*
X127070591Y-129265495D01*
X126985968Y-129245179D01*
X126829216Y-129207546D01*
X126829210Y-129207545D01*
X126824403Y-129206391D01*
X126572000Y-129186526D01*
X126319597Y-129206391D01*
X126314790Y-129207545D01*
X126314784Y-129207546D01*
X126158032Y-129245179D01*
X126073409Y-129265495D01*
X126068838Y-129267388D01*
X126068836Y-129267389D01*
X125844072Y-129360489D01*
X125844068Y-129360491D01*
X125839498Y-129362384D01*
X125623624Y-129494672D01*
X125431102Y-129659102D01*
X125266672Y-129851624D01*
X125134384Y-130067498D01*
X125037495Y-130301409D01*
X124978391Y-130547597D01*
X124958526Y-130800000D01*
X121412000Y-130800000D01*
X121412000Y-126933411D01*
X124659977Y-126933411D01*
X124668945Y-127172274D01*
X124718030Y-127406211D01*
X124805829Y-127628533D01*
X124929832Y-127832883D01*
X124933329Y-127836913D01*
X125039684Y-127959476D01*
X125086493Y-128013419D01*
X125090619Y-128016802D01*
X125090623Y-128016806D01*
X125189629Y-128097985D01*
X125271333Y-128164978D01*
X125275969Y-128167617D01*
X125275972Y-128167619D01*
X125369071Y-128220614D01*
X125479066Y-128283227D01*
X125703753Y-128364784D01*
X125709002Y-128365733D01*
X125709005Y-128365734D01*
X125934885Y-128406580D01*
X125934893Y-128406581D01*
X125938969Y-128407318D01*
X125957359Y-128408185D01*
X125962544Y-128408430D01*
X125962551Y-128408430D01*
X125964032Y-128408500D01*
X126132012Y-128408500D01*
X126310175Y-128393383D01*
X126315339Y-128392043D01*
X126315343Y-128392042D01*
X126536375Y-128334673D01*
X126536380Y-128334671D01*
X126541540Y-128333332D01*
X126658636Y-128280584D01*
X126754619Y-128237347D01*
X126754622Y-128237346D01*
X126759480Y-128235157D01*
X126957762Y-128101666D01*
X127130718Y-127936674D01*
X127273402Y-127744900D01*
X127286149Y-127719830D01*
X127379314Y-127536586D01*
X127379314Y-127536585D01*
X127381733Y-127531828D01*
X127422361Y-127400984D01*
X127451032Y-127308651D01*
X127451033Y-127308645D01*
X127452616Y-127303548D01*
X127471770Y-127159036D01*
X127475260Y-127132703D01*
X129462743Y-127132703D01*
X129463302Y-127136947D01*
X129463302Y-127136951D01*
X129479810Y-127262340D01*
X129500268Y-127417734D01*
X129576129Y-127695036D01*
X129688923Y-127959476D01*
X129763473Y-128084040D01*
X129809888Y-128161593D01*
X129836561Y-128206161D01*
X130016313Y-128430528D01*
X130224851Y-128628423D01*
X130458317Y-128796186D01*
X130462112Y-128798195D01*
X130462113Y-128798196D01*
X130483869Y-128809715D01*
X130712392Y-128930712D01*
X130982373Y-129029511D01*
X131263264Y-129090755D01*
X131291841Y-129093004D01*
X131486282Y-129108307D01*
X131486291Y-129108307D01*
X131488739Y-129108500D01*
X131644271Y-129108500D01*
X131646407Y-129108354D01*
X131646418Y-129108354D01*
X131854548Y-129094165D01*
X131854554Y-129094164D01*
X131858825Y-129093873D01*
X131863020Y-129093004D01*
X131863022Y-129093004D01*
X131999584Y-129064723D01*
X132140342Y-129035574D01*
X132411343Y-128939607D01*
X132666812Y-128807750D01*
X132670313Y-128805289D01*
X132670317Y-128805287D01*
X132784418Y-128725095D01*
X132902023Y-128642441D01*
X133112622Y-128446740D01*
X133294713Y-128224268D01*
X133444927Y-127979142D01*
X133560483Y-127715898D01*
X133639244Y-127439406D01*
X133679751Y-127154784D01*
X133679845Y-127136951D01*
X133680911Y-126933411D01*
X135659977Y-126933411D01*
X135668945Y-127172274D01*
X135718030Y-127406211D01*
X135805829Y-127628533D01*
X135929832Y-127832883D01*
X135933329Y-127836913D01*
X136039684Y-127959476D01*
X136086493Y-128013419D01*
X136090619Y-128016802D01*
X136090623Y-128016806D01*
X136189629Y-128097985D01*
X136271333Y-128164978D01*
X136275969Y-128167617D01*
X136275972Y-128167619D01*
X136369071Y-128220614D01*
X136479066Y-128283227D01*
X136703753Y-128364784D01*
X136709002Y-128365733D01*
X136709005Y-128365734D01*
X136934885Y-128406580D01*
X136934893Y-128406581D01*
X136938969Y-128407318D01*
X136957359Y-128408185D01*
X136962544Y-128408430D01*
X136962551Y-128408430D01*
X136964032Y-128408500D01*
X137132012Y-128408500D01*
X137310175Y-128393383D01*
X137315339Y-128392043D01*
X137315343Y-128392042D01*
X137536375Y-128334673D01*
X137536380Y-128334671D01*
X137541540Y-128333332D01*
X137658636Y-128280584D01*
X137754619Y-128237347D01*
X137754622Y-128237346D01*
X137759480Y-128235157D01*
X137957762Y-128101666D01*
X138130718Y-127936674D01*
X138273402Y-127744900D01*
X138286149Y-127719830D01*
X138379314Y-127536586D01*
X138379314Y-127536585D01*
X138381733Y-127531828D01*
X138422361Y-127400984D01*
X138451032Y-127308651D01*
X138451033Y-127308645D01*
X138452616Y-127303548D01*
X138471770Y-127159036D01*
X138483323Y-127071873D01*
X138483323Y-127071869D01*
X138484023Y-127066589D01*
X138479023Y-126933411D01*
X144979977Y-126933411D01*
X144988945Y-127172274D01*
X145038030Y-127406211D01*
X145125829Y-127628533D01*
X145249832Y-127832883D01*
X145253329Y-127836913D01*
X145359684Y-127959476D01*
X145406493Y-128013419D01*
X145410619Y-128016802D01*
X145410623Y-128016806D01*
X145509629Y-128097985D01*
X145591333Y-128164978D01*
X145595969Y-128167617D01*
X145595972Y-128167619D01*
X145689071Y-128220614D01*
X145799066Y-128283227D01*
X146023753Y-128364784D01*
X146029002Y-128365733D01*
X146029005Y-128365734D01*
X146254885Y-128406580D01*
X146254893Y-128406581D01*
X146258969Y-128407318D01*
X146277359Y-128408185D01*
X146282544Y-128408430D01*
X146282551Y-128408430D01*
X146284032Y-128408500D01*
X146452012Y-128408500D01*
X146630175Y-128393383D01*
X146635339Y-128392043D01*
X146635343Y-128392042D01*
X146856375Y-128334673D01*
X146856380Y-128334671D01*
X146861540Y-128333332D01*
X146978636Y-128280584D01*
X147074619Y-128237347D01*
X147074622Y-128237346D01*
X147079480Y-128235157D01*
X147277762Y-128101666D01*
X147450718Y-127936674D01*
X147593402Y-127744900D01*
X147606149Y-127719830D01*
X147699314Y-127536586D01*
X147699314Y-127536585D01*
X147701733Y-127531828D01*
X147742361Y-127400984D01*
X147771032Y-127308651D01*
X147771033Y-127308645D01*
X147772616Y-127303548D01*
X147791770Y-127159036D01*
X147795260Y-127132703D01*
X149782743Y-127132703D01*
X149783302Y-127136947D01*
X149783302Y-127136951D01*
X149799810Y-127262340D01*
X149820268Y-127417734D01*
X149896129Y-127695036D01*
X150008923Y-127959476D01*
X150083473Y-128084040D01*
X150129888Y-128161593D01*
X150156561Y-128206161D01*
X150336313Y-128430528D01*
X150544851Y-128628423D01*
X150778317Y-128796186D01*
X150782112Y-128798195D01*
X150782113Y-128798196D01*
X150803869Y-128809715D01*
X151032392Y-128930712D01*
X151302373Y-129029511D01*
X151583264Y-129090755D01*
X151611841Y-129093004D01*
X151806282Y-129108307D01*
X151806291Y-129108307D01*
X151808739Y-129108500D01*
X151964271Y-129108500D01*
X151966407Y-129108354D01*
X151966418Y-129108354D01*
X152174548Y-129094165D01*
X152174554Y-129094164D01*
X152178825Y-129093873D01*
X152183020Y-129093004D01*
X152183022Y-129093004D01*
X152319584Y-129064723D01*
X152460342Y-129035574D01*
X152731343Y-128939607D01*
X152986812Y-128807750D01*
X152990313Y-128805289D01*
X152990317Y-128805287D01*
X153104418Y-128725095D01*
X153222023Y-128642441D01*
X153432622Y-128446740D01*
X153614713Y-128224268D01*
X153764927Y-127979142D01*
X153880483Y-127715898D01*
X153959244Y-127439406D01*
X153999751Y-127154784D01*
X153999845Y-127136951D01*
X154000911Y-126933411D01*
X155979977Y-126933411D01*
X155988945Y-127172274D01*
X156038030Y-127406211D01*
X156125829Y-127628533D01*
X156249832Y-127832883D01*
X156253329Y-127836913D01*
X156359684Y-127959476D01*
X156406493Y-128013419D01*
X156410619Y-128016802D01*
X156410623Y-128016806D01*
X156509629Y-128097985D01*
X156591333Y-128164978D01*
X156595969Y-128167617D01*
X156595972Y-128167619D01*
X156689071Y-128220614D01*
X156799066Y-128283227D01*
X157023753Y-128364784D01*
X157029002Y-128365733D01*
X157029005Y-128365734D01*
X157254885Y-128406580D01*
X157254893Y-128406581D01*
X157258969Y-128407318D01*
X157277359Y-128408185D01*
X157282544Y-128408430D01*
X157282551Y-128408430D01*
X157284032Y-128408500D01*
X157452012Y-128408500D01*
X157630175Y-128393383D01*
X157635339Y-128392043D01*
X157635343Y-128392042D01*
X157856375Y-128334673D01*
X157856380Y-128334671D01*
X157861540Y-128333332D01*
X157978636Y-128280584D01*
X158074619Y-128237347D01*
X158074622Y-128237346D01*
X158079480Y-128235157D01*
X158277762Y-128101666D01*
X158450718Y-127936674D01*
X158593402Y-127744900D01*
X158606149Y-127719830D01*
X158699314Y-127536586D01*
X158699314Y-127536585D01*
X158701733Y-127531828D01*
X158742361Y-127400984D01*
X158771032Y-127308651D01*
X158771033Y-127308645D01*
X158772616Y-127303548D01*
X158791770Y-127159036D01*
X158803323Y-127071873D01*
X158803323Y-127071869D01*
X158804023Y-127066589D01*
X158795055Y-126827726D01*
X158745970Y-126593789D01*
X158658171Y-126371467D01*
X158534168Y-126167117D01*
X158444103Y-126063326D01*
X158381007Y-125990614D01*
X158381005Y-125990612D01*
X158377507Y-125986581D01*
X158373381Y-125983198D01*
X158373377Y-125983194D01*
X158196795Y-125838407D01*
X158192667Y-125835022D01*
X158188031Y-125832383D01*
X158188028Y-125832381D01*
X157989577Y-125719416D01*
X157984934Y-125716773D01*
X157760247Y-125635216D01*
X157754998Y-125634267D01*
X157754995Y-125634266D01*
X157529115Y-125593420D01*
X157529107Y-125593419D01*
X157525031Y-125592682D01*
X157506641Y-125591815D01*
X157501456Y-125591570D01*
X157501449Y-125591570D01*
X157499968Y-125591500D01*
X157331988Y-125591500D01*
X157153825Y-125606617D01*
X157148661Y-125607957D01*
X157148657Y-125607958D01*
X156927625Y-125665327D01*
X156927620Y-125665329D01*
X156922460Y-125666668D01*
X156917594Y-125668860D01*
X156709381Y-125762653D01*
X156709378Y-125762654D01*
X156704520Y-125764843D01*
X156506238Y-125898334D01*
X156333282Y-126063326D01*
X156190598Y-126255100D01*
X156188182Y-126259851D01*
X156188180Y-126259855D01*
X156133754Y-126366904D01*
X156082267Y-126468172D01*
X156054851Y-126556466D01*
X156012968Y-126691349D01*
X156012967Y-126691355D01*
X156011384Y-126696452D01*
X156010683Y-126701744D01*
X155991667Y-126845216D01*
X155979977Y-126933411D01*
X154000911Y-126933411D01*
X154001235Y-126871583D01*
X154001235Y-126871576D01*
X154001257Y-126867297D01*
X153996048Y-126827726D01*
X153984190Y-126737660D01*
X153963732Y-126582266D01*
X153887871Y-126304964D01*
X153775077Y-126040524D01*
X153688195Y-125895354D01*
X153629643Y-125797521D01*
X153629640Y-125797517D01*
X153627439Y-125793839D01*
X153447687Y-125569472D01*
X153239149Y-125371577D01*
X153005683Y-125203814D01*
X152983843Y-125192250D01*
X152960654Y-125179972D01*
X152751608Y-125069288D01*
X152481627Y-124970489D01*
X152200736Y-124909245D01*
X152169685Y-124906801D01*
X151977718Y-124891693D01*
X151977709Y-124891693D01*
X151975261Y-124891500D01*
X151819729Y-124891500D01*
X151817593Y-124891646D01*
X151817582Y-124891646D01*
X151609452Y-124905835D01*
X151609446Y-124905836D01*
X151605175Y-124906127D01*
X151600980Y-124906996D01*
X151600978Y-124906996D01*
X151464417Y-124935276D01*
X151323658Y-124964426D01*
X151052657Y-125060393D01*
X150797188Y-125192250D01*
X150793687Y-125194711D01*
X150793683Y-125194713D01*
X150783594Y-125201804D01*
X150561977Y-125357559D01*
X150351378Y-125553260D01*
X150169287Y-125775732D01*
X150019073Y-126020858D01*
X149903517Y-126284102D01*
X149824756Y-126560594D01*
X149784249Y-126845216D01*
X149784227Y-126849505D01*
X149784226Y-126849512D01*
X149782765Y-127128417D01*
X149782743Y-127132703D01*
X147795260Y-127132703D01*
X147803323Y-127071873D01*
X147803323Y-127071869D01*
X147804023Y-127066589D01*
X147795055Y-126827726D01*
X147745970Y-126593789D01*
X147658171Y-126371467D01*
X147534168Y-126167117D01*
X147444103Y-126063326D01*
X147381007Y-125990614D01*
X147381005Y-125990612D01*
X147377507Y-125986581D01*
X147373381Y-125983198D01*
X147373377Y-125983194D01*
X147196795Y-125838407D01*
X147192667Y-125835022D01*
X147188031Y-125832383D01*
X147188028Y-125832381D01*
X146989577Y-125719416D01*
X146984934Y-125716773D01*
X146760247Y-125635216D01*
X146754998Y-125634267D01*
X146754995Y-125634266D01*
X146529115Y-125593420D01*
X146529107Y-125593419D01*
X146525031Y-125592682D01*
X146506641Y-125591815D01*
X146501456Y-125591570D01*
X146501449Y-125591570D01*
X146499968Y-125591500D01*
X146331988Y-125591500D01*
X146153825Y-125606617D01*
X146148661Y-125607957D01*
X146148657Y-125607958D01*
X145927625Y-125665327D01*
X145927620Y-125665329D01*
X145922460Y-125666668D01*
X145917594Y-125668860D01*
X145709381Y-125762653D01*
X145709378Y-125762654D01*
X145704520Y-125764843D01*
X145506238Y-125898334D01*
X145333282Y-126063326D01*
X145190598Y-126255100D01*
X145188182Y-126259851D01*
X145188180Y-126259855D01*
X145133754Y-126366904D01*
X145082267Y-126468172D01*
X145054851Y-126556466D01*
X145012968Y-126691349D01*
X145012967Y-126691355D01*
X145011384Y-126696452D01*
X145010683Y-126701744D01*
X144991667Y-126845216D01*
X144979977Y-126933411D01*
X138479023Y-126933411D01*
X138475055Y-126827726D01*
X138425970Y-126593789D01*
X138338171Y-126371467D01*
X138214168Y-126167117D01*
X138124103Y-126063326D01*
X138061007Y-125990614D01*
X138061005Y-125990612D01*
X138057507Y-125986581D01*
X138053381Y-125983198D01*
X138053377Y-125983194D01*
X137876795Y-125838407D01*
X137872667Y-125835022D01*
X137868031Y-125832383D01*
X137868028Y-125832381D01*
X137669577Y-125719416D01*
X137664934Y-125716773D01*
X137440247Y-125635216D01*
X137434998Y-125634267D01*
X137434995Y-125634266D01*
X137209115Y-125593420D01*
X137209107Y-125593419D01*
X137205031Y-125592682D01*
X137186641Y-125591815D01*
X137181456Y-125591570D01*
X137181449Y-125591570D01*
X137179968Y-125591500D01*
X137011988Y-125591500D01*
X136833825Y-125606617D01*
X136828661Y-125607957D01*
X136828657Y-125607958D01*
X136607625Y-125665327D01*
X136607620Y-125665329D01*
X136602460Y-125666668D01*
X136597594Y-125668860D01*
X136389381Y-125762653D01*
X136389378Y-125762654D01*
X136384520Y-125764843D01*
X136186238Y-125898334D01*
X136013282Y-126063326D01*
X135870598Y-126255100D01*
X135868182Y-126259851D01*
X135868180Y-126259855D01*
X135813754Y-126366904D01*
X135762267Y-126468172D01*
X135734851Y-126556466D01*
X135692968Y-126691349D01*
X135692967Y-126691355D01*
X135691384Y-126696452D01*
X135690683Y-126701744D01*
X135671667Y-126845216D01*
X135659977Y-126933411D01*
X133680911Y-126933411D01*
X133681235Y-126871583D01*
X133681235Y-126871576D01*
X133681257Y-126867297D01*
X133676048Y-126827726D01*
X133664190Y-126737660D01*
X133643732Y-126582266D01*
X133567871Y-126304964D01*
X133455077Y-126040524D01*
X133368195Y-125895354D01*
X133309643Y-125797521D01*
X133309640Y-125797517D01*
X133307439Y-125793839D01*
X133127687Y-125569472D01*
X132919149Y-125371577D01*
X132685683Y-125203814D01*
X132663843Y-125192250D01*
X132640654Y-125179972D01*
X132431608Y-125069288D01*
X132161627Y-124970489D01*
X131880736Y-124909245D01*
X131849685Y-124906801D01*
X131657718Y-124891693D01*
X131657709Y-124891693D01*
X131655261Y-124891500D01*
X131499729Y-124891500D01*
X131497593Y-124891646D01*
X131497582Y-124891646D01*
X131289452Y-124905835D01*
X131289446Y-124905836D01*
X131285175Y-124906127D01*
X131280980Y-124906996D01*
X131280978Y-124906996D01*
X131144417Y-124935276D01*
X131003658Y-124964426D01*
X130732657Y-125060393D01*
X130477188Y-125192250D01*
X130473687Y-125194711D01*
X130473683Y-125194713D01*
X130463594Y-125201804D01*
X130241977Y-125357559D01*
X130031378Y-125553260D01*
X129849287Y-125775732D01*
X129699073Y-126020858D01*
X129583517Y-126284102D01*
X129504756Y-126560594D01*
X129464249Y-126845216D01*
X129464227Y-126849505D01*
X129464226Y-126849512D01*
X129462765Y-127128417D01*
X129462743Y-127132703D01*
X127475260Y-127132703D01*
X127483323Y-127071873D01*
X127483323Y-127071869D01*
X127484023Y-127066589D01*
X127475055Y-126827726D01*
X127425970Y-126593789D01*
X127338171Y-126371467D01*
X127214168Y-126167117D01*
X127124103Y-126063326D01*
X127061007Y-125990614D01*
X127061005Y-125990612D01*
X127057507Y-125986581D01*
X127053381Y-125983198D01*
X127053377Y-125983194D01*
X126876795Y-125838407D01*
X126872667Y-125835022D01*
X126868031Y-125832383D01*
X126868028Y-125832381D01*
X126669577Y-125719416D01*
X126664934Y-125716773D01*
X126440247Y-125635216D01*
X126434998Y-125634267D01*
X126434995Y-125634266D01*
X126209115Y-125593420D01*
X126209107Y-125593419D01*
X126205031Y-125592682D01*
X126186641Y-125591815D01*
X126181456Y-125591570D01*
X126181449Y-125591570D01*
X126179968Y-125591500D01*
X126011988Y-125591500D01*
X125833825Y-125606617D01*
X125828661Y-125607957D01*
X125828657Y-125607958D01*
X125607625Y-125665327D01*
X125607620Y-125665329D01*
X125602460Y-125666668D01*
X125597594Y-125668860D01*
X125389381Y-125762653D01*
X125389378Y-125762654D01*
X125384520Y-125764843D01*
X125186238Y-125898334D01*
X125013282Y-126063326D01*
X124870598Y-126255100D01*
X124868182Y-126259851D01*
X124868180Y-126259855D01*
X124813754Y-126366904D01*
X124762267Y-126468172D01*
X124734851Y-126556466D01*
X124692968Y-126691349D01*
X124692967Y-126691355D01*
X124691384Y-126696452D01*
X124690683Y-126701744D01*
X124671667Y-126845216D01*
X124659977Y-126933411D01*
X121412000Y-126933411D01*
X121412000Y-122745604D01*
X135679787Y-122745604D01*
X135689567Y-122956899D01*
X135739125Y-123162534D01*
X135741607Y-123167992D01*
X135741608Y-123167996D01*
X135785053Y-123263546D01*
X135826674Y-123355087D01*
X135949054Y-123527611D01*
X136101850Y-123673881D01*
X136279548Y-123788620D01*
X136285114Y-123790863D01*
X136470168Y-123865442D01*
X136470171Y-123865443D01*
X136475737Y-123867686D01*
X136683337Y-123908228D01*
X136688899Y-123908500D01*
X136844846Y-123908500D01*
X137002566Y-123893452D01*
X137205534Y-123833908D01*
X137289111Y-123790863D01*
X137388249Y-123739804D01*
X137388252Y-123739802D01*
X137393580Y-123737058D01*
X137559920Y-123606396D01*
X137563852Y-123601865D01*
X137563855Y-123601862D01*
X137694621Y-123451167D01*
X137698552Y-123446637D01*
X137701552Y-123441451D01*
X137701555Y-123441447D01*
X137801467Y-123268742D01*
X137804473Y-123263546D01*
X137873861Y-123063729D01*
X137904213Y-122854396D01*
X137899177Y-122745604D01*
X155999787Y-122745604D01*
X156009567Y-122956899D01*
X156059125Y-123162534D01*
X156061607Y-123167992D01*
X156061608Y-123167996D01*
X156105053Y-123263546D01*
X156146674Y-123355087D01*
X156269054Y-123527611D01*
X156421850Y-123673881D01*
X156599548Y-123788620D01*
X156605114Y-123790863D01*
X156790168Y-123865442D01*
X156790171Y-123865443D01*
X156795737Y-123867686D01*
X157003337Y-123908228D01*
X157008899Y-123908500D01*
X157164846Y-123908500D01*
X157322566Y-123893452D01*
X157525534Y-123833908D01*
X157609111Y-123790863D01*
X157708249Y-123739804D01*
X157708252Y-123739802D01*
X157713580Y-123737058D01*
X157879920Y-123606396D01*
X157883852Y-123601865D01*
X157883855Y-123601862D01*
X158014621Y-123451167D01*
X158018552Y-123446637D01*
X158021552Y-123441451D01*
X158021555Y-123441447D01*
X158121467Y-123268742D01*
X158124473Y-123263546D01*
X158193861Y-123063729D01*
X158224213Y-122854396D01*
X158214433Y-122643101D01*
X158164875Y-122437466D01*
X158121525Y-122342122D01*
X158079806Y-122250368D01*
X158077326Y-122244913D01*
X157954946Y-122072389D01*
X157802150Y-121926119D01*
X157624452Y-121811380D01*
X157564354Y-121787160D01*
X157433832Y-121734558D01*
X157433829Y-121734557D01*
X157428263Y-121732314D01*
X157220663Y-121691772D01*
X157215101Y-121691500D01*
X157059154Y-121691500D01*
X156901434Y-121706548D01*
X156698466Y-121766092D01*
X156693139Y-121768836D01*
X156693138Y-121768836D01*
X156515751Y-121860196D01*
X156515748Y-121860198D01*
X156510420Y-121862942D01*
X156344080Y-121993604D01*
X156340148Y-121998135D01*
X156340145Y-121998138D01*
X156271474Y-122077275D01*
X156205448Y-122153363D01*
X156202448Y-122158549D01*
X156202445Y-122158553D01*
X156155312Y-122240026D01*
X156099527Y-122336454D01*
X156030139Y-122536271D01*
X155999787Y-122745604D01*
X137899177Y-122745604D01*
X137894433Y-122643101D01*
X137844875Y-122437466D01*
X137801525Y-122342122D01*
X137759806Y-122250368D01*
X137757326Y-122244913D01*
X137634946Y-122072389D01*
X137482150Y-121926119D01*
X137304452Y-121811380D01*
X137244354Y-121787160D01*
X137113832Y-121734558D01*
X137113829Y-121734557D01*
X137108263Y-121732314D01*
X136900663Y-121691772D01*
X136895101Y-121691500D01*
X136739154Y-121691500D01*
X136581434Y-121706548D01*
X136378466Y-121766092D01*
X136373139Y-121768836D01*
X136373138Y-121768836D01*
X136195751Y-121860196D01*
X136195748Y-121860198D01*
X136190420Y-121862942D01*
X136024080Y-121993604D01*
X136020148Y-121998135D01*
X136020145Y-121998138D01*
X135951474Y-122077275D01*
X135885448Y-122153363D01*
X135882448Y-122158549D01*
X135882445Y-122158553D01*
X135835312Y-122240026D01*
X135779527Y-122336454D01*
X135710139Y-122536271D01*
X135679787Y-122745604D01*
X121412000Y-122745604D01*
X121412000Y-113596000D01*
X129958526Y-113596000D01*
X129978391Y-113848403D01*
X130037495Y-114094591D01*
X130134384Y-114328502D01*
X130266672Y-114544376D01*
X130431102Y-114736898D01*
X130623624Y-114901328D01*
X130839498Y-115033616D01*
X130844068Y-115035509D01*
X130844072Y-115035511D01*
X131068836Y-115128611D01*
X131073409Y-115130505D01*
X131158032Y-115150821D01*
X131314784Y-115188454D01*
X131314790Y-115188455D01*
X131319597Y-115189609D01*
X131572000Y-115209474D01*
X131824403Y-115189609D01*
X131829210Y-115188455D01*
X131829216Y-115188454D01*
X131985968Y-115150821D01*
X132070591Y-115130505D01*
X132075164Y-115128611D01*
X132299928Y-115035511D01*
X132299932Y-115035509D01*
X132304502Y-115033616D01*
X132520376Y-114901328D01*
X132712898Y-114736898D01*
X132877328Y-114544376D01*
X133009616Y-114328502D01*
X133106505Y-114094591D01*
X133165609Y-113848403D01*
X133185474Y-113596000D01*
X150278526Y-113596000D01*
X150298391Y-113848403D01*
X150357495Y-114094591D01*
X150454384Y-114328502D01*
X150586672Y-114544376D01*
X150751102Y-114736898D01*
X150943624Y-114901328D01*
X151159498Y-115033616D01*
X151164068Y-115035509D01*
X151164072Y-115035511D01*
X151388836Y-115128611D01*
X151393409Y-115130505D01*
X151478032Y-115150821D01*
X151634784Y-115188454D01*
X151634790Y-115188455D01*
X151639597Y-115189609D01*
X151892000Y-115209474D01*
X152144403Y-115189609D01*
X152149210Y-115188455D01*
X152149216Y-115188454D01*
X152305968Y-115150821D01*
X152390591Y-115130505D01*
X152395164Y-115128611D01*
X152619928Y-115035511D01*
X152619932Y-115035509D01*
X152624502Y-115033616D01*
X152840376Y-114901328D01*
X153032898Y-114736898D01*
X153197328Y-114544376D01*
X153329616Y-114328502D01*
X153426505Y-114094591D01*
X153485609Y-113848403D01*
X153505474Y-113596000D01*
X153485609Y-113343597D01*
X153426505Y-113097409D01*
X153399271Y-113031660D01*
X153331511Y-112868072D01*
X153331509Y-112868068D01*
X153329616Y-112863498D01*
X153197328Y-112647624D01*
X153032898Y-112455102D01*
X152840376Y-112290672D01*
X152624502Y-112158384D01*
X152619932Y-112156491D01*
X152619928Y-112156489D01*
X152395164Y-112063389D01*
X152395162Y-112063388D01*
X152390591Y-112061495D01*
X152305968Y-112041179D01*
X152149216Y-112003546D01*
X152149210Y-112003545D01*
X152144403Y-112002391D01*
X151892000Y-111982526D01*
X151639597Y-112002391D01*
X151634790Y-112003545D01*
X151634784Y-112003546D01*
X151478032Y-112041179D01*
X151393409Y-112061495D01*
X151388838Y-112063388D01*
X151388836Y-112063389D01*
X151164072Y-112156489D01*
X151164068Y-112156491D01*
X151159498Y-112158384D01*
X150943624Y-112290672D01*
X150751102Y-112455102D01*
X150586672Y-112647624D01*
X150454384Y-112863498D01*
X150452491Y-112868068D01*
X150452489Y-112868072D01*
X150384729Y-113031660D01*
X150357495Y-113097409D01*
X150298391Y-113343597D01*
X150278526Y-113596000D01*
X133185474Y-113596000D01*
X133165609Y-113343597D01*
X133106505Y-113097409D01*
X133079271Y-113031660D01*
X133011511Y-112868072D01*
X133011509Y-112868068D01*
X133009616Y-112863498D01*
X132877328Y-112647624D01*
X132712898Y-112455102D01*
X132520376Y-112290672D01*
X132304502Y-112158384D01*
X132299932Y-112156491D01*
X132299928Y-112156489D01*
X132075164Y-112063389D01*
X132075162Y-112063388D01*
X132070591Y-112061495D01*
X131985968Y-112041179D01*
X131829216Y-112003546D01*
X131829210Y-112003545D01*
X131824403Y-112002391D01*
X131572000Y-111982526D01*
X131319597Y-112002391D01*
X131314790Y-112003545D01*
X131314784Y-112003546D01*
X131158032Y-112041179D01*
X131073409Y-112061495D01*
X131068838Y-112063388D01*
X131068836Y-112063389D01*
X130844072Y-112156489D01*
X130844068Y-112156491D01*
X130839498Y-112158384D01*
X130623624Y-112290672D01*
X130431102Y-112455102D01*
X130266672Y-112647624D01*
X130134384Y-112863498D01*
X130132491Y-112868068D01*
X130132489Y-112868072D01*
X130064729Y-113031660D01*
X130037495Y-113097409D01*
X129978391Y-113343597D01*
X129958526Y-113596000D01*
X121412000Y-113596000D01*
X121412000Y-111496000D01*
X124958526Y-111496000D01*
X124978391Y-111748403D01*
X125037495Y-111994591D01*
X125039388Y-111999162D01*
X125039389Y-111999164D01*
X125065208Y-112061495D01*
X125134384Y-112228502D01*
X125266672Y-112444376D01*
X125431102Y-112636898D01*
X125623624Y-112801328D01*
X125839498Y-112933616D01*
X125844068Y-112935509D01*
X125844072Y-112935511D01*
X126068836Y-113028611D01*
X126073409Y-113030505D01*
X126158032Y-113050821D01*
X126314784Y-113088454D01*
X126314790Y-113088455D01*
X126319597Y-113089609D01*
X126572000Y-113109474D01*
X126824403Y-113089609D01*
X126829210Y-113088455D01*
X126829216Y-113088454D01*
X126985968Y-113050821D01*
X127070591Y-113030505D01*
X127075164Y-113028611D01*
X127299928Y-112935511D01*
X127299932Y-112935509D01*
X127304502Y-112933616D01*
X127520376Y-112801328D01*
X127712898Y-112636898D01*
X127877328Y-112444376D01*
X128009616Y-112228502D01*
X128078793Y-112061495D01*
X128104611Y-111999164D01*
X128104612Y-111999162D01*
X128106505Y-111994591D01*
X128165609Y-111748403D01*
X128185474Y-111496000D01*
X145278526Y-111496000D01*
X145298391Y-111748403D01*
X145357495Y-111994591D01*
X145359388Y-111999162D01*
X145359389Y-111999164D01*
X145385208Y-112061495D01*
X145454384Y-112228502D01*
X145586672Y-112444376D01*
X145751102Y-112636898D01*
X145943624Y-112801328D01*
X146159498Y-112933616D01*
X146164068Y-112935509D01*
X146164072Y-112935511D01*
X146388836Y-113028611D01*
X146393409Y-113030505D01*
X146478032Y-113050821D01*
X146634784Y-113088454D01*
X146634790Y-113088455D01*
X146639597Y-113089609D01*
X146892000Y-113109474D01*
X147144403Y-113089609D01*
X147149210Y-113088455D01*
X147149216Y-113088454D01*
X147305968Y-113050821D01*
X147390591Y-113030505D01*
X147395164Y-113028611D01*
X147619928Y-112935511D01*
X147619932Y-112935509D01*
X147624502Y-112933616D01*
X147840376Y-112801328D01*
X148032898Y-112636898D01*
X148197328Y-112444376D01*
X148329616Y-112228502D01*
X148398793Y-112061495D01*
X148424611Y-111999164D01*
X148424612Y-111999162D01*
X148426505Y-111994591D01*
X148485609Y-111748403D01*
X148505474Y-111496000D01*
X148485609Y-111243597D01*
X148426505Y-110997409D01*
X148329616Y-110763498D01*
X148197328Y-110547624D01*
X148032898Y-110355102D01*
X147840376Y-110190672D01*
X147624502Y-110058384D01*
X147619932Y-110056491D01*
X147619928Y-110056489D01*
X147395164Y-109963389D01*
X147395162Y-109963388D01*
X147390591Y-109961495D01*
X147305968Y-109941179D01*
X147149216Y-109903546D01*
X147149210Y-109903545D01*
X147144403Y-109902391D01*
X146892000Y-109882526D01*
X146639597Y-109902391D01*
X146634790Y-109903545D01*
X146634784Y-109903546D01*
X146478032Y-109941179D01*
X146393409Y-109961495D01*
X146388838Y-109963388D01*
X146388836Y-109963389D01*
X146164072Y-110056489D01*
X146164068Y-110056491D01*
X146159498Y-110058384D01*
X145943624Y-110190672D01*
X145751102Y-110355102D01*
X145586672Y-110547624D01*
X145454384Y-110763498D01*
X145357495Y-110997409D01*
X145298391Y-111243597D01*
X145278526Y-111496000D01*
X128185474Y-111496000D01*
X128165609Y-111243597D01*
X128106505Y-110997409D01*
X128009616Y-110763498D01*
X127877328Y-110547624D01*
X127712898Y-110355102D01*
X127520376Y-110190672D01*
X127304502Y-110058384D01*
X127299932Y-110056491D01*
X127299928Y-110056489D01*
X127075164Y-109963389D01*
X127075162Y-109963388D01*
X127070591Y-109961495D01*
X126985968Y-109941179D01*
X126829216Y-109903546D01*
X126829210Y-109903545D01*
X126824403Y-109902391D01*
X126572000Y-109882526D01*
X126319597Y-109902391D01*
X126314790Y-109903545D01*
X126314784Y-109903546D01*
X126158032Y-109941179D01*
X126073409Y-109961495D01*
X126068838Y-109963388D01*
X126068836Y-109963389D01*
X125844072Y-110056489D01*
X125844068Y-110056491D01*
X125839498Y-110058384D01*
X125623624Y-110190672D01*
X125431102Y-110355102D01*
X125266672Y-110547624D01*
X125134384Y-110763498D01*
X125037495Y-110997409D01*
X124978391Y-111243597D01*
X124958526Y-111496000D01*
X121412000Y-111496000D01*
X121412000Y-107629411D01*
X124659977Y-107629411D01*
X124668945Y-107868274D01*
X124718030Y-108102211D01*
X124805829Y-108324533D01*
X124929832Y-108528883D01*
X124933329Y-108532913D01*
X125039684Y-108655476D01*
X125086493Y-108709419D01*
X125090619Y-108712802D01*
X125090623Y-108712806D01*
X125189629Y-108793985D01*
X125271333Y-108860978D01*
X125275969Y-108863617D01*
X125275972Y-108863619D01*
X125369071Y-108916614D01*
X125479066Y-108979227D01*
X125703753Y-109060784D01*
X125709002Y-109061733D01*
X125709005Y-109061734D01*
X125934885Y-109102580D01*
X125934893Y-109102581D01*
X125938969Y-109103318D01*
X125957359Y-109104185D01*
X125962544Y-109104430D01*
X125962551Y-109104430D01*
X125964032Y-109104500D01*
X126132012Y-109104500D01*
X126310175Y-109089383D01*
X126315339Y-109088043D01*
X126315343Y-109088042D01*
X126536375Y-109030673D01*
X126536380Y-109030671D01*
X126541540Y-109029332D01*
X126658636Y-108976584D01*
X126754619Y-108933347D01*
X126754622Y-108933346D01*
X126759480Y-108931157D01*
X126957762Y-108797666D01*
X127130718Y-108632674D01*
X127273402Y-108440900D01*
X127286149Y-108415830D01*
X127379314Y-108232586D01*
X127379314Y-108232585D01*
X127381733Y-108227828D01*
X127422361Y-108096984D01*
X127451032Y-108004651D01*
X127451033Y-108004645D01*
X127452616Y-107999548D01*
X127471770Y-107855036D01*
X127475260Y-107828703D01*
X129462743Y-107828703D01*
X129463302Y-107832947D01*
X129463302Y-107832951D01*
X129479810Y-107958340D01*
X129500268Y-108113734D01*
X129576129Y-108391036D01*
X129688923Y-108655476D01*
X129763473Y-108780040D01*
X129809888Y-108857593D01*
X129836561Y-108902161D01*
X130016313Y-109126528D01*
X130224851Y-109324423D01*
X130458317Y-109492186D01*
X130462112Y-109494195D01*
X130462113Y-109494196D01*
X130483869Y-109505715D01*
X130712392Y-109626712D01*
X130736699Y-109635607D01*
X130974700Y-109722703D01*
X130982373Y-109725511D01*
X131263264Y-109786755D01*
X131291841Y-109789004D01*
X131486282Y-109804307D01*
X131486291Y-109804307D01*
X131488739Y-109804500D01*
X131644271Y-109804500D01*
X131646407Y-109804354D01*
X131646418Y-109804354D01*
X131854548Y-109790165D01*
X131854554Y-109790164D01*
X131858825Y-109789873D01*
X131863020Y-109789004D01*
X131863022Y-109789004D01*
X131999583Y-109760724D01*
X132140342Y-109731574D01*
X132411343Y-109635607D01*
X132666812Y-109503750D01*
X132670313Y-109501289D01*
X132670317Y-109501287D01*
X132784417Y-109421096D01*
X132902023Y-109338441D01*
X133112622Y-109142740D01*
X133294713Y-108920268D01*
X133444927Y-108675142D01*
X133560483Y-108411898D01*
X133639244Y-108135406D01*
X133679751Y-107850784D01*
X133679845Y-107832951D01*
X133680911Y-107629411D01*
X135659977Y-107629411D01*
X135668945Y-107868274D01*
X135718030Y-108102211D01*
X135805829Y-108324533D01*
X135929832Y-108528883D01*
X135933329Y-108532913D01*
X136039684Y-108655476D01*
X136086493Y-108709419D01*
X136090619Y-108712802D01*
X136090623Y-108712806D01*
X136189629Y-108793985D01*
X136271333Y-108860978D01*
X136275969Y-108863617D01*
X136275972Y-108863619D01*
X136369071Y-108916614D01*
X136479066Y-108979227D01*
X136703753Y-109060784D01*
X136709002Y-109061733D01*
X136709005Y-109061734D01*
X136934885Y-109102580D01*
X136934893Y-109102581D01*
X136938969Y-109103318D01*
X136957359Y-109104185D01*
X136962544Y-109104430D01*
X136962551Y-109104430D01*
X136964032Y-109104500D01*
X137132012Y-109104500D01*
X137310175Y-109089383D01*
X137315339Y-109088043D01*
X137315343Y-109088042D01*
X137536375Y-109030673D01*
X137536380Y-109030671D01*
X137541540Y-109029332D01*
X137658636Y-108976584D01*
X137754619Y-108933347D01*
X137754622Y-108933346D01*
X137759480Y-108931157D01*
X137957762Y-108797666D01*
X138130718Y-108632674D01*
X138273402Y-108440900D01*
X138286149Y-108415830D01*
X138379314Y-108232586D01*
X138379314Y-108232585D01*
X138381733Y-108227828D01*
X138422361Y-108096984D01*
X138451032Y-108004651D01*
X138451033Y-108004645D01*
X138452616Y-107999548D01*
X138471770Y-107855036D01*
X138483323Y-107767873D01*
X138483323Y-107767869D01*
X138484023Y-107762589D01*
X138481914Y-107706402D01*
X138479023Y-107629411D01*
X144979977Y-107629411D01*
X144988945Y-107868274D01*
X145038030Y-108102211D01*
X145125829Y-108324533D01*
X145249832Y-108528883D01*
X145253329Y-108532913D01*
X145359684Y-108655476D01*
X145406493Y-108709419D01*
X145410619Y-108712802D01*
X145410623Y-108712806D01*
X145509629Y-108793985D01*
X145591333Y-108860978D01*
X145595969Y-108863617D01*
X145595972Y-108863619D01*
X145689071Y-108916614D01*
X145799066Y-108979227D01*
X146023753Y-109060784D01*
X146029002Y-109061733D01*
X146029005Y-109061734D01*
X146254885Y-109102580D01*
X146254893Y-109102581D01*
X146258969Y-109103318D01*
X146277359Y-109104185D01*
X146282544Y-109104430D01*
X146282551Y-109104430D01*
X146284032Y-109104500D01*
X146452012Y-109104500D01*
X146630175Y-109089383D01*
X146635339Y-109088043D01*
X146635343Y-109088042D01*
X146856375Y-109030673D01*
X146856380Y-109030671D01*
X146861540Y-109029332D01*
X146978636Y-108976584D01*
X147074619Y-108933347D01*
X147074622Y-108933346D01*
X147079480Y-108931157D01*
X147277762Y-108797666D01*
X147450718Y-108632674D01*
X147593402Y-108440900D01*
X147606149Y-108415830D01*
X147699314Y-108232586D01*
X147699314Y-108232585D01*
X147701733Y-108227828D01*
X147742361Y-108096984D01*
X147771032Y-108004651D01*
X147771033Y-108004645D01*
X147772616Y-107999548D01*
X147791770Y-107855036D01*
X147795260Y-107828703D01*
X149782743Y-107828703D01*
X149783302Y-107832947D01*
X149783302Y-107832951D01*
X149799810Y-107958340D01*
X149820268Y-108113734D01*
X149896129Y-108391036D01*
X150008923Y-108655476D01*
X150083473Y-108780040D01*
X150129888Y-108857593D01*
X150156561Y-108902161D01*
X150336313Y-109126528D01*
X150544851Y-109324423D01*
X150778317Y-109492186D01*
X150782112Y-109494195D01*
X150782113Y-109494196D01*
X150803869Y-109505715D01*
X151032392Y-109626712D01*
X151056699Y-109635607D01*
X151294700Y-109722703D01*
X151302373Y-109725511D01*
X151583264Y-109786755D01*
X151611841Y-109789004D01*
X151806282Y-109804307D01*
X151806291Y-109804307D01*
X151808739Y-109804500D01*
X151964271Y-109804500D01*
X151966407Y-109804354D01*
X151966418Y-109804354D01*
X152174548Y-109790165D01*
X152174554Y-109790164D01*
X152178825Y-109789873D01*
X152183020Y-109789004D01*
X152183022Y-109789004D01*
X152319583Y-109760724D01*
X152460342Y-109731574D01*
X152731343Y-109635607D01*
X152780181Y-109610400D01*
X165981500Y-109610400D01*
X165981837Y-109613646D01*
X165981837Y-109613650D01*
X165983346Y-109628187D01*
X165992474Y-109716165D01*
X165994655Y-109722701D01*
X165994655Y-109722703D01*
X166021896Y-109804354D01*
X166048450Y-109883945D01*
X166141522Y-110034348D01*
X166266697Y-110159305D01*
X166272927Y-110163145D01*
X166272928Y-110163146D01*
X166410090Y-110247694D01*
X166417262Y-110252115D01*
X166497005Y-110278564D01*
X166578611Y-110305632D01*
X166578613Y-110305632D01*
X166585139Y-110307797D01*
X166591975Y-110308497D01*
X166591978Y-110308498D01*
X166635031Y-110312909D01*
X166689600Y-110318500D01*
X168590400Y-110318500D01*
X168593646Y-110318163D01*
X168593650Y-110318163D01*
X168689307Y-110308238D01*
X168689311Y-110308237D01*
X168696165Y-110307526D01*
X168702701Y-110305345D01*
X168702703Y-110305345D01*
X168834805Y-110261272D01*
X168863945Y-110251550D01*
X169014348Y-110158478D01*
X169139305Y-110033303D01*
X169232115Y-109882738D01*
X169264254Y-109785842D01*
X169285632Y-109721389D01*
X169285632Y-109721387D01*
X169287797Y-109714861D01*
X169298500Y-109610400D01*
X169298500Y-107709600D01*
X169290180Y-107629411D01*
X169288238Y-107610693D01*
X169288237Y-107610689D01*
X169287526Y-107603835D01*
X169275432Y-107567583D01*
X169233868Y-107443003D01*
X169231550Y-107436055D01*
X169138478Y-107285652D01*
X169013303Y-107160695D01*
X168870121Y-107072436D01*
X168868968Y-107071725D01*
X168868966Y-107071724D01*
X168862738Y-107067885D01*
X168702254Y-107014655D01*
X168701389Y-107014368D01*
X168701387Y-107014368D01*
X168694861Y-107012203D01*
X168688025Y-107011503D01*
X168688022Y-107011502D01*
X168644969Y-107007091D01*
X168590400Y-107001500D01*
X166689600Y-107001500D01*
X166686354Y-107001837D01*
X166686350Y-107001837D01*
X166590693Y-107011762D01*
X166590689Y-107011763D01*
X166583835Y-107012474D01*
X166577299Y-107014655D01*
X166577297Y-107014655D01*
X166445195Y-107058728D01*
X166416055Y-107068450D01*
X166265652Y-107161522D01*
X166260479Y-107166704D01*
X166198839Y-107228451D01*
X166140695Y-107286697D01*
X166047885Y-107437262D01*
X166045581Y-107444209D01*
X166014816Y-107536964D01*
X165992203Y-107605139D01*
X165991503Y-107611975D01*
X165991502Y-107611978D01*
X165989716Y-107629411D01*
X165981500Y-107709600D01*
X165981500Y-109610400D01*
X152780181Y-109610400D01*
X152986812Y-109503750D01*
X152990313Y-109501289D01*
X152990317Y-109501287D01*
X153104417Y-109421096D01*
X153222023Y-109338441D01*
X153432622Y-109142740D01*
X153614713Y-108920268D01*
X153764927Y-108675142D01*
X153880483Y-108411898D01*
X153959244Y-108135406D01*
X153999751Y-107850784D01*
X153999845Y-107832951D01*
X154000911Y-107629411D01*
X155979977Y-107629411D01*
X155988945Y-107868274D01*
X156038030Y-108102211D01*
X156125829Y-108324533D01*
X156249832Y-108528883D01*
X156253329Y-108532913D01*
X156359684Y-108655476D01*
X156406493Y-108709419D01*
X156410619Y-108712802D01*
X156410623Y-108712806D01*
X156509629Y-108793985D01*
X156591333Y-108860978D01*
X156595969Y-108863617D01*
X156595972Y-108863619D01*
X156689071Y-108916614D01*
X156799066Y-108979227D01*
X157023753Y-109060784D01*
X157029002Y-109061733D01*
X157029005Y-109061734D01*
X157254885Y-109102580D01*
X157254893Y-109102581D01*
X157258969Y-109103318D01*
X157277359Y-109104185D01*
X157282544Y-109104430D01*
X157282551Y-109104430D01*
X157284032Y-109104500D01*
X157452012Y-109104500D01*
X157630175Y-109089383D01*
X157635339Y-109088043D01*
X157635343Y-109088042D01*
X157856375Y-109030673D01*
X157856380Y-109030671D01*
X157861540Y-109029332D01*
X157978636Y-108976584D01*
X158074619Y-108933347D01*
X158074622Y-108933346D01*
X158079480Y-108931157D01*
X158277762Y-108797666D01*
X158450718Y-108632674D01*
X158593402Y-108440900D01*
X158606149Y-108415830D01*
X158699314Y-108232586D01*
X158699314Y-108232585D01*
X158701733Y-108227828D01*
X158742361Y-108096984D01*
X158771032Y-108004651D01*
X158771033Y-108004645D01*
X158772616Y-107999548D01*
X158791770Y-107855036D01*
X158803323Y-107767873D01*
X158803323Y-107767869D01*
X158804023Y-107762589D01*
X158801914Y-107706402D01*
X158799023Y-107629411D01*
X158795055Y-107523726D01*
X158745970Y-107289789D01*
X158658171Y-107067467D01*
X158534168Y-106863117D01*
X158444103Y-106759326D01*
X158381007Y-106686614D01*
X158381005Y-106686612D01*
X158377507Y-106682581D01*
X158373381Y-106679198D01*
X158373377Y-106679194D01*
X158196795Y-106534407D01*
X158192667Y-106531022D01*
X158188031Y-106528383D01*
X158188028Y-106528381D01*
X157989577Y-106415416D01*
X157984934Y-106412773D01*
X157760247Y-106331216D01*
X157754998Y-106330267D01*
X157754995Y-106330266D01*
X157529115Y-106289420D01*
X157529107Y-106289419D01*
X157525031Y-106288682D01*
X157506641Y-106287815D01*
X157501456Y-106287570D01*
X157501449Y-106287570D01*
X157499968Y-106287500D01*
X157331988Y-106287500D01*
X157153825Y-106302617D01*
X157148661Y-106303957D01*
X157148657Y-106303958D01*
X156927625Y-106361327D01*
X156927620Y-106361329D01*
X156922460Y-106362668D01*
X156917594Y-106364860D01*
X156709381Y-106458653D01*
X156709378Y-106458654D01*
X156704520Y-106460843D01*
X156506238Y-106594334D01*
X156333282Y-106759326D01*
X156190598Y-106951100D01*
X156188182Y-106955851D01*
X156188180Y-106955855D01*
X156130934Y-107068450D01*
X156082267Y-107164172D01*
X156054851Y-107252466D01*
X156012968Y-107387349D01*
X156012967Y-107387355D01*
X156011384Y-107392452D01*
X156010683Y-107397744D01*
X155982288Y-107611978D01*
X155979977Y-107629411D01*
X154000911Y-107629411D01*
X154001235Y-107567583D01*
X154001235Y-107567576D01*
X154001257Y-107563297D01*
X153996048Y-107523726D01*
X153983685Y-107429824D01*
X153963732Y-107278266D01*
X153887871Y-107000964D01*
X153775077Y-106736524D01*
X153688195Y-106591354D01*
X153629643Y-106493521D01*
X153629640Y-106493517D01*
X153627439Y-106489839D01*
X153447687Y-106265472D01*
X153239149Y-106067577D01*
X153005683Y-105899814D01*
X152983843Y-105888250D01*
X152960654Y-105875972D01*
X152751608Y-105765288D01*
X152481627Y-105666489D01*
X152200736Y-105605245D01*
X152169685Y-105602801D01*
X151977718Y-105587693D01*
X151977709Y-105587693D01*
X151975261Y-105587500D01*
X151819729Y-105587500D01*
X151817593Y-105587646D01*
X151817582Y-105587646D01*
X151609452Y-105601835D01*
X151609446Y-105601836D01*
X151605175Y-105602127D01*
X151600980Y-105602996D01*
X151600978Y-105602996D01*
X151464417Y-105631276D01*
X151323658Y-105660426D01*
X151052657Y-105756393D01*
X150797188Y-105888250D01*
X150793687Y-105890711D01*
X150793683Y-105890713D01*
X150783594Y-105897804D01*
X150561977Y-106053559D01*
X150351378Y-106249260D01*
X150169287Y-106471732D01*
X150019073Y-106716858D01*
X149903517Y-106980102D01*
X149902342Y-106984229D01*
X149902341Y-106984230D01*
X149893756Y-107014368D01*
X149824756Y-107256594D01*
X149784249Y-107541216D01*
X149784227Y-107545505D01*
X149784226Y-107545512D01*
X149782765Y-107824417D01*
X149782743Y-107828703D01*
X147795260Y-107828703D01*
X147803323Y-107767873D01*
X147803323Y-107767869D01*
X147804023Y-107762589D01*
X147801914Y-107706402D01*
X147799023Y-107629411D01*
X147795055Y-107523726D01*
X147745970Y-107289789D01*
X147658171Y-107067467D01*
X147534168Y-106863117D01*
X147444103Y-106759326D01*
X147381007Y-106686614D01*
X147381005Y-106686612D01*
X147377507Y-106682581D01*
X147373381Y-106679198D01*
X147373377Y-106679194D01*
X147196795Y-106534407D01*
X147192667Y-106531022D01*
X147188031Y-106528383D01*
X147188028Y-106528381D01*
X146989577Y-106415416D01*
X146984934Y-106412773D01*
X146760247Y-106331216D01*
X146754998Y-106330267D01*
X146754995Y-106330266D01*
X146529115Y-106289420D01*
X146529107Y-106289419D01*
X146525031Y-106288682D01*
X146506641Y-106287815D01*
X146501456Y-106287570D01*
X146501449Y-106287570D01*
X146499968Y-106287500D01*
X146331988Y-106287500D01*
X146153825Y-106302617D01*
X146148661Y-106303957D01*
X146148657Y-106303958D01*
X145927625Y-106361327D01*
X145927620Y-106361329D01*
X145922460Y-106362668D01*
X145917594Y-106364860D01*
X145709381Y-106458653D01*
X145709378Y-106458654D01*
X145704520Y-106460843D01*
X145506238Y-106594334D01*
X145333282Y-106759326D01*
X145190598Y-106951100D01*
X145188182Y-106955851D01*
X145188180Y-106955855D01*
X145130934Y-107068450D01*
X145082267Y-107164172D01*
X145054851Y-107252466D01*
X145012968Y-107387349D01*
X145012967Y-107387355D01*
X145011384Y-107392452D01*
X145010683Y-107397744D01*
X144982288Y-107611978D01*
X144979977Y-107629411D01*
X138479023Y-107629411D01*
X138475055Y-107523726D01*
X138425970Y-107289789D01*
X138338171Y-107067467D01*
X138214168Y-106863117D01*
X138124103Y-106759326D01*
X138061007Y-106686614D01*
X138061005Y-106686612D01*
X138057507Y-106682581D01*
X138053381Y-106679198D01*
X138053377Y-106679194D01*
X137876795Y-106534407D01*
X137872667Y-106531022D01*
X137868031Y-106528383D01*
X137868028Y-106528381D01*
X137669577Y-106415416D01*
X137664934Y-106412773D01*
X137440247Y-106331216D01*
X137434998Y-106330267D01*
X137434995Y-106330266D01*
X137209115Y-106289420D01*
X137209107Y-106289419D01*
X137205031Y-106288682D01*
X137186641Y-106287815D01*
X137181456Y-106287570D01*
X137181449Y-106287570D01*
X137179968Y-106287500D01*
X137011988Y-106287500D01*
X136833825Y-106302617D01*
X136828661Y-106303957D01*
X136828657Y-106303958D01*
X136607625Y-106361327D01*
X136607620Y-106361329D01*
X136602460Y-106362668D01*
X136597594Y-106364860D01*
X136389381Y-106458653D01*
X136389378Y-106458654D01*
X136384520Y-106460843D01*
X136186238Y-106594334D01*
X136013282Y-106759326D01*
X135870598Y-106951100D01*
X135868182Y-106955851D01*
X135868180Y-106955855D01*
X135810934Y-107068450D01*
X135762267Y-107164172D01*
X135734851Y-107252466D01*
X135692968Y-107387349D01*
X135692967Y-107387355D01*
X135691384Y-107392452D01*
X135690683Y-107397744D01*
X135662288Y-107611978D01*
X135659977Y-107629411D01*
X133680911Y-107629411D01*
X133681235Y-107567583D01*
X133681235Y-107567576D01*
X133681257Y-107563297D01*
X133676048Y-107523726D01*
X133663685Y-107429824D01*
X133643732Y-107278266D01*
X133567871Y-107000964D01*
X133455077Y-106736524D01*
X133368195Y-106591354D01*
X133309643Y-106493521D01*
X133309640Y-106493517D01*
X133307439Y-106489839D01*
X133127687Y-106265472D01*
X132919149Y-106067577D01*
X132685683Y-105899814D01*
X132663843Y-105888250D01*
X132640654Y-105875972D01*
X132431608Y-105765288D01*
X132161627Y-105666489D01*
X131880736Y-105605245D01*
X131849685Y-105602801D01*
X131657718Y-105587693D01*
X131657709Y-105587693D01*
X131655261Y-105587500D01*
X131499729Y-105587500D01*
X131497593Y-105587646D01*
X131497582Y-105587646D01*
X131289452Y-105601835D01*
X131289446Y-105601836D01*
X131285175Y-105602127D01*
X131280980Y-105602996D01*
X131280978Y-105602996D01*
X131144417Y-105631276D01*
X131003658Y-105660426D01*
X130732657Y-105756393D01*
X130477188Y-105888250D01*
X130473687Y-105890711D01*
X130473683Y-105890713D01*
X130463594Y-105897804D01*
X130241977Y-106053559D01*
X130031378Y-106249260D01*
X129849287Y-106471732D01*
X129699073Y-106716858D01*
X129583517Y-106980102D01*
X129582342Y-106984229D01*
X129582341Y-106984230D01*
X129573756Y-107014368D01*
X129504756Y-107256594D01*
X129464249Y-107541216D01*
X129464227Y-107545505D01*
X129464226Y-107545512D01*
X129462765Y-107824417D01*
X129462743Y-107828703D01*
X127475260Y-107828703D01*
X127483323Y-107767873D01*
X127483323Y-107767869D01*
X127484023Y-107762589D01*
X127481914Y-107706402D01*
X127479023Y-107629411D01*
X127475055Y-107523726D01*
X127425970Y-107289789D01*
X127338171Y-107067467D01*
X127214168Y-106863117D01*
X127124103Y-106759326D01*
X127061007Y-106686614D01*
X127061005Y-106686612D01*
X127057507Y-106682581D01*
X127053381Y-106679198D01*
X127053377Y-106679194D01*
X126876795Y-106534407D01*
X126872667Y-106531022D01*
X126868031Y-106528383D01*
X126868028Y-106528381D01*
X126669577Y-106415416D01*
X126664934Y-106412773D01*
X126440247Y-106331216D01*
X126434998Y-106330267D01*
X126434995Y-106330266D01*
X126209115Y-106289420D01*
X126209107Y-106289419D01*
X126205031Y-106288682D01*
X126186641Y-106287815D01*
X126181456Y-106287570D01*
X126181449Y-106287570D01*
X126179968Y-106287500D01*
X126011988Y-106287500D01*
X125833825Y-106302617D01*
X125828661Y-106303957D01*
X125828657Y-106303958D01*
X125607625Y-106361327D01*
X125607620Y-106361329D01*
X125602460Y-106362668D01*
X125597594Y-106364860D01*
X125389381Y-106458653D01*
X125389378Y-106458654D01*
X125384520Y-106460843D01*
X125186238Y-106594334D01*
X125013282Y-106759326D01*
X124870598Y-106951100D01*
X124868182Y-106955851D01*
X124868180Y-106955855D01*
X124810934Y-107068450D01*
X124762267Y-107164172D01*
X124734851Y-107252466D01*
X124692968Y-107387349D01*
X124692967Y-107387355D01*
X124691384Y-107392452D01*
X124690683Y-107397744D01*
X124662288Y-107611978D01*
X124659977Y-107629411D01*
X121412000Y-107629411D01*
X121412000Y-103441604D01*
X135679787Y-103441604D01*
X135689567Y-103652899D01*
X135739125Y-103858534D01*
X135741607Y-103863992D01*
X135741608Y-103863996D01*
X135785053Y-103959546D01*
X135826674Y-104051087D01*
X135949054Y-104223611D01*
X136101850Y-104369881D01*
X136279548Y-104484620D01*
X136285114Y-104486863D01*
X136470168Y-104561442D01*
X136470171Y-104561443D01*
X136475737Y-104563686D01*
X136683337Y-104604228D01*
X136688899Y-104604500D01*
X136844846Y-104604500D01*
X137002566Y-104589452D01*
X137205534Y-104529908D01*
X137289111Y-104486863D01*
X137388249Y-104435804D01*
X137388252Y-104435802D01*
X137393580Y-104433058D01*
X137559920Y-104302396D01*
X137563852Y-104297865D01*
X137563855Y-104297862D01*
X137694621Y-104147167D01*
X137698552Y-104142637D01*
X137701552Y-104137451D01*
X137701555Y-104137447D01*
X137801467Y-103964742D01*
X137804473Y-103959546D01*
X137873861Y-103759729D01*
X137890219Y-103646909D01*
X137903352Y-103556336D01*
X137903352Y-103556333D01*
X137904213Y-103550396D01*
X137899177Y-103441604D01*
X155999787Y-103441604D01*
X156009567Y-103652899D01*
X156059125Y-103858534D01*
X156061607Y-103863992D01*
X156061608Y-103863996D01*
X156105053Y-103959546D01*
X156146674Y-104051087D01*
X156269054Y-104223611D01*
X156421850Y-104369881D01*
X156599548Y-104484620D01*
X156605114Y-104486863D01*
X156790168Y-104561442D01*
X156790171Y-104561443D01*
X156795737Y-104563686D01*
X157003337Y-104604228D01*
X157008899Y-104604500D01*
X157164846Y-104604500D01*
X157322566Y-104589452D01*
X157525534Y-104529908D01*
X157609111Y-104486863D01*
X157708249Y-104435804D01*
X157708252Y-104435802D01*
X157713580Y-104433058D01*
X157879920Y-104302396D01*
X157883852Y-104297865D01*
X157883855Y-104297862D01*
X158014621Y-104147167D01*
X158018552Y-104142637D01*
X158021552Y-104137451D01*
X158021555Y-104137447D01*
X158121467Y-103964742D01*
X158124473Y-103959546D01*
X158159041Y-103860000D01*
X165976372Y-103860000D01*
X165996854Y-104120249D01*
X165998008Y-104125056D01*
X165998009Y-104125062D01*
X166036424Y-104285069D01*
X166057796Y-104374089D01*
X166059689Y-104378660D01*
X166059690Y-104378662D01*
X166153123Y-104604228D01*
X166157697Y-104615271D01*
X166294097Y-104837856D01*
X166463637Y-105036363D01*
X166662144Y-105205903D01*
X166884729Y-105342303D01*
X166889299Y-105344196D01*
X166889303Y-105344198D01*
X167121338Y-105440310D01*
X167125911Y-105442204D01*
X167214931Y-105463576D01*
X167374938Y-105501991D01*
X167374944Y-105501992D01*
X167379751Y-105503146D01*
X167640000Y-105523628D01*
X167900249Y-105503146D01*
X167905056Y-105501992D01*
X167905062Y-105501991D01*
X168065069Y-105463576D01*
X168154089Y-105442204D01*
X168158662Y-105440310D01*
X168390697Y-105344198D01*
X168390701Y-105344196D01*
X168395271Y-105342303D01*
X168617856Y-105205903D01*
X168816363Y-105036363D01*
X168985903Y-104837856D01*
X169122303Y-104615271D01*
X169126878Y-104604228D01*
X169220310Y-104378662D01*
X169220311Y-104378660D01*
X169222204Y-104374089D01*
X169243576Y-104285069D01*
X169281991Y-104125062D01*
X169281992Y-104125056D01*
X169283146Y-104120249D01*
X169303628Y-103860000D01*
X169283146Y-103599751D01*
X169281992Y-103594944D01*
X169281991Y-103594938D01*
X169223359Y-103350723D01*
X169222204Y-103345911D01*
X169172787Y-103226607D01*
X169124198Y-103109303D01*
X169124196Y-103109299D01*
X169122303Y-103104729D01*
X168985903Y-102882144D01*
X168816363Y-102683637D01*
X168617856Y-102514097D01*
X168395271Y-102377697D01*
X168390701Y-102375804D01*
X168390697Y-102375802D01*
X168158662Y-102279690D01*
X168158660Y-102279689D01*
X168154089Y-102277796D01*
X168065069Y-102256424D01*
X167905062Y-102218009D01*
X167905056Y-102218008D01*
X167900249Y-102216854D01*
X167640000Y-102196372D01*
X167379751Y-102216854D01*
X167374944Y-102218008D01*
X167374938Y-102218009D01*
X167214931Y-102256424D01*
X167125911Y-102277796D01*
X167121340Y-102279689D01*
X167121338Y-102279690D01*
X166889303Y-102375802D01*
X166889299Y-102375804D01*
X166884729Y-102377697D01*
X166662144Y-102514097D01*
X166463637Y-102683637D01*
X166294097Y-102882144D01*
X166157697Y-103104729D01*
X166155804Y-103109299D01*
X166155802Y-103109303D01*
X166107213Y-103226607D01*
X166057796Y-103345911D01*
X166056641Y-103350723D01*
X165998009Y-103594938D01*
X165998008Y-103594944D01*
X165996854Y-103599751D01*
X165976372Y-103860000D01*
X158159041Y-103860000D01*
X158193861Y-103759729D01*
X158210219Y-103646909D01*
X158223352Y-103556336D01*
X158223352Y-103556333D01*
X158224213Y-103550396D01*
X158214433Y-103339101D01*
X158164875Y-103133466D01*
X158149891Y-103100509D01*
X158079806Y-102946368D01*
X158077326Y-102940913D01*
X157954946Y-102768389D01*
X157802150Y-102622119D01*
X157624452Y-102507380D01*
X157564354Y-102483160D01*
X157433832Y-102430558D01*
X157433829Y-102430557D01*
X157428263Y-102428314D01*
X157220663Y-102387772D01*
X157215101Y-102387500D01*
X157059154Y-102387500D01*
X156901434Y-102402548D01*
X156698466Y-102462092D01*
X156693139Y-102464836D01*
X156693138Y-102464836D01*
X156515751Y-102556196D01*
X156515748Y-102556198D01*
X156510420Y-102558942D01*
X156344080Y-102689604D01*
X156340148Y-102694135D01*
X156340145Y-102694138D01*
X156271474Y-102773275D01*
X156205448Y-102849363D01*
X156202448Y-102854549D01*
X156202445Y-102854553D01*
X156184044Y-102886361D01*
X156099527Y-103032454D01*
X156030139Y-103232271D01*
X155999787Y-103441604D01*
X137899177Y-103441604D01*
X137894433Y-103339101D01*
X137844875Y-103133466D01*
X137829891Y-103100509D01*
X137759806Y-102946368D01*
X137757326Y-102940913D01*
X137634946Y-102768389D01*
X137482150Y-102622119D01*
X137304452Y-102507380D01*
X137244354Y-102483160D01*
X137113832Y-102430558D01*
X137113829Y-102430557D01*
X137108263Y-102428314D01*
X136900663Y-102387772D01*
X136895101Y-102387500D01*
X136739154Y-102387500D01*
X136581434Y-102402548D01*
X136378466Y-102462092D01*
X136373139Y-102464836D01*
X136373138Y-102464836D01*
X136195751Y-102556196D01*
X136195748Y-102556198D01*
X136190420Y-102558942D01*
X136024080Y-102689604D01*
X136020148Y-102694135D01*
X136020145Y-102694138D01*
X135951474Y-102773275D01*
X135885448Y-102849363D01*
X135882448Y-102854549D01*
X135882445Y-102854553D01*
X135864044Y-102886361D01*
X135779527Y-103032454D01*
X135710139Y-103232271D01*
X135679787Y-103441604D01*
X121412000Y-103441604D01*
X121412000Y-99060000D01*
X165976372Y-99060000D01*
X165996854Y-99320249D01*
X165998008Y-99325056D01*
X165998009Y-99325062D01*
X166036424Y-99485069D01*
X166057796Y-99574089D01*
X166157697Y-99815271D01*
X166294097Y-100037856D01*
X166463637Y-100236363D01*
X166662144Y-100405903D01*
X166884729Y-100542303D01*
X166889299Y-100544196D01*
X166889303Y-100544198D01*
X167121338Y-100640310D01*
X167125911Y-100642204D01*
X167214931Y-100663576D01*
X167374938Y-100701991D01*
X167374944Y-100701992D01*
X167379751Y-100703146D01*
X167640000Y-100723628D01*
X167900249Y-100703146D01*
X167905056Y-100701992D01*
X167905062Y-100701991D01*
X168065069Y-100663576D01*
X168154089Y-100642204D01*
X168158662Y-100640310D01*
X168390697Y-100544198D01*
X168390701Y-100544196D01*
X168395271Y-100542303D01*
X168617856Y-100405903D01*
X168816363Y-100236363D01*
X168985903Y-100037856D01*
X169122303Y-99815271D01*
X169222204Y-99574089D01*
X169243576Y-99485069D01*
X169281991Y-99325062D01*
X169281992Y-99325056D01*
X169283146Y-99320249D01*
X169303628Y-99060000D01*
X169283146Y-98799751D01*
X169281992Y-98794944D01*
X169281991Y-98794938D01*
X169223359Y-98550723D01*
X169222204Y-98545911D01*
X169122303Y-98304729D01*
X168985903Y-98082144D01*
X168816363Y-97883637D01*
X168617856Y-97714097D01*
X168395271Y-97577697D01*
X168390701Y-97575804D01*
X168390697Y-97575802D01*
X168158662Y-97479690D01*
X168158660Y-97479689D01*
X168154089Y-97477796D01*
X168065069Y-97456424D01*
X167905062Y-97418009D01*
X167905056Y-97418008D01*
X167900249Y-97416854D01*
X167640000Y-97396372D01*
X167379751Y-97416854D01*
X167374944Y-97418008D01*
X167374938Y-97418009D01*
X167214931Y-97456424D01*
X167125911Y-97477796D01*
X167121340Y-97479689D01*
X167121338Y-97479690D01*
X166889303Y-97575802D01*
X166889299Y-97575804D01*
X166884729Y-97577697D01*
X166662144Y-97714097D01*
X166463637Y-97883637D01*
X166294097Y-98082144D01*
X166157697Y-98304729D01*
X166057796Y-98545911D01*
X166056641Y-98550723D01*
X165998009Y-98794938D01*
X165998008Y-98794944D01*
X165996854Y-98799751D01*
X165976372Y-99060000D01*
X121412000Y-99060000D01*
X121412000Y-93560917D01*
X122556500Y-93560917D01*
X122571055Y-93741824D01*
X122572260Y-93746732D01*
X122572261Y-93746735D01*
X122604057Y-93876182D01*
X122628939Y-93977484D01*
X122630914Y-93982136D01*
X122630915Y-93982140D01*
X122640485Y-94004685D01*
X122723756Y-94200859D01*
X122726454Y-94205143D01*
X122795653Y-94315028D01*
X122853067Y-94406200D01*
X122856412Y-94409994D01*
X123010196Y-94584429D01*
X123010199Y-94584432D01*
X123013544Y-94588226D01*
X123201060Y-94742253D01*
X123410789Y-94864319D01*
X123415515Y-94866133D01*
X123415519Y-94866135D01*
X123632608Y-94949467D01*
X123632611Y-94949468D01*
X123637337Y-94951282D01*
X123874874Y-95000906D01*
X123879923Y-95001135D01*
X123879929Y-95001136D01*
X123990548Y-95006159D01*
X124117289Y-95011914D01*
X124122309Y-95011333D01*
X124122313Y-95011333D01*
X124230168Y-94998854D01*
X124358346Y-94984023D01*
X124363220Y-94982644D01*
X124363224Y-94982643D01*
X124586974Y-94919328D01*
X124586976Y-94919327D01*
X124591843Y-94917950D01*
X124596418Y-94915816D01*
X124596425Y-94915814D01*
X124807191Y-94817532D01*
X124807195Y-94817530D01*
X124811773Y-94815395D01*
X124872553Y-94774089D01*
X125008289Y-94681843D01*
X125008293Y-94681840D01*
X125012476Y-94678997D01*
X125188791Y-94512265D01*
X125233929Y-94453227D01*
X125291191Y-94411261D01*
X125362055Y-94406916D01*
X125428537Y-94446433D01*
X125550196Y-94584429D01*
X125550199Y-94584432D01*
X125553544Y-94588226D01*
X125741060Y-94742253D01*
X125950789Y-94864319D01*
X125955515Y-94866133D01*
X125955519Y-94866135D01*
X126172608Y-94949467D01*
X126172611Y-94949468D01*
X126177337Y-94951282D01*
X126414874Y-95000906D01*
X126419923Y-95001135D01*
X126419929Y-95001136D01*
X126530548Y-95006159D01*
X126657289Y-95011914D01*
X126662309Y-95011333D01*
X126662313Y-95011333D01*
X126770168Y-94998854D01*
X126898346Y-94984023D01*
X126903220Y-94982644D01*
X126903224Y-94982643D01*
X127126974Y-94919328D01*
X127126976Y-94919327D01*
X127131843Y-94917950D01*
X127136418Y-94915816D01*
X127136425Y-94915814D01*
X127347191Y-94817532D01*
X127347195Y-94817530D01*
X127351773Y-94815395D01*
X127412553Y-94774089D01*
X127548289Y-94681843D01*
X127548293Y-94681840D01*
X127552476Y-94678997D01*
X127728791Y-94512265D01*
X127773929Y-94453227D01*
X127831191Y-94411261D01*
X127902055Y-94406916D01*
X127968537Y-94446433D01*
X128090196Y-94584429D01*
X128090199Y-94584432D01*
X128093544Y-94588226D01*
X128281060Y-94742253D01*
X128490789Y-94864319D01*
X128495515Y-94866133D01*
X128495519Y-94866135D01*
X128712608Y-94949467D01*
X128712611Y-94949468D01*
X128717337Y-94951282D01*
X128954874Y-95000906D01*
X128959923Y-95001135D01*
X128959929Y-95001136D01*
X129070548Y-95006159D01*
X129197289Y-95011914D01*
X129202309Y-95011333D01*
X129202313Y-95011333D01*
X129310168Y-94998854D01*
X129438346Y-94984023D01*
X129443220Y-94982644D01*
X129443224Y-94982643D01*
X129666974Y-94919328D01*
X129666976Y-94919327D01*
X129671843Y-94917950D01*
X129676418Y-94915816D01*
X129676425Y-94915814D01*
X129887191Y-94817532D01*
X129887195Y-94817530D01*
X129891773Y-94815395D01*
X129952553Y-94774089D01*
X130088289Y-94681843D01*
X130088293Y-94681840D01*
X130092476Y-94678997D01*
X130268791Y-94512265D01*
X130313929Y-94453227D01*
X130371191Y-94411261D01*
X130442055Y-94406916D01*
X130508537Y-94446433D01*
X130630196Y-94584429D01*
X130630199Y-94584432D01*
X130633544Y-94588226D01*
X130821060Y-94742253D01*
X131030789Y-94864319D01*
X131035515Y-94866133D01*
X131035519Y-94866135D01*
X131252608Y-94949467D01*
X131252611Y-94949468D01*
X131257337Y-94951282D01*
X131494874Y-95000906D01*
X131499923Y-95001135D01*
X131499929Y-95001136D01*
X131610548Y-95006159D01*
X131737289Y-95011914D01*
X131742309Y-95011333D01*
X131742313Y-95011333D01*
X131850168Y-94998854D01*
X131978346Y-94984023D01*
X131983220Y-94982644D01*
X131983224Y-94982643D01*
X132206974Y-94919328D01*
X132206976Y-94919327D01*
X132211843Y-94917950D01*
X132216418Y-94915816D01*
X132216425Y-94915814D01*
X132427191Y-94817532D01*
X132427195Y-94817530D01*
X132431773Y-94815395D01*
X132492553Y-94774089D01*
X132628289Y-94681843D01*
X132628293Y-94681840D01*
X132632476Y-94678997D01*
X132808791Y-94512265D01*
X132853929Y-94453227D01*
X132911191Y-94411261D01*
X132982055Y-94406916D01*
X133048537Y-94446433D01*
X133170196Y-94584429D01*
X133170199Y-94584432D01*
X133173544Y-94588226D01*
X133361060Y-94742253D01*
X133570789Y-94864319D01*
X133575515Y-94866133D01*
X133575519Y-94866135D01*
X133792608Y-94949467D01*
X133792611Y-94949468D01*
X133797337Y-94951282D01*
X134034874Y-95000906D01*
X134039923Y-95001135D01*
X134039929Y-95001136D01*
X134150548Y-95006159D01*
X134277289Y-95011914D01*
X134282309Y-95011333D01*
X134282313Y-95011333D01*
X134390168Y-94998854D01*
X134518346Y-94984023D01*
X134523220Y-94982644D01*
X134523224Y-94982643D01*
X134746974Y-94919328D01*
X134746976Y-94919327D01*
X134751843Y-94917950D01*
X134756418Y-94915816D01*
X134756425Y-94915814D01*
X134967191Y-94817532D01*
X134967195Y-94817530D01*
X134971773Y-94815395D01*
X135032553Y-94774089D01*
X135168289Y-94681843D01*
X135168293Y-94681840D01*
X135172476Y-94678997D01*
X135348791Y-94512265D01*
X135393929Y-94453227D01*
X135451191Y-94411261D01*
X135522055Y-94406916D01*
X135588537Y-94446433D01*
X135710196Y-94584429D01*
X135710199Y-94584432D01*
X135713544Y-94588226D01*
X135901060Y-94742253D01*
X136110789Y-94864319D01*
X136115515Y-94866133D01*
X136115519Y-94866135D01*
X136332608Y-94949467D01*
X136332611Y-94949468D01*
X136337337Y-94951282D01*
X136574874Y-95000906D01*
X136579923Y-95001135D01*
X136579929Y-95001136D01*
X136690548Y-95006159D01*
X136817289Y-95011914D01*
X136822309Y-95011333D01*
X136822313Y-95011333D01*
X136930168Y-94998854D01*
X137058346Y-94984023D01*
X137063220Y-94982644D01*
X137063224Y-94982643D01*
X137286974Y-94919328D01*
X137286976Y-94919327D01*
X137291843Y-94917950D01*
X137296418Y-94915816D01*
X137296425Y-94915814D01*
X137507191Y-94817532D01*
X137507195Y-94817530D01*
X137511773Y-94815395D01*
X137572553Y-94774089D01*
X137708289Y-94681843D01*
X137708293Y-94681840D01*
X137712476Y-94678997D01*
X137888791Y-94512265D01*
X137933929Y-94453227D01*
X137991191Y-94411261D01*
X138062055Y-94406916D01*
X138128537Y-94446433D01*
X138250196Y-94584429D01*
X138250199Y-94584432D01*
X138253544Y-94588226D01*
X138441060Y-94742253D01*
X138650789Y-94864319D01*
X138655515Y-94866133D01*
X138655519Y-94866135D01*
X138872608Y-94949467D01*
X138872611Y-94949468D01*
X138877337Y-94951282D01*
X139114874Y-95000906D01*
X139119923Y-95001135D01*
X139119929Y-95001136D01*
X139230548Y-95006159D01*
X139357289Y-95011914D01*
X139362309Y-95011333D01*
X139362313Y-95011333D01*
X139470168Y-94998854D01*
X139598346Y-94984023D01*
X139603220Y-94982644D01*
X139603224Y-94982643D01*
X139826974Y-94919328D01*
X139826976Y-94919327D01*
X139831843Y-94917950D01*
X139836418Y-94915816D01*
X139836425Y-94915814D01*
X140047191Y-94817532D01*
X140047195Y-94817530D01*
X140051773Y-94815395D01*
X140112553Y-94774089D01*
X140248289Y-94681843D01*
X140248293Y-94681840D01*
X140252476Y-94678997D01*
X140428791Y-94512265D01*
X140431870Y-94508238D01*
X140573107Y-94323508D01*
X140573110Y-94323504D01*
X140576180Y-94319488D01*
X140608077Y-94260000D01*
X165976372Y-94260000D01*
X165996854Y-94520249D01*
X165998008Y-94525056D01*
X165998009Y-94525062D01*
X166012262Y-94584429D01*
X166057796Y-94774089D01*
X166059689Y-94778660D01*
X166059690Y-94778662D01*
X166151747Y-95000906D01*
X166157697Y-95015271D01*
X166294097Y-95237856D01*
X166463637Y-95436363D01*
X166662144Y-95605903D01*
X166884729Y-95742303D01*
X166889299Y-95744196D01*
X166889303Y-95744198D01*
X167121338Y-95840310D01*
X167125911Y-95842204D01*
X167214931Y-95863576D01*
X167374938Y-95901991D01*
X167374944Y-95901992D01*
X167379751Y-95903146D01*
X167640000Y-95923628D01*
X167900249Y-95903146D01*
X167905056Y-95901992D01*
X167905062Y-95901991D01*
X168065069Y-95863576D01*
X168154089Y-95842204D01*
X168158662Y-95840310D01*
X168390697Y-95744198D01*
X168390701Y-95744196D01*
X168395271Y-95742303D01*
X168617856Y-95605903D01*
X168816363Y-95436363D01*
X168985903Y-95237856D01*
X169122303Y-95015271D01*
X169128254Y-95000906D01*
X169220310Y-94778662D01*
X169220311Y-94778660D01*
X169222204Y-94774089D01*
X169267738Y-94584429D01*
X169281991Y-94525062D01*
X169281992Y-94525056D01*
X169283146Y-94520249D01*
X169303628Y-94260000D01*
X169283146Y-93999751D01*
X169281992Y-93994944D01*
X169281991Y-93994938D01*
X169223359Y-93750723D01*
X169222204Y-93745911D01*
X169218423Y-93736783D01*
X169124198Y-93509303D01*
X169124196Y-93509299D01*
X169122303Y-93504729D01*
X168985903Y-93282144D01*
X168816363Y-93083637D01*
X168617856Y-92914097D01*
X168395271Y-92777697D01*
X168390701Y-92775804D01*
X168390697Y-92775802D01*
X168158662Y-92679690D01*
X168158660Y-92679689D01*
X168154089Y-92677796D01*
X168013349Y-92644007D01*
X167905062Y-92618009D01*
X167905056Y-92618008D01*
X167900249Y-92616854D01*
X167640000Y-92596372D01*
X167379751Y-92616854D01*
X167374944Y-92618008D01*
X167374938Y-92618009D01*
X167266651Y-92644007D01*
X167125911Y-92677796D01*
X167121340Y-92679689D01*
X167121338Y-92679690D01*
X166889303Y-92775802D01*
X166889299Y-92775804D01*
X166884729Y-92777697D01*
X166662144Y-92914097D01*
X166463637Y-93083637D01*
X166294097Y-93282144D01*
X166157697Y-93504729D01*
X166155804Y-93509299D01*
X166155802Y-93509303D01*
X166061577Y-93736783D01*
X166057796Y-93745911D01*
X166056641Y-93750723D01*
X165998009Y-93994938D01*
X165998008Y-93994944D01*
X165996854Y-93999751D01*
X165976372Y-94260000D01*
X140608077Y-94260000D01*
X140690852Y-94105626D01*
X140769856Y-93876182D01*
X140811160Y-93637058D01*
X140812480Y-93607987D01*
X140812480Y-92689663D01*
X140811525Y-92677796D01*
X140798331Y-92513797D01*
X140798330Y-92513792D01*
X140797925Y-92508756D01*
X140766150Y-92379390D01*
X140741248Y-92278010D01*
X140740041Y-92273096D01*
X140645224Y-92049721D01*
X140597173Y-91973418D01*
X140518608Y-91848659D01*
X140518606Y-91848656D01*
X140515913Y-91844380D01*
X140477409Y-91800705D01*
X140358784Y-91666151D01*
X140358781Y-91666148D01*
X140355436Y-91662354D01*
X140167920Y-91508327D01*
X139958191Y-91386261D01*
X139953465Y-91384447D01*
X139953461Y-91384445D01*
X139736372Y-91301113D01*
X139736369Y-91301112D01*
X139731643Y-91299298D01*
X139494106Y-91249674D01*
X139489057Y-91249445D01*
X139489051Y-91249444D01*
X139378432Y-91244421D01*
X139251691Y-91238666D01*
X139246671Y-91239247D01*
X139246667Y-91239247D01*
X139147605Y-91250709D01*
X139010634Y-91266557D01*
X139005760Y-91267936D01*
X139005756Y-91267937D01*
X138782006Y-91331252D01*
X138782004Y-91331253D01*
X138777137Y-91332630D01*
X138772562Y-91334764D01*
X138772555Y-91334766D01*
X138561789Y-91433048D01*
X138561785Y-91433050D01*
X138557207Y-91435185D01*
X138553026Y-91438027D01*
X138553025Y-91438027D01*
X138360691Y-91568737D01*
X138360687Y-91568740D01*
X138356504Y-91571583D01*
X138180189Y-91738315D01*
X138135051Y-91797353D01*
X138077789Y-91839319D01*
X138006925Y-91843664D01*
X137940443Y-91804147D01*
X137818784Y-91666151D01*
X137818781Y-91666148D01*
X137815436Y-91662354D01*
X137627920Y-91508327D01*
X137418191Y-91386261D01*
X137413465Y-91384447D01*
X137413461Y-91384445D01*
X137196372Y-91301113D01*
X137196369Y-91301112D01*
X137191643Y-91299298D01*
X136954106Y-91249674D01*
X136949057Y-91249445D01*
X136949051Y-91249444D01*
X136838432Y-91244421D01*
X136711691Y-91238666D01*
X136706671Y-91239247D01*
X136706667Y-91239247D01*
X136607605Y-91250709D01*
X136470634Y-91266557D01*
X136465760Y-91267936D01*
X136465756Y-91267937D01*
X136242006Y-91331252D01*
X136242004Y-91331253D01*
X136237137Y-91332630D01*
X136232562Y-91334764D01*
X136232555Y-91334766D01*
X136021789Y-91433048D01*
X136021785Y-91433050D01*
X136017207Y-91435185D01*
X136013026Y-91438027D01*
X136013025Y-91438027D01*
X135820691Y-91568737D01*
X135820687Y-91568740D01*
X135816504Y-91571583D01*
X135640189Y-91738315D01*
X135595051Y-91797353D01*
X135537789Y-91839319D01*
X135466925Y-91843664D01*
X135400443Y-91804147D01*
X135278784Y-91666151D01*
X135278781Y-91666148D01*
X135275436Y-91662354D01*
X135087920Y-91508327D01*
X134878191Y-91386261D01*
X134873465Y-91384447D01*
X134873461Y-91384445D01*
X134656372Y-91301113D01*
X134656369Y-91301112D01*
X134651643Y-91299298D01*
X134414106Y-91249674D01*
X134409057Y-91249445D01*
X134409051Y-91249444D01*
X134298432Y-91244421D01*
X134171691Y-91238666D01*
X134166671Y-91239247D01*
X134166667Y-91239247D01*
X134067605Y-91250709D01*
X133930634Y-91266557D01*
X133925760Y-91267936D01*
X133925756Y-91267937D01*
X133702006Y-91331252D01*
X133702004Y-91331253D01*
X133697137Y-91332630D01*
X133692562Y-91334764D01*
X133692555Y-91334766D01*
X133481789Y-91433048D01*
X133481785Y-91433050D01*
X133477207Y-91435185D01*
X133473026Y-91438027D01*
X133473025Y-91438027D01*
X133280691Y-91568737D01*
X133280687Y-91568740D01*
X133276504Y-91571583D01*
X133100189Y-91738315D01*
X133055051Y-91797353D01*
X132997789Y-91839319D01*
X132926925Y-91843664D01*
X132860443Y-91804147D01*
X132738784Y-91666151D01*
X132738781Y-91666148D01*
X132735436Y-91662354D01*
X132547920Y-91508327D01*
X132338191Y-91386261D01*
X132333465Y-91384447D01*
X132333461Y-91384445D01*
X132116372Y-91301113D01*
X132116369Y-91301112D01*
X132111643Y-91299298D01*
X131874106Y-91249674D01*
X131869057Y-91249445D01*
X131869051Y-91249444D01*
X131758432Y-91244421D01*
X131631691Y-91238666D01*
X131626671Y-91239247D01*
X131626667Y-91239247D01*
X131527605Y-91250709D01*
X131390634Y-91266557D01*
X131385760Y-91267936D01*
X131385756Y-91267937D01*
X131162006Y-91331252D01*
X131162004Y-91331253D01*
X131157137Y-91332630D01*
X131152562Y-91334764D01*
X131152555Y-91334766D01*
X130941789Y-91433048D01*
X130941785Y-91433050D01*
X130937207Y-91435185D01*
X130933026Y-91438027D01*
X130933025Y-91438027D01*
X130740691Y-91568737D01*
X130740687Y-91568740D01*
X130736504Y-91571583D01*
X130560189Y-91738315D01*
X130515051Y-91797353D01*
X130457789Y-91839319D01*
X130386925Y-91843664D01*
X130320443Y-91804147D01*
X130198784Y-91666151D01*
X130198781Y-91666148D01*
X130195436Y-91662354D01*
X130007920Y-91508327D01*
X129798191Y-91386261D01*
X129793465Y-91384447D01*
X129793461Y-91384445D01*
X129576372Y-91301113D01*
X129576369Y-91301112D01*
X129571643Y-91299298D01*
X129334106Y-91249674D01*
X129329057Y-91249445D01*
X129329051Y-91249444D01*
X129218432Y-91244421D01*
X129091691Y-91238666D01*
X129086671Y-91239247D01*
X129086667Y-91239247D01*
X128987605Y-91250709D01*
X128850634Y-91266557D01*
X128845760Y-91267936D01*
X128845756Y-91267937D01*
X128622006Y-91331252D01*
X128622004Y-91331253D01*
X128617137Y-91332630D01*
X128612562Y-91334764D01*
X128612555Y-91334766D01*
X128401789Y-91433048D01*
X128401785Y-91433050D01*
X128397207Y-91435185D01*
X128393026Y-91438027D01*
X128393025Y-91438027D01*
X128200691Y-91568737D01*
X128200687Y-91568740D01*
X128196504Y-91571583D01*
X128020189Y-91738315D01*
X127975051Y-91797353D01*
X127917789Y-91839319D01*
X127846925Y-91843664D01*
X127780443Y-91804147D01*
X127658784Y-91666151D01*
X127658781Y-91666148D01*
X127655436Y-91662354D01*
X127467920Y-91508327D01*
X127258191Y-91386261D01*
X127253465Y-91384447D01*
X127253461Y-91384445D01*
X127036372Y-91301113D01*
X127036369Y-91301112D01*
X127031643Y-91299298D01*
X126794106Y-91249674D01*
X126789057Y-91249445D01*
X126789051Y-91249444D01*
X126678432Y-91244421D01*
X126551691Y-91238666D01*
X126546671Y-91239247D01*
X126546667Y-91239247D01*
X126447605Y-91250709D01*
X126310634Y-91266557D01*
X126305760Y-91267936D01*
X126305756Y-91267937D01*
X126082006Y-91331252D01*
X126082004Y-91331253D01*
X126077137Y-91332630D01*
X126072562Y-91334764D01*
X126072555Y-91334766D01*
X125861789Y-91433048D01*
X125861785Y-91433050D01*
X125857207Y-91435185D01*
X125853026Y-91438027D01*
X125853025Y-91438027D01*
X125660691Y-91568737D01*
X125660687Y-91568740D01*
X125656504Y-91571583D01*
X125480189Y-91738315D01*
X125435051Y-91797353D01*
X125377789Y-91839319D01*
X125306925Y-91843664D01*
X125240443Y-91804147D01*
X125118784Y-91666151D01*
X125118781Y-91666148D01*
X125115436Y-91662354D01*
X124927920Y-91508327D01*
X124718191Y-91386261D01*
X124713465Y-91384447D01*
X124713461Y-91384445D01*
X124496372Y-91301113D01*
X124496369Y-91301112D01*
X124491643Y-91299298D01*
X124254106Y-91249674D01*
X124249057Y-91249445D01*
X124249051Y-91249444D01*
X124138432Y-91244421D01*
X124011691Y-91238666D01*
X124006671Y-91239247D01*
X124006667Y-91239247D01*
X123907605Y-91250709D01*
X123770634Y-91266557D01*
X123765760Y-91267936D01*
X123765756Y-91267937D01*
X123542006Y-91331252D01*
X123542004Y-91331253D01*
X123537137Y-91332630D01*
X123532562Y-91334764D01*
X123532555Y-91334766D01*
X123321789Y-91433048D01*
X123321785Y-91433050D01*
X123317207Y-91435185D01*
X123313026Y-91438027D01*
X123313025Y-91438027D01*
X123120691Y-91568737D01*
X123120687Y-91568740D01*
X123116504Y-91571583D01*
X122940189Y-91738315D01*
X122937111Y-91742341D01*
X122937110Y-91742342D01*
X122795873Y-91927072D01*
X122795870Y-91927076D01*
X122792800Y-91931092D01*
X122678128Y-92144954D01*
X122599124Y-92374398D01*
X122557820Y-92613522D01*
X122556500Y-92642593D01*
X122556500Y-93560917D01*
X121412000Y-93560917D01*
X121412000Y-84698400D01*
X166081500Y-84698400D01*
X166092474Y-84804165D01*
X166148450Y-84971945D01*
X166241522Y-85122348D01*
X166366697Y-85247305D01*
X166372927Y-85251145D01*
X166372928Y-85251146D01*
X166510090Y-85335694D01*
X166517262Y-85340115D01*
X166597005Y-85366564D01*
X166678611Y-85393632D01*
X166678613Y-85393632D01*
X166685139Y-85395797D01*
X166691975Y-85396497D01*
X166691978Y-85396498D01*
X166735031Y-85400909D01*
X166789600Y-85406500D01*
X168490400Y-85406500D01*
X168493646Y-85406163D01*
X168493650Y-85406163D01*
X168589307Y-85396238D01*
X168589311Y-85396237D01*
X168596165Y-85395526D01*
X168602701Y-85393345D01*
X168602703Y-85393345D01*
X168734805Y-85349272D01*
X168763945Y-85339550D01*
X168914348Y-85246478D01*
X169039305Y-85121303D01*
X169132115Y-84970738D01*
X169187797Y-84802861D01*
X169198500Y-84698400D01*
X169198500Y-82997600D01*
X169187526Y-82891835D01*
X169131550Y-82724055D01*
X169038478Y-82573652D01*
X168913303Y-82448695D01*
X168907072Y-82444854D01*
X168768968Y-82359725D01*
X168768966Y-82359724D01*
X168762738Y-82355885D01*
X168602254Y-82302655D01*
X168601389Y-82302368D01*
X168601387Y-82302368D01*
X168594861Y-82300203D01*
X168588025Y-82299503D01*
X168588022Y-82299502D01*
X168544969Y-82295091D01*
X168490400Y-82289500D01*
X166789600Y-82289500D01*
X166786354Y-82289837D01*
X166786350Y-82289837D01*
X166690693Y-82299762D01*
X166690689Y-82299763D01*
X166683835Y-82300474D01*
X166677299Y-82302655D01*
X166677297Y-82302655D01*
X166545195Y-82346728D01*
X166516055Y-82356450D01*
X166365652Y-82449522D01*
X166240695Y-82574697D01*
X166147885Y-82725262D01*
X166092203Y-82893139D01*
X166081500Y-82997600D01*
X166081500Y-84698400D01*
X121412000Y-84698400D01*
X121412000Y-80517030D01*
X166735800Y-80517030D01*
X166741527Y-80524680D01*
X166926272Y-80637893D01*
X166935067Y-80642375D01*
X167152490Y-80732434D01*
X167161875Y-80735483D01*
X167390708Y-80790422D01*
X167400455Y-80791965D01*
X167635070Y-80810430D01*
X167644930Y-80810430D01*
X167879545Y-80791965D01*
X167889292Y-80790422D01*
X168118125Y-80735483D01*
X168127510Y-80732434D01*
X168344933Y-80642375D01*
X168353728Y-80637893D01*
X168534805Y-80526928D01*
X168544267Y-80516470D01*
X168540484Y-80507694D01*
X167652812Y-79620022D01*
X167638868Y-79612408D01*
X167637035Y-79612539D01*
X167630420Y-79616790D01*
X166742560Y-80504650D01*
X166735800Y-80517030D01*
X121412000Y-80517030D01*
X121412000Y-79252930D01*
X166077570Y-79252930D01*
X166096035Y-79487545D01*
X166097578Y-79497292D01*
X166152517Y-79726125D01*
X166155566Y-79735510D01*
X166245625Y-79952933D01*
X166250107Y-79961728D01*
X166361072Y-80142805D01*
X166371530Y-80152267D01*
X166380306Y-80148484D01*
X167267978Y-79260812D01*
X167274356Y-79249132D01*
X168004408Y-79249132D01*
X168004539Y-79250965D01*
X168008790Y-79257580D01*
X168896650Y-80145440D01*
X168909030Y-80152200D01*
X168916680Y-80146473D01*
X169029893Y-79961728D01*
X169034375Y-79952933D01*
X169124434Y-79735510D01*
X169127483Y-79726125D01*
X169182422Y-79497292D01*
X169183965Y-79487545D01*
X169202430Y-79252930D01*
X169202430Y-79243070D01*
X169183965Y-79008455D01*
X169182422Y-78998708D01*
X169127483Y-78769875D01*
X169124434Y-78760490D01*
X169034375Y-78543067D01*
X169029893Y-78534272D01*
X168918928Y-78353195D01*
X168908470Y-78343733D01*
X168899694Y-78347516D01*
X168012022Y-79235188D01*
X168004408Y-79249132D01*
X167274356Y-79249132D01*
X167275592Y-79246868D01*
X167275461Y-79245035D01*
X167271210Y-79238420D01*
X166383350Y-78350560D01*
X166370970Y-78343800D01*
X166363320Y-78349527D01*
X166250107Y-78534272D01*
X166245625Y-78543067D01*
X166155566Y-78760490D01*
X166152517Y-78769875D01*
X166097578Y-78998708D01*
X166096035Y-79008455D01*
X166077570Y-79243070D01*
X166077570Y-79252930D01*
X121412000Y-79252930D01*
X121412000Y-77396357D01*
X122556500Y-77396357D01*
X122571055Y-77577264D01*
X122572260Y-77582172D01*
X122572261Y-77582175D01*
X122616815Y-77763566D01*
X122628939Y-77812924D01*
X122630914Y-77817576D01*
X122630915Y-77817580D01*
X122648118Y-77858107D01*
X122723756Y-78036299D01*
X122726454Y-78040583D01*
X122795653Y-78150468D01*
X122853067Y-78241640D01*
X122856412Y-78245434D01*
X123010196Y-78419869D01*
X123010199Y-78419872D01*
X123013544Y-78423666D01*
X123201060Y-78577693D01*
X123410789Y-78699759D01*
X123415515Y-78701573D01*
X123415519Y-78701575D01*
X123632608Y-78784907D01*
X123632611Y-78784908D01*
X123637337Y-78786722D01*
X123874874Y-78836346D01*
X123879923Y-78836575D01*
X123879929Y-78836576D01*
X123990548Y-78841599D01*
X124117289Y-78847354D01*
X124122309Y-78846773D01*
X124122313Y-78846773D01*
X124230168Y-78834294D01*
X124358346Y-78819463D01*
X124363220Y-78818084D01*
X124363224Y-78818083D01*
X124586974Y-78754768D01*
X124586976Y-78754767D01*
X124591843Y-78753390D01*
X124596418Y-78751256D01*
X124596425Y-78751254D01*
X124807191Y-78652972D01*
X124807195Y-78652970D01*
X124811773Y-78650835D01*
X124815955Y-78647993D01*
X125008289Y-78517283D01*
X125008293Y-78517280D01*
X125012476Y-78514437D01*
X125188791Y-78347705D01*
X125234237Y-78288264D01*
X125291501Y-78246296D01*
X125362365Y-78241951D01*
X125428847Y-78281468D01*
X125550549Y-78419512D01*
X125557801Y-78426515D01*
X125737436Y-78574069D01*
X125745714Y-78579823D01*
X125946635Y-78696762D01*
X125955730Y-78701119D01*
X126172758Y-78784429D01*
X126182430Y-78787276D01*
X126332754Y-78818680D01*
X126346815Y-78817557D01*
X126350490Y-78807449D01*
X126350490Y-78805456D01*
X126858490Y-78805456D01*
X126862626Y-78819542D01*
X126875604Y-78821591D01*
X126893217Y-78819553D01*
X126903125Y-78817591D01*
X127126799Y-78754298D01*
X127136250Y-78750784D01*
X127346943Y-78652536D01*
X127355707Y-78647557D01*
X127547971Y-78516894D01*
X127555846Y-78510562D01*
X127724736Y-78350851D01*
X127731492Y-78343348D01*
X127773590Y-78288286D01*
X127830855Y-78246319D01*
X127901719Y-78241974D01*
X127968200Y-78281491D01*
X128090196Y-78419869D01*
X128090199Y-78419872D01*
X128093544Y-78423666D01*
X128281060Y-78577693D01*
X128490789Y-78699759D01*
X128495515Y-78701573D01*
X128495519Y-78701575D01*
X128712608Y-78784907D01*
X128712611Y-78784908D01*
X128717337Y-78786722D01*
X128954874Y-78836346D01*
X128959923Y-78836575D01*
X128959929Y-78836576D01*
X129070548Y-78841599D01*
X129197289Y-78847354D01*
X129202309Y-78846773D01*
X129202313Y-78846773D01*
X129310168Y-78834294D01*
X129438346Y-78819463D01*
X129443220Y-78818084D01*
X129443224Y-78818083D01*
X129666974Y-78754768D01*
X129666976Y-78754767D01*
X129671843Y-78753390D01*
X129676418Y-78751256D01*
X129676425Y-78751254D01*
X129887191Y-78652972D01*
X129887195Y-78652970D01*
X129891773Y-78650835D01*
X129895955Y-78647993D01*
X130088289Y-78517283D01*
X130088293Y-78517280D01*
X130092476Y-78514437D01*
X130268791Y-78347705D01*
X130313929Y-78288667D01*
X130371191Y-78246701D01*
X130442055Y-78242356D01*
X130508537Y-78281873D01*
X130630196Y-78419869D01*
X130630199Y-78419872D01*
X130633544Y-78423666D01*
X130821060Y-78577693D01*
X131030789Y-78699759D01*
X131035515Y-78701573D01*
X131035519Y-78701575D01*
X131252608Y-78784907D01*
X131252611Y-78784908D01*
X131257337Y-78786722D01*
X131494874Y-78836346D01*
X131499923Y-78836575D01*
X131499929Y-78836576D01*
X131610548Y-78841599D01*
X131737289Y-78847354D01*
X131742309Y-78846773D01*
X131742313Y-78846773D01*
X131850168Y-78834294D01*
X131978346Y-78819463D01*
X131983220Y-78818084D01*
X131983224Y-78818083D01*
X132206974Y-78754768D01*
X132206976Y-78754767D01*
X132211843Y-78753390D01*
X132216418Y-78751256D01*
X132216425Y-78751254D01*
X132427191Y-78652972D01*
X132427195Y-78652970D01*
X132431773Y-78650835D01*
X132435955Y-78647993D01*
X132628289Y-78517283D01*
X132628293Y-78517280D01*
X132632476Y-78514437D01*
X132808791Y-78347705D01*
X132853929Y-78288667D01*
X132911191Y-78246701D01*
X132982055Y-78242356D01*
X133048537Y-78281873D01*
X133170196Y-78419869D01*
X133170199Y-78419872D01*
X133173544Y-78423666D01*
X133361060Y-78577693D01*
X133570789Y-78699759D01*
X133575515Y-78701573D01*
X133575519Y-78701575D01*
X133792608Y-78784907D01*
X133792611Y-78784908D01*
X133797337Y-78786722D01*
X134034874Y-78836346D01*
X134039923Y-78836575D01*
X134039929Y-78836576D01*
X134150548Y-78841599D01*
X134277289Y-78847354D01*
X134282309Y-78846773D01*
X134282313Y-78846773D01*
X134390168Y-78834294D01*
X134518346Y-78819463D01*
X134523220Y-78818084D01*
X134523224Y-78818083D01*
X134746974Y-78754768D01*
X134746976Y-78754767D01*
X134751843Y-78753390D01*
X134756418Y-78751256D01*
X134756425Y-78751254D01*
X134967191Y-78652972D01*
X134967195Y-78652970D01*
X134971773Y-78650835D01*
X134975955Y-78647993D01*
X135168289Y-78517283D01*
X135168293Y-78517280D01*
X135172476Y-78514437D01*
X135348791Y-78347705D01*
X135393929Y-78288667D01*
X135451191Y-78246701D01*
X135522055Y-78242356D01*
X135588537Y-78281873D01*
X135710196Y-78419869D01*
X135710199Y-78419872D01*
X135713544Y-78423666D01*
X135901060Y-78577693D01*
X136110789Y-78699759D01*
X136115515Y-78701573D01*
X136115519Y-78701575D01*
X136332608Y-78784907D01*
X136332611Y-78784908D01*
X136337337Y-78786722D01*
X136574874Y-78836346D01*
X136579923Y-78836575D01*
X136579929Y-78836576D01*
X136690548Y-78841599D01*
X136817289Y-78847354D01*
X136822309Y-78846773D01*
X136822313Y-78846773D01*
X136930168Y-78834294D01*
X137058346Y-78819463D01*
X137063220Y-78818084D01*
X137063224Y-78818083D01*
X137286974Y-78754768D01*
X137286976Y-78754767D01*
X137291843Y-78753390D01*
X137296418Y-78751256D01*
X137296425Y-78751254D01*
X137507191Y-78652972D01*
X137507195Y-78652970D01*
X137511773Y-78650835D01*
X137515955Y-78647993D01*
X137708289Y-78517283D01*
X137708293Y-78517280D01*
X137712476Y-78514437D01*
X137888791Y-78347705D01*
X137933929Y-78288667D01*
X137991191Y-78246701D01*
X138062055Y-78242356D01*
X138128537Y-78281873D01*
X138250196Y-78419869D01*
X138250199Y-78419872D01*
X138253544Y-78423666D01*
X138441060Y-78577693D01*
X138650789Y-78699759D01*
X138655515Y-78701573D01*
X138655519Y-78701575D01*
X138872608Y-78784907D01*
X138872611Y-78784908D01*
X138877337Y-78786722D01*
X139114874Y-78836346D01*
X139119923Y-78836575D01*
X139119929Y-78836576D01*
X139230548Y-78841599D01*
X139357289Y-78847354D01*
X139362309Y-78846773D01*
X139362313Y-78846773D01*
X139470168Y-78834294D01*
X139598346Y-78819463D01*
X139603220Y-78818084D01*
X139603224Y-78818083D01*
X139826974Y-78754768D01*
X139826976Y-78754767D01*
X139831843Y-78753390D01*
X139836418Y-78751256D01*
X139836425Y-78751254D01*
X140047191Y-78652972D01*
X140047195Y-78652970D01*
X140051773Y-78650835D01*
X140055955Y-78647993D01*
X140248289Y-78517283D01*
X140248293Y-78517280D01*
X140252476Y-78514437D01*
X140428791Y-78347705D01*
X140432122Y-78343348D01*
X140573107Y-78158948D01*
X140573110Y-78158944D01*
X140576180Y-78154928D01*
X140670228Y-77979530D01*
X166735733Y-77979530D01*
X166739516Y-77988306D01*
X167627188Y-78875978D01*
X167641132Y-78883592D01*
X167642965Y-78883461D01*
X167649580Y-78879210D01*
X168537440Y-77991350D01*
X168544200Y-77978970D01*
X168538473Y-77971320D01*
X168353728Y-77858107D01*
X168344933Y-77853625D01*
X168127510Y-77763566D01*
X168118125Y-77760517D01*
X167889292Y-77705578D01*
X167879545Y-77704035D01*
X167644930Y-77685570D01*
X167635070Y-77685570D01*
X167400455Y-77704035D01*
X167390708Y-77705578D01*
X167161875Y-77760517D01*
X167152490Y-77763566D01*
X166935067Y-77853625D01*
X166926272Y-77858107D01*
X166745195Y-77969072D01*
X166735733Y-77979530D01*
X140670228Y-77979530D01*
X140690852Y-77941066D01*
X140769856Y-77711622D01*
X140811160Y-77472498D01*
X140812480Y-77443427D01*
X140812480Y-76525103D01*
X140797925Y-76344196D01*
X140766150Y-76214830D01*
X140741248Y-76113450D01*
X140740041Y-76108536D01*
X140645224Y-75885161D01*
X140597173Y-75808857D01*
X140518608Y-75684099D01*
X140518606Y-75684096D01*
X140515913Y-75679820D01*
X140474789Y-75633174D01*
X140358784Y-75501591D01*
X140358781Y-75501588D01*
X140355436Y-75497794D01*
X140341687Y-75486500D01*
X140256193Y-75416275D01*
X140167920Y-75343767D01*
X139958191Y-75221701D01*
X139953465Y-75219887D01*
X139953461Y-75219885D01*
X139736372Y-75136553D01*
X139736369Y-75136552D01*
X139731643Y-75134738D01*
X139494106Y-75085114D01*
X139489057Y-75084885D01*
X139489051Y-75084884D01*
X139378432Y-75079861D01*
X139251691Y-75074106D01*
X139246671Y-75074687D01*
X139246667Y-75074687D01*
X139147605Y-75086149D01*
X139010634Y-75101997D01*
X139005760Y-75103376D01*
X139005756Y-75103377D01*
X138782006Y-75166692D01*
X138782004Y-75166693D01*
X138777137Y-75168070D01*
X138772562Y-75170204D01*
X138772555Y-75170206D01*
X138561789Y-75268488D01*
X138561785Y-75268490D01*
X138557207Y-75270625D01*
X138553026Y-75273467D01*
X138553025Y-75273467D01*
X138360691Y-75404177D01*
X138360687Y-75404180D01*
X138356504Y-75407023D01*
X138180189Y-75573755D01*
X138135051Y-75632793D01*
X138077789Y-75674759D01*
X138006925Y-75679104D01*
X137940443Y-75639587D01*
X137818784Y-75501591D01*
X137818781Y-75501588D01*
X137815436Y-75497794D01*
X137801687Y-75486500D01*
X137716193Y-75416275D01*
X137627920Y-75343767D01*
X137418191Y-75221701D01*
X137413465Y-75219887D01*
X137413461Y-75219885D01*
X137196372Y-75136553D01*
X137196369Y-75136552D01*
X137191643Y-75134738D01*
X136954106Y-75085114D01*
X136949057Y-75084885D01*
X136949051Y-75084884D01*
X136838432Y-75079861D01*
X136711691Y-75074106D01*
X136706671Y-75074687D01*
X136706667Y-75074687D01*
X136607605Y-75086149D01*
X136470634Y-75101997D01*
X136465760Y-75103376D01*
X136465756Y-75103377D01*
X136242006Y-75166692D01*
X136242004Y-75166693D01*
X136237137Y-75168070D01*
X136232562Y-75170204D01*
X136232555Y-75170206D01*
X136021789Y-75268488D01*
X136021785Y-75268490D01*
X136017207Y-75270625D01*
X136013026Y-75273467D01*
X136013025Y-75273467D01*
X135820691Y-75404177D01*
X135820687Y-75404180D01*
X135816504Y-75407023D01*
X135640189Y-75573755D01*
X135595051Y-75632793D01*
X135537789Y-75674759D01*
X135466925Y-75679104D01*
X135400443Y-75639587D01*
X135278784Y-75501591D01*
X135278781Y-75501588D01*
X135275436Y-75497794D01*
X135261687Y-75486500D01*
X135176193Y-75416275D01*
X135087920Y-75343767D01*
X134878191Y-75221701D01*
X134873465Y-75219887D01*
X134873461Y-75219885D01*
X134656372Y-75136553D01*
X134656369Y-75136552D01*
X134651643Y-75134738D01*
X134414106Y-75085114D01*
X134409057Y-75084885D01*
X134409051Y-75084884D01*
X134298432Y-75079861D01*
X134171691Y-75074106D01*
X134166671Y-75074687D01*
X134166667Y-75074687D01*
X134067605Y-75086149D01*
X133930634Y-75101997D01*
X133925760Y-75103376D01*
X133925756Y-75103377D01*
X133702006Y-75166692D01*
X133702004Y-75166693D01*
X133697137Y-75168070D01*
X133692562Y-75170204D01*
X133692555Y-75170206D01*
X133481789Y-75268488D01*
X133481785Y-75268490D01*
X133477207Y-75270625D01*
X133473026Y-75273467D01*
X133473025Y-75273467D01*
X133280691Y-75404177D01*
X133280687Y-75404180D01*
X133276504Y-75407023D01*
X133100189Y-75573755D01*
X133055051Y-75632793D01*
X132997789Y-75674759D01*
X132926925Y-75679104D01*
X132860443Y-75639587D01*
X132738784Y-75501591D01*
X132738781Y-75501588D01*
X132735436Y-75497794D01*
X132721687Y-75486500D01*
X132636193Y-75416275D01*
X132547920Y-75343767D01*
X132338191Y-75221701D01*
X132333465Y-75219887D01*
X132333461Y-75219885D01*
X132116372Y-75136553D01*
X132116369Y-75136552D01*
X132111643Y-75134738D01*
X131874106Y-75085114D01*
X131869057Y-75084885D01*
X131869051Y-75084884D01*
X131758432Y-75079861D01*
X131631691Y-75074106D01*
X131626671Y-75074687D01*
X131626667Y-75074687D01*
X131527605Y-75086149D01*
X131390634Y-75101997D01*
X131385760Y-75103376D01*
X131385756Y-75103377D01*
X131162006Y-75166692D01*
X131162004Y-75166693D01*
X131157137Y-75168070D01*
X131152562Y-75170204D01*
X131152555Y-75170206D01*
X130941789Y-75268488D01*
X130941785Y-75268490D01*
X130937207Y-75270625D01*
X130933026Y-75273467D01*
X130933025Y-75273467D01*
X130740691Y-75404177D01*
X130740687Y-75404180D01*
X130736504Y-75407023D01*
X130560189Y-75573755D01*
X130515051Y-75632793D01*
X130457789Y-75674759D01*
X130386925Y-75679104D01*
X130320443Y-75639587D01*
X130198784Y-75501591D01*
X130198781Y-75501588D01*
X130195436Y-75497794D01*
X130181687Y-75486500D01*
X130096193Y-75416275D01*
X130007920Y-75343767D01*
X129798191Y-75221701D01*
X129793465Y-75219887D01*
X129793461Y-75219885D01*
X129576372Y-75136553D01*
X129576369Y-75136552D01*
X129571643Y-75134738D01*
X129334106Y-75085114D01*
X129329057Y-75084885D01*
X129329051Y-75084884D01*
X129218432Y-75079861D01*
X129091691Y-75074106D01*
X129086671Y-75074687D01*
X129086667Y-75074687D01*
X128987605Y-75086149D01*
X128850634Y-75101997D01*
X128845760Y-75103376D01*
X128845756Y-75103377D01*
X128622006Y-75166692D01*
X128622004Y-75166693D01*
X128617137Y-75168070D01*
X128612562Y-75170204D01*
X128612555Y-75170206D01*
X128401789Y-75268488D01*
X128401785Y-75268490D01*
X128397207Y-75270625D01*
X128393026Y-75273467D01*
X128393025Y-75273467D01*
X128200691Y-75404177D01*
X128200687Y-75404180D01*
X128196504Y-75407023D01*
X128020189Y-75573755D01*
X128017111Y-75577781D01*
X128017110Y-75577782D01*
X127974743Y-75633196D01*
X127917479Y-75675164D01*
X127846615Y-75679509D01*
X127780133Y-75639992D01*
X127658431Y-75501948D01*
X127651179Y-75494945D01*
X127471544Y-75347391D01*
X127463266Y-75341637D01*
X127262345Y-75224698D01*
X127253250Y-75220341D01*
X127036222Y-75137031D01*
X127026550Y-75134184D01*
X126876226Y-75102780D01*
X126862165Y-75103903D01*
X126858490Y-75114011D01*
X126858490Y-78805456D01*
X126350490Y-78805456D01*
X126350490Y-75116004D01*
X126346354Y-75101918D01*
X126333376Y-75099869D01*
X126315763Y-75101907D01*
X126305855Y-75103869D01*
X126082181Y-75167162D01*
X126072730Y-75170676D01*
X125862037Y-75268924D01*
X125853273Y-75273903D01*
X125661009Y-75404566D01*
X125653134Y-75410898D01*
X125484244Y-75570609D01*
X125477488Y-75578112D01*
X125435390Y-75633174D01*
X125378125Y-75675141D01*
X125307261Y-75679486D01*
X125240780Y-75639969D01*
X125118784Y-75501591D01*
X125118781Y-75501588D01*
X125115436Y-75497794D01*
X125101687Y-75486500D01*
X125016193Y-75416275D01*
X124927920Y-75343767D01*
X124718191Y-75221701D01*
X124713465Y-75219887D01*
X124713461Y-75219885D01*
X124496372Y-75136553D01*
X124496369Y-75136552D01*
X124491643Y-75134738D01*
X124254106Y-75085114D01*
X124249057Y-75084885D01*
X124249051Y-75084884D01*
X124138432Y-75079861D01*
X124011691Y-75074106D01*
X124006671Y-75074687D01*
X124006667Y-75074687D01*
X123907605Y-75086149D01*
X123770634Y-75101997D01*
X123765760Y-75103376D01*
X123765756Y-75103377D01*
X123542006Y-75166692D01*
X123542004Y-75166693D01*
X123537137Y-75168070D01*
X123532562Y-75170204D01*
X123532555Y-75170206D01*
X123321789Y-75268488D01*
X123321785Y-75268490D01*
X123317207Y-75270625D01*
X123313026Y-75273467D01*
X123313025Y-75273467D01*
X123120691Y-75404177D01*
X123120687Y-75404180D01*
X123116504Y-75407023D01*
X122940189Y-75573755D01*
X122937111Y-75577781D01*
X122937110Y-75577782D01*
X122795873Y-75762512D01*
X122795870Y-75762516D01*
X122792800Y-75766532D01*
X122678128Y-75980394D01*
X122599124Y-76209838D01*
X122557820Y-76448962D01*
X122556500Y-76478033D01*
X122556500Y-77396357D01*
X121412000Y-77396357D01*
X121412000Y-74778400D01*
X166081500Y-74778400D01*
X166092474Y-74884165D01*
X166148450Y-75051945D01*
X166241522Y-75202348D01*
X166366697Y-75327305D01*
X166372927Y-75331145D01*
X166372928Y-75331146D01*
X166510090Y-75415694D01*
X166517262Y-75420115D01*
X166597005Y-75446564D01*
X166678611Y-75473632D01*
X166678613Y-75473632D01*
X166685139Y-75475797D01*
X166691975Y-75476497D01*
X166691978Y-75476498D01*
X166735031Y-75480909D01*
X166789600Y-75486500D01*
X168490400Y-75486500D01*
X168493646Y-75486163D01*
X168493650Y-75486163D01*
X168589307Y-75476238D01*
X168589311Y-75476237D01*
X168596165Y-75475526D01*
X168602701Y-75473345D01*
X168602703Y-75473345D01*
X168734805Y-75429272D01*
X168763945Y-75419550D01*
X168914348Y-75326478D01*
X169039305Y-75201303D01*
X169079218Y-75136553D01*
X169128275Y-75056968D01*
X169128276Y-75056966D01*
X169132115Y-75050738D01*
X169187797Y-74882861D01*
X169198500Y-74778400D01*
X169198500Y-73077600D01*
X169187526Y-72971835D01*
X169131550Y-72804055D01*
X169038478Y-72653652D01*
X168913303Y-72528695D01*
X168907072Y-72524854D01*
X168768968Y-72439725D01*
X168768966Y-72439724D01*
X168762738Y-72435885D01*
X168682995Y-72409436D01*
X168601389Y-72382368D01*
X168601387Y-72382368D01*
X168594861Y-72380203D01*
X168588025Y-72379503D01*
X168588022Y-72379502D01*
X168544969Y-72375091D01*
X168490400Y-72369500D01*
X166789600Y-72369500D01*
X166786354Y-72369837D01*
X166786350Y-72369837D01*
X166690693Y-72379762D01*
X166690689Y-72379763D01*
X166683835Y-72380474D01*
X166677299Y-72382655D01*
X166677297Y-72382655D01*
X166545195Y-72426728D01*
X166516055Y-72436450D01*
X166365652Y-72529522D01*
X166240695Y-72654697D01*
X166147885Y-72805262D01*
X166092203Y-72973139D01*
X166081500Y-73077600D01*
X166081500Y-74778400D01*
X121412000Y-74778400D01*
X121412000Y-71416607D01*
X146481037Y-71416607D01*
X146508025Y-71639632D01*
X146574082Y-71854352D01*
X146576652Y-71859332D01*
X146576654Y-71859336D01*
X146641852Y-71985655D01*
X146677118Y-72053981D01*
X146813877Y-72232209D01*
X146980036Y-72383402D01*
X146984783Y-72386380D01*
X146984786Y-72386382D01*
X147113229Y-72466953D01*
X147170344Y-72502781D01*
X147378783Y-72586573D01*
X147598767Y-72632130D01*
X147603378Y-72632396D01*
X147603379Y-72632396D01*
X147653952Y-72635312D01*
X147653956Y-72635312D01*
X147655775Y-72635417D01*
X148500999Y-72635417D01*
X148503786Y-72635168D01*
X148503792Y-72635168D01*
X148573929Y-72628908D01*
X148667762Y-72620534D01*
X148673176Y-72619053D01*
X148673181Y-72619052D01*
X148800912Y-72584108D01*
X148884451Y-72561254D01*
X148889509Y-72558842D01*
X148889513Y-72558840D01*
X149007042Y-72502781D01*
X149087218Y-72464539D01*
X149269654Y-72333446D01*
X149425992Y-72172118D01*
X149551290Y-71985655D01*
X149641588Y-71779950D01*
X149694032Y-71561506D01*
X149702710Y-71411000D01*
X149706640Y-71342834D01*
X149706640Y-71342831D01*
X149706963Y-71337227D01*
X149679975Y-71114202D01*
X149630116Y-70952134D01*
X152361500Y-70952134D01*
X152368255Y-71014316D01*
X152419385Y-71150705D01*
X152506739Y-71267261D01*
X152623295Y-71354615D01*
X152759684Y-71405745D01*
X152821866Y-71412500D01*
X154518134Y-71412500D01*
X154580316Y-71405745D01*
X154716705Y-71354615D01*
X154833261Y-71267261D01*
X154920615Y-71150705D01*
X154971745Y-71014316D01*
X154978500Y-70952134D01*
X154978500Y-70104000D01*
X159976502Y-70104000D01*
X159996457Y-70332087D01*
X159997881Y-70337400D01*
X159997881Y-70337402D01*
X160019240Y-70417112D01*
X160055716Y-70553243D01*
X160058039Y-70558224D01*
X160058039Y-70558225D01*
X160150151Y-70755762D01*
X160150154Y-70755767D01*
X160152477Y-70760749D01*
X160190802Y-70815483D01*
X160230352Y-70871965D01*
X160283802Y-70948300D01*
X160445700Y-71110198D01*
X160450208Y-71113355D01*
X160450211Y-71113357D01*
X160491542Y-71142297D01*
X160633251Y-71241523D01*
X160638233Y-71243846D01*
X160638238Y-71243849D01*
X160826528Y-71331649D01*
X160840757Y-71338284D01*
X160846065Y-71339706D01*
X160846067Y-71339707D01*
X161056598Y-71396119D01*
X161056600Y-71396119D01*
X161061913Y-71397543D01*
X161290000Y-71417498D01*
X161518087Y-71397543D01*
X161523400Y-71396119D01*
X161523402Y-71396119D01*
X161733933Y-71339707D01*
X161733935Y-71339706D01*
X161739243Y-71338284D01*
X161753472Y-71331649D01*
X161941762Y-71243849D01*
X161941767Y-71243846D01*
X161946749Y-71241523D01*
X162088458Y-71142297D01*
X162129789Y-71113357D01*
X162129792Y-71113355D01*
X162134300Y-71110198D01*
X162296198Y-70948300D01*
X162349649Y-70871965D01*
X162389198Y-70815483D01*
X162427523Y-70760749D01*
X162429846Y-70755767D01*
X162429849Y-70755762D01*
X162503866Y-70597030D01*
X166735800Y-70597030D01*
X166741527Y-70604680D01*
X166926272Y-70717893D01*
X166935067Y-70722375D01*
X167152490Y-70812434D01*
X167161875Y-70815483D01*
X167390708Y-70870422D01*
X167400455Y-70871965D01*
X167635070Y-70890430D01*
X167644930Y-70890430D01*
X167879545Y-70871965D01*
X167889292Y-70870422D01*
X168118125Y-70815483D01*
X168127510Y-70812434D01*
X168344933Y-70722375D01*
X168353728Y-70717893D01*
X168534805Y-70606928D01*
X168544267Y-70596470D01*
X168540484Y-70587694D01*
X167652812Y-69700022D01*
X167638868Y-69692408D01*
X167637035Y-69692539D01*
X167630420Y-69696790D01*
X166742560Y-70584650D01*
X166735800Y-70597030D01*
X162503866Y-70597030D01*
X162521961Y-70558225D01*
X162521961Y-70558224D01*
X162524284Y-70553243D01*
X162560761Y-70417112D01*
X162582119Y-70337402D01*
X162582119Y-70337400D01*
X162583543Y-70332087D01*
X162603498Y-70104000D01*
X162583543Y-69875913D01*
X162582119Y-69870598D01*
X162525707Y-69660067D01*
X162525706Y-69660065D01*
X162524284Y-69654757D01*
X162483617Y-69567545D01*
X162429849Y-69452238D01*
X162429846Y-69452233D01*
X162427523Y-69447251D01*
X162347474Y-69332930D01*
X166077570Y-69332930D01*
X166096035Y-69567545D01*
X166097578Y-69577292D01*
X166152517Y-69806125D01*
X166155566Y-69815510D01*
X166245625Y-70032933D01*
X166250107Y-70041728D01*
X166361072Y-70222805D01*
X166371530Y-70232267D01*
X166380306Y-70228484D01*
X167267978Y-69340812D01*
X167274356Y-69329132D01*
X168004408Y-69329132D01*
X168004539Y-69330965D01*
X168008790Y-69337580D01*
X168896650Y-70225440D01*
X168909030Y-70232200D01*
X168916680Y-70226473D01*
X169029893Y-70041728D01*
X169034375Y-70032933D01*
X169124434Y-69815510D01*
X169127483Y-69806125D01*
X169182422Y-69577292D01*
X169183965Y-69567545D01*
X169202430Y-69332930D01*
X169202430Y-69323070D01*
X169183965Y-69088455D01*
X169182422Y-69078708D01*
X169127483Y-68849875D01*
X169124434Y-68840490D01*
X169034375Y-68623067D01*
X169029893Y-68614272D01*
X168918928Y-68433195D01*
X168908470Y-68423733D01*
X168899694Y-68427516D01*
X168012022Y-69315188D01*
X168004408Y-69329132D01*
X167274356Y-69329132D01*
X167275592Y-69326868D01*
X167275461Y-69325035D01*
X167271210Y-69318420D01*
X166383350Y-68430560D01*
X166370970Y-68423800D01*
X166363320Y-68429527D01*
X166250107Y-68614272D01*
X166245625Y-68623067D01*
X166155566Y-68840490D01*
X166152517Y-68849875D01*
X166097578Y-69078708D01*
X166096035Y-69088455D01*
X166077570Y-69323070D01*
X166077570Y-69332930D01*
X162347474Y-69332930D01*
X162296198Y-69259700D01*
X162134300Y-69097802D01*
X162129792Y-69094645D01*
X162129789Y-69094643D01*
X162051611Y-69039902D01*
X161946749Y-68966477D01*
X161941767Y-68964154D01*
X161941762Y-68964151D01*
X161744225Y-68872039D01*
X161744224Y-68872039D01*
X161739243Y-68869716D01*
X161733935Y-68868294D01*
X161733933Y-68868293D01*
X161523402Y-68811881D01*
X161523400Y-68811881D01*
X161518087Y-68810457D01*
X161290000Y-68790502D01*
X161061913Y-68810457D01*
X161056600Y-68811881D01*
X161056598Y-68811881D01*
X160846067Y-68868293D01*
X160846065Y-68868294D01*
X160840757Y-68869716D01*
X160835776Y-68872039D01*
X160835775Y-68872039D01*
X160638238Y-68964151D01*
X160638233Y-68964154D01*
X160633251Y-68966477D01*
X160528389Y-69039902D01*
X160450211Y-69094643D01*
X160450208Y-69094645D01*
X160445700Y-69097802D01*
X160283802Y-69259700D01*
X160152477Y-69447251D01*
X160150154Y-69452233D01*
X160150151Y-69452238D01*
X160096383Y-69567545D01*
X160055716Y-69654757D01*
X160054294Y-69660065D01*
X160054293Y-69660067D01*
X159997881Y-69870598D01*
X159996457Y-69875913D01*
X159976502Y-70104000D01*
X154978500Y-70104000D01*
X154978500Y-69255866D01*
X154971745Y-69193684D01*
X154920615Y-69057295D01*
X154833261Y-68940739D01*
X154716705Y-68853385D01*
X154580316Y-68802255D01*
X154518134Y-68795500D01*
X152821866Y-68795500D01*
X152759684Y-68802255D01*
X152623295Y-68853385D01*
X152506739Y-68940739D01*
X152419385Y-69057295D01*
X152368255Y-69193684D01*
X152361500Y-69255866D01*
X152361500Y-70952134D01*
X149630116Y-70952134D01*
X149613918Y-70899482D01*
X149599716Y-70871965D01*
X149513454Y-70704836D01*
X149513454Y-70704835D01*
X149510882Y-70699853D01*
X149374123Y-70521625D01*
X149207964Y-70370432D01*
X149203217Y-70367454D01*
X149203214Y-70367452D01*
X149022405Y-70254032D01*
X149017656Y-70251053D01*
X148949622Y-70223703D01*
X148893880Y-70179739D01*
X148870755Y-70112614D01*
X148887592Y-70043643D01*
X148942376Y-69993072D01*
X149081903Y-69926520D01*
X149091516Y-69920835D01*
X149264767Y-69796342D01*
X149273233Y-69789034D01*
X149421692Y-69635835D01*
X149428735Y-69627138D01*
X149547719Y-69450073D01*
X149553105Y-69440275D01*
X149638857Y-69244927D01*
X149642422Y-69234335D01*
X149672624Y-69108533D01*
X149671919Y-69094447D01*
X149663040Y-69090917D01*
X146525589Y-69090917D01*
X146511607Y-69095022D01*
X146510114Y-69104645D01*
X146510166Y-69104890D01*
X146572898Y-69308800D01*
X146577119Y-69319146D01*
X146674971Y-69508731D01*
X146680957Y-69518162D01*
X146810832Y-69687418D01*
X146818393Y-69695641D01*
X146976194Y-69839229D01*
X146985094Y-69845984D01*
X147165815Y-69959351D01*
X147175781Y-69964428D01*
X147238358Y-69989584D01*
X147294103Y-70033550D01*
X147317228Y-70100675D01*
X147300391Y-70169646D01*
X147245607Y-70220217D01*
X147100782Y-70289295D01*
X146918346Y-70420388D01*
X146762008Y-70581716D01*
X146636710Y-70768179D01*
X146546412Y-70973884D01*
X146545103Y-70979335D01*
X146545102Y-70979339D01*
X146495278Y-71186871D01*
X146493968Y-71192328D01*
X146493645Y-71197933D01*
X146482109Y-71398022D01*
X146481037Y-71416607D01*
X121412000Y-71416607D01*
X121412000Y-69369030D01*
X135239800Y-69369030D01*
X135245527Y-69376680D01*
X135430272Y-69489893D01*
X135439067Y-69494375D01*
X135656490Y-69584434D01*
X135665875Y-69587483D01*
X135894708Y-69642422D01*
X135904455Y-69643965D01*
X136139070Y-69662430D01*
X136148930Y-69662430D01*
X136383545Y-69643965D01*
X136393292Y-69642422D01*
X136622125Y-69587483D01*
X136631510Y-69584434D01*
X136848933Y-69494375D01*
X136857728Y-69489893D01*
X137038805Y-69378928D01*
X137048267Y-69368470D01*
X137044484Y-69359694D01*
X136156812Y-68472022D01*
X136142868Y-68464408D01*
X136141035Y-68464539D01*
X136134420Y-68468790D01*
X135246560Y-69356650D01*
X135239800Y-69369030D01*
X121412000Y-69369030D01*
X121412000Y-68104930D01*
X134581570Y-68104930D01*
X134600035Y-68339545D01*
X134601578Y-68349292D01*
X134656517Y-68578125D01*
X134659566Y-68587510D01*
X134749625Y-68804933D01*
X134754107Y-68813728D01*
X134865072Y-68994805D01*
X134875530Y-69004267D01*
X134884306Y-69000484D01*
X135771978Y-68112812D01*
X135778356Y-68101132D01*
X136508408Y-68101132D01*
X136508539Y-68102965D01*
X136512790Y-68109580D01*
X137400650Y-68997440D01*
X137413030Y-69004200D01*
X137420680Y-68998473D01*
X137533893Y-68813728D01*
X137538375Y-68804933D01*
X137628434Y-68587510D01*
X137631483Y-68578125D01*
X137686422Y-68349292D01*
X137687965Y-68339545D01*
X137706430Y-68104930D01*
X137706430Y-68095070D01*
X137687965Y-67860455D01*
X137686422Y-67850708D01*
X137631483Y-67621875D01*
X137628434Y-67612490D01*
X137538375Y-67395067D01*
X137533893Y-67386272D01*
X137422928Y-67205195D01*
X137412470Y-67195733D01*
X137403694Y-67199516D01*
X136516022Y-68087188D01*
X136508408Y-68101132D01*
X135778356Y-68101132D01*
X135779592Y-68098868D01*
X135779461Y-68097035D01*
X135775210Y-68090420D01*
X134887350Y-67202560D01*
X134874970Y-67195800D01*
X134867320Y-67201527D01*
X134754107Y-67386272D01*
X134749625Y-67395067D01*
X134659566Y-67612490D01*
X134656517Y-67621875D01*
X134601578Y-67850708D01*
X134600035Y-67860455D01*
X134581570Y-68095070D01*
X134581570Y-68104930D01*
X121412000Y-68104930D01*
X121412000Y-66831530D01*
X135239733Y-66831530D01*
X135243516Y-66840306D01*
X136131188Y-67727978D01*
X136145132Y-67735592D01*
X136146965Y-67735461D01*
X136153580Y-67731210D01*
X137041440Y-66843350D01*
X137048200Y-66830970D01*
X137042473Y-66823320D01*
X136857728Y-66710107D01*
X136848933Y-66705625D01*
X136631510Y-66615566D01*
X136622125Y-66612517D01*
X136422728Y-66564645D01*
X146510114Y-66564645D01*
X146510166Y-66564890D01*
X146572898Y-66768800D01*
X146577119Y-66779146D01*
X146674971Y-66968731D01*
X146680957Y-66978162D01*
X146810832Y-67147418D01*
X146818393Y-67155641D01*
X146976194Y-67299229D01*
X146985094Y-67305984D01*
X147165815Y-67419351D01*
X147175781Y-67424428D01*
X147238987Y-67449837D01*
X147294732Y-67493803D01*
X147317857Y-67560928D01*
X147301020Y-67629900D01*
X147246236Y-67680470D01*
X147106097Y-67747314D01*
X147096484Y-67752999D01*
X146923233Y-67877492D01*
X146914767Y-67884800D01*
X146766308Y-68037999D01*
X146759265Y-68046696D01*
X146640281Y-68223761D01*
X146634895Y-68233559D01*
X146549143Y-68428907D01*
X146545578Y-68439499D01*
X146515376Y-68565301D01*
X146516081Y-68579387D01*
X146524960Y-68582917D01*
X147821885Y-68582917D01*
X147837124Y-68578442D01*
X147838329Y-68577052D01*
X147840000Y-68569369D01*
X147840000Y-67578917D01*
X147841202Y-67578917D01*
X147840345Y-67554917D01*
X148346798Y-67554917D01*
X148347655Y-67578917D01*
X148348000Y-67578917D01*
X148348000Y-67588583D01*
X148348119Y-67591915D01*
X148348000Y-67592462D01*
X148348000Y-68564802D01*
X148352475Y-68580041D01*
X148353865Y-68581246D01*
X148361548Y-68582917D01*
X149662411Y-68582917D01*
X149676393Y-68578812D01*
X149677886Y-68569189D01*
X149677834Y-68568944D01*
X149615102Y-68365034D01*
X149610881Y-68354688D01*
X149513029Y-68165103D01*
X149507043Y-68155672D01*
X149433270Y-68059530D01*
X166735733Y-68059530D01*
X166739516Y-68068306D01*
X167627188Y-68955978D01*
X167641132Y-68963592D01*
X167642965Y-68963461D01*
X167649580Y-68959210D01*
X168537440Y-68071350D01*
X168544200Y-68058970D01*
X168538473Y-68051320D01*
X168353728Y-67938107D01*
X168344933Y-67933625D01*
X168127510Y-67843566D01*
X168118125Y-67840517D01*
X167889292Y-67785578D01*
X167879545Y-67784035D01*
X167644930Y-67765570D01*
X167635070Y-67765570D01*
X167400455Y-67784035D01*
X167390708Y-67785578D01*
X167161875Y-67840517D01*
X167152490Y-67843566D01*
X166935067Y-67933625D01*
X166926272Y-67938107D01*
X166745195Y-68049072D01*
X166735733Y-68059530D01*
X149433270Y-68059530D01*
X149377168Y-67986416D01*
X149369607Y-67978193D01*
X149211806Y-67834605D01*
X149202906Y-67827850D01*
X149022185Y-67714483D01*
X149012219Y-67709406D01*
X148949013Y-67683997D01*
X148893268Y-67640031D01*
X148870143Y-67572906D01*
X148886980Y-67503934D01*
X148941764Y-67453364D01*
X149081903Y-67386520D01*
X149091516Y-67380835D01*
X149264767Y-67256342D01*
X149273233Y-67249034D01*
X149421692Y-67095835D01*
X149428735Y-67087138D01*
X149547719Y-66910073D01*
X149553105Y-66900275D01*
X149638857Y-66704927D01*
X149642422Y-66694335D01*
X149672624Y-66568533D01*
X149671919Y-66554447D01*
X149663040Y-66550917D01*
X148366115Y-66550917D01*
X148350876Y-66555392D01*
X148349671Y-66556782D01*
X148348000Y-66564465D01*
X148348000Y-67554917D01*
X148346798Y-67554917D01*
X147840345Y-67554917D01*
X147840000Y-67554917D01*
X147840000Y-67545251D01*
X147839881Y-67541919D01*
X147840000Y-67541372D01*
X147840000Y-66569032D01*
X147835525Y-66553793D01*
X147834135Y-66552588D01*
X147826452Y-66550917D01*
X146525589Y-66550917D01*
X146511607Y-66555022D01*
X146510114Y-66564645D01*
X136422728Y-66564645D01*
X136393292Y-66557578D01*
X136383545Y-66556035D01*
X136148930Y-66537570D01*
X136139070Y-66537570D01*
X135904455Y-66556035D01*
X135894708Y-66557578D01*
X135665875Y-66612517D01*
X135656490Y-66615566D01*
X135439067Y-66705625D01*
X135430272Y-66710107D01*
X135249195Y-66821072D01*
X135239733Y-66831530D01*
X121412000Y-66831530D01*
X121412000Y-66380134D01*
X152361500Y-66380134D01*
X152368255Y-66442316D01*
X152419385Y-66578705D01*
X152506739Y-66695261D01*
X152623295Y-66782615D01*
X152759684Y-66833745D01*
X152821866Y-66840500D01*
X154518134Y-66840500D01*
X154580316Y-66833745D01*
X154716705Y-66782615D01*
X154833261Y-66695261D01*
X154920615Y-66578705D01*
X154971745Y-66442316D01*
X154978500Y-66380134D01*
X154978500Y-65532000D01*
X159976502Y-65532000D01*
X159996457Y-65760087D01*
X159997881Y-65765400D01*
X159997881Y-65765402D01*
X160035963Y-65907523D01*
X160055716Y-65981243D01*
X160058039Y-65986224D01*
X160058039Y-65986225D01*
X160150151Y-66183762D01*
X160150154Y-66183767D01*
X160152477Y-66188749D01*
X160283802Y-66376300D01*
X160445700Y-66538198D01*
X160450208Y-66541355D01*
X160450211Y-66541357D01*
X160489735Y-66569032D01*
X160633251Y-66669523D01*
X160638233Y-66671846D01*
X160638238Y-66671849D01*
X160835775Y-66763961D01*
X160840757Y-66766284D01*
X160846065Y-66767706D01*
X160846067Y-66767707D01*
X161056598Y-66824119D01*
X161056600Y-66824119D01*
X161061913Y-66825543D01*
X161290000Y-66845498D01*
X161518087Y-66825543D01*
X161523400Y-66824119D01*
X161523402Y-66824119D01*
X161733933Y-66767707D01*
X161733935Y-66767706D01*
X161739243Y-66766284D01*
X161744225Y-66763961D01*
X161941762Y-66671849D01*
X161941767Y-66671846D01*
X161946749Y-66669523D01*
X162090265Y-66569032D01*
X162129789Y-66541357D01*
X162129792Y-66541355D01*
X162134300Y-66538198D01*
X162296198Y-66376300D01*
X162427523Y-66188749D01*
X162429846Y-66183767D01*
X162429849Y-66183762D01*
X162521961Y-65986225D01*
X162521961Y-65986224D01*
X162524284Y-65981243D01*
X162544038Y-65907523D01*
X162582119Y-65765402D01*
X162582119Y-65765400D01*
X162583543Y-65760087D01*
X162603498Y-65532000D01*
X162583543Y-65303913D01*
X162559433Y-65213933D01*
X162525707Y-65088067D01*
X162525706Y-65088065D01*
X162524284Y-65082757D01*
X162507856Y-65047526D01*
X162429849Y-64880238D01*
X162429846Y-64880233D01*
X162427523Y-64875251D01*
X162353825Y-64770000D01*
X163786502Y-64770000D01*
X163806457Y-64998087D01*
X163807881Y-65003400D01*
X163807881Y-65003402D01*
X163862520Y-65207314D01*
X163865716Y-65219243D01*
X163868039Y-65224224D01*
X163868039Y-65224225D01*
X163960151Y-65421762D01*
X163960154Y-65421767D01*
X163962477Y-65426749D01*
X164093802Y-65614300D01*
X164255700Y-65776198D01*
X164260208Y-65779355D01*
X164260211Y-65779357D01*
X164310669Y-65814688D01*
X164443251Y-65907523D01*
X164448233Y-65909846D01*
X164448238Y-65909849D01*
X164601345Y-65981243D01*
X164650757Y-66004284D01*
X164656065Y-66005706D01*
X164656067Y-66005707D01*
X164866598Y-66062119D01*
X164866600Y-66062119D01*
X164871913Y-66063543D01*
X165100000Y-66083498D01*
X165328087Y-66063543D01*
X165333400Y-66062119D01*
X165333402Y-66062119D01*
X165543933Y-66005707D01*
X165543935Y-66005706D01*
X165549243Y-66004284D01*
X165598655Y-65981243D01*
X165751762Y-65909849D01*
X165751767Y-65909846D01*
X165756749Y-65907523D01*
X165889331Y-65814688D01*
X165939789Y-65779357D01*
X165939792Y-65779355D01*
X165944300Y-65776198D01*
X166106198Y-65614300D01*
X166237523Y-65426749D01*
X166239846Y-65421767D01*
X166239849Y-65421762D01*
X166331961Y-65224225D01*
X166331961Y-65224224D01*
X166334284Y-65219243D01*
X166337481Y-65207314D01*
X166392119Y-65003402D01*
X166392119Y-65003400D01*
X166393543Y-64998087D01*
X166413498Y-64770000D01*
X166834502Y-64770000D01*
X166854457Y-64998087D01*
X166855881Y-65003400D01*
X166855881Y-65003402D01*
X166910520Y-65207314D01*
X166913716Y-65219243D01*
X166916039Y-65224224D01*
X166916039Y-65224225D01*
X167008151Y-65421762D01*
X167008154Y-65421767D01*
X167010477Y-65426749D01*
X167141802Y-65614300D01*
X167303700Y-65776198D01*
X167308208Y-65779355D01*
X167308211Y-65779357D01*
X167358669Y-65814688D01*
X167491251Y-65907523D01*
X167496233Y-65909846D01*
X167496238Y-65909849D01*
X167649345Y-65981243D01*
X167698757Y-66004284D01*
X167704065Y-66005706D01*
X167704067Y-66005707D01*
X167914598Y-66062119D01*
X167914600Y-66062119D01*
X167919913Y-66063543D01*
X168148000Y-66083498D01*
X168376087Y-66063543D01*
X168381400Y-66062119D01*
X168381402Y-66062119D01*
X168591933Y-66005707D01*
X168591935Y-66005706D01*
X168597243Y-66004284D01*
X168646655Y-65981243D01*
X168799762Y-65909849D01*
X168799767Y-65909846D01*
X168804749Y-65907523D01*
X168937331Y-65814688D01*
X168987789Y-65779357D01*
X168987792Y-65779355D01*
X168992300Y-65776198D01*
X169154198Y-65614300D01*
X169285523Y-65426749D01*
X169287846Y-65421767D01*
X169287849Y-65421762D01*
X169379961Y-65224225D01*
X169379961Y-65224224D01*
X169382284Y-65219243D01*
X169385481Y-65207314D01*
X169440119Y-65003402D01*
X169440119Y-65003400D01*
X169441543Y-64998087D01*
X169461498Y-64770000D01*
X169441543Y-64541913D01*
X169416385Y-64448022D01*
X169383707Y-64326067D01*
X169383706Y-64326065D01*
X169382284Y-64320757D01*
X169336933Y-64223500D01*
X169287849Y-64118238D01*
X169287846Y-64118233D01*
X169285523Y-64113251D01*
X169154198Y-63925700D01*
X168992300Y-63763802D01*
X168987792Y-63760645D01*
X168987789Y-63760643D01*
X168909611Y-63705902D01*
X168804749Y-63632477D01*
X168799767Y-63630154D01*
X168799762Y-63630151D01*
X168602225Y-63538039D01*
X168602224Y-63538039D01*
X168597243Y-63535716D01*
X168591935Y-63534294D01*
X168591933Y-63534293D01*
X168381402Y-63477881D01*
X168381400Y-63477881D01*
X168376087Y-63476457D01*
X168148000Y-63456502D01*
X167919913Y-63476457D01*
X167914600Y-63477881D01*
X167914598Y-63477881D01*
X167704067Y-63534293D01*
X167704065Y-63534294D01*
X167698757Y-63535716D01*
X167693776Y-63538039D01*
X167693775Y-63538039D01*
X167496238Y-63630151D01*
X167496233Y-63630154D01*
X167491251Y-63632477D01*
X167386389Y-63705902D01*
X167308211Y-63760643D01*
X167308208Y-63760645D01*
X167303700Y-63763802D01*
X167141802Y-63925700D01*
X167010477Y-64113251D01*
X167008154Y-64118233D01*
X167008151Y-64118238D01*
X166959067Y-64223500D01*
X166913716Y-64320757D01*
X166912294Y-64326065D01*
X166912293Y-64326067D01*
X166879615Y-64448022D01*
X166854457Y-64541913D01*
X166834502Y-64770000D01*
X166413498Y-64770000D01*
X166393543Y-64541913D01*
X166368385Y-64448022D01*
X166335707Y-64326067D01*
X166335706Y-64326065D01*
X166334284Y-64320757D01*
X166288933Y-64223500D01*
X166239849Y-64118238D01*
X166239846Y-64118233D01*
X166237523Y-64113251D01*
X166106198Y-63925700D01*
X165944300Y-63763802D01*
X165939792Y-63760645D01*
X165939789Y-63760643D01*
X165861611Y-63705902D01*
X165756749Y-63632477D01*
X165751767Y-63630154D01*
X165751762Y-63630151D01*
X165554225Y-63538039D01*
X165554224Y-63538039D01*
X165549243Y-63535716D01*
X165543935Y-63534294D01*
X165543933Y-63534293D01*
X165333402Y-63477881D01*
X165333400Y-63477881D01*
X165328087Y-63476457D01*
X165100000Y-63456502D01*
X164871913Y-63476457D01*
X164866600Y-63477881D01*
X164866598Y-63477881D01*
X164656067Y-63534293D01*
X164656065Y-63534294D01*
X164650757Y-63535716D01*
X164645776Y-63538039D01*
X164645775Y-63538039D01*
X164448238Y-63630151D01*
X164448233Y-63630154D01*
X164443251Y-63632477D01*
X164338389Y-63705902D01*
X164260211Y-63760643D01*
X164260208Y-63760645D01*
X164255700Y-63763802D01*
X164093802Y-63925700D01*
X163962477Y-64113251D01*
X163960154Y-64118233D01*
X163960151Y-64118238D01*
X163911067Y-64223500D01*
X163865716Y-64320757D01*
X163864294Y-64326065D01*
X163864293Y-64326067D01*
X163831615Y-64448022D01*
X163806457Y-64541913D01*
X163786502Y-64770000D01*
X162353825Y-64770000D01*
X162346563Y-64759629D01*
X162299357Y-64692211D01*
X162299355Y-64692208D01*
X162296198Y-64687700D01*
X162134300Y-64525802D01*
X162129792Y-64522645D01*
X162129789Y-64522643D01*
X162051611Y-64467902D01*
X161946749Y-64394477D01*
X161941767Y-64392154D01*
X161941762Y-64392151D01*
X161744225Y-64300039D01*
X161744224Y-64300039D01*
X161739243Y-64297716D01*
X161733935Y-64296294D01*
X161733933Y-64296293D01*
X161523402Y-64239881D01*
X161523400Y-64239881D01*
X161518087Y-64238457D01*
X161290000Y-64218502D01*
X161061913Y-64238457D01*
X161056600Y-64239881D01*
X161056598Y-64239881D01*
X160846067Y-64296293D01*
X160846065Y-64296294D01*
X160840757Y-64297716D01*
X160835776Y-64300039D01*
X160835775Y-64300039D01*
X160638238Y-64392151D01*
X160638233Y-64392154D01*
X160633251Y-64394477D01*
X160528389Y-64467902D01*
X160450211Y-64522643D01*
X160450208Y-64522645D01*
X160445700Y-64525802D01*
X160283802Y-64687700D01*
X160280645Y-64692208D01*
X160280643Y-64692211D01*
X160233437Y-64759629D01*
X160152477Y-64875251D01*
X160150154Y-64880233D01*
X160150151Y-64880238D01*
X160072144Y-65047526D01*
X160055716Y-65082757D01*
X160054294Y-65088065D01*
X160054293Y-65088067D01*
X160020567Y-65213933D01*
X159996457Y-65303913D01*
X159976502Y-65532000D01*
X154978500Y-65532000D01*
X154978500Y-64683866D01*
X154971745Y-64621684D01*
X154920615Y-64485295D01*
X154833261Y-64368739D01*
X154716705Y-64281385D01*
X154580316Y-64230255D01*
X154518134Y-64223500D01*
X152821866Y-64223500D01*
X152759684Y-64230255D01*
X152623295Y-64281385D01*
X152506739Y-64368739D01*
X152419385Y-64485295D01*
X152368255Y-64621684D01*
X152361500Y-64683866D01*
X152361500Y-66380134D01*
X121412000Y-66380134D01*
X121412000Y-64350400D01*
X134585500Y-64350400D01*
X134585837Y-64353646D01*
X134585837Y-64353650D01*
X134594634Y-64438429D01*
X134596474Y-64456165D01*
X134598655Y-64462701D01*
X134598655Y-64462703D01*
X134629830Y-64556146D01*
X134652450Y-64623945D01*
X134656306Y-64630176D01*
X134740593Y-64766382D01*
X134745522Y-64774348D01*
X134870697Y-64899305D01*
X134876927Y-64903145D01*
X134876928Y-64903146D01*
X135014090Y-64987694D01*
X135021262Y-64992115D01*
X135081606Y-65012130D01*
X135182611Y-65045632D01*
X135182613Y-65045632D01*
X135189139Y-65047797D01*
X135195975Y-65048497D01*
X135195978Y-65048498D01*
X135239031Y-65052909D01*
X135293600Y-65058500D01*
X136994400Y-65058500D01*
X136997646Y-65058163D01*
X136997650Y-65058163D01*
X137093307Y-65048238D01*
X137093311Y-65048237D01*
X137100165Y-65047526D01*
X137106701Y-65045345D01*
X137106703Y-65045345D01*
X137248351Y-64998087D01*
X137267945Y-64991550D01*
X137418348Y-64898478D01*
X137543305Y-64773303D01*
X137636115Y-64622738D01*
X137664686Y-64536598D01*
X137689632Y-64461389D01*
X137689632Y-64461387D01*
X137691797Y-64454861D01*
X137693937Y-64433981D01*
X137702172Y-64353598D01*
X137702500Y-64350400D01*
X137702500Y-63796607D01*
X146481037Y-63796607D01*
X146508025Y-64019632D01*
X146574082Y-64234352D01*
X146576652Y-64239332D01*
X146576654Y-64239336D01*
X146658358Y-64397634D01*
X146677118Y-64433981D01*
X146813877Y-64612209D01*
X146980036Y-64763402D01*
X146984783Y-64766380D01*
X146984786Y-64766382D01*
X147151154Y-64870743D01*
X147170344Y-64882781D01*
X147238378Y-64910131D01*
X147294120Y-64954095D01*
X147317245Y-65021220D01*
X147300408Y-65090191D01*
X147245624Y-65140762D01*
X147106097Y-65207314D01*
X147096484Y-65212999D01*
X146923233Y-65337492D01*
X146914767Y-65344800D01*
X146766308Y-65497999D01*
X146759265Y-65506696D01*
X146640281Y-65683761D01*
X146634895Y-65693559D01*
X146549143Y-65888907D01*
X146545578Y-65899499D01*
X146515376Y-66025301D01*
X146516081Y-66039387D01*
X146524960Y-66042917D01*
X149662411Y-66042917D01*
X149676393Y-66038812D01*
X149677886Y-66029189D01*
X149677834Y-66028944D01*
X149615102Y-65825034D01*
X149610881Y-65814688D01*
X149513029Y-65625103D01*
X149507043Y-65615672D01*
X149377168Y-65446416D01*
X149369607Y-65438193D01*
X149211806Y-65294605D01*
X149202906Y-65287850D01*
X149022185Y-65174483D01*
X149012219Y-65169406D01*
X148949642Y-65144250D01*
X148893897Y-65100284D01*
X148870772Y-65033159D01*
X148887609Y-64964188D01*
X148942393Y-64913617D01*
X148964346Y-64903146D01*
X149087218Y-64844539D01*
X149269654Y-64713446D01*
X149364107Y-64615978D01*
X149422089Y-64556146D01*
X149422091Y-64556143D01*
X149425992Y-64552118D01*
X149551290Y-64365655D01*
X149641588Y-64159950D01*
X149651603Y-64118238D01*
X149692722Y-63946963D01*
X149692722Y-63946962D01*
X149694032Y-63941506D01*
X149706963Y-63717227D01*
X149679975Y-63494202D01*
X149613918Y-63279482D01*
X149548798Y-63153313D01*
X149513454Y-63084836D01*
X149513454Y-63084835D01*
X149510882Y-63079853D01*
X149374123Y-62901625D01*
X149207964Y-62750432D01*
X149203217Y-62747454D01*
X149203214Y-62747452D01*
X149022405Y-62634032D01*
X149017656Y-62631053D01*
X148949622Y-62603703D01*
X148893880Y-62559739D01*
X148870755Y-62492614D01*
X148887592Y-62423643D01*
X148942376Y-62373072D01*
X149081903Y-62306520D01*
X149091516Y-62300835D01*
X149264767Y-62176342D01*
X149273233Y-62169034D01*
X149421692Y-62015835D01*
X149428735Y-62007138D01*
X149547719Y-61830073D01*
X149553105Y-61820275D01*
X149638857Y-61624927D01*
X149642422Y-61614335D01*
X149672624Y-61488533D01*
X149671919Y-61474447D01*
X149663040Y-61470917D01*
X146525589Y-61470917D01*
X146511607Y-61475022D01*
X146510114Y-61484645D01*
X146510166Y-61484890D01*
X146572898Y-61688800D01*
X146577119Y-61699146D01*
X146674971Y-61888731D01*
X146680957Y-61898162D01*
X146810832Y-62067418D01*
X146818393Y-62075641D01*
X146976194Y-62219229D01*
X146985094Y-62225984D01*
X147165815Y-62339351D01*
X147175781Y-62344428D01*
X147238358Y-62369584D01*
X147294103Y-62413550D01*
X147317228Y-62480675D01*
X147300391Y-62549646D01*
X147245607Y-62600217D01*
X147100782Y-62669295D01*
X146918346Y-62800388D01*
X146762008Y-62961716D01*
X146636710Y-63148179D01*
X146546412Y-63353884D01*
X146545103Y-63359335D01*
X146545102Y-63359339D01*
X146516643Y-63477881D01*
X146493968Y-63572328D01*
X146493645Y-63577933D01*
X146482704Y-63767699D01*
X146481037Y-63796607D01*
X137702500Y-63796607D01*
X137702500Y-62649600D01*
X137694509Y-62572580D01*
X137692238Y-62550693D01*
X137692237Y-62550689D01*
X137691526Y-62543835D01*
X137635550Y-62376055D01*
X137542478Y-62225652D01*
X137417303Y-62100695D01*
X137363318Y-62067418D01*
X137272968Y-62011725D01*
X137272966Y-62011724D01*
X137266738Y-62007885D01*
X137106254Y-61954655D01*
X137105389Y-61954368D01*
X137105387Y-61954368D01*
X137098861Y-61952203D01*
X137092025Y-61951503D01*
X137092022Y-61951502D01*
X137048969Y-61947091D01*
X136994400Y-61941500D01*
X135293600Y-61941500D01*
X135290354Y-61941837D01*
X135290350Y-61941837D01*
X135194693Y-61951762D01*
X135194689Y-61951763D01*
X135187835Y-61952474D01*
X135181299Y-61954655D01*
X135181297Y-61954655D01*
X135049195Y-61998728D01*
X135020055Y-62008450D01*
X134869652Y-62101522D01*
X134744695Y-62226697D01*
X134651885Y-62377262D01*
X134596203Y-62545139D01*
X134585500Y-62649600D01*
X134585500Y-64350400D01*
X121412000Y-64350400D01*
X121412000Y-58716607D01*
X146481037Y-58716607D01*
X146508025Y-58939632D01*
X146574082Y-59154352D01*
X146576652Y-59159332D01*
X146576654Y-59159336D01*
X146641852Y-59285655D01*
X146677118Y-59353981D01*
X146813877Y-59532209D01*
X146980036Y-59683402D01*
X146984783Y-59686380D01*
X146984786Y-59686382D01*
X147165595Y-59799802D01*
X147170344Y-59802781D01*
X147238378Y-59830131D01*
X147294120Y-59874095D01*
X147317245Y-59941220D01*
X147300408Y-60010191D01*
X147245624Y-60060762D01*
X147106097Y-60127314D01*
X147096484Y-60132999D01*
X146923233Y-60257492D01*
X146914767Y-60264800D01*
X146766308Y-60417999D01*
X146759265Y-60426696D01*
X146640281Y-60603761D01*
X146634895Y-60613559D01*
X146549143Y-60808907D01*
X146545578Y-60819499D01*
X146515376Y-60945301D01*
X146516081Y-60959387D01*
X146524960Y-60962917D01*
X149662411Y-60962917D01*
X149676393Y-60958812D01*
X149677886Y-60949189D01*
X149677834Y-60948944D01*
X149615102Y-60745034D01*
X149612911Y-60739663D01*
X152196500Y-60739663D01*
X152211235Y-60884727D01*
X152228889Y-60941061D01*
X152267556Y-61064451D01*
X152267558Y-61064456D01*
X152269465Y-61070541D01*
X152272558Y-61076120D01*
X152357531Y-61229414D01*
X152363870Y-61240850D01*
X152368019Y-61245691D01*
X152368022Y-61245695D01*
X152390660Y-61272107D01*
X152490591Y-61388698D01*
X152644453Y-61508046D01*
X152650176Y-61510862D01*
X152650179Y-61510864D01*
X152755126Y-61562504D01*
X152819171Y-61594018D01*
X152825349Y-61595627D01*
X152825351Y-61595628D01*
X153001425Y-61641492D01*
X153001428Y-61641492D01*
X153007607Y-61643102D01*
X153091597Y-61647504D01*
X153195683Y-61652959D01*
X153195687Y-61652959D01*
X153202064Y-61653293D01*
X153357413Y-61629799D01*
X153388285Y-61625130D01*
X153388286Y-61625130D01*
X153394599Y-61624175D01*
X153400585Y-61621972D01*
X153400591Y-61621971D01*
X153571360Y-61559140D01*
X153571365Y-61559138D01*
X153577346Y-61556937D01*
X153687670Y-61488533D01*
X153737418Y-61457688D01*
X153737419Y-61457687D01*
X153742840Y-61454326D01*
X153817362Y-61383855D01*
X153879685Y-61324919D01*
X153884322Y-61320534D01*
X153996011Y-61161025D01*
X154055310Y-61023992D01*
X154081851Y-60984939D01*
X154280809Y-60785981D01*
X154343121Y-60751955D01*
X154413936Y-60757020D01*
X154470772Y-60799567D01*
X154495583Y-60866087D01*
X154495214Y-60888242D01*
X154491771Y-60921000D01*
X154510635Y-61100475D01*
X154528404Y-61155162D01*
X154529471Y-61158446D01*
X154531498Y-61229414D01*
X154498733Y-61286477D01*
X154116500Y-61668710D01*
X154109740Y-61681090D01*
X154113251Y-61685780D01*
X154232372Y-61738816D01*
X154244860Y-61742873D01*
X154408364Y-61777628D01*
X154421424Y-61779000D01*
X154588576Y-61779000D01*
X154601636Y-61777628D01*
X154765137Y-61742874D01*
X154777629Y-61738815D01*
X154878135Y-61694067D01*
X154948502Y-61684633D01*
X154980633Y-61694067D01*
X155082217Y-61739295D01*
X155088248Y-61741980D01*
X155176508Y-61760740D01*
X155258311Y-61778128D01*
X155258315Y-61778128D01*
X155264768Y-61779500D01*
X155445232Y-61779500D01*
X155451685Y-61778128D01*
X155451689Y-61778128D01*
X155533492Y-61760740D01*
X155621752Y-61741980D01*
X155627783Y-61739295D01*
X155728751Y-61694341D01*
X155799118Y-61684907D01*
X155831249Y-61694341D01*
X155932217Y-61739295D01*
X155938248Y-61741980D01*
X156026508Y-61760740D01*
X156108311Y-61778128D01*
X156108315Y-61778128D01*
X156114768Y-61779500D01*
X156295232Y-61779500D01*
X156301685Y-61778128D01*
X156301689Y-61778128D01*
X156383492Y-61760740D01*
X156471752Y-61741980D01*
X156477783Y-61739295D01*
X156578751Y-61694341D01*
X156649118Y-61684907D01*
X156681249Y-61694341D01*
X156782217Y-61739295D01*
X156788248Y-61741980D01*
X156876508Y-61760740D01*
X156958311Y-61778128D01*
X156958315Y-61778128D01*
X156964768Y-61779500D01*
X157145232Y-61779500D01*
X157151685Y-61778128D01*
X157151689Y-61778128D01*
X157233492Y-61760740D01*
X157321752Y-61741980D01*
X157327783Y-61739295D01*
X157428751Y-61694341D01*
X157499118Y-61684907D01*
X157531249Y-61694341D01*
X157632217Y-61739295D01*
X157638248Y-61741980D01*
X157726508Y-61760740D01*
X157808311Y-61778128D01*
X157808315Y-61778128D01*
X157814768Y-61779500D01*
X157995232Y-61779500D01*
X158001685Y-61778128D01*
X158001689Y-61778128D01*
X158083492Y-61760740D01*
X158171752Y-61741980D01*
X158177783Y-61739295D01*
X158278751Y-61694341D01*
X158349118Y-61684907D01*
X158381249Y-61694341D01*
X158482217Y-61739295D01*
X158488248Y-61741980D01*
X158576508Y-61760740D01*
X158658311Y-61778128D01*
X158658315Y-61778128D01*
X158664768Y-61779500D01*
X158845232Y-61779500D01*
X158851685Y-61778128D01*
X158851689Y-61778128D01*
X158933492Y-61760740D01*
X159021752Y-61741980D01*
X159027783Y-61739295D01*
X159128751Y-61694341D01*
X159199118Y-61684907D01*
X159231249Y-61694341D01*
X159332217Y-61739295D01*
X159338248Y-61741980D01*
X159426508Y-61760740D01*
X159508311Y-61778128D01*
X159508315Y-61778128D01*
X159514768Y-61779500D01*
X159695232Y-61779500D01*
X159701685Y-61778128D01*
X159701689Y-61778128D01*
X159783492Y-61760740D01*
X159871752Y-61741980D01*
X159877783Y-61739295D01*
X159979367Y-61694067D01*
X160049734Y-61684633D01*
X160081865Y-61694067D01*
X160182371Y-61738815D01*
X160194863Y-61742874D01*
X160358364Y-61777628D01*
X160371424Y-61779000D01*
X160538576Y-61779000D01*
X160551636Y-61777628D01*
X160715140Y-61742873D01*
X160727628Y-61738816D01*
X160839763Y-61688890D01*
X160850507Y-61679758D01*
X160848910Y-61674120D01*
X160461267Y-61286477D01*
X160427241Y-61224165D01*
X160430529Y-61158446D01*
X160431596Y-61155162D01*
X160449365Y-61100475D01*
X160468229Y-60921000D01*
X160464786Y-60888247D01*
X160477557Y-60818410D01*
X160526058Y-60766563D01*
X160594891Y-60749167D01*
X160662201Y-60771747D01*
X160679191Y-60785981D01*
X160877367Y-60984157D01*
X160908506Y-61035573D01*
X160917555Y-61064449D01*
X160917558Y-61064457D01*
X160919465Y-61070541D01*
X160922555Y-61076115D01*
X160922556Y-61076118D01*
X161007531Y-61229414D01*
X161013870Y-61240850D01*
X161018019Y-61245691D01*
X161018022Y-61245695D01*
X161040660Y-61272107D01*
X161140591Y-61388698D01*
X161294453Y-61508046D01*
X161300176Y-61510862D01*
X161300179Y-61510864D01*
X161405126Y-61562504D01*
X161469171Y-61594018D01*
X161475349Y-61595627D01*
X161475351Y-61595628D01*
X161651425Y-61641492D01*
X161651428Y-61641492D01*
X161657607Y-61643102D01*
X161741597Y-61647504D01*
X161845683Y-61652959D01*
X161845687Y-61652959D01*
X161852064Y-61653293D01*
X162007413Y-61629799D01*
X162038285Y-61625130D01*
X162038286Y-61625130D01*
X162044599Y-61624175D01*
X162050585Y-61621972D01*
X162050591Y-61621971D01*
X162221360Y-61559140D01*
X162221365Y-61559138D01*
X162227346Y-61556937D01*
X162337670Y-61488533D01*
X162387418Y-61457688D01*
X162387419Y-61457687D01*
X162392840Y-61454326D01*
X162467362Y-61383855D01*
X162529685Y-61324919D01*
X162534322Y-61320534D01*
X162646011Y-61161025D01*
X162682753Y-61076120D01*
X162720810Y-60988175D01*
X162720811Y-60988171D01*
X162723345Y-60982316D01*
X162728135Y-60959387D01*
X162762176Y-60796443D01*
X162762177Y-60796438D01*
X162763165Y-60791707D01*
X162763500Y-60785315D01*
X162763500Y-59142337D01*
X162748765Y-58997273D01*
X162727525Y-58929496D01*
X162692444Y-58817549D01*
X162692442Y-58817544D01*
X162690535Y-58811459D01*
X162635958Y-58713000D01*
X162599223Y-58646729D01*
X162599221Y-58646726D01*
X162596130Y-58641150D01*
X162591981Y-58636309D01*
X162591978Y-58636305D01*
X162473560Y-58498145D01*
X162469409Y-58493302D01*
X162461119Y-58486871D01*
X162360522Y-58408840D01*
X162315547Y-58373954D01*
X162309824Y-58371138D01*
X162309821Y-58371136D01*
X162146556Y-58290800D01*
X162140829Y-58287982D01*
X162134651Y-58286373D01*
X162134649Y-58286372D01*
X161958575Y-58240508D01*
X161958572Y-58240508D01*
X161952393Y-58238898D01*
X161868403Y-58234496D01*
X161764317Y-58229041D01*
X161764313Y-58229041D01*
X161757936Y-58228707D01*
X161602587Y-58252201D01*
X161571715Y-58256870D01*
X161571714Y-58256870D01*
X161565401Y-58257825D01*
X161559415Y-58260028D01*
X161559409Y-58260029D01*
X161388640Y-58322860D01*
X161388635Y-58322862D01*
X161382654Y-58325063D01*
X161377232Y-58328425D01*
X161232816Y-58417967D01*
X161217160Y-58427674D01*
X161212527Y-58432055D01*
X161212526Y-58432056D01*
X161080315Y-58557081D01*
X161075678Y-58561466D01*
X161072016Y-58566696D01*
X161072015Y-58566697D01*
X160968612Y-58714372D01*
X160963989Y-58720975D01*
X160961455Y-58726830D01*
X160959199Y-58730867D01*
X160908504Y-58780571D01*
X160838984Y-58794977D01*
X160797964Y-58784500D01*
X160727629Y-58753185D01*
X160715137Y-58749126D01*
X160551636Y-58714372D01*
X160538576Y-58713000D01*
X160371424Y-58713000D01*
X160358364Y-58714372D01*
X160194863Y-58749126D01*
X160182371Y-58753185D01*
X160081865Y-58797933D01*
X160011498Y-58807367D01*
X159979367Y-58797933D01*
X159877783Y-58752705D01*
X159877781Y-58752705D01*
X159871752Y-58750020D01*
X159762688Y-58726838D01*
X159701689Y-58713872D01*
X159701685Y-58713872D01*
X159695232Y-58712500D01*
X159514768Y-58712500D01*
X159508315Y-58713872D01*
X159508311Y-58713872D01*
X159447312Y-58726838D01*
X159338248Y-58750020D01*
X159332219Y-58752704D01*
X159332217Y-58752705D01*
X159231249Y-58797659D01*
X159160882Y-58807093D01*
X159128751Y-58797659D01*
X159027783Y-58752705D01*
X159027781Y-58752704D01*
X159021752Y-58750020D01*
X158912688Y-58726838D01*
X158851689Y-58713872D01*
X158851685Y-58713872D01*
X158845232Y-58712500D01*
X158664768Y-58712500D01*
X158658315Y-58713872D01*
X158658311Y-58713872D01*
X158597312Y-58726838D01*
X158488248Y-58750020D01*
X158482219Y-58752704D01*
X158482217Y-58752705D01*
X158381249Y-58797659D01*
X158310882Y-58807093D01*
X158278751Y-58797659D01*
X158177783Y-58752705D01*
X158177781Y-58752704D01*
X158171752Y-58750020D01*
X158062688Y-58726838D01*
X158001689Y-58713872D01*
X158001685Y-58713872D01*
X157995232Y-58712500D01*
X157814768Y-58712500D01*
X157808315Y-58713872D01*
X157808311Y-58713872D01*
X157747312Y-58726838D01*
X157638248Y-58750020D01*
X157632219Y-58752704D01*
X157632217Y-58752705D01*
X157531249Y-58797659D01*
X157460882Y-58807093D01*
X157428751Y-58797659D01*
X157327783Y-58752705D01*
X157327781Y-58752704D01*
X157321752Y-58750020D01*
X157212688Y-58726838D01*
X157151689Y-58713872D01*
X157151685Y-58713872D01*
X157145232Y-58712500D01*
X156964768Y-58712500D01*
X156958315Y-58713872D01*
X156958311Y-58713872D01*
X156897312Y-58726838D01*
X156788248Y-58750020D01*
X156782219Y-58752704D01*
X156782217Y-58752705D01*
X156681249Y-58797659D01*
X156610882Y-58807093D01*
X156578751Y-58797659D01*
X156477783Y-58752705D01*
X156477781Y-58752704D01*
X156471752Y-58750020D01*
X156362688Y-58726838D01*
X156301689Y-58713872D01*
X156301685Y-58713872D01*
X156295232Y-58712500D01*
X156114768Y-58712500D01*
X156108315Y-58713872D01*
X156108311Y-58713872D01*
X156047312Y-58726838D01*
X155938248Y-58750020D01*
X155932219Y-58752704D01*
X155932217Y-58752705D01*
X155831249Y-58797659D01*
X155760882Y-58807093D01*
X155728751Y-58797659D01*
X155627783Y-58752705D01*
X155627781Y-58752704D01*
X155621752Y-58750020D01*
X155512688Y-58726838D01*
X155451689Y-58713872D01*
X155451685Y-58713872D01*
X155445232Y-58712500D01*
X155264768Y-58712500D01*
X155258315Y-58713872D01*
X155258311Y-58713872D01*
X155197312Y-58726838D01*
X155088248Y-58750020D01*
X154980634Y-58797933D01*
X154910270Y-58807368D01*
X154878138Y-58797934D01*
X154777628Y-58753184D01*
X154765140Y-58749127D01*
X154601636Y-58714372D01*
X154588576Y-58713000D01*
X154421424Y-58713000D01*
X154408364Y-58714372D01*
X154244863Y-58749126D01*
X154232367Y-58753186D01*
X154158074Y-58786263D01*
X154087707Y-58795697D01*
X154023410Y-58765590D01*
X153996624Y-58732242D01*
X153949225Y-58646733D01*
X153949224Y-58646731D01*
X153946130Y-58641150D01*
X153941981Y-58636309D01*
X153941978Y-58636305D01*
X153823560Y-58498145D01*
X153819409Y-58493302D01*
X153811119Y-58486871D01*
X153710522Y-58408840D01*
X153665547Y-58373954D01*
X153659824Y-58371138D01*
X153659821Y-58371136D01*
X153496556Y-58290800D01*
X153490829Y-58287982D01*
X153484651Y-58286373D01*
X153484649Y-58286372D01*
X153308575Y-58240508D01*
X153308572Y-58240508D01*
X153302393Y-58238898D01*
X153218403Y-58234496D01*
X153114317Y-58229041D01*
X153114313Y-58229041D01*
X153107936Y-58228707D01*
X152952587Y-58252201D01*
X152921715Y-58256870D01*
X152921714Y-58256870D01*
X152915401Y-58257825D01*
X152909415Y-58260028D01*
X152909409Y-58260029D01*
X152738640Y-58322860D01*
X152738635Y-58322862D01*
X152732654Y-58325063D01*
X152727232Y-58328425D01*
X152582816Y-58417967D01*
X152567160Y-58427674D01*
X152562527Y-58432055D01*
X152562526Y-58432056D01*
X152430315Y-58557081D01*
X152425678Y-58561466D01*
X152422016Y-58566696D01*
X152422015Y-58566697D01*
X152373275Y-58636305D01*
X152313989Y-58720975D01*
X152311452Y-58726838D01*
X152250815Y-58866963D01*
X152236655Y-58899684D01*
X152235350Y-58905931D01*
X152235349Y-58905934D01*
X152197923Y-59085087D01*
X152196835Y-59090293D01*
X152196500Y-59096685D01*
X152196500Y-60739663D01*
X149612911Y-60739663D01*
X149610881Y-60734688D01*
X149513029Y-60545103D01*
X149507043Y-60535672D01*
X149377168Y-60366416D01*
X149369607Y-60358193D01*
X149211806Y-60214605D01*
X149202906Y-60207850D01*
X149022185Y-60094483D01*
X149012219Y-60089406D01*
X148949642Y-60064250D01*
X148893897Y-60020284D01*
X148870772Y-59953159D01*
X148887609Y-59884188D01*
X148942393Y-59833617D01*
X149002664Y-59804869D01*
X149087218Y-59764539D01*
X149269654Y-59633446D01*
X149425992Y-59472118D01*
X149551290Y-59285655D01*
X149641588Y-59079950D01*
X149662900Y-58991182D01*
X149692722Y-58866963D01*
X149692722Y-58866962D01*
X149694032Y-58861506D01*
X149701564Y-58730867D01*
X149706640Y-58642834D01*
X149706640Y-58642831D01*
X149706963Y-58637227D01*
X149679975Y-58414202D01*
X149613918Y-58199482D01*
X149593010Y-58158972D01*
X149513454Y-58004836D01*
X149513454Y-58004835D01*
X149510882Y-57999853D01*
X149374123Y-57821625D01*
X149207964Y-57670432D01*
X149203217Y-57667454D01*
X149203214Y-57667452D01*
X149022405Y-57554032D01*
X149017656Y-57551053D01*
X148809217Y-57467261D01*
X148589233Y-57421704D01*
X148584622Y-57421438D01*
X148584621Y-57421438D01*
X148534048Y-57418522D01*
X148534044Y-57418522D01*
X148532225Y-57418417D01*
X147687001Y-57418417D01*
X147684214Y-57418666D01*
X147684208Y-57418666D01*
X147614071Y-57424926D01*
X147520238Y-57433300D01*
X147514824Y-57434781D01*
X147514819Y-57434782D01*
X147400262Y-57466122D01*
X147303549Y-57492580D01*
X147298491Y-57494992D01*
X147298487Y-57494994D01*
X147265245Y-57510850D01*
X147100782Y-57589295D01*
X146918346Y-57720388D01*
X146914439Y-57724420D01*
X146779159Y-57864018D01*
X146762008Y-57881716D01*
X146636710Y-58068179D01*
X146546412Y-58273884D01*
X146545103Y-58279335D01*
X146545102Y-58279339D01*
X146511387Y-58419774D01*
X146493968Y-58492328D01*
X146493645Y-58497933D01*
X146485388Y-58641150D01*
X146481037Y-58716607D01*
X121412000Y-58716607D01*
X121412000Y-55498000D01*
X121432002Y-55429879D01*
X121485658Y-55383386D01*
X121538000Y-55372000D01*
X152295294Y-55372000D01*
X152363415Y-55392002D01*
G37*
%TD.AperFunction*%
%TD*%
M02*
