M48
INCH,TZ
T1C0.0157
T2C0.0236
T3C0.0315
T4C0.0402
T5C0.0433
T6C0.0433
T7C0.0472
%
G90
G05
T1
X60829Y-23453
X60829Y-23985
X61163Y-23453
X61163Y-23985
X61498Y-23453
X61498Y-23985
X61833Y-23453
X61833Y-23985
X62167Y-23453
X62167Y-23985
X62502Y-23453
X62502Y-23985
X62837Y-23453
X62837Y-23985
X63171Y-23453
X63171Y-23985
T3
X60500Y-25800
X60500Y-27600
X63500Y-25800
X63500Y-27600
X65000Y-22500
X65000Y-25500
X66200Y-22500
X66200Y-25500
T4
X48844Y-30300
X48844Y-36664
X49844Y-30300
X49844Y-36664
X50844Y-30300
X50844Y-36664
X51844Y-30300
X51844Y-36664
X52844Y-30300
X52844Y-36664
X53844Y-30300
X53844Y-36664
X54844Y-30300
X54844Y-36664
X58305Y-23101
X58305Y-24101
X58305Y-25101
X58305Y-26101
X58305Y-27101
X58305Y-28101
T5
X64800Y-36200
T6
X53600Y-25000
X53600Y-26811
X66000Y-27294
X66000Y-29106
X66000Y-31200
X66000Y-33011
X66000Y-37110
X66000Y-39000
X66000Y-40890
X66000Y-42780
T7
X49831Y-43896
X49831Y-51496
X51800Y-44723
X51800Y-52323
X57831Y-43896
X57831Y-51496
X59800Y-44723
X59800Y-52323
T2
G00X60297Y-22426
M15
G01X60297Y-22111
M16
G05
G00X60297Y-23894
M15
G01X60297Y-23304
M16
G05
G00X63703Y-22426
M15
G01X63703Y-22111
M16
G05
G00X63703Y-23894
M15
G01X63703Y-23304
M16
G05
T0
M30
