%TF.GenerationSoftware,KiCad,Pcbnew,(6.0.1)*%
%TF.CreationDate,2022-02-25T19:27:25-05:00*%
%TF.ProjectId,InductorSchem,496e6475-6374-46f7-9253-6368656d2e6b,1*%
%TF.SameCoordinates,Original*%
%TF.FileFunction,Legend,Top*%
%TF.FilePolarity,Positive*%
%FSLAX46Y46*%
G04 Gerber Fmt 4.6, Leading zero omitted, Abs format (unit mm)*
G04 Created by KiCad (PCBNEW (6.0.1)) date 2022-02-25 19:27:25*
%MOMM*%
%LPD*%
G01*
G04 APERTURE LIST*
%ADD10C,0.150000*%
%ADD11C,0.101600*%
%ADD12C,0.076200*%
%ADD13C,0.120000*%
%ADD14C,0.066040*%
%ADD15C,0.127000*%
%ADD16C,0.254000*%
G04 APERTURE END LIST*
D10*
%TO.C,U3*%
X139446095Y-99528380D02*
X139446095Y-100337904D01*
X139493714Y-100433142D01*
X139541333Y-100480761D01*
X139636571Y-100528380D01*
X139827047Y-100528380D01*
X139922285Y-100480761D01*
X139969904Y-100433142D01*
X140017523Y-100337904D01*
X140017523Y-99528380D01*
X140398476Y-99528380D02*
X141017523Y-99528380D01*
X140684190Y-99909333D01*
X140827047Y-99909333D01*
X140922285Y-99956952D01*
X140969904Y-100004571D01*
X141017523Y-100099809D01*
X141017523Y-100337904D01*
X140969904Y-100433142D01*
X140922285Y-100480761D01*
X140827047Y-100528380D01*
X140541333Y-100528380D01*
X140446095Y-100480761D01*
X140398476Y-100433142D01*
X142812285Y-100528380D02*
X142812285Y-99528380D01*
X143145619Y-100242666D01*
X143478952Y-99528380D01*
X143478952Y-100528380D01*
X144526571Y-100433142D02*
X144478952Y-100480761D01*
X144336095Y-100528380D01*
X144240857Y-100528380D01*
X144098000Y-100480761D01*
X144002761Y-100385523D01*
X143955142Y-100290285D01*
X143907523Y-100099809D01*
X143907523Y-99956952D01*
X143955142Y-99766476D01*
X144002761Y-99671238D01*
X144098000Y-99576000D01*
X144240857Y-99528380D01*
X144336095Y-99528380D01*
X144478952Y-99576000D01*
X144526571Y-99623619D01*
X144955142Y-100528380D02*
X144955142Y-99528380D01*
X145336095Y-99528380D01*
X145431333Y-99576000D01*
X145478952Y-99623619D01*
X145526571Y-99718857D01*
X145526571Y-99861714D01*
X145478952Y-99956952D01*
X145431333Y-100004571D01*
X145336095Y-100052190D01*
X144955142Y-100052190D01*
X145907523Y-99623619D02*
X145955142Y-99576000D01*
X146050380Y-99528380D01*
X146288476Y-99528380D01*
X146383714Y-99576000D01*
X146431333Y-99623619D01*
X146478952Y-99718857D01*
X146478952Y-99814095D01*
X146431333Y-99956952D01*
X145859904Y-100528380D01*
X146478952Y-100528380D01*
X146812285Y-99528380D02*
X147431333Y-99528380D01*
X147098000Y-99909333D01*
X147240857Y-99909333D01*
X147336095Y-99956952D01*
X147383714Y-100004571D01*
X147431333Y-100099809D01*
X147431333Y-100337904D01*
X147383714Y-100433142D01*
X147336095Y-100480761D01*
X147240857Y-100528380D01*
X146955142Y-100528380D01*
X146859904Y-100480761D01*
X146812285Y-100433142D01*
X148050380Y-99528380D02*
X148145619Y-99528380D01*
X148240857Y-99576000D01*
X148288476Y-99623619D01*
X148336095Y-99718857D01*
X148383714Y-99909333D01*
X148383714Y-100147428D01*
X148336095Y-100337904D01*
X148288476Y-100433142D01*
X148240857Y-100480761D01*
X148145619Y-100528380D01*
X148050380Y-100528380D01*
X147955142Y-100480761D01*
X147907523Y-100433142D01*
X147859904Y-100337904D01*
X147812285Y-100147428D01*
X147812285Y-99909333D01*
X147859904Y-99718857D01*
X147907523Y-99623619D01*
X147955142Y-99576000D01*
X148050380Y-99528380D01*
X149336095Y-100528380D02*
X148764666Y-100528380D01*
X149050380Y-100528380D02*
X149050380Y-99528380D01*
X148955142Y-99671238D01*
X148859904Y-99766476D01*
X148764666Y-99814095D01*
X149907523Y-99956952D02*
X149812285Y-99909333D01*
X149764666Y-99861714D01*
X149717047Y-99766476D01*
X149717047Y-99718857D01*
X149764666Y-99623619D01*
X149812285Y-99576000D01*
X149907523Y-99528380D01*
X150098000Y-99528380D01*
X150193238Y-99576000D01*
X150240857Y-99623619D01*
X150288476Y-99718857D01*
X150288476Y-99766476D01*
X150240857Y-99861714D01*
X150193238Y-99909333D01*
X150098000Y-99956952D01*
X149907523Y-99956952D01*
X149812285Y-100004571D01*
X149764666Y-100052190D01*
X149717047Y-100147428D01*
X149717047Y-100337904D01*
X149764666Y-100433142D01*
X149812285Y-100480761D01*
X149907523Y-100528380D01*
X150098000Y-100528380D01*
X150193238Y-100480761D01*
X150240857Y-100433142D01*
X150288476Y-100337904D01*
X150288476Y-100147428D01*
X150240857Y-100052190D01*
X150193238Y-100004571D01*
X150098000Y-99956952D01*
X150717047Y-100147428D02*
X151478952Y-100147428D01*
X151955142Y-100004571D02*
X152288476Y-100004571D01*
X152431333Y-100528380D02*
X151955142Y-100528380D01*
X151955142Y-99528380D01*
X152431333Y-99528380D01*
X153574190Y-99480761D02*
X152717047Y-100766476D01*
X153859904Y-100480761D02*
X154002761Y-100528380D01*
X154240857Y-100528380D01*
X154336095Y-100480761D01*
X154383714Y-100433142D01*
X154431333Y-100337904D01*
X154431333Y-100242666D01*
X154383714Y-100147428D01*
X154336095Y-100099809D01*
X154240857Y-100052190D01*
X154050380Y-100004571D01*
X153955142Y-99956952D01*
X153907523Y-99909333D01*
X153859904Y-99814095D01*
X153859904Y-99718857D01*
X153907523Y-99623619D01*
X153955142Y-99576000D01*
X154050380Y-99528380D01*
X154288476Y-99528380D01*
X154431333Y-99576000D01*
X154859904Y-100528380D02*
X154859904Y-99528380D01*
X155240857Y-99528380D01*
X155336095Y-99576000D01*
X155383714Y-99623619D01*
X155431333Y-99718857D01*
X155431333Y-99861714D01*
X155383714Y-99956952D01*
X155336095Y-100004571D01*
X155240857Y-100052190D01*
X154859904Y-100052190D01*
X157681680Y-96266000D02*
X157919776Y-96266000D01*
X157824538Y-96504095D02*
X157919776Y-96266000D01*
X157824538Y-96027904D01*
X158110252Y-96408857D02*
X157919776Y-96266000D01*
X158110252Y-96123142D01*
X157681680Y-96266000D02*
X157919776Y-96266000D01*
X157824538Y-96504095D02*
X157919776Y-96266000D01*
X157824538Y-96027904D01*
X158110252Y-96408857D02*
X157919776Y-96266000D01*
X158110252Y-96123142D01*
%TO.C,J1*%
X157146666Y-56348380D02*
X157146666Y-57062666D01*
X157099047Y-57205523D01*
X157003809Y-57300761D01*
X156860952Y-57348380D01*
X156765714Y-57348380D01*
X158146666Y-57348380D02*
X157575238Y-57348380D01*
X157860952Y-57348380D02*
X157860952Y-56348380D01*
X157765714Y-56491238D01*
X157670476Y-56586476D01*
X157575238Y-56634095D01*
%TO.C,D1*%
X152852380Y-67794095D02*
X151852380Y-67794095D01*
X151852380Y-67556000D01*
X151900000Y-67413142D01*
X151995238Y-67317904D01*
X152090476Y-67270285D01*
X152280952Y-67222666D01*
X152423809Y-67222666D01*
X152614285Y-67270285D01*
X152709523Y-67317904D01*
X152804761Y-67413142D01*
X152852380Y-67556000D01*
X152852380Y-67794095D01*
X152852380Y-66270285D02*
X152852380Y-66841714D01*
X152852380Y-66556000D02*
X151852380Y-66556000D01*
X151995238Y-66651238D01*
X152090476Y-66746476D01*
X152138095Y-66841714D01*
%TO.C,J3*%
X129206666Y-60412380D02*
X129206666Y-61126666D01*
X129159047Y-61269523D01*
X129063809Y-61364761D01*
X128920952Y-61412380D01*
X128825714Y-61412380D01*
X129587619Y-60412380D02*
X130206666Y-60412380D01*
X129873333Y-60793333D01*
X130016190Y-60793333D01*
X130111428Y-60840952D01*
X130159047Y-60888571D01*
X130206666Y-60983809D01*
X130206666Y-61221904D01*
X130159047Y-61317142D01*
X130111428Y-61364761D01*
X130016190Y-61412380D01*
X129730476Y-61412380D01*
X129635238Y-61364761D01*
X129587619Y-61317142D01*
%TO.C,R2*%
X160472380Y-79414666D02*
X159996190Y-79748000D01*
X160472380Y-79986095D02*
X159472380Y-79986095D01*
X159472380Y-79605142D01*
X159520000Y-79509904D01*
X159567619Y-79462285D01*
X159662857Y-79414666D01*
X159805714Y-79414666D01*
X159900952Y-79462285D01*
X159948571Y-79509904D01*
X159996190Y-79605142D01*
X159996190Y-79986095D01*
X159567619Y-79033714D02*
X159520000Y-78986095D01*
X159472380Y-78890857D01*
X159472380Y-78652761D01*
X159520000Y-78557523D01*
X159567619Y-78509904D01*
X159662857Y-78462285D01*
X159758095Y-78462285D01*
X159900952Y-78509904D01*
X160472380Y-79081333D01*
X160472380Y-78462285D01*
D11*
%TO.C,U1*%
X119914976Y-83777243D02*
X120634643Y-83777243D01*
X120719310Y-83734910D01*
X120761643Y-83692576D01*
X120803976Y-83607910D01*
X120803976Y-83438576D01*
X120761643Y-83353910D01*
X120719310Y-83311576D01*
X120634643Y-83269243D01*
X119914976Y-83269243D01*
X120803976Y-82380243D02*
X120803976Y-82888243D01*
X120803976Y-82634243D02*
X119914976Y-82634243D01*
X120041976Y-82718910D01*
X120126643Y-82803576D01*
X120168976Y-82888243D01*
D12*
X131634052Y-86766581D02*
X131663081Y-86679495D01*
X131663081Y-86534352D01*
X131634052Y-86476295D01*
X131605024Y-86447267D01*
X131546967Y-86418238D01*
X131488910Y-86418238D01*
X131430852Y-86447267D01*
X131401824Y-86476295D01*
X131372795Y-86534352D01*
X131343767Y-86650467D01*
X131314738Y-86708524D01*
X131285710Y-86737552D01*
X131227652Y-86766581D01*
X131169595Y-86766581D01*
X131111538Y-86737552D01*
X131082510Y-86708524D01*
X131053481Y-86650467D01*
X131053481Y-86505324D01*
X131082510Y-86418238D01*
X131634052Y-85924752D02*
X131663081Y-85982810D01*
X131663081Y-86098924D01*
X131634052Y-86156981D01*
X131575995Y-86186010D01*
X131343767Y-86186010D01*
X131285710Y-86156981D01*
X131256681Y-86098924D01*
X131256681Y-85982810D01*
X131285710Y-85924752D01*
X131343767Y-85895724D01*
X131401824Y-85895724D01*
X131459881Y-86186010D01*
X131634052Y-85402238D02*
X131663081Y-85460295D01*
X131663081Y-85576410D01*
X131634052Y-85634467D01*
X131575995Y-85663495D01*
X131343767Y-85663495D01*
X131285710Y-85634467D01*
X131256681Y-85576410D01*
X131256681Y-85460295D01*
X131285710Y-85402238D01*
X131343767Y-85373210D01*
X131401824Y-85373210D01*
X131459881Y-85663495D01*
X131634052Y-84879724D02*
X131663081Y-84937781D01*
X131663081Y-85053895D01*
X131634052Y-85111952D01*
X131575995Y-85140981D01*
X131343767Y-85140981D01*
X131285710Y-85111952D01*
X131256681Y-85053895D01*
X131256681Y-84937781D01*
X131285710Y-84879724D01*
X131343767Y-84850695D01*
X131401824Y-84850695D01*
X131459881Y-85140981D01*
X131663081Y-84328181D02*
X131053481Y-84328181D01*
X131634052Y-84328181D02*
X131663081Y-84386238D01*
X131663081Y-84502352D01*
X131634052Y-84560410D01*
X131605024Y-84589438D01*
X131546967Y-84618467D01*
X131372795Y-84618467D01*
X131314738Y-84589438D01*
X131285710Y-84560410D01*
X131256681Y-84502352D01*
X131256681Y-84386238D01*
X131285710Y-84328181D01*
X131256681Y-83776638D02*
X131663081Y-83776638D01*
X131256681Y-84037895D02*
X131575995Y-84037895D01*
X131634052Y-84008867D01*
X131663081Y-83950810D01*
X131663081Y-83863724D01*
X131634052Y-83805667D01*
X131605024Y-83776638D01*
X131663081Y-83486352D02*
X131256681Y-83486352D01*
X131053481Y-83486352D02*
X131082510Y-83515381D01*
X131111538Y-83486352D01*
X131082510Y-83457324D01*
X131053481Y-83486352D01*
X131111538Y-83486352D01*
X131256681Y-83196067D02*
X131663081Y-83196067D01*
X131314738Y-83196067D02*
X131285710Y-83167038D01*
X131256681Y-83108981D01*
X131256681Y-83021895D01*
X131285710Y-82963838D01*
X131343767Y-82934810D01*
X131663081Y-82934810D01*
X131663081Y-82557438D02*
X131634052Y-82615495D01*
X131605024Y-82644524D01*
X131546967Y-82673552D01*
X131372795Y-82673552D01*
X131314738Y-82644524D01*
X131285710Y-82615495D01*
X131256681Y-82557438D01*
X131256681Y-82470352D01*
X131285710Y-82412295D01*
X131314738Y-82383267D01*
X131372795Y-82354238D01*
X131546967Y-82354238D01*
X131605024Y-82383267D01*
X131634052Y-82412295D01*
X131663081Y-82470352D01*
X131663081Y-82557438D01*
X131053481Y-82151038D02*
X131663081Y-81744638D01*
X131053481Y-81744638D02*
X131663081Y-82151038D01*
X131663081Y-81512410D02*
X131053481Y-81512410D01*
X131488910Y-81251152D02*
X131488910Y-80960867D01*
X131663081Y-81309210D02*
X131053481Y-81106010D01*
X131663081Y-80902810D01*
X131053481Y-80583495D02*
X131053481Y-80467381D01*
X131082510Y-80409324D01*
X131140567Y-80351267D01*
X131256681Y-80322238D01*
X131459881Y-80322238D01*
X131575995Y-80351267D01*
X131634052Y-80409324D01*
X131663081Y-80467381D01*
X131663081Y-80583495D01*
X131634052Y-80641552D01*
X131575995Y-80699610D01*
X131459881Y-80728638D01*
X131256681Y-80728638D01*
X131140567Y-80699610D01*
X131082510Y-80641552D01*
X131053481Y-80583495D01*
D10*
%TO.C,D2*%
X156916380Y-67794095D02*
X155916380Y-67794095D01*
X155916380Y-67556000D01*
X155964000Y-67413142D01*
X156059238Y-67317904D01*
X156154476Y-67270285D01*
X156344952Y-67222666D01*
X156487809Y-67222666D01*
X156678285Y-67270285D01*
X156773523Y-67317904D01*
X156868761Y-67413142D01*
X156916380Y-67556000D01*
X156916380Y-67794095D01*
X156011619Y-66841714D02*
X155964000Y-66794095D01*
X155916380Y-66698857D01*
X155916380Y-66460761D01*
X155964000Y-66365523D01*
X156011619Y-66317904D01*
X156106857Y-66270285D01*
X156202095Y-66270285D01*
X156344952Y-66317904D01*
X156916380Y-66889333D01*
X156916380Y-66270285D01*
%TO.C,SW4*%
X151574666Y-147580761D02*
X151717523Y-147628380D01*
X151955619Y-147628380D01*
X152050857Y-147580761D01*
X152098476Y-147533142D01*
X152146095Y-147437904D01*
X152146095Y-147342666D01*
X152098476Y-147247428D01*
X152050857Y-147199809D01*
X151955619Y-147152190D01*
X151765142Y-147104571D01*
X151669904Y-147056952D01*
X151622285Y-147009333D01*
X151574666Y-146914095D01*
X151574666Y-146818857D01*
X151622285Y-146723619D01*
X151669904Y-146676000D01*
X151765142Y-146628380D01*
X152003238Y-146628380D01*
X152146095Y-146676000D01*
X152479428Y-146628380D02*
X152717523Y-147628380D01*
X152908000Y-146914095D01*
X153098476Y-147628380D01*
X153336571Y-146628380D01*
X154146095Y-146961714D02*
X154146095Y-147628380D01*
X153908000Y-146580761D02*
X153669904Y-147295047D01*
X154288952Y-147295047D01*
%TO.C,J4*%
X144954666Y-73592380D02*
X144954666Y-74306666D01*
X144907047Y-74449523D01*
X144811809Y-74544761D01*
X144668952Y-74592380D01*
X144573714Y-74592380D01*
X145859428Y-73925714D02*
X145859428Y-74592380D01*
X145621333Y-73544761D02*
X145383238Y-74259047D01*
X146002285Y-74259047D01*
%TO.C,J2*%
X135810666Y-60412380D02*
X135810666Y-61126666D01*
X135763047Y-61269523D01*
X135667809Y-61364761D01*
X135524952Y-61412380D01*
X135429714Y-61412380D01*
X136239238Y-60507619D02*
X136286857Y-60460000D01*
X136382095Y-60412380D01*
X136620190Y-60412380D01*
X136715428Y-60460000D01*
X136763047Y-60507619D01*
X136810666Y-60602857D01*
X136810666Y-60698095D01*
X136763047Y-60840952D01*
X136191619Y-61412380D01*
X136810666Y-61412380D01*
%TO.C,J5*%
X152206666Y-89178380D02*
X152206666Y-89892666D01*
X152159047Y-90035523D01*
X152063809Y-90130761D01*
X151920952Y-90178380D01*
X151825714Y-90178380D01*
X153159047Y-89178380D02*
X152682857Y-89178380D01*
X152635238Y-89654571D01*
X152682857Y-89606952D01*
X152778095Y-89559333D01*
X153016190Y-89559333D01*
X153111428Y-89606952D01*
X153159047Y-89654571D01*
X153206666Y-89749809D01*
X153206666Y-89987904D01*
X153159047Y-90083142D01*
X153111428Y-90130761D01*
X153016190Y-90178380D01*
X152778095Y-90178380D01*
X152682857Y-90130761D01*
X152635238Y-90083142D01*
%TO.C,SW3*%
X131254666Y-147580761D02*
X131397523Y-147628380D01*
X131635619Y-147628380D01*
X131730857Y-147580761D01*
X131778476Y-147533142D01*
X131826095Y-147437904D01*
X131826095Y-147342666D01*
X131778476Y-147247428D01*
X131730857Y-147199809D01*
X131635619Y-147152190D01*
X131445142Y-147104571D01*
X131349904Y-147056952D01*
X131302285Y-147009333D01*
X131254666Y-146914095D01*
X131254666Y-146818857D01*
X131302285Y-146723619D01*
X131349904Y-146676000D01*
X131445142Y-146628380D01*
X131683238Y-146628380D01*
X131826095Y-146676000D01*
X132159428Y-146628380D02*
X132397523Y-147628380D01*
X132588000Y-146914095D01*
X132778476Y-147628380D01*
X133016571Y-146628380D01*
X133302285Y-146628380D02*
X133921333Y-146628380D01*
X133588000Y-147009333D01*
X133730857Y-147009333D01*
X133826095Y-147056952D01*
X133873714Y-147104571D01*
X133921333Y-147199809D01*
X133921333Y-147437904D01*
X133873714Y-147533142D01*
X133826095Y-147580761D01*
X133730857Y-147628380D01*
X133445142Y-147628380D01*
X133349904Y-147580761D01*
X133302285Y-147533142D01*
%TO.C,SW1*%
X131254666Y-128276761D02*
X131397523Y-128324380D01*
X131635619Y-128324380D01*
X131730857Y-128276761D01*
X131778476Y-128229142D01*
X131826095Y-128133904D01*
X131826095Y-128038666D01*
X131778476Y-127943428D01*
X131730857Y-127895809D01*
X131635619Y-127848190D01*
X131445142Y-127800571D01*
X131349904Y-127752952D01*
X131302285Y-127705333D01*
X131254666Y-127610095D01*
X131254666Y-127514857D01*
X131302285Y-127419619D01*
X131349904Y-127372000D01*
X131445142Y-127324380D01*
X131683238Y-127324380D01*
X131826095Y-127372000D01*
X132159428Y-127324380D02*
X132397523Y-128324380D01*
X132588000Y-127610095D01*
X132778476Y-128324380D01*
X133016571Y-127324380D01*
X133921333Y-128324380D02*
X133349904Y-128324380D01*
X133635619Y-128324380D02*
X133635619Y-127324380D01*
X133540380Y-127467238D01*
X133445142Y-127562476D01*
X133349904Y-127610095D01*
%TO.C,SW2*%
X151574666Y-128276761D02*
X151717523Y-128324380D01*
X151955619Y-128324380D01*
X152050857Y-128276761D01*
X152098476Y-128229142D01*
X152146095Y-128133904D01*
X152146095Y-128038666D01*
X152098476Y-127943428D01*
X152050857Y-127895809D01*
X151955619Y-127848190D01*
X151765142Y-127800571D01*
X151669904Y-127752952D01*
X151622285Y-127705333D01*
X151574666Y-127610095D01*
X151574666Y-127514857D01*
X151622285Y-127419619D01*
X151669904Y-127372000D01*
X151765142Y-127324380D01*
X152003238Y-127324380D01*
X152146095Y-127372000D01*
X152479428Y-127324380D02*
X152717523Y-128324380D01*
X152908000Y-127610095D01*
X153098476Y-128324380D01*
X153336571Y-127324380D01*
X153669904Y-127419619D02*
X153717523Y-127372000D01*
X153812761Y-127324380D01*
X154050857Y-127324380D01*
X154146095Y-127372000D01*
X154193714Y-127419619D01*
X154241333Y-127514857D01*
X154241333Y-127610095D01*
X154193714Y-127752952D01*
X153622285Y-128324380D01*
X154241333Y-128324380D01*
%TO.C,U2*%
X123190095Y-58888380D02*
X123190095Y-59697904D01*
X123237714Y-59793142D01*
X123285333Y-59840761D01*
X123380571Y-59888380D01*
X123571047Y-59888380D01*
X123666285Y-59840761D01*
X123713904Y-59793142D01*
X123761523Y-59697904D01*
X123761523Y-58888380D01*
X124190095Y-58983619D02*
X124237714Y-58936000D01*
X124332952Y-58888380D01*
X124571047Y-58888380D01*
X124666285Y-58936000D01*
X124713904Y-58983619D01*
X124761523Y-59078857D01*
X124761523Y-59174095D01*
X124713904Y-59316952D01*
X124142476Y-59888380D01*
X124761523Y-59888380D01*
X143883160Y-70926552D02*
X144216494Y-71926552D01*
X144549827Y-70926552D01*
X144883160Y-71926552D02*
X144883160Y-70926552D01*
X145359351Y-71926552D02*
X145359351Y-70926552D01*
X145930779Y-71926552D01*
X145930779Y-70926552D01*
X140209977Y-60600870D02*
X140400453Y-60600870D01*
X140495691Y-60648490D01*
X140590929Y-60743728D01*
X140638548Y-60934204D01*
X140638548Y-61267537D01*
X140590929Y-61458013D01*
X140495691Y-61553251D01*
X140400453Y-61600870D01*
X140209977Y-61600870D01*
X140114739Y-61553251D01*
X140019500Y-61458013D01*
X139971881Y-61267537D01*
X139971881Y-60934204D01*
X140019500Y-60743728D01*
X140114739Y-60648490D01*
X140209977Y-60600870D01*
X141067119Y-60600870D02*
X141067119Y-61410394D01*
X141114739Y-61505632D01*
X141162358Y-61553251D01*
X141257596Y-61600870D01*
X141448072Y-61600870D01*
X141543310Y-61553251D01*
X141590929Y-61505632D01*
X141638548Y-61410394D01*
X141638548Y-60600870D01*
X141971881Y-60600870D02*
X142543310Y-60600870D01*
X142257596Y-61600870D02*
X142257596Y-60600870D01*
X144162358Y-60648490D02*
X144067119Y-60600870D01*
X143924262Y-60600870D01*
X143781405Y-60648490D01*
X143686167Y-60743728D01*
X143638548Y-60838966D01*
X143590929Y-61029442D01*
X143590929Y-61172299D01*
X143638548Y-61362775D01*
X143686167Y-61458013D01*
X143781405Y-61553251D01*
X143924262Y-61600870D01*
X144019500Y-61600870D01*
X144162358Y-61553251D01*
X144209977Y-61505632D01*
X144209977Y-61172299D01*
X144019500Y-61172299D01*
X144638548Y-61600870D02*
X144638548Y-60600870D01*
X145209977Y-61600870D01*
X145209977Y-60600870D01*
X145686167Y-61600870D02*
X145686167Y-60600870D01*
X145924262Y-60600870D01*
X146067119Y-60648490D01*
X146162358Y-60743728D01*
X146209977Y-60838966D01*
X146257596Y-61029442D01*
X146257596Y-61172299D01*
X146209977Y-61362775D01*
X146162358Y-61458013D01*
X146067119Y-61553251D01*
X145924262Y-61600870D01*
X145686167Y-61600870D01*
X140421512Y-66365825D02*
X140564370Y-66413444D01*
X140611989Y-66461063D01*
X140659608Y-66556301D01*
X140659608Y-66699158D01*
X140611989Y-66794396D01*
X140564370Y-66842015D01*
X140469131Y-66889634D01*
X140088179Y-66889634D01*
X140088179Y-65889634D01*
X140421512Y-65889634D01*
X140516750Y-65937254D01*
X140564370Y-65984873D01*
X140611989Y-66080111D01*
X140611989Y-66175349D01*
X140564370Y-66270587D01*
X140516750Y-66318206D01*
X140421512Y-66365825D01*
X140088179Y-66365825D01*
X141040560Y-66603920D02*
X141516750Y-66603920D01*
X140945322Y-66889634D02*
X141278655Y-65889634D01*
X141611989Y-66889634D01*
X141802465Y-65889634D02*
X142373893Y-65889634D01*
X142088179Y-66889634D02*
X142088179Y-65889634D01*
X143992941Y-65937254D02*
X143897703Y-65889634D01*
X143754846Y-65889634D01*
X143611989Y-65937254D01*
X143516750Y-66032492D01*
X143469131Y-66127730D01*
X143421512Y-66318206D01*
X143421512Y-66461063D01*
X143469131Y-66651539D01*
X143516750Y-66746777D01*
X143611989Y-66842015D01*
X143754846Y-66889634D01*
X143850084Y-66889634D01*
X143992941Y-66842015D01*
X144040560Y-66794396D01*
X144040560Y-66461063D01*
X143850084Y-66461063D01*
X144469131Y-66889634D02*
X144469131Y-65889634D01*
X145040560Y-66889634D01*
X145040560Y-65889634D01*
X145516750Y-66889634D02*
X145516750Y-65889634D01*
X145754846Y-65889634D01*
X145897703Y-65937254D01*
X145992941Y-66032492D01*
X146040560Y-66127730D01*
X146088179Y-66318206D01*
X146088179Y-66461063D01*
X146040560Y-66651539D01*
X145992941Y-66746777D01*
X145897703Y-66842015D01*
X145754846Y-66889634D01*
X145516750Y-66889634D01*
X143546617Y-58190437D02*
X143737093Y-58190437D01*
X143832331Y-58238057D01*
X143927569Y-58333295D01*
X143975188Y-58523771D01*
X143975188Y-58857104D01*
X143927569Y-59047580D01*
X143832331Y-59142818D01*
X143737093Y-59190437D01*
X143546617Y-59190437D01*
X143451378Y-59142818D01*
X143356140Y-59047580D01*
X143308521Y-58857104D01*
X143308521Y-58523771D01*
X143356140Y-58333295D01*
X143451378Y-58238057D01*
X143546617Y-58190437D01*
X144403759Y-58190437D02*
X144403759Y-58999961D01*
X144451378Y-59095199D01*
X144498997Y-59142818D01*
X144594236Y-59190437D01*
X144784712Y-59190437D01*
X144879950Y-59142818D01*
X144927569Y-59095199D01*
X144975188Y-58999961D01*
X144975188Y-58190437D01*
X145308521Y-58190437D02*
X145879950Y-58190437D01*
X145594236Y-59190437D02*
X145594236Y-58190437D01*
X144312213Y-63703547D02*
X144455070Y-63751166D01*
X144502689Y-63798785D01*
X144550309Y-63894023D01*
X144550309Y-64036880D01*
X144502689Y-64132118D01*
X144455070Y-64179737D01*
X144359832Y-64227356D01*
X143978880Y-64227356D01*
X143978880Y-63227356D01*
X144312213Y-63227356D01*
X144407451Y-63274976D01*
X144455070Y-63322595D01*
X144502689Y-63417833D01*
X144502689Y-63513071D01*
X144455070Y-63608309D01*
X144407451Y-63655928D01*
X144312213Y-63703547D01*
X143978880Y-63703547D01*
X144931261Y-63941642D02*
X145407451Y-63941642D01*
X144836023Y-64227356D02*
X145169356Y-63227356D01*
X145502689Y-64227356D01*
X145693166Y-63227356D02*
X146264594Y-63227356D01*
X145978880Y-64227356D02*
X145978880Y-63227356D01*
X140215477Y-68408093D02*
X140548810Y-69408093D01*
X140882143Y-68408093D01*
X141215477Y-69408093D02*
X141215477Y-68408093D01*
X141691667Y-69408093D02*
X141691667Y-68408093D01*
X142263096Y-69408093D01*
X142263096Y-68408093D01*
X144025000Y-68455713D02*
X143929762Y-68408093D01*
X143786905Y-68408093D01*
X143644048Y-68455713D01*
X143548810Y-68550951D01*
X143501191Y-68646189D01*
X143453572Y-68836665D01*
X143453572Y-68979522D01*
X143501191Y-69169998D01*
X143548810Y-69265236D01*
X143644048Y-69360474D01*
X143786905Y-69408093D01*
X143882143Y-69408093D01*
X144025000Y-69360474D01*
X144072619Y-69312855D01*
X144072619Y-68979522D01*
X143882143Y-68979522D01*
X144501191Y-69408093D02*
X144501191Y-68408093D01*
X145072619Y-69408093D01*
X145072619Y-68408093D01*
X145548810Y-69408093D02*
X145548810Y-68408093D01*
X145786905Y-68408093D01*
X145929762Y-68455713D01*
X146025000Y-68550951D01*
X146072619Y-68646189D01*
X146120238Y-68836665D01*
X146120238Y-68979522D01*
X146072619Y-69169998D01*
X146025000Y-69265236D01*
X145929762Y-69360474D01*
X145786905Y-69408093D01*
X145548810Y-69408093D01*
%TO.C,R1*%
X160472380Y-67730666D02*
X159996190Y-68064000D01*
X160472380Y-68302095D02*
X159472380Y-68302095D01*
X159472380Y-67921142D01*
X159520000Y-67825904D01*
X159567619Y-67778285D01*
X159662857Y-67730666D01*
X159805714Y-67730666D01*
X159900952Y-67778285D01*
X159948571Y-67825904D01*
X159996190Y-67921142D01*
X159996190Y-68302095D01*
X160472380Y-66778285D02*
X160472380Y-67349714D01*
X160472380Y-67064000D02*
X159472380Y-67064000D01*
X159615238Y-67159238D01*
X159710476Y-67254476D01*
X159758095Y-67349714D01*
D13*
%TO.C,U3*%
X122301000Y-96202500D02*
X122301000Y-103949500D01*
X122301000Y-103949500D02*
X122617825Y-103949500D01*
X158115000Y-103949500D02*
X158115000Y-96202500D01*
X158115000Y-96202500D02*
X157800040Y-96202500D01*
X155635960Y-96202500D02*
X155258175Y-96202500D01*
X153097825Y-96202500D02*
X152718175Y-96202500D01*
X150557825Y-96202500D02*
X150178175Y-96202500D01*
X148017825Y-96202500D02*
X147638175Y-96202500D01*
X145477825Y-96202500D02*
X145098175Y-96202500D01*
X142937825Y-96202500D02*
X142558175Y-96202500D01*
X140397825Y-96202500D02*
X140018175Y-96202500D01*
X137857825Y-96202500D02*
X137478175Y-96202500D01*
X135317825Y-96202500D02*
X134938175Y-96202500D01*
X132777825Y-96202500D02*
X132398175Y-96202500D01*
X130237825Y-96202500D02*
X129858175Y-96202500D01*
X127697825Y-96202500D02*
X127318175Y-96202500D01*
X125157825Y-96202500D02*
X124778175Y-96202500D01*
X122617825Y-96202500D02*
X122301000Y-96202500D01*
X124778175Y-103949500D02*
X125157825Y-103949500D01*
X127318175Y-103949500D02*
X127697825Y-103949500D01*
X129858175Y-103949500D02*
X130237825Y-103949500D01*
X132398175Y-103949500D02*
X132777825Y-103949500D01*
X134938175Y-103949500D02*
X135317825Y-103949500D01*
X137478175Y-103949500D02*
X137857825Y-103949500D01*
X140018175Y-103949500D02*
X140397825Y-103949500D01*
X142558175Y-103949500D02*
X142937825Y-103949500D01*
X145098175Y-103949500D02*
X145477825Y-103949500D01*
X147638175Y-103949500D02*
X148017825Y-103949500D01*
X150178175Y-103949500D02*
X150557825Y-103949500D01*
X152718175Y-103949500D02*
X153097825Y-103949500D01*
X155258175Y-103949500D02*
X155637825Y-103949500D01*
X157798175Y-103949500D02*
X158115000Y-103949500D01*
%TO.C,J1*%
X152885000Y-58521000D02*
X152885000Y-57621000D01*
X162075000Y-58521000D02*
X162075000Y-57621000D01*
X162075000Y-52191000D02*
X152885000Y-52191000D01*
X161955000Y-61601000D02*
X153005000Y-61601000D01*
X152885000Y-54921000D02*
X152885000Y-52191000D01*
X162075000Y-54921000D02*
X162075000Y-52191000D01*
%TO.C,D1*%
X153520000Y-65444000D02*
X151280000Y-65444000D01*
X152400000Y-64794000D02*
X152400000Y-65444000D01*
X153520000Y-69684000D02*
X153520000Y-65444000D01*
X151280000Y-68844000D02*
X153520000Y-68844000D01*
X151280000Y-69084000D02*
X153520000Y-69084000D01*
X152400000Y-70334000D02*
X152400000Y-69684000D01*
X151280000Y-68964000D02*
X153520000Y-68964000D01*
X151280000Y-69684000D02*
X153520000Y-69684000D01*
X151280000Y-65444000D02*
X151280000Y-69684000D01*
%TO.C,R2*%
X161390000Y-82518000D02*
X161060000Y-82518000D01*
X161060000Y-75978000D02*
X161390000Y-75978000D01*
X158650000Y-75978000D02*
X158650000Y-82518000D01*
X158980000Y-75978000D02*
X158650000Y-75978000D01*
X161390000Y-75978000D02*
X161390000Y-82518000D01*
X158650000Y-82518000D02*
X158980000Y-82518000D01*
D14*
%TO.C,U1*%
X139007310Y-86084410D02*
X139007310Y-80369410D01*
D15*
X121854690Y-92434410D02*
X142182310Y-92434410D01*
D14*
X123767310Y-80115410D02*
X123767310Y-78337410D01*
X125164310Y-88751410D02*
X125164310Y-86973410D01*
X127833850Y-88751410D02*
X127833850Y-86973410D01*
X121862310Y-86084410D02*
X121862310Y-81004410D01*
D15*
X127112490Y-79040990D02*
X127112490Y-88040210D01*
D14*
X124402310Y-81004410D02*
X121862310Y-81004410D01*
X121100310Y-88751410D02*
X121100310Y-86973410D01*
X127833850Y-78337410D02*
X125164310Y-78337410D01*
X124402310Y-86084410D02*
X121862310Y-86084410D01*
X123767310Y-88751410D02*
X123767310Y-86973410D01*
X127833850Y-88751410D02*
X125164310Y-88751410D01*
X121100310Y-80115410D02*
X121100310Y-78337410D01*
X123767310Y-86973410D02*
X121100310Y-86973410D01*
D15*
X142182310Y-74636630D02*
X121184130Y-74636630D01*
D14*
X141547310Y-86084410D02*
X139007310Y-86084410D01*
X123767310Y-88751410D02*
X121100310Y-88751410D01*
D15*
X142182310Y-92434410D02*
X142182310Y-74636630D01*
X121184130Y-91763850D02*
X121854690Y-92434410D01*
X119759190Y-79040990D02*
X127112490Y-79040990D01*
D14*
X127833850Y-86973410D02*
X125164310Y-86973410D01*
X141547310Y-80369410D02*
X139007310Y-80369410D01*
X124402310Y-86084410D02*
X124402310Y-81004410D01*
X123767310Y-80115410D02*
X121100310Y-80115410D01*
D15*
X127112490Y-88040210D02*
X119759190Y-88040210D01*
X121184130Y-74636630D02*
X121184130Y-91763850D01*
D14*
X125164310Y-80115410D02*
X125164310Y-78337410D01*
D15*
X119759190Y-88035130D02*
X119759190Y-79040990D01*
D14*
X127833850Y-80115410D02*
X127833850Y-78337410D01*
X127833850Y-80115410D02*
X125164310Y-80115410D01*
X141547310Y-86084410D02*
X141547310Y-80369410D01*
X123767310Y-78337410D02*
X121100310Y-78337410D01*
D16*
X124148310Y-93323410D02*
G75*
G03*
X124148310Y-93323410I-127000J0D01*
G01*
D13*
%TO.C,D2*%
X156464000Y-64794000D02*
X156464000Y-65444000D01*
X155344000Y-69084000D02*
X157584000Y-69084000D01*
X155344000Y-65444000D02*
X155344000Y-69684000D01*
X156464000Y-70334000D02*
X156464000Y-69684000D01*
X155344000Y-68964000D02*
X157584000Y-68964000D01*
X155344000Y-68844000D02*
X157584000Y-68844000D01*
X157584000Y-65444000D02*
X155344000Y-65444000D01*
X155344000Y-69684000D02*
X157584000Y-69684000D01*
X157584000Y-69684000D02*
X157584000Y-65444000D01*
%TO.C,SW4*%
X160508000Y-145776000D02*
X160508000Y-130576000D01*
X145308000Y-145776000D02*
X160508000Y-145776000D01*
X160508000Y-130576000D02*
X145308000Y-130576000D01*
X145308000Y-130576000D02*
X145308000Y-145776000D01*
%TO.C,SW3*%
X124988000Y-145776000D02*
X140188000Y-145776000D01*
X140188000Y-145776000D02*
X140188000Y-130576000D01*
X140188000Y-130576000D02*
X124988000Y-130576000D01*
X124988000Y-130576000D02*
X124988000Y-145776000D01*
%TO.C,SW1*%
X124988000Y-126472000D02*
X140188000Y-126472000D01*
X140188000Y-111272000D02*
X124988000Y-111272000D01*
X140188000Y-126472000D02*
X140188000Y-111272000D01*
X124988000Y-111272000D02*
X124988000Y-126472000D01*
%TO.C,SW2*%
X145308000Y-111272000D02*
X145308000Y-126472000D01*
X160508000Y-111272000D02*
X145308000Y-111272000D01*
X145308000Y-126472000D02*
X160508000Y-126472000D01*
X160508000Y-126472000D02*
X160508000Y-111272000D01*
%TO.C,U2*%
X149594000Y-59946917D02*
X146594000Y-59946917D01*
X149594000Y-72476917D02*
X122694000Y-72476917D01*
X122694000Y-72476917D02*
X122694000Y-57576917D01*
X149594000Y-57576917D02*
X149594000Y-72476917D01*
X122694000Y-57576917D02*
X149594000Y-57576917D01*
X146594000Y-59946917D02*
X146598695Y-57571084D01*
%TO.C,R1*%
X158650000Y-64548000D02*
X158650000Y-71088000D01*
X161390000Y-71088000D02*
X161060000Y-71088000D01*
X158980000Y-64548000D02*
X158650000Y-64548000D01*
X161060000Y-64548000D02*
X161390000Y-64548000D01*
X161390000Y-64548000D02*
X161390000Y-71088000D01*
X158650000Y-71088000D02*
X158980000Y-71088000D01*
%TD*%
M02*
