%TF.GenerationSoftware,KiCad,Pcbnew,(6.0.1)*%
%TF.CreationDate,2022-02-25T19:27:25-05:00*%
%TF.ProjectId,InductorSchem,496e6475-6374-46f7-9253-6368656d2e6b,1*%
%TF.SameCoordinates,Original*%
%TF.FileFunction,Legend,Bot*%
%TF.FilePolarity,Positive*%
%FSLAX46Y46*%
G04 Gerber Fmt 4.6, Leading zero omitted, Abs format (unit mm)*
G04 Created by KiCad (PCBNEW (6.0.1)) date 2022-02-25 19:27:25*
%MOMM*%
%LPD*%
G01*
G04 APERTURE LIST*
%ADD10C,0.150000*%
%ADD11C,0.120000*%
G04 APERTURE END LIST*
D10*
%TO.C,D6*%
X152122095Y-131936380D02*
X152122095Y-130936380D01*
X151884000Y-130936380D01*
X151741142Y-130984000D01*
X151645904Y-131079238D01*
X151598285Y-131174476D01*
X151550666Y-131364952D01*
X151550666Y-131507809D01*
X151598285Y-131698285D01*
X151645904Y-131793523D01*
X151741142Y-131888761D01*
X151884000Y-131936380D01*
X152122095Y-131936380D01*
X150693523Y-130936380D02*
X150884000Y-130936380D01*
X150979238Y-130984000D01*
X151026857Y-131031619D01*
X151122095Y-131174476D01*
X151169714Y-131364952D01*
X151169714Y-131745904D01*
X151122095Y-131841142D01*
X151074476Y-131888761D01*
X150979238Y-131936380D01*
X150788761Y-131936380D01*
X150693523Y-131888761D01*
X150645904Y-131841142D01*
X150598285Y-131745904D01*
X150598285Y-131507809D01*
X150645904Y-131412571D01*
X150693523Y-131364952D01*
X150788761Y-131317333D01*
X150979238Y-131317333D01*
X151074476Y-131364952D01*
X151122095Y-131412571D01*
X151169714Y-131507809D01*
X155455904Y-132256380D02*
X155455904Y-131256380D01*
X154884476Y-132256380D02*
X155313047Y-131684952D01*
X154884476Y-131256380D02*
X155455904Y-131827809D01*
%TO.C,D5*%
X152122095Y-112632380D02*
X152122095Y-111632380D01*
X151884000Y-111632380D01*
X151741142Y-111680000D01*
X151645904Y-111775238D01*
X151598285Y-111870476D01*
X151550666Y-112060952D01*
X151550666Y-112203809D01*
X151598285Y-112394285D01*
X151645904Y-112489523D01*
X151741142Y-112584761D01*
X151884000Y-112632380D01*
X152122095Y-112632380D01*
X150645904Y-111632380D02*
X151122095Y-111632380D01*
X151169714Y-112108571D01*
X151122095Y-112060952D01*
X151026857Y-112013333D01*
X150788761Y-112013333D01*
X150693523Y-112060952D01*
X150645904Y-112108571D01*
X150598285Y-112203809D01*
X150598285Y-112441904D01*
X150645904Y-112537142D01*
X150693523Y-112584761D01*
X150788761Y-112632380D01*
X151026857Y-112632380D01*
X151122095Y-112584761D01*
X151169714Y-112537142D01*
X155455904Y-112952380D02*
X155455904Y-111952380D01*
X154884476Y-112952380D02*
X155313047Y-112380952D01*
X154884476Y-111952380D02*
X155455904Y-112523809D01*
%TO.C,D4*%
X131802095Y-131936380D02*
X131802095Y-130936380D01*
X131564000Y-130936380D01*
X131421142Y-130984000D01*
X131325904Y-131079238D01*
X131278285Y-131174476D01*
X131230666Y-131364952D01*
X131230666Y-131507809D01*
X131278285Y-131698285D01*
X131325904Y-131793523D01*
X131421142Y-131888761D01*
X131564000Y-131936380D01*
X131802095Y-131936380D01*
X130373523Y-131269714D02*
X130373523Y-131936380D01*
X130611619Y-130888761D02*
X130849714Y-131603047D01*
X130230666Y-131603047D01*
X135135904Y-132256380D02*
X135135904Y-131256380D01*
X134564476Y-132256380D02*
X134993047Y-131684952D01*
X134564476Y-131256380D02*
X135135904Y-131827809D01*
%TO.C,D3*%
X131802095Y-112632380D02*
X131802095Y-111632380D01*
X131564000Y-111632380D01*
X131421142Y-111680000D01*
X131325904Y-111775238D01*
X131278285Y-111870476D01*
X131230666Y-112060952D01*
X131230666Y-112203809D01*
X131278285Y-112394285D01*
X131325904Y-112489523D01*
X131421142Y-112584761D01*
X131564000Y-112632380D01*
X131802095Y-112632380D01*
X130897333Y-111632380D02*
X130278285Y-111632380D01*
X130611619Y-112013333D01*
X130468761Y-112013333D01*
X130373523Y-112060952D01*
X130325904Y-112108571D01*
X130278285Y-112203809D01*
X130278285Y-112441904D01*
X130325904Y-112537142D01*
X130373523Y-112584761D01*
X130468761Y-112632380D01*
X130754476Y-112632380D01*
X130849714Y-112584761D01*
X130897333Y-112537142D01*
X135135904Y-112952380D02*
X135135904Y-111952380D01*
X134564476Y-112952380D02*
X134993047Y-112380952D01*
X134564476Y-111952380D02*
X135135904Y-112523809D01*
D11*
%TO.C,D6*%
X149264000Y-132484000D02*
X153504000Y-132484000D01*
X152784000Y-132484000D02*
X152784000Y-134724000D01*
X152904000Y-132484000D02*
X152904000Y-134724000D01*
X149264000Y-134724000D02*
X149264000Y-132484000D01*
X152664000Y-132484000D02*
X152664000Y-134724000D01*
X154154000Y-133604000D02*
X153504000Y-133604000D01*
X153504000Y-132484000D02*
X153504000Y-134724000D01*
X153504000Y-134724000D02*
X149264000Y-134724000D01*
X148614000Y-133604000D02*
X149264000Y-133604000D01*
%TO.C,D5*%
X149264000Y-113180000D02*
X153504000Y-113180000D01*
X152784000Y-113180000D02*
X152784000Y-115420000D01*
X152904000Y-113180000D02*
X152904000Y-115420000D01*
X149264000Y-115420000D02*
X149264000Y-113180000D01*
X152664000Y-113180000D02*
X152664000Y-115420000D01*
X154154000Y-114300000D02*
X153504000Y-114300000D01*
X153504000Y-113180000D02*
X153504000Y-115420000D01*
X153504000Y-115420000D02*
X149264000Y-115420000D01*
X148614000Y-114300000D02*
X149264000Y-114300000D01*
%TO.C,D4*%
X128944000Y-132484000D02*
X133184000Y-132484000D01*
X132464000Y-132484000D02*
X132464000Y-134724000D01*
X132584000Y-132484000D02*
X132584000Y-134724000D01*
X128944000Y-134724000D02*
X128944000Y-132484000D01*
X132344000Y-132484000D02*
X132344000Y-134724000D01*
X133834000Y-133604000D02*
X133184000Y-133604000D01*
X133184000Y-132484000D02*
X133184000Y-134724000D01*
X133184000Y-134724000D02*
X128944000Y-134724000D01*
X128294000Y-133604000D02*
X128944000Y-133604000D01*
%TO.C,D3*%
X128944000Y-113180000D02*
X133184000Y-113180000D01*
X132464000Y-113180000D02*
X132464000Y-115420000D01*
X132584000Y-113180000D02*
X132584000Y-115420000D01*
X128944000Y-115420000D02*
X128944000Y-113180000D01*
X132344000Y-113180000D02*
X132344000Y-115420000D01*
X133834000Y-114300000D02*
X133184000Y-114300000D01*
X133184000Y-113180000D02*
X133184000Y-115420000D01*
X133184000Y-115420000D02*
X128944000Y-115420000D01*
X128294000Y-114300000D02*
X128944000Y-114300000D01*
%TD*%
M02*
