%FSLAX45Y45*%
G04 Gerber Fmt 4.5, Leading zero omitted, Abs format (unit mm)*
G04 Created by KiCad (PCBNEW (6.0.1)) date 2022-05-08 14:53:27*
%MOMM*%
%LPD*%
G01*
G04 APERTURE LIST*
%TA.AperFunction,Profile*%
%ADD10C,0.100000*%
%TD*%
%ADD11C,0.200000*%
%ADD12C,0.180000*%
%ADD13C,0.320000*%
G04 APERTURE END LIST*
D10*
X32500000Y-20660000D02*
X32500000Y-9510000D01*
X17955000Y-10078250D02*
X18745000Y-10078250D01*
X18753000Y-10086250D02*
G75*
G03*
X18812000Y-10078250I29005J7648D01*
G01*
X17888000Y-9508250D02*
X10000000Y-9510000D01*
X10000000Y-9510000D02*
X10000000Y-20660000D01*
X18753000Y-10086250D02*
G75*
G03*
X18745000Y-10078250I-7904J96D01*
G01*
X17955000Y-10078250D02*
G75*
G03*
X17947000Y-10086250I113J-8113D01*
G01*
X17888000Y-9508250D02*
X17888000Y-10078250D01*
X18812000Y-9508250D02*
X18812000Y-10078250D01*
X10000000Y-20660000D02*
X32500000Y-20660000D01*
X17888000Y-10078250D02*
G75*
G03*
X17947000Y-10086250I29699J-2532D01*
G01*
X32500000Y-9510000D02*
X18812000Y-9508250D01*
D11*
D12*
X10445884Y-12161000D02*
X10625884Y-12341000D01*
X10625884Y-12161000D02*
X10445884Y-12341000D01*
X10445884Y-12161000D02*
X10625884Y-12341000D01*
X10625884Y-12161000D02*
X10445884Y-12341000D01*
X10445884Y-14935000D02*
X10625884Y-15115000D01*
X10625884Y-14935000D02*
X10445884Y-15115000D01*
X10445884Y-15860000D02*
X10625884Y-16040000D01*
X10625884Y-15860000D02*
X10445884Y-16040000D01*
X10445884Y-17710000D02*
X10625884Y-17890000D01*
X10625884Y-17710000D02*
X10445884Y-17890000D01*
X10445884Y-18635000D02*
X10625884Y-18815000D01*
X10625884Y-18635000D02*
X10445884Y-18815000D01*
X10445884Y-19560000D02*
X10625884Y-19740000D01*
X10625884Y-19560000D02*
X10445884Y-19740000D01*
X10446884Y-14010000D02*
X10626884Y-14190000D01*
X10626884Y-14010000D02*
X10446884Y-14190000D01*
X11545884Y-12161000D02*
X11725884Y-12341000D01*
X11725884Y-12161000D02*
X11545884Y-12341000D01*
X11545884Y-12161000D02*
X11725884Y-12341000D01*
X11725884Y-12161000D02*
X11545884Y-12341000D01*
X11545884Y-14935000D02*
X11725884Y-15115000D01*
X11725884Y-14935000D02*
X11545884Y-15115000D01*
X11545884Y-15860000D02*
X11725884Y-16040000D01*
X11725884Y-15860000D02*
X11545884Y-16040000D01*
X11545884Y-17710000D02*
X11725884Y-17890000D01*
X11725884Y-17710000D02*
X11545884Y-17890000D01*
X11545884Y-18635000D02*
X11725884Y-18815000D01*
X11725884Y-18635000D02*
X11545884Y-18815000D01*
X11545884Y-19560000D02*
X11725884Y-19740000D01*
X11725884Y-19560000D02*
X11545884Y-19740000D01*
X11546884Y-14010000D02*
X11726884Y-14190000D01*
X11726884Y-14010000D02*
X11546884Y-14190000D01*
X12395884Y-12160000D02*
X12575884Y-12340000D01*
X12575884Y-12160000D02*
X12395884Y-12340000D01*
X12395884Y-12160000D02*
X12575884Y-12340000D01*
X12575884Y-12160000D02*
X12395884Y-12340000D01*
X12395884Y-14010000D02*
X12575884Y-14190000D01*
X12575884Y-14010000D02*
X12395884Y-14190000D01*
X12395884Y-14010000D02*
X12575884Y-14190000D01*
X12575884Y-14010000D02*
X12395884Y-14190000D01*
X12395884Y-15860000D02*
X12575884Y-16040000D01*
X12575884Y-15860000D02*
X12395884Y-16040000D01*
X12395884Y-15860000D02*
X12575884Y-16040000D01*
X12575884Y-15860000D02*
X12395884Y-16040000D01*
X12395884Y-17710000D02*
X12575884Y-17890000D01*
X12575884Y-17710000D02*
X12395884Y-17890000D01*
X12395884Y-17710000D02*
X12575884Y-17890000D01*
X12575884Y-17710000D02*
X12395884Y-17890000D01*
X12395884Y-19560000D02*
X12575884Y-19740000D01*
X12575884Y-19560000D02*
X12395884Y-19740000D01*
X12395884Y-19560000D02*
X12575884Y-19740000D01*
X12575884Y-19560000D02*
X12395884Y-19740000D01*
X13495884Y-12160000D02*
X13675884Y-12340000D01*
X13675884Y-12160000D02*
X13495884Y-12340000D01*
X13495884Y-12160000D02*
X13675884Y-12340000D01*
X13675884Y-12160000D02*
X13495884Y-12340000D01*
X13495884Y-14010000D02*
X13675884Y-14190000D01*
X13675884Y-14010000D02*
X13495884Y-14190000D01*
X13495884Y-14010000D02*
X13675884Y-14190000D01*
X13675884Y-14010000D02*
X13495884Y-14190000D01*
X13495884Y-15860000D02*
X13675884Y-16040000D01*
X13675884Y-15860000D02*
X13495884Y-16040000D01*
X13495884Y-15860000D02*
X13675884Y-16040000D01*
X13675884Y-15860000D02*
X13495884Y-16040000D01*
X13495884Y-17710000D02*
X13675884Y-17890000D01*
X13675884Y-17710000D02*
X13495884Y-17890000D01*
X13495884Y-17710000D02*
X13675884Y-17890000D01*
X13675884Y-17710000D02*
X13495884Y-17890000D01*
X13495884Y-19560000D02*
X13675884Y-19740000D01*
X13675884Y-19560000D02*
X13495884Y-19740000D01*
X13495884Y-19560000D02*
X13675884Y-19740000D01*
X13675884Y-19560000D02*
X13495884Y-19740000D01*
X14345884Y-12160000D02*
X14525884Y-12340000D01*
X14525884Y-12160000D02*
X14345884Y-12340000D01*
X14345884Y-12160000D02*
X14525884Y-12340000D01*
X14525884Y-12160000D02*
X14345884Y-12340000D01*
X14345884Y-14010000D02*
X14525884Y-14190000D01*
X14525884Y-14010000D02*
X14345884Y-14190000D01*
X14345884Y-14010000D02*
X14525884Y-14190000D01*
X14525884Y-14010000D02*
X14345884Y-14190000D01*
X14345884Y-15860000D02*
X14525884Y-16040000D01*
X14525884Y-15860000D02*
X14345884Y-16040000D01*
X14345884Y-15860000D02*
X14525884Y-16040000D01*
X14525884Y-15860000D02*
X14345884Y-16040000D01*
X14345884Y-17710000D02*
X14525884Y-17890000D01*
X14525884Y-17710000D02*
X14345884Y-17890000D01*
X14345884Y-17710000D02*
X14525884Y-17890000D01*
X14525884Y-17710000D02*
X14345884Y-17890000D01*
X14345884Y-19560000D02*
X14525884Y-19740000D01*
X14525884Y-19560000D02*
X14345884Y-19740000D01*
X15383384Y-19560000D02*
X15563384Y-19740000D01*
X15563384Y-19560000D02*
X15383384Y-19740000D01*
D11*
X15410884Y-19730000D02*
X15535884Y-19730000D01*
X15410884Y-19570000D02*
X15535884Y-19570000D01*
X15535884Y-19730000D02*
G75*
G03*
X15535884Y-19570000I0J80000D01*
G01*
X15410884Y-19570000D02*
G75*
G03*
X15410884Y-19730000I0J-80000D01*
G01*
D12*
X15445884Y-12160000D02*
X15625884Y-12340000D01*
X15625884Y-12160000D02*
X15445884Y-12340000D01*
X15445884Y-12160000D02*
X15625884Y-12340000D01*
X15625884Y-12160000D02*
X15445884Y-12340000D01*
X15445884Y-14010000D02*
X15625884Y-14190000D01*
X15625884Y-14010000D02*
X15445884Y-14190000D01*
X15445884Y-14010000D02*
X15625884Y-14190000D01*
X15625884Y-14010000D02*
X15445884Y-14190000D01*
X15445884Y-15860000D02*
X15625884Y-16040000D01*
X15625884Y-15860000D02*
X15445884Y-16040000D01*
X15445884Y-15860000D02*
X15625884Y-16040000D01*
X15625884Y-15860000D02*
X15445884Y-16040000D01*
X15445884Y-17710000D02*
X15625884Y-17890000D01*
X15625884Y-17710000D02*
X15445884Y-17890000D01*
X15445884Y-17710000D02*
X15625884Y-17890000D01*
X15625884Y-17710000D02*
X15445884Y-17890000D01*
X15445884Y-19560000D02*
X15625884Y-19740000D01*
X15625884Y-19560000D02*
X15445884Y-19740000D01*
X16295884Y-12160000D02*
X16475884Y-12340000D01*
X16475884Y-12160000D02*
X16295884Y-12340000D01*
X16295884Y-12160000D02*
X16475884Y-12340000D01*
X16475884Y-12160000D02*
X16295884Y-12340000D01*
X16295884Y-14010000D02*
X16475884Y-14190000D01*
X16475884Y-14010000D02*
X16295884Y-14190000D01*
X16295884Y-14010000D02*
X16475884Y-14190000D01*
X16475884Y-14010000D02*
X16295884Y-14190000D01*
X16295884Y-15860000D02*
X16475884Y-16040000D01*
X16475884Y-15860000D02*
X16295884Y-16040000D01*
X16295884Y-15860000D02*
X16475884Y-16040000D01*
X16475884Y-15860000D02*
X16295884Y-16040000D01*
X16295884Y-17710000D02*
X16475884Y-17890000D01*
X16475884Y-17710000D02*
X16295884Y-17890000D01*
X16295884Y-17710000D02*
X16475884Y-17890000D01*
X16475884Y-17710000D02*
X16295884Y-17890000D01*
X16295884Y-19560000D02*
X16475884Y-19740000D01*
X16475884Y-19560000D02*
X16295884Y-19740000D01*
X16355884Y-19560000D02*
X16535884Y-19740000D01*
X16535884Y-19560000D02*
X16355884Y-19740000D01*
D11*
X16383384Y-19730000D02*
X16508384Y-19730000D01*
X16383384Y-19570000D02*
X16508384Y-19570000D01*
X16508384Y-19730000D02*
G75*
G03*
X16508384Y-19570000I0J80000D01*
G01*
X16383384Y-19570000D02*
G75*
G03*
X16383384Y-19730000I0J-80000D01*
G01*
D12*
X17395884Y-12160000D02*
X17575884Y-12340000D01*
X17575884Y-12160000D02*
X17395884Y-12340000D01*
X17395884Y-12160000D02*
X17575884Y-12340000D01*
X17575884Y-12160000D02*
X17395884Y-12340000D01*
X17395884Y-14010000D02*
X17575884Y-14190000D01*
X17575884Y-14010000D02*
X17395884Y-14190000D01*
X17395884Y-14010000D02*
X17575884Y-14190000D01*
X17575884Y-14010000D02*
X17395884Y-14190000D01*
X17395884Y-15860000D02*
X17575884Y-16040000D01*
X17575884Y-15860000D02*
X17395884Y-16040000D01*
X17395884Y-15860000D02*
X17575884Y-16040000D01*
X17575884Y-15860000D02*
X17395884Y-16040000D01*
X17395884Y-17710000D02*
X17575884Y-17890000D01*
X17575884Y-17710000D02*
X17395884Y-17890000D01*
X17395884Y-17710000D02*
X17575884Y-17890000D01*
X17575884Y-17710000D02*
X17395884Y-17890000D01*
X17395884Y-19560000D02*
X17575884Y-19740000D01*
X17575884Y-19560000D02*
X17395884Y-19740000D01*
X19060000Y-12160000D02*
X19240000Y-12340000D01*
X19240000Y-12160000D02*
X19060000Y-12340000D01*
X19060000Y-14010000D02*
X19240000Y-14190000D01*
X19240000Y-14010000D02*
X19060000Y-14190000D01*
X19060000Y-14010000D02*
X19240000Y-14190000D01*
X19240000Y-14010000D02*
X19060000Y-14190000D01*
X19060000Y-15860000D02*
X19240000Y-16040000D01*
X19240000Y-15860000D02*
X19060000Y-16040000D01*
X19060000Y-15860000D02*
X19240000Y-16040000D01*
X19240000Y-15860000D02*
X19060000Y-16040000D01*
X19060000Y-17710000D02*
X19240000Y-17890000D01*
X19240000Y-17710000D02*
X19060000Y-17890000D01*
X19060000Y-17710000D02*
X19240000Y-17890000D01*
X19240000Y-17710000D02*
X19060000Y-17890000D01*
X19060000Y-19560000D02*
X19240000Y-19740000D01*
X19240000Y-19560000D02*
X19060000Y-19740000D01*
X19060000Y-19560000D02*
X19240000Y-19740000D01*
X19240000Y-19560000D02*
X19060000Y-19740000D01*
X20097500Y-12160000D02*
X20277500Y-12340000D01*
X20277500Y-12160000D02*
X20097500Y-12340000D01*
D11*
X20125000Y-12330000D02*
X20250000Y-12330000D01*
X20125000Y-12170000D02*
X20250000Y-12170000D01*
X20250000Y-12330000D02*
G75*
G03*
X20250000Y-12170000I0J80000D01*
G01*
X20125000Y-12170000D02*
G75*
G03*
X20125000Y-12330000I0J-80000D01*
G01*
D12*
X20160000Y-12160000D02*
X20340000Y-12340000D01*
X20340000Y-12160000D02*
X20160000Y-12340000D01*
X20160000Y-14010000D02*
X20340000Y-14190000D01*
X20340000Y-14010000D02*
X20160000Y-14190000D01*
X20160000Y-14010000D02*
X20340000Y-14190000D01*
X20340000Y-14010000D02*
X20160000Y-14190000D01*
X20160000Y-15860000D02*
X20340000Y-16040000D01*
X20340000Y-15860000D02*
X20160000Y-16040000D01*
X20160000Y-15860000D02*
X20340000Y-16040000D01*
X20340000Y-15860000D02*
X20160000Y-16040000D01*
X20160000Y-17710000D02*
X20340000Y-17890000D01*
X20340000Y-17710000D02*
X20160000Y-17890000D01*
X20160000Y-17710000D02*
X20340000Y-17890000D01*
X20340000Y-17710000D02*
X20160000Y-17890000D01*
X20160000Y-19560000D02*
X20340000Y-19740000D01*
X20340000Y-19560000D02*
X20160000Y-19740000D01*
X20160000Y-19560000D02*
X20340000Y-19740000D01*
X20340000Y-19560000D02*
X20160000Y-19740000D01*
X21010000Y-12160000D02*
X21190000Y-12340000D01*
X21190000Y-12160000D02*
X21010000Y-12340000D01*
X21010000Y-14010000D02*
X21190000Y-14190000D01*
X21190000Y-14010000D02*
X21010000Y-14190000D01*
X21010000Y-14010000D02*
X21190000Y-14190000D01*
X21190000Y-14010000D02*
X21010000Y-14190000D01*
X21010000Y-15860000D02*
X21190000Y-16040000D01*
X21190000Y-15860000D02*
X21010000Y-16040000D01*
X21010000Y-15860000D02*
X21190000Y-16040000D01*
X21190000Y-15860000D02*
X21010000Y-16040000D01*
X21010000Y-17710000D02*
X21190000Y-17890000D01*
X21190000Y-17710000D02*
X21010000Y-17890000D01*
X21010000Y-19560000D02*
X21190000Y-19740000D01*
X21190000Y-19560000D02*
X21010000Y-19740000D01*
X21010000Y-19560000D02*
X21190000Y-19740000D01*
X21190000Y-19560000D02*
X21010000Y-19740000D01*
X21070000Y-12160000D02*
X21250000Y-12340000D01*
X21250000Y-12160000D02*
X21070000Y-12340000D01*
D11*
X21097500Y-12330000D02*
X21222500Y-12330000D01*
X21097500Y-12170000D02*
X21222500Y-12170000D01*
X21222500Y-12330000D02*
G75*
G03*
X21222500Y-12170000I0J80000D01*
G01*
X21097500Y-12170000D02*
G75*
G03*
X21097500Y-12330000I0J-80000D01*
G01*
D12*
X22050000Y-17710000D02*
X22230000Y-17890000D01*
X22230000Y-17710000D02*
X22050000Y-17890000D01*
D11*
X22202500Y-17720000D02*
X22077500Y-17720000D01*
X22202500Y-17880000D02*
X22077500Y-17880000D01*
X22077500Y-17720000D02*
G75*
G03*
X22077500Y-17880000I0J-80000D01*
G01*
X22202500Y-17880000D02*
G75*
G03*
X22202500Y-17720000I0J80000D01*
G01*
D12*
X22110000Y-12160000D02*
X22290000Y-12340000D01*
X22290000Y-12160000D02*
X22110000Y-12340000D01*
X22110000Y-14010000D02*
X22290000Y-14190000D01*
X22290000Y-14010000D02*
X22110000Y-14190000D01*
X22110000Y-14010000D02*
X22290000Y-14190000D01*
X22290000Y-14010000D02*
X22110000Y-14190000D01*
X22110000Y-15860000D02*
X22290000Y-16040000D01*
X22290000Y-15860000D02*
X22110000Y-16040000D01*
X22110000Y-15860000D02*
X22290000Y-16040000D01*
X22290000Y-15860000D02*
X22110000Y-16040000D01*
X22110000Y-17710000D02*
X22290000Y-17890000D01*
X22290000Y-17710000D02*
X22110000Y-17890000D01*
X22110000Y-19560000D02*
X22290000Y-19740000D01*
X22290000Y-19560000D02*
X22110000Y-19740000D01*
X22110000Y-19560000D02*
X22290000Y-19740000D01*
X22290000Y-19560000D02*
X22110000Y-19740000D01*
X22960000Y-12160000D02*
X23140000Y-12340000D01*
X23140000Y-12160000D02*
X22960000Y-12340000D01*
X22960000Y-12160000D02*
X23140000Y-12340000D01*
X23140000Y-12160000D02*
X22960000Y-12340000D01*
X22960000Y-14010000D02*
X23140000Y-14190000D01*
X23140000Y-14010000D02*
X22960000Y-14190000D01*
X22960000Y-14010000D02*
X23140000Y-14190000D01*
X23140000Y-14010000D02*
X22960000Y-14190000D01*
X22960000Y-15860000D02*
X23140000Y-16040000D01*
X23140000Y-15860000D02*
X22960000Y-16040000D01*
X22960000Y-15860000D02*
X23140000Y-16040000D01*
X23140000Y-15860000D02*
X22960000Y-16040000D01*
X22960000Y-17710000D02*
X23140000Y-17890000D01*
X23140000Y-17710000D02*
X22960000Y-17890000D01*
X22960000Y-19560000D02*
X23140000Y-19740000D01*
X23140000Y-19560000D02*
X22960000Y-19740000D01*
X22960000Y-19560000D02*
X23140000Y-19740000D01*
X23140000Y-19560000D02*
X22960000Y-19740000D01*
X23022500Y-17710000D02*
X23202500Y-17890000D01*
X23202500Y-17710000D02*
X23022500Y-17890000D01*
D11*
X23175000Y-17720000D02*
X23050000Y-17720000D01*
X23175000Y-17880000D02*
X23050000Y-17880000D01*
X23050000Y-17720000D02*
G75*
G03*
X23050000Y-17880000I0J-80000D01*
G01*
X23175000Y-17880000D02*
G75*
G03*
X23175000Y-17720000I0J80000D01*
G01*
D12*
X24060000Y-12160000D02*
X24240000Y-12340000D01*
X24240000Y-12160000D02*
X24060000Y-12340000D01*
X24060000Y-12160000D02*
X24240000Y-12340000D01*
X24240000Y-12160000D02*
X24060000Y-12340000D01*
X24060000Y-14010000D02*
X24240000Y-14190000D01*
X24240000Y-14010000D02*
X24060000Y-14190000D01*
X24060000Y-14010000D02*
X24240000Y-14190000D01*
X24240000Y-14010000D02*
X24060000Y-14190000D01*
X24060000Y-15860000D02*
X24240000Y-16040000D01*
X24240000Y-15860000D02*
X24060000Y-16040000D01*
X24060000Y-15860000D02*
X24240000Y-16040000D01*
X24240000Y-15860000D02*
X24060000Y-16040000D01*
X24060000Y-17710000D02*
X24240000Y-17890000D01*
X24240000Y-17710000D02*
X24060000Y-17890000D01*
X24060000Y-19560000D02*
X24240000Y-19740000D01*
X24240000Y-19560000D02*
X24060000Y-19740000D01*
X24060000Y-19560000D02*
X24240000Y-19740000D01*
X24240000Y-19560000D02*
X24060000Y-19740000D01*
X24910000Y-10995861D02*
X25090000Y-11175861D01*
X25090000Y-10995861D02*
X24910000Y-11175861D01*
X24910000Y-10995861D02*
X25090000Y-11175861D01*
X25090000Y-10995861D02*
X24910000Y-11175861D01*
X24910000Y-12845861D02*
X25090000Y-13025861D01*
X25090000Y-12845861D02*
X24910000Y-13025861D01*
X24910000Y-12845861D02*
X25090000Y-13025861D01*
X25090000Y-12845861D02*
X24910000Y-13025861D01*
X24910000Y-14695861D02*
X25090000Y-14875861D01*
X25090000Y-14695861D02*
X24910000Y-14875861D01*
X24910000Y-14695861D02*
X25090000Y-14875861D01*
X25090000Y-14695861D02*
X24910000Y-14875861D01*
X24910000Y-16545861D02*
X25090000Y-16725861D01*
X25090000Y-16545861D02*
X24910000Y-16725861D01*
X24910000Y-16545861D02*
X25090000Y-16725861D01*
X25090000Y-16545861D02*
X24910000Y-16725861D01*
X26010000Y-10995861D02*
X26190000Y-11175861D01*
X26190000Y-10995861D02*
X26010000Y-11175861D01*
X26010000Y-10995861D02*
X26190000Y-11175861D01*
X26190000Y-10995861D02*
X26010000Y-11175861D01*
X26010000Y-12845861D02*
X26190000Y-13025861D01*
X26190000Y-12845861D02*
X26010000Y-13025861D01*
X26010000Y-12845861D02*
X26190000Y-13025861D01*
X26190000Y-12845861D02*
X26010000Y-13025861D01*
X26010000Y-14695861D02*
X26190000Y-14875861D01*
X26190000Y-14695861D02*
X26010000Y-14875861D01*
X26010000Y-14695861D02*
X26190000Y-14875861D01*
X26190000Y-14695861D02*
X26010000Y-14875861D01*
X26010000Y-16545861D02*
X26190000Y-16725861D01*
X26190000Y-16545861D02*
X26010000Y-16725861D01*
X26010000Y-16545861D02*
X26190000Y-16725861D01*
X26190000Y-16545861D02*
X26010000Y-16725861D01*
X26860000Y-10502638D02*
X27040000Y-10682638D01*
X27040000Y-10502638D02*
X26860000Y-10682638D01*
X26860000Y-10502638D02*
X27040000Y-10682638D01*
X27040000Y-10502638D02*
X26860000Y-10682638D01*
X26860000Y-12352638D02*
X27040000Y-12532638D01*
X27040000Y-12352638D02*
X26860000Y-12532638D01*
X26860000Y-12352638D02*
X27040000Y-12532638D01*
X27040000Y-12352638D02*
X26860000Y-12532638D01*
X26860000Y-14202638D02*
X27040000Y-14382638D01*
X27040000Y-14202638D02*
X26860000Y-14382638D01*
X26860000Y-14202638D02*
X27040000Y-14382638D01*
X27040000Y-14202638D02*
X26860000Y-14382638D01*
X26860000Y-16052638D02*
X27040000Y-16232638D01*
X27040000Y-16052638D02*
X26860000Y-16232638D01*
X26860000Y-16052638D02*
X27040000Y-16232638D01*
X27040000Y-16052638D02*
X26860000Y-16232638D01*
X27960000Y-10502638D02*
X28140000Y-10682638D01*
X28140000Y-10502638D02*
X27960000Y-10682638D01*
X27960000Y-10502638D02*
X28140000Y-10682638D01*
X28140000Y-10502638D02*
X27960000Y-10682638D01*
X27960000Y-12352638D02*
X28140000Y-12532638D01*
X28140000Y-12352638D02*
X27960000Y-12532638D01*
X27960000Y-12352638D02*
X28140000Y-12532638D01*
X28140000Y-12352638D02*
X27960000Y-12532638D01*
X27960000Y-14202638D02*
X28140000Y-14382638D01*
X28140000Y-14202638D02*
X27960000Y-14382638D01*
X27960000Y-14202638D02*
X28140000Y-14382638D01*
X28140000Y-14202638D02*
X27960000Y-14382638D01*
X27960000Y-16052638D02*
X28140000Y-16232638D01*
X28140000Y-16052638D02*
X27960000Y-16232638D01*
X27960000Y-16052638D02*
X28140000Y-16232638D01*
X28140000Y-16052638D02*
X27960000Y-16232638D01*
X28810000Y-11240406D02*
X28990000Y-11420406D01*
X28990000Y-11240406D02*
X28810000Y-11420406D01*
X28810000Y-11240406D02*
X28990000Y-11420406D01*
X28990000Y-11240406D02*
X28810000Y-11420406D01*
X28810000Y-13090406D02*
X28990000Y-13270406D01*
X28990000Y-13090406D02*
X28810000Y-13270406D01*
X28810000Y-13090406D02*
X28990000Y-13270406D01*
X28990000Y-13090406D02*
X28810000Y-13270406D01*
X28810000Y-14940406D02*
X28990000Y-15120406D01*
X28990000Y-14940406D02*
X28810000Y-15120406D01*
X28810000Y-14940406D02*
X28990000Y-15120406D01*
X28990000Y-14940406D02*
X28810000Y-15120406D01*
X28810000Y-16790406D02*
X28990000Y-16970406D01*
X28990000Y-16790406D02*
X28810000Y-16970406D01*
X28810000Y-16790406D02*
X28990000Y-16970406D01*
X28990000Y-16790406D02*
X28810000Y-16970406D01*
X29910000Y-11240406D02*
X30090000Y-11420406D01*
X30090000Y-11240406D02*
X29910000Y-11420406D01*
X29910000Y-11240406D02*
X30090000Y-11420406D01*
X30090000Y-11240406D02*
X29910000Y-11420406D01*
X29910000Y-13090406D02*
X30090000Y-13270406D01*
X30090000Y-13090406D02*
X29910000Y-13270406D01*
X29910000Y-13090406D02*
X30090000Y-13270406D01*
X30090000Y-13090406D02*
X29910000Y-13270406D01*
X29910000Y-14940406D02*
X30090000Y-15120406D01*
X30090000Y-14940406D02*
X29910000Y-15120406D01*
X29910000Y-14940406D02*
X30090000Y-15120406D01*
X30090000Y-14940406D02*
X29910000Y-15120406D01*
X29910000Y-16790406D02*
X30090000Y-16970406D01*
X30090000Y-16790406D02*
X29910000Y-16970406D01*
X29910000Y-16790406D02*
X30090000Y-16970406D01*
X30090000Y-16790406D02*
X29910000Y-16970406D01*
X30760000Y-11489142D02*
X30940000Y-11669142D01*
X30940000Y-11489142D02*
X30760000Y-11669142D01*
X30760000Y-11489142D02*
X30940000Y-11669142D01*
X30940000Y-11489142D02*
X30760000Y-11669142D01*
X30760000Y-13339142D02*
X30940000Y-13519142D01*
X30940000Y-13339142D02*
X30760000Y-13519142D01*
X30760000Y-13339142D02*
X30940000Y-13519142D01*
X30940000Y-13339142D02*
X30760000Y-13519142D01*
X30760000Y-15189142D02*
X30940000Y-15369142D01*
X30940000Y-15189142D02*
X30760000Y-15369142D01*
X30760000Y-15189142D02*
X30940000Y-15369142D01*
X30940000Y-15189142D02*
X30760000Y-15369142D01*
X30760000Y-17039142D02*
X30940000Y-17219142D01*
X30940000Y-17039142D02*
X30760000Y-17219142D01*
X30760000Y-17039142D02*
X30940000Y-17219142D01*
X30940000Y-17039142D02*
X30760000Y-17219142D01*
X30760000Y-18889142D02*
X30940000Y-19069142D01*
X30940000Y-18889142D02*
X30760000Y-19069142D01*
X30760000Y-18889142D02*
X30940000Y-19069142D01*
X30940000Y-18889142D02*
X30760000Y-19069142D01*
X31860000Y-11489142D02*
X32040000Y-11669142D01*
X32040000Y-11489142D02*
X31860000Y-11669142D01*
X31860000Y-11489142D02*
X32040000Y-11669142D01*
X32040000Y-11489142D02*
X31860000Y-11669142D01*
X31860000Y-13339142D02*
X32040000Y-13519142D01*
X32040000Y-13339142D02*
X31860000Y-13519142D01*
X31860000Y-13339142D02*
X32040000Y-13519142D01*
X32040000Y-13339142D02*
X31860000Y-13519142D01*
X31860000Y-15189142D02*
X32040000Y-15369142D01*
X32040000Y-15189142D02*
X31860000Y-15369142D01*
X31860000Y-15189142D02*
X32040000Y-15369142D01*
X32040000Y-15189142D02*
X31860000Y-15369142D01*
X31860000Y-17039142D02*
X32040000Y-17219142D01*
X32040000Y-17039142D02*
X31860000Y-17219142D01*
X31860000Y-17039142D02*
X32040000Y-17219142D01*
X32040000Y-17039142D02*
X31860000Y-17219142D01*
X31860000Y-18889142D02*
X32040000Y-19069142D01*
X32040000Y-18889142D02*
X31860000Y-19069142D01*
X31860000Y-18889142D02*
X32040000Y-19069142D01*
X32040000Y-18889142D02*
X31860000Y-19069142D01*
D13*
X11245884Y-12251000D02*
G75*
G03*
X11245884Y-12251000I-160000J0D01*
G01*
X11245884Y-12251000D02*
G75*
G03*
X11245884Y-12251000I-160000J0D01*
G01*
X11245884Y-15025000D02*
G75*
G03*
X11245884Y-15025000I-160000J0D01*
G01*
X11245884Y-15950000D02*
G75*
G03*
X11245884Y-15950000I-160000J0D01*
G01*
X11245884Y-17800000D02*
G75*
G03*
X11245884Y-17800000I-160000J0D01*
G01*
X11245884Y-18725000D02*
G75*
G03*
X11245884Y-18725000I-160000J0D01*
G01*
X11245884Y-19650000D02*
G75*
G03*
X11245884Y-19650000I-160000J0D01*
G01*
X11246884Y-14100000D02*
G75*
G03*
X11246884Y-14100000I-160000J0D01*
G01*
X13195884Y-12250000D02*
G75*
G03*
X13195884Y-12250000I-160000J0D01*
G01*
X13195884Y-12250000D02*
G75*
G03*
X13195884Y-12250000I-160000J0D01*
G01*
X13195884Y-14100000D02*
G75*
G03*
X13195884Y-14100000I-160000J0D01*
G01*
X13195884Y-14100000D02*
G75*
G03*
X13195884Y-14100000I-160000J0D01*
G01*
X13195884Y-15950000D02*
G75*
G03*
X13195884Y-15950000I-160000J0D01*
G01*
X13195884Y-15950000D02*
G75*
G03*
X13195884Y-15950000I-160000J0D01*
G01*
X13195884Y-17800000D02*
G75*
G03*
X13195884Y-17800000I-160000J0D01*
G01*
X13195884Y-17800000D02*
G75*
G03*
X13195884Y-17800000I-160000J0D01*
G01*
X13195884Y-19650000D02*
G75*
G03*
X13195884Y-19650000I-160000J0D01*
G01*
X13195884Y-19650000D02*
G75*
G03*
X13195884Y-19650000I-160000J0D01*
G01*
X15145884Y-12250000D02*
G75*
G03*
X15145884Y-12250000I-160000J0D01*
G01*
X15145884Y-12250000D02*
G75*
G03*
X15145884Y-12250000I-160000J0D01*
G01*
X15145884Y-14100000D02*
G75*
G03*
X15145884Y-14100000I-160000J0D01*
G01*
X15145884Y-14100000D02*
G75*
G03*
X15145884Y-14100000I-160000J0D01*
G01*
X15145884Y-15950000D02*
G75*
G03*
X15145884Y-15950000I-160000J0D01*
G01*
X15145884Y-15950000D02*
G75*
G03*
X15145884Y-15950000I-160000J0D01*
G01*
X15145884Y-17800000D02*
G75*
G03*
X15145884Y-17800000I-160000J0D01*
G01*
X15145884Y-17800000D02*
G75*
G03*
X15145884Y-17800000I-160000J0D01*
G01*
X15145884Y-19650000D02*
G75*
G03*
X15145884Y-19650000I-160000J0D01*
G01*
X16120884Y-19650000D02*
G75*
G03*
X16120884Y-19650000I-160000J0D01*
G01*
X17095884Y-12250000D02*
G75*
G03*
X17095884Y-12250000I-160000J0D01*
G01*
X17095884Y-12250000D02*
G75*
G03*
X17095884Y-12250000I-160000J0D01*
G01*
X17095884Y-14100000D02*
G75*
G03*
X17095884Y-14100000I-160000J0D01*
G01*
X17095884Y-14100000D02*
G75*
G03*
X17095884Y-14100000I-160000J0D01*
G01*
X17095884Y-15950000D02*
G75*
G03*
X17095884Y-15950000I-160000J0D01*
G01*
X17095884Y-15950000D02*
G75*
G03*
X17095884Y-15950000I-160000J0D01*
G01*
X17095884Y-17800000D02*
G75*
G03*
X17095884Y-17800000I-160000J0D01*
G01*
X17095884Y-17800000D02*
G75*
G03*
X17095884Y-17800000I-160000J0D01*
G01*
X17095884Y-19650000D02*
G75*
G03*
X17095884Y-19650000I-160000J0D01*
G01*
X19860000Y-12250000D02*
G75*
G03*
X19860000Y-12250000I-160000J0D01*
G01*
X19860000Y-14100000D02*
G75*
G03*
X19860000Y-14100000I-160000J0D01*
G01*
X19860000Y-14100000D02*
G75*
G03*
X19860000Y-14100000I-160000J0D01*
G01*
X19860000Y-15950000D02*
G75*
G03*
X19860000Y-15950000I-160000J0D01*
G01*
X19860000Y-15950000D02*
G75*
G03*
X19860000Y-15950000I-160000J0D01*
G01*
X19860000Y-17800000D02*
G75*
G03*
X19860000Y-17800000I-160000J0D01*
G01*
X19860000Y-17800000D02*
G75*
G03*
X19860000Y-17800000I-160000J0D01*
G01*
X19860000Y-19650000D02*
G75*
G03*
X19860000Y-19650000I-160000J0D01*
G01*
X19860000Y-19650000D02*
G75*
G03*
X19860000Y-19650000I-160000J0D01*
G01*
X20835000Y-12250000D02*
G75*
G03*
X20835000Y-12250000I-160000J0D01*
G01*
X21810000Y-12250000D02*
G75*
G03*
X21810000Y-12250000I-160000J0D01*
G01*
X21810000Y-14100000D02*
G75*
G03*
X21810000Y-14100000I-160000J0D01*
G01*
X21810000Y-14100000D02*
G75*
G03*
X21810000Y-14100000I-160000J0D01*
G01*
X21810000Y-15950000D02*
G75*
G03*
X21810000Y-15950000I-160000J0D01*
G01*
X21810000Y-15950000D02*
G75*
G03*
X21810000Y-15950000I-160000J0D01*
G01*
X21810000Y-17800000D02*
G75*
G03*
X21810000Y-17800000I-160000J0D01*
G01*
X21810000Y-19650000D02*
G75*
G03*
X21810000Y-19650000I-160000J0D01*
G01*
X21810000Y-19650000D02*
G75*
G03*
X21810000Y-19650000I-160000J0D01*
G01*
X22785000Y-17800000D02*
G75*
G03*
X22785000Y-17800000I-160000J0D01*
G01*
X23760000Y-12250000D02*
G75*
G03*
X23760000Y-12250000I-160000J0D01*
G01*
X23760000Y-12250000D02*
G75*
G03*
X23760000Y-12250000I-160000J0D01*
G01*
X23760000Y-14100000D02*
G75*
G03*
X23760000Y-14100000I-160000J0D01*
G01*
X23760000Y-14100000D02*
G75*
G03*
X23760000Y-14100000I-160000J0D01*
G01*
X23760000Y-15950000D02*
G75*
G03*
X23760000Y-15950000I-160000J0D01*
G01*
X23760000Y-15950000D02*
G75*
G03*
X23760000Y-15950000I-160000J0D01*
G01*
X23760000Y-17800000D02*
G75*
G03*
X23760000Y-17800000I-160000J0D01*
G01*
X23760000Y-19650000D02*
G75*
G03*
X23760000Y-19650000I-160000J0D01*
G01*
X23760000Y-19650000D02*
G75*
G03*
X23760000Y-19650000I-160000J0D01*
G01*
X25710000Y-11085861D02*
G75*
G03*
X25710000Y-11085861I-160000J0D01*
G01*
X25710000Y-11085861D02*
G75*
G03*
X25710000Y-11085861I-160000J0D01*
G01*
X25710000Y-12935861D02*
G75*
G03*
X25710000Y-12935861I-160000J0D01*
G01*
X25710000Y-12935861D02*
G75*
G03*
X25710000Y-12935861I-160000J0D01*
G01*
X25710000Y-14785861D02*
G75*
G03*
X25710000Y-14785861I-160000J0D01*
G01*
X25710000Y-14785861D02*
G75*
G03*
X25710000Y-14785861I-160000J0D01*
G01*
X25710000Y-16635861D02*
G75*
G03*
X25710000Y-16635861I-160000J0D01*
G01*
X25710000Y-16635861D02*
G75*
G03*
X25710000Y-16635861I-160000J0D01*
G01*
X27660000Y-10592638D02*
G75*
G03*
X27660000Y-10592638I-160000J0D01*
G01*
X27660000Y-10592638D02*
G75*
G03*
X27660000Y-10592638I-160000J0D01*
G01*
X27660000Y-12442638D02*
G75*
G03*
X27660000Y-12442638I-160000J0D01*
G01*
X27660000Y-12442638D02*
G75*
G03*
X27660000Y-12442638I-160000J0D01*
G01*
X27660000Y-14292638D02*
G75*
G03*
X27660000Y-14292638I-160000J0D01*
G01*
X27660000Y-14292638D02*
G75*
G03*
X27660000Y-14292638I-160000J0D01*
G01*
X27660000Y-16142638D02*
G75*
G03*
X27660000Y-16142638I-160000J0D01*
G01*
X27660000Y-16142638D02*
G75*
G03*
X27660000Y-16142638I-160000J0D01*
G01*
X29610000Y-11330406D02*
G75*
G03*
X29610000Y-11330406I-160000J0D01*
G01*
X29610000Y-11330406D02*
G75*
G03*
X29610000Y-11330406I-160000J0D01*
G01*
X29610000Y-13180406D02*
G75*
G03*
X29610000Y-13180406I-160000J0D01*
G01*
X29610000Y-13180406D02*
G75*
G03*
X29610000Y-13180406I-160000J0D01*
G01*
X29610000Y-15030406D02*
G75*
G03*
X29610000Y-15030406I-160000J0D01*
G01*
X29610000Y-15030406D02*
G75*
G03*
X29610000Y-15030406I-160000J0D01*
G01*
X29610000Y-16880406D02*
G75*
G03*
X29610000Y-16880406I-160000J0D01*
G01*
X29610000Y-16880406D02*
G75*
G03*
X29610000Y-16880406I-160000J0D01*
G01*
X31560000Y-11579142D02*
G75*
G03*
X31560000Y-11579142I-160000J0D01*
G01*
X31560000Y-11579142D02*
G75*
G03*
X31560000Y-11579142I-160000J0D01*
G01*
X31560000Y-13429142D02*
G75*
G03*
X31560000Y-13429142I-160000J0D01*
G01*
X31560000Y-13429142D02*
G75*
G03*
X31560000Y-13429142I-160000J0D01*
G01*
X31560000Y-15279142D02*
G75*
G03*
X31560000Y-15279142I-160000J0D01*
G01*
X31560000Y-15279142D02*
G75*
G03*
X31560000Y-15279142I-160000J0D01*
G01*
X31560000Y-17129142D02*
G75*
G03*
X31560000Y-17129142I-160000J0D01*
G01*
X31560000Y-17129142D02*
G75*
G03*
X31560000Y-17129142I-160000J0D01*
G01*
X31560000Y-18979142D02*
G75*
G03*
X31560000Y-18979142I-160000J0D01*
G01*
X31560000Y-18979142D02*
G75*
G03*
X31560000Y-18979142I-160000J0D01*
G01*
D11*
X10252619Y-20975476D02*
X10252619Y-20775476D01*
X10300238Y-20775476D01*
X10328810Y-20785000D01*
X10347857Y-20804048D01*
X10357381Y-20823095D01*
X10366905Y-20861190D01*
X10366905Y-20889762D01*
X10357381Y-20927857D01*
X10347857Y-20946905D01*
X10328810Y-20965952D01*
X10300238Y-20975476D01*
X10252619Y-20975476D01*
X10452619Y-20975476D02*
X10452619Y-20842143D01*
X10452619Y-20880238D02*
X10462143Y-20861190D01*
X10471667Y-20851667D01*
X10490714Y-20842143D01*
X10509762Y-20842143D01*
X10576429Y-20975476D02*
X10576429Y-20842143D01*
X10576429Y-20775476D02*
X10566905Y-20785000D01*
X10576429Y-20794524D01*
X10585952Y-20785000D01*
X10576429Y-20775476D01*
X10576429Y-20794524D01*
X10700238Y-20975476D02*
X10681190Y-20965952D01*
X10671667Y-20946905D01*
X10671667Y-20775476D01*
X10805000Y-20975476D02*
X10785952Y-20965952D01*
X10776429Y-20946905D01*
X10776429Y-20775476D01*
X11033571Y-20975476D02*
X11033571Y-20775476D01*
X11100238Y-20918333D01*
X11166905Y-20775476D01*
X11166905Y-20975476D01*
X11347857Y-20975476D02*
X11347857Y-20870714D01*
X11338333Y-20851667D01*
X11319286Y-20842143D01*
X11281190Y-20842143D01*
X11262143Y-20851667D01*
X11347857Y-20965952D02*
X11328809Y-20975476D01*
X11281190Y-20975476D01*
X11262143Y-20965952D01*
X11252619Y-20946905D01*
X11252619Y-20927857D01*
X11262143Y-20908810D01*
X11281190Y-20899286D01*
X11328809Y-20899286D01*
X11347857Y-20889762D01*
X11443095Y-20842143D02*
X11443095Y-21042143D01*
X11443095Y-20851667D02*
X11462143Y-20842143D01*
X11500238Y-20842143D01*
X11519286Y-20851667D01*
X11528809Y-20861190D01*
X11538333Y-20880238D01*
X11538333Y-20937381D01*
X11528809Y-20956429D01*
X11519286Y-20965952D01*
X11500238Y-20975476D01*
X11462143Y-20975476D01*
X11443095Y-20965952D01*
X11624048Y-20956429D02*
X11633571Y-20965952D01*
X11624048Y-20975476D01*
X11614524Y-20965952D01*
X11624048Y-20956429D01*
X11624048Y-20975476D01*
X11624048Y-20851667D02*
X11633571Y-20861190D01*
X11624048Y-20870714D01*
X11614524Y-20861190D01*
X11624048Y-20851667D01*
X11624048Y-20870714D01*
D12*
X9815000Y-21215000D02*
X9995000Y-21395000D01*
X9995000Y-21215000D02*
X9815000Y-21395000D01*
D11*
X10357381Y-21395476D02*
X10243095Y-21395476D01*
X10300238Y-21395476D02*
X10300238Y-21195476D01*
X10281190Y-21224048D01*
X10262143Y-21243095D01*
X10243095Y-21252619D01*
X10443095Y-21376429D02*
X10452619Y-21385952D01*
X10443095Y-21395476D01*
X10433571Y-21385952D01*
X10443095Y-21376429D01*
X10443095Y-21395476D01*
X10566905Y-21281190D02*
X10547857Y-21271667D01*
X10538333Y-21262143D01*
X10528810Y-21243095D01*
X10528810Y-21233571D01*
X10538333Y-21214524D01*
X10547857Y-21205000D01*
X10566905Y-21195476D01*
X10605000Y-21195476D01*
X10624048Y-21205000D01*
X10633571Y-21214524D01*
X10643095Y-21233571D01*
X10643095Y-21243095D01*
X10633571Y-21262143D01*
X10624048Y-21271667D01*
X10605000Y-21281190D01*
X10566905Y-21281190D01*
X10547857Y-21290714D01*
X10538333Y-21300238D01*
X10528810Y-21319286D01*
X10528810Y-21357381D01*
X10538333Y-21376429D01*
X10547857Y-21385952D01*
X10566905Y-21395476D01*
X10605000Y-21395476D01*
X10624048Y-21385952D01*
X10633571Y-21376429D01*
X10643095Y-21357381D01*
X10643095Y-21319286D01*
X10633571Y-21300238D01*
X10624048Y-21290714D01*
X10605000Y-21281190D01*
X10766905Y-21195476D02*
X10785952Y-21195476D01*
X10805000Y-21205000D01*
X10814524Y-21214524D01*
X10824048Y-21233571D01*
X10833571Y-21271667D01*
X10833571Y-21319286D01*
X10824048Y-21357381D01*
X10814524Y-21376429D01*
X10805000Y-21385952D01*
X10785952Y-21395476D01*
X10766905Y-21395476D01*
X10747857Y-21385952D01*
X10738333Y-21376429D01*
X10728810Y-21357381D01*
X10719286Y-21319286D01*
X10719286Y-21271667D01*
X10728810Y-21233571D01*
X10738333Y-21214524D01*
X10747857Y-21205000D01*
X10766905Y-21195476D01*
X10957381Y-21195476D02*
X10976429Y-21195476D01*
X10995476Y-21205000D01*
X11005000Y-21214524D01*
X11014524Y-21233571D01*
X11024048Y-21271667D01*
X11024048Y-21319286D01*
X11014524Y-21357381D01*
X11005000Y-21376429D01*
X10995476Y-21385952D01*
X10976429Y-21395476D01*
X10957381Y-21395476D01*
X10938333Y-21385952D01*
X10928810Y-21376429D01*
X10919286Y-21357381D01*
X10909762Y-21319286D01*
X10909762Y-21271667D01*
X10919286Y-21233571D01*
X10928810Y-21214524D01*
X10938333Y-21205000D01*
X10957381Y-21195476D01*
X11109762Y-21395476D02*
X11109762Y-21262143D01*
X11109762Y-21281190D02*
X11119286Y-21271667D01*
X11138333Y-21262143D01*
X11166905Y-21262143D01*
X11185952Y-21271667D01*
X11195476Y-21290714D01*
X11195476Y-21395476D01*
X11195476Y-21290714D02*
X11205000Y-21271667D01*
X11224048Y-21262143D01*
X11252619Y-21262143D01*
X11271667Y-21271667D01*
X11281190Y-21290714D01*
X11281190Y-21395476D01*
X11376428Y-21395476D02*
X11376428Y-21262143D01*
X11376428Y-21281190D02*
X11385952Y-21271667D01*
X11405000Y-21262143D01*
X11433571Y-21262143D01*
X11452619Y-21271667D01*
X11462143Y-21290714D01*
X11462143Y-21395476D01*
X11462143Y-21290714D02*
X11471667Y-21271667D01*
X11490714Y-21262143D01*
X11519286Y-21262143D01*
X11538333Y-21271667D01*
X11547857Y-21290714D01*
X11547857Y-21395476D01*
X11938333Y-21185952D02*
X11766905Y-21443095D01*
X12195476Y-21195476D02*
X12214524Y-21195476D01*
X12233571Y-21205000D01*
X12243095Y-21214524D01*
X12252619Y-21233571D01*
X12262143Y-21271667D01*
X12262143Y-21319286D01*
X12252619Y-21357381D01*
X12243095Y-21376429D01*
X12233571Y-21385952D01*
X12214524Y-21395476D01*
X12195476Y-21395476D01*
X12176428Y-21385952D01*
X12166905Y-21376429D01*
X12157381Y-21357381D01*
X12147857Y-21319286D01*
X12147857Y-21271667D01*
X12157381Y-21233571D01*
X12166905Y-21214524D01*
X12176428Y-21205000D01*
X12195476Y-21195476D01*
X12347857Y-21376429D02*
X12357381Y-21385952D01*
X12347857Y-21395476D01*
X12338333Y-21385952D01*
X12347857Y-21376429D01*
X12347857Y-21395476D01*
X12481190Y-21195476D02*
X12500238Y-21195476D01*
X12519286Y-21205000D01*
X12528809Y-21214524D01*
X12538333Y-21233571D01*
X12547857Y-21271667D01*
X12547857Y-21319286D01*
X12538333Y-21357381D01*
X12528809Y-21376429D01*
X12519286Y-21385952D01*
X12500238Y-21395476D01*
X12481190Y-21395476D01*
X12462143Y-21385952D01*
X12452619Y-21376429D01*
X12443095Y-21357381D01*
X12433571Y-21319286D01*
X12433571Y-21271667D01*
X12443095Y-21233571D01*
X12452619Y-21214524D01*
X12462143Y-21205000D01*
X12481190Y-21195476D01*
X12614524Y-21195476D02*
X12747857Y-21195476D01*
X12662143Y-21395476D01*
X12862143Y-21195476D02*
X12881190Y-21195476D01*
X12900238Y-21205000D01*
X12909762Y-21214524D01*
X12919286Y-21233571D01*
X12928809Y-21271667D01*
X12928809Y-21319286D01*
X12919286Y-21357381D01*
X12909762Y-21376429D01*
X12900238Y-21385952D01*
X12881190Y-21395476D01*
X12862143Y-21395476D01*
X12843095Y-21385952D01*
X12833571Y-21376429D01*
X12824048Y-21357381D01*
X12814524Y-21319286D01*
X12814524Y-21271667D01*
X12824048Y-21233571D01*
X12833571Y-21214524D01*
X12843095Y-21205000D01*
X12862143Y-21195476D01*
X13024048Y-21395476D02*
X13062143Y-21395476D01*
X13081190Y-21385952D01*
X13090714Y-21376429D01*
X13109762Y-21347857D01*
X13119286Y-21309762D01*
X13119286Y-21233571D01*
X13109762Y-21214524D01*
X13100238Y-21205000D01*
X13081190Y-21195476D01*
X13043095Y-21195476D01*
X13024048Y-21205000D01*
X13014524Y-21214524D01*
X13005000Y-21233571D01*
X13005000Y-21281190D01*
X13014524Y-21300238D01*
X13024048Y-21309762D01*
X13043095Y-21319286D01*
X13081190Y-21319286D01*
X13100238Y-21309762D01*
X13109762Y-21300238D01*
X13119286Y-21281190D01*
X13195476Y-21195476D02*
X13195476Y-21233571D01*
X13271667Y-21195476D02*
X13271667Y-21233571D01*
X13566905Y-21471667D02*
X13557381Y-21462143D01*
X13538333Y-21433571D01*
X13528809Y-21414524D01*
X13519286Y-21385952D01*
X13509762Y-21338333D01*
X13509762Y-21300238D01*
X13519286Y-21252619D01*
X13528809Y-21224048D01*
X13538333Y-21205000D01*
X13557381Y-21176429D01*
X13566905Y-21166905D01*
X13747857Y-21395476D02*
X13633571Y-21395476D01*
X13690714Y-21395476D02*
X13690714Y-21195476D01*
X13671667Y-21224048D01*
X13652619Y-21243095D01*
X13633571Y-21252619D01*
X13843095Y-21395476D02*
X13881190Y-21395476D01*
X13900238Y-21385952D01*
X13909762Y-21376429D01*
X13928809Y-21347857D01*
X13938333Y-21309762D01*
X13938333Y-21233571D01*
X13928809Y-21214524D01*
X13919286Y-21205000D01*
X13900238Y-21195476D01*
X13862143Y-21195476D01*
X13843095Y-21205000D01*
X13833571Y-21214524D01*
X13824048Y-21233571D01*
X13824048Y-21281190D01*
X13833571Y-21300238D01*
X13843095Y-21309762D01*
X13862143Y-21319286D01*
X13900238Y-21319286D01*
X13919286Y-21309762D01*
X13928809Y-21300238D01*
X13938333Y-21281190D01*
X14014524Y-21214524D02*
X14024048Y-21205000D01*
X14043095Y-21195476D01*
X14090714Y-21195476D01*
X14109762Y-21205000D01*
X14119286Y-21214524D01*
X14128809Y-21233571D01*
X14128809Y-21252619D01*
X14119286Y-21281190D01*
X14005000Y-21395476D01*
X14128809Y-21395476D01*
X14366905Y-21395476D02*
X14366905Y-21195476D01*
X14452619Y-21395476D02*
X14452619Y-21290714D01*
X14443095Y-21271667D01*
X14424048Y-21262143D01*
X14395476Y-21262143D01*
X14376428Y-21271667D01*
X14366905Y-21281190D01*
X14576428Y-21395476D02*
X14557381Y-21385952D01*
X14547857Y-21376429D01*
X14538333Y-21357381D01*
X14538333Y-21300238D01*
X14547857Y-21281190D01*
X14557381Y-21271667D01*
X14576428Y-21262143D01*
X14605000Y-21262143D01*
X14624048Y-21271667D01*
X14633571Y-21281190D01*
X14643095Y-21300238D01*
X14643095Y-21357381D01*
X14633571Y-21376429D01*
X14624048Y-21385952D01*
X14605000Y-21395476D01*
X14576428Y-21395476D01*
X14757381Y-21395476D02*
X14738333Y-21385952D01*
X14728809Y-21366905D01*
X14728809Y-21195476D01*
X14909762Y-21385952D02*
X14890714Y-21395476D01*
X14852619Y-21395476D01*
X14833571Y-21385952D01*
X14824048Y-21366905D01*
X14824048Y-21290714D01*
X14833571Y-21271667D01*
X14852619Y-21262143D01*
X14890714Y-21262143D01*
X14909762Y-21271667D01*
X14919286Y-21290714D01*
X14919286Y-21309762D01*
X14824048Y-21328810D01*
X14995476Y-21385952D02*
X15014524Y-21395476D01*
X15052619Y-21395476D01*
X15071667Y-21385952D01*
X15081190Y-21366905D01*
X15081190Y-21357381D01*
X15071667Y-21338333D01*
X15052619Y-21328810D01*
X15024048Y-21328810D01*
X15005000Y-21319286D01*
X14995476Y-21300238D01*
X14995476Y-21290714D01*
X15005000Y-21271667D01*
X15024048Y-21262143D01*
X15052619Y-21262143D01*
X15071667Y-21271667D01*
X15319286Y-21319286D02*
X15471667Y-21319286D01*
X15395476Y-21395476D02*
X15395476Y-21243095D01*
X15805000Y-21195476D02*
X15766905Y-21195476D01*
X15747857Y-21205000D01*
X15738333Y-21214524D01*
X15719286Y-21243095D01*
X15709762Y-21281190D01*
X15709762Y-21357381D01*
X15719286Y-21376429D01*
X15728809Y-21385952D01*
X15747857Y-21395476D01*
X15785952Y-21395476D01*
X15805000Y-21385952D01*
X15814524Y-21376429D01*
X15824048Y-21357381D01*
X15824048Y-21309762D01*
X15814524Y-21290714D01*
X15805000Y-21281190D01*
X15785952Y-21271667D01*
X15747857Y-21271667D01*
X15728809Y-21281190D01*
X15719286Y-21290714D01*
X15709762Y-21309762D01*
X16052619Y-21385952D02*
X16071667Y-21395476D01*
X16109762Y-21395476D01*
X16128809Y-21385952D01*
X16138333Y-21366905D01*
X16138333Y-21357381D01*
X16128809Y-21338333D01*
X16109762Y-21328810D01*
X16081190Y-21328810D01*
X16062143Y-21319286D01*
X16052619Y-21300238D01*
X16052619Y-21290714D01*
X16062143Y-21271667D01*
X16081190Y-21262143D01*
X16109762Y-21262143D01*
X16128809Y-21271667D01*
X16252619Y-21395476D02*
X16233571Y-21385952D01*
X16224048Y-21366905D01*
X16224048Y-21195476D01*
X16357381Y-21395476D02*
X16338333Y-21385952D01*
X16328809Y-21376429D01*
X16319286Y-21357381D01*
X16319286Y-21300238D01*
X16328809Y-21281190D01*
X16338333Y-21271667D01*
X16357381Y-21262143D01*
X16385952Y-21262143D01*
X16405000Y-21271667D01*
X16414524Y-21281190D01*
X16424048Y-21300238D01*
X16424048Y-21357381D01*
X16414524Y-21376429D01*
X16405000Y-21385952D01*
X16385952Y-21395476D01*
X16357381Y-21395476D01*
X16481190Y-21262143D02*
X16557381Y-21262143D01*
X16509762Y-21195476D02*
X16509762Y-21366905D01*
X16519286Y-21385952D01*
X16538333Y-21395476D01*
X16557381Y-21395476D01*
X16614524Y-21385952D02*
X16633571Y-21395476D01*
X16671667Y-21395476D01*
X16690714Y-21385952D01*
X16700238Y-21366905D01*
X16700238Y-21357381D01*
X16690714Y-21338333D01*
X16671667Y-21328810D01*
X16643095Y-21328810D01*
X16624048Y-21319286D01*
X16614524Y-21300238D01*
X16614524Y-21290714D01*
X16624048Y-21271667D01*
X16643095Y-21262143D01*
X16671667Y-21262143D01*
X16690714Y-21271667D01*
X16766905Y-21471667D02*
X16776428Y-21462143D01*
X16795476Y-21433571D01*
X16805000Y-21414524D01*
X16814524Y-21385952D01*
X16824048Y-21338333D01*
X16824048Y-21300238D01*
X16814524Y-21252619D01*
X16805000Y-21224048D01*
X16795476Y-21205000D01*
X16776428Y-21176429D01*
X16766905Y-21166905D01*
X17128810Y-21471667D02*
X17119286Y-21462143D01*
X17100238Y-21433571D01*
X17090714Y-21414524D01*
X17081190Y-21385952D01*
X17071667Y-21338333D01*
X17071667Y-21300238D01*
X17081190Y-21252619D01*
X17090714Y-21224048D01*
X17100238Y-21205000D01*
X17119286Y-21176429D01*
X17128810Y-21166905D01*
X17205000Y-21262143D02*
X17205000Y-21395476D01*
X17205000Y-21281190D02*
X17214524Y-21271667D01*
X17233571Y-21262143D01*
X17262143Y-21262143D01*
X17281190Y-21271667D01*
X17290714Y-21290714D01*
X17290714Y-21395476D01*
X17414524Y-21395476D02*
X17395476Y-21385952D01*
X17385952Y-21376429D01*
X17376429Y-21357381D01*
X17376429Y-21300238D01*
X17385952Y-21281190D01*
X17395476Y-21271667D01*
X17414524Y-21262143D01*
X17443095Y-21262143D01*
X17462143Y-21271667D01*
X17471667Y-21281190D01*
X17481190Y-21300238D01*
X17481190Y-21357381D01*
X17471667Y-21376429D01*
X17462143Y-21385952D01*
X17443095Y-21395476D01*
X17414524Y-21395476D01*
X17538333Y-21262143D02*
X17614524Y-21262143D01*
X17566905Y-21195476D02*
X17566905Y-21366905D01*
X17576429Y-21385952D01*
X17595476Y-21395476D01*
X17614524Y-21395476D01*
X17833571Y-21262143D02*
X17833571Y-21462143D01*
X17833571Y-21271667D02*
X17852619Y-21262143D01*
X17890714Y-21262143D01*
X17909762Y-21271667D01*
X17919286Y-21281190D01*
X17928810Y-21300238D01*
X17928810Y-21357381D01*
X17919286Y-21376429D01*
X17909762Y-21385952D01*
X17890714Y-21395476D01*
X17852619Y-21395476D01*
X17833571Y-21385952D01*
X18043095Y-21395476D02*
X18024048Y-21385952D01*
X18014524Y-21366905D01*
X18014524Y-21195476D01*
X18205000Y-21395476D02*
X18205000Y-21290714D01*
X18195476Y-21271667D01*
X18176429Y-21262143D01*
X18138333Y-21262143D01*
X18119286Y-21271667D01*
X18205000Y-21385952D02*
X18185952Y-21395476D01*
X18138333Y-21395476D01*
X18119286Y-21385952D01*
X18109762Y-21366905D01*
X18109762Y-21347857D01*
X18119286Y-21328810D01*
X18138333Y-21319286D01*
X18185952Y-21319286D01*
X18205000Y-21309762D01*
X18271667Y-21262143D02*
X18347857Y-21262143D01*
X18300238Y-21195476D02*
X18300238Y-21366905D01*
X18309762Y-21385952D01*
X18328810Y-21395476D01*
X18347857Y-21395476D01*
X18490714Y-21385952D02*
X18471667Y-21395476D01*
X18433571Y-21395476D01*
X18414524Y-21385952D01*
X18405000Y-21366905D01*
X18405000Y-21290714D01*
X18414524Y-21271667D01*
X18433571Y-21262143D01*
X18471667Y-21262143D01*
X18490714Y-21271667D01*
X18500238Y-21290714D01*
X18500238Y-21309762D01*
X18405000Y-21328810D01*
X18671667Y-21395476D02*
X18671667Y-21195476D01*
X18671667Y-21385952D02*
X18652619Y-21395476D01*
X18614524Y-21395476D01*
X18595476Y-21385952D01*
X18585952Y-21376429D01*
X18576429Y-21357381D01*
X18576429Y-21300238D01*
X18585952Y-21281190D01*
X18595476Y-21271667D01*
X18614524Y-21262143D01*
X18652619Y-21262143D01*
X18671667Y-21271667D01*
X18747857Y-21471667D02*
X18757381Y-21462143D01*
X18776429Y-21433571D01*
X18785952Y-21414524D01*
X18795476Y-21385952D01*
X18805000Y-21338333D01*
X18805000Y-21300238D01*
X18795476Y-21252619D01*
X18785952Y-21224048D01*
X18776429Y-21205000D01*
X18757381Y-21176429D01*
X18747857Y-21166905D01*
X9995000Y-21605000D02*
G75*
G03*
X9995000Y-21605000I-100000J0D01*
G01*
X10233571Y-21495476D02*
X10357381Y-21495476D01*
X10290714Y-21571667D01*
X10319286Y-21571667D01*
X10338333Y-21581190D01*
X10347857Y-21590714D01*
X10357381Y-21609762D01*
X10357381Y-21657381D01*
X10347857Y-21676429D01*
X10338333Y-21685952D01*
X10319286Y-21695476D01*
X10262143Y-21695476D01*
X10243095Y-21685952D01*
X10233571Y-21676429D01*
X10443095Y-21676429D02*
X10452619Y-21685952D01*
X10443095Y-21695476D01*
X10433571Y-21685952D01*
X10443095Y-21676429D01*
X10443095Y-21695476D01*
X10528810Y-21514524D02*
X10538333Y-21505000D01*
X10557381Y-21495476D01*
X10605000Y-21495476D01*
X10624048Y-21505000D01*
X10633571Y-21514524D01*
X10643095Y-21533571D01*
X10643095Y-21552619D01*
X10633571Y-21581190D01*
X10519286Y-21695476D01*
X10643095Y-21695476D01*
X10766905Y-21495476D02*
X10785952Y-21495476D01*
X10805000Y-21505000D01*
X10814524Y-21514524D01*
X10824048Y-21533571D01*
X10833571Y-21571667D01*
X10833571Y-21619286D01*
X10824048Y-21657381D01*
X10814524Y-21676429D01*
X10805000Y-21685952D01*
X10785952Y-21695476D01*
X10766905Y-21695476D01*
X10747857Y-21685952D01*
X10738333Y-21676429D01*
X10728810Y-21657381D01*
X10719286Y-21619286D01*
X10719286Y-21571667D01*
X10728810Y-21533571D01*
X10738333Y-21514524D01*
X10747857Y-21505000D01*
X10766905Y-21495476D01*
X10957381Y-21495476D02*
X10976429Y-21495476D01*
X10995476Y-21505000D01*
X11005000Y-21514524D01*
X11014524Y-21533571D01*
X11024048Y-21571667D01*
X11024048Y-21619286D01*
X11014524Y-21657381D01*
X11005000Y-21676429D01*
X10995476Y-21685952D01*
X10976429Y-21695476D01*
X10957381Y-21695476D01*
X10938333Y-21685952D01*
X10928810Y-21676429D01*
X10919286Y-21657381D01*
X10909762Y-21619286D01*
X10909762Y-21571667D01*
X10919286Y-21533571D01*
X10928810Y-21514524D01*
X10938333Y-21505000D01*
X10957381Y-21495476D01*
X11109762Y-21695476D02*
X11109762Y-21562143D01*
X11109762Y-21581190D02*
X11119286Y-21571667D01*
X11138333Y-21562143D01*
X11166905Y-21562143D01*
X11185952Y-21571667D01*
X11195476Y-21590714D01*
X11195476Y-21695476D01*
X11195476Y-21590714D02*
X11205000Y-21571667D01*
X11224048Y-21562143D01*
X11252619Y-21562143D01*
X11271667Y-21571667D01*
X11281190Y-21590714D01*
X11281190Y-21695476D01*
X11376428Y-21695476D02*
X11376428Y-21562143D01*
X11376428Y-21581190D02*
X11385952Y-21571667D01*
X11405000Y-21562143D01*
X11433571Y-21562143D01*
X11452619Y-21571667D01*
X11462143Y-21590714D01*
X11462143Y-21695476D01*
X11462143Y-21590714D02*
X11471667Y-21571667D01*
X11490714Y-21562143D01*
X11519286Y-21562143D01*
X11538333Y-21571667D01*
X11547857Y-21590714D01*
X11547857Y-21695476D01*
X11938333Y-21485952D02*
X11766905Y-21743095D01*
X12195476Y-21495476D02*
X12214524Y-21495476D01*
X12233571Y-21505000D01*
X12243095Y-21514524D01*
X12252619Y-21533571D01*
X12262143Y-21571667D01*
X12262143Y-21619286D01*
X12252619Y-21657381D01*
X12243095Y-21676429D01*
X12233571Y-21685952D01*
X12214524Y-21695476D01*
X12195476Y-21695476D01*
X12176428Y-21685952D01*
X12166905Y-21676429D01*
X12157381Y-21657381D01*
X12147857Y-21619286D01*
X12147857Y-21571667D01*
X12157381Y-21533571D01*
X12166905Y-21514524D01*
X12176428Y-21505000D01*
X12195476Y-21495476D01*
X12347857Y-21676429D02*
X12357381Y-21685952D01*
X12347857Y-21695476D01*
X12338333Y-21685952D01*
X12347857Y-21676429D01*
X12347857Y-21695476D01*
X12547857Y-21695476D02*
X12433571Y-21695476D01*
X12490714Y-21695476D02*
X12490714Y-21495476D01*
X12471667Y-21524048D01*
X12452619Y-21543095D01*
X12433571Y-21552619D01*
X12624048Y-21514524D02*
X12633571Y-21505000D01*
X12652619Y-21495476D01*
X12700238Y-21495476D01*
X12719286Y-21505000D01*
X12728809Y-21514524D01*
X12738333Y-21533571D01*
X12738333Y-21552619D01*
X12728809Y-21581190D01*
X12614524Y-21695476D01*
X12738333Y-21695476D01*
X12909762Y-21495476D02*
X12871667Y-21495476D01*
X12852619Y-21505000D01*
X12843095Y-21514524D01*
X12824048Y-21543095D01*
X12814524Y-21581190D01*
X12814524Y-21657381D01*
X12824048Y-21676429D01*
X12833571Y-21685952D01*
X12852619Y-21695476D01*
X12890714Y-21695476D01*
X12909762Y-21685952D01*
X12919286Y-21676429D01*
X12928809Y-21657381D01*
X12928809Y-21609762D01*
X12919286Y-21590714D01*
X12909762Y-21581190D01*
X12890714Y-21571667D01*
X12852619Y-21571667D01*
X12833571Y-21581190D01*
X12824048Y-21590714D01*
X12814524Y-21609762D01*
X13052619Y-21495476D02*
X13071667Y-21495476D01*
X13090714Y-21505000D01*
X13100238Y-21514524D01*
X13109762Y-21533571D01*
X13119286Y-21571667D01*
X13119286Y-21619286D01*
X13109762Y-21657381D01*
X13100238Y-21676429D01*
X13090714Y-21685952D01*
X13071667Y-21695476D01*
X13052619Y-21695476D01*
X13033571Y-21685952D01*
X13024048Y-21676429D01*
X13014524Y-21657381D01*
X13005000Y-21619286D01*
X13005000Y-21571667D01*
X13014524Y-21533571D01*
X13024048Y-21514524D01*
X13033571Y-21505000D01*
X13052619Y-21495476D01*
X13195476Y-21495476D02*
X13195476Y-21533571D01*
X13271667Y-21495476D02*
X13271667Y-21533571D01*
X13566905Y-21771667D02*
X13557381Y-21762143D01*
X13538333Y-21733571D01*
X13528809Y-21714524D01*
X13519286Y-21685952D01*
X13509762Y-21638333D01*
X13509762Y-21600238D01*
X13519286Y-21552619D01*
X13528809Y-21524048D01*
X13538333Y-21505000D01*
X13557381Y-21476429D01*
X13566905Y-21466905D01*
X13652619Y-21695476D02*
X13690714Y-21695476D01*
X13709762Y-21685952D01*
X13719286Y-21676429D01*
X13738333Y-21647857D01*
X13747857Y-21609762D01*
X13747857Y-21533571D01*
X13738333Y-21514524D01*
X13728809Y-21505000D01*
X13709762Y-21495476D01*
X13671667Y-21495476D01*
X13652619Y-21505000D01*
X13643095Y-21514524D01*
X13633571Y-21533571D01*
X13633571Y-21581190D01*
X13643095Y-21600238D01*
X13652619Y-21609762D01*
X13671667Y-21619286D01*
X13709762Y-21619286D01*
X13728809Y-21609762D01*
X13738333Y-21600238D01*
X13747857Y-21581190D01*
X13843095Y-21695476D02*
X13881190Y-21695476D01*
X13900238Y-21685952D01*
X13909762Y-21676429D01*
X13928809Y-21647857D01*
X13938333Y-21609762D01*
X13938333Y-21533571D01*
X13928809Y-21514524D01*
X13919286Y-21505000D01*
X13900238Y-21495476D01*
X13862143Y-21495476D01*
X13843095Y-21505000D01*
X13833571Y-21514524D01*
X13824048Y-21533571D01*
X13824048Y-21581190D01*
X13833571Y-21600238D01*
X13843095Y-21609762D01*
X13862143Y-21619286D01*
X13900238Y-21619286D01*
X13919286Y-21609762D01*
X13928809Y-21600238D01*
X13938333Y-21581190D01*
X14176428Y-21695476D02*
X14176428Y-21495476D01*
X14262143Y-21695476D02*
X14262143Y-21590714D01*
X14252619Y-21571667D01*
X14233571Y-21562143D01*
X14205000Y-21562143D01*
X14185952Y-21571667D01*
X14176428Y-21581190D01*
X14385952Y-21695476D02*
X14366905Y-21685952D01*
X14357381Y-21676429D01*
X14347857Y-21657381D01*
X14347857Y-21600238D01*
X14357381Y-21581190D01*
X14366905Y-21571667D01*
X14385952Y-21562143D01*
X14414524Y-21562143D01*
X14433571Y-21571667D01*
X14443095Y-21581190D01*
X14452619Y-21600238D01*
X14452619Y-21657381D01*
X14443095Y-21676429D01*
X14433571Y-21685952D01*
X14414524Y-21695476D01*
X14385952Y-21695476D01*
X14566905Y-21695476D02*
X14547857Y-21685952D01*
X14538333Y-21666905D01*
X14538333Y-21495476D01*
X14719286Y-21685952D02*
X14700238Y-21695476D01*
X14662143Y-21695476D01*
X14643095Y-21685952D01*
X14633571Y-21666905D01*
X14633571Y-21590714D01*
X14643095Y-21571667D01*
X14662143Y-21562143D01*
X14700238Y-21562143D01*
X14719286Y-21571667D01*
X14728809Y-21590714D01*
X14728809Y-21609762D01*
X14633571Y-21628810D01*
X14805000Y-21685952D02*
X14824048Y-21695476D01*
X14862143Y-21695476D01*
X14881190Y-21685952D01*
X14890714Y-21666905D01*
X14890714Y-21657381D01*
X14881190Y-21638333D01*
X14862143Y-21628810D01*
X14833571Y-21628810D01*
X14814524Y-21619286D01*
X14805000Y-21600238D01*
X14805000Y-21590714D01*
X14814524Y-21571667D01*
X14833571Y-21562143D01*
X14862143Y-21562143D01*
X14881190Y-21571667D01*
X14957381Y-21771667D02*
X14966905Y-21762143D01*
X14985952Y-21733571D01*
X14995476Y-21714524D01*
X15005000Y-21685952D01*
X15014524Y-21638333D01*
X15014524Y-21600238D01*
X15005000Y-21552619D01*
X14995476Y-21524048D01*
X14985952Y-21505000D01*
X14966905Y-21476429D01*
X14957381Y-21466905D01*
X15319286Y-21771667D02*
X15309762Y-21762143D01*
X15290714Y-21733571D01*
X15281190Y-21714524D01*
X15271667Y-21685952D01*
X15262143Y-21638333D01*
X15262143Y-21600238D01*
X15271667Y-21552619D01*
X15281190Y-21524048D01*
X15290714Y-21505000D01*
X15309762Y-21476429D01*
X15319286Y-21466905D01*
X15395476Y-21562143D02*
X15395476Y-21695476D01*
X15395476Y-21581190D02*
X15405000Y-21571667D01*
X15424048Y-21562143D01*
X15452619Y-21562143D01*
X15471667Y-21571667D01*
X15481190Y-21590714D01*
X15481190Y-21695476D01*
X15605000Y-21695476D02*
X15585952Y-21685952D01*
X15576428Y-21676429D01*
X15566905Y-21657381D01*
X15566905Y-21600238D01*
X15576428Y-21581190D01*
X15585952Y-21571667D01*
X15605000Y-21562143D01*
X15633571Y-21562143D01*
X15652619Y-21571667D01*
X15662143Y-21581190D01*
X15671667Y-21600238D01*
X15671667Y-21657381D01*
X15662143Y-21676429D01*
X15652619Y-21685952D01*
X15633571Y-21695476D01*
X15605000Y-21695476D01*
X15728809Y-21562143D02*
X15805000Y-21562143D01*
X15757381Y-21495476D02*
X15757381Y-21666905D01*
X15766905Y-21685952D01*
X15785952Y-21695476D01*
X15805000Y-21695476D01*
X16024048Y-21562143D02*
X16024048Y-21762143D01*
X16024048Y-21571667D02*
X16043095Y-21562143D01*
X16081190Y-21562143D01*
X16100238Y-21571667D01*
X16109762Y-21581190D01*
X16119286Y-21600238D01*
X16119286Y-21657381D01*
X16109762Y-21676429D01*
X16100238Y-21685952D01*
X16081190Y-21695476D01*
X16043095Y-21695476D01*
X16024048Y-21685952D01*
X16233571Y-21695476D02*
X16214524Y-21685952D01*
X16205000Y-21666905D01*
X16205000Y-21495476D01*
X16395476Y-21695476D02*
X16395476Y-21590714D01*
X16385952Y-21571667D01*
X16366905Y-21562143D01*
X16328809Y-21562143D01*
X16309762Y-21571667D01*
X16395476Y-21685952D02*
X16376428Y-21695476D01*
X16328809Y-21695476D01*
X16309762Y-21685952D01*
X16300238Y-21666905D01*
X16300238Y-21647857D01*
X16309762Y-21628810D01*
X16328809Y-21619286D01*
X16376428Y-21619286D01*
X16395476Y-21609762D01*
X16462143Y-21562143D02*
X16538333Y-21562143D01*
X16490714Y-21495476D02*
X16490714Y-21666905D01*
X16500238Y-21685952D01*
X16519286Y-21695476D01*
X16538333Y-21695476D01*
X16681190Y-21685952D02*
X16662143Y-21695476D01*
X16624048Y-21695476D01*
X16605000Y-21685952D01*
X16595476Y-21666905D01*
X16595476Y-21590714D01*
X16605000Y-21571667D01*
X16624048Y-21562143D01*
X16662143Y-21562143D01*
X16681190Y-21571667D01*
X16690714Y-21590714D01*
X16690714Y-21609762D01*
X16595476Y-21628810D01*
X16862143Y-21695476D02*
X16862143Y-21495476D01*
X16862143Y-21685952D02*
X16843095Y-21695476D01*
X16805000Y-21695476D01*
X16785952Y-21685952D01*
X16776428Y-21676429D01*
X16766905Y-21657381D01*
X16766905Y-21600238D01*
X16776428Y-21581190D01*
X16785952Y-21571667D01*
X16805000Y-21562143D01*
X16843095Y-21562143D01*
X16862143Y-21571667D01*
X16938333Y-21771667D02*
X16947857Y-21762143D01*
X16966905Y-21733571D01*
X16976429Y-21714524D01*
X16985952Y-21685952D01*
X16995476Y-21638333D01*
X16995476Y-21600238D01*
X16985952Y-21552619D01*
X16976429Y-21524048D01*
X16966905Y-21505000D01*
X16947857Y-21476429D01*
X16938333Y-21466905D01*
M02*
