%TF.GenerationSoftware,KiCad,Pcbnew,(6.0.1)*%
%TF.CreationDate,2022-05-08T14:53:20-04:00*%
%TF.ProjectId,InductorSchem,496e6475-6374-46f7-9253-6368656d2e6b,1*%
%TF.SameCoordinates,Original*%
%TF.FileFunction,Legend,Bot*%
%TF.FilePolarity,Positive*%
%FSLAX46Y46*%
G04 Gerber Fmt 4.6, Leading zero omitted, Abs format (unit mm)*
G04 Created by KiCad (PCBNEW (6.0.1)) date 2022-05-08 14:53:20*
%MOMM*%
%LPD*%
G01*
G04 APERTURE LIST*
G04 Aperture macros list*
%AMRoundRect*
0 Rectangle with rounded corners*
0 $1 Rounding radius*
0 $2 $3 $4 $5 $6 $7 $8 $9 X,Y pos of 4 corners*
0 Add a 4 corners polygon primitive as box body*
4,1,4,$2,$3,$4,$5,$6,$7,$8,$9,$2,$3,0*
0 Add four circle primitives for the rounded corners*
1,1,$1+$1,$2,$3*
1,1,$1+$1,$4,$5*
1,1,$1+$1,$6,$7*
1,1,$1+$1,$8,$9*
0 Add four rect primitives between the rounded corners*
20,1,$1+$1,$2,$3,$4,$5,0*
20,1,$1+$1,$4,$5,$6,$7,0*
20,1,$1+$1,$6,$7,$8,$9,0*
20,1,$1+$1,$8,$9,$2,$3,0*%
G04 Aperture macros list end*
%ADD10C,0.150000*%
%ADD11C,0.120000*%
%ADD12C,0.200000*%
%ADD13C,3.200000*%
%ADD14C,1.800000*%
%ADD15C,2.200000*%
%ADD16R,0.700000X1.200000*%
%ADD17R,0.760000X1.200000*%
%ADD18R,0.800000X1.200000*%
%ADD19O,1.100000X2.500000*%
%ADD20O,1.100000X2.000000*%
%ADD21O,3.050000X1.800000*%
%ADD22O,2.450000X2.200000*%
%ADD23R,1.600000X1.600000*%
%ADD24O,1.600000X1.600000*%
%ADD25RoundRect,0.250001X-0.799999X-0.799999X0.799999X-0.799999X0.799999X0.799999X-0.799999X0.799999X0*%
%ADD26C,2.100000*%
%ADD27C,1.600000*%
%ADD28O,2.748280X1.998980*%
%ADD29R,1.498600X1.498600*%
%ADD30C,1.498600*%
%ADD31RoundRect,0.250001X-0.799999X0.799999X-0.799999X-0.799999X0.799999X-0.799999X0.799999X0.799999X0*%
G04 APERTURE END LIST*
D10*
%TO.C,SW54*%
X112668360Y-196654761D02*
X112525503Y-196702380D01*
X112287408Y-196702380D01*
X112192170Y-196654761D01*
X112144551Y-196607142D01*
X112096932Y-196511904D01*
X112096932Y-196416666D01*
X112144551Y-196321428D01*
X112192170Y-196273809D01*
X112287408Y-196226190D01*
X112477884Y-196178571D01*
X112573122Y-196130952D01*
X112620741Y-196083333D01*
X112668360Y-195988095D01*
X112668360Y-195892857D01*
X112620741Y-195797619D01*
X112573122Y-195750000D01*
X112477884Y-195702380D01*
X112239789Y-195702380D01*
X112096932Y-195750000D01*
X111763598Y-195702380D02*
X111525503Y-196702380D01*
X111335027Y-195988095D01*
X111144551Y-196702380D01*
X110906456Y-195702380D01*
X110049313Y-195702380D02*
X110525503Y-195702380D01*
X110573122Y-196178571D01*
X110525503Y-196130952D01*
X110430265Y-196083333D01*
X110192170Y-196083333D01*
X110096932Y-196130952D01*
X110049313Y-196178571D01*
X110001694Y-196273809D01*
X110001694Y-196511904D01*
X110049313Y-196607142D01*
X110096932Y-196654761D01*
X110192170Y-196702380D01*
X110430265Y-196702380D01*
X110525503Y-196654761D01*
X110573122Y-196607142D01*
X109144551Y-196035714D02*
X109144551Y-196702380D01*
X109382646Y-195654761D02*
X109620741Y-196369047D01*
X109001694Y-196369047D01*
%TO.C,J5*%
X180588333Y-104839880D02*
X180588333Y-105554166D01*
X180635952Y-105697023D01*
X180731190Y-105792261D01*
X180874047Y-105839880D01*
X180969285Y-105839880D01*
X179635952Y-104839880D02*
X180112142Y-104839880D01*
X180159761Y-105316071D01*
X180112142Y-105268452D01*
X180016904Y-105220833D01*
X179778809Y-105220833D01*
X179683571Y-105268452D01*
X179635952Y-105316071D01*
X179588333Y-105411309D01*
X179588333Y-105649404D01*
X179635952Y-105744642D01*
X179683571Y-105792261D01*
X179778809Y-105839880D01*
X180016904Y-105839880D01*
X180112142Y-105792261D01*
X180159761Y-105744642D01*
%TO.C,SW53*%
X112668360Y-159654761D02*
X112525503Y-159702380D01*
X112287408Y-159702380D01*
X112192170Y-159654761D01*
X112144551Y-159607142D01*
X112096932Y-159511904D01*
X112096932Y-159416666D01*
X112144551Y-159321428D01*
X112192170Y-159273809D01*
X112287408Y-159226190D01*
X112477884Y-159178571D01*
X112573122Y-159130952D01*
X112620741Y-159083333D01*
X112668360Y-158988095D01*
X112668360Y-158892857D01*
X112620741Y-158797619D01*
X112573122Y-158750000D01*
X112477884Y-158702380D01*
X112239789Y-158702380D01*
X112096932Y-158750000D01*
X111763598Y-158702380D02*
X111525503Y-159702380D01*
X111335027Y-158988095D01*
X111144551Y-159702380D01*
X110906456Y-158702380D01*
X110049313Y-158702380D02*
X110525503Y-158702380D01*
X110573122Y-159178571D01*
X110525503Y-159130952D01*
X110430265Y-159083333D01*
X110192170Y-159083333D01*
X110096932Y-159130952D01*
X110049313Y-159178571D01*
X110001694Y-159273809D01*
X110001694Y-159511904D01*
X110049313Y-159607142D01*
X110096932Y-159654761D01*
X110192170Y-159702380D01*
X110430265Y-159702380D01*
X110525503Y-159654761D01*
X110573122Y-159607142D01*
X109668360Y-158702380D02*
X109049313Y-158702380D01*
X109382646Y-159083333D01*
X109239789Y-159083333D01*
X109144551Y-159130952D01*
X109096932Y-159178571D01*
X109049313Y-159273809D01*
X109049313Y-159511904D01*
X109096932Y-159607142D01*
X109144551Y-159654761D01*
X109239789Y-159702380D01*
X109525503Y-159702380D01*
X109620741Y-159654761D01*
X109668360Y-159607142D01*
%TO.C,SW73*%
X208559523Y-131904761D02*
X208416666Y-131952380D01*
X208178571Y-131952380D01*
X208083333Y-131904761D01*
X208035714Y-131857142D01*
X207988095Y-131761904D01*
X207988095Y-131666666D01*
X208035714Y-131571428D01*
X208083333Y-131523809D01*
X208178571Y-131476190D01*
X208369047Y-131428571D01*
X208464285Y-131380952D01*
X208511904Y-131333333D01*
X208559523Y-131238095D01*
X208559523Y-131142857D01*
X208511904Y-131047619D01*
X208464285Y-131000000D01*
X208369047Y-130952380D01*
X208130952Y-130952380D01*
X207988095Y-131000000D01*
X207654761Y-130952380D02*
X207416666Y-131952380D01*
X207226190Y-131238095D01*
X207035714Y-131952380D01*
X206797619Y-130952380D01*
X206511904Y-130952380D02*
X205845238Y-130952380D01*
X206273809Y-131952380D01*
X205559523Y-130952380D02*
X204940476Y-130952380D01*
X205273809Y-131333333D01*
X205130952Y-131333333D01*
X205035714Y-131380952D01*
X204988095Y-131428571D01*
X204940476Y-131523809D01*
X204940476Y-131761904D01*
X204988095Y-131857142D01*
X205035714Y-131904761D01*
X205130952Y-131952380D01*
X205416666Y-131952380D01*
X205511904Y-131904761D01*
X205559523Y-131857142D01*
%TO.C,SW68*%
X161418360Y-205904761D02*
X161275503Y-205952380D01*
X161037408Y-205952380D01*
X160942170Y-205904761D01*
X160894551Y-205857142D01*
X160846932Y-205761904D01*
X160846932Y-205666666D01*
X160894551Y-205571428D01*
X160942170Y-205523809D01*
X161037408Y-205476190D01*
X161227884Y-205428571D01*
X161323122Y-205380952D01*
X161370741Y-205333333D01*
X161418360Y-205238095D01*
X161418360Y-205142857D01*
X161370741Y-205047619D01*
X161323122Y-205000000D01*
X161227884Y-204952380D01*
X160989789Y-204952380D01*
X160846932Y-205000000D01*
X160513598Y-204952380D02*
X160275503Y-205952380D01*
X160085027Y-205238095D01*
X159894551Y-205952380D01*
X159656456Y-204952380D01*
X158846932Y-204952380D02*
X159037408Y-204952380D01*
X159132646Y-205000000D01*
X159180265Y-205047619D01*
X159275503Y-205190476D01*
X159323122Y-205380952D01*
X159323122Y-205761904D01*
X159275503Y-205857142D01*
X159227884Y-205904761D01*
X159132646Y-205952380D01*
X158942170Y-205952380D01*
X158846932Y-205904761D01*
X158799313Y-205857142D01*
X158751694Y-205761904D01*
X158751694Y-205523809D01*
X158799313Y-205428571D01*
X158846932Y-205380952D01*
X158942170Y-205333333D01*
X159132646Y-205333333D01*
X159227884Y-205380952D01*
X159275503Y-205428571D01*
X159323122Y-205523809D01*
X158180265Y-205380952D02*
X158275503Y-205333333D01*
X158323122Y-205285714D01*
X158370741Y-205190476D01*
X158370741Y-205142857D01*
X158323122Y-205047619D01*
X158275503Y-205000000D01*
X158180265Y-204952380D01*
X157989789Y-204952380D01*
X157894551Y-205000000D01*
X157846932Y-205047619D01*
X157799313Y-205142857D01*
X157799313Y-205190476D01*
X157846932Y-205285714D01*
X157894551Y-205333333D01*
X157989789Y-205380952D01*
X158180265Y-205380952D01*
X158275503Y-205428571D01*
X158323122Y-205476190D01*
X158370741Y-205571428D01*
X158370741Y-205761904D01*
X158323122Y-205857142D01*
X158275503Y-205904761D01*
X158180265Y-205952380D01*
X157989789Y-205952380D01*
X157894551Y-205904761D01*
X157846932Y-205857142D01*
X157799313Y-205761904D01*
X157799313Y-205571428D01*
X157846932Y-205476190D01*
X157894551Y-205428571D01*
X157989789Y-205380952D01*
%TO.C,D1*%
X269766428Y-173002380D02*
X269766428Y-172002380D01*
X269945000Y-172002380D01*
X270052142Y-172050000D01*
X270123571Y-172145238D01*
X270159285Y-172240476D01*
X270195000Y-172430952D01*
X270195000Y-172573809D01*
X270159285Y-172764285D01*
X270123571Y-172859523D01*
X270052142Y-172954761D01*
X269945000Y-173002380D01*
X269766428Y-173002380D01*
X270909285Y-173002380D02*
X270480714Y-173002380D01*
X270695000Y-173002380D02*
X270695000Y-172002380D01*
X270623571Y-172145238D01*
X270552142Y-172240476D01*
X270480714Y-172288095D01*
X265928095Y-171152380D02*
X265928095Y-170152380D01*
X266499523Y-171152380D02*
X266070952Y-170580952D01*
X266499523Y-170152380D02*
X265928095Y-170723809D01*
%TO.C,D54*%
X237269285Y-170997619D02*
X237269285Y-171997619D01*
X237447857Y-171997619D01*
X237555000Y-171950000D01*
X237626428Y-171854761D01*
X237662142Y-171759523D01*
X237697857Y-171569047D01*
X237697857Y-171426190D01*
X237662142Y-171235714D01*
X237626428Y-171140476D01*
X237555000Y-171045238D01*
X237447857Y-170997619D01*
X237269285Y-170997619D01*
X238376428Y-171997619D02*
X238019285Y-171997619D01*
X237983571Y-171521428D01*
X238019285Y-171569047D01*
X238090714Y-171616666D01*
X238269285Y-171616666D01*
X238340714Y-171569047D01*
X238376428Y-171521428D01*
X238412142Y-171426190D01*
X238412142Y-171188095D01*
X238376428Y-171092857D01*
X238340714Y-171045238D01*
X238269285Y-170997619D01*
X238090714Y-170997619D01*
X238019285Y-171045238D01*
X237983571Y-171092857D01*
X239055000Y-171664285D02*
X239055000Y-170997619D01*
X238876428Y-172045238D02*
X238697857Y-171330952D01*
X239162142Y-171330952D01*
X242571904Y-173752380D02*
X242571904Y-172752380D01*
X242000476Y-173752380D02*
X242429047Y-173180952D01*
X242000476Y-172752380D02*
X242571904Y-173323809D01*
%TO.C,D2*%
X183233571Y-106497619D02*
X183233571Y-107497619D01*
X183055000Y-107497619D01*
X182947857Y-107450000D01*
X182876428Y-107354761D01*
X182840714Y-107259523D01*
X182805000Y-107069047D01*
X182805000Y-106926190D01*
X182840714Y-106735714D01*
X182876428Y-106640476D01*
X182947857Y-106545238D01*
X183055000Y-106497619D01*
X183233571Y-106497619D01*
X182519285Y-107402380D02*
X182483571Y-107450000D01*
X182412142Y-107497619D01*
X182233571Y-107497619D01*
X182162142Y-107450000D01*
X182126428Y-107402380D01*
X182090714Y-107307142D01*
X182090714Y-107211904D01*
X182126428Y-107069047D01*
X182555000Y-106497619D01*
X182090714Y-106497619D01*
X186548095Y-109252380D02*
X186548095Y-108252380D01*
X187119523Y-109252380D02*
X186690952Y-108680952D01*
X187119523Y-108252380D02*
X186548095Y-108823809D01*
%TO.C,SW85*%
X257309523Y-157263372D02*
X257166666Y-157310991D01*
X256928571Y-157310991D01*
X256833333Y-157263372D01*
X256785714Y-157215753D01*
X256738095Y-157120515D01*
X256738095Y-157025277D01*
X256785714Y-156930039D01*
X256833333Y-156882420D01*
X256928571Y-156834801D01*
X257119047Y-156787182D01*
X257214285Y-156739563D01*
X257261904Y-156691944D01*
X257309523Y-156596706D01*
X257309523Y-156501468D01*
X257261904Y-156406230D01*
X257214285Y-156358611D01*
X257119047Y-156310991D01*
X256880952Y-156310991D01*
X256738095Y-156358611D01*
X256404761Y-156310991D02*
X256166666Y-157310991D01*
X255976190Y-156596706D01*
X255785714Y-157310991D01*
X255547619Y-156310991D01*
X255023809Y-156739563D02*
X255119047Y-156691944D01*
X255166666Y-156644325D01*
X255214285Y-156549087D01*
X255214285Y-156501468D01*
X255166666Y-156406230D01*
X255119047Y-156358611D01*
X255023809Y-156310991D01*
X254833333Y-156310991D01*
X254738095Y-156358611D01*
X254690476Y-156406230D01*
X254642857Y-156501468D01*
X254642857Y-156549087D01*
X254690476Y-156644325D01*
X254738095Y-156691944D01*
X254833333Y-156739563D01*
X255023809Y-156739563D01*
X255119047Y-156787182D01*
X255166666Y-156834801D01*
X255214285Y-156930039D01*
X255214285Y-157120515D01*
X255166666Y-157215753D01*
X255119047Y-157263372D01*
X255023809Y-157310991D01*
X254833333Y-157310991D01*
X254738095Y-157263372D01*
X254690476Y-157215753D01*
X254642857Y-157120515D01*
X254642857Y-156930039D01*
X254690476Y-156834801D01*
X254738095Y-156787182D01*
X254833333Y-156739563D01*
X253738095Y-156310991D02*
X254214285Y-156310991D01*
X254261904Y-156787182D01*
X254214285Y-156739563D01*
X254119047Y-156691944D01*
X253880952Y-156691944D01*
X253785714Y-156739563D01*
X253738095Y-156787182D01*
X253690476Y-156882420D01*
X253690476Y-157120515D01*
X253738095Y-157215753D01*
X253785714Y-157263372D01*
X253880952Y-157310991D01*
X254119047Y-157310991D01*
X254214285Y-157263372D01*
X254261904Y-157215753D01*
%TO.C,SW76*%
X218309523Y-187404761D02*
X218166666Y-187452380D01*
X217928571Y-187452380D01*
X217833333Y-187404761D01*
X217785714Y-187357142D01*
X217738095Y-187261904D01*
X217738095Y-187166666D01*
X217785714Y-187071428D01*
X217833333Y-187023809D01*
X217928571Y-186976190D01*
X218119047Y-186928571D01*
X218214285Y-186880952D01*
X218261904Y-186833333D01*
X218309523Y-186738095D01*
X218309523Y-186642857D01*
X218261904Y-186547619D01*
X218214285Y-186500000D01*
X218119047Y-186452380D01*
X217880952Y-186452380D01*
X217738095Y-186500000D01*
X217404761Y-186452380D02*
X217166666Y-187452380D01*
X216976190Y-186738095D01*
X216785714Y-187452380D01*
X216547619Y-186452380D01*
X216261904Y-186452380D02*
X215595238Y-186452380D01*
X216023809Y-187452380D01*
X214785714Y-186452380D02*
X214976190Y-186452380D01*
X215071428Y-186500000D01*
X215119047Y-186547619D01*
X215214285Y-186690476D01*
X215261904Y-186880952D01*
X215261904Y-187261904D01*
X215214285Y-187357142D01*
X215166666Y-187404761D01*
X215071428Y-187452380D01*
X214880952Y-187452380D01*
X214785714Y-187404761D01*
X214738095Y-187357142D01*
X214690476Y-187261904D01*
X214690476Y-187023809D01*
X214738095Y-186928571D01*
X214785714Y-186880952D01*
X214880952Y-186833333D01*
X215071428Y-186833333D01*
X215166666Y-186880952D01*
X215214285Y-186928571D01*
X215261904Y-187023809D01*
%TO.C,SW97*%
X315809523Y-162196180D02*
X315666666Y-162243799D01*
X315428571Y-162243799D01*
X315333333Y-162196180D01*
X315285714Y-162148561D01*
X315238095Y-162053323D01*
X315238095Y-161958085D01*
X315285714Y-161862847D01*
X315333333Y-161815228D01*
X315428571Y-161767609D01*
X315619047Y-161719990D01*
X315714285Y-161672371D01*
X315761904Y-161624752D01*
X315809523Y-161529514D01*
X315809523Y-161434276D01*
X315761904Y-161339038D01*
X315714285Y-161291419D01*
X315619047Y-161243799D01*
X315380952Y-161243799D01*
X315238095Y-161291419D01*
X314904761Y-161243799D02*
X314666666Y-162243799D01*
X314476190Y-161529514D01*
X314285714Y-162243799D01*
X314047619Y-161243799D01*
X313619047Y-162243799D02*
X313428571Y-162243799D01*
X313333333Y-162196180D01*
X313285714Y-162148561D01*
X313190476Y-162005704D01*
X313142857Y-161815228D01*
X313142857Y-161434276D01*
X313190476Y-161339038D01*
X313238095Y-161291419D01*
X313333333Y-161243799D01*
X313523809Y-161243799D01*
X313619047Y-161291419D01*
X313666666Y-161339038D01*
X313714285Y-161434276D01*
X313714285Y-161672371D01*
X313666666Y-161767609D01*
X313619047Y-161815228D01*
X313523809Y-161862847D01*
X313333333Y-161862847D01*
X313238095Y-161815228D01*
X313190476Y-161767609D01*
X313142857Y-161672371D01*
X312809523Y-161243799D02*
X312142857Y-161243799D01*
X312571428Y-162243799D01*
%TO.C,SW70*%
X198809523Y-168904761D02*
X198666666Y-168952380D01*
X198428571Y-168952380D01*
X198333333Y-168904761D01*
X198285714Y-168857142D01*
X198238095Y-168761904D01*
X198238095Y-168666666D01*
X198285714Y-168571428D01*
X198333333Y-168523809D01*
X198428571Y-168476190D01*
X198619047Y-168428571D01*
X198714285Y-168380952D01*
X198761904Y-168333333D01*
X198809523Y-168238095D01*
X198809523Y-168142857D01*
X198761904Y-168047619D01*
X198714285Y-168000000D01*
X198619047Y-167952380D01*
X198380952Y-167952380D01*
X198238095Y-168000000D01*
X197904761Y-167952380D02*
X197666666Y-168952380D01*
X197476190Y-168238095D01*
X197285714Y-168952380D01*
X197047619Y-167952380D01*
X196761904Y-167952380D02*
X196095238Y-167952380D01*
X196523809Y-168952380D01*
X195523809Y-167952380D02*
X195428571Y-167952380D01*
X195333333Y-168000000D01*
X195285714Y-168047619D01*
X195238095Y-168142857D01*
X195190476Y-168333333D01*
X195190476Y-168571428D01*
X195238095Y-168761904D01*
X195285714Y-168857142D01*
X195333333Y-168904761D01*
X195428571Y-168952380D01*
X195523809Y-168952380D01*
X195619047Y-168904761D01*
X195666666Y-168857142D01*
X195714285Y-168761904D01*
X195761904Y-168571428D01*
X195761904Y-168333333D01*
X195714285Y-168142857D01*
X195666666Y-168047619D01*
X195619047Y-168000000D01*
X195523809Y-167952380D01*
%TO.C,D30*%
X217090714Y-153502380D02*
X217090714Y-152502380D01*
X216912142Y-152502380D01*
X216805000Y-152550000D01*
X216733571Y-152645238D01*
X216697857Y-152740476D01*
X216662142Y-152930952D01*
X216662142Y-153073809D01*
X216697857Y-153264285D01*
X216733571Y-153359523D01*
X216805000Y-153454761D01*
X216912142Y-153502380D01*
X217090714Y-153502380D01*
X216412142Y-152502380D02*
X215947857Y-152502380D01*
X216197857Y-152883333D01*
X216090714Y-152883333D01*
X216019285Y-152930952D01*
X215983571Y-152978571D01*
X215947857Y-153073809D01*
X215947857Y-153311904D01*
X215983571Y-153407142D01*
X216019285Y-153454761D01*
X216090714Y-153502380D01*
X216305000Y-153502380D01*
X216376428Y-153454761D01*
X216412142Y-153407142D01*
X215483571Y-152502380D02*
X215412142Y-152502380D01*
X215340714Y-152550000D01*
X215305000Y-152597619D01*
X215269285Y-152692857D01*
X215233571Y-152883333D01*
X215233571Y-153121428D01*
X215269285Y-153311904D01*
X215305000Y-153407142D01*
X215340714Y-153454761D01*
X215412142Y-153502380D01*
X215483571Y-153502380D01*
X215555000Y-153454761D01*
X215590714Y-153407142D01*
X215626428Y-153311904D01*
X215662142Y-153121428D01*
X215662142Y-152883333D01*
X215626428Y-152692857D01*
X215590714Y-152597619D01*
X215555000Y-152550000D01*
X215483571Y-152502380D01*
X220571904Y-151652380D02*
X220571904Y-150652380D01*
X220000476Y-151652380D02*
X220429047Y-151080952D01*
X220000476Y-150652380D02*
X220571904Y-151223809D01*
%TO.C,SW99*%
X315809523Y-199196180D02*
X315666666Y-199243799D01*
X315428571Y-199243799D01*
X315333333Y-199196180D01*
X315285714Y-199148561D01*
X315238095Y-199053323D01*
X315238095Y-198958085D01*
X315285714Y-198862847D01*
X315333333Y-198815228D01*
X315428571Y-198767609D01*
X315619047Y-198719990D01*
X315714285Y-198672371D01*
X315761904Y-198624752D01*
X315809523Y-198529514D01*
X315809523Y-198434276D01*
X315761904Y-198339038D01*
X315714285Y-198291419D01*
X315619047Y-198243799D01*
X315380952Y-198243799D01*
X315238095Y-198291419D01*
X314904761Y-198243799D02*
X314666666Y-199243799D01*
X314476190Y-198529514D01*
X314285714Y-199243799D01*
X314047619Y-198243799D01*
X313619047Y-199243799D02*
X313428571Y-199243799D01*
X313333333Y-199196180D01*
X313285714Y-199148561D01*
X313190476Y-199005704D01*
X313142857Y-198815228D01*
X313142857Y-198434276D01*
X313190476Y-198339038D01*
X313238095Y-198291419D01*
X313333333Y-198243799D01*
X313523809Y-198243799D01*
X313619047Y-198291419D01*
X313666666Y-198339038D01*
X313714285Y-198434276D01*
X313714285Y-198672371D01*
X313666666Y-198767609D01*
X313619047Y-198815228D01*
X313523809Y-198862847D01*
X313333333Y-198862847D01*
X313238095Y-198815228D01*
X313190476Y-198767609D01*
X313142857Y-198672371D01*
X312666666Y-199243799D02*
X312476190Y-199243799D01*
X312380952Y-199196180D01*
X312333333Y-199148561D01*
X312238095Y-199005704D01*
X312190476Y-198815228D01*
X312190476Y-198434276D01*
X312238095Y-198339038D01*
X312285714Y-198291419D01*
X312380952Y-198243799D01*
X312571428Y-198243799D01*
X312666666Y-198291419D01*
X312714285Y-198339038D01*
X312761904Y-198434276D01*
X312761904Y-198672371D01*
X312714285Y-198767609D01*
X312666666Y-198815228D01*
X312571428Y-198862847D01*
X312380952Y-198862847D01*
X312285714Y-198815228D01*
X312238095Y-198767609D01*
X312190476Y-198672371D01*
%TO.C,SW86*%
X257309523Y-175763372D02*
X257166666Y-175810991D01*
X256928571Y-175810991D01*
X256833333Y-175763372D01*
X256785714Y-175715753D01*
X256738095Y-175620515D01*
X256738095Y-175525277D01*
X256785714Y-175430039D01*
X256833333Y-175382420D01*
X256928571Y-175334801D01*
X257119047Y-175287182D01*
X257214285Y-175239563D01*
X257261904Y-175191944D01*
X257309523Y-175096706D01*
X257309523Y-175001468D01*
X257261904Y-174906230D01*
X257214285Y-174858611D01*
X257119047Y-174810991D01*
X256880952Y-174810991D01*
X256738095Y-174858611D01*
X256404761Y-174810991D02*
X256166666Y-175810991D01*
X255976190Y-175096706D01*
X255785714Y-175810991D01*
X255547619Y-174810991D01*
X255023809Y-175239563D02*
X255119047Y-175191944D01*
X255166666Y-175144325D01*
X255214285Y-175049087D01*
X255214285Y-175001468D01*
X255166666Y-174906230D01*
X255119047Y-174858611D01*
X255023809Y-174810991D01*
X254833333Y-174810991D01*
X254738095Y-174858611D01*
X254690476Y-174906230D01*
X254642857Y-175001468D01*
X254642857Y-175049087D01*
X254690476Y-175144325D01*
X254738095Y-175191944D01*
X254833333Y-175239563D01*
X255023809Y-175239563D01*
X255119047Y-175287182D01*
X255166666Y-175334801D01*
X255214285Y-175430039D01*
X255214285Y-175620515D01*
X255166666Y-175715753D01*
X255119047Y-175763372D01*
X255023809Y-175810991D01*
X254833333Y-175810991D01*
X254738095Y-175763372D01*
X254690476Y-175715753D01*
X254642857Y-175620515D01*
X254642857Y-175430039D01*
X254690476Y-175334801D01*
X254738095Y-175287182D01*
X254833333Y-175239563D01*
X253785714Y-174810991D02*
X253976190Y-174810991D01*
X254071428Y-174858611D01*
X254119047Y-174906230D01*
X254214285Y-175049087D01*
X254261904Y-175239563D01*
X254261904Y-175620515D01*
X254214285Y-175715753D01*
X254166666Y-175763372D01*
X254071428Y-175810991D01*
X253880952Y-175810991D01*
X253785714Y-175763372D01*
X253738095Y-175715753D01*
X253690476Y-175620515D01*
X253690476Y-175382420D01*
X253738095Y-175287182D01*
X253785714Y-175239563D01*
X253880952Y-175191944D01*
X254071428Y-175191944D01*
X254166666Y-175239563D01*
X254214285Y-175287182D01*
X254261904Y-175382420D01*
%TO.C,D32*%
X225090714Y-172102380D02*
X225090714Y-171102380D01*
X224912142Y-171102380D01*
X224805000Y-171150000D01*
X224733571Y-171245238D01*
X224697857Y-171340476D01*
X224662142Y-171530952D01*
X224662142Y-171673809D01*
X224697857Y-171864285D01*
X224733571Y-171959523D01*
X224805000Y-172054761D01*
X224912142Y-172102380D01*
X225090714Y-172102380D01*
X224412142Y-171102380D02*
X223947857Y-171102380D01*
X224197857Y-171483333D01*
X224090714Y-171483333D01*
X224019285Y-171530952D01*
X223983571Y-171578571D01*
X223947857Y-171673809D01*
X223947857Y-171911904D01*
X223983571Y-172007142D01*
X224019285Y-172054761D01*
X224090714Y-172102380D01*
X224305000Y-172102380D01*
X224376428Y-172054761D01*
X224412142Y-172007142D01*
X223662142Y-171197619D02*
X223626428Y-171150000D01*
X223555000Y-171102380D01*
X223376428Y-171102380D01*
X223305000Y-171150000D01*
X223269285Y-171197619D01*
X223233571Y-171292857D01*
X223233571Y-171388095D01*
X223269285Y-171530952D01*
X223697857Y-172102380D01*
X223233571Y-172102380D01*
X228571904Y-170252380D02*
X228571904Y-169252380D01*
X228000476Y-170252380D02*
X228429047Y-169680952D01*
X228000476Y-169252380D02*
X228571904Y-169823809D01*
%TO.C,D53*%
X314590714Y-183802380D02*
X314590714Y-182802380D01*
X314412142Y-182802380D01*
X314305000Y-182850000D01*
X314233571Y-182945238D01*
X314197857Y-183040476D01*
X314162142Y-183230952D01*
X314162142Y-183373809D01*
X314197857Y-183564285D01*
X314233571Y-183659523D01*
X314305000Y-183754761D01*
X314412142Y-183802380D01*
X314590714Y-183802380D01*
X313483571Y-182802380D02*
X313840714Y-182802380D01*
X313876428Y-183278571D01*
X313840714Y-183230952D01*
X313769285Y-183183333D01*
X313590714Y-183183333D01*
X313519285Y-183230952D01*
X313483571Y-183278571D01*
X313447857Y-183373809D01*
X313447857Y-183611904D01*
X313483571Y-183707142D01*
X313519285Y-183754761D01*
X313590714Y-183802380D01*
X313769285Y-183802380D01*
X313840714Y-183754761D01*
X313876428Y-183707142D01*
X313197857Y-182802380D02*
X312733571Y-182802380D01*
X312983571Y-183183333D01*
X312876428Y-183183333D01*
X312805000Y-183230952D01*
X312769285Y-183278571D01*
X312733571Y-183373809D01*
X312733571Y-183611904D01*
X312769285Y-183707142D01*
X312805000Y-183754761D01*
X312876428Y-183802380D01*
X313090714Y-183802380D01*
X313162142Y-183754761D01*
X313197857Y-183707142D01*
X318071904Y-181952380D02*
X318071904Y-180952380D01*
X317500476Y-181952380D02*
X317929047Y-181380952D01*
X317500476Y-180952380D02*
X318071904Y-181523809D01*
%TO.C,SW66*%
X171168360Y-168904761D02*
X171025503Y-168952380D01*
X170787408Y-168952380D01*
X170692170Y-168904761D01*
X170644551Y-168857142D01*
X170596932Y-168761904D01*
X170596932Y-168666666D01*
X170644551Y-168571428D01*
X170692170Y-168523809D01*
X170787408Y-168476190D01*
X170977884Y-168428571D01*
X171073122Y-168380952D01*
X171120741Y-168333333D01*
X171168360Y-168238095D01*
X171168360Y-168142857D01*
X171120741Y-168047619D01*
X171073122Y-168000000D01*
X170977884Y-167952380D01*
X170739789Y-167952380D01*
X170596932Y-168000000D01*
X170263598Y-167952380D02*
X170025503Y-168952380D01*
X169835027Y-168238095D01*
X169644551Y-168952380D01*
X169406456Y-167952380D01*
X168596932Y-167952380D02*
X168787408Y-167952380D01*
X168882646Y-168000000D01*
X168930265Y-168047619D01*
X169025503Y-168190476D01*
X169073122Y-168380952D01*
X169073122Y-168761904D01*
X169025503Y-168857142D01*
X168977884Y-168904761D01*
X168882646Y-168952380D01*
X168692170Y-168952380D01*
X168596932Y-168904761D01*
X168549313Y-168857142D01*
X168501694Y-168761904D01*
X168501694Y-168523809D01*
X168549313Y-168428571D01*
X168596932Y-168380952D01*
X168692170Y-168333333D01*
X168882646Y-168333333D01*
X168977884Y-168380952D01*
X169025503Y-168428571D01*
X169073122Y-168523809D01*
X167644551Y-167952380D02*
X167835027Y-167952380D01*
X167930265Y-168000000D01*
X167977884Y-168047619D01*
X168073122Y-168190476D01*
X168120741Y-168380952D01*
X168120741Y-168761904D01*
X168073122Y-168857142D01*
X168025503Y-168904761D01*
X167930265Y-168952380D01*
X167739789Y-168952380D01*
X167644551Y-168904761D01*
X167596932Y-168857142D01*
X167549313Y-168761904D01*
X167549313Y-168523809D01*
X167596932Y-168428571D01*
X167644551Y-168380952D01*
X167739789Y-168333333D01*
X167930265Y-168333333D01*
X168025503Y-168380952D01*
X168073122Y-168428571D01*
X168120741Y-168523809D01*
%TO.C,SW80*%
X237809523Y-168904761D02*
X237666666Y-168952380D01*
X237428571Y-168952380D01*
X237333333Y-168904761D01*
X237285714Y-168857142D01*
X237238095Y-168761904D01*
X237238095Y-168666666D01*
X237285714Y-168571428D01*
X237333333Y-168523809D01*
X237428571Y-168476190D01*
X237619047Y-168428571D01*
X237714285Y-168380952D01*
X237761904Y-168333333D01*
X237809523Y-168238095D01*
X237809523Y-168142857D01*
X237761904Y-168047619D01*
X237714285Y-168000000D01*
X237619047Y-167952380D01*
X237380952Y-167952380D01*
X237238095Y-168000000D01*
X236904761Y-167952380D02*
X236666666Y-168952380D01*
X236476190Y-168238095D01*
X236285714Y-168952380D01*
X236047619Y-167952380D01*
X235523809Y-168380952D02*
X235619047Y-168333333D01*
X235666666Y-168285714D01*
X235714285Y-168190476D01*
X235714285Y-168142857D01*
X235666666Y-168047619D01*
X235619047Y-168000000D01*
X235523809Y-167952380D01*
X235333333Y-167952380D01*
X235238095Y-168000000D01*
X235190476Y-168047619D01*
X235142857Y-168142857D01*
X235142857Y-168190476D01*
X235190476Y-168285714D01*
X235238095Y-168333333D01*
X235333333Y-168380952D01*
X235523809Y-168380952D01*
X235619047Y-168428571D01*
X235666666Y-168476190D01*
X235714285Y-168571428D01*
X235714285Y-168761904D01*
X235666666Y-168857142D01*
X235619047Y-168904761D01*
X235523809Y-168952380D01*
X235333333Y-168952380D01*
X235238095Y-168904761D01*
X235190476Y-168857142D01*
X235142857Y-168761904D01*
X235142857Y-168571428D01*
X235190476Y-168476190D01*
X235238095Y-168428571D01*
X235333333Y-168380952D01*
X234523809Y-167952380D02*
X234428571Y-167952380D01*
X234333333Y-168000000D01*
X234285714Y-168047619D01*
X234238095Y-168142857D01*
X234190476Y-168333333D01*
X234190476Y-168571428D01*
X234238095Y-168761904D01*
X234285714Y-168857142D01*
X234333333Y-168904761D01*
X234428571Y-168952380D01*
X234523809Y-168952380D01*
X234619047Y-168904761D01*
X234666666Y-168857142D01*
X234714285Y-168761904D01*
X234761904Y-168571428D01*
X234761904Y-168333333D01*
X234714285Y-168142857D01*
X234666666Y-168047619D01*
X234619047Y-168000000D01*
X234523809Y-167952380D01*
%TO.C,D44*%
X275590714Y-155502380D02*
X275590714Y-154502380D01*
X275412142Y-154502380D01*
X275305000Y-154550000D01*
X275233571Y-154645238D01*
X275197857Y-154740476D01*
X275162142Y-154930952D01*
X275162142Y-155073809D01*
X275197857Y-155264285D01*
X275233571Y-155359523D01*
X275305000Y-155454761D01*
X275412142Y-155502380D01*
X275590714Y-155502380D01*
X274519285Y-154835714D02*
X274519285Y-155502380D01*
X274697857Y-154454761D02*
X274876428Y-155169047D01*
X274412142Y-155169047D01*
X273805000Y-154835714D02*
X273805000Y-155502380D01*
X273983571Y-154454761D02*
X274162142Y-155169047D01*
X273697857Y-155169047D01*
X279071904Y-153652380D02*
X279071904Y-152652380D01*
X278500476Y-153652380D02*
X278929047Y-153080952D01*
X278500476Y-152652380D02*
X279071904Y-153223809D01*
%TO.C,D5*%
X111136808Y-135051480D02*
X111136808Y-134051480D01*
X110958237Y-134051480D01*
X110851094Y-134099100D01*
X110779665Y-134194338D01*
X110743951Y-134289576D01*
X110708237Y-134480052D01*
X110708237Y-134622909D01*
X110743951Y-134813385D01*
X110779665Y-134908623D01*
X110851094Y-135003861D01*
X110958237Y-135051480D01*
X111136808Y-135051480D01*
X110029665Y-134051480D02*
X110386808Y-134051480D01*
X110422522Y-134527671D01*
X110386808Y-134480052D01*
X110315379Y-134432433D01*
X110136808Y-134432433D01*
X110065379Y-134480052D01*
X110029665Y-134527671D01*
X109993951Y-134622909D01*
X109993951Y-134861004D01*
X110029665Y-134956242D01*
X110065379Y-135003861D01*
X110136808Y-135051480D01*
X110315379Y-135051480D01*
X110386808Y-135003861D01*
X110422522Y-134956242D01*
X114975141Y-133201480D02*
X114975141Y-132201480D01*
X114403713Y-133201480D02*
X114832284Y-132630052D01*
X114403713Y-132201480D02*
X114975141Y-132772909D01*
%TO.C,D35*%
X236590714Y-153602380D02*
X236590714Y-152602380D01*
X236412142Y-152602380D01*
X236305000Y-152650000D01*
X236233571Y-152745238D01*
X236197857Y-152840476D01*
X236162142Y-153030952D01*
X236162142Y-153173809D01*
X236197857Y-153364285D01*
X236233571Y-153459523D01*
X236305000Y-153554761D01*
X236412142Y-153602380D01*
X236590714Y-153602380D01*
X235912142Y-152602380D02*
X235447857Y-152602380D01*
X235697857Y-152983333D01*
X235590714Y-152983333D01*
X235519285Y-153030952D01*
X235483571Y-153078571D01*
X235447857Y-153173809D01*
X235447857Y-153411904D01*
X235483571Y-153507142D01*
X235519285Y-153554761D01*
X235590714Y-153602380D01*
X235805000Y-153602380D01*
X235876428Y-153554761D01*
X235912142Y-153507142D01*
X234769285Y-152602380D02*
X235126428Y-152602380D01*
X235162142Y-153078571D01*
X235126428Y-153030952D01*
X235055000Y-152983333D01*
X234876428Y-152983333D01*
X234805000Y-153030952D01*
X234769285Y-153078571D01*
X234733571Y-153173809D01*
X234733571Y-153411904D01*
X234769285Y-153507142D01*
X234805000Y-153554761D01*
X234876428Y-153602380D01*
X235055000Y-153602380D01*
X235126428Y-153554761D01*
X235162142Y-153507142D01*
X240071904Y-151752380D02*
X240071904Y-150752380D01*
X239500476Y-151752380D02*
X239929047Y-151180952D01*
X239500476Y-150752380D02*
X240071904Y-151323809D01*
%TO.C,D52*%
X314590714Y-165302380D02*
X314590714Y-164302380D01*
X314412142Y-164302380D01*
X314305000Y-164350000D01*
X314233571Y-164445238D01*
X314197857Y-164540476D01*
X314162142Y-164730952D01*
X314162142Y-164873809D01*
X314197857Y-165064285D01*
X314233571Y-165159523D01*
X314305000Y-165254761D01*
X314412142Y-165302380D01*
X314590714Y-165302380D01*
X313483571Y-164302380D02*
X313840714Y-164302380D01*
X313876428Y-164778571D01*
X313840714Y-164730952D01*
X313769285Y-164683333D01*
X313590714Y-164683333D01*
X313519285Y-164730952D01*
X313483571Y-164778571D01*
X313447857Y-164873809D01*
X313447857Y-165111904D01*
X313483571Y-165207142D01*
X313519285Y-165254761D01*
X313590714Y-165302380D01*
X313769285Y-165302380D01*
X313840714Y-165254761D01*
X313876428Y-165207142D01*
X313162142Y-164397619D02*
X313126428Y-164350000D01*
X313055000Y-164302380D01*
X312876428Y-164302380D01*
X312805000Y-164350000D01*
X312769285Y-164397619D01*
X312733571Y-164492857D01*
X312733571Y-164588095D01*
X312769285Y-164730952D01*
X313197857Y-165302380D01*
X312733571Y-165302380D01*
X318071904Y-163452380D02*
X318071904Y-162452380D01*
X317500476Y-163452380D02*
X317929047Y-162880952D01*
X317500476Y-162452380D02*
X318071904Y-163023809D01*
%TO.C,SW94*%
X296309523Y-178208820D02*
X296166666Y-178256439D01*
X295928571Y-178256439D01*
X295833333Y-178208820D01*
X295785714Y-178161201D01*
X295738095Y-178065963D01*
X295738095Y-177970725D01*
X295785714Y-177875487D01*
X295833333Y-177827868D01*
X295928571Y-177780249D01*
X296119047Y-177732630D01*
X296214285Y-177685011D01*
X296261904Y-177637392D01*
X296309523Y-177542154D01*
X296309523Y-177446916D01*
X296261904Y-177351678D01*
X296214285Y-177304059D01*
X296119047Y-177256439D01*
X295880952Y-177256439D01*
X295738095Y-177304059D01*
X295404761Y-177256439D02*
X295166666Y-178256439D01*
X294976190Y-177542154D01*
X294785714Y-178256439D01*
X294547619Y-177256439D01*
X294119047Y-178256439D02*
X293928571Y-178256439D01*
X293833333Y-178208820D01*
X293785714Y-178161201D01*
X293690476Y-178018344D01*
X293642857Y-177827868D01*
X293642857Y-177446916D01*
X293690476Y-177351678D01*
X293738095Y-177304059D01*
X293833333Y-177256439D01*
X294023809Y-177256439D01*
X294119047Y-177304059D01*
X294166666Y-177351678D01*
X294214285Y-177446916D01*
X294214285Y-177685011D01*
X294166666Y-177780249D01*
X294119047Y-177827868D01*
X294023809Y-177875487D01*
X293833333Y-177875487D01*
X293738095Y-177827868D01*
X293690476Y-177780249D01*
X293642857Y-177685011D01*
X292785714Y-177589773D02*
X292785714Y-178256439D01*
X293023809Y-177208820D02*
X293261904Y-177923106D01*
X292642857Y-177923106D01*
%TO.C,D9*%
X130823408Y-135051480D02*
X130823408Y-134051480D01*
X130644837Y-134051480D01*
X130537694Y-134099100D01*
X130466265Y-134194338D01*
X130430551Y-134289576D01*
X130394837Y-134480052D01*
X130394837Y-134622909D01*
X130430551Y-134813385D01*
X130466265Y-134908623D01*
X130537694Y-135003861D01*
X130644837Y-135051480D01*
X130823408Y-135051480D01*
X130037694Y-135051480D02*
X129894837Y-135051480D01*
X129823408Y-135003861D01*
X129787694Y-134956242D01*
X129716265Y-134813385D01*
X129680551Y-134622909D01*
X129680551Y-134241957D01*
X129716265Y-134146719D01*
X129751979Y-134099100D01*
X129823408Y-134051480D01*
X129966265Y-134051480D01*
X130037694Y-134099100D01*
X130073408Y-134146719D01*
X130109122Y-134241957D01*
X130109122Y-134480052D01*
X130073408Y-134575290D01*
X130037694Y-134622909D01*
X129966265Y-134670528D01*
X129823408Y-134670528D01*
X129751979Y-134622909D01*
X129716265Y-134575290D01*
X129680551Y-134480052D01*
X134661741Y-133201480D02*
X134661741Y-132201480D01*
X134090313Y-133201480D02*
X134518884Y-132630052D01*
X134090313Y-132201480D02*
X134661741Y-132772909D01*
%TO.C,D12*%
X130993951Y-190551480D02*
X130993951Y-189551480D01*
X130815379Y-189551480D01*
X130708237Y-189599100D01*
X130636808Y-189694338D01*
X130601094Y-189789576D01*
X130565379Y-189980052D01*
X130565379Y-190122909D01*
X130601094Y-190313385D01*
X130636808Y-190408623D01*
X130708237Y-190503861D01*
X130815379Y-190551480D01*
X130993951Y-190551480D01*
X129851094Y-190551480D02*
X130279665Y-190551480D01*
X130065379Y-190551480D02*
X130065379Y-189551480D01*
X130136808Y-189694338D01*
X130208237Y-189789576D01*
X130279665Y-189837195D01*
X129565379Y-189646719D02*
X129529665Y-189599100D01*
X129458237Y-189551480D01*
X129279665Y-189551480D01*
X129208237Y-189599100D01*
X129172522Y-189646719D01*
X129136808Y-189741957D01*
X129136808Y-189837195D01*
X129172522Y-189980052D01*
X129601094Y-190551480D01*
X129136808Y-190551480D01*
X134475141Y-188701480D02*
X134475141Y-187701480D01*
X133903713Y-188701480D02*
X134332284Y-188130052D01*
X133903713Y-187701480D02*
X134475141Y-188272909D01*
%TO.C,SW56*%
X132168360Y-150404761D02*
X132025503Y-150452380D01*
X131787408Y-150452380D01*
X131692170Y-150404761D01*
X131644551Y-150357142D01*
X131596932Y-150261904D01*
X131596932Y-150166666D01*
X131644551Y-150071428D01*
X131692170Y-150023809D01*
X131787408Y-149976190D01*
X131977884Y-149928571D01*
X132073122Y-149880952D01*
X132120741Y-149833333D01*
X132168360Y-149738095D01*
X132168360Y-149642857D01*
X132120741Y-149547619D01*
X132073122Y-149500000D01*
X131977884Y-149452380D01*
X131739789Y-149452380D01*
X131596932Y-149500000D01*
X131263598Y-149452380D02*
X131025503Y-150452380D01*
X130835027Y-149738095D01*
X130644551Y-150452380D01*
X130406456Y-149452380D01*
X129549313Y-149452380D02*
X130025503Y-149452380D01*
X130073122Y-149928571D01*
X130025503Y-149880952D01*
X129930265Y-149833333D01*
X129692170Y-149833333D01*
X129596932Y-149880952D01*
X129549313Y-149928571D01*
X129501694Y-150023809D01*
X129501694Y-150261904D01*
X129549313Y-150357142D01*
X129596932Y-150404761D01*
X129692170Y-150452380D01*
X129930265Y-150452380D01*
X130025503Y-150404761D01*
X130073122Y-150357142D01*
X128644551Y-149452380D02*
X128835027Y-149452380D01*
X128930265Y-149500000D01*
X128977884Y-149547619D01*
X129073122Y-149690476D01*
X129120741Y-149880952D01*
X129120741Y-150261904D01*
X129073122Y-150357142D01*
X129025503Y-150404761D01*
X128930265Y-150452380D01*
X128739789Y-150452380D01*
X128644551Y-150404761D01*
X128596932Y-150357142D01*
X128549313Y-150261904D01*
X128549313Y-150023809D01*
X128596932Y-149928571D01*
X128644551Y-149880952D01*
X128739789Y-149833333D01*
X128930265Y-149833333D01*
X129025503Y-149880952D01*
X129073122Y-149928571D01*
X129120741Y-150023809D01*
%TO.C,D47*%
X295090714Y-144302380D02*
X295090714Y-143302380D01*
X294912142Y-143302380D01*
X294805000Y-143350000D01*
X294733571Y-143445238D01*
X294697857Y-143540476D01*
X294662142Y-143730952D01*
X294662142Y-143873809D01*
X294697857Y-144064285D01*
X294733571Y-144159523D01*
X294805000Y-144254761D01*
X294912142Y-144302380D01*
X295090714Y-144302380D01*
X294019285Y-143635714D02*
X294019285Y-144302380D01*
X294197857Y-143254761D02*
X294376428Y-143969047D01*
X293912142Y-143969047D01*
X293697857Y-143302380D02*
X293197857Y-143302380D01*
X293519285Y-144302380D01*
X298571904Y-142452380D02*
X298571904Y-141452380D01*
X298000476Y-142452380D02*
X298429047Y-141880952D01*
X298000476Y-141452380D02*
X298571904Y-142023809D01*
%TO.C,D23*%
X197893951Y-116551480D02*
X197893951Y-115551480D01*
X197715379Y-115551480D01*
X197608237Y-115599100D01*
X197536808Y-115694338D01*
X197501094Y-115789576D01*
X197465379Y-115980052D01*
X197465379Y-116122909D01*
X197501094Y-116313385D01*
X197536808Y-116408623D01*
X197608237Y-116503861D01*
X197715379Y-116551480D01*
X197893951Y-116551480D01*
X197179665Y-115646719D02*
X197143951Y-115599100D01*
X197072522Y-115551480D01*
X196893951Y-115551480D01*
X196822522Y-115599100D01*
X196786808Y-115646719D01*
X196751094Y-115741957D01*
X196751094Y-115837195D01*
X196786808Y-115980052D01*
X197215379Y-116551480D01*
X196751094Y-116551480D01*
X196501094Y-115551480D02*
X196036808Y-115551480D01*
X196286808Y-115932433D01*
X196179665Y-115932433D01*
X196108237Y-115980052D01*
X196072522Y-116027671D01*
X196036808Y-116122909D01*
X196036808Y-116361004D01*
X196072522Y-116456242D01*
X196108237Y-116503861D01*
X196179665Y-116551480D01*
X196393951Y-116551480D01*
X196465379Y-116503861D01*
X196501094Y-116456242D01*
X201375141Y-114701480D02*
X201375141Y-113701480D01*
X200803713Y-114701480D02*
X201232284Y-114130052D01*
X200803713Y-113701480D02*
X201375141Y-114272909D01*
%TO.C,SW60*%
X151668360Y-131904761D02*
X151525503Y-131952380D01*
X151287408Y-131952380D01*
X151192170Y-131904761D01*
X151144551Y-131857142D01*
X151096932Y-131761904D01*
X151096932Y-131666666D01*
X151144551Y-131571428D01*
X151192170Y-131523809D01*
X151287408Y-131476190D01*
X151477884Y-131428571D01*
X151573122Y-131380952D01*
X151620741Y-131333333D01*
X151668360Y-131238095D01*
X151668360Y-131142857D01*
X151620741Y-131047619D01*
X151573122Y-131000000D01*
X151477884Y-130952380D01*
X151239789Y-130952380D01*
X151096932Y-131000000D01*
X150763598Y-130952380D02*
X150525503Y-131952380D01*
X150335027Y-131238095D01*
X150144551Y-131952380D01*
X149906456Y-130952380D01*
X149096932Y-130952380D02*
X149287408Y-130952380D01*
X149382646Y-131000000D01*
X149430265Y-131047619D01*
X149525503Y-131190476D01*
X149573122Y-131380952D01*
X149573122Y-131761904D01*
X149525503Y-131857142D01*
X149477884Y-131904761D01*
X149382646Y-131952380D01*
X149192170Y-131952380D01*
X149096932Y-131904761D01*
X149049313Y-131857142D01*
X149001694Y-131761904D01*
X149001694Y-131523809D01*
X149049313Y-131428571D01*
X149096932Y-131380952D01*
X149192170Y-131333333D01*
X149382646Y-131333333D01*
X149477884Y-131380952D01*
X149525503Y-131428571D01*
X149573122Y-131523809D01*
X148382646Y-130952380D02*
X148287408Y-130952380D01*
X148192170Y-131000000D01*
X148144551Y-131047619D01*
X148096932Y-131142857D01*
X148049313Y-131333333D01*
X148049313Y-131571428D01*
X148096932Y-131761904D01*
X148144551Y-131857142D01*
X148192170Y-131904761D01*
X148287408Y-131952380D01*
X148382646Y-131952380D01*
X148477884Y-131904761D01*
X148525503Y-131857142D01*
X148573122Y-131761904D01*
X148620741Y-131571428D01*
X148620741Y-131333333D01*
X148573122Y-131142857D01*
X148525503Y-131047619D01*
X148477884Y-131000000D01*
X148382646Y-130952380D01*
%TO.C,D48*%
X295090714Y-162902380D02*
X295090714Y-161902380D01*
X294912142Y-161902380D01*
X294805000Y-161950000D01*
X294733571Y-162045238D01*
X294697857Y-162140476D01*
X294662142Y-162330952D01*
X294662142Y-162473809D01*
X294697857Y-162664285D01*
X294733571Y-162759523D01*
X294805000Y-162854761D01*
X294912142Y-162902380D01*
X295090714Y-162902380D01*
X294019285Y-162235714D02*
X294019285Y-162902380D01*
X294197857Y-161854761D02*
X294376428Y-162569047D01*
X293912142Y-162569047D01*
X293519285Y-162330952D02*
X293590714Y-162283333D01*
X293626428Y-162235714D01*
X293662142Y-162140476D01*
X293662142Y-162092857D01*
X293626428Y-161997619D01*
X293590714Y-161950000D01*
X293519285Y-161902380D01*
X293376428Y-161902380D01*
X293305000Y-161950000D01*
X293269285Y-161997619D01*
X293233571Y-162092857D01*
X293233571Y-162140476D01*
X293269285Y-162235714D01*
X293305000Y-162283333D01*
X293376428Y-162330952D01*
X293519285Y-162330952D01*
X293590714Y-162378571D01*
X293626428Y-162426190D01*
X293662142Y-162521428D01*
X293662142Y-162711904D01*
X293626428Y-162807142D01*
X293590714Y-162854761D01*
X293519285Y-162902380D01*
X293376428Y-162902380D01*
X293305000Y-162854761D01*
X293269285Y-162807142D01*
X293233571Y-162711904D01*
X293233571Y-162521428D01*
X293269285Y-162426190D01*
X293305000Y-162378571D01*
X293376428Y-162330952D01*
X298571904Y-161052380D02*
X298571904Y-160052380D01*
X298000476Y-161052380D02*
X298429047Y-160480952D01*
X298000476Y-160052380D02*
X298571904Y-160623809D01*
%TO.C,D37*%
X256090714Y-104902380D02*
X256090714Y-103902380D01*
X255912142Y-103902380D01*
X255805000Y-103950000D01*
X255733571Y-104045238D01*
X255697857Y-104140476D01*
X255662142Y-104330952D01*
X255662142Y-104473809D01*
X255697857Y-104664285D01*
X255733571Y-104759523D01*
X255805000Y-104854761D01*
X255912142Y-104902380D01*
X256090714Y-104902380D01*
X255412142Y-103902380D02*
X254947857Y-103902380D01*
X255197857Y-104283333D01*
X255090714Y-104283333D01*
X255019285Y-104330952D01*
X254983571Y-104378571D01*
X254947857Y-104473809D01*
X254947857Y-104711904D01*
X254983571Y-104807142D01*
X255019285Y-104854761D01*
X255090714Y-104902380D01*
X255305000Y-104902380D01*
X255376428Y-104854761D01*
X255412142Y-104807142D01*
X254697857Y-103902380D02*
X254197857Y-103902380D01*
X254519285Y-104902380D01*
X259571904Y-103052380D02*
X259571904Y-102052380D01*
X259000476Y-103052380D02*
X259429047Y-102480952D01*
X259000476Y-102052380D02*
X259571904Y-102623809D01*
%TO.C,SW62*%
X151668360Y-168904761D02*
X151525503Y-168952380D01*
X151287408Y-168952380D01*
X151192170Y-168904761D01*
X151144551Y-168857142D01*
X151096932Y-168761904D01*
X151096932Y-168666666D01*
X151144551Y-168571428D01*
X151192170Y-168523809D01*
X151287408Y-168476190D01*
X151477884Y-168428571D01*
X151573122Y-168380952D01*
X151620741Y-168333333D01*
X151668360Y-168238095D01*
X151668360Y-168142857D01*
X151620741Y-168047619D01*
X151573122Y-168000000D01*
X151477884Y-167952380D01*
X151239789Y-167952380D01*
X151096932Y-168000000D01*
X150763598Y-167952380D02*
X150525503Y-168952380D01*
X150335027Y-168238095D01*
X150144551Y-168952380D01*
X149906456Y-167952380D01*
X149096932Y-167952380D02*
X149287408Y-167952380D01*
X149382646Y-168000000D01*
X149430265Y-168047619D01*
X149525503Y-168190476D01*
X149573122Y-168380952D01*
X149573122Y-168761904D01*
X149525503Y-168857142D01*
X149477884Y-168904761D01*
X149382646Y-168952380D01*
X149192170Y-168952380D01*
X149096932Y-168904761D01*
X149049313Y-168857142D01*
X149001694Y-168761904D01*
X149001694Y-168523809D01*
X149049313Y-168428571D01*
X149096932Y-168380952D01*
X149192170Y-168333333D01*
X149382646Y-168333333D01*
X149477884Y-168380952D01*
X149525503Y-168428571D01*
X149573122Y-168523809D01*
X148620741Y-168047619D02*
X148573122Y-168000000D01*
X148477884Y-167952380D01*
X148239789Y-167952380D01*
X148144551Y-168000000D01*
X148096932Y-168047619D01*
X148049313Y-168142857D01*
X148049313Y-168238095D01*
X148096932Y-168380952D01*
X148668360Y-168952380D01*
X148049313Y-168952380D01*
%TO.C,D17*%
X150393951Y-190551480D02*
X150393951Y-189551480D01*
X150215379Y-189551480D01*
X150108237Y-189599100D01*
X150036808Y-189694338D01*
X150001094Y-189789576D01*
X149965379Y-189980052D01*
X149965379Y-190122909D01*
X150001094Y-190313385D01*
X150036808Y-190408623D01*
X150108237Y-190503861D01*
X150215379Y-190551480D01*
X150393951Y-190551480D01*
X149251094Y-190551480D02*
X149679665Y-190551480D01*
X149465379Y-190551480D02*
X149465379Y-189551480D01*
X149536808Y-189694338D01*
X149608237Y-189789576D01*
X149679665Y-189837195D01*
X149001094Y-189551480D02*
X148501094Y-189551480D01*
X148822522Y-190551480D01*
X153875141Y-188701480D02*
X153875141Y-187701480D01*
X153303713Y-188701480D02*
X153732284Y-188130052D01*
X153303713Y-187701480D02*
X153875141Y-188272909D01*
%TO.C,SW92*%
X296309523Y-141208820D02*
X296166666Y-141256439D01*
X295928571Y-141256439D01*
X295833333Y-141208820D01*
X295785714Y-141161201D01*
X295738095Y-141065963D01*
X295738095Y-140970725D01*
X295785714Y-140875487D01*
X295833333Y-140827868D01*
X295928571Y-140780249D01*
X296119047Y-140732630D01*
X296214285Y-140685011D01*
X296261904Y-140637392D01*
X296309523Y-140542154D01*
X296309523Y-140446916D01*
X296261904Y-140351678D01*
X296214285Y-140304059D01*
X296119047Y-140256439D01*
X295880952Y-140256439D01*
X295738095Y-140304059D01*
X295404761Y-140256439D02*
X295166666Y-141256439D01*
X294976190Y-140542154D01*
X294785714Y-141256439D01*
X294547619Y-140256439D01*
X294119047Y-141256439D02*
X293928571Y-141256439D01*
X293833333Y-141208820D01*
X293785714Y-141161201D01*
X293690476Y-141018344D01*
X293642857Y-140827868D01*
X293642857Y-140446916D01*
X293690476Y-140351678D01*
X293738095Y-140304059D01*
X293833333Y-140256439D01*
X294023809Y-140256439D01*
X294119047Y-140304059D01*
X294166666Y-140351678D01*
X294214285Y-140446916D01*
X294214285Y-140685011D01*
X294166666Y-140780249D01*
X294119047Y-140827868D01*
X294023809Y-140875487D01*
X293833333Y-140875487D01*
X293738095Y-140827868D01*
X293690476Y-140780249D01*
X293642857Y-140685011D01*
X293261904Y-140351678D02*
X293214285Y-140304059D01*
X293119047Y-140256439D01*
X292880952Y-140256439D01*
X292785714Y-140304059D01*
X292738095Y-140351678D01*
X292690476Y-140446916D01*
X292690476Y-140542154D01*
X292738095Y-140685011D01*
X293309523Y-141256439D01*
X292690476Y-141256439D01*
%TO.C,D46*%
X295090714Y-125902380D02*
X295090714Y-124902380D01*
X294912142Y-124902380D01*
X294805000Y-124950000D01*
X294733571Y-125045238D01*
X294697857Y-125140476D01*
X294662142Y-125330952D01*
X294662142Y-125473809D01*
X294697857Y-125664285D01*
X294733571Y-125759523D01*
X294805000Y-125854761D01*
X294912142Y-125902380D01*
X295090714Y-125902380D01*
X294019285Y-125235714D02*
X294019285Y-125902380D01*
X294197857Y-124854761D02*
X294376428Y-125569047D01*
X293912142Y-125569047D01*
X293305000Y-124902380D02*
X293447857Y-124902380D01*
X293519285Y-124950000D01*
X293555000Y-124997619D01*
X293626428Y-125140476D01*
X293662142Y-125330952D01*
X293662142Y-125711904D01*
X293626428Y-125807142D01*
X293590714Y-125854761D01*
X293519285Y-125902380D01*
X293376428Y-125902380D01*
X293305000Y-125854761D01*
X293269285Y-125807142D01*
X293233571Y-125711904D01*
X293233571Y-125473809D01*
X293269285Y-125378571D01*
X293305000Y-125330952D01*
X293376428Y-125283333D01*
X293519285Y-125283333D01*
X293590714Y-125330952D01*
X293626428Y-125378571D01*
X293662142Y-125473809D01*
X298571904Y-124052380D02*
X298571904Y-123052380D01*
X298000476Y-124052380D02*
X298429047Y-123480952D01*
X298000476Y-123052380D02*
X298571904Y-123623809D01*
%TO.C,SW57*%
X132168360Y-168904761D02*
X132025503Y-168952380D01*
X131787408Y-168952380D01*
X131692170Y-168904761D01*
X131644551Y-168857142D01*
X131596932Y-168761904D01*
X131596932Y-168666666D01*
X131644551Y-168571428D01*
X131692170Y-168523809D01*
X131787408Y-168476190D01*
X131977884Y-168428571D01*
X132073122Y-168380952D01*
X132120741Y-168333333D01*
X132168360Y-168238095D01*
X132168360Y-168142857D01*
X132120741Y-168047619D01*
X132073122Y-168000000D01*
X131977884Y-167952380D01*
X131739789Y-167952380D01*
X131596932Y-168000000D01*
X131263598Y-167952380D02*
X131025503Y-168952380D01*
X130835027Y-168238095D01*
X130644551Y-168952380D01*
X130406456Y-167952380D01*
X129549313Y-167952380D02*
X130025503Y-167952380D01*
X130073122Y-168428571D01*
X130025503Y-168380952D01*
X129930265Y-168333333D01*
X129692170Y-168333333D01*
X129596932Y-168380952D01*
X129549313Y-168428571D01*
X129501694Y-168523809D01*
X129501694Y-168761904D01*
X129549313Y-168857142D01*
X129596932Y-168904761D01*
X129692170Y-168952380D01*
X129930265Y-168952380D01*
X130025503Y-168904761D01*
X130073122Y-168857142D01*
X129168360Y-167952380D02*
X128501694Y-167952380D01*
X128930265Y-168952380D01*
%TO.C,D21*%
X169993951Y-172051480D02*
X169993951Y-171051480D01*
X169815379Y-171051480D01*
X169708237Y-171099100D01*
X169636808Y-171194338D01*
X169601094Y-171289576D01*
X169565379Y-171480052D01*
X169565379Y-171622909D01*
X169601094Y-171813385D01*
X169636808Y-171908623D01*
X169708237Y-172003861D01*
X169815379Y-172051480D01*
X169993951Y-172051480D01*
X169279665Y-171146719D02*
X169243951Y-171099100D01*
X169172522Y-171051480D01*
X168993951Y-171051480D01*
X168922522Y-171099100D01*
X168886808Y-171146719D01*
X168851094Y-171241957D01*
X168851094Y-171337195D01*
X168886808Y-171480052D01*
X169315379Y-172051480D01*
X168851094Y-172051480D01*
X168136808Y-172051480D02*
X168565379Y-172051480D01*
X168351094Y-172051480D02*
X168351094Y-171051480D01*
X168422522Y-171194338D01*
X168493951Y-171289576D01*
X168565379Y-171337195D01*
X173475141Y-170201480D02*
X173475141Y-169201480D01*
X172903713Y-170201480D02*
X173332284Y-169630052D01*
X172903713Y-169201480D02*
X173475141Y-169772909D01*
%TO.C,D18*%
X169793951Y-116551480D02*
X169793951Y-115551480D01*
X169615379Y-115551480D01*
X169508237Y-115599100D01*
X169436808Y-115694338D01*
X169401094Y-115789576D01*
X169365379Y-115980052D01*
X169365379Y-116122909D01*
X169401094Y-116313385D01*
X169436808Y-116408623D01*
X169508237Y-116503861D01*
X169615379Y-116551480D01*
X169793951Y-116551480D01*
X168651094Y-116551480D02*
X169079665Y-116551480D01*
X168865379Y-116551480D02*
X168865379Y-115551480D01*
X168936808Y-115694338D01*
X169008237Y-115789576D01*
X169079665Y-115837195D01*
X168222522Y-115980052D02*
X168293951Y-115932433D01*
X168329665Y-115884814D01*
X168365379Y-115789576D01*
X168365379Y-115741957D01*
X168329665Y-115646719D01*
X168293951Y-115599100D01*
X168222522Y-115551480D01*
X168079665Y-115551480D01*
X168008237Y-115599100D01*
X167972522Y-115646719D01*
X167936808Y-115741957D01*
X167936808Y-115789576D01*
X167972522Y-115884814D01*
X168008237Y-115932433D01*
X168079665Y-115980052D01*
X168222522Y-115980052D01*
X168293951Y-116027671D01*
X168329665Y-116075290D01*
X168365379Y-116170528D01*
X168365379Y-116361004D01*
X168329665Y-116456242D01*
X168293951Y-116503861D01*
X168222522Y-116551480D01*
X168079665Y-116551480D01*
X168008237Y-116503861D01*
X167972522Y-116456242D01*
X167936808Y-116361004D01*
X167936808Y-116170528D01*
X167972522Y-116075290D01*
X168008237Y-116027671D01*
X168079665Y-115980052D01*
X173275141Y-114701480D02*
X173275141Y-113701480D01*
X172703713Y-114701480D02*
X173132284Y-114130052D01*
X172703713Y-113701480D02*
X173275141Y-114272909D01*
%TO.C,SW81*%
X237809523Y-187404761D02*
X237666666Y-187452380D01*
X237428571Y-187452380D01*
X237333333Y-187404761D01*
X237285714Y-187357142D01*
X237238095Y-187261904D01*
X237238095Y-187166666D01*
X237285714Y-187071428D01*
X237333333Y-187023809D01*
X237428571Y-186976190D01*
X237619047Y-186928571D01*
X237714285Y-186880952D01*
X237761904Y-186833333D01*
X237809523Y-186738095D01*
X237809523Y-186642857D01*
X237761904Y-186547619D01*
X237714285Y-186500000D01*
X237619047Y-186452380D01*
X237380952Y-186452380D01*
X237238095Y-186500000D01*
X236904761Y-186452380D02*
X236666666Y-187452380D01*
X236476190Y-186738095D01*
X236285714Y-187452380D01*
X236047619Y-186452380D01*
X235523809Y-186880952D02*
X235619047Y-186833333D01*
X235666666Y-186785714D01*
X235714285Y-186690476D01*
X235714285Y-186642857D01*
X235666666Y-186547619D01*
X235619047Y-186500000D01*
X235523809Y-186452380D01*
X235333333Y-186452380D01*
X235238095Y-186500000D01*
X235190476Y-186547619D01*
X235142857Y-186642857D01*
X235142857Y-186690476D01*
X235190476Y-186785714D01*
X235238095Y-186833333D01*
X235333333Y-186880952D01*
X235523809Y-186880952D01*
X235619047Y-186928571D01*
X235666666Y-186976190D01*
X235714285Y-187071428D01*
X235714285Y-187261904D01*
X235666666Y-187357142D01*
X235619047Y-187404761D01*
X235523809Y-187452380D01*
X235333333Y-187452380D01*
X235238095Y-187404761D01*
X235190476Y-187357142D01*
X235142857Y-187261904D01*
X235142857Y-187071428D01*
X235190476Y-186976190D01*
X235238095Y-186928571D01*
X235333333Y-186880952D01*
X234190476Y-187452380D02*
X234761904Y-187452380D01*
X234476190Y-187452380D02*
X234476190Y-186452380D01*
X234571428Y-186595238D01*
X234666666Y-186690476D01*
X234761904Y-186738095D01*
%TO.C,SW98*%
X315809523Y-180696180D02*
X315666666Y-180743799D01*
X315428571Y-180743799D01*
X315333333Y-180696180D01*
X315285714Y-180648561D01*
X315238095Y-180553323D01*
X315238095Y-180458085D01*
X315285714Y-180362847D01*
X315333333Y-180315228D01*
X315428571Y-180267609D01*
X315619047Y-180219990D01*
X315714285Y-180172371D01*
X315761904Y-180124752D01*
X315809523Y-180029514D01*
X315809523Y-179934276D01*
X315761904Y-179839038D01*
X315714285Y-179791419D01*
X315619047Y-179743799D01*
X315380952Y-179743799D01*
X315238095Y-179791419D01*
X314904761Y-179743799D02*
X314666666Y-180743799D01*
X314476190Y-180029514D01*
X314285714Y-180743799D01*
X314047619Y-179743799D01*
X313619047Y-180743799D02*
X313428571Y-180743799D01*
X313333333Y-180696180D01*
X313285714Y-180648561D01*
X313190476Y-180505704D01*
X313142857Y-180315228D01*
X313142857Y-179934276D01*
X313190476Y-179839038D01*
X313238095Y-179791419D01*
X313333333Y-179743799D01*
X313523809Y-179743799D01*
X313619047Y-179791419D01*
X313666666Y-179839038D01*
X313714285Y-179934276D01*
X313714285Y-180172371D01*
X313666666Y-180267609D01*
X313619047Y-180315228D01*
X313523809Y-180362847D01*
X313333333Y-180362847D01*
X313238095Y-180315228D01*
X313190476Y-180267609D01*
X313142857Y-180172371D01*
X312571428Y-180172371D02*
X312666666Y-180124752D01*
X312714285Y-180077133D01*
X312761904Y-179981895D01*
X312761904Y-179934276D01*
X312714285Y-179839038D01*
X312666666Y-179791419D01*
X312571428Y-179743799D01*
X312380952Y-179743799D01*
X312285714Y-179791419D01*
X312238095Y-179839038D01*
X312190476Y-179934276D01*
X312190476Y-179981895D01*
X312238095Y-180077133D01*
X312285714Y-180124752D01*
X312380952Y-180172371D01*
X312571428Y-180172371D01*
X312666666Y-180219990D01*
X312714285Y-180267609D01*
X312761904Y-180362847D01*
X312761904Y-180553323D01*
X312714285Y-180648561D01*
X312666666Y-180696180D01*
X312571428Y-180743799D01*
X312380952Y-180743799D01*
X312285714Y-180696180D01*
X312238095Y-180648561D01*
X312190476Y-180553323D01*
X312190476Y-180362847D01*
X312238095Y-180267609D01*
X312285714Y-180219990D01*
X312380952Y-180172371D01*
%TO.C,D43*%
X275590714Y-137002380D02*
X275590714Y-136002380D01*
X275412142Y-136002380D01*
X275305000Y-136050000D01*
X275233571Y-136145238D01*
X275197857Y-136240476D01*
X275162142Y-136430952D01*
X275162142Y-136573809D01*
X275197857Y-136764285D01*
X275233571Y-136859523D01*
X275305000Y-136954761D01*
X275412142Y-137002380D01*
X275590714Y-137002380D01*
X274519285Y-136335714D02*
X274519285Y-137002380D01*
X274697857Y-135954761D02*
X274876428Y-136669047D01*
X274412142Y-136669047D01*
X274197857Y-136002380D02*
X273733571Y-136002380D01*
X273983571Y-136383333D01*
X273876428Y-136383333D01*
X273805000Y-136430952D01*
X273769285Y-136478571D01*
X273733571Y-136573809D01*
X273733571Y-136811904D01*
X273769285Y-136907142D01*
X273805000Y-136954761D01*
X273876428Y-137002380D01*
X274090714Y-137002380D01*
X274162142Y-136954761D01*
X274197857Y-136907142D01*
X279071904Y-135152380D02*
X279071904Y-134152380D01*
X278500476Y-135152380D02*
X278929047Y-134580952D01*
X278500476Y-134152380D02*
X279071904Y-134723809D01*
%TO.C,SW75*%
X218309523Y-168904761D02*
X218166666Y-168952380D01*
X217928571Y-168952380D01*
X217833333Y-168904761D01*
X217785714Y-168857142D01*
X217738095Y-168761904D01*
X217738095Y-168666666D01*
X217785714Y-168571428D01*
X217833333Y-168523809D01*
X217928571Y-168476190D01*
X218119047Y-168428571D01*
X218214285Y-168380952D01*
X218261904Y-168333333D01*
X218309523Y-168238095D01*
X218309523Y-168142857D01*
X218261904Y-168047619D01*
X218214285Y-168000000D01*
X218119047Y-167952380D01*
X217880952Y-167952380D01*
X217738095Y-168000000D01*
X217404761Y-167952380D02*
X217166666Y-168952380D01*
X216976190Y-168238095D01*
X216785714Y-168952380D01*
X216547619Y-167952380D01*
X216261904Y-167952380D02*
X215595238Y-167952380D01*
X216023809Y-168952380D01*
X214738095Y-167952380D02*
X215214285Y-167952380D01*
X215261904Y-168428571D01*
X215214285Y-168380952D01*
X215119047Y-168333333D01*
X214880952Y-168333333D01*
X214785714Y-168380952D01*
X214738095Y-168428571D01*
X214690476Y-168523809D01*
X214690476Y-168761904D01*
X214738095Y-168857142D01*
X214785714Y-168904761D01*
X214880952Y-168952380D01*
X215119047Y-168952380D01*
X215214285Y-168904761D01*
X215261904Y-168857142D01*
%TO.C,D38*%
X256090714Y-123402380D02*
X256090714Y-122402380D01*
X255912142Y-122402380D01*
X255805000Y-122450000D01*
X255733571Y-122545238D01*
X255697857Y-122640476D01*
X255662142Y-122830952D01*
X255662142Y-122973809D01*
X255697857Y-123164285D01*
X255733571Y-123259523D01*
X255805000Y-123354761D01*
X255912142Y-123402380D01*
X256090714Y-123402380D01*
X255412142Y-122402380D02*
X254947857Y-122402380D01*
X255197857Y-122783333D01*
X255090714Y-122783333D01*
X255019285Y-122830952D01*
X254983571Y-122878571D01*
X254947857Y-122973809D01*
X254947857Y-123211904D01*
X254983571Y-123307142D01*
X255019285Y-123354761D01*
X255090714Y-123402380D01*
X255305000Y-123402380D01*
X255376428Y-123354761D01*
X255412142Y-123307142D01*
X254519285Y-122830952D02*
X254590714Y-122783333D01*
X254626428Y-122735714D01*
X254662142Y-122640476D01*
X254662142Y-122592857D01*
X254626428Y-122497619D01*
X254590714Y-122450000D01*
X254519285Y-122402380D01*
X254376428Y-122402380D01*
X254305000Y-122450000D01*
X254269285Y-122497619D01*
X254233571Y-122592857D01*
X254233571Y-122640476D01*
X254269285Y-122735714D01*
X254305000Y-122783333D01*
X254376428Y-122830952D01*
X254519285Y-122830952D01*
X254590714Y-122878571D01*
X254626428Y-122926190D01*
X254662142Y-123021428D01*
X254662142Y-123211904D01*
X254626428Y-123307142D01*
X254590714Y-123354761D01*
X254519285Y-123402380D01*
X254376428Y-123402380D01*
X254305000Y-123354761D01*
X254269285Y-123307142D01*
X254233571Y-123211904D01*
X254233571Y-123021428D01*
X254269285Y-122926190D01*
X254305000Y-122878571D01*
X254376428Y-122830952D01*
X259571904Y-121552380D02*
X259571904Y-120552380D01*
X259000476Y-121552380D02*
X259429047Y-120980952D01*
X259000476Y-120552380D02*
X259571904Y-121123809D01*
%TO.C,D33*%
X236690714Y-116602380D02*
X236690714Y-115602380D01*
X236512142Y-115602380D01*
X236405000Y-115650000D01*
X236333571Y-115745238D01*
X236297857Y-115840476D01*
X236262142Y-116030952D01*
X236262142Y-116173809D01*
X236297857Y-116364285D01*
X236333571Y-116459523D01*
X236405000Y-116554761D01*
X236512142Y-116602380D01*
X236690714Y-116602380D01*
X236012142Y-115602380D02*
X235547857Y-115602380D01*
X235797857Y-115983333D01*
X235690714Y-115983333D01*
X235619285Y-116030952D01*
X235583571Y-116078571D01*
X235547857Y-116173809D01*
X235547857Y-116411904D01*
X235583571Y-116507142D01*
X235619285Y-116554761D01*
X235690714Y-116602380D01*
X235905000Y-116602380D01*
X235976428Y-116554761D01*
X236012142Y-116507142D01*
X235297857Y-115602380D02*
X234833571Y-115602380D01*
X235083571Y-115983333D01*
X234976428Y-115983333D01*
X234905000Y-116030952D01*
X234869285Y-116078571D01*
X234833571Y-116173809D01*
X234833571Y-116411904D01*
X234869285Y-116507142D01*
X234905000Y-116554761D01*
X234976428Y-116602380D01*
X235190714Y-116602380D01*
X235262142Y-116554761D01*
X235297857Y-116507142D01*
X240171904Y-114752380D02*
X240171904Y-113752380D01*
X239600476Y-114752380D02*
X240029047Y-114180952D01*
X239600476Y-113752380D02*
X240171904Y-114323809D01*
%TO.C,D10*%
X130993951Y-153551480D02*
X130993951Y-152551480D01*
X130815379Y-152551480D01*
X130708237Y-152599100D01*
X130636808Y-152694338D01*
X130601094Y-152789576D01*
X130565379Y-152980052D01*
X130565379Y-153122909D01*
X130601094Y-153313385D01*
X130636808Y-153408623D01*
X130708237Y-153503861D01*
X130815379Y-153551480D01*
X130993951Y-153551480D01*
X129851094Y-153551480D02*
X130279665Y-153551480D01*
X130065379Y-153551480D02*
X130065379Y-152551480D01*
X130136808Y-152694338D01*
X130208237Y-152789576D01*
X130279665Y-152837195D01*
X129386808Y-152551480D02*
X129315379Y-152551480D01*
X129243951Y-152599100D01*
X129208237Y-152646719D01*
X129172522Y-152741957D01*
X129136808Y-152932433D01*
X129136808Y-153170528D01*
X129172522Y-153361004D01*
X129208237Y-153456242D01*
X129243951Y-153503861D01*
X129315379Y-153551480D01*
X129386808Y-153551480D01*
X129458237Y-153503861D01*
X129493951Y-153456242D01*
X129529665Y-153361004D01*
X129565379Y-153170528D01*
X129565379Y-152932433D01*
X129529665Y-152741957D01*
X129493951Y-152646719D01*
X129458237Y-152599100D01*
X129386808Y-152551480D01*
X134475141Y-151701480D02*
X134475141Y-150701480D01*
X133903713Y-151701480D02*
X134332284Y-151130052D01*
X133903713Y-150701480D02*
X134475141Y-151272909D01*
%TO.C,SW84*%
X257309523Y-138763372D02*
X257166666Y-138810991D01*
X256928571Y-138810991D01*
X256833333Y-138763372D01*
X256785714Y-138715753D01*
X256738095Y-138620515D01*
X256738095Y-138525277D01*
X256785714Y-138430039D01*
X256833333Y-138382420D01*
X256928571Y-138334801D01*
X257119047Y-138287182D01*
X257214285Y-138239563D01*
X257261904Y-138191944D01*
X257309523Y-138096706D01*
X257309523Y-138001468D01*
X257261904Y-137906230D01*
X257214285Y-137858611D01*
X257119047Y-137810991D01*
X256880952Y-137810991D01*
X256738095Y-137858611D01*
X256404761Y-137810991D02*
X256166666Y-138810991D01*
X255976190Y-138096706D01*
X255785714Y-138810991D01*
X255547619Y-137810991D01*
X255023809Y-138239563D02*
X255119047Y-138191944D01*
X255166666Y-138144325D01*
X255214285Y-138049087D01*
X255214285Y-138001468D01*
X255166666Y-137906230D01*
X255119047Y-137858611D01*
X255023809Y-137810991D01*
X254833333Y-137810991D01*
X254738095Y-137858611D01*
X254690476Y-137906230D01*
X254642857Y-138001468D01*
X254642857Y-138049087D01*
X254690476Y-138144325D01*
X254738095Y-138191944D01*
X254833333Y-138239563D01*
X255023809Y-138239563D01*
X255119047Y-138287182D01*
X255166666Y-138334801D01*
X255214285Y-138430039D01*
X255214285Y-138620515D01*
X255166666Y-138715753D01*
X255119047Y-138763372D01*
X255023809Y-138810991D01*
X254833333Y-138810991D01*
X254738095Y-138763372D01*
X254690476Y-138715753D01*
X254642857Y-138620515D01*
X254642857Y-138430039D01*
X254690476Y-138334801D01*
X254738095Y-138287182D01*
X254833333Y-138239563D01*
X253785714Y-138144325D02*
X253785714Y-138810991D01*
X254023809Y-137763372D02*
X254261904Y-138477658D01*
X253642857Y-138477658D01*
%TO.C,D51*%
X314590714Y-146802380D02*
X314590714Y-145802380D01*
X314412142Y-145802380D01*
X314305000Y-145850000D01*
X314233571Y-145945238D01*
X314197857Y-146040476D01*
X314162142Y-146230952D01*
X314162142Y-146373809D01*
X314197857Y-146564285D01*
X314233571Y-146659523D01*
X314305000Y-146754761D01*
X314412142Y-146802380D01*
X314590714Y-146802380D01*
X313483571Y-145802380D02*
X313840714Y-145802380D01*
X313876428Y-146278571D01*
X313840714Y-146230952D01*
X313769285Y-146183333D01*
X313590714Y-146183333D01*
X313519285Y-146230952D01*
X313483571Y-146278571D01*
X313447857Y-146373809D01*
X313447857Y-146611904D01*
X313483571Y-146707142D01*
X313519285Y-146754761D01*
X313590714Y-146802380D01*
X313769285Y-146802380D01*
X313840714Y-146754761D01*
X313876428Y-146707142D01*
X312733571Y-146802380D02*
X313162142Y-146802380D01*
X312947857Y-146802380D02*
X312947857Y-145802380D01*
X313019285Y-145945238D01*
X313090714Y-146040476D01*
X313162142Y-146088095D01*
X318071904Y-144952380D02*
X318071904Y-143952380D01*
X317500476Y-144952380D02*
X317929047Y-144380952D01*
X317500476Y-143952380D02*
X318071904Y-144523809D01*
%TO.C,D40*%
X256090714Y-160402380D02*
X256090714Y-159402380D01*
X255912142Y-159402380D01*
X255805000Y-159450000D01*
X255733571Y-159545238D01*
X255697857Y-159640476D01*
X255662142Y-159830952D01*
X255662142Y-159973809D01*
X255697857Y-160164285D01*
X255733571Y-160259523D01*
X255805000Y-160354761D01*
X255912142Y-160402380D01*
X256090714Y-160402380D01*
X255019285Y-159735714D02*
X255019285Y-160402380D01*
X255197857Y-159354761D02*
X255376428Y-160069047D01*
X254912142Y-160069047D01*
X254483571Y-159402380D02*
X254412142Y-159402380D01*
X254340714Y-159450000D01*
X254305000Y-159497619D01*
X254269285Y-159592857D01*
X254233571Y-159783333D01*
X254233571Y-160021428D01*
X254269285Y-160211904D01*
X254305000Y-160307142D01*
X254340714Y-160354761D01*
X254412142Y-160402380D01*
X254483571Y-160402380D01*
X254555000Y-160354761D01*
X254590714Y-160307142D01*
X254626428Y-160211904D01*
X254662142Y-160021428D01*
X254662142Y-159783333D01*
X254626428Y-159592857D01*
X254590714Y-159497619D01*
X254555000Y-159450000D01*
X254483571Y-159402380D01*
X259571904Y-158552380D02*
X259571904Y-157552380D01*
X259000476Y-158552380D02*
X259429047Y-157980952D01*
X259000476Y-157552380D02*
X259571904Y-158123809D01*
%TO.C,SW77*%
X218309523Y-205904761D02*
X218166666Y-205952380D01*
X217928571Y-205952380D01*
X217833333Y-205904761D01*
X217785714Y-205857142D01*
X217738095Y-205761904D01*
X217738095Y-205666666D01*
X217785714Y-205571428D01*
X217833333Y-205523809D01*
X217928571Y-205476190D01*
X218119047Y-205428571D01*
X218214285Y-205380952D01*
X218261904Y-205333333D01*
X218309523Y-205238095D01*
X218309523Y-205142857D01*
X218261904Y-205047619D01*
X218214285Y-205000000D01*
X218119047Y-204952380D01*
X217880952Y-204952380D01*
X217738095Y-205000000D01*
X217404761Y-204952380D02*
X217166666Y-205952380D01*
X216976190Y-205238095D01*
X216785714Y-205952380D01*
X216547619Y-204952380D01*
X216261904Y-204952380D02*
X215595238Y-204952380D01*
X216023809Y-205952380D01*
X215309523Y-204952380D02*
X214642857Y-204952380D01*
X215071428Y-205952380D01*
%TO.C,D49*%
X314590714Y-109802380D02*
X314590714Y-108802380D01*
X314412142Y-108802380D01*
X314305000Y-108850000D01*
X314233571Y-108945238D01*
X314197857Y-109040476D01*
X314162142Y-109230952D01*
X314162142Y-109373809D01*
X314197857Y-109564285D01*
X314233571Y-109659523D01*
X314305000Y-109754761D01*
X314412142Y-109802380D01*
X314590714Y-109802380D01*
X313519285Y-109135714D02*
X313519285Y-109802380D01*
X313697857Y-108754761D02*
X313876428Y-109469047D01*
X313412142Y-109469047D01*
X313090714Y-109802380D02*
X312947857Y-109802380D01*
X312876428Y-109754761D01*
X312840714Y-109707142D01*
X312769285Y-109564285D01*
X312733571Y-109373809D01*
X312733571Y-108992857D01*
X312769285Y-108897619D01*
X312805000Y-108850000D01*
X312876428Y-108802380D01*
X313019285Y-108802380D01*
X313090714Y-108850000D01*
X313126428Y-108897619D01*
X313162142Y-108992857D01*
X313162142Y-109230952D01*
X313126428Y-109326190D01*
X313090714Y-109373809D01*
X313019285Y-109421428D01*
X312876428Y-109421428D01*
X312805000Y-109373809D01*
X312769285Y-109326190D01*
X312733571Y-109230952D01*
X318071904Y-107952380D02*
X318071904Y-106952380D01*
X317500476Y-107952380D02*
X317929047Y-107380952D01*
X317500476Y-106952380D02*
X318071904Y-107523809D01*
%TO.C,D42*%
X275590714Y-118402380D02*
X275590714Y-117402380D01*
X275412142Y-117402380D01*
X275305000Y-117450000D01*
X275233571Y-117545238D01*
X275197857Y-117640476D01*
X275162142Y-117830952D01*
X275162142Y-117973809D01*
X275197857Y-118164285D01*
X275233571Y-118259523D01*
X275305000Y-118354761D01*
X275412142Y-118402380D01*
X275590714Y-118402380D01*
X274519285Y-117735714D02*
X274519285Y-118402380D01*
X274697857Y-117354761D02*
X274876428Y-118069047D01*
X274412142Y-118069047D01*
X274162142Y-117497619D02*
X274126428Y-117450000D01*
X274055000Y-117402380D01*
X273876428Y-117402380D01*
X273805000Y-117450000D01*
X273769285Y-117497619D01*
X273733571Y-117592857D01*
X273733571Y-117688095D01*
X273769285Y-117830952D01*
X274197857Y-118402380D01*
X273733571Y-118402380D01*
X279071904Y-116552380D02*
X279071904Y-115552380D01*
X278500476Y-116552380D02*
X278929047Y-115980952D01*
X278500476Y-115552380D02*
X279071904Y-116123809D01*
%TO.C,D36*%
X236590714Y-190602380D02*
X236590714Y-189602380D01*
X236412142Y-189602380D01*
X236305000Y-189650000D01*
X236233571Y-189745238D01*
X236197857Y-189840476D01*
X236162142Y-190030952D01*
X236162142Y-190173809D01*
X236197857Y-190364285D01*
X236233571Y-190459523D01*
X236305000Y-190554761D01*
X236412142Y-190602380D01*
X236590714Y-190602380D01*
X235912142Y-189602380D02*
X235447857Y-189602380D01*
X235697857Y-189983333D01*
X235590714Y-189983333D01*
X235519285Y-190030952D01*
X235483571Y-190078571D01*
X235447857Y-190173809D01*
X235447857Y-190411904D01*
X235483571Y-190507142D01*
X235519285Y-190554761D01*
X235590714Y-190602380D01*
X235805000Y-190602380D01*
X235876428Y-190554761D01*
X235912142Y-190507142D01*
X234805000Y-189602380D02*
X234947857Y-189602380D01*
X235019285Y-189650000D01*
X235055000Y-189697619D01*
X235126428Y-189840476D01*
X235162142Y-190030952D01*
X235162142Y-190411904D01*
X235126428Y-190507142D01*
X235090714Y-190554761D01*
X235019285Y-190602380D01*
X234876428Y-190602380D01*
X234805000Y-190554761D01*
X234769285Y-190507142D01*
X234733571Y-190411904D01*
X234733571Y-190173809D01*
X234769285Y-190078571D01*
X234805000Y-190030952D01*
X234876428Y-189983333D01*
X235019285Y-189983333D01*
X235090714Y-190030952D01*
X235126428Y-190078571D01*
X235162142Y-190173809D01*
X240071904Y-188752380D02*
X240071904Y-187752380D01*
X239500476Y-188752380D02*
X239929047Y-188180952D01*
X239500476Y-187752380D02*
X240071904Y-188323809D01*
%TO.C,SW88*%
X276809523Y-133831142D02*
X276666666Y-133878761D01*
X276428571Y-133878761D01*
X276333333Y-133831142D01*
X276285714Y-133783523D01*
X276238095Y-133688285D01*
X276238095Y-133593047D01*
X276285714Y-133497809D01*
X276333333Y-133450190D01*
X276428571Y-133402571D01*
X276619047Y-133354952D01*
X276714285Y-133307333D01*
X276761904Y-133259714D01*
X276809523Y-133164476D01*
X276809523Y-133069238D01*
X276761904Y-132974000D01*
X276714285Y-132926381D01*
X276619047Y-132878761D01*
X276380952Y-132878761D01*
X276238095Y-132926381D01*
X275904761Y-132878761D02*
X275666666Y-133878761D01*
X275476190Y-133164476D01*
X275285714Y-133878761D01*
X275047619Y-132878761D01*
X274523809Y-133307333D02*
X274619047Y-133259714D01*
X274666666Y-133212095D01*
X274714285Y-133116857D01*
X274714285Y-133069238D01*
X274666666Y-132974000D01*
X274619047Y-132926381D01*
X274523809Y-132878761D01*
X274333333Y-132878761D01*
X274238095Y-132926381D01*
X274190476Y-132974000D01*
X274142857Y-133069238D01*
X274142857Y-133116857D01*
X274190476Y-133212095D01*
X274238095Y-133259714D01*
X274333333Y-133307333D01*
X274523809Y-133307333D01*
X274619047Y-133354952D01*
X274666666Y-133402571D01*
X274714285Y-133497809D01*
X274714285Y-133688285D01*
X274666666Y-133783523D01*
X274619047Y-133831142D01*
X274523809Y-133878761D01*
X274333333Y-133878761D01*
X274238095Y-133831142D01*
X274190476Y-133783523D01*
X274142857Y-133688285D01*
X274142857Y-133497809D01*
X274190476Y-133402571D01*
X274238095Y-133354952D01*
X274333333Y-133307333D01*
X273571428Y-133307333D02*
X273666666Y-133259714D01*
X273714285Y-133212095D01*
X273761904Y-133116857D01*
X273761904Y-133069238D01*
X273714285Y-132974000D01*
X273666666Y-132926381D01*
X273571428Y-132878761D01*
X273380952Y-132878761D01*
X273285714Y-132926381D01*
X273238095Y-132974000D01*
X273190476Y-133069238D01*
X273190476Y-133116857D01*
X273238095Y-133212095D01*
X273285714Y-133259714D01*
X273380952Y-133307333D01*
X273571428Y-133307333D01*
X273666666Y-133354952D01*
X273714285Y-133402571D01*
X273761904Y-133497809D01*
X273761904Y-133688285D01*
X273714285Y-133783523D01*
X273666666Y-133831142D01*
X273571428Y-133878761D01*
X273380952Y-133878761D01*
X273285714Y-133831142D01*
X273238095Y-133783523D01*
X273190476Y-133688285D01*
X273190476Y-133497809D01*
X273238095Y-133402571D01*
X273285714Y-133354952D01*
X273380952Y-133307333D01*
%TO.C,SW87*%
X276809523Y-115331142D02*
X276666666Y-115378761D01*
X276428571Y-115378761D01*
X276333333Y-115331142D01*
X276285714Y-115283523D01*
X276238095Y-115188285D01*
X276238095Y-115093047D01*
X276285714Y-114997809D01*
X276333333Y-114950190D01*
X276428571Y-114902571D01*
X276619047Y-114854952D01*
X276714285Y-114807333D01*
X276761904Y-114759714D01*
X276809523Y-114664476D01*
X276809523Y-114569238D01*
X276761904Y-114474000D01*
X276714285Y-114426381D01*
X276619047Y-114378761D01*
X276380952Y-114378761D01*
X276238095Y-114426381D01*
X275904761Y-114378761D02*
X275666666Y-115378761D01*
X275476190Y-114664476D01*
X275285714Y-115378761D01*
X275047619Y-114378761D01*
X274523809Y-114807333D02*
X274619047Y-114759714D01*
X274666666Y-114712095D01*
X274714285Y-114616857D01*
X274714285Y-114569238D01*
X274666666Y-114474000D01*
X274619047Y-114426381D01*
X274523809Y-114378761D01*
X274333333Y-114378761D01*
X274238095Y-114426381D01*
X274190476Y-114474000D01*
X274142857Y-114569238D01*
X274142857Y-114616857D01*
X274190476Y-114712095D01*
X274238095Y-114759714D01*
X274333333Y-114807333D01*
X274523809Y-114807333D01*
X274619047Y-114854952D01*
X274666666Y-114902571D01*
X274714285Y-114997809D01*
X274714285Y-115188285D01*
X274666666Y-115283523D01*
X274619047Y-115331142D01*
X274523809Y-115378761D01*
X274333333Y-115378761D01*
X274238095Y-115331142D01*
X274190476Y-115283523D01*
X274142857Y-115188285D01*
X274142857Y-114997809D01*
X274190476Y-114902571D01*
X274238095Y-114854952D01*
X274333333Y-114807333D01*
X273809523Y-114378761D02*
X273142857Y-114378761D01*
X273571428Y-115378761D01*
%TO.C,SW83*%
X257309523Y-120263372D02*
X257166666Y-120310991D01*
X256928571Y-120310991D01*
X256833333Y-120263372D01*
X256785714Y-120215753D01*
X256738095Y-120120515D01*
X256738095Y-120025277D01*
X256785714Y-119930039D01*
X256833333Y-119882420D01*
X256928571Y-119834801D01*
X257119047Y-119787182D01*
X257214285Y-119739563D01*
X257261904Y-119691944D01*
X257309523Y-119596706D01*
X257309523Y-119501468D01*
X257261904Y-119406230D01*
X257214285Y-119358611D01*
X257119047Y-119310991D01*
X256880952Y-119310991D01*
X256738095Y-119358611D01*
X256404761Y-119310991D02*
X256166666Y-120310991D01*
X255976190Y-119596706D01*
X255785714Y-120310991D01*
X255547619Y-119310991D01*
X255023809Y-119739563D02*
X255119047Y-119691944D01*
X255166666Y-119644325D01*
X255214285Y-119549087D01*
X255214285Y-119501468D01*
X255166666Y-119406230D01*
X255119047Y-119358611D01*
X255023809Y-119310991D01*
X254833333Y-119310991D01*
X254738095Y-119358611D01*
X254690476Y-119406230D01*
X254642857Y-119501468D01*
X254642857Y-119549087D01*
X254690476Y-119644325D01*
X254738095Y-119691944D01*
X254833333Y-119739563D01*
X255023809Y-119739563D01*
X255119047Y-119787182D01*
X255166666Y-119834801D01*
X255214285Y-119930039D01*
X255214285Y-120120515D01*
X255166666Y-120215753D01*
X255119047Y-120263372D01*
X255023809Y-120310991D01*
X254833333Y-120310991D01*
X254738095Y-120263372D01*
X254690476Y-120215753D01*
X254642857Y-120120515D01*
X254642857Y-119930039D01*
X254690476Y-119834801D01*
X254738095Y-119787182D01*
X254833333Y-119739563D01*
X254309523Y-119310991D02*
X253690476Y-119310991D01*
X254023809Y-119691944D01*
X253880952Y-119691944D01*
X253785714Y-119739563D01*
X253738095Y-119787182D01*
X253690476Y-119882420D01*
X253690476Y-120120515D01*
X253738095Y-120215753D01*
X253785714Y-120263372D01*
X253880952Y-120310991D01*
X254166666Y-120310991D01*
X254261904Y-120263372D01*
X254309523Y-120215753D01*
%TO.C,D45*%
X295090714Y-107302380D02*
X295090714Y-106302380D01*
X294912142Y-106302380D01*
X294805000Y-106350000D01*
X294733571Y-106445238D01*
X294697857Y-106540476D01*
X294662142Y-106730952D01*
X294662142Y-106873809D01*
X294697857Y-107064285D01*
X294733571Y-107159523D01*
X294805000Y-107254761D01*
X294912142Y-107302380D01*
X295090714Y-107302380D01*
X294019285Y-106635714D02*
X294019285Y-107302380D01*
X294197857Y-106254761D02*
X294376428Y-106969047D01*
X293912142Y-106969047D01*
X293269285Y-106302380D02*
X293626428Y-106302380D01*
X293662142Y-106778571D01*
X293626428Y-106730952D01*
X293555000Y-106683333D01*
X293376428Y-106683333D01*
X293305000Y-106730952D01*
X293269285Y-106778571D01*
X293233571Y-106873809D01*
X293233571Y-107111904D01*
X293269285Y-107207142D01*
X293305000Y-107254761D01*
X293376428Y-107302380D01*
X293555000Y-107302380D01*
X293626428Y-107254761D01*
X293662142Y-107207142D01*
X298571904Y-105452380D02*
X298571904Y-104452380D01*
X298000476Y-105452380D02*
X298429047Y-104880952D01*
X298000476Y-104452380D02*
X298571904Y-105023809D01*
%TO.C,SW96*%
X315809523Y-143696180D02*
X315666666Y-143743799D01*
X315428571Y-143743799D01*
X315333333Y-143696180D01*
X315285714Y-143648561D01*
X315238095Y-143553323D01*
X315238095Y-143458085D01*
X315285714Y-143362847D01*
X315333333Y-143315228D01*
X315428571Y-143267609D01*
X315619047Y-143219990D01*
X315714285Y-143172371D01*
X315761904Y-143124752D01*
X315809523Y-143029514D01*
X315809523Y-142934276D01*
X315761904Y-142839038D01*
X315714285Y-142791419D01*
X315619047Y-142743799D01*
X315380952Y-142743799D01*
X315238095Y-142791419D01*
X314904761Y-142743799D02*
X314666666Y-143743799D01*
X314476190Y-143029514D01*
X314285714Y-143743799D01*
X314047619Y-142743799D01*
X313619047Y-143743799D02*
X313428571Y-143743799D01*
X313333333Y-143696180D01*
X313285714Y-143648561D01*
X313190476Y-143505704D01*
X313142857Y-143315228D01*
X313142857Y-142934276D01*
X313190476Y-142839038D01*
X313238095Y-142791419D01*
X313333333Y-142743799D01*
X313523809Y-142743799D01*
X313619047Y-142791419D01*
X313666666Y-142839038D01*
X313714285Y-142934276D01*
X313714285Y-143172371D01*
X313666666Y-143267609D01*
X313619047Y-143315228D01*
X313523809Y-143362847D01*
X313333333Y-143362847D01*
X313238095Y-143315228D01*
X313190476Y-143267609D01*
X313142857Y-143172371D01*
X312285714Y-142743799D02*
X312476190Y-142743799D01*
X312571428Y-142791419D01*
X312619047Y-142839038D01*
X312714285Y-142981895D01*
X312761904Y-143172371D01*
X312761904Y-143553323D01*
X312714285Y-143648561D01*
X312666666Y-143696180D01*
X312571428Y-143743799D01*
X312380952Y-143743799D01*
X312285714Y-143696180D01*
X312238095Y-143648561D01*
X312190476Y-143553323D01*
X312190476Y-143315228D01*
X312238095Y-143219990D01*
X312285714Y-143172371D01*
X312380952Y-143124752D01*
X312571428Y-143124752D01*
X312666666Y-143172371D01*
X312714285Y-143219990D01*
X312761904Y-143315228D01*
%TO.C,D6*%
X111136808Y-172051480D02*
X111136808Y-171051480D01*
X110958237Y-171051480D01*
X110851094Y-171099100D01*
X110779665Y-171194338D01*
X110743951Y-171289576D01*
X110708237Y-171480052D01*
X110708237Y-171622909D01*
X110743951Y-171813385D01*
X110779665Y-171908623D01*
X110851094Y-172003861D01*
X110958237Y-172051480D01*
X111136808Y-172051480D01*
X110065379Y-171051480D02*
X110208237Y-171051480D01*
X110279665Y-171099100D01*
X110315379Y-171146719D01*
X110386808Y-171289576D01*
X110422522Y-171480052D01*
X110422522Y-171861004D01*
X110386808Y-171956242D01*
X110351094Y-172003861D01*
X110279665Y-172051480D01*
X110136808Y-172051480D01*
X110065379Y-172003861D01*
X110029665Y-171956242D01*
X109993951Y-171861004D01*
X109993951Y-171622909D01*
X110029665Y-171527671D01*
X110065379Y-171480052D01*
X110136808Y-171432433D01*
X110279665Y-171432433D01*
X110351094Y-171480052D01*
X110386808Y-171527671D01*
X110422522Y-171622909D01*
X114975141Y-170201480D02*
X114975141Y-169201480D01*
X114403713Y-170201480D02*
X114832284Y-169630052D01*
X114403713Y-169201480D02*
X114975141Y-169772909D01*
%TO.C,SW55*%
X132168360Y-131904761D02*
X132025503Y-131952380D01*
X131787408Y-131952380D01*
X131692170Y-131904761D01*
X131644551Y-131857142D01*
X131596932Y-131761904D01*
X131596932Y-131666666D01*
X131644551Y-131571428D01*
X131692170Y-131523809D01*
X131787408Y-131476190D01*
X131977884Y-131428571D01*
X132073122Y-131380952D01*
X132120741Y-131333333D01*
X132168360Y-131238095D01*
X132168360Y-131142857D01*
X132120741Y-131047619D01*
X132073122Y-131000000D01*
X131977884Y-130952380D01*
X131739789Y-130952380D01*
X131596932Y-131000000D01*
X131263598Y-130952380D02*
X131025503Y-131952380D01*
X130835027Y-131238095D01*
X130644551Y-131952380D01*
X130406456Y-130952380D01*
X129549313Y-130952380D02*
X130025503Y-130952380D01*
X130073122Y-131428571D01*
X130025503Y-131380952D01*
X129930265Y-131333333D01*
X129692170Y-131333333D01*
X129596932Y-131380952D01*
X129549313Y-131428571D01*
X129501694Y-131523809D01*
X129501694Y-131761904D01*
X129549313Y-131857142D01*
X129596932Y-131904761D01*
X129692170Y-131952380D01*
X129930265Y-131952380D01*
X130025503Y-131904761D01*
X130073122Y-131857142D01*
X128596932Y-130952380D02*
X129073122Y-130952380D01*
X129120741Y-131428571D01*
X129073122Y-131380952D01*
X128977884Y-131333333D01*
X128739789Y-131333333D01*
X128644551Y-131380952D01*
X128596932Y-131428571D01*
X128549313Y-131523809D01*
X128549313Y-131761904D01*
X128596932Y-131857142D01*
X128644551Y-131904761D01*
X128739789Y-131952380D01*
X128977884Y-131952380D01*
X129073122Y-131904761D01*
X129120741Y-131857142D01*
%TO.C,D7*%
X108733571Y-190802380D02*
X108733571Y-189802380D01*
X108555000Y-189802380D01*
X108447857Y-189850000D01*
X108376428Y-189945238D01*
X108340714Y-190040476D01*
X108305000Y-190230952D01*
X108305000Y-190373809D01*
X108340714Y-190564285D01*
X108376428Y-190659523D01*
X108447857Y-190754761D01*
X108555000Y-190802380D01*
X108733571Y-190802380D01*
X108055000Y-189802380D02*
X107555000Y-189802380D01*
X107876428Y-190802380D01*
X112571904Y-188952380D02*
X112571904Y-187952380D01*
X112000476Y-188952380D02*
X112429047Y-188380952D01*
X112000476Y-187952380D02*
X112571904Y-188523809D01*
%TO.C,SW89*%
X276809523Y-152331142D02*
X276666666Y-152378761D01*
X276428571Y-152378761D01*
X276333333Y-152331142D01*
X276285714Y-152283523D01*
X276238095Y-152188285D01*
X276238095Y-152093047D01*
X276285714Y-151997809D01*
X276333333Y-151950190D01*
X276428571Y-151902571D01*
X276619047Y-151854952D01*
X276714285Y-151807333D01*
X276761904Y-151759714D01*
X276809523Y-151664476D01*
X276809523Y-151569238D01*
X276761904Y-151474000D01*
X276714285Y-151426381D01*
X276619047Y-151378761D01*
X276380952Y-151378761D01*
X276238095Y-151426381D01*
X275904761Y-151378761D02*
X275666666Y-152378761D01*
X275476190Y-151664476D01*
X275285714Y-152378761D01*
X275047619Y-151378761D01*
X274523809Y-151807333D02*
X274619047Y-151759714D01*
X274666666Y-151712095D01*
X274714285Y-151616857D01*
X274714285Y-151569238D01*
X274666666Y-151474000D01*
X274619047Y-151426381D01*
X274523809Y-151378761D01*
X274333333Y-151378761D01*
X274238095Y-151426381D01*
X274190476Y-151474000D01*
X274142857Y-151569238D01*
X274142857Y-151616857D01*
X274190476Y-151712095D01*
X274238095Y-151759714D01*
X274333333Y-151807333D01*
X274523809Y-151807333D01*
X274619047Y-151854952D01*
X274666666Y-151902571D01*
X274714285Y-151997809D01*
X274714285Y-152188285D01*
X274666666Y-152283523D01*
X274619047Y-152331142D01*
X274523809Y-152378761D01*
X274333333Y-152378761D01*
X274238095Y-152331142D01*
X274190476Y-152283523D01*
X274142857Y-152188285D01*
X274142857Y-151997809D01*
X274190476Y-151902571D01*
X274238095Y-151854952D01*
X274333333Y-151807333D01*
X273666666Y-152378761D02*
X273476190Y-152378761D01*
X273380952Y-152331142D01*
X273333333Y-152283523D01*
X273238095Y-152140666D01*
X273190476Y-151950190D01*
X273190476Y-151569238D01*
X273238095Y-151474000D01*
X273285714Y-151426381D01*
X273380952Y-151378761D01*
X273571428Y-151378761D01*
X273666666Y-151426381D01*
X273714285Y-151474000D01*
X273761904Y-151569238D01*
X273761904Y-151807333D01*
X273714285Y-151902571D01*
X273666666Y-151950190D01*
X273571428Y-151997809D01*
X273380952Y-151997809D01*
X273285714Y-151950190D01*
X273238095Y-151902571D01*
X273190476Y-151807333D01*
%TO.C,SW63*%
X151668360Y-187404761D02*
X151525503Y-187452380D01*
X151287408Y-187452380D01*
X151192170Y-187404761D01*
X151144551Y-187357142D01*
X151096932Y-187261904D01*
X151096932Y-187166666D01*
X151144551Y-187071428D01*
X151192170Y-187023809D01*
X151287408Y-186976190D01*
X151477884Y-186928571D01*
X151573122Y-186880952D01*
X151620741Y-186833333D01*
X151668360Y-186738095D01*
X151668360Y-186642857D01*
X151620741Y-186547619D01*
X151573122Y-186500000D01*
X151477884Y-186452380D01*
X151239789Y-186452380D01*
X151096932Y-186500000D01*
X150763598Y-186452380D02*
X150525503Y-187452380D01*
X150335027Y-186738095D01*
X150144551Y-187452380D01*
X149906456Y-186452380D01*
X149096932Y-186452380D02*
X149287408Y-186452380D01*
X149382646Y-186500000D01*
X149430265Y-186547619D01*
X149525503Y-186690476D01*
X149573122Y-186880952D01*
X149573122Y-187261904D01*
X149525503Y-187357142D01*
X149477884Y-187404761D01*
X149382646Y-187452380D01*
X149192170Y-187452380D01*
X149096932Y-187404761D01*
X149049313Y-187357142D01*
X149001694Y-187261904D01*
X149001694Y-187023809D01*
X149049313Y-186928571D01*
X149096932Y-186880952D01*
X149192170Y-186833333D01*
X149382646Y-186833333D01*
X149477884Y-186880952D01*
X149525503Y-186928571D01*
X149573122Y-187023809D01*
X148668360Y-186452380D02*
X148049313Y-186452380D01*
X148382646Y-186833333D01*
X148239789Y-186833333D01*
X148144551Y-186880952D01*
X148096932Y-186928571D01*
X148049313Y-187023809D01*
X148049313Y-187261904D01*
X148096932Y-187357142D01*
X148144551Y-187404761D01*
X148239789Y-187452380D01*
X148525503Y-187452380D01*
X148620741Y-187404761D01*
X148668360Y-187357142D01*
%TO.C,SW95*%
X315809523Y-125196180D02*
X315666666Y-125243799D01*
X315428571Y-125243799D01*
X315333333Y-125196180D01*
X315285714Y-125148561D01*
X315238095Y-125053323D01*
X315238095Y-124958085D01*
X315285714Y-124862847D01*
X315333333Y-124815228D01*
X315428571Y-124767609D01*
X315619047Y-124719990D01*
X315714285Y-124672371D01*
X315761904Y-124624752D01*
X315809523Y-124529514D01*
X315809523Y-124434276D01*
X315761904Y-124339038D01*
X315714285Y-124291419D01*
X315619047Y-124243799D01*
X315380952Y-124243799D01*
X315238095Y-124291419D01*
X314904761Y-124243799D02*
X314666666Y-125243799D01*
X314476190Y-124529514D01*
X314285714Y-125243799D01*
X314047619Y-124243799D01*
X313619047Y-125243799D02*
X313428571Y-125243799D01*
X313333333Y-125196180D01*
X313285714Y-125148561D01*
X313190476Y-125005704D01*
X313142857Y-124815228D01*
X313142857Y-124434276D01*
X313190476Y-124339038D01*
X313238095Y-124291419D01*
X313333333Y-124243799D01*
X313523809Y-124243799D01*
X313619047Y-124291419D01*
X313666666Y-124339038D01*
X313714285Y-124434276D01*
X313714285Y-124672371D01*
X313666666Y-124767609D01*
X313619047Y-124815228D01*
X313523809Y-124862847D01*
X313333333Y-124862847D01*
X313238095Y-124815228D01*
X313190476Y-124767609D01*
X313142857Y-124672371D01*
X312238095Y-124243799D02*
X312714285Y-124243799D01*
X312761904Y-124719990D01*
X312714285Y-124672371D01*
X312619047Y-124624752D01*
X312380952Y-124624752D01*
X312285714Y-124672371D01*
X312238095Y-124719990D01*
X312190476Y-124815228D01*
X312190476Y-125053323D01*
X312238095Y-125148561D01*
X312285714Y-125196180D01*
X312380952Y-125243799D01*
X312619047Y-125243799D01*
X312714285Y-125196180D01*
X312761904Y-125148561D01*
%TO.C,D41*%
X275590714Y-100002380D02*
X275590714Y-99002380D01*
X275412142Y-99002380D01*
X275305000Y-99050000D01*
X275233571Y-99145238D01*
X275197857Y-99240476D01*
X275162142Y-99430952D01*
X275162142Y-99573809D01*
X275197857Y-99764285D01*
X275233571Y-99859523D01*
X275305000Y-99954761D01*
X275412142Y-100002380D01*
X275590714Y-100002380D01*
X274519285Y-99335714D02*
X274519285Y-100002380D01*
X274697857Y-98954761D02*
X274876428Y-99669047D01*
X274412142Y-99669047D01*
X273733571Y-100002380D02*
X274162142Y-100002380D01*
X273947857Y-100002380D02*
X273947857Y-99002380D01*
X274019285Y-99145238D01*
X274090714Y-99240476D01*
X274162142Y-99288095D01*
X279071904Y-98152380D02*
X279071904Y-97152380D01*
X278500476Y-98152380D02*
X278929047Y-97580952D01*
X278500476Y-97152380D02*
X279071904Y-97723809D01*
%TO.C,SW61*%
X151668360Y-150404761D02*
X151525503Y-150452380D01*
X151287408Y-150452380D01*
X151192170Y-150404761D01*
X151144551Y-150357142D01*
X151096932Y-150261904D01*
X151096932Y-150166666D01*
X151144551Y-150071428D01*
X151192170Y-150023809D01*
X151287408Y-149976190D01*
X151477884Y-149928571D01*
X151573122Y-149880952D01*
X151620741Y-149833333D01*
X151668360Y-149738095D01*
X151668360Y-149642857D01*
X151620741Y-149547619D01*
X151573122Y-149500000D01*
X151477884Y-149452380D01*
X151239789Y-149452380D01*
X151096932Y-149500000D01*
X150763598Y-149452380D02*
X150525503Y-150452380D01*
X150335027Y-149738095D01*
X150144551Y-150452380D01*
X149906456Y-149452380D01*
X149096932Y-149452380D02*
X149287408Y-149452380D01*
X149382646Y-149500000D01*
X149430265Y-149547619D01*
X149525503Y-149690476D01*
X149573122Y-149880952D01*
X149573122Y-150261904D01*
X149525503Y-150357142D01*
X149477884Y-150404761D01*
X149382646Y-150452380D01*
X149192170Y-150452380D01*
X149096932Y-150404761D01*
X149049313Y-150357142D01*
X149001694Y-150261904D01*
X149001694Y-150023809D01*
X149049313Y-149928571D01*
X149096932Y-149880952D01*
X149192170Y-149833333D01*
X149382646Y-149833333D01*
X149477884Y-149880952D01*
X149525503Y-149928571D01*
X149573122Y-150023809D01*
X148049313Y-150452380D02*
X148620741Y-150452380D01*
X148335027Y-150452380D02*
X148335027Y-149452380D01*
X148430265Y-149595238D01*
X148525503Y-149690476D01*
X148620741Y-149738095D01*
%TO.C,SW52*%
X112668360Y-131914761D02*
X112525503Y-131962380D01*
X112287408Y-131962380D01*
X112192170Y-131914761D01*
X112144551Y-131867142D01*
X112096932Y-131771904D01*
X112096932Y-131676666D01*
X112144551Y-131581428D01*
X112192170Y-131533809D01*
X112287408Y-131486190D01*
X112477884Y-131438571D01*
X112573122Y-131390952D01*
X112620741Y-131343333D01*
X112668360Y-131248095D01*
X112668360Y-131152857D01*
X112620741Y-131057619D01*
X112573122Y-131010000D01*
X112477884Y-130962380D01*
X112239789Y-130962380D01*
X112096932Y-131010000D01*
X111763598Y-130962380D02*
X111525503Y-131962380D01*
X111335027Y-131248095D01*
X111144551Y-131962380D01*
X110906456Y-130962380D01*
X110049313Y-130962380D02*
X110525503Y-130962380D01*
X110573122Y-131438571D01*
X110525503Y-131390952D01*
X110430265Y-131343333D01*
X110192170Y-131343333D01*
X110096932Y-131390952D01*
X110049313Y-131438571D01*
X110001694Y-131533809D01*
X110001694Y-131771904D01*
X110049313Y-131867142D01*
X110096932Y-131914761D01*
X110192170Y-131962380D01*
X110430265Y-131962380D01*
X110525503Y-131914761D01*
X110573122Y-131867142D01*
X109620741Y-131057619D02*
X109573122Y-131010000D01*
X109477884Y-130962380D01*
X109239789Y-130962380D01*
X109144551Y-131010000D01*
X109096932Y-131057619D01*
X109049313Y-131152857D01*
X109049313Y-131248095D01*
X109096932Y-131390952D01*
X109668360Y-131962380D01*
X109049313Y-131962380D01*
%TO.C,D4*%
X108733571Y-153802380D02*
X108733571Y-152802380D01*
X108555000Y-152802380D01*
X108447857Y-152850000D01*
X108376428Y-152945238D01*
X108340714Y-153040476D01*
X108305000Y-153230952D01*
X108305000Y-153373809D01*
X108340714Y-153564285D01*
X108376428Y-153659523D01*
X108447857Y-153754761D01*
X108555000Y-153802380D01*
X108733571Y-153802380D01*
X107662142Y-153135714D02*
X107662142Y-153802380D01*
X107840714Y-152754761D02*
X108019285Y-153469047D01*
X107555000Y-153469047D01*
X112571904Y-151952380D02*
X112571904Y-150952380D01*
X112000476Y-151952380D02*
X112429047Y-151380952D01*
X112000476Y-150952380D02*
X112571904Y-151523809D01*
%TO.C,SW72*%
X198809523Y-205904761D02*
X198666666Y-205952380D01*
X198428571Y-205952380D01*
X198333333Y-205904761D01*
X198285714Y-205857142D01*
X198238095Y-205761904D01*
X198238095Y-205666666D01*
X198285714Y-205571428D01*
X198333333Y-205523809D01*
X198428571Y-205476190D01*
X198619047Y-205428571D01*
X198714285Y-205380952D01*
X198761904Y-205333333D01*
X198809523Y-205238095D01*
X198809523Y-205142857D01*
X198761904Y-205047619D01*
X198714285Y-205000000D01*
X198619047Y-204952380D01*
X198380952Y-204952380D01*
X198238095Y-205000000D01*
X197904761Y-204952380D02*
X197666666Y-205952380D01*
X197476190Y-205238095D01*
X197285714Y-205952380D01*
X197047619Y-204952380D01*
X196761904Y-204952380D02*
X196095238Y-204952380D01*
X196523809Y-205952380D01*
X195761904Y-205047619D02*
X195714285Y-205000000D01*
X195619047Y-204952380D01*
X195380952Y-204952380D01*
X195285714Y-205000000D01*
X195238095Y-205047619D01*
X195190476Y-205142857D01*
X195190476Y-205238095D01*
X195238095Y-205380952D01*
X195809523Y-205952380D01*
X195190476Y-205952380D01*
%TO.C,SW67*%
X171168360Y-187404761D02*
X171025503Y-187452380D01*
X170787408Y-187452380D01*
X170692170Y-187404761D01*
X170644551Y-187357142D01*
X170596932Y-187261904D01*
X170596932Y-187166666D01*
X170644551Y-187071428D01*
X170692170Y-187023809D01*
X170787408Y-186976190D01*
X170977884Y-186928571D01*
X171073122Y-186880952D01*
X171120741Y-186833333D01*
X171168360Y-186738095D01*
X171168360Y-186642857D01*
X171120741Y-186547619D01*
X171073122Y-186500000D01*
X170977884Y-186452380D01*
X170739789Y-186452380D01*
X170596932Y-186500000D01*
X170263598Y-186452380D02*
X170025503Y-187452380D01*
X169835027Y-186738095D01*
X169644551Y-187452380D01*
X169406456Y-186452380D01*
X168596932Y-186452380D02*
X168787408Y-186452380D01*
X168882646Y-186500000D01*
X168930265Y-186547619D01*
X169025503Y-186690476D01*
X169073122Y-186880952D01*
X169073122Y-187261904D01*
X169025503Y-187357142D01*
X168977884Y-187404761D01*
X168882646Y-187452380D01*
X168692170Y-187452380D01*
X168596932Y-187404761D01*
X168549313Y-187357142D01*
X168501694Y-187261904D01*
X168501694Y-187023809D01*
X168549313Y-186928571D01*
X168596932Y-186880952D01*
X168692170Y-186833333D01*
X168882646Y-186833333D01*
X168977884Y-186880952D01*
X169025503Y-186928571D01*
X169073122Y-187023809D01*
X168168360Y-186452380D02*
X167501694Y-186452380D01*
X167930265Y-187452380D01*
%TO.C,D27*%
X197593951Y-190551480D02*
X197593951Y-189551480D01*
X197415379Y-189551480D01*
X197308237Y-189599100D01*
X197236808Y-189694338D01*
X197201094Y-189789576D01*
X197165379Y-189980052D01*
X197165379Y-190122909D01*
X197201094Y-190313385D01*
X197236808Y-190408623D01*
X197308237Y-190503861D01*
X197415379Y-190551480D01*
X197593951Y-190551480D01*
X196879665Y-189646719D02*
X196843951Y-189599100D01*
X196772522Y-189551480D01*
X196593951Y-189551480D01*
X196522522Y-189599100D01*
X196486808Y-189646719D01*
X196451094Y-189741957D01*
X196451094Y-189837195D01*
X196486808Y-189980052D01*
X196915379Y-190551480D01*
X196451094Y-190551480D01*
X196201094Y-189551480D02*
X195701094Y-189551480D01*
X196022522Y-190551480D01*
X201075141Y-188701480D02*
X201075141Y-187701480D01*
X200503713Y-188701480D02*
X200932284Y-188130052D01*
X200503713Y-187701480D02*
X201075141Y-188272909D01*
%TO.C,SW64*%
X171168360Y-131904761D02*
X171025503Y-131952380D01*
X170787408Y-131952380D01*
X170692170Y-131904761D01*
X170644551Y-131857142D01*
X170596932Y-131761904D01*
X170596932Y-131666666D01*
X170644551Y-131571428D01*
X170692170Y-131523809D01*
X170787408Y-131476190D01*
X170977884Y-131428571D01*
X171073122Y-131380952D01*
X171120741Y-131333333D01*
X171168360Y-131238095D01*
X171168360Y-131142857D01*
X171120741Y-131047619D01*
X171073122Y-131000000D01*
X170977884Y-130952380D01*
X170739789Y-130952380D01*
X170596932Y-131000000D01*
X170263598Y-130952380D02*
X170025503Y-131952380D01*
X169835027Y-131238095D01*
X169644551Y-131952380D01*
X169406456Y-130952380D01*
X168596932Y-130952380D02*
X168787408Y-130952380D01*
X168882646Y-131000000D01*
X168930265Y-131047619D01*
X169025503Y-131190476D01*
X169073122Y-131380952D01*
X169073122Y-131761904D01*
X169025503Y-131857142D01*
X168977884Y-131904761D01*
X168882646Y-131952380D01*
X168692170Y-131952380D01*
X168596932Y-131904761D01*
X168549313Y-131857142D01*
X168501694Y-131761904D01*
X168501694Y-131523809D01*
X168549313Y-131428571D01*
X168596932Y-131380952D01*
X168692170Y-131333333D01*
X168882646Y-131333333D01*
X168977884Y-131380952D01*
X169025503Y-131428571D01*
X169073122Y-131523809D01*
X167644551Y-131285714D02*
X167644551Y-131952380D01*
X167882646Y-130904761D02*
X168120741Y-131619047D01*
X167501694Y-131619047D01*
%TO.C,SW58*%
X132168360Y-187404761D02*
X132025503Y-187452380D01*
X131787408Y-187452380D01*
X131692170Y-187404761D01*
X131644551Y-187357142D01*
X131596932Y-187261904D01*
X131596932Y-187166666D01*
X131644551Y-187071428D01*
X131692170Y-187023809D01*
X131787408Y-186976190D01*
X131977884Y-186928571D01*
X132073122Y-186880952D01*
X132120741Y-186833333D01*
X132168360Y-186738095D01*
X132168360Y-186642857D01*
X132120741Y-186547619D01*
X132073122Y-186500000D01*
X131977884Y-186452380D01*
X131739789Y-186452380D01*
X131596932Y-186500000D01*
X131263598Y-186452380D02*
X131025503Y-187452380D01*
X130835027Y-186738095D01*
X130644551Y-187452380D01*
X130406456Y-186452380D01*
X129549313Y-186452380D02*
X130025503Y-186452380D01*
X130073122Y-186928571D01*
X130025503Y-186880952D01*
X129930265Y-186833333D01*
X129692170Y-186833333D01*
X129596932Y-186880952D01*
X129549313Y-186928571D01*
X129501694Y-187023809D01*
X129501694Y-187261904D01*
X129549313Y-187357142D01*
X129596932Y-187404761D01*
X129692170Y-187452380D01*
X129930265Y-187452380D01*
X130025503Y-187404761D01*
X130073122Y-187357142D01*
X128930265Y-186880952D02*
X129025503Y-186833333D01*
X129073122Y-186785714D01*
X129120741Y-186690476D01*
X129120741Y-186642857D01*
X129073122Y-186547619D01*
X129025503Y-186500000D01*
X128930265Y-186452380D01*
X128739789Y-186452380D01*
X128644551Y-186500000D01*
X128596932Y-186547619D01*
X128549313Y-186642857D01*
X128549313Y-186690476D01*
X128596932Y-186785714D01*
X128644551Y-186833333D01*
X128739789Y-186880952D01*
X128930265Y-186880952D01*
X129025503Y-186928571D01*
X129073122Y-186976190D01*
X129120741Y-187071428D01*
X129120741Y-187261904D01*
X129073122Y-187357142D01*
X129025503Y-187404761D01*
X128930265Y-187452380D01*
X128739789Y-187452380D01*
X128644551Y-187404761D01*
X128596932Y-187357142D01*
X128549313Y-187261904D01*
X128549313Y-187071428D01*
X128596932Y-186976190D01*
X128644551Y-186928571D01*
X128739789Y-186880952D01*
%TO.C,D50*%
X314590714Y-128302380D02*
X314590714Y-127302380D01*
X314412142Y-127302380D01*
X314305000Y-127350000D01*
X314233571Y-127445238D01*
X314197857Y-127540476D01*
X314162142Y-127730952D01*
X314162142Y-127873809D01*
X314197857Y-128064285D01*
X314233571Y-128159523D01*
X314305000Y-128254761D01*
X314412142Y-128302380D01*
X314590714Y-128302380D01*
X313483571Y-127302380D02*
X313840714Y-127302380D01*
X313876428Y-127778571D01*
X313840714Y-127730952D01*
X313769285Y-127683333D01*
X313590714Y-127683333D01*
X313519285Y-127730952D01*
X313483571Y-127778571D01*
X313447857Y-127873809D01*
X313447857Y-128111904D01*
X313483571Y-128207142D01*
X313519285Y-128254761D01*
X313590714Y-128302380D01*
X313769285Y-128302380D01*
X313840714Y-128254761D01*
X313876428Y-128207142D01*
X312983571Y-127302380D02*
X312912142Y-127302380D01*
X312840714Y-127350000D01*
X312805000Y-127397619D01*
X312769285Y-127492857D01*
X312733571Y-127683333D01*
X312733571Y-127921428D01*
X312769285Y-128111904D01*
X312805000Y-128207142D01*
X312840714Y-128254761D01*
X312912142Y-128302380D01*
X312983571Y-128302380D01*
X313055000Y-128254761D01*
X313090714Y-128207142D01*
X313126428Y-128111904D01*
X313162142Y-127921428D01*
X313162142Y-127683333D01*
X313126428Y-127492857D01*
X313090714Y-127397619D01*
X313055000Y-127350000D01*
X312983571Y-127302380D01*
X318071904Y-126452380D02*
X318071904Y-125452380D01*
X317500476Y-126452380D02*
X317929047Y-125880952D01*
X317500476Y-125452380D02*
X318071904Y-126023809D01*
%TO.C,D39*%
X256090714Y-141902380D02*
X256090714Y-140902380D01*
X255912142Y-140902380D01*
X255805000Y-140950000D01*
X255733571Y-141045238D01*
X255697857Y-141140476D01*
X255662142Y-141330952D01*
X255662142Y-141473809D01*
X255697857Y-141664285D01*
X255733571Y-141759523D01*
X255805000Y-141854761D01*
X255912142Y-141902380D01*
X256090714Y-141902380D01*
X255412142Y-140902380D02*
X254947857Y-140902380D01*
X255197857Y-141283333D01*
X255090714Y-141283333D01*
X255019285Y-141330952D01*
X254983571Y-141378571D01*
X254947857Y-141473809D01*
X254947857Y-141711904D01*
X254983571Y-141807142D01*
X255019285Y-141854761D01*
X255090714Y-141902380D01*
X255305000Y-141902380D01*
X255376428Y-141854761D01*
X255412142Y-141807142D01*
X254590714Y-141902380D02*
X254447857Y-141902380D01*
X254376428Y-141854761D01*
X254340714Y-141807142D01*
X254269285Y-141664285D01*
X254233571Y-141473809D01*
X254233571Y-141092857D01*
X254269285Y-140997619D01*
X254305000Y-140950000D01*
X254376428Y-140902380D01*
X254519285Y-140902380D01*
X254590714Y-140950000D01*
X254626428Y-140997619D01*
X254662142Y-141092857D01*
X254662142Y-141330952D01*
X254626428Y-141426190D01*
X254590714Y-141473809D01*
X254519285Y-141521428D01*
X254376428Y-141521428D01*
X254305000Y-141473809D01*
X254269285Y-141426190D01*
X254233571Y-141330952D01*
X259571904Y-140052380D02*
X259571904Y-139052380D01*
X259000476Y-140052380D02*
X259429047Y-139480952D01*
X259000476Y-139052380D02*
X259571904Y-139623809D01*
%TO.C,D3*%
X111236808Y-116551480D02*
X111236808Y-115551480D01*
X111058237Y-115551480D01*
X110951094Y-115599100D01*
X110879665Y-115694338D01*
X110843951Y-115789576D01*
X110808237Y-115980052D01*
X110808237Y-116122909D01*
X110843951Y-116313385D01*
X110879665Y-116408623D01*
X110951094Y-116503861D01*
X111058237Y-116551480D01*
X111236808Y-116551480D01*
X110558237Y-115551480D02*
X110093951Y-115551480D01*
X110343951Y-115932433D01*
X110236808Y-115932433D01*
X110165379Y-115980052D01*
X110129665Y-116027671D01*
X110093951Y-116122909D01*
X110093951Y-116361004D01*
X110129665Y-116456242D01*
X110165379Y-116503861D01*
X110236808Y-116551480D01*
X110451094Y-116551480D01*
X110522522Y-116503861D01*
X110558237Y-116456242D01*
X115075141Y-114701480D02*
X115075141Y-113701480D01*
X114503713Y-114701480D02*
X114932284Y-114130052D01*
X114503713Y-113701480D02*
X115075141Y-114272909D01*
%TO.C,SW93*%
X296309523Y-159708820D02*
X296166666Y-159756439D01*
X295928571Y-159756439D01*
X295833333Y-159708820D01*
X295785714Y-159661201D01*
X295738095Y-159565963D01*
X295738095Y-159470725D01*
X295785714Y-159375487D01*
X295833333Y-159327868D01*
X295928571Y-159280249D01*
X296119047Y-159232630D01*
X296214285Y-159185011D01*
X296261904Y-159137392D01*
X296309523Y-159042154D01*
X296309523Y-158946916D01*
X296261904Y-158851678D01*
X296214285Y-158804059D01*
X296119047Y-158756439D01*
X295880952Y-158756439D01*
X295738095Y-158804059D01*
X295404761Y-158756439D02*
X295166666Y-159756439D01*
X294976190Y-159042154D01*
X294785714Y-159756439D01*
X294547619Y-158756439D01*
X294119047Y-159756439D02*
X293928571Y-159756439D01*
X293833333Y-159708820D01*
X293785714Y-159661201D01*
X293690476Y-159518344D01*
X293642857Y-159327868D01*
X293642857Y-158946916D01*
X293690476Y-158851678D01*
X293738095Y-158804059D01*
X293833333Y-158756439D01*
X294023809Y-158756439D01*
X294119047Y-158804059D01*
X294166666Y-158851678D01*
X294214285Y-158946916D01*
X294214285Y-159185011D01*
X294166666Y-159280249D01*
X294119047Y-159327868D01*
X294023809Y-159375487D01*
X293833333Y-159375487D01*
X293738095Y-159327868D01*
X293690476Y-159280249D01*
X293642857Y-159185011D01*
X293309523Y-158756439D02*
X292690476Y-158756439D01*
X293023809Y-159137392D01*
X292880952Y-159137392D01*
X292785714Y-159185011D01*
X292738095Y-159232630D01*
X292690476Y-159327868D01*
X292690476Y-159565963D01*
X292738095Y-159661201D01*
X292785714Y-159708820D01*
X292880952Y-159756439D01*
X293166666Y-159756439D01*
X293261904Y-159708820D01*
X293309523Y-159661201D01*
%TO.C,D15*%
X150493951Y-153551480D02*
X150493951Y-152551480D01*
X150315379Y-152551480D01*
X150208237Y-152599100D01*
X150136808Y-152694338D01*
X150101094Y-152789576D01*
X150065379Y-152980052D01*
X150065379Y-153122909D01*
X150101094Y-153313385D01*
X150136808Y-153408623D01*
X150208237Y-153503861D01*
X150315379Y-153551480D01*
X150493951Y-153551480D01*
X149351094Y-153551480D02*
X149779665Y-153551480D01*
X149565379Y-153551480D02*
X149565379Y-152551480D01*
X149636808Y-152694338D01*
X149708237Y-152789576D01*
X149779665Y-152837195D01*
X148672522Y-152551480D02*
X149029665Y-152551480D01*
X149065379Y-153027671D01*
X149029665Y-152980052D01*
X148958237Y-152932433D01*
X148779665Y-152932433D01*
X148708237Y-152980052D01*
X148672522Y-153027671D01*
X148636808Y-153122909D01*
X148636808Y-153361004D01*
X148672522Y-153456242D01*
X148708237Y-153503861D01*
X148779665Y-153551480D01*
X148958237Y-153551480D01*
X149029665Y-153503861D01*
X149065379Y-153456242D01*
X153975141Y-151701480D02*
X153975141Y-150701480D01*
X153403713Y-151701480D02*
X153832284Y-151130052D01*
X153403713Y-150701480D02*
X153975141Y-151272909D01*
%TO.C,SW69*%
X198809523Y-150404761D02*
X198666666Y-150452380D01*
X198428571Y-150452380D01*
X198333333Y-150404761D01*
X198285714Y-150357142D01*
X198238095Y-150261904D01*
X198238095Y-150166666D01*
X198285714Y-150071428D01*
X198333333Y-150023809D01*
X198428571Y-149976190D01*
X198619047Y-149928571D01*
X198714285Y-149880952D01*
X198761904Y-149833333D01*
X198809523Y-149738095D01*
X198809523Y-149642857D01*
X198761904Y-149547619D01*
X198714285Y-149500000D01*
X198619047Y-149452380D01*
X198380952Y-149452380D01*
X198238095Y-149500000D01*
X197904761Y-149452380D02*
X197666666Y-150452380D01*
X197476190Y-149738095D01*
X197285714Y-150452380D01*
X197047619Y-149452380D01*
X196238095Y-149452380D02*
X196428571Y-149452380D01*
X196523809Y-149500000D01*
X196571428Y-149547619D01*
X196666666Y-149690476D01*
X196714285Y-149880952D01*
X196714285Y-150261904D01*
X196666666Y-150357142D01*
X196619047Y-150404761D01*
X196523809Y-150452380D01*
X196333333Y-150452380D01*
X196238095Y-150404761D01*
X196190476Y-150357142D01*
X196142857Y-150261904D01*
X196142857Y-150023809D01*
X196190476Y-149928571D01*
X196238095Y-149880952D01*
X196333333Y-149833333D01*
X196523809Y-149833333D01*
X196619047Y-149880952D01*
X196666666Y-149928571D01*
X196714285Y-150023809D01*
X195666666Y-150452380D02*
X195476190Y-150452380D01*
X195380952Y-150404761D01*
X195333333Y-150357142D01*
X195238095Y-150214285D01*
X195190476Y-150023809D01*
X195190476Y-149642857D01*
X195238095Y-149547619D01*
X195285714Y-149500000D01*
X195380952Y-149452380D01*
X195571428Y-149452380D01*
X195666666Y-149500000D01*
X195714285Y-149547619D01*
X195761904Y-149642857D01*
X195761904Y-149880952D01*
X195714285Y-149976190D01*
X195666666Y-150023809D01*
X195571428Y-150071428D01*
X195380952Y-150071428D01*
X195285714Y-150023809D01*
X195238095Y-149976190D01*
X195190476Y-149880952D01*
%TO.C,D28*%
X217090714Y-116602380D02*
X217090714Y-115602380D01*
X216912142Y-115602380D01*
X216805000Y-115650000D01*
X216733571Y-115745238D01*
X216697857Y-115840476D01*
X216662142Y-116030952D01*
X216662142Y-116173809D01*
X216697857Y-116364285D01*
X216733571Y-116459523D01*
X216805000Y-116554761D01*
X216912142Y-116602380D01*
X217090714Y-116602380D01*
X216376428Y-115697619D02*
X216340714Y-115650000D01*
X216269285Y-115602380D01*
X216090714Y-115602380D01*
X216019285Y-115650000D01*
X215983571Y-115697619D01*
X215947857Y-115792857D01*
X215947857Y-115888095D01*
X215983571Y-116030952D01*
X216412142Y-116602380D01*
X215947857Y-116602380D01*
X215519285Y-116030952D02*
X215590714Y-115983333D01*
X215626428Y-115935714D01*
X215662142Y-115840476D01*
X215662142Y-115792857D01*
X215626428Y-115697619D01*
X215590714Y-115650000D01*
X215519285Y-115602380D01*
X215376428Y-115602380D01*
X215305000Y-115650000D01*
X215269285Y-115697619D01*
X215233571Y-115792857D01*
X215233571Y-115840476D01*
X215269285Y-115935714D01*
X215305000Y-115983333D01*
X215376428Y-116030952D01*
X215519285Y-116030952D01*
X215590714Y-116078571D01*
X215626428Y-116126190D01*
X215662142Y-116221428D01*
X215662142Y-116411904D01*
X215626428Y-116507142D01*
X215590714Y-116554761D01*
X215519285Y-116602380D01*
X215376428Y-116602380D01*
X215305000Y-116554761D01*
X215269285Y-116507142D01*
X215233571Y-116411904D01*
X215233571Y-116221428D01*
X215269285Y-116126190D01*
X215305000Y-116078571D01*
X215376428Y-116030952D01*
X220571904Y-114752380D02*
X220571904Y-113752380D01*
X220000476Y-114752380D02*
X220429047Y-114180952D01*
X220000476Y-113752380D02*
X220571904Y-114323809D01*
%TO.C,D29*%
X217090714Y-135002380D02*
X217090714Y-134002380D01*
X216912142Y-134002380D01*
X216805000Y-134050000D01*
X216733571Y-134145238D01*
X216697857Y-134240476D01*
X216662142Y-134430952D01*
X216662142Y-134573809D01*
X216697857Y-134764285D01*
X216733571Y-134859523D01*
X216805000Y-134954761D01*
X216912142Y-135002380D01*
X217090714Y-135002380D01*
X216376428Y-134097619D02*
X216340714Y-134050000D01*
X216269285Y-134002380D01*
X216090714Y-134002380D01*
X216019285Y-134050000D01*
X215983571Y-134097619D01*
X215947857Y-134192857D01*
X215947857Y-134288095D01*
X215983571Y-134430952D01*
X216412142Y-135002380D01*
X215947857Y-135002380D01*
X215590714Y-135002380D02*
X215447857Y-135002380D01*
X215376428Y-134954761D01*
X215340714Y-134907142D01*
X215269285Y-134764285D01*
X215233571Y-134573809D01*
X215233571Y-134192857D01*
X215269285Y-134097619D01*
X215305000Y-134050000D01*
X215376428Y-134002380D01*
X215519285Y-134002380D01*
X215590714Y-134050000D01*
X215626428Y-134097619D01*
X215662142Y-134192857D01*
X215662142Y-134430952D01*
X215626428Y-134526190D01*
X215590714Y-134573809D01*
X215519285Y-134621428D01*
X215376428Y-134621428D01*
X215305000Y-134573809D01*
X215269285Y-134526190D01*
X215233571Y-134430952D01*
X220571904Y-133152380D02*
X220571904Y-132152380D01*
X220000476Y-133152380D02*
X220429047Y-132580952D01*
X220000476Y-132152380D02*
X220571904Y-132723809D01*
%TO.C,D25*%
X197590714Y-153551480D02*
X197590714Y-152551480D01*
X197412142Y-152551480D01*
X197305000Y-152599100D01*
X197233571Y-152694338D01*
X197197857Y-152789576D01*
X197162142Y-152980052D01*
X197162142Y-153122909D01*
X197197857Y-153313385D01*
X197233571Y-153408623D01*
X197305000Y-153503861D01*
X197412142Y-153551480D01*
X197590714Y-153551480D01*
X196876428Y-152646719D02*
X196840714Y-152599100D01*
X196769285Y-152551480D01*
X196590714Y-152551480D01*
X196519285Y-152599100D01*
X196483571Y-152646719D01*
X196447857Y-152741957D01*
X196447857Y-152837195D01*
X196483571Y-152980052D01*
X196912142Y-153551480D01*
X196447857Y-153551480D01*
X195769285Y-152551480D02*
X196126428Y-152551480D01*
X196162142Y-153027671D01*
X196126428Y-152980052D01*
X196055000Y-152932433D01*
X195876428Y-152932433D01*
X195805000Y-152980052D01*
X195769285Y-153027671D01*
X195733571Y-153122909D01*
X195733571Y-153361004D01*
X195769285Y-153456242D01*
X195805000Y-153503861D01*
X195876428Y-153551480D01*
X196055000Y-153551480D01*
X196126428Y-153503861D01*
X196162142Y-153456242D01*
X201071904Y-151701480D02*
X201071904Y-150701480D01*
X200500476Y-151701480D02*
X200929047Y-151130052D01*
X200500476Y-150701480D02*
X201071904Y-151272909D01*
%TO.C,D31*%
X216590714Y-190502380D02*
X216590714Y-189502380D01*
X216412142Y-189502380D01*
X216305000Y-189550000D01*
X216233571Y-189645238D01*
X216197857Y-189740476D01*
X216162142Y-189930952D01*
X216162142Y-190073809D01*
X216197857Y-190264285D01*
X216233571Y-190359523D01*
X216305000Y-190454761D01*
X216412142Y-190502380D01*
X216590714Y-190502380D01*
X215912142Y-189502380D02*
X215447857Y-189502380D01*
X215697857Y-189883333D01*
X215590714Y-189883333D01*
X215519285Y-189930952D01*
X215483571Y-189978571D01*
X215447857Y-190073809D01*
X215447857Y-190311904D01*
X215483571Y-190407142D01*
X215519285Y-190454761D01*
X215590714Y-190502380D01*
X215805000Y-190502380D01*
X215876428Y-190454761D01*
X215912142Y-190407142D01*
X214733571Y-190502380D02*
X215162142Y-190502380D01*
X214947857Y-190502380D02*
X214947857Y-189502380D01*
X215019285Y-189645238D01*
X215090714Y-189740476D01*
X215162142Y-189788095D01*
X220071904Y-188652380D02*
X220071904Y-187652380D01*
X219500476Y-188652380D02*
X219929047Y-188080952D01*
X219500476Y-187652380D02*
X220071904Y-188223809D01*
%TO.C,D24*%
X197593951Y-135151480D02*
X197593951Y-134151480D01*
X197415379Y-134151480D01*
X197308237Y-134199100D01*
X197236808Y-134294338D01*
X197201094Y-134389576D01*
X197165379Y-134580052D01*
X197165379Y-134722909D01*
X197201094Y-134913385D01*
X197236808Y-135008623D01*
X197308237Y-135103861D01*
X197415379Y-135151480D01*
X197593951Y-135151480D01*
X196879665Y-134246719D02*
X196843951Y-134199100D01*
X196772522Y-134151480D01*
X196593951Y-134151480D01*
X196522522Y-134199100D01*
X196486808Y-134246719D01*
X196451094Y-134341957D01*
X196451094Y-134437195D01*
X196486808Y-134580052D01*
X196915379Y-135151480D01*
X196451094Y-135151480D01*
X195808237Y-134484814D02*
X195808237Y-135151480D01*
X195986808Y-134103861D02*
X196165379Y-134818147D01*
X195701094Y-134818147D01*
X201075141Y-133301480D02*
X201075141Y-132301480D01*
X200503713Y-133301480D02*
X200932284Y-132730052D01*
X200503713Y-132301480D02*
X201075141Y-132872909D01*
%TO.C,D26*%
X197593951Y-172051480D02*
X197593951Y-171051480D01*
X197415379Y-171051480D01*
X197308237Y-171099100D01*
X197236808Y-171194338D01*
X197201094Y-171289576D01*
X197165379Y-171480052D01*
X197165379Y-171622909D01*
X197201094Y-171813385D01*
X197236808Y-171908623D01*
X197308237Y-172003861D01*
X197415379Y-172051480D01*
X197593951Y-172051480D01*
X196879665Y-171146719D02*
X196843951Y-171099100D01*
X196772522Y-171051480D01*
X196593951Y-171051480D01*
X196522522Y-171099100D01*
X196486808Y-171146719D01*
X196451094Y-171241957D01*
X196451094Y-171337195D01*
X196486808Y-171480052D01*
X196915379Y-172051480D01*
X196451094Y-172051480D01*
X195808237Y-171051480D02*
X195951094Y-171051480D01*
X196022522Y-171099100D01*
X196058237Y-171146719D01*
X196129665Y-171289576D01*
X196165379Y-171480052D01*
X196165379Y-171861004D01*
X196129665Y-171956242D01*
X196093951Y-172003861D01*
X196022522Y-172051480D01*
X195879665Y-172051480D01*
X195808237Y-172003861D01*
X195772522Y-171956242D01*
X195736808Y-171861004D01*
X195736808Y-171622909D01*
X195772522Y-171527671D01*
X195808237Y-171480052D01*
X195879665Y-171432433D01*
X196022522Y-171432433D01*
X196093951Y-171480052D01*
X196129665Y-171527671D01*
X196165379Y-171622909D01*
X201075141Y-170201480D02*
X201075141Y-169201480D01*
X200503713Y-170201480D02*
X200932284Y-169630052D01*
X200503713Y-169201480D02*
X201075141Y-169772909D01*
%TO.C,SW71*%
X198809523Y-187404761D02*
X198666666Y-187452380D01*
X198428571Y-187452380D01*
X198333333Y-187404761D01*
X198285714Y-187357142D01*
X198238095Y-187261904D01*
X198238095Y-187166666D01*
X198285714Y-187071428D01*
X198333333Y-187023809D01*
X198428571Y-186976190D01*
X198619047Y-186928571D01*
X198714285Y-186880952D01*
X198761904Y-186833333D01*
X198809523Y-186738095D01*
X198809523Y-186642857D01*
X198761904Y-186547619D01*
X198714285Y-186500000D01*
X198619047Y-186452380D01*
X198380952Y-186452380D01*
X198238095Y-186500000D01*
X197904761Y-186452380D02*
X197666666Y-187452380D01*
X197476190Y-186738095D01*
X197285714Y-187452380D01*
X197047619Y-186452380D01*
X196761904Y-186452380D02*
X196095238Y-186452380D01*
X196523809Y-187452380D01*
X195190476Y-187452380D02*
X195761904Y-187452380D01*
X195476190Y-187452380D02*
X195476190Y-186452380D01*
X195571428Y-186595238D01*
X195666666Y-186690476D01*
X195761904Y-186738095D01*
%TO.C,D8*%
X130823408Y-116551480D02*
X130823408Y-115551480D01*
X130644837Y-115551480D01*
X130537694Y-115599100D01*
X130466265Y-115694338D01*
X130430551Y-115789576D01*
X130394837Y-115980052D01*
X130394837Y-116122909D01*
X130430551Y-116313385D01*
X130466265Y-116408623D01*
X130537694Y-116503861D01*
X130644837Y-116551480D01*
X130823408Y-116551480D01*
X129966265Y-115980052D02*
X130037694Y-115932433D01*
X130073408Y-115884814D01*
X130109122Y-115789576D01*
X130109122Y-115741957D01*
X130073408Y-115646719D01*
X130037694Y-115599100D01*
X129966265Y-115551480D01*
X129823408Y-115551480D01*
X129751979Y-115599100D01*
X129716265Y-115646719D01*
X129680551Y-115741957D01*
X129680551Y-115789576D01*
X129716265Y-115884814D01*
X129751979Y-115932433D01*
X129823408Y-115980052D01*
X129966265Y-115980052D01*
X130037694Y-116027671D01*
X130073408Y-116075290D01*
X130109122Y-116170528D01*
X130109122Y-116361004D01*
X130073408Y-116456242D01*
X130037694Y-116503861D01*
X129966265Y-116551480D01*
X129823408Y-116551480D01*
X129751979Y-116503861D01*
X129716265Y-116456242D01*
X129680551Y-116361004D01*
X129680551Y-116170528D01*
X129716265Y-116075290D01*
X129751979Y-116027671D01*
X129823408Y-115980052D01*
X134661741Y-114701480D02*
X134661741Y-113701480D01*
X134090313Y-114701480D02*
X134518884Y-114130052D01*
X134090313Y-113701480D02*
X134661741Y-114272909D01*
%TO.C,D19*%
X169993951Y-135051480D02*
X169993951Y-134051480D01*
X169815379Y-134051480D01*
X169708237Y-134099100D01*
X169636808Y-134194338D01*
X169601094Y-134289576D01*
X169565379Y-134480052D01*
X169565379Y-134622909D01*
X169601094Y-134813385D01*
X169636808Y-134908623D01*
X169708237Y-135003861D01*
X169815379Y-135051480D01*
X169993951Y-135051480D01*
X168851094Y-135051480D02*
X169279665Y-135051480D01*
X169065379Y-135051480D02*
X169065379Y-134051480D01*
X169136808Y-134194338D01*
X169208237Y-134289576D01*
X169279665Y-134337195D01*
X168493951Y-135051480D02*
X168351094Y-135051480D01*
X168279665Y-135003861D01*
X168243951Y-134956242D01*
X168172522Y-134813385D01*
X168136808Y-134622909D01*
X168136808Y-134241957D01*
X168172522Y-134146719D01*
X168208237Y-134099100D01*
X168279665Y-134051480D01*
X168422522Y-134051480D01*
X168493951Y-134099100D01*
X168529665Y-134146719D01*
X168565379Y-134241957D01*
X168565379Y-134480052D01*
X168529665Y-134575290D01*
X168493951Y-134622909D01*
X168422522Y-134670528D01*
X168279665Y-134670528D01*
X168208237Y-134622909D01*
X168172522Y-134575290D01*
X168136808Y-134480052D01*
X173475141Y-133201480D02*
X173475141Y-132201480D01*
X172903713Y-133201480D02*
X173332284Y-132630052D01*
X172903713Y-132201480D02*
X173475141Y-132772909D01*
%TO.C,D13*%
X150593951Y-116551480D02*
X150593951Y-115551480D01*
X150415379Y-115551480D01*
X150308237Y-115599100D01*
X150236808Y-115694338D01*
X150201094Y-115789576D01*
X150165379Y-115980052D01*
X150165379Y-116122909D01*
X150201094Y-116313385D01*
X150236808Y-116408623D01*
X150308237Y-116503861D01*
X150415379Y-116551480D01*
X150593951Y-116551480D01*
X149451094Y-116551480D02*
X149879665Y-116551480D01*
X149665379Y-116551480D02*
X149665379Y-115551480D01*
X149736808Y-115694338D01*
X149808237Y-115789576D01*
X149879665Y-115837195D01*
X149201094Y-115551480D02*
X148736808Y-115551480D01*
X148986808Y-115932433D01*
X148879665Y-115932433D01*
X148808237Y-115980052D01*
X148772522Y-116027671D01*
X148736808Y-116122909D01*
X148736808Y-116361004D01*
X148772522Y-116456242D01*
X148808237Y-116503861D01*
X148879665Y-116551480D01*
X149093951Y-116551480D01*
X149165379Y-116503861D01*
X149201094Y-116456242D01*
X154075141Y-114701480D02*
X154075141Y-113701480D01*
X153503713Y-114701480D02*
X153932284Y-114130052D01*
X153503713Y-113701480D02*
X154075141Y-114272909D01*
%TO.C,D11*%
X130993951Y-172051480D02*
X130993951Y-171051480D01*
X130815379Y-171051480D01*
X130708237Y-171099100D01*
X130636808Y-171194338D01*
X130601094Y-171289576D01*
X130565379Y-171480052D01*
X130565379Y-171622909D01*
X130601094Y-171813385D01*
X130636808Y-171908623D01*
X130708237Y-172003861D01*
X130815379Y-172051480D01*
X130993951Y-172051480D01*
X129851094Y-172051480D02*
X130279665Y-172051480D01*
X130065379Y-172051480D02*
X130065379Y-171051480D01*
X130136808Y-171194338D01*
X130208237Y-171289576D01*
X130279665Y-171337195D01*
X129136808Y-172051480D02*
X129565379Y-172051480D01*
X129351094Y-172051480D02*
X129351094Y-171051480D01*
X129422522Y-171194338D01*
X129493951Y-171289576D01*
X129565379Y-171337195D01*
X134475141Y-170201480D02*
X134475141Y-169201480D01*
X133903713Y-170201480D02*
X134332284Y-169630052D01*
X133903713Y-169201480D02*
X134475141Y-169772909D01*
%TO.C,SW82*%
X237809523Y-205904761D02*
X237666666Y-205952380D01*
X237428571Y-205952380D01*
X237333333Y-205904761D01*
X237285714Y-205857142D01*
X237238095Y-205761904D01*
X237238095Y-205666666D01*
X237285714Y-205571428D01*
X237333333Y-205523809D01*
X237428571Y-205476190D01*
X237619047Y-205428571D01*
X237714285Y-205380952D01*
X237761904Y-205333333D01*
X237809523Y-205238095D01*
X237809523Y-205142857D01*
X237761904Y-205047619D01*
X237714285Y-205000000D01*
X237619047Y-204952380D01*
X237380952Y-204952380D01*
X237238095Y-205000000D01*
X236904761Y-204952380D02*
X236666666Y-205952380D01*
X236476190Y-205238095D01*
X236285714Y-205952380D01*
X236047619Y-204952380D01*
X235523809Y-205380952D02*
X235619047Y-205333333D01*
X235666666Y-205285714D01*
X235714285Y-205190476D01*
X235714285Y-205142857D01*
X235666666Y-205047619D01*
X235619047Y-205000000D01*
X235523809Y-204952380D01*
X235333333Y-204952380D01*
X235238095Y-205000000D01*
X235190476Y-205047619D01*
X235142857Y-205142857D01*
X235142857Y-205190476D01*
X235190476Y-205285714D01*
X235238095Y-205333333D01*
X235333333Y-205380952D01*
X235523809Y-205380952D01*
X235619047Y-205428571D01*
X235666666Y-205476190D01*
X235714285Y-205571428D01*
X235714285Y-205761904D01*
X235666666Y-205857142D01*
X235619047Y-205904761D01*
X235523809Y-205952380D01*
X235333333Y-205952380D01*
X235238095Y-205904761D01*
X235190476Y-205857142D01*
X235142857Y-205761904D01*
X235142857Y-205571428D01*
X235190476Y-205476190D01*
X235238095Y-205428571D01*
X235333333Y-205380952D01*
X234761904Y-205047619D02*
X234714285Y-205000000D01*
X234619047Y-204952380D01*
X234380952Y-204952380D01*
X234285714Y-205000000D01*
X234238095Y-205047619D01*
X234190476Y-205142857D01*
X234190476Y-205238095D01*
X234238095Y-205380952D01*
X234809523Y-205952380D01*
X234190476Y-205952380D01*
%TO.C,D20*%
X169993951Y-153551480D02*
X169993951Y-152551480D01*
X169815379Y-152551480D01*
X169708237Y-152599100D01*
X169636808Y-152694338D01*
X169601094Y-152789576D01*
X169565379Y-152980052D01*
X169565379Y-153122909D01*
X169601094Y-153313385D01*
X169636808Y-153408623D01*
X169708237Y-153503861D01*
X169815379Y-153551480D01*
X169993951Y-153551480D01*
X169279665Y-152646719D02*
X169243951Y-152599100D01*
X169172522Y-152551480D01*
X168993951Y-152551480D01*
X168922522Y-152599100D01*
X168886808Y-152646719D01*
X168851094Y-152741957D01*
X168851094Y-152837195D01*
X168886808Y-152980052D01*
X169315379Y-153551480D01*
X168851094Y-153551480D01*
X168386808Y-152551480D02*
X168315379Y-152551480D01*
X168243951Y-152599100D01*
X168208237Y-152646719D01*
X168172522Y-152741957D01*
X168136808Y-152932433D01*
X168136808Y-153170528D01*
X168172522Y-153361004D01*
X168208237Y-153456242D01*
X168243951Y-153503861D01*
X168315379Y-153551480D01*
X168386808Y-153551480D01*
X168458237Y-153503861D01*
X168493951Y-153456242D01*
X168529665Y-153361004D01*
X168565379Y-153170528D01*
X168565379Y-152932433D01*
X168529665Y-152741957D01*
X168493951Y-152646719D01*
X168458237Y-152599100D01*
X168386808Y-152551480D01*
X173475141Y-151701480D02*
X173475141Y-150701480D01*
X172903713Y-151701480D02*
X173332284Y-151130052D01*
X172903713Y-150701480D02*
X173475141Y-151272909D01*
%TO.C,D34*%
X236590714Y-135002380D02*
X236590714Y-134002380D01*
X236412142Y-134002380D01*
X236305000Y-134050000D01*
X236233571Y-134145238D01*
X236197857Y-134240476D01*
X236162142Y-134430952D01*
X236162142Y-134573809D01*
X236197857Y-134764285D01*
X236233571Y-134859523D01*
X236305000Y-134954761D01*
X236412142Y-135002380D01*
X236590714Y-135002380D01*
X235912142Y-134002380D02*
X235447857Y-134002380D01*
X235697857Y-134383333D01*
X235590714Y-134383333D01*
X235519285Y-134430952D01*
X235483571Y-134478571D01*
X235447857Y-134573809D01*
X235447857Y-134811904D01*
X235483571Y-134907142D01*
X235519285Y-134954761D01*
X235590714Y-135002380D01*
X235805000Y-135002380D01*
X235876428Y-134954761D01*
X235912142Y-134907142D01*
X234805000Y-134335714D02*
X234805000Y-135002380D01*
X234983571Y-133954761D02*
X235162142Y-134669047D01*
X234697857Y-134669047D01*
X240071904Y-133152380D02*
X240071904Y-132152380D01*
X239500476Y-133152380D02*
X239929047Y-132580952D01*
X239500476Y-132152380D02*
X240071904Y-132723809D01*
%TO.C,SW91*%
X296309523Y-122708820D02*
X296166666Y-122756439D01*
X295928571Y-122756439D01*
X295833333Y-122708820D01*
X295785714Y-122661201D01*
X295738095Y-122565963D01*
X295738095Y-122470725D01*
X295785714Y-122375487D01*
X295833333Y-122327868D01*
X295928571Y-122280249D01*
X296119047Y-122232630D01*
X296214285Y-122185011D01*
X296261904Y-122137392D01*
X296309523Y-122042154D01*
X296309523Y-121946916D01*
X296261904Y-121851678D01*
X296214285Y-121804059D01*
X296119047Y-121756439D01*
X295880952Y-121756439D01*
X295738095Y-121804059D01*
X295404761Y-121756439D02*
X295166666Y-122756439D01*
X294976190Y-122042154D01*
X294785714Y-122756439D01*
X294547619Y-121756439D01*
X294119047Y-122756439D02*
X293928571Y-122756439D01*
X293833333Y-122708820D01*
X293785714Y-122661201D01*
X293690476Y-122518344D01*
X293642857Y-122327868D01*
X293642857Y-121946916D01*
X293690476Y-121851678D01*
X293738095Y-121804059D01*
X293833333Y-121756439D01*
X294023809Y-121756439D01*
X294119047Y-121804059D01*
X294166666Y-121851678D01*
X294214285Y-121946916D01*
X294214285Y-122185011D01*
X294166666Y-122280249D01*
X294119047Y-122327868D01*
X294023809Y-122375487D01*
X293833333Y-122375487D01*
X293738095Y-122327868D01*
X293690476Y-122280249D01*
X293642857Y-122185011D01*
X292690476Y-122756439D02*
X293261904Y-122756439D01*
X292976190Y-122756439D02*
X292976190Y-121756439D01*
X293071428Y-121899297D01*
X293166666Y-121994535D01*
X293261904Y-122042154D01*
%TO.C,SW59*%
X132168360Y-205904761D02*
X132025503Y-205952380D01*
X131787408Y-205952380D01*
X131692170Y-205904761D01*
X131644551Y-205857142D01*
X131596932Y-205761904D01*
X131596932Y-205666666D01*
X131644551Y-205571428D01*
X131692170Y-205523809D01*
X131787408Y-205476190D01*
X131977884Y-205428571D01*
X132073122Y-205380952D01*
X132120741Y-205333333D01*
X132168360Y-205238095D01*
X132168360Y-205142857D01*
X132120741Y-205047619D01*
X132073122Y-205000000D01*
X131977884Y-204952380D01*
X131739789Y-204952380D01*
X131596932Y-205000000D01*
X131263598Y-204952380D02*
X131025503Y-205952380D01*
X130835027Y-205238095D01*
X130644551Y-205952380D01*
X130406456Y-204952380D01*
X129549313Y-204952380D02*
X130025503Y-204952380D01*
X130073122Y-205428571D01*
X130025503Y-205380952D01*
X129930265Y-205333333D01*
X129692170Y-205333333D01*
X129596932Y-205380952D01*
X129549313Y-205428571D01*
X129501694Y-205523809D01*
X129501694Y-205761904D01*
X129549313Y-205857142D01*
X129596932Y-205904761D01*
X129692170Y-205952380D01*
X129930265Y-205952380D01*
X130025503Y-205904761D01*
X130073122Y-205857142D01*
X129025503Y-205952380D02*
X128835027Y-205952380D01*
X128739789Y-205904761D01*
X128692170Y-205857142D01*
X128596932Y-205714285D01*
X128549313Y-205523809D01*
X128549313Y-205142857D01*
X128596932Y-205047619D01*
X128644551Y-205000000D01*
X128739789Y-204952380D01*
X128930265Y-204952380D01*
X129025503Y-205000000D01*
X129073122Y-205047619D01*
X129120741Y-205142857D01*
X129120741Y-205380952D01*
X129073122Y-205476190D01*
X129025503Y-205523809D01*
X128930265Y-205571428D01*
X128739789Y-205571428D01*
X128644551Y-205523809D01*
X128596932Y-205476190D01*
X128549313Y-205380952D01*
%TO.C,SW78*%
X237809523Y-131904761D02*
X237666666Y-131952380D01*
X237428571Y-131952380D01*
X237333333Y-131904761D01*
X237285714Y-131857142D01*
X237238095Y-131761904D01*
X237238095Y-131666666D01*
X237285714Y-131571428D01*
X237333333Y-131523809D01*
X237428571Y-131476190D01*
X237619047Y-131428571D01*
X237714285Y-131380952D01*
X237761904Y-131333333D01*
X237809523Y-131238095D01*
X237809523Y-131142857D01*
X237761904Y-131047619D01*
X237714285Y-131000000D01*
X237619047Y-130952380D01*
X237380952Y-130952380D01*
X237238095Y-131000000D01*
X236904761Y-130952380D02*
X236666666Y-131952380D01*
X236476190Y-131238095D01*
X236285714Y-131952380D01*
X236047619Y-130952380D01*
X235761904Y-130952380D02*
X235095238Y-130952380D01*
X235523809Y-131952380D01*
X234571428Y-131380952D02*
X234666666Y-131333333D01*
X234714285Y-131285714D01*
X234761904Y-131190476D01*
X234761904Y-131142857D01*
X234714285Y-131047619D01*
X234666666Y-131000000D01*
X234571428Y-130952380D01*
X234380952Y-130952380D01*
X234285714Y-131000000D01*
X234238095Y-131047619D01*
X234190476Y-131142857D01*
X234190476Y-131190476D01*
X234238095Y-131285714D01*
X234285714Y-131333333D01*
X234380952Y-131380952D01*
X234571428Y-131380952D01*
X234666666Y-131428571D01*
X234714285Y-131476190D01*
X234761904Y-131571428D01*
X234761904Y-131761904D01*
X234714285Y-131857142D01*
X234666666Y-131904761D01*
X234571428Y-131952380D01*
X234380952Y-131952380D01*
X234285714Y-131904761D01*
X234238095Y-131857142D01*
X234190476Y-131761904D01*
X234190476Y-131571428D01*
X234238095Y-131476190D01*
X234285714Y-131428571D01*
X234380952Y-131380952D01*
%TO.C,SW90*%
X276809523Y-170831142D02*
X276666666Y-170878761D01*
X276428571Y-170878761D01*
X276333333Y-170831142D01*
X276285714Y-170783523D01*
X276238095Y-170688285D01*
X276238095Y-170593047D01*
X276285714Y-170497809D01*
X276333333Y-170450190D01*
X276428571Y-170402571D01*
X276619047Y-170354952D01*
X276714285Y-170307333D01*
X276761904Y-170259714D01*
X276809523Y-170164476D01*
X276809523Y-170069238D01*
X276761904Y-169974000D01*
X276714285Y-169926381D01*
X276619047Y-169878761D01*
X276380952Y-169878761D01*
X276238095Y-169926381D01*
X275904761Y-169878761D02*
X275666666Y-170878761D01*
X275476190Y-170164476D01*
X275285714Y-170878761D01*
X275047619Y-169878761D01*
X274619047Y-170878761D02*
X274428571Y-170878761D01*
X274333333Y-170831142D01*
X274285714Y-170783523D01*
X274190476Y-170640666D01*
X274142857Y-170450190D01*
X274142857Y-170069238D01*
X274190476Y-169974000D01*
X274238095Y-169926381D01*
X274333333Y-169878761D01*
X274523809Y-169878761D01*
X274619047Y-169926381D01*
X274666666Y-169974000D01*
X274714285Y-170069238D01*
X274714285Y-170307333D01*
X274666666Y-170402571D01*
X274619047Y-170450190D01*
X274523809Y-170497809D01*
X274333333Y-170497809D01*
X274238095Y-170450190D01*
X274190476Y-170402571D01*
X274142857Y-170307333D01*
X273523809Y-169878761D02*
X273428571Y-169878761D01*
X273333333Y-169926381D01*
X273285714Y-169974000D01*
X273238095Y-170069238D01*
X273190476Y-170259714D01*
X273190476Y-170497809D01*
X273238095Y-170688285D01*
X273285714Y-170783523D01*
X273333333Y-170831142D01*
X273428571Y-170878761D01*
X273523809Y-170878761D01*
X273619047Y-170831142D01*
X273666666Y-170783523D01*
X273714285Y-170688285D01*
X273761904Y-170497809D01*
X273761904Y-170259714D01*
X273714285Y-170069238D01*
X273666666Y-169974000D01*
X273619047Y-169926381D01*
X273523809Y-169878761D01*
%TO.C,D14*%
X150893951Y-135051480D02*
X150893951Y-134051480D01*
X150715379Y-134051480D01*
X150608237Y-134099100D01*
X150536808Y-134194338D01*
X150501094Y-134289576D01*
X150465379Y-134480052D01*
X150465379Y-134622909D01*
X150501094Y-134813385D01*
X150536808Y-134908623D01*
X150608237Y-135003861D01*
X150715379Y-135051480D01*
X150893951Y-135051480D01*
X149751094Y-135051480D02*
X150179665Y-135051480D01*
X149965379Y-135051480D02*
X149965379Y-134051480D01*
X150036808Y-134194338D01*
X150108237Y-134289576D01*
X150179665Y-134337195D01*
X149108237Y-134384814D02*
X149108237Y-135051480D01*
X149286808Y-134003861D02*
X149465379Y-134718147D01*
X149001094Y-134718147D01*
X154375141Y-133201480D02*
X154375141Y-132201480D01*
X153803713Y-133201480D02*
X154232284Y-132630052D01*
X153803713Y-132201480D02*
X154375141Y-132772909D01*
%TO.C,D16*%
X150493951Y-172051480D02*
X150493951Y-171051480D01*
X150315379Y-171051480D01*
X150208237Y-171099100D01*
X150136808Y-171194338D01*
X150101094Y-171289576D01*
X150065379Y-171480052D01*
X150065379Y-171622909D01*
X150101094Y-171813385D01*
X150136808Y-171908623D01*
X150208237Y-172003861D01*
X150315379Y-172051480D01*
X150493951Y-172051480D01*
X149351094Y-172051480D02*
X149779665Y-172051480D01*
X149565379Y-172051480D02*
X149565379Y-171051480D01*
X149636808Y-171194338D01*
X149708237Y-171289576D01*
X149779665Y-171337195D01*
X148708237Y-171051480D02*
X148851094Y-171051480D01*
X148922522Y-171099100D01*
X148958237Y-171146719D01*
X149029665Y-171289576D01*
X149065379Y-171480052D01*
X149065379Y-171861004D01*
X149029665Y-171956242D01*
X148993951Y-172003861D01*
X148922522Y-172051480D01*
X148779665Y-172051480D01*
X148708237Y-172003861D01*
X148672522Y-171956242D01*
X148636808Y-171861004D01*
X148636808Y-171622909D01*
X148672522Y-171527671D01*
X148708237Y-171480052D01*
X148779665Y-171432433D01*
X148922522Y-171432433D01*
X148993951Y-171480052D01*
X149029665Y-171527671D01*
X149065379Y-171622909D01*
X153975141Y-170201480D02*
X153975141Y-169201480D01*
X153403713Y-170201480D02*
X153832284Y-169630052D01*
X153403713Y-169201480D02*
X153975141Y-169772909D01*
%TO.C,SW65*%
X171168360Y-150404761D02*
X171025503Y-150452380D01*
X170787408Y-150452380D01*
X170692170Y-150404761D01*
X170644551Y-150357142D01*
X170596932Y-150261904D01*
X170596932Y-150166666D01*
X170644551Y-150071428D01*
X170692170Y-150023809D01*
X170787408Y-149976190D01*
X170977884Y-149928571D01*
X171073122Y-149880952D01*
X171120741Y-149833333D01*
X171168360Y-149738095D01*
X171168360Y-149642857D01*
X171120741Y-149547619D01*
X171073122Y-149500000D01*
X170977884Y-149452380D01*
X170739789Y-149452380D01*
X170596932Y-149500000D01*
X170263598Y-149452380D02*
X170025503Y-150452380D01*
X169835027Y-149738095D01*
X169644551Y-150452380D01*
X169406456Y-149452380D01*
X168596932Y-149452380D02*
X168787408Y-149452380D01*
X168882646Y-149500000D01*
X168930265Y-149547619D01*
X169025503Y-149690476D01*
X169073122Y-149880952D01*
X169073122Y-150261904D01*
X169025503Y-150357142D01*
X168977884Y-150404761D01*
X168882646Y-150452380D01*
X168692170Y-150452380D01*
X168596932Y-150404761D01*
X168549313Y-150357142D01*
X168501694Y-150261904D01*
X168501694Y-150023809D01*
X168549313Y-149928571D01*
X168596932Y-149880952D01*
X168692170Y-149833333D01*
X168882646Y-149833333D01*
X168977884Y-149880952D01*
X169025503Y-149928571D01*
X169073122Y-150023809D01*
X167596932Y-149452380D02*
X168073122Y-149452380D01*
X168120741Y-149928571D01*
X168073122Y-149880952D01*
X167977884Y-149833333D01*
X167739789Y-149833333D01*
X167644551Y-149880952D01*
X167596932Y-149928571D01*
X167549313Y-150023809D01*
X167549313Y-150261904D01*
X167596932Y-150357142D01*
X167644551Y-150404761D01*
X167739789Y-150452380D01*
X167977884Y-150452380D01*
X168073122Y-150404761D01*
X168120741Y-150357142D01*
%TO.C,SW79*%
X237809523Y-150404761D02*
X237666666Y-150452380D01*
X237428571Y-150452380D01*
X237333333Y-150404761D01*
X237285714Y-150357142D01*
X237238095Y-150261904D01*
X237238095Y-150166666D01*
X237285714Y-150071428D01*
X237333333Y-150023809D01*
X237428571Y-149976190D01*
X237619047Y-149928571D01*
X237714285Y-149880952D01*
X237761904Y-149833333D01*
X237809523Y-149738095D01*
X237809523Y-149642857D01*
X237761904Y-149547619D01*
X237714285Y-149500000D01*
X237619047Y-149452380D01*
X237380952Y-149452380D01*
X237238095Y-149500000D01*
X236904761Y-149452380D02*
X236666666Y-150452380D01*
X236476190Y-149738095D01*
X236285714Y-150452380D01*
X236047619Y-149452380D01*
X235761904Y-149452380D02*
X235095238Y-149452380D01*
X235523809Y-150452380D01*
X234666666Y-150452380D02*
X234476190Y-150452380D01*
X234380952Y-150404761D01*
X234333333Y-150357142D01*
X234238095Y-150214285D01*
X234190476Y-150023809D01*
X234190476Y-149642857D01*
X234238095Y-149547619D01*
X234285714Y-149500000D01*
X234380952Y-149452380D01*
X234571428Y-149452380D01*
X234666666Y-149500000D01*
X234714285Y-149547619D01*
X234761904Y-149642857D01*
X234761904Y-149880952D01*
X234714285Y-149976190D01*
X234666666Y-150023809D01*
X234571428Y-150071428D01*
X234380952Y-150071428D01*
X234285714Y-150023809D01*
X234238095Y-149976190D01*
X234190476Y-149880952D01*
%TO.C,D22*%
X169993951Y-190551480D02*
X169993951Y-189551480D01*
X169815379Y-189551480D01*
X169708237Y-189599100D01*
X169636808Y-189694338D01*
X169601094Y-189789576D01*
X169565379Y-189980052D01*
X169565379Y-190122909D01*
X169601094Y-190313385D01*
X169636808Y-190408623D01*
X169708237Y-190503861D01*
X169815379Y-190551480D01*
X169993951Y-190551480D01*
X169279665Y-189646719D02*
X169243951Y-189599100D01*
X169172522Y-189551480D01*
X168993951Y-189551480D01*
X168922522Y-189599100D01*
X168886808Y-189646719D01*
X168851094Y-189741957D01*
X168851094Y-189837195D01*
X168886808Y-189980052D01*
X169315379Y-190551480D01*
X168851094Y-190551480D01*
X168565379Y-189646719D02*
X168529665Y-189599100D01*
X168458237Y-189551480D01*
X168279665Y-189551480D01*
X168208237Y-189599100D01*
X168172522Y-189646719D01*
X168136808Y-189741957D01*
X168136808Y-189837195D01*
X168172522Y-189980052D01*
X168601094Y-190551480D01*
X168136808Y-190551480D01*
X173475141Y-188701480D02*
X173475141Y-187701480D01*
X172903713Y-188701480D02*
X173332284Y-188130052D01*
X172903713Y-187701480D02*
X173475141Y-188272909D01*
%TO.C,SW74*%
X218309523Y-150404761D02*
X218166666Y-150452380D01*
X217928571Y-150452380D01*
X217833333Y-150404761D01*
X217785714Y-150357142D01*
X217738095Y-150261904D01*
X217738095Y-150166666D01*
X217785714Y-150071428D01*
X217833333Y-150023809D01*
X217928571Y-149976190D01*
X218119047Y-149928571D01*
X218214285Y-149880952D01*
X218261904Y-149833333D01*
X218309523Y-149738095D01*
X218309523Y-149642857D01*
X218261904Y-149547619D01*
X218214285Y-149500000D01*
X218119047Y-149452380D01*
X217880952Y-149452380D01*
X217738095Y-149500000D01*
X217404761Y-149452380D02*
X217166666Y-150452380D01*
X216976190Y-149738095D01*
X216785714Y-150452380D01*
X216547619Y-149452380D01*
X216261904Y-149452380D02*
X215595238Y-149452380D01*
X216023809Y-150452380D01*
X214785714Y-149785714D02*
X214785714Y-150452380D01*
X215023809Y-149404761D02*
X215261904Y-150119047D01*
X214642857Y-150119047D01*
D11*
%TO.C,SW54*%
X118458837Y-194850000D02*
X103258837Y-194850000D01*
X103258837Y-179650000D02*
X118458837Y-179650000D01*
X118458837Y-179650000D02*
X118458837Y-194850000D01*
X103258837Y-194850000D02*
X103258837Y-179650000D01*
D12*
%TO.C,J5*%
X189500000Y-95082500D02*
X177500000Y-95082500D01*
X180850000Y-102842500D02*
G75*
G03*
X180850000Y-102842500I-100000J0D01*
G01*
D11*
%TO.C,SW53*%
X118458837Y-157850000D02*
X103258837Y-157850000D01*
X103258837Y-142650000D02*
X118458837Y-142650000D01*
X118458837Y-142650000D02*
X118458837Y-157850000D01*
X103258837Y-157850000D02*
X103258837Y-142650000D01*
%TO.C,SW73*%
X214350000Y-130100000D02*
X199150000Y-130100000D01*
X199150000Y-114900000D02*
X214350000Y-114900000D01*
X199150000Y-130100000D02*
X199150000Y-114900000D01*
X214350000Y-114900000D02*
X214350000Y-130100000D01*
%TO.C,SW68*%
X167208837Y-204100000D02*
X152008837Y-204100000D01*
X152008837Y-188900000D02*
X167208837Y-188900000D01*
X152008837Y-204100000D02*
X152008837Y-188900000D01*
X167208837Y-188900000D02*
X167208837Y-204100000D01*
%TO.C,D1*%
X268600000Y-171380000D02*
X268600000Y-173620000D01*
X267880000Y-171380000D02*
X267880000Y-173620000D01*
X267880000Y-173620000D02*
X272120000Y-173620000D01*
X272120000Y-171380000D02*
X267880000Y-171380000D01*
X268480000Y-171380000D02*
X268480000Y-173620000D01*
X272120000Y-173620000D02*
X272120000Y-171380000D01*
X268720000Y-171380000D02*
X268720000Y-173620000D01*
X272770000Y-172500000D02*
X272120000Y-172500000D01*
X267230000Y-172500000D02*
X267880000Y-172500000D01*
%TO.C,D54*%
X239900000Y-172620000D02*
X239900000Y-170380000D01*
X240620000Y-172620000D02*
X240620000Y-170380000D01*
X240620000Y-170380000D02*
X236380000Y-170380000D01*
X236380000Y-172620000D02*
X240620000Y-172620000D01*
X240020000Y-172620000D02*
X240020000Y-170380000D01*
X236380000Y-170380000D02*
X236380000Y-172620000D01*
X239780000Y-172620000D02*
X239780000Y-170380000D01*
X235730000Y-171500000D02*
X236380000Y-171500000D01*
X241270000Y-171500000D02*
X240620000Y-171500000D01*
%TO.C,D2*%
X184400000Y-108120000D02*
X184400000Y-105880000D01*
X185120000Y-108120000D02*
X185120000Y-105880000D01*
X185120000Y-105880000D02*
X180880000Y-105880000D01*
X180880000Y-108120000D02*
X185120000Y-108120000D01*
X184520000Y-108120000D02*
X184520000Y-105880000D01*
X180880000Y-105880000D02*
X180880000Y-108120000D01*
X184280000Y-108120000D02*
X184280000Y-105880000D01*
X180230000Y-107000000D02*
X180880000Y-107000000D01*
X185770000Y-107000000D02*
X185120000Y-107000000D01*
%TO.C,SW85*%
X247900000Y-140258611D02*
X263100000Y-140258611D01*
X247900000Y-155458611D02*
X247900000Y-140258611D01*
X263100000Y-155458611D02*
X247900000Y-155458611D01*
X263100000Y-140258611D02*
X263100000Y-155458611D01*
%TO.C,SW76*%
X208900000Y-170400000D02*
X224100000Y-170400000D01*
X208900000Y-185600000D02*
X208900000Y-170400000D01*
X224100000Y-185600000D02*
X208900000Y-185600000D01*
X224100000Y-170400000D02*
X224100000Y-185600000D01*
%TO.C,SW97*%
X306400000Y-145191419D02*
X321600000Y-145191419D01*
X306400000Y-160391419D02*
X306400000Y-145191419D01*
X321600000Y-160391419D02*
X306400000Y-160391419D01*
X321600000Y-145191419D02*
X321600000Y-160391419D01*
%TO.C,SW70*%
X189400000Y-151900000D02*
X204600000Y-151900000D01*
X189400000Y-167100000D02*
X189400000Y-151900000D01*
X204600000Y-167100000D02*
X189400000Y-167100000D01*
X204600000Y-151900000D02*
X204600000Y-167100000D01*
%TO.C,D30*%
X214380000Y-151880000D02*
X218620000Y-151880000D01*
X217900000Y-151880000D02*
X217900000Y-154120000D01*
X218020000Y-151880000D02*
X218020000Y-154120000D01*
X214380000Y-154120000D02*
X214380000Y-151880000D01*
X217780000Y-151880000D02*
X217780000Y-154120000D01*
X219270000Y-153000000D02*
X218620000Y-153000000D01*
X218620000Y-151880000D02*
X218620000Y-154120000D01*
X218620000Y-154120000D02*
X214380000Y-154120000D01*
X213730000Y-153000000D02*
X214380000Y-153000000D01*
%TO.C,SW99*%
X306400000Y-182191419D02*
X321600000Y-182191419D01*
X306400000Y-197391419D02*
X306400000Y-182191419D01*
X321600000Y-197391419D02*
X306400000Y-197391419D01*
X321600000Y-182191419D02*
X321600000Y-197391419D01*
%TO.C,SW86*%
X247900000Y-158758611D02*
X263100000Y-158758611D01*
X247900000Y-173958611D02*
X247900000Y-158758611D01*
X263100000Y-173958611D02*
X247900000Y-173958611D01*
X263100000Y-158758611D02*
X263100000Y-173958611D01*
%TO.C,D32*%
X222380000Y-170480000D02*
X226620000Y-170480000D01*
X225900000Y-170480000D02*
X225900000Y-172720000D01*
X226020000Y-170480000D02*
X226020000Y-172720000D01*
X222380000Y-172720000D02*
X222380000Y-170480000D01*
X225780000Y-170480000D02*
X225780000Y-172720000D01*
X227270000Y-171600000D02*
X226620000Y-171600000D01*
X226620000Y-170480000D02*
X226620000Y-172720000D01*
X226620000Y-172720000D02*
X222380000Y-172720000D01*
X221730000Y-171600000D02*
X222380000Y-171600000D01*
%TO.C,D53*%
X311880000Y-182180000D02*
X316120000Y-182180000D01*
X315400000Y-182180000D02*
X315400000Y-184420000D01*
X315520000Y-182180000D02*
X315520000Y-184420000D01*
X311880000Y-184420000D02*
X311880000Y-182180000D01*
X315280000Y-182180000D02*
X315280000Y-184420000D01*
X316770000Y-183300000D02*
X316120000Y-183300000D01*
X316120000Y-182180000D02*
X316120000Y-184420000D01*
X316120000Y-184420000D02*
X311880000Y-184420000D01*
X311230000Y-183300000D02*
X311880000Y-183300000D01*
%TO.C,SW66*%
X161758837Y-151900000D02*
X176958837Y-151900000D01*
X161758837Y-167100000D02*
X161758837Y-151900000D01*
X176958837Y-167100000D02*
X161758837Y-167100000D01*
X176958837Y-151900000D02*
X176958837Y-167100000D01*
%TO.C,SW80*%
X228400000Y-151900000D02*
X243600000Y-151900000D01*
X228400000Y-167100000D02*
X228400000Y-151900000D01*
X243600000Y-167100000D02*
X228400000Y-167100000D01*
X243600000Y-151900000D02*
X243600000Y-167100000D01*
%TO.C,D44*%
X272880000Y-153880000D02*
X277120000Y-153880000D01*
X276400000Y-153880000D02*
X276400000Y-156120000D01*
X276520000Y-153880000D02*
X276520000Y-156120000D01*
X272880000Y-156120000D02*
X272880000Y-153880000D01*
X276280000Y-153880000D02*
X276280000Y-156120000D01*
X277770000Y-155000000D02*
X277120000Y-155000000D01*
X277120000Y-153880000D02*
X277120000Y-156120000D01*
X277120000Y-156120000D02*
X272880000Y-156120000D01*
X272230000Y-155000000D02*
X272880000Y-155000000D01*
%TO.C,D5*%
X108783237Y-133429100D02*
X113023237Y-133429100D01*
X112303237Y-133429100D02*
X112303237Y-135669100D01*
X112423237Y-133429100D02*
X112423237Y-135669100D01*
X108783237Y-135669100D02*
X108783237Y-133429100D01*
X112183237Y-133429100D02*
X112183237Y-135669100D01*
X113673237Y-134549100D02*
X113023237Y-134549100D01*
X113023237Y-133429100D02*
X113023237Y-135669100D01*
X113023237Y-135669100D02*
X108783237Y-135669100D01*
X108133237Y-134549100D02*
X108783237Y-134549100D01*
%TO.C,D35*%
X233880000Y-151980000D02*
X238120000Y-151980000D01*
X237400000Y-151980000D02*
X237400000Y-154220000D01*
X237520000Y-151980000D02*
X237520000Y-154220000D01*
X233880000Y-154220000D02*
X233880000Y-151980000D01*
X237280000Y-151980000D02*
X237280000Y-154220000D01*
X238770000Y-153100000D02*
X238120000Y-153100000D01*
X238120000Y-151980000D02*
X238120000Y-154220000D01*
X238120000Y-154220000D02*
X233880000Y-154220000D01*
X233230000Y-153100000D02*
X233880000Y-153100000D01*
%TO.C,D52*%
X311880000Y-163680000D02*
X316120000Y-163680000D01*
X315400000Y-163680000D02*
X315400000Y-165920000D01*
X315520000Y-163680000D02*
X315520000Y-165920000D01*
X311880000Y-165920000D02*
X311880000Y-163680000D01*
X315280000Y-163680000D02*
X315280000Y-165920000D01*
X316770000Y-164800000D02*
X316120000Y-164800000D01*
X316120000Y-163680000D02*
X316120000Y-165920000D01*
X316120000Y-165920000D02*
X311880000Y-165920000D01*
X311230000Y-164800000D02*
X311880000Y-164800000D01*
%TO.C,SW94*%
X286900000Y-161204059D02*
X302100000Y-161204059D01*
X286900000Y-176404059D02*
X286900000Y-161204059D01*
X302100000Y-176404059D02*
X286900000Y-176404059D01*
X302100000Y-161204059D02*
X302100000Y-176404059D01*
%TO.C,D9*%
X128469837Y-133429100D02*
X132709837Y-133429100D01*
X131989837Y-133429100D02*
X131989837Y-135669100D01*
X132109837Y-133429100D02*
X132109837Y-135669100D01*
X128469837Y-135669100D02*
X128469837Y-133429100D01*
X131869837Y-133429100D02*
X131869837Y-135669100D01*
X133359837Y-134549100D02*
X132709837Y-134549100D01*
X132709837Y-133429100D02*
X132709837Y-135669100D01*
X132709837Y-135669100D02*
X128469837Y-135669100D01*
X127819837Y-134549100D02*
X128469837Y-134549100D01*
%TO.C,D12*%
X128283237Y-188929100D02*
X132523237Y-188929100D01*
X131803237Y-188929100D02*
X131803237Y-191169100D01*
X131923237Y-188929100D02*
X131923237Y-191169100D01*
X128283237Y-191169100D02*
X128283237Y-188929100D01*
X131683237Y-188929100D02*
X131683237Y-191169100D01*
X133173237Y-190049100D02*
X132523237Y-190049100D01*
X132523237Y-188929100D02*
X132523237Y-191169100D01*
X132523237Y-191169100D02*
X128283237Y-191169100D01*
X127633237Y-190049100D02*
X128283237Y-190049100D01*
%TO.C,SW56*%
X122758837Y-133400000D02*
X137958837Y-133400000D01*
X122758837Y-148600000D02*
X122758837Y-133400000D01*
X137958837Y-148600000D02*
X122758837Y-148600000D01*
X137958837Y-133400000D02*
X137958837Y-148600000D01*
%TO.C,D47*%
X292380000Y-142680000D02*
X296620000Y-142680000D01*
X295900000Y-142680000D02*
X295900000Y-144920000D01*
X296020000Y-142680000D02*
X296020000Y-144920000D01*
X292380000Y-144920000D02*
X292380000Y-142680000D01*
X295780000Y-142680000D02*
X295780000Y-144920000D01*
X297270000Y-143800000D02*
X296620000Y-143800000D01*
X296620000Y-142680000D02*
X296620000Y-144920000D01*
X296620000Y-144920000D02*
X292380000Y-144920000D01*
X291730000Y-143800000D02*
X292380000Y-143800000D01*
%TO.C,D23*%
X195183237Y-114929100D02*
X199423237Y-114929100D01*
X198703237Y-114929100D02*
X198703237Y-117169100D01*
X198823237Y-114929100D02*
X198823237Y-117169100D01*
X195183237Y-117169100D02*
X195183237Y-114929100D01*
X198583237Y-114929100D02*
X198583237Y-117169100D01*
X200073237Y-116049100D02*
X199423237Y-116049100D01*
X199423237Y-114929100D02*
X199423237Y-117169100D01*
X199423237Y-117169100D02*
X195183237Y-117169100D01*
X194533237Y-116049100D02*
X195183237Y-116049100D01*
%TO.C,SW60*%
X142258837Y-114900000D02*
X157458837Y-114900000D01*
X142258837Y-130100000D02*
X142258837Y-114900000D01*
X157458837Y-130100000D02*
X142258837Y-130100000D01*
X157458837Y-114900000D02*
X157458837Y-130100000D01*
%TO.C,D48*%
X292380000Y-161280000D02*
X296620000Y-161280000D01*
X295900000Y-161280000D02*
X295900000Y-163520000D01*
X296020000Y-161280000D02*
X296020000Y-163520000D01*
X292380000Y-163520000D02*
X292380000Y-161280000D01*
X295780000Y-161280000D02*
X295780000Y-163520000D01*
X297270000Y-162400000D02*
X296620000Y-162400000D01*
X296620000Y-161280000D02*
X296620000Y-163520000D01*
X296620000Y-163520000D02*
X292380000Y-163520000D01*
X291730000Y-162400000D02*
X292380000Y-162400000D01*
%TO.C,D37*%
X253380000Y-103280000D02*
X257620000Y-103280000D01*
X256900000Y-103280000D02*
X256900000Y-105520000D01*
X257020000Y-103280000D02*
X257020000Y-105520000D01*
X253380000Y-105520000D02*
X253380000Y-103280000D01*
X256780000Y-103280000D02*
X256780000Y-105520000D01*
X258270000Y-104400000D02*
X257620000Y-104400000D01*
X257620000Y-103280000D02*
X257620000Y-105520000D01*
X257620000Y-105520000D02*
X253380000Y-105520000D01*
X252730000Y-104400000D02*
X253380000Y-104400000D01*
%TO.C,SW62*%
X142258837Y-151900000D02*
X157458837Y-151900000D01*
X142258837Y-167100000D02*
X142258837Y-151900000D01*
X157458837Y-167100000D02*
X142258837Y-167100000D01*
X157458837Y-151900000D02*
X157458837Y-167100000D01*
%TO.C,D17*%
X147683237Y-188929100D02*
X151923237Y-188929100D01*
X151203237Y-188929100D02*
X151203237Y-191169100D01*
X151323237Y-188929100D02*
X151323237Y-191169100D01*
X147683237Y-191169100D02*
X147683237Y-188929100D01*
X151083237Y-188929100D02*
X151083237Y-191169100D01*
X152573237Y-190049100D02*
X151923237Y-190049100D01*
X151923237Y-188929100D02*
X151923237Y-191169100D01*
X151923237Y-191169100D02*
X147683237Y-191169100D01*
X147033237Y-190049100D02*
X147683237Y-190049100D01*
%TO.C,SW92*%
X286900000Y-124204059D02*
X302100000Y-124204059D01*
X286900000Y-139404059D02*
X286900000Y-124204059D01*
X302100000Y-139404059D02*
X286900000Y-139404059D01*
X302100000Y-124204059D02*
X302100000Y-139404059D01*
%TO.C,D46*%
X292380000Y-124280000D02*
X296620000Y-124280000D01*
X295900000Y-124280000D02*
X295900000Y-126520000D01*
X296020000Y-124280000D02*
X296020000Y-126520000D01*
X292380000Y-126520000D02*
X292380000Y-124280000D01*
X295780000Y-124280000D02*
X295780000Y-126520000D01*
X297270000Y-125400000D02*
X296620000Y-125400000D01*
X296620000Y-124280000D02*
X296620000Y-126520000D01*
X296620000Y-126520000D02*
X292380000Y-126520000D01*
X291730000Y-125400000D02*
X292380000Y-125400000D01*
%TO.C,SW57*%
X122758837Y-151900000D02*
X137958837Y-151900000D01*
X122758837Y-167100000D02*
X122758837Y-151900000D01*
X137958837Y-167100000D02*
X122758837Y-167100000D01*
X137958837Y-151900000D02*
X137958837Y-167100000D01*
%TO.C,D21*%
X167283237Y-170429100D02*
X171523237Y-170429100D01*
X170803237Y-170429100D02*
X170803237Y-172669100D01*
X170923237Y-170429100D02*
X170923237Y-172669100D01*
X167283237Y-172669100D02*
X167283237Y-170429100D01*
X170683237Y-170429100D02*
X170683237Y-172669100D01*
X172173237Y-171549100D02*
X171523237Y-171549100D01*
X171523237Y-170429100D02*
X171523237Y-172669100D01*
X171523237Y-172669100D02*
X167283237Y-172669100D01*
X166633237Y-171549100D02*
X167283237Y-171549100D01*
%TO.C,D18*%
X167083237Y-114929100D02*
X171323237Y-114929100D01*
X170603237Y-114929100D02*
X170603237Y-117169100D01*
X170723237Y-114929100D02*
X170723237Y-117169100D01*
X167083237Y-117169100D02*
X167083237Y-114929100D01*
X170483237Y-114929100D02*
X170483237Y-117169100D01*
X171973237Y-116049100D02*
X171323237Y-116049100D01*
X171323237Y-114929100D02*
X171323237Y-117169100D01*
X171323237Y-117169100D02*
X167083237Y-117169100D01*
X166433237Y-116049100D02*
X167083237Y-116049100D01*
%TO.C,SW81*%
X228400000Y-170400000D02*
X243600000Y-170400000D01*
X228400000Y-185600000D02*
X228400000Y-170400000D01*
X243600000Y-185600000D02*
X228400000Y-185600000D01*
X243600000Y-170400000D02*
X243600000Y-185600000D01*
%TO.C,SW98*%
X306400000Y-163691419D02*
X321600000Y-163691419D01*
X306400000Y-178891419D02*
X306400000Y-163691419D01*
X321600000Y-178891419D02*
X306400000Y-178891419D01*
X321600000Y-163691419D02*
X321600000Y-178891419D01*
%TO.C,D43*%
X272880000Y-135380000D02*
X277120000Y-135380000D01*
X276400000Y-135380000D02*
X276400000Y-137620000D01*
X276520000Y-135380000D02*
X276520000Y-137620000D01*
X272880000Y-137620000D02*
X272880000Y-135380000D01*
X276280000Y-135380000D02*
X276280000Y-137620000D01*
X277770000Y-136500000D02*
X277120000Y-136500000D01*
X277120000Y-135380000D02*
X277120000Y-137620000D01*
X277120000Y-137620000D02*
X272880000Y-137620000D01*
X272230000Y-136500000D02*
X272880000Y-136500000D01*
%TO.C,SW75*%
X208900000Y-151900000D02*
X224100000Y-151900000D01*
X208900000Y-167100000D02*
X208900000Y-151900000D01*
X224100000Y-167100000D02*
X208900000Y-167100000D01*
X224100000Y-151900000D02*
X224100000Y-167100000D01*
%TO.C,D38*%
X253380000Y-121780000D02*
X257620000Y-121780000D01*
X256900000Y-121780000D02*
X256900000Y-124020000D01*
X257020000Y-121780000D02*
X257020000Y-124020000D01*
X253380000Y-124020000D02*
X253380000Y-121780000D01*
X256780000Y-121780000D02*
X256780000Y-124020000D01*
X258270000Y-122900000D02*
X257620000Y-122900000D01*
X257620000Y-121780000D02*
X257620000Y-124020000D01*
X257620000Y-124020000D02*
X253380000Y-124020000D01*
X252730000Y-122900000D02*
X253380000Y-122900000D01*
%TO.C,D33*%
X233980000Y-114980000D02*
X238220000Y-114980000D01*
X237500000Y-114980000D02*
X237500000Y-117220000D01*
X237620000Y-114980000D02*
X237620000Y-117220000D01*
X233980000Y-117220000D02*
X233980000Y-114980000D01*
X237380000Y-114980000D02*
X237380000Y-117220000D01*
X238870000Y-116100000D02*
X238220000Y-116100000D01*
X238220000Y-114980000D02*
X238220000Y-117220000D01*
X238220000Y-117220000D02*
X233980000Y-117220000D01*
X233330000Y-116100000D02*
X233980000Y-116100000D01*
%TO.C,D10*%
X128283237Y-151929100D02*
X132523237Y-151929100D01*
X131803237Y-151929100D02*
X131803237Y-154169100D01*
X131923237Y-151929100D02*
X131923237Y-154169100D01*
X128283237Y-154169100D02*
X128283237Y-151929100D01*
X131683237Y-151929100D02*
X131683237Y-154169100D01*
X133173237Y-153049100D02*
X132523237Y-153049100D01*
X132523237Y-151929100D02*
X132523237Y-154169100D01*
X132523237Y-154169100D02*
X128283237Y-154169100D01*
X127633237Y-153049100D02*
X128283237Y-153049100D01*
%TO.C,SW84*%
X247900000Y-121758611D02*
X263100000Y-121758611D01*
X247900000Y-136958611D02*
X247900000Y-121758611D01*
X263100000Y-136958611D02*
X247900000Y-136958611D01*
X263100000Y-121758611D02*
X263100000Y-136958611D01*
%TO.C,D51*%
X311880000Y-145180000D02*
X316120000Y-145180000D01*
X315400000Y-145180000D02*
X315400000Y-147420000D01*
X315520000Y-145180000D02*
X315520000Y-147420000D01*
X311880000Y-147420000D02*
X311880000Y-145180000D01*
X315280000Y-145180000D02*
X315280000Y-147420000D01*
X316770000Y-146300000D02*
X316120000Y-146300000D01*
X316120000Y-145180000D02*
X316120000Y-147420000D01*
X316120000Y-147420000D02*
X311880000Y-147420000D01*
X311230000Y-146300000D02*
X311880000Y-146300000D01*
%TO.C,D40*%
X253380000Y-158780000D02*
X257620000Y-158780000D01*
X256900000Y-158780000D02*
X256900000Y-161020000D01*
X257020000Y-158780000D02*
X257020000Y-161020000D01*
X253380000Y-161020000D02*
X253380000Y-158780000D01*
X256780000Y-158780000D02*
X256780000Y-161020000D01*
X258270000Y-159900000D02*
X257620000Y-159900000D01*
X257620000Y-158780000D02*
X257620000Y-161020000D01*
X257620000Y-161020000D02*
X253380000Y-161020000D01*
X252730000Y-159900000D02*
X253380000Y-159900000D01*
%TO.C,SW77*%
X208900000Y-188900000D02*
X224100000Y-188900000D01*
X208900000Y-204100000D02*
X208900000Y-188900000D01*
X224100000Y-204100000D02*
X208900000Y-204100000D01*
X224100000Y-188900000D02*
X224100000Y-204100000D01*
%TO.C,D49*%
X311880000Y-108180000D02*
X316120000Y-108180000D01*
X315400000Y-108180000D02*
X315400000Y-110420000D01*
X315520000Y-108180000D02*
X315520000Y-110420000D01*
X311880000Y-110420000D02*
X311880000Y-108180000D01*
X315280000Y-108180000D02*
X315280000Y-110420000D01*
X316770000Y-109300000D02*
X316120000Y-109300000D01*
X316120000Y-108180000D02*
X316120000Y-110420000D01*
X316120000Y-110420000D02*
X311880000Y-110420000D01*
X311230000Y-109300000D02*
X311880000Y-109300000D01*
%TO.C,D42*%
X272880000Y-116780000D02*
X277120000Y-116780000D01*
X276400000Y-116780000D02*
X276400000Y-119020000D01*
X276520000Y-116780000D02*
X276520000Y-119020000D01*
X272880000Y-119020000D02*
X272880000Y-116780000D01*
X276280000Y-116780000D02*
X276280000Y-119020000D01*
X277770000Y-117900000D02*
X277120000Y-117900000D01*
X277120000Y-116780000D02*
X277120000Y-119020000D01*
X277120000Y-119020000D02*
X272880000Y-119020000D01*
X272230000Y-117900000D02*
X272880000Y-117900000D01*
%TO.C,D36*%
X233880000Y-188980000D02*
X238120000Y-188980000D01*
X237400000Y-188980000D02*
X237400000Y-191220000D01*
X237520000Y-188980000D02*
X237520000Y-191220000D01*
X233880000Y-191220000D02*
X233880000Y-188980000D01*
X237280000Y-188980000D02*
X237280000Y-191220000D01*
X238770000Y-190100000D02*
X238120000Y-190100000D01*
X238120000Y-188980000D02*
X238120000Y-191220000D01*
X238120000Y-191220000D02*
X233880000Y-191220000D01*
X233230000Y-190100000D02*
X233880000Y-190100000D01*
%TO.C,SW88*%
X267400000Y-116826381D02*
X282600000Y-116826381D01*
X267400000Y-132026381D02*
X267400000Y-116826381D01*
X282600000Y-132026381D02*
X267400000Y-132026381D01*
X282600000Y-116826381D02*
X282600000Y-132026381D01*
%TO.C,SW87*%
X267400000Y-98326381D02*
X282600000Y-98326381D01*
X267400000Y-113526381D02*
X267400000Y-98326381D01*
X282600000Y-113526381D02*
X267400000Y-113526381D01*
X282600000Y-98326381D02*
X282600000Y-113526381D01*
%TO.C,SW83*%
X247900000Y-103258611D02*
X263100000Y-103258611D01*
X247900000Y-118458611D02*
X247900000Y-103258611D01*
X263100000Y-118458611D02*
X247900000Y-118458611D01*
X263100000Y-103258611D02*
X263100000Y-118458611D01*
%TO.C,D45*%
X292380000Y-105680000D02*
X296620000Y-105680000D01*
X295900000Y-105680000D02*
X295900000Y-107920000D01*
X296020000Y-105680000D02*
X296020000Y-107920000D01*
X292380000Y-107920000D02*
X292380000Y-105680000D01*
X295780000Y-105680000D02*
X295780000Y-107920000D01*
X297270000Y-106800000D02*
X296620000Y-106800000D01*
X296620000Y-105680000D02*
X296620000Y-107920000D01*
X296620000Y-107920000D02*
X292380000Y-107920000D01*
X291730000Y-106800000D02*
X292380000Y-106800000D01*
%TO.C,SW96*%
X306400000Y-126691419D02*
X321600000Y-126691419D01*
X306400000Y-141891419D02*
X306400000Y-126691419D01*
X321600000Y-141891419D02*
X306400000Y-141891419D01*
X321600000Y-126691419D02*
X321600000Y-141891419D01*
%TO.C,D6*%
X108783237Y-170429100D02*
X113023237Y-170429100D01*
X112303237Y-170429100D02*
X112303237Y-172669100D01*
X112423237Y-170429100D02*
X112423237Y-172669100D01*
X108783237Y-172669100D02*
X108783237Y-170429100D01*
X112183237Y-170429100D02*
X112183237Y-172669100D01*
X113673237Y-171549100D02*
X113023237Y-171549100D01*
X113023237Y-170429100D02*
X113023237Y-172669100D01*
X113023237Y-172669100D02*
X108783237Y-172669100D01*
X108133237Y-171549100D02*
X108783237Y-171549100D01*
%TO.C,SW55*%
X122758837Y-114900000D02*
X137958837Y-114900000D01*
X122758837Y-130100000D02*
X122758837Y-114900000D01*
X137958837Y-130100000D02*
X122758837Y-130100000D01*
X137958837Y-114900000D02*
X137958837Y-130100000D01*
%TO.C,D7*%
X106380000Y-189180000D02*
X110620000Y-189180000D01*
X109900000Y-189180000D02*
X109900000Y-191420000D01*
X110020000Y-189180000D02*
X110020000Y-191420000D01*
X106380000Y-191420000D02*
X106380000Y-189180000D01*
X109780000Y-189180000D02*
X109780000Y-191420000D01*
X111270000Y-190300000D02*
X110620000Y-190300000D01*
X110620000Y-189180000D02*
X110620000Y-191420000D01*
X110620000Y-191420000D02*
X106380000Y-191420000D01*
X105730000Y-190300000D02*
X106380000Y-190300000D01*
%TO.C,SW89*%
X267400000Y-135326381D02*
X282600000Y-135326381D01*
X267400000Y-150526381D02*
X267400000Y-135326381D01*
X282600000Y-150526381D02*
X267400000Y-150526381D01*
X282600000Y-135326381D02*
X282600000Y-150526381D01*
%TO.C,SW63*%
X142258837Y-170400000D02*
X157458837Y-170400000D01*
X142258837Y-185600000D02*
X142258837Y-170400000D01*
X157458837Y-185600000D02*
X142258837Y-185600000D01*
X157458837Y-170400000D02*
X157458837Y-185600000D01*
%TO.C,SW95*%
X306400000Y-108191419D02*
X321600000Y-108191419D01*
X306400000Y-123391419D02*
X306400000Y-108191419D01*
X321600000Y-123391419D02*
X306400000Y-123391419D01*
X321600000Y-108191419D02*
X321600000Y-123391419D01*
%TO.C,D41*%
X272880000Y-98380000D02*
X277120000Y-98380000D01*
X276400000Y-98380000D02*
X276400000Y-100620000D01*
X276520000Y-98380000D02*
X276520000Y-100620000D01*
X272880000Y-100620000D02*
X272880000Y-98380000D01*
X276280000Y-98380000D02*
X276280000Y-100620000D01*
X277770000Y-99500000D02*
X277120000Y-99500000D01*
X277120000Y-98380000D02*
X277120000Y-100620000D01*
X277120000Y-100620000D02*
X272880000Y-100620000D01*
X272230000Y-99500000D02*
X272880000Y-99500000D01*
%TO.C,SW61*%
X142258837Y-133400000D02*
X157458837Y-133400000D01*
X142258837Y-148600000D02*
X142258837Y-133400000D01*
X157458837Y-148600000D02*
X142258837Y-148600000D01*
X157458837Y-133400000D02*
X157458837Y-148600000D01*
%TO.C,SW52*%
X103258837Y-114910000D02*
X118458837Y-114910000D01*
X103258837Y-130110000D02*
X103258837Y-114910000D01*
X118458837Y-130110000D02*
X103258837Y-130110000D01*
X118458837Y-114910000D02*
X118458837Y-130110000D01*
%TO.C,D4*%
X106380000Y-152180000D02*
X110620000Y-152180000D01*
X109900000Y-152180000D02*
X109900000Y-154420000D01*
X110020000Y-152180000D02*
X110020000Y-154420000D01*
X106380000Y-154420000D02*
X106380000Y-152180000D01*
X109780000Y-152180000D02*
X109780000Y-154420000D01*
X111270000Y-153300000D02*
X110620000Y-153300000D01*
X110620000Y-152180000D02*
X110620000Y-154420000D01*
X110620000Y-154420000D02*
X106380000Y-154420000D01*
X105730000Y-153300000D02*
X106380000Y-153300000D01*
%TO.C,SW72*%
X189400000Y-188900000D02*
X204600000Y-188900000D01*
X189400000Y-204100000D02*
X189400000Y-188900000D01*
X204600000Y-204100000D02*
X189400000Y-204100000D01*
X204600000Y-188900000D02*
X204600000Y-204100000D01*
%TO.C,SW67*%
X161758837Y-170400000D02*
X176958837Y-170400000D01*
X161758837Y-185600000D02*
X161758837Y-170400000D01*
X176958837Y-185600000D02*
X161758837Y-185600000D01*
X176958837Y-170400000D02*
X176958837Y-185600000D01*
%TO.C,D27*%
X194883237Y-188929100D02*
X199123237Y-188929100D01*
X198403237Y-188929100D02*
X198403237Y-191169100D01*
X198523237Y-188929100D02*
X198523237Y-191169100D01*
X194883237Y-191169100D02*
X194883237Y-188929100D01*
X198283237Y-188929100D02*
X198283237Y-191169100D01*
X199773237Y-190049100D02*
X199123237Y-190049100D01*
X199123237Y-188929100D02*
X199123237Y-191169100D01*
X199123237Y-191169100D02*
X194883237Y-191169100D01*
X194233237Y-190049100D02*
X194883237Y-190049100D01*
%TO.C,SW64*%
X161758837Y-114900000D02*
X176958837Y-114900000D01*
X161758837Y-130100000D02*
X161758837Y-114900000D01*
X176958837Y-130100000D02*
X161758837Y-130100000D01*
X176958837Y-114900000D02*
X176958837Y-130100000D01*
%TO.C,SW58*%
X122758837Y-170400000D02*
X137958837Y-170400000D01*
X122758837Y-185600000D02*
X122758837Y-170400000D01*
X137958837Y-185600000D02*
X122758837Y-185600000D01*
X137958837Y-170400000D02*
X137958837Y-185600000D01*
%TO.C,D50*%
X311880000Y-126680000D02*
X316120000Y-126680000D01*
X315400000Y-126680000D02*
X315400000Y-128920000D01*
X315520000Y-126680000D02*
X315520000Y-128920000D01*
X311880000Y-128920000D02*
X311880000Y-126680000D01*
X315280000Y-126680000D02*
X315280000Y-128920000D01*
X316770000Y-127800000D02*
X316120000Y-127800000D01*
X316120000Y-126680000D02*
X316120000Y-128920000D01*
X316120000Y-128920000D02*
X311880000Y-128920000D01*
X311230000Y-127800000D02*
X311880000Y-127800000D01*
%TO.C,D39*%
X253380000Y-140280000D02*
X257620000Y-140280000D01*
X256900000Y-140280000D02*
X256900000Y-142520000D01*
X257020000Y-140280000D02*
X257020000Y-142520000D01*
X253380000Y-142520000D02*
X253380000Y-140280000D01*
X256780000Y-140280000D02*
X256780000Y-142520000D01*
X258270000Y-141400000D02*
X257620000Y-141400000D01*
X257620000Y-140280000D02*
X257620000Y-142520000D01*
X257620000Y-142520000D02*
X253380000Y-142520000D01*
X252730000Y-141400000D02*
X253380000Y-141400000D01*
%TO.C,D3*%
X108883237Y-114929100D02*
X113123237Y-114929100D01*
X112403237Y-114929100D02*
X112403237Y-117169100D01*
X112523237Y-114929100D02*
X112523237Y-117169100D01*
X108883237Y-117169100D02*
X108883237Y-114929100D01*
X112283237Y-114929100D02*
X112283237Y-117169100D01*
X113773237Y-116049100D02*
X113123237Y-116049100D01*
X113123237Y-114929100D02*
X113123237Y-117169100D01*
X113123237Y-117169100D02*
X108883237Y-117169100D01*
X108233237Y-116049100D02*
X108883237Y-116049100D01*
%TO.C,SW93*%
X286900000Y-142704059D02*
X302100000Y-142704059D01*
X286900000Y-157904059D02*
X286900000Y-142704059D01*
X302100000Y-157904059D02*
X286900000Y-157904059D01*
X302100000Y-142704059D02*
X302100000Y-157904059D01*
%TO.C,D15*%
X147783237Y-151929100D02*
X152023237Y-151929100D01*
X151303237Y-151929100D02*
X151303237Y-154169100D01*
X151423237Y-151929100D02*
X151423237Y-154169100D01*
X147783237Y-154169100D02*
X147783237Y-151929100D01*
X151183237Y-151929100D02*
X151183237Y-154169100D01*
X152673237Y-153049100D02*
X152023237Y-153049100D01*
X152023237Y-151929100D02*
X152023237Y-154169100D01*
X152023237Y-154169100D02*
X147783237Y-154169100D01*
X147133237Y-153049100D02*
X147783237Y-153049100D01*
%TO.C,SW69*%
X189400000Y-133400000D02*
X204600000Y-133400000D01*
X189400000Y-148600000D02*
X189400000Y-133400000D01*
X204600000Y-148600000D02*
X189400000Y-148600000D01*
X204600000Y-133400000D02*
X204600000Y-148600000D01*
%TO.C,D28*%
X214380000Y-114980000D02*
X218620000Y-114980000D01*
X217900000Y-114980000D02*
X217900000Y-117220000D01*
X218020000Y-114980000D02*
X218020000Y-117220000D01*
X214380000Y-117220000D02*
X214380000Y-114980000D01*
X217780000Y-114980000D02*
X217780000Y-117220000D01*
X219270000Y-116100000D02*
X218620000Y-116100000D01*
X218620000Y-114980000D02*
X218620000Y-117220000D01*
X218620000Y-117220000D02*
X214380000Y-117220000D01*
X213730000Y-116100000D02*
X214380000Y-116100000D01*
%TO.C,D29*%
X214380000Y-133380000D02*
X218620000Y-133380000D01*
X217900000Y-133380000D02*
X217900000Y-135620000D01*
X218020000Y-133380000D02*
X218020000Y-135620000D01*
X214380000Y-135620000D02*
X214380000Y-133380000D01*
X217780000Y-133380000D02*
X217780000Y-135620000D01*
X219270000Y-134500000D02*
X218620000Y-134500000D01*
X218620000Y-133380000D02*
X218620000Y-135620000D01*
X218620000Y-135620000D02*
X214380000Y-135620000D01*
X213730000Y-134500000D02*
X214380000Y-134500000D01*
%TO.C,D25*%
X194880000Y-151929100D02*
X199120000Y-151929100D01*
X198400000Y-151929100D02*
X198400000Y-154169100D01*
X198520000Y-151929100D02*
X198520000Y-154169100D01*
X194880000Y-154169100D02*
X194880000Y-151929100D01*
X198280000Y-151929100D02*
X198280000Y-154169100D01*
X199770000Y-153049100D02*
X199120000Y-153049100D01*
X199120000Y-151929100D02*
X199120000Y-154169100D01*
X199120000Y-154169100D02*
X194880000Y-154169100D01*
X194230000Y-153049100D02*
X194880000Y-153049100D01*
%TO.C,D31*%
X213880000Y-188880000D02*
X218120000Y-188880000D01*
X217400000Y-188880000D02*
X217400000Y-191120000D01*
X217520000Y-188880000D02*
X217520000Y-191120000D01*
X213880000Y-191120000D02*
X213880000Y-188880000D01*
X217280000Y-188880000D02*
X217280000Y-191120000D01*
X218770000Y-190000000D02*
X218120000Y-190000000D01*
X218120000Y-188880000D02*
X218120000Y-191120000D01*
X218120000Y-191120000D02*
X213880000Y-191120000D01*
X213230000Y-190000000D02*
X213880000Y-190000000D01*
%TO.C,D24*%
X194883237Y-133529100D02*
X199123237Y-133529100D01*
X198403237Y-133529100D02*
X198403237Y-135769100D01*
X198523237Y-133529100D02*
X198523237Y-135769100D01*
X194883237Y-135769100D02*
X194883237Y-133529100D01*
X198283237Y-133529100D02*
X198283237Y-135769100D01*
X199773237Y-134649100D02*
X199123237Y-134649100D01*
X199123237Y-133529100D02*
X199123237Y-135769100D01*
X199123237Y-135769100D02*
X194883237Y-135769100D01*
X194233237Y-134649100D02*
X194883237Y-134649100D01*
%TO.C,D26*%
X194883237Y-170429100D02*
X199123237Y-170429100D01*
X198403237Y-170429100D02*
X198403237Y-172669100D01*
X198523237Y-170429100D02*
X198523237Y-172669100D01*
X194883237Y-172669100D02*
X194883237Y-170429100D01*
X198283237Y-170429100D02*
X198283237Y-172669100D01*
X199773237Y-171549100D02*
X199123237Y-171549100D01*
X199123237Y-170429100D02*
X199123237Y-172669100D01*
X199123237Y-172669100D02*
X194883237Y-172669100D01*
X194233237Y-171549100D02*
X194883237Y-171549100D01*
%TO.C,SW71*%
X189400000Y-170400000D02*
X204600000Y-170400000D01*
X189400000Y-185600000D02*
X189400000Y-170400000D01*
X204600000Y-185600000D02*
X189400000Y-185600000D01*
X204600000Y-170400000D02*
X204600000Y-185600000D01*
%TO.C,D8*%
X128469837Y-114929100D02*
X132709837Y-114929100D01*
X131989837Y-114929100D02*
X131989837Y-117169100D01*
X132109837Y-114929100D02*
X132109837Y-117169100D01*
X128469837Y-117169100D02*
X128469837Y-114929100D01*
X131869837Y-114929100D02*
X131869837Y-117169100D01*
X133359837Y-116049100D02*
X132709837Y-116049100D01*
X132709837Y-114929100D02*
X132709837Y-117169100D01*
X132709837Y-117169100D02*
X128469837Y-117169100D01*
X127819837Y-116049100D02*
X128469837Y-116049100D01*
%TO.C,D19*%
X167283237Y-133429100D02*
X171523237Y-133429100D01*
X170803237Y-133429100D02*
X170803237Y-135669100D01*
X170923237Y-133429100D02*
X170923237Y-135669100D01*
X167283237Y-135669100D02*
X167283237Y-133429100D01*
X170683237Y-133429100D02*
X170683237Y-135669100D01*
X172173237Y-134549100D02*
X171523237Y-134549100D01*
X171523237Y-133429100D02*
X171523237Y-135669100D01*
X171523237Y-135669100D02*
X167283237Y-135669100D01*
X166633237Y-134549100D02*
X167283237Y-134549100D01*
%TO.C,D13*%
X147883237Y-114929100D02*
X152123237Y-114929100D01*
X151403237Y-114929100D02*
X151403237Y-117169100D01*
X151523237Y-114929100D02*
X151523237Y-117169100D01*
X147883237Y-117169100D02*
X147883237Y-114929100D01*
X151283237Y-114929100D02*
X151283237Y-117169100D01*
X152773237Y-116049100D02*
X152123237Y-116049100D01*
X152123237Y-114929100D02*
X152123237Y-117169100D01*
X152123237Y-117169100D02*
X147883237Y-117169100D01*
X147233237Y-116049100D02*
X147883237Y-116049100D01*
%TO.C,D11*%
X128283237Y-170429100D02*
X132523237Y-170429100D01*
X131803237Y-170429100D02*
X131803237Y-172669100D01*
X131923237Y-170429100D02*
X131923237Y-172669100D01*
X128283237Y-172669100D02*
X128283237Y-170429100D01*
X131683237Y-170429100D02*
X131683237Y-172669100D01*
X133173237Y-171549100D02*
X132523237Y-171549100D01*
X132523237Y-170429100D02*
X132523237Y-172669100D01*
X132523237Y-172669100D02*
X128283237Y-172669100D01*
X127633237Y-171549100D02*
X128283237Y-171549100D01*
%TO.C,SW82*%
X228400000Y-188900000D02*
X243600000Y-188900000D01*
X228400000Y-204100000D02*
X228400000Y-188900000D01*
X243600000Y-204100000D02*
X228400000Y-204100000D01*
X243600000Y-188900000D02*
X243600000Y-204100000D01*
%TO.C,D20*%
X167283237Y-151929100D02*
X171523237Y-151929100D01*
X170803237Y-151929100D02*
X170803237Y-154169100D01*
X170923237Y-151929100D02*
X170923237Y-154169100D01*
X167283237Y-154169100D02*
X167283237Y-151929100D01*
X170683237Y-151929100D02*
X170683237Y-154169100D01*
X172173237Y-153049100D02*
X171523237Y-153049100D01*
X171523237Y-151929100D02*
X171523237Y-154169100D01*
X171523237Y-154169100D02*
X167283237Y-154169100D01*
X166633237Y-153049100D02*
X167283237Y-153049100D01*
%TO.C,D34*%
X233880000Y-133380000D02*
X238120000Y-133380000D01*
X237400000Y-133380000D02*
X237400000Y-135620000D01*
X237520000Y-133380000D02*
X237520000Y-135620000D01*
X233880000Y-135620000D02*
X233880000Y-133380000D01*
X237280000Y-133380000D02*
X237280000Y-135620000D01*
X238770000Y-134500000D02*
X238120000Y-134500000D01*
X238120000Y-133380000D02*
X238120000Y-135620000D01*
X238120000Y-135620000D02*
X233880000Y-135620000D01*
X233230000Y-134500000D02*
X233880000Y-134500000D01*
%TO.C,SW91*%
X286900000Y-105704059D02*
X302100000Y-105704059D01*
X286900000Y-120904059D02*
X286900000Y-105704059D01*
X302100000Y-120904059D02*
X286900000Y-120904059D01*
X302100000Y-105704059D02*
X302100000Y-120904059D01*
%TO.C,SW59*%
X122758837Y-188900000D02*
X137958837Y-188900000D01*
X122758837Y-204100000D02*
X122758837Y-188900000D01*
X137958837Y-204100000D02*
X122758837Y-204100000D01*
X137958837Y-188900000D02*
X137958837Y-204100000D01*
%TO.C,SW78*%
X228400000Y-114900000D02*
X243600000Y-114900000D01*
X228400000Y-130100000D02*
X228400000Y-114900000D01*
X243600000Y-130100000D02*
X228400000Y-130100000D01*
X243600000Y-114900000D02*
X243600000Y-130100000D01*
%TO.C,SW90*%
X267400000Y-153826381D02*
X282600000Y-153826381D01*
X267400000Y-169026381D02*
X267400000Y-153826381D01*
X282600000Y-169026381D02*
X267400000Y-169026381D01*
X282600000Y-153826381D02*
X282600000Y-169026381D01*
%TO.C,D14*%
X148183237Y-133429100D02*
X152423237Y-133429100D01*
X151703237Y-133429100D02*
X151703237Y-135669100D01*
X151823237Y-133429100D02*
X151823237Y-135669100D01*
X148183237Y-135669100D02*
X148183237Y-133429100D01*
X151583237Y-133429100D02*
X151583237Y-135669100D01*
X153073237Y-134549100D02*
X152423237Y-134549100D01*
X152423237Y-133429100D02*
X152423237Y-135669100D01*
X152423237Y-135669100D02*
X148183237Y-135669100D01*
X147533237Y-134549100D02*
X148183237Y-134549100D01*
%TO.C,D16*%
X147783237Y-170429100D02*
X152023237Y-170429100D01*
X151303237Y-170429100D02*
X151303237Y-172669100D01*
X151423237Y-170429100D02*
X151423237Y-172669100D01*
X147783237Y-172669100D02*
X147783237Y-170429100D01*
X151183237Y-170429100D02*
X151183237Y-172669100D01*
X152673237Y-171549100D02*
X152023237Y-171549100D01*
X152023237Y-170429100D02*
X152023237Y-172669100D01*
X152023237Y-172669100D02*
X147783237Y-172669100D01*
X147133237Y-171549100D02*
X147783237Y-171549100D01*
%TO.C,SW65*%
X161758837Y-133400000D02*
X176958837Y-133400000D01*
X161758837Y-148600000D02*
X161758837Y-133400000D01*
X176958837Y-148600000D02*
X161758837Y-148600000D01*
X176958837Y-133400000D02*
X176958837Y-148600000D01*
%TO.C,SW79*%
X228400000Y-133400000D02*
X243600000Y-133400000D01*
X228400000Y-148600000D02*
X228400000Y-133400000D01*
X243600000Y-148600000D02*
X228400000Y-148600000D01*
X243600000Y-133400000D02*
X243600000Y-148600000D01*
%TO.C,D22*%
X167283237Y-188929100D02*
X171523237Y-188929100D01*
X170803237Y-188929100D02*
X170803237Y-191169100D01*
X170923237Y-188929100D02*
X170923237Y-191169100D01*
X167283237Y-191169100D02*
X167283237Y-188929100D01*
X170683237Y-188929100D02*
X170683237Y-191169100D01*
X172173237Y-190049100D02*
X171523237Y-190049100D01*
X171523237Y-188929100D02*
X171523237Y-191169100D01*
X171523237Y-191169100D02*
X167283237Y-191169100D01*
X166633237Y-190049100D02*
X167283237Y-190049100D01*
%TO.C,SW74*%
X208900000Y-133400000D02*
X224100000Y-133400000D01*
X208900000Y-148600000D02*
X208900000Y-133400000D01*
X224100000Y-148600000D02*
X208900000Y-148600000D01*
X224100000Y-133400000D02*
X224100000Y-148600000D01*
%TD*%
%LPC*%
D13*
%TO.C,SW54*%
X110858837Y-187250000D03*
D14*
X105358837Y-187250000D03*
X116358837Y-187250000D03*
D15*
X110858837Y-193150000D03*
X115858837Y-191050000D03*
%TD*%
D16*
%TO.C,J5*%
X183000000Y-101582500D03*
D17*
X185020000Y-101582500D03*
D18*
X186250000Y-101582500D03*
D16*
X184000000Y-101582500D03*
D17*
X181980000Y-101582500D03*
D18*
X180750000Y-101582500D03*
D19*
X177880000Y-96632500D03*
X189120000Y-96632500D03*
D20*
X177880000Y-100632500D03*
X189120000Y-100632500D03*
%TD*%
D19*
%TO.C,J1*%
X189120000Y-96632500D03*
X177880000Y-96632500D03*
D20*
X189120000Y-100632500D03*
X177880000Y-100632500D03*
%TD*%
D13*
%TO.C,SW3*%
X110858837Y-159500000D03*
D14*
X105358837Y-159500000D03*
X116358837Y-159500000D03*
D15*
X110858837Y-165400000D03*
X105858837Y-163300000D03*
%TD*%
D13*
%TO.C,SW53*%
X110858837Y-150250000D03*
D14*
X105358837Y-150250000D03*
X116358837Y-150250000D03*
D15*
X110858837Y-156150000D03*
X115858837Y-154050000D03*
%TD*%
D21*
%TO.C,SW73*%
X211600000Y-122500000D03*
D13*
X206750000Y-122500000D03*
D21*
X201875000Y-122500000D03*
D15*
X206750000Y-128400000D03*
D22*
X211625000Y-126300000D03*
%TD*%
D21*
%TO.C,SW68*%
X164458837Y-196500000D03*
D13*
X159608837Y-196500000D03*
D21*
X154733837Y-196500000D03*
D15*
X159608837Y-202400000D03*
D22*
X164483837Y-200300000D03*
%TD*%
D21*
%TO.C,SW29*%
X221400000Y-178000000D03*
D13*
X226250000Y-178000000D03*
D21*
X231125000Y-178000000D03*
D15*
X226250000Y-183900000D03*
D22*
X221375000Y-181800000D03*
%TD*%
D13*
%TO.C,SW24*%
X197000000Y-178000000D03*
D14*
X191500000Y-178000000D03*
X202500000Y-178000000D03*
D15*
X197000000Y-183900000D03*
X192000000Y-181800000D03*
%TD*%
D13*
%TO.C,SW51*%
X314000000Y-189791419D03*
D14*
X308500000Y-189791419D03*
X319500000Y-189791419D03*
D15*
X314000000Y-195691419D03*
X309000000Y-193591419D03*
%TD*%
D13*
%TO.C,SW44*%
X294500000Y-131804059D03*
D14*
X289000000Y-131804059D03*
X300000000Y-131804059D03*
D15*
X294500000Y-137704059D03*
X289500000Y-135604059D03*
%TD*%
D13*
%TO.C,SW23*%
X197000000Y-159500000D03*
D14*
X191500000Y-159500000D03*
X202500000Y-159500000D03*
D15*
X197000000Y-165400000D03*
X192000000Y-163300000D03*
%TD*%
D23*
%TO.C,D1*%
X266190000Y-172500000D03*
D24*
X273810000Y-172500000D03*
%TD*%
D13*
%TO.C,SW21*%
X197000000Y-122500000D03*
D14*
X191500000Y-122500000D03*
X202500000Y-122500000D03*
D15*
X197000000Y-128400000D03*
X192000000Y-126300000D03*
%TD*%
D25*
%TO.C,J3*%
X277000000Y-172500000D03*
D26*
X281600000Y-172500000D03*
%TD*%
D13*
%TO.C,SW40*%
X275000000Y-124426381D03*
D14*
X269500000Y-124426381D03*
X280500000Y-124426381D03*
D15*
X275000000Y-130326381D03*
X270000000Y-128226381D03*
%TD*%
D13*
%TO.C,SW47*%
X314000000Y-115791419D03*
D14*
X308500000Y-115791419D03*
X319500000Y-115791419D03*
D15*
X314000000Y-121691419D03*
X309000000Y-119591419D03*
%TD*%
D13*
%TO.C,SW25*%
X197000000Y-196500000D03*
D14*
X191500000Y-196500000D03*
X202500000Y-196500000D03*
D15*
X197000000Y-202400000D03*
X192000000Y-200300000D03*
%TD*%
D13*
%TO.C,SW37*%
X255500000Y-147858611D03*
D14*
X250000000Y-147858611D03*
X261000000Y-147858611D03*
D15*
X255500000Y-153758611D03*
X250500000Y-151658611D03*
%TD*%
D27*
%TO.C,R5*%
X290490000Y-99500000D03*
D24*
X298110000Y-99500000D03*
%TD*%
D13*
%TO.C,SW12*%
X149858837Y-141000000D03*
D14*
X144358837Y-141000000D03*
X155358837Y-141000000D03*
D15*
X149858837Y-146900000D03*
X144858837Y-144800000D03*
%TD*%
D13*
%TO.C,SW33*%
X236000000Y-159500000D03*
D14*
X230500000Y-159500000D03*
X241500000Y-159500000D03*
D15*
X236000000Y-165400000D03*
X231000000Y-163300000D03*
%TD*%
D23*
%TO.C,D54*%
X242310000Y-171500000D03*
D24*
X234690000Y-171500000D03*
%TD*%
D13*
%TO.C,SW49*%
X314000000Y-152791419D03*
D14*
X308500000Y-152791419D03*
X319500000Y-152791419D03*
D15*
X314000000Y-158691419D03*
X309000000Y-156591419D03*
%TD*%
D27*
%TO.C,R2*%
X174810000Y-98132500D03*
D24*
X167190000Y-98132500D03*
%TD*%
D28*
%TO.C,U1*%
X282781290Y-193999510D03*
X282781290Y-191459510D03*
X282781290Y-188919510D03*
X282781290Y-186379510D03*
X282781290Y-183839510D03*
X282781290Y-181299510D03*
X282781290Y-178759510D03*
X266616730Y-178759510D03*
X266616730Y-181299510D03*
X266616730Y-183839510D03*
X266616730Y-186379510D03*
X266616730Y-188919510D03*
X266616730Y-191459510D03*
X266616730Y-193999510D03*
%TD*%
D13*
%TO.C,SW28*%
X216500000Y-159500000D03*
D14*
X211000000Y-159500000D03*
X222000000Y-159500000D03*
D15*
X216500000Y-165400000D03*
X211500000Y-163300000D03*
%TD*%
D23*
%TO.C,D2*%
X186810000Y-107000000D03*
D24*
X179190000Y-107000000D03*
%TD*%
D13*
%TO.C,SW43*%
X294500000Y-113304059D03*
D14*
X289000000Y-113304059D03*
X300000000Y-113304059D03*
D15*
X294500000Y-119204059D03*
X289500000Y-117104059D03*
%TD*%
D13*
%TO.C,SW36*%
X255500000Y-129358611D03*
D14*
X250000000Y-129358611D03*
X261000000Y-129358611D03*
D15*
X255500000Y-135258611D03*
X250500000Y-133158611D03*
%TD*%
D13*
%TO.C,SW13*%
X149858837Y-159500000D03*
D14*
X144358837Y-159500000D03*
X155358837Y-159500000D03*
D15*
X149858837Y-165400000D03*
X144858837Y-163300000D03*
%TD*%
D13*
%TO.C,SW4*%
X110858837Y-178000000D03*
D14*
X105358837Y-178000000D03*
X116358837Y-178000000D03*
D15*
X110858837Y-183900000D03*
X105858837Y-181800000D03*
%TD*%
D27*
%TO.C,R4*%
X315600000Y-104000000D03*
D24*
X307980000Y-104000000D03*
%TD*%
D29*
%TO.C,U3*%
X237710000Y-100890000D03*
D30*
X235170000Y-100890000D03*
X232630000Y-100890000D03*
X230090000Y-100890000D03*
X227550000Y-100890000D03*
X225010000Y-100890000D03*
X222470000Y-100890000D03*
X219930000Y-100890000D03*
X217390000Y-100890000D03*
X214850000Y-100890000D03*
X212310000Y-100890000D03*
X209770000Y-100890000D03*
X207230000Y-100890000D03*
X204690000Y-100890000D03*
X204690000Y-108510000D03*
X207230000Y-108510000D03*
X209770000Y-108510000D03*
X212310000Y-108510000D03*
X214850000Y-108510000D03*
X217390000Y-108510000D03*
X219930000Y-108510000D03*
X222470000Y-108510000D03*
X225010000Y-108510000D03*
X227550000Y-108510000D03*
X230090000Y-108510000D03*
X232630000Y-108510000D03*
X235170000Y-108510000D03*
X237710000Y-108510000D03*
%TD*%
D25*
%TO.C,J4*%
X246500000Y-177000000D03*
D26*
X251100000Y-177000000D03*
%TD*%
D13*
%TO.C,SW31*%
X236000000Y-122500000D03*
D14*
X230500000Y-122500000D03*
X241500000Y-122500000D03*
D15*
X236000000Y-128400000D03*
X231000000Y-126300000D03*
%TD*%
D13*
%TO.C,SW30*%
X216500000Y-196500000D03*
D14*
X211000000Y-196500000D03*
X222000000Y-196500000D03*
D15*
X216500000Y-202400000D03*
X211500000Y-200300000D03*
%TD*%
D13*
%TO.C,SW42*%
X275000000Y-161426381D03*
D14*
X269500000Y-161426381D03*
X280500000Y-161426381D03*
D15*
X275000000Y-167326381D03*
X270000000Y-165226381D03*
%TD*%
D31*
%TO.C,J2*%
X183000000Y-158000000D03*
D26*
X183000000Y-162600000D03*
%TD*%
D13*
%TO.C,SW14*%
X149858837Y-178000000D03*
D14*
X144358837Y-178000000D03*
X155358837Y-178000000D03*
D15*
X149858837Y-183900000D03*
X144858837Y-181800000D03*
%TD*%
D13*
%TO.C,SW22*%
X197000000Y-141000000D03*
D14*
X191500000Y-141000000D03*
X202500000Y-141000000D03*
D15*
X197000000Y-146900000D03*
X192000000Y-144800000D03*
%TD*%
D13*
%TO.C,SW8*%
X130358837Y-159500000D03*
D14*
X124858837Y-159500000D03*
X135858837Y-159500000D03*
D15*
X130358837Y-165400000D03*
X125358837Y-163300000D03*
%TD*%
D27*
%TO.C,R3*%
X193300000Y-97490000D03*
D24*
X193300000Y-105110000D03*
%TD*%
D13*
%TO.C,SW11*%
X149858837Y-122500000D03*
D14*
X144358837Y-122500000D03*
X155358837Y-122500000D03*
D15*
X149858837Y-128400000D03*
X144858837Y-126300000D03*
%TD*%
D13*
%TO.C,SW15*%
X149858837Y-196500000D03*
D14*
X144358837Y-196500000D03*
X155358837Y-196500000D03*
D15*
X149858837Y-202400000D03*
X144858837Y-200300000D03*
%TD*%
D13*
%TO.C,SW19*%
X169358837Y-178000000D03*
D14*
X163858837Y-178000000D03*
X174858837Y-178000000D03*
D15*
X169358837Y-183900000D03*
X164358837Y-181800000D03*
%TD*%
D13*
%TO.C,SW20*%
X169358837Y-196500000D03*
D14*
X163858837Y-196500000D03*
X174858837Y-196500000D03*
D15*
X169358837Y-202400000D03*
X164358837Y-200300000D03*
%TD*%
D13*
%TO.C,SW5*%
X110858837Y-196500000D03*
D14*
X105358837Y-196500000D03*
X116358837Y-196500000D03*
D15*
X110858837Y-202400000D03*
X105858837Y-200300000D03*
%TD*%
D13*
%TO.C,SW16*%
X169358837Y-122500000D03*
D14*
X163858837Y-122500000D03*
X174858837Y-122500000D03*
D15*
X169358837Y-128400000D03*
X164358837Y-126300000D03*
%TD*%
D13*
%TO.C,SW1*%
X110858837Y-122510000D03*
D14*
X105358837Y-122510000D03*
X116358837Y-122510000D03*
D15*
X110858837Y-128410000D03*
X105858837Y-126310000D03*
%TD*%
D13*
%TO.C,SW32*%
X236000000Y-141000000D03*
D14*
X230500000Y-141000000D03*
X241500000Y-141000000D03*
D15*
X236000000Y-146900000D03*
X231000000Y-144800000D03*
%TD*%
D13*
%TO.C,SW35*%
X255500000Y-110858611D03*
D14*
X250000000Y-110858611D03*
X261000000Y-110858611D03*
D15*
X255500000Y-116758611D03*
X250500000Y-114658611D03*
%TD*%
D13*
%TO.C,SW46*%
X294500000Y-168804059D03*
D14*
X289000000Y-168804059D03*
X300000000Y-168804059D03*
D15*
X294500000Y-174704059D03*
X289500000Y-172604059D03*
%TD*%
D13*
%TO.C,SW10*%
X130358837Y-196500000D03*
D14*
X124858837Y-196500000D03*
X135858837Y-196500000D03*
D15*
X130358837Y-202400000D03*
X125358837Y-200300000D03*
%TD*%
D13*
%TO.C,SW2*%
X110868837Y-141000000D03*
D14*
X105368837Y-141000000D03*
X116368837Y-141000000D03*
D15*
X110868837Y-146900000D03*
X105868837Y-144800000D03*
%TD*%
D13*
%TO.C,SW34*%
X236000000Y-196500000D03*
D14*
X230500000Y-196500000D03*
X241500000Y-196500000D03*
D15*
X236000000Y-202400000D03*
X231000000Y-200300000D03*
%TD*%
D13*
%TO.C,SW27*%
X216500000Y-141000000D03*
D14*
X211000000Y-141000000D03*
X222000000Y-141000000D03*
D15*
X216500000Y-146900000D03*
X211500000Y-144800000D03*
%TD*%
D13*
%TO.C,SW39*%
X275000000Y-105926381D03*
D14*
X269500000Y-105926381D03*
X280500000Y-105926381D03*
D15*
X275000000Y-111826381D03*
X270000000Y-109726381D03*
%TD*%
D13*
%TO.C,SW48*%
X314000000Y-134291419D03*
D14*
X308500000Y-134291419D03*
X319500000Y-134291419D03*
D15*
X314000000Y-140191419D03*
X309000000Y-138091419D03*
%TD*%
D13*
%TO.C,SW50*%
X314000000Y-171291419D03*
D14*
X308500000Y-171291419D03*
X319500000Y-171291419D03*
D15*
X314000000Y-177191419D03*
X309000000Y-175091419D03*
%TD*%
D13*
%TO.C,SW26*%
X216500000Y-122500000D03*
D14*
X211000000Y-122500000D03*
X222000000Y-122500000D03*
D15*
X216500000Y-128400000D03*
X211500000Y-126300000D03*
%TD*%
D13*
%TO.C,SW18*%
X169358837Y-159500000D03*
D14*
X163858837Y-159500000D03*
X174858837Y-159500000D03*
D15*
X169358837Y-165400000D03*
X164358837Y-163300000D03*
%TD*%
D13*
%TO.C,SW7*%
X130358837Y-141000000D03*
D14*
X124858837Y-141000000D03*
X135858837Y-141000000D03*
D15*
X130358837Y-146900000D03*
X125358837Y-144800000D03*
%TD*%
D13*
%TO.C,SW41*%
X275000000Y-142926381D03*
D14*
X269500000Y-142926381D03*
X280500000Y-142926381D03*
D15*
X275000000Y-148826381D03*
X270000000Y-146726381D03*
%TD*%
D13*
%TO.C,SW6*%
X130358837Y-122500000D03*
D14*
X124858837Y-122500000D03*
X135858837Y-122500000D03*
D15*
X130358837Y-128400000D03*
X125358837Y-126300000D03*
%TD*%
D27*
%TO.C,R1*%
X174810000Y-102632500D03*
D24*
X167190000Y-102632500D03*
%TD*%
D13*
%TO.C,SW9*%
X130358837Y-178000000D03*
D14*
X124858837Y-178000000D03*
X135858837Y-178000000D03*
D15*
X130358837Y-183900000D03*
X125358837Y-181800000D03*
%TD*%
D13*
%TO.C,SW45*%
X294500000Y-150304059D03*
D14*
X289000000Y-150304059D03*
X300000000Y-150304059D03*
D15*
X294500000Y-156204059D03*
X289500000Y-154104059D03*
%TD*%
D13*
%TO.C,SW17*%
X169358837Y-141000000D03*
D14*
X163858837Y-141000000D03*
X174858837Y-141000000D03*
D15*
X169358837Y-146900000D03*
X164358837Y-144800000D03*
%TD*%
D13*
%TO.C,SW38*%
X255500000Y-166358611D03*
D14*
X250000000Y-166358611D03*
X261000000Y-166358611D03*
D15*
X255500000Y-172258611D03*
X250500000Y-170158611D03*
%TD*%
D13*
%TO.C,SW85*%
X255500000Y-147858611D03*
D14*
X261000000Y-147858611D03*
X250000000Y-147858611D03*
D15*
X255500000Y-153758611D03*
X260500000Y-151658611D03*
%TD*%
D13*
%TO.C,SW76*%
X216500000Y-178000000D03*
D14*
X222000000Y-178000000D03*
X211000000Y-178000000D03*
D15*
X216500000Y-183900000D03*
X221500000Y-181800000D03*
%TD*%
D13*
%TO.C,SW97*%
X314000000Y-152791419D03*
D14*
X319500000Y-152791419D03*
X308500000Y-152791419D03*
D15*
X314000000Y-158691419D03*
X319000000Y-156591419D03*
%TD*%
D13*
%TO.C,SW70*%
X197000000Y-159500000D03*
D14*
X202500000Y-159500000D03*
X191500000Y-159500000D03*
D15*
X197000000Y-165400000D03*
X202000000Y-163300000D03*
%TD*%
D23*
%TO.C,D30*%
X220310000Y-153000000D03*
D24*
X212690000Y-153000000D03*
%TD*%
D13*
%TO.C,SW99*%
X314000000Y-189791419D03*
D14*
X319500000Y-189791419D03*
X308500000Y-189791419D03*
D15*
X314000000Y-195691419D03*
X319000000Y-193591419D03*
%TD*%
D13*
%TO.C,SW86*%
X255500000Y-166358611D03*
D14*
X261000000Y-166358611D03*
X250000000Y-166358611D03*
D15*
X255500000Y-172258611D03*
X260500000Y-170158611D03*
%TD*%
D23*
%TO.C,D32*%
X228310000Y-171600000D03*
D24*
X220690000Y-171600000D03*
%TD*%
D23*
%TO.C,D53*%
X317810000Y-183300000D03*
D24*
X310190000Y-183300000D03*
%TD*%
D13*
%TO.C,SW66*%
X169358837Y-159500000D03*
D14*
X174858837Y-159500000D03*
X163858837Y-159500000D03*
D15*
X169358837Y-165400000D03*
X174358837Y-163300000D03*
%TD*%
D13*
%TO.C,SW80*%
X236000000Y-159500000D03*
D14*
X241500000Y-159500000D03*
X230500000Y-159500000D03*
D15*
X236000000Y-165400000D03*
X241000000Y-163300000D03*
%TD*%
D23*
%TO.C,D44*%
X278810000Y-155000000D03*
D24*
X271190000Y-155000000D03*
%TD*%
D23*
%TO.C,D5*%
X114713237Y-134549100D03*
D24*
X107093237Y-134549100D03*
%TD*%
D23*
%TO.C,D35*%
X239810000Y-153100000D03*
D24*
X232190000Y-153100000D03*
%TD*%
D23*
%TO.C,D52*%
X317810000Y-164800000D03*
D24*
X310190000Y-164800000D03*
%TD*%
D13*
%TO.C,SW94*%
X294500000Y-168804059D03*
D14*
X300000000Y-168804059D03*
X289000000Y-168804059D03*
D15*
X294500000Y-174704059D03*
X299500000Y-172604059D03*
%TD*%
D23*
%TO.C,D9*%
X134399837Y-134549100D03*
D24*
X126779837Y-134549100D03*
%TD*%
D23*
%TO.C,D12*%
X134213237Y-190049100D03*
D24*
X126593237Y-190049100D03*
%TD*%
D13*
%TO.C,SW56*%
X130358837Y-141000000D03*
D14*
X135858837Y-141000000D03*
X124858837Y-141000000D03*
D15*
X130358837Y-146900000D03*
X135358837Y-144800000D03*
%TD*%
D23*
%TO.C,D47*%
X298310000Y-143800000D03*
D24*
X290690000Y-143800000D03*
%TD*%
D23*
%TO.C,D23*%
X201113237Y-116049100D03*
D24*
X193493237Y-116049100D03*
%TD*%
D13*
%TO.C,SW60*%
X149858837Y-122500000D03*
D14*
X155358837Y-122500000D03*
X144358837Y-122500000D03*
D15*
X149858837Y-128400000D03*
X154858837Y-126300000D03*
%TD*%
D23*
%TO.C,D48*%
X298310000Y-162400000D03*
D24*
X290690000Y-162400000D03*
%TD*%
D23*
%TO.C,D37*%
X259310000Y-104400000D03*
D24*
X251690000Y-104400000D03*
%TD*%
D13*
%TO.C,SW62*%
X149858837Y-159500000D03*
D14*
X155358837Y-159500000D03*
X144358837Y-159500000D03*
D15*
X149858837Y-165400000D03*
X154858837Y-163300000D03*
%TD*%
D23*
%TO.C,D17*%
X153613237Y-190049100D03*
D24*
X145993237Y-190049100D03*
%TD*%
D13*
%TO.C,SW92*%
X294500000Y-131804059D03*
D14*
X300000000Y-131804059D03*
X289000000Y-131804059D03*
D15*
X294500000Y-137704059D03*
X299500000Y-135604059D03*
%TD*%
D23*
%TO.C,D46*%
X298310000Y-125400000D03*
D24*
X290690000Y-125400000D03*
%TD*%
D13*
%TO.C,SW57*%
X130358837Y-159500000D03*
D14*
X135858837Y-159500000D03*
X124858837Y-159500000D03*
D15*
X130358837Y-165400000D03*
X135358837Y-163300000D03*
%TD*%
D23*
%TO.C,D21*%
X173213237Y-171549100D03*
D24*
X165593237Y-171549100D03*
%TD*%
D23*
%TO.C,D18*%
X173013237Y-116049100D03*
D24*
X165393237Y-116049100D03*
%TD*%
D13*
%TO.C,SW81*%
X236000000Y-178000000D03*
D14*
X241500000Y-178000000D03*
X230500000Y-178000000D03*
D15*
X236000000Y-183900000D03*
X241000000Y-181800000D03*
%TD*%
D13*
%TO.C,SW98*%
X314000000Y-171291419D03*
D14*
X319500000Y-171291419D03*
X308500000Y-171291419D03*
D15*
X314000000Y-177191419D03*
X319000000Y-175091419D03*
%TD*%
D23*
%TO.C,D43*%
X278810000Y-136500000D03*
D24*
X271190000Y-136500000D03*
%TD*%
D13*
%TO.C,SW75*%
X216500000Y-159500000D03*
D14*
X222000000Y-159500000D03*
X211000000Y-159500000D03*
D15*
X216500000Y-165400000D03*
X221500000Y-163300000D03*
%TD*%
D23*
%TO.C,D38*%
X259310000Y-122900000D03*
D24*
X251690000Y-122900000D03*
%TD*%
D23*
%TO.C,D33*%
X239910000Y-116100000D03*
D24*
X232290000Y-116100000D03*
%TD*%
D23*
%TO.C,D10*%
X134213237Y-153049100D03*
D24*
X126593237Y-153049100D03*
%TD*%
D13*
%TO.C,SW84*%
X255500000Y-129358611D03*
D14*
X261000000Y-129358611D03*
X250000000Y-129358611D03*
D15*
X255500000Y-135258611D03*
X260500000Y-133158611D03*
%TD*%
D23*
%TO.C,D51*%
X317810000Y-146300000D03*
D24*
X310190000Y-146300000D03*
%TD*%
D23*
%TO.C,D40*%
X259310000Y-159900000D03*
D24*
X251690000Y-159900000D03*
%TD*%
D13*
%TO.C,SW77*%
X216500000Y-196500000D03*
D14*
X222000000Y-196500000D03*
X211000000Y-196500000D03*
D15*
X216500000Y-202400000D03*
X221500000Y-200300000D03*
%TD*%
D23*
%TO.C,D49*%
X317810000Y-109300000D03*
D24*
X310190000Y-109300000D03*
%TD*%
D23*
%TO.C,D42*%
X278810000Y-117900000D03*
D24*
X271190000Y-117900000D03*
%TD*%
D23*
%TO.C,D36*%
X239810000Y-190100000D03*
D24*
X232190000Y-190100000D03*
%TD*%
D13*
%TO.C,SW88*%
X275000000Y-124426381D03*
D14*
X280500000Y-124426381D03*
X269500000Y-124426381D03*
D15*
X275000000Y-130326381D03*
X280000000Y-128226381D03*
%TD*%
D13*
%TO.C,SW87*%
X275000000Y-105926381D03*
D14*
X280500000Y-105926381D03*
X269500000Y-105926381D03*
D15*
X275000000Y-111826381D03*
X280000000Y-109726381D03*
%TD*%
D13*
%TO.C,SW83*%
X255500000Y-110858611D03*
D14*
X261000000Y-110858611D03*
X250000000Y-110858611D03*
D15*
X255500000Y-116758611D03*
X260500000Y-114658611D03*
%TD*%
D23*
%TO.C,D45*%
X298310000Y-106800000D03*
D24*
X290690000Y-106800000D03*
%TD*%
D13*
%TO.C,SW96*%
X314000000Y-134291419D03*
D14*
X319500000Y-134291419D03*
X308500000Y-134291419D03*
D15*
X314000000Y-140191419D03*
X319000000Y-138091419D03*
%TD*%
D23*
%TO.C,D6*%
X114713237Y-171549100D03*
D24*
X107093237Y-171549100D03*
%TD*%
D13*
%TO.C,SW55*%
X130358837Y-122500000D03*
D14*
X135858837Y-122500000D03*
X124858837Y-122500000D03*
D15*
X130358837Y-128400000D03*
X135358837Y-126300000D03*
%TD*%
D23*
%TO.C,D7*%
X112310000Y-190300000D03*
D24*
X104690000Y-190300000D03*
%TD*%
D13*
%TO.C,SW89*%
X275000000Y-142926381D03*
D14*
X280500000Y-142926381D03*
X269500000Y-142926381D03*
D15*
X275000000Y-148826381D03*
X280000000Y-146726381D03*
%TD*%
D13*
%TO.C,SW63*%
X149858837Y-178000000D03*
D14*
X155358837Y-178000000D03*
X144358837Y-178000000D03*
D15*
X149858837Y-183900000D03*
X154858837Y-181800000D03*
%TD*%
D13*
%TO.C,SW95*%
X314000000Y-115791419D03*
D14*
X319500000Y-115791419D03*
X308500000Y-115791419D03*
D15*
X314000000Y-121691419D03*
X319000000Y-119591419D03*
%TD*%
D23*
%TO.C,D41*%
X278810000Y-99500000D03*
D24*
X271190000Y-99500000D03*
%TD*%
D13*
%TO.C,SW61*%
X149858837Y-141000000D03*
D14*
X155358837Y-141000000D03*
X144358837Y-141000000D03*
D15*
X149858837Y-146900000D03*
X154858837Y-144800000D03*
%TD*%
D13*
%TO.C,SW52*%
X110858837Y-122510000D03*
D14*
X116358837Y-122510000D03*
X105358837Y-122510000D03*
D15*
X110858837Y-128410000D03*
X115858837Y-126310000D03*
%TD*%
D23*
%TO.C,D4*%
X112310000Y-153300000D03*
D24*
X104690000Y-153300000D03*
%TD*%
D13*
%TO.C,SW72*%
X197000000Y-196500000D03*
D14*
X202500000Y-196500000D03*
X191500000Y-196500000D03*
D15*
X197000000Y-202400000D03*
X202000000Y-200300000D03*
%TD*%
D13*
%TO.C,SW67*%
X169358837Y-178000000D03*
D14*
X174858837Y-178000000D03*
X163858837Y-178000000D03*
D15*
X169358837Y-183900000D03*
X174358837Y-181800000D03*
%TD*%
D23*
%TO.C,D27*%
X200813237Y-190049100D03*
D24*
X193193237Y-190049100D03*
%TD*%
D13*
%TO.C,SW64*%
X169358837Y-122500000D03*
D14*
X174858837Y-122500000D03*
X163858837Y-122500000D03*
D15*
X169358837Y-128400000D03*
X174358837Y-126300000D03*
%TD*%
D13*
%TO.C,SW58*%
X130358837Y-178000000D03*
D14*
X135858837Y-178000000D03*
X124858837Y-178000000D03*
D15*
X130358837Y-183900000D03*
X135358837Y-181800000D03*
%TD*%
D23*
%TO.C,D50*%
X317810000Y-127800000D03*
D24*
X310190000Y-127800000D03*
%TD*%
D23*
%TO.C,D39*%
X259310000Y-141400000D03*
D24*
X251690000Y-141400000D03*
%TD*%
D23*
%TO.C,D3*%
X114813237Y-116049100D03*
D24*
X107193237Y-116049100D03*
%TD*%
D13*
%TO.C,SW93*%
X294500000Y-150304059D03*
D14*
X300000000Y-150304059D03*
X289000000Y-150304059D03*
D15*
X294500000Y-156204059D03*
X299500000Y-154104059D03*
%TD*%
D23*
%TO.C,D15*%
X153713237Y-153049100D03*
D24*
X146093237Y-153049100D03*
%TD*%
D13*
%TO.C,SW69*%
X197000000Y-141000000D03*
D14*
X202500000Y-141000000D03*
X191500000Y-141000000D03*
D15*
X197000000Y-146900000D03*
X202000000Y-144800000D03*
%TD*%
D23*
%TO.C,D28*%
X220310000Y-116100000D03*
D24*
X212690000Y-116100000D03*
%TD*%
D23*
%TO.C,D29*%
X220310000Y-134500000D03*
D24*
X212690000Y-134500000D03*
%TD*%
D23*
%TO.C,D25*%
X200810000Y-153049100D03*
D24*
X193190000Y-153049100D03*
%TD*%
D23*
%TO.C,D31*%
X219810000Y-190000000D03*
D24*
X212190000Y-190000000D03*
%TD*%
D23*
%TO.C,D24*%
X200813237Y-134649100D03*
D24*
X193193237Y-134649100D03*
%TD*%
D23*
%TO.C,D26*%
X200813237Y-171549100D03*
D24*
X193193237Y-171549100D03*
%TD*%
D13*
%TO.C,SW71*%
X197000000Y-178000000D03*
D14*
X202500000Y-178000000D03*
X191500000Y-178000000D03*
D15*
X197000000Y-183900000D03*
X202000000Y-181800000D03*
%TD*%
D23*
%TO.C,D8*%
X134399837Y-116049100D03*
D24*
X126779837Y-116049100D03*
%TD*%
D23*
%TO.C,D19*%
X173213237Y-134549100D03*
D24*
X165593237Y-134549100D03*
%TD*%
D23*
%TO.C,D13*%
X153813237Y-116049100D03*
D24*
X146193237Y-116049100D03*
%TD*%
D23*
%TO.C,D11*%
X134213237Y-171549100D03*
D24*
X126593237Y-171549100D03*
%TD*%
D13*
%TO.C,SW82*%
X236000000Y-196500000D03*
D14*
X241500000Y-196500000D03*
X230500000Y-196500000D03*
D15*
X236000000Y-202400000D03*
X241000000Y-200300000D03*
%TD*%
D23*
%TO.C,D20*%
X173213237Y-153049100D03*
D24*
X165593237Y-153049100D03*
%TD*%
D23*
%TO.C,D34*%
X239810000Y-134500000D03*
D24*
X232190000Y-134500000D03*
%TD*%
D13*
%TO.C,SW91*%
X294500000Y-113304059D03*
D14*
X300000000Y-113304059D03*
X289000000Y-113304059D03*
D15*
X294500000Y-119204059D03*
X299500000Y-117104059D03*
%TD*%
D13*
%TO.C,SW59*%
X130358837Y-196500000D03*
D14*
X135858837Y-196500000D03*
X124858837Y-196500000D03*
D15*
X130358837Y-202400000D03*
X135358837Y-200300000D03*
%TD*%
D13*
%TO.C,SW78*%
X236000000Y-122500000D03*
D14*
X241500000Y-122500000D03*
X230500000Y-122500000D03*
D15*
X236000000Y-128400000D03*
X241000000Y-126300000D03*
%TD*%
D13*
%TO.C,SW90*%
X275000000Y-161426381D03*
D14*
X280500000Y-161426381D03*
X269500000Y-161426381D03*
D15*
X275000000Y-167326381D03*
X280000000Y-165226381D03*
%TD*%
D23*
%TO.C,D14*%
X154113237Y-134549100D03*
D24*
X146493237Y-134549100D03*
%TD*%
D23*
%TO.C,D16*%
X153713237Y-171549100D03*
D24*
X146093237Y-171549100D03*
%TD*%
D13*
%TO.C,SW65*%
X169358837Y-141000000D03*
D14*
X174858837Y-141000000D03*
X163858837Y-141000000D03*
D15*
X169358837Y-146900000D03*
X174358837Y-144800000D03*
%TD*%
D13*
%TO.C,SW79*%
X236000000Y-141000000D03*
D14*
X241500000Y-141000000D03*
X230500000Y-141000000D03*
D15*
X236000000Y-146900000D03*
X241000000Y-144800000D03*
%TD*%
D23*
%TO.C,D22*%
X173213237Y-190049100D03*
D24*
X165593237Y-190049100D03*
%TD*%
D13*
%TO.C,SW74*%
X216500000Y-141000000D03*
D14*
X222000000Y-141000000D03*
X211000000Y-141000000D03*
D15*
X216500000Y-146900000D03*
X221500000Y-144800000D03*
%TD*%
M02*
