M48
; DRILL file {KiCad (6.0.1)} date Sun May  8 14:53:27 2022
; FORMAT={-:-/ absolute / metric / decimal}
; #@! TF.CreationDate,2022-05-08T14:53:27-04:00
; #@! TF.GenerationSoftware,Kicad,Pcbnew,(6.0.1)
; #@! TF.FileFunction,Plated,1,4,PTH
FMAT,2
METRIC
; #@! TA.AperFunction,Plated,PTH,ViaDrill
T1C0.400
; #@! TA.AperFunction,Plated,PTH,ComponentDrill
T2C0.600
; #@! TA.AperFunction,Plated,PTH,ViaDrill
T3C0.800
; #@! TA.AperFunction,Plated,PTH,ComponentDrill
T4C0.800
; #@! TA.AperFunction,Plated,PTH,ComponentDrill
T5C0.991
; #@! TA.AperFunction,Plated,PTH,ComponentDrill
T6C1.100
; #@! TA.AperFunction,Plated,PTH,ComponentDrill
T7C1.200
; #@! TA.AperFunction,Plated,PTH,ComponentDrill
T8C1.250
%
G90
G05
T1
X181.826Y-102.925
X183.5Y-103.132
X183.793Y-104.793
X184.5Y-103.132
X245.2Y-114.8
X245.2Y-118.8
X246.4Y-114.8
X246.4Y-118.8
X263.405Y-155.805
X265.313Y-135.43
X265.4Y-170.0
X266.8Y-116.8
X282.3Y-170.0
X302.509Y-121.691
X310.709Y-121.691
X320.4Y-108.9
T3
X179.8Y-104.425
T4
X104.69Y-153.3
X104.69Y-190.3
X107.093Y-134.549
X107.093Y-171.549
X107.193Y-116.049
X112.31Y-153.3
X112.31Y-190.3
X114.713Y-134.549
X114.713Y-171.549
X114.813Y-116.049
X126.593Y-153.049
X126.593Y-171.549
X126.593Y-190.049
X126.78Y-116.049
X126.78Y-134.549
X134.213Y-153.049
X134.213Y-171.549
X134.213Y-190.049
X134.4Y-116.049
X134.4Y-134.549
X145.993Y-190.049
X146.093Y-153.049
X146.093Y-171.549
X146.193Y-116.049
X146.493Y-134.549
X153.613Y-190.049
X153.713Y-153.049
X153.713Y-171.549
X153.813Y-116.049
X154.113Y-134.549
X165.393Y-116.049
X165.593Y-134.549
X165.593Y-153.049
X165.593Y-171.549
X165.593Y-190.049
X167.19Y-98.132
X167.19Y-102.632
X173.013Y-116.049
X173.213Y-134.549
X173.213Y-153.049
X173.213Y-171.549
X173.213Y-190.049
X174.81Y-98.132
X174.81Y-102.632
X179.19Y-107.0
X186.81Y-107.0
X193.19Y-153.049
X193.193Y-134.649
X193.193Y-171.549
X193.193Y-190.049
X193.3Y-97.49
X193.3Y-105.11
X193.493Y-116.049
X200.81Y-153.049
X200.813Y-134.649
X200.813Y-171.549
X200.813Y-190.049
X201.113Y-116.049
X212.19Y-190.0
X212.69Y-116.1
X212.69Y-134.5
X212.69Y-153.0
X219.81Y-190.0
X220.31Y-116.1
X220.31Y-134.5
X220.31Y-153.0
X220.69Y-171.6
X228.31Y-171.6
X232.19Y-134.5
X232.19Y-153.1
X232.19Y-190.1
X232.29Y-116.1
X234.69Y-171.5
X239.81Y-134.5
X239.81Y-153.1
X239.81Y-190.1
X239.91Y-116.1
X242.31Y-171.5
X251.69Y-104.4
X251.69Y-122.9
X251.69Y-141.4
X251.69Y-159.9
X259.31Y-104.4
X259.31Y-122.9
X259.31Y-141.4
X259.31Y-159.9
X266.19Y-172.5
X271.19Y-99.5
X271.19Y-117.9
X271.19Y-136.5
X271.19Y-155.0
X273.81Y-172.5
X278.81Y-99.5
X278.81Y-117.9
X278.81Y-136.5
X278.81Y-155.0
X290.49Y-99.5
X290.69Y-106.8
X290.69Y-125.4
X290.69Y-143.8
X290.69Y-162.4
X298.11Y-99.5
X298.31Y-106.8
X298.31Y-125.4
X298.31Y-143.8
X298.31Y-162.4
X307.98Y-104.0
X310.19Y-109.3
X310.19Y-127.8
X310.19Y-146.3
X310.19Y-164.8
X310.19Y-183.3
X315.6Y-104.0
X317.81Y-109.3
X317.81Y-127.8
X317.81Y-146.3
X317.81Y-164.8
X317.81Y-183.3
T5
X204.69Y-100.89
X204.69Y-108.51
X207.23Y-100.89
X207.23Y-108.51
X209.77Y-100.89
X209.77Y-108.51
X212.31Y-100.89
X212.31Y-108.51
X214.85Y-100.89
X214.85Y-108.51
X217.39Y-100.89
X217.39Y-108.51
X219.93Y-100.89
X219.93Y-108.51
X222.47Y-100.89
X222.47Y-108.51
X225.01Y-100.89
X225.01Y-108.51
X227.55Y-100.89
X227.55Y-108.51
X230.09Y-100.89
X230.09Y-108.51
X232.63Y-100.89
X232.63Y-108.51
X235.17Y-100.89
X235.17Y-108.51
X237.71Y-100.89
X237.71Y-108.51
T6
X183.0Y-158.0
X183.0Y-162.6
X246.5Y-177.0
X251.1Y-177.0
X277.0Y-172.5
X281.6Y-172.5
T7
X105.859Y-126.31
X105.859Y-163.3
X105.859Y-181.8
X105.859Y-200.3
X105.869Y-144.8
X110.859Y-128.41
X110.859Y-128.41
X110.859Y-156.15
X110.859Y-165.4
X110.859Y-183.9
X110.859Y-193.15
X110.859Y-202.4
X110.869Y-146.9
X115.859Y-126.31
X115.859Y-154.05
X115.859Y-191.05
X125.359Y-126.3
X125.359Y-144.8
X125.359Y-163.3
X125.359Y-181.8
X125.359Y-200.3
X130.359Y-128.4
X130.359Y-128.4
X130.359Y-146.9
X130.359Y-146.9
X130.359Y-165.4
X130.359Y-165.4
X130.359Y-183.9
X130.359Y-183.9
X130.359Y-202.4
X130.359Y-202.4
X135.359Y-126.3
X135.359Y-144.8
X135.359Y-163.3
X135.359Y-181.8
X135.359Y-200.3
X144.859Y-126.3
X144.859Y-144.8
X144.859Y-163.3
X144.859Y-181.8
X144.859Y-200.3
X149.859Y-128.4
X149.859Y-128.4
X149.859Y-146.9
X149.859Y-146.9
X149.859Y-165.4
X149.859Y-165.4
X149.859Y-183.9
X149.859Y-183.9
X149.859Y-202.4
X154.859Y-126.3
X154.859Y-144.8
X154.859Y-163.3
X154.859Y-181.8
X159.609Y-202.4
X164.359Y-126.3
X164.359Y-144.8
X164.359Y-163.3
X164.359Y-181.8
X164.359Y-200.3
X169.359Y-128.4
X169.359Y-128.4
X169.359Y-146.9
X169.359Y-146.9
X169.359Y-165.4
X169.359Y-165.4
X169.359Y-183.9
X169.359Y-183.9
X169.359Y-202.4
X174.359Y-126.3
X174.359Y-144.8
X174.359Y-163.3
X174.359Y-181.8
X192.0Y-126.3
X192.0Y-144.8
X192.0Y-163.3
X192.0Y-181.8
X192.0Y-200.3
X197.0Y-128.4
X197.0Y-146.9
X197.0Y-146.9
X197.0Y-165.4
X197.0Y-165.4
X197.0Y-183.9
X197.0Y-183.9
X197.0Y-202.4
X197.0Y-202.4
X202.0Y-144.8
X202.0Y-163.3
X202.0Y-181.8
X202.0Y-200.3
X206.75Y-128.4
X211.5Y-126.3
X211.5Y-144.8
X211.5Y-163.3
X211.5Y-200.3
X216.5Y-128.4
X216.5Y-146.9
X216.5Y-146.9
X216.5Y-165.4
X216.5Y-165.4
X216.5Y-183.9
X216.5Y-202.4
X216.5Y-202.4
X221.5Y-144.8
X221.5Y-163.3
X221.5Y-181.8
X221.5Y-200.3
X226.25Y-183.9
X231.0Y-126.3
X231.0Y-144.8
X231.0Y-163.3
X231.0Y-200.3
X236.0Y-128.4
X236.0Y-128.4
X236.0Y-146.9
X236.0Y-146.9
X236.0Y-165.4
X236.0Y-165.4
X236.0Y-183.9
X236.0Y-202.4
X236.0Y-202.4
X241.0Y-126.3
X241.0Y-144.8
X241.0Y-163.3
X241.0Y-181.8
X241.0Y-200.3
X250.5Y-114.659
X250.5Y-133.159
X250.5Y-151.659
X250.5Y-170.159
X255.5Y-116.759
X255.5Y-116.759
X255.5Y-135.259
X255.5Y-135.259
X255.5Y-153.759
X255.5Y-153.759
X255.5Y-172.259
X255.5Y-172.259
X260.5Y-114.659
X260.5Y-133.159
X260.5Y-151.659
X260.5Y-170.159
X270.0Y-109.726
X270.0Y-128.226
X270.0Y-146.726
X270.0Y-165.226
X275.0Y-111.826
X275.0Y-111.826
X275.0Y-130.326
X275.0Y-130.326
X275.0Y-148.826
X275.0Y-148.826
X275.0Y-167.326
X275.0Y-167.326
X280.0Y-109.726
X280.0Y-128.226
X280.0Y-146.726
X280.0Y-165.226
X289.5Y-117.104
X289.5Y-135.604
X289.5Y-154.104
X289.5Y-172.604
X294.5Y-119.204
X294.5Y-119.204
X294.5Y-137.704
X294.5Y-137.704
X294.5Y-156.204
X294.5Y-156.204
X294.5Y-174.704
X294.5Y-174.704
X299.5Y-117.104
X299.5Y-135.604
X299.5Y-154.104
X299.5Y-172.604
X309.0Y-119.591
X309.0Y-138.091
X309.0Y-156.591
X309.0Y-175.091
X309.0Y-193.591
X314.0Y-121.691
X314.0Y-121.691
X314.0Y-140.191
X314.0Y-140.191
X314.0Y-158.691
X314.0Y-158.691
X314.0Y-177.191
X314.0Y-177.191
X314.0Y-195.691
X314.0Y-195.691
X319.0Y-119.591
X319.0Y-138.091
X319.0Y-156.591
X319.0Y-175.091
X319.0Y-193.591
T8
X266.617Y-178.76
X266.617Y-181.3
X266.617Y-183.84
X266.617Y-186.38
X266.617Y-188.92
X266.617Y-191.46
X266.617Y-194.0
X282.781Y-178.76
X282.781Y-181.3
X282.781Y-183.84
X282.781Y-186.38
X282.781Y-188.92
X282.781Y-191.46
X282.781Y-194.0
T2
X177.88Y-97.132G85X177.88Y-96.132
G05
X177.88Y-96.132G85X177.88Y-97.132
G05
X177.88Y-100.332G85X177.88Y-100.932
G05
X177.88Y-100.932G85X177.88Y-100.332
G05
X189.12Y-97.132G85X189.12Y-96.132
G05
X189.12Y-96.132G85X189.12Y-97.132
G05
X189.12Y-100.332G85X189.12Y-100.932
G05
X189.12Y-100.932G85X189.12Y-100.332
G05
T7
X164.359Y-200.3G85X164.609Y-200.3
G05
X211.5Y-126.3G85X211.75Y-126.3
G05
X221.5Y-181.8G85X221.25Y-181.8
G05
T0
M30
