M48
; DRILL file {KiCad (6.0.1)} date Sun May  8 14:53:27 2022
; FORMAT={-:-/ absolute / metric / decimal}
; #@! TF.CreationDate,2022-05-08T14:53:27-04:00
; #@! TF.GenerationSoftware,Kicad,Pcbnew,(6.0.1)
; #@! TF.FileFunction,NonPlated,1,4,NPTH
FMAT,2
METRIC
; #@! TA.AperFunction,NonPlated,NPTH,ComponentDrill
T1C1.800
; #@! TA.AperFunction,NonPlated,NPTH,ComponentDrill
T2C3.200
%
G90
G05
T1
X105.359Y-122.51
X105.359Y-122.51
X105.359Y-150.25
X105.359Y-159.5
X105.359Y-178.0
X105.359Y-187.25
X105.359Y-196.5
X105.369Y-141.0
X116.359Y-122.51
X116.359Y-122.51
X116.359Y-150.25
X116.359Y-159.5
X116.359Y-178.0
X116.359Y-187.25
X116.359Y-196.5
X116.369Y-141.0
X124.859Y-122.5
X124.859Y-122.5
X124.859Y-141.0
X124.859Y-141.0
X124.859Y-159.5
X124.859Y-159.5
X124.859Y-178.0
X124.859Y-178.0
X124.859Y-196.5
X124.859Y-196.5
X135.859Y-122.5
X135.859Y-122.5
X135.859Y-141.0
X135.859Y-141.0
X135.859Y-159.5
X135.859Y-159.5
X135.859Y-178.0
X135.859Y-178.0
X135.859Y-196.5
X135.859Y-196.5
X144.359Y-122.5
X144.359Y-122.5
X144.359Y-141.0
X144.359Y-141.0
X144.359Y-159.5
X144.359Y-159.5
X144.359Y-178.0
X144.359Y-178.0
X144.359Y-196.5
X155.359Y-122.5
X155.359Y-122.5
X155.359Y-141.0
X155.359Y-141.0
X155.359Y-159.5
X155.359Y-159.5
X155.359Y-178.0
X155.359Y-178.0
X155.359Y-196.5
X163.859Y-122.5
X163.859Y-122.5
X163.859Y-141.0
X163.859Y-141.0
X163.859Y-159.5
X163.859Y-159.5
X163.859Y-178.0
X163.859Y-178.0
X163.859Y-196.5
X174.859Y-122.5
X174.859Y-122.5
X174.859Y-141.0
X174.859Y-141.0
X174.859Y-159.5
X174.859Y-159.5
X174.859Y-178.0
X174.859Y-178.0
X174.859Y-196.5
X191.5Y-122.5
X191.5Y-141.0
X191.5Y-141.0
X191.5Y-159.5
X191.5Y-159.5
X191.5Y-178.0
X191.5Y-178.0
X191.5Y-196.5
X191.5Y-196.5
X202.5Y-122.5
X202.5Y-141.0
X202.5Y-141.0
X202.5Y-159.5
X202.5Y-159.5
X202.5Y-178.0
X202.5Y-178.0
X202.5Y-196.5
X202.5Y-196.5
X211.0Y-122.5
X211.0Y-141.0
X211.0Y-141.0
X211.0Y-159.5
X211.0Y-159.5
X211.0Y-178.0
X211.0Y-196.5
X211.0Y-196.5
X222.0Y-122.5
X222.0Y-141.0
X222.0Y-141.0
X222.0Y-159.5
X222.0Y-159.5
X222.0Y-178.0
X222.0Y-196.5
X222.0Y-196.5
X230.5Y-122.5
X230.5Y-122.5
X230.5Y-141.0
X230.5Y-141.0
X230.5Y-159.5
X230.5Y-159.5
X230.5Y-178.0
X230.5Y-196.5
X230.5Y-196.5
X241.5Y-122.5
X241.5Y-122.5
X241.5Y-141.0
X241.5Y-141.0
X241.5Y-159.5
X241.5Y-159.5
X241.5Y-178.0
X241.5Y-196.5
X241.5Y-196.5
X250.0Y-110.859
X250.0Y-110.859
X250.0Y-129.359
X250.0Y-129.359
X250.0Y-147.859
X250.0Y-147.859
X250.0Y-166.359
X250.0Y-166.359
X261.0Y-110.859
X261.0Y-110.859
X261.0Y-129.359
X261.0Y-129.359
X261.0Y-147.859
X261.0Y-147.859
X261.0Y-166.359
X261.0Y-166.359
X269.5Y-105.926
X269.5Y-105.926
X269.5Y-124.426
X269.5Y-124.426
X269.5Y-142.926
X269.5Y-142.926
X269.5Y-161.426
X269.5Y-161.426
X280.5Y-105.926
X280.5Y-105.926
X280.5Y-124.426
X280.5Y-124.426
X280.5Y-142.926
X280.5Y-142.926
X280.5Y-161.426
X280.5Y-161.426
X289.0Y-113.304
X289.0Y-113.304
X289.0Y-131.804
X289.0Y-131.804
X289.0Y-150.304
X289.0Y-150.304
X289.0Y-168.804
X289.0Y-168.804
X300.0Y-113.304
X300.0Y-113.304
X300.0Y-131.804
X300.0Y-131.804
X300.0Y-150.304
X300.0Y-150.304
X300.0Y-168.804
X300.0Y-168.804
X308.5Y-115.791
X308.5Y-115.791
X308.5Y-134.291
X308.5Y-134.291
X308.5Y-152.791
X308.5Y-152.791
X308.5Y-171.291
X308.5Y-171.291
X308.5Y-189.791
X308.5Y-189.791
X319.5Y-115.791
X319.5Y-115.791
X319.5Y-134.291
X319.5Y-134.291
X319.5Y-152.791
X319.5Y-152.791
X319.5Y-171.291
X319.5Y-171.291
X319.5Y-189.791
X319.5Y-189.791
T2
X110.859Y-122.51
X110.859Y-122.51
X110.859Y-150.25
X110.859Y-159.5
X110.859Y-178.0
X110.859Y-187.25
X110.859Y-196.5
X110.869Y-141.0
X130.359Y-122.5
X130.359Y-122.5
X130.359Y-141.0
X130.359Y-141.0
X130.359Y-159.5
X130.359Y-159.5
X130.359Y-178.0
X130.359Y-178.0
X130.359Y-196.5
X130.359Y-196.5
X149.859Y-122.5
X149.859Y-122.5
X149.859Y-141.0
X149.859Y-141.0
X149.859Y-159.5
X149.859Y-159.5
X149.859Y-178.0
X149.859Y-178.0
X149.859Y-196.5
X159.609Y-196.5
X169.359Y-122.5
X169.359Y-122.5
X169.359Y-141.0
X169.359Y-141.0
X169.359Y-159.5
X169.359Y-159.5
X169.359Y-178.0
X169.359Y-178.0
X169.359Y-196.5
X197.0Y-122.5
X197.0Y-141.0
X197.0Y-141.0
X197.0Y-159.5
X197.0Y-159.5
X197.0Y-178.0
X197.0Y-178.0
X197.0Y-196.5
X197.0Y-196.5
X206.75Y-122.5
X216.5Y-122.5
X216.5Y-141.0
X216.5Y-141.0
X216.5Y-159.5
X216.5Y-159.5
X216.5Y-178.0
X216.5Y-196.5
X216.5Y-196.5
X226.25Y-178.0
X236.0Y-122.5
X236.0Y-122.5
X236.0Y-141.0
X236.0Y-141.0
X236.0Y-159.5
X236.0Y-159.5
X236.0Y-178.0
X236.0Y-196.5
X236.0Y-196.5
X255.5Y-110.859
X255.5Y-110.859
X255.5Y-129.359
X255.5Y-129.359
X255.5Y-147.859
X255.5Y-147.859
X255.5Y-166.359
X255.5Y-166.359
X275.0Y-105.926
X275.0Y-105.926
X275.0Y-124.426
X275.0Y-124.426
X275.0Y-142.926
X275.0Y-142.926
X275.0Y-161.426
X275.0Y-161.426
X294.5Y-113.304
X294.5Y-113.304
X294.5Y-131.804
X294.5Y-131.804
X294.5Y-150.304
X294.5Y-150.304
X294.5Y-168.804
X294.5Y-168.804
X314.0Y-115.791
X314.0Y-115.791
X314.0Y-134.291
X314.0Y-134.291
X314.0Y-152.791
X314.0Y-152.791
X314.0Y-171.291
X314.0Y-171.291
X314.0Y-189.791
X314.0Y-189.791
T1
X154.109Y-196.5G85X155.359Y-196.5
G05
X163.834Y-196.5G85X165.084Y-196.5
G05
X201.25Y-122.5G85X202.5Y-122.5
G05
X210.975Y-122.5G85X212.225Y-122.5
G05
X222.025Y-178.0G85X220.775Y-178.0
G05
X231.75Y-178.0G85X230.5Y-178.0
G05
T0
M30
